<svg class="plot-chart" fill="currentColor" font-family="system-ui, sans-serif" font-size="10" text-anchor="middle" width="500" height="500" viewBox="0 0 500 500" style="overflow: visible;" xmlns="http://www.w3.org/2000/svg"><style>:where(.plot-chart) {
  --plot-background: white;
  display: block;
  height: auto;
  height: intrinsic;
  max-width: 100%;
}
:where(.plot-chart text),
:where(.plot-chart tspan) {
  white-space: pre;
}</style><g aria-label="y-axis tick" aria-hidden="true" fill="none" stroke="currentColor"><path transform="translate(61.3,428.02912090729353)" d="M0,0L-6,0"></path><path transform="translate(61.3,400.84637053523664)" d="M0,0L-6,0"></path><path transform="translate(61.3,373.66362016317976)" d="M0,0L-6,0"></path><path transform="translate(61.3,346.48086979112287)" d="M0,0L-6,0"></path><path transform="translate(61.3,319.298119419066)" d="M0,0L-6,0"></path><path transform="translate(61.3,292.11536904700904)" d="M0,0L-6,0"></path><path transform="translate(61.3,264.93261867495215)" d="M0,0L-6,0"></path><path transform="translate(61.3,237.74986830289524)" d="M0,0L-6,0"></path><path transform="translate(61.3,210.56711793083832)" d="M0,0L-6,0"></path><path transform="translate(61.3,183.38436755878146)" d="M0,0L-6,0"></path><path transform="translate(61.3,156.20161718672458)" d="M0,0L-6,0"></path><path transform="translate(61.3,129.0188668146677)" d="M0,0L-6,0"></path><path transform="translate(61.3,101.83611644261079)" d="M0,0L-6,0"></path><path transform="translate(61.3,74.65336607055386)" d="M0,0L-6,0"></path><path transform="translate(61.3,47.47061569849697)" d="M0,0L-6,0"></path><path transform="translate(61.3,20.287865326440084)" d="M0,0L-6,0"></path></g><g aria-label="y-axis tick label" text-anchor="end" font-variant="tabular-nums" transform="translate(-9,0)"><text y="0.32em" transform="translate(61.3,428.02912090729353)">0</text><text y="0.32em" transform="translate(61.3,400.84637053523664)">200,000</text><text y="0.32em" transform="translate(61.3,373.66362016317976)">400,000</text><text y="0.32em" transform="translate(61.3,346.48086979112287)">600,000</text><text y="0.32em" transform="translate(61.3,319.298119419066)">800,000</text><text y="0.32em" transform="translate(61.3,292.11536904700904)">1,000,000</text><text y="0.32em" transform="translate(61.3,264.93261867495215)">1,200,000</text><text y="0.32em" transform="translate(61.3,237.74986830289524)">1,400,000</text><text y="0.32em" transform="translate(61.3,210.56711793083832)">1,600,000</text><text y="0.32em" transform="translate(61.3,183.38436755878146)">1,800,000</text><text y="0.32em" transform="translate(61.3,156.20161718672458)">2,000,000</text><text y="0.32em" transform="translate(61.3,129.0188668146677)">2,200,000</text><text y="0.32em" transform="translate(61.3,101.83611644261079)">2,400,000</text><text y="0.32em" transform="translate(61.3,74.65336607055386)">2,600,000</text><text y="0.32em" transform="translate(61.3,47.47061569849697)">2,800,000</text><text y="0.32em" transform="translate(61.3,20.287865326440084)">3,000,000</text></g><g aria-label="y-axis label" text-anchor="start" transform="translate(-58.3,-17)"><text y="0.71em" transform="translate(61.3,20)">↑ Sum of Count</text></g><g aria-label="x-axis tick" aria-hidden="true" fill="none" stroke="currentColor" transform="translate(27.5,0)"><path transform="translate(70,428.02912090729353)" d="M0,0L0,6"></path><path transform="translate(131,428.02912090729353)" d="M0,0L0,6"></path><path transform="translate(192,428.02912090729353)" d="M0,0L0,6"></path><path transform="translate(253,428.02912090729353)" d="M0,0L0,6"></path><path transform="translate(314,428.02912090729353)" d="M0,0L0,6"></path><path transform="translate(375,428.02912090729353)" d="M0,0L0,6"></path><path transform="translate(436,428.02912090729353)" d="M0,0L0,6"></path></g><g aria-label="x-axis tick label" text-anchor="end" transform="translate(27.5,11.82842712474619)"><text y="0.32em" transform="translate(70,428.02912090729353) rotate(-45)">Bronx</text><text y="0.32em" transform="translate(131,428.02912090729353) rotate(-45)">Brooklyn</text><text y="0.32em" transform="translate(192,428.02912090729353) rotate(-45)">EWR</text><text y="0.32em" transform="translate(253,428.02912090729353) rotate(-45)">Manhattan</text><text y="0.32em" transform="translate(314,428.02912090729353) rotate(-45)">Queens</text><text y="0.32em" transform="translate(375,428.02912090729353) rotate(-45)">Staten Island</text><text y="0.32em" transform="translate(436,428.02912090729353) rotate(-45)">Unknown</text></g><g aria-label="x-axis label" transform="translate(0,68.9708790927065)"><text transform="translate(280.65,428.02912090729353)">Borough</text></g><rect aria-label="frame" fill="hsla( 0 0% 100%)" stroke="hsla(220 6% 90%)" x="61.3" y="20" width="438.7" height="408.02912090729353" rx="4" ry="4"></rect><g aria-label="y-grid" aria-hidden="true" stroke="hsla(220 6% 90%)" stroke-dasharray="1.5,1.5"><line x1="61.3" x2="500" y1="428.02912090729353" y2="428.02912090729353"></line><line x1="61.3" x2="500" y1="400.84637053523664" y2="400.84637053523664"></line><line x1="61.3" x2="500" y1="373.66362016317976" y2="373.66362016317976"></line><line x1="61.3" x2="500" y1="346.48086979112287" y2="346.48086979112287"></line><line x1="61.3" x2="500" y1="319.298119419066" y2="319.298119419066"></line><line x1="61.3" x2="500" y1="292.11536904700904" y2="292.11536904700904"></line><line x1="61.3" x2="500" y1="264.93261867495215" y2="264.93261867495215"></line><line x1="61.3" x2="500" y1="237.74986830289524" y2="237.74986830289524"></line><line x1="61.3" x2="500" y1="210.56711793083832" y2="210.56711793083832"></line><line x1="61.3" x2="500" y1="183.38436755878146" y2="183.38436755878146"></line><line x1="61.3" x2="500" y1="156.20161718672458" y2="156.20161718672458"></line><line x1="61.3" x2="500" y1="129.0188668146677" y2="129.0188668146677"></line><line x1="61.3" x2="500" y1="101.83611644261079" y2="101.83611644261079"></line><line x1="61.3" x2="500" y1="74.65336607055386" y2="74.65336607055386"></line><line x1="61.3" x2="500" y1="47.47061569849697" y2="47.47061569849697"></line><line x1="61.3" x2="500" y1="20.287865326440084" y2="20.287865326440084"></line></g><g aria-label="bar" fill="hsla(317 100% 50%)"><rect x="70" width="55" y="427.36205621316327" height="0.6670646941302607"></rect><rect x="131" width="55" y="424.80687767818995" height="3.222243229103583"></rect><rect x="192" width="55" y="427.89973101552255" height="0.12938989177098392"></rect><rect x="253" width="55" y="20" height="408.02912090729353"></rect><rect x="314" width="55" y="385.3163215926731" height="42.71279931462044"></rect><rect x="375" width="55" y="427.97937647411266" height="0.04974443318087651"></rect><rect x="436" width="55" y="420.794024154515" height="7.2350967527785315"></rect></g></svg>