<svg class="plot-chart" fill="currentColor" font-family="system-ui, sans-serif" font-size="10" text-anchor="middle" width="500" height="500" viewBox="0 0 500 500" style="overflow: visible;" xmlns="http://www.w3.org/2000/svg"><style>:where(.plot-chart) {
  --plot-background: white;
  display: block;
  height: auto;
  height: intrinsic;
  max-width: 100%;
}
:where(.plot-chart text),
:where(.plot-chart tspan) {
  white-space: pre;
}</style><g aria-label="y-axis tick" aria-hidden="true" fill="none" stroke="currentColor"><path transform="translate(40,470)" d="M0,0L-6,0"></path><path transform="translate(40,436.1905927776604)" d="M0,0L-6,0"></path><path transform="translate(40,402.38118555532077)" d="M0,0L-6,0"></path><path transform="translate(40,368.5717783329812)" d="M0,0L-6,0"></path><path transform="translate(40,334.76237111064154)" d="M0,0L-6,0"></path><path transform="translate(40,300.95296388830195)" d="M0,0L-6,0"></path><path transform="translate(40,267.14355666596225)" d="M0,0L-6,0"></path><path transform="translate(40,233.33414944362275)" d="M0,0L-6,0"></path><path transform="translate(40,199.5247422212831)" d="M0,0L-6,0"></path><path transform="translate(40,165.7153349989435)" d="M0,0L-6,0"></path><path transform="translate(40,131.9059277766039)" d="M0,0L-6,0"></path><path transform="translate(40,98.09652055426427)" d="M0,0L-6,0"></path><path transform="translate(40,64.28711333192466)" d="M0,0L-6,0"></path><path transform="translate(40,30.477706109585046)" d="M0,0L-6,0"></path></g><g aria-label="y-axis tick label" text-anchor="end" font-variant="tabular-nums" transform="translate(-9,0)"><text y="0.32em" transform="translate(40,470)">0</text><text y="0.32em" transform="translate(40,436.1905927776604)">1</text><text y="0.32em" transform="translate(40,402.38118555532077)">2</text><text y="0.32em" transform="translate(40,368.5717783329812)">3</text><text y="0.32em" transform="translate(40,334.76237111064154)">4</text><text y="0.32em" transform="translate(40,300.95296388830195)">5</text><text y="0.32em" transform="translate(40,267.14355666596225)">6</text><text y="0.32em" transform="translate(40,233.33414944362275)">7</text><text y="0.32em" transform="translate(40,199.5247422212831)">8</text><text y="0.32em" transform="translate(40,165.7153349989435)">9</text><text y="0.32em" transform="translate(40,131.9059277766039)">10</text><text y="0.32em" transform="translate(40,98.09652055426427)">11</text><text y="0.32em" transform="translate(40,64.28711333192466)">12</text><text y="0.32em" transform="translate(40,30.477706109585046)">13</text></g><g aria-label="y-axis label" text-anchor="start" transform="translate(-37,-17)"><text y="0.71em" transform="translate(40,20)">↑ Sum of Consensus Income</text></g><g aria-label="x-axis tick" aria-hidden="true" fill="none" stroke="currentColor" transform="translate(4.489795918367347,0)"><path transform="translate(40.997732426303855,470)" d="M0,0L0,6"></path><path transform="translate(50.9750566893424,470)" d="M0,0L0,6"></path><path transform="translate(60.95238095238095,470)" d="M0,0L0,6"></path><path transform="translate(70.9297052154195,470)" d="M0,0L0,6"></path><path transform="translate(80.90702947845804,470)" d="M0,0L0,6"></path><path transform="translate(90.8843537414966,470)" d="M0,0L0,6"></path><path transform="translate(100.86167800453515,470)" d="M0,0L0,6"></path><path transform="translate(110.83900226757369,470)" d="M0,0L0,6"></path><path transform="translate(120.81632653061224,470)" d="M0,0L0,6"></path><path transform="translate(130.79365079365078,470)" d="M0,0L0,6"></path><path transform="translate(140.77097505668934,470)" d="M0,0L0,6"></path><path transform="translate(150.7482993197279,470)" d="M0,0L0,6"></path><path transform="translate(160.72562358276645,470)" d="M0,0L0,6"></path><path transform="translate(170.702947845805,470)" d="M0,0L0,6"></path><path transform="translate(180.68027210884352,470)" d="M0,0L0,6"></path><path transform="translate(190.65759637188208,470)" d="M0,0L0,6"></path><path transform="translate(200.63492063492063,470)" d="M0,0L0,6"></path><path transform="translate(210.6122448979592,470)" d="M0,0L0,6"></path><path transform="translate(220.58956916099774,470)" d="M0,0L0,6"></path><path transform="translate(230.56689342403627,470)" d="M0,0L0,6"></path><path transform="translate(240.54421768707482,470)" d="M0,0L0,6"></path><path transform="translate(250.52154195011337,470)" d="M0,0L0,6"></path><path transform="translate(260.4988662131519,470)" d="M0,0L0,6"></path><path transform="translate(270.4761904761905,470)" d="M0,0L0,6"></path><path transform="translate(280.45351473922904,470)" d="M0,0L0,6"></path><path transform="translate(290.4308390022676,470)" d="M0,0L0,6"></path><path transform="translate(300.40816326530614,470)" d="M0,0L0,6"></path><path transform="translate(310.38548752834464,470)" d="M0,0L0,6"></path><path transform="translate(320.3628117913832,470)" d="M0,0L0,6"></path><path transform="translate(330.34013605442175,470)" d="M0,0L0,6"></path><path transform="translate(340.3174603174603,470)" d="M0,0L0,6"></path><path transform="translate(350.29478458049886,470)" d="M0,0L0,6"></path><path transform="translate(360.2721088435374,470)" d="M0,0L0,6"></path><path transform="translate(370.24943310657596,470)" d="M0,0L0,6"></path><path transform="translate(380.2267573696145,470)" d="M0,0L0,6"></path><path transform="translate(390.2040816326531,470)" d="M0,0L0,6"></path><path transform="translate(400.1814058956916,470)" d="M0,0L0,6"></path><path transform="translate(410.1587301587302,470)" d="M0,0L0,6"></path><path transform="translate(420.1360544217687,470)" d="M0,0L0,6"></path><path transform="translate(430.11337868480723,470)" d="M0,0L0,6"></path><path transform="translate(440.0907029478458,470)" d="M0,0L0,6"></path><path transform="translate(450.06802721088434,470)" d="M0,0L0,6"></path><path transform="translate(460.0453514739229,470)" d="M0,0L0,6"></path><path transform="translate(470.02267573696145,470)" d="M0,0L0,6"></path></g><g aria-label="x-axis tick label" transform="translate(4.489795918367347,9)"><text transform="translate(40.997732426303855,470)"><tspan x="0" y="0.71em">Dec</tspan><tspan x="0" dy="1em">2020</tspan></text><text transform="translate(50.9750566893424,470)"><tspan x="0" y="0.71em">Jan</tspan><tspan x="0" dy="1em">2021</tspan></text><text y="0.71em" transform="translate(60.95238095238095,470)">Feb</text><text y="0.71em" transform="translate(70.9297052154195,470)">Mar</text><text y="0.71em" transform="translate(80.90702947845804,470)">Apr</text><text y="0.71em" transform="translate(90.8843537414966,470)">May</text><text y="0.71em" transform="translate(100.86167800453515,470)">Jun</text><text y="0.71em" transform="translate(110.83900226757369,470)">Jul</text><text y="0.71em" transform="translate(120.81632653061224,470)">Aug</text><text y="0.71em" transform="translate(130.79365079365078,470)">Sep</text><text y="0.71em" transform="translate(140.77097505668934,470)">Oct</text><text y="0.71em" transform="translate(150.7482993197279,470)">Nov</text><text y="0.71em" transform="translate(160.72562358276645,470)">Dec</text><text transform="translate(170.702947845805,470)"><tspan x="0" y="0.71em">Jan</tspan><tspan x="0" dy="1em">2022</tspan></text><text y="0.71em" transform="translate(180.68027210884352,470)">Feb</text><text y="0.71em" transform="translate(190.65759637188208,470)">Mar</text><text y="0.71em" transform="translate(200.63492063492063,470)">Apr</text><text y="0.71em" transform="translate(210.6122448979592,470)">May</text><text y="0.71em" transform="translate(220.58956916099774,470)">Jun</text><text y="0.71em" transform="translate(230.56689342403627,470)">Jul</text><text y="0.71em" transform="translate(240.54421768707482,470)">Aug</text><text y="0.71em" transform="translate(250.52154195011337,470)">Sep</text><text y="0.71em" transform="translate(260.4988662131519,470)">Oct</text><text y="0.71em" transform="translate(270.4761904761905,470)">Nov</text><text y="0.71em" transform="translate(280.45351473922904,470)">Dec</text><text transform="translate(290.4308390022676,470)"><tspan x="0" y="0.71em">Jan</tspan><tspan x="0" dy="1em">2023</tspan></text><text y="0.71em" transform="translate(300.40816326530614,470)">Feb</text><text y="0.71em" transform="translate(310.38548752834464,470)">Mar</text><text y="0.71em" transform="translate(320.3628117913832,470)">Apr</text><text y="0.71em" transform="translate(330.34013605442175,470)">May</text><text y="0.71em" transform="translate(340.3174603174603,470)">Jun</text><text y="0.71em" transform="translate(350.29478458049886,470)">Jul</text><text y="0.71em" transform="translate(360.2721088435374,470)">Aug</text><text y="0.71em" transform="translate(370.24943310657596,470)">Sep</text><text y="0.71em" transform="translate(380.2267573696145,470)">Oct</text><text y="0.71em" transform="translate(390.2040816326531,470)">Nov</text><text y="0.71em" transform="translate(400.1814058956916,470)">Dec</text><text transform="translate(410.1587301587302,470)"><tspan x="0" y="0.71em">Jan</tspan><tspan x="0" dy="1em">2024</tspan></text><text y="0.71em" transform="translate(420.1360544217687,470)">Feb</text><text y="0.71em" transform="translate(430.11337868480723,470)">Mar</text><text y="0.71em" transform="translate(440.0907029478458,470)">Apr</text><text y="0.71em" transform="translate(450.06802721088434,470)">May</text><text y="0.71em" transform="translate(460.0453514739229,470)">Jun</text><text y="0.71em" transform="translate(470.02267573696145,470)">Jul</text></g><g aria-label="x-axis label" transform="translate(0,27)"><text transform="translate(260,470)">Month</text></g><rect aria-label="frame" fill="hsla( 0 0% 100%)" stroke="hsla(220 6% 90%)" x="40" y="20" width="440" height="450" rx="4" ry="4"></rect><g aria-label="y-grid" aria-hidden="true" stroke="hsla(220 6% 90%)" stroke-dasharray="1.5,1.5"><line x1="40" x2="480" y1="470" y2="470"></line><line x1="40" x2="480" y1="436.1905927776604" y2="436.1905927776604"></line><line x1="40" x2="480" y1="402.38118555532077" y2="402.38118555532077"></line><line x1="40" x2="480" y1="368.5717783329812" y2="368.5717783329812"></line><line x1="40" x2="480" y1="334.76237111064154" y2="334.76237111064154"></line><line x1="40" x2="480" y1="300.95296388830195" y2="300.95296388830195"></line><line x1="40" x2="480" y1="267.14355666596225" y2="267.14355666596225"></line><line x1="40" x2="480" y1="233.33414944362275" y2="233.33414944362275"></line><line x1="40" x2="480" y1="199.5247422212831" y2="199.5247422212831"></line><line x1="40" x2="480" y1="165.7153349989435" y2="165.7153349989435"></line><line x1="40" x2="480" y1="131.9059277766039" y2="131.9059277766039"></line><line x1="40" x2="480" y1="98.09652055426427" y2="98.09652055426427"></line><line x1="40" x2="480" y1="64.28711333192466" y2="64.28711333192466"></line><line x1="40" x2="480" y1="30.477706109585046" y2="30.477706109585046"></line></g><g aria-label="bar" fill="hsla(317 100% 50%)"><rect x="40.997732426303855" width="8.979591836734693" y="20" height="450"></rect><rect x="50.9750566893424" width="8.979591836734693" y="139.3385895421664" height="330.6614104578336"></rect><rect x="60.95238095238095" width="8.979591836734693" y="218.81266700615134" height="251.18733299384866"></rect><rect x="70.9297052154195" width="8.979591836734693" y="198.99031178923977" height="271.00968821076026"></rect><rect x="80.90702947845804" width="8.979591836734693" y="234.21669318845977" height="235.78330681154023"></rect><rect x="90.8843537414966" width="8.979591836734693" y="219.16215065338622" height="250.83784934661378"></rect><rect x="100.86167800453515" width="8.979591836734693" y="268.5114889914317" height="201.4885110085683"></rect><rect x="110.83900226757369" width="8.979591836734693" y="279.32889294818375" height="190.67110705181625"></rect><rect x="120.81632653061224" width="8.979591836734693" y="273.78822776312626" height="196.21177223687374"></rect><rect x="130.79365079365078" width="8.979591836734693" y="305.68316492012616" height="164.31683507987384"></rect><rect x="140.77097505668934" width="8.979591836734693" y="304.54380437943837" height="165.45619562056163"></rect><rect x="150.7482993197279" width="8.979591836734693" y="287.33121080171765" height="182.66878919828235"></rect><rect x="160.72562358276645" width="8.979591836734693" y="308.05023226900084" height="161.94976773099916"></rect><rect x="170.702947845805" width="8.979591836734693" y="320.8400472555802" height="149.1599527444198"></rect><rect x="180.68027210884352" width="8.979591836734693" y="306.56785283532406" height="163.43214716467594"></rect><rect x="190.65759637188208" width="8.979591836734693" y="311.24320824633946" height="158.75679175366054"></rect><rect x="200.63492063492063" width="8.979591836734693" y="330.22361386103495" height="139.77638613896505"></rect><rect x="210.6122448979592" width="8.979591836734693" y="330.63215086189206" height="139.36784913810794"></rect><rect x="220.58956916099774" width="8.979591836734693" y="348.24489821800637" height="121.75510178199363"></rect><rect x="230.56689342403627" width="8.979591836734693" y="337.9578217507651" height="132.0421782492349"></rect><rect x="240.54421768707482" width="8.979591836734693" y="321.41889264509797" height="148.58110735490203"></rect><rect x="250.52154195011337" width="8.979591836734693" y="343.443012573329" height="126.55698742667101"></rect><rect x="260.4988662131519" width="8.979591836734693" y="342.89177539240467" height="127.10822460759533"></rect><rect x="270.4761904761905" width="8.979591836734693" y="348.9462998713068" height="121.05370012869321"></rect><rect x="280.45351473922904" width="8.979591836734693" y="360.9856955355471" height="109.01430446445289"></rect><rect x="290.4308390022676" width="8.979591836734693" y="354.6478261981721" height="115.35217380182792"></rect><rect x="300.40816326530614" width="8.979591836734693" y="357.84130194454224" height="112.15869805545776"></rect><rect x="310.38548752834464" width="8.979591836734693" y="362.500971056602" height="107.499028943398"></rect><rect x="320.3628117913832" width="8.979591836734693" y="379.38954502532056" height="90.61045497467944"></rect><rect x="330.34013605442175" width="8.979591836734693" y="335.8082103561172" height="134.19178964388283"></rect><rect x="340.3174603174603" width="8.979591836734693" y="362.14794066140183" height="107.85205933859817"></rect><rect x="350.29478458049886" width="8.979591836734693" y="373.6768786855279" height="96.32312131447208"></rect><rect x="360.2721088435374" width="8.979591836734693" y="368.14985235855517" height="101.85014764144483"></rect><rect x="370.24943310657596" width="8.979591836734693" y="386.53723365266245" height="83.46276634733755"></rect><rect x="380.2267573696145" width="8.979591836734693" y="385.2228975254232" height="84.7771024745768"></rect><rect x="390.2040816326531" width="8.979591836734693" y="377.7872532672535" height="92.2127467327465"></rect><rect x="400.1814058956916" width="8.979591836734693" y="384.5918826976522" height="85.40811730234782"></rect><rect x="410.1587301587302" width="8.979591836734693" y="389.12348196500153" height="80.87651803499847"></rect><rect x="420.1360544217687" width="8.979591836734693" y="420.65326932778805" height="49.34673067221195"></rect><rect x="430.11337868480723" width="8.979591836734693" y="392.419160478308" height="77.58083952169198"></rect><rect x="440.0907029478458" width="8.979591836734693" y="393.20094433776734" height="76.79905566223266"></rect><rect x="450.06802721088434" width="8.979591836734693" y="383.76821496903904" height="86.23178503096096"></rect><rect x="460.0453514739229" width="8.979591836734693" y="387.35715311353954" height="82.64284688646046"></rect><rect x="470.02267573696145" width="8.979591836734693" y="391.681751272369" height="78.31824872763099"></rect></g><text x="500" y="20" dy="-1em" text-anchor="end" font-family="initial">⚠️<title>1 warning. Please check the console.</title></text></svg>