<svg class="plot-d6a7b5" fill="currentColor" font-family="system-ui, sans-serif" font-size="10" text-anchor="middle" width="640" height="400" viewBox="0 0 640 400" xmlns="http://www.w3.org/2000/svg"><style>:where(.plot-d6a7b5) {
  --plot-background: white;
  display: block;
  height: auto;
  height: intrinsic;
  max-width: 100%;
}
:where(.plot-d6a7b5 text),
:where(.plot-d6a7b5 tspan) {
  white-space: pre;
}</style><g aria-label="y-axis tick" aria-hidden="true" fill="none" stroke="currentColor"><path transform="translate(40,370)" d="M0,0L-6,0"></path><path transform="translate(40,343.7037943826248)" d="M0,0L-6,0"></path><path transform="translate(40,317.4075887652495)" d="M0,0L-6,0"></path><path transform="translate(40,291.1113831478742)" d="M0,0L-6,0"></path><path transform="translate(40,264.81517753049894)" d="M0,0L-6,0"></path><path transform="translate(40,238.51897191312372)" d="M0,0L-6,0"></path><path transform="translate(40,212.22276629574847)" d="M0,0L-6,0"></path><path transform="translate(40,185.92656067837325)" d="M0,0L-6,0"></path><path transform="translate(40,159.63035506099797)" d="M0,0L-6,0"></path><path transform="translate(40,133.33414944362272)" d="M0,0L-6,0"></path><path transform="translate(40,107.03794382624747)" d="M0,0L-6,0"></path><path transform="translate(40,80.7417382088722)" d="M0,0L-6,0"></path><path transform="translate(40,54.445532591496956)" d="M0,0L-6,0"></path><path transform="translate(40,28.149326974121703)" d="M0,0L-6,0"></path></g><g aria-label="y-axis tick label" text-anchor="end" font-variant="tabular-nums" transform="translate(-9,0)"><text y="0.32em" transform="translate(40,370)">0</text><text y="0.32em" transform="translate(40,343.7037943826248)">1</text><text y="0.32em" transform="translate(40,317.4075887652495)">2</text><text y="0.32em" transform="translate(40,291.1113831478742)">3</text><text y="0.32em" transform="translate(40,264.81517753049894)">4</text><text y="0.32em" transform="translate(40,238.51897191312372)">5</text><text y="0.32em" transform="translate(40,212.22276629574847)">6</text><text y="0.32em" transform="translate(40,185.92656067837325)">7</text><text y="0.32em" transform="translate(40,159.63035506099797)">8</text><text y="0.32em" transform="translate(40,133.33414944362272)">9</text><text y="0.32em" transform="translate(40,107.03794382624747)">10</text><text y="0.32em" transform="translate(40,80.7417382088722)">11</text><text y="0.32em" transform="translate(40,54.445532591496956)">12</text><text y="0.32em" transform="translate(40,28.149326974121703)">13</text></g><g aria-label="y-axis label" text-anchor="start" transform="translate(-37,-17)"><text y="0.71em" transform="translate(40,20)">↑ Sum of Consensus Income</text></g><g aria-label="x-axis tick" aria-hidden="true" fill="none" stroke="currentColor" transform="translate(6,0)"><path transform="translate(45,370)" d="M0,0L0,6"></path><path transform="translate(58,370)" d="M0,0L0,6"></path><path transform="translate(71,370)" d="M0,0L0,6"></path><path transform="translate(84,370)" d="M0,0L0,6"></path><path transform="translate(97,370)" d="M0,0L0,6"></path><path transform="translate(110,370)" d="M0,0L0,6"></path><path transform="translate(123,370)" d="M0,0L0,6"></path><path transform="translate(136,370)" d="M0,0L0,6"></path><path transform="translate(149,370)" d="M0,0L0,6"></path><path transform="translate(162,370)" d="M0,0L0,6"></path><path transform="translate(175,370)" d="M0,0L0,6"></path><path transform="translate(188,370)" d="M0,0L0,6"></path><path transform="translate(201,370)" d="M0,0L0,6"></path><path transform="translate(214,370)" d="M0,0L0,6"></path><path transform="translate(227,370)" d="M0,0L0,6"></path><path transform="translate(240,370)" d="M0,0L0,6"></path><path transform="translate(253,370)" d="M0,0L0,6"></path><path transform="translate(266,370)" d="M0,0L0,6"></path><path transform="translate(279,370)" d="M0,0L0,6"></path><path transform="translate(292,370)" d="M0,0L0,6"></path><path transform="translate(305,370)" d="M0,0L0,6"></path><path transform="translate(318,370)" d="M0,0L0,6"></path><path transform="translate(331,370)" d="M0,0L0,6"></path><path transform="translate(344,370)" d="M0,0L0,6"></path><path transform="translate(357,370)" d="M0,0L0,6"></path><path transform="translate(370,370)" d="M0,0L0,6"></path><path transform="translate(383,370)" d="M0,0L0,6"></path><path transform="translate(396,370)" d="M0,0L0,6"></path><path transform="translate(409,370)" d="M0,0L0,6"></path><path transform="translate(422,370)" d="M0,0L0,6"></path><path transform="translate(435,370)" d="M0,0L0,6"></path><path transform="translate(448,370)" d="M0,0L0,6"></path><path transform="translate(461,370)" d="M0,0L0,6"></path><path transform="translate(474,370)" d="M0,0L0,6"></path><path transform="translate(487,370)" d="M0,0L0,6"></path><path transform="translate(500,370)" d="M0,0L0,6"></path><path transform="translate(513,370)" d="M0,0L0,6"></path><path transform="translate(526,370)" d="M0,0L0,6"></path><path transform="translate(539,370)" d="M0,0L0,6"></path><path transform="translate(552,370)" d="M0,0L0,6"></path><path transform="translate(565,370)" d="M0,0L0,6"></path><path transform="translate(578,370)" d="M0,0L0,6"></path><path transform="translate(591,370)" d="M0,0L0,6"></path><path transform="translate(604,370)" d="M0,0L0,6"></path></g><g aria-label="x-axis tick label" transform="translate(6,9)"><text transform="translate(45,370)"><tspan x="0" y="0.71em">Dec</tspan><tspan x="0" dy="1em">2020</tspan></text><text transform="translate(58,370)"><tspan x="0" y="0.71em">Jan</tspan><tspan x="0" dy="1em">2021</tspan></text><text y="0.71em" transform="translate(71,370)">Feb</text><text y="0.71em" transform="translate(84,370)">Mar</text><text y="0.71em" transform="translate(97,370)">Apr</text><text y="0.71em" transform="translate(110,370)">May</text><text y="0.71em" transform="translate(123,370)">Jun</text><text y="0.71em" transform="translate(136,370)">Jul</text><text y="0.71em" transform="translate(149,370)">Aug</text><text y="0.71em" transform="translate(162,370)">Sep</text><text y="0.71em" transform="translate(175,370)">Oct</text><text y="0.71em" transform="translate(188,370)">Nov</text><text y="0.71em" transform="translate(201,370)">Dec</text><text transform="translate(214,370)"><tspan x="0" y="0.71em">Jan</tspan><tspan x="0" dy="1em">2022</tspan></text><text y="0.71em" transform="translate(227,370)">Feb</text><text y="0.71em" transform="translate(240,370)">Mar</text><text y="0.71em" transform="translate(253,370)">Apr</text><text y="0.71em" transform="translate(266,370)">May</text><text y="0.71em" transform="translate(279,370)">Jun</text><text y="0.71em" transform="translate(292,370)">Jul</text><text y="0.71em" transform="translate(305,370)">Aug</text><text y="0.71em" transform="translate(318,370)">Sep</text><text y="0.71em" transform="translate(331,370)">Oct</text><text y="0.71em" transform="translate(344,370)">Nov</text><text y="0.71em" transform="translate(357,370)">Dec</text><text transform="translate(370,370)"><tspan x="0" y="0.71em">Jan</tspan><tspan x="0" dy="1em">2023</tspan></text><text y="0.71em" transform="translate(383,370)">Feb</text><text y="0.71em" transform="translate(396,370)">Mar</text><text y="0.71em" transform="translate(409,370)">Apr</text><text y="0.71em" transform="translate(422,370)">May</text><text y="0.71em" transform="translate(435,370)">Jun</text><text y="0.71em" transform="translate(448,370)">Jul</text><text y="0.71em" transform="translate(461,370)">Aug</text><text y="0.71em" transform="translate(474,370)">Sep</text><text y="0.71em" transform="translate(487,370)">Oct</text><text y="0.71em" transform="translate(500,370)">Nov</text><text y="0.71em" transform="translate(513,370)">Dec</text><text transform="translate(526,370)"><tspan x="0" y="0.71em">Jan</tspan><tspan x="0" dy="1em">2024</tspan></text><text y="0.71em" transform="translate(539,370)">Feb</text><text y="0.71em" transform="translate(552,370)">Mar</text><text y="0.71em" transform="translate(565,370)">Apr</text><text y="0.71em" transform="translate(578,370)">May</text><text y="0.71em" transform="translate(591,370)">Jun</text><text y="0.71em" transform="translate(604,370)">Jul</text></g><g aria-label="x-axis label" transform="translate(0,27)"><text transform="translate(330,370)">Month</text></g><g aria-label="bar"><rect x="175" width="12" y="241.31184785067433" height="128.68815214932567"></rect><rect x="383" width="12" y="282.7654570679773" height="87.23454293202269"></rect><rect x="513" width="12" y="303.57146432039616" height="66.42853567960384"></rect><rect x="58" width="12" y="112.81890297724055" height="257.18109702275945"></rect><rect x="71" width="12" y="174.63207433811772" height="195.36792566188228"></rect><rect x="110" width="12" y="174.90389495263372" height="195.09610504736628"></rect><rect x="136" width="12" y="221.7002500708096" height="148.2997499291904"></rect><rect x="201" width="12" y="244.0390695425562" height="125.9609304574438"></rect><rect x="305" width="12" y="254.43691650174287" height="115.56308349825713"></rect><rect x="396" width="12" y="286.3896441551349" height="83.61035584486513"></rect><rect x="565" width="12" y="310.26740115159686" height="59.73259884840314"></rect><rect x="45" width="12" y="20" height="350"></rect><rect x="227" width="12" y="242.88610776080762" height="127.11389223919238"></rect><rect x="422" width="12" y="265.62860805475776" height="104.37139194524224"></rect><rect x="487" width="12" y="304.0622536308847" height="65.9377463691153"></rect><rect x="188" width="12" y="227.9242750680026" height="142.0757249319974"></rect><rect x="279" width="12" y="275.30158750289377" height="94.69841249710623"></rect><rect x="331" width="12" y="271.13804752742584" height="98.86195247257416"></rect><rect x="357" width="12" y="285.2110965276478" height="84.78890347235222"></rect><rect x="409" width="12" y="299.52520168636045" height="70.47479831363955"></rect><rect x="448" width="12" y="295.0820167554106" height="74.91798324458938"></rect><rect x="539" width="12" y="331.6192094771685" height="38.38079052283149"></rect><rect x="604" width="12" y="309.0858065451759" height="60.9141934548241"></rect><rect x="97" width="12" y="186.61298359102426" height="183.38701640897574"></rect><rect x="123" width="12" y="213.28671366000242" height="156.71328633999758"></rect><rect x="214" width="12" y="253.98670342100684" height="116.01329657899316"></rect><rect x="292" width="12" y="267.30052802837287" height="102.69947197162713"></rect><rect x="435" width="12" y="286.1150649588681" height="83.88493504113188"></rect><rect x="474" width="12" y="305.08451506318187" height="64.91548493681813"></rect><rect x="552" width="12" y="309.65934703868396" height="60.34065296131604"></rect><rect x="578" width="12" y="302.9308338648081" height="67.06916613519189"></rect><rect x="162" width="12" y="242.19801716009815" height="127.80198283990185"></rect><rect x="266" width="12" y="261.6027840036938" height="108.39721599630622"></rect><rect x="344" width="12" y="275.84712212212753" height="94.15287787787247"></rect><rect x="370" width="12" y="280.2816425985783" height="89.71835740142171"></rect><rect x="149" width="12" y="217.39084381576487" height="152.60915618423513"></rect><rect x="461" width="12" y="290.7832185010985" height="79.21678149890153"></rect><rect x="500" width="12" y="298.2789747634194" height="71.7210252365806"></rect><rect x="526" width="12" y="307.0960415283345" height="62.903958471665476"></rect><rect x="591" width="12" y="305.72223019941964" height="64.27776980058036"></rect><rect x="84" width="12" y="159.2146869471865" height="210.7853130528135"></rect><rect x="240" width="12" y="246.52249530270848" height="123.47750469729152"></rect><rect x="253" width="12" y="261.2850330030272" height="108.7149669969728"></rect><rect x="318" width="12" y="271.5667875570337" height="98.4332124429663"></rect></g><text x="640" y="20" dy="-1em" text-anchor="end" font-family="initial">⚠️<title>1 warning. Please check the console.</title></text></svg>