<svg class="plot-chart" fill="currentColor" font-family="system-ui, sans-serif" font-size="10" text-anchor="middle" width="500" height="500" viewBox="0 0 500 500" style="overflow: visible;" xmlns="http://www.w3.org/2000/svg"><style>:where(.plot-chart) {
  --plot-background: white;
  display: block;
  height: auto;
  height: intrinsic;
  max-width: 100%;
}
:where(.plot-chart text),
:where(.plot-chart tspan) {
  white-space: pre;
}</style><g aria-label="y-axis tick" aria-hidden="true" fill="none" stroke="currentColor"><path transform="translate(23.53887763891898,437.56162742446935)" d="M0,0L-6,0"></path><path transform="translate(23.53887763891898,406.18938053109883)" d="M0,0L-6,0"></path><path transform="translate(23.53887763891898,374.81713363772826)" d="M0,0L-6,0"></path><path transform="translate(23.53887763891898,343.4448867443578)" d="M0,0L-6,0"></path><path transform="translate(23.53887763891898,312.07263985098723)" d="M0,0L-6,0"></path><path transform="translate(23.53887763891898,280.7003929576167)" d="M0,0L-6,0"></path><path transform="translate(23.53887763891898,249.32814606424617)" d="M0,0L-6,0"></path><path transform="translate(23.53887763891898,217.95589917087568)" d="M0,0L-6,0"></path><path transform="translate(23.53887763891898,186.58365227750517)" d="M0,0L-6,0"></path><path transform="translate(23.53887763891898,155.21140538413462)" d="M0,0L-6,0"></path><path transform="translate(23.53887763891898,123.8391584907641)" d="M0,0L-6,0"></path><path transform="translate(23.53887763891898,92.46691159739358)" d="M0,0L-6,0"></path><path transform="translate(23.53887763891898,61.09466470402305)" d="M0,0L-6,0"></path><path transform="translate(23.53887763891898,29.722417810652527)" d="M0,0L-6,0"></path></g><g aria-label="y-axis tick label" text-anchor="end" font-variant="tabular-nums" transform="translate(-9,0)"><text y="0.32em" transform="translate(23.53887763891898,437.56162742446935)">0</text><text y="0.32em" transform="translate(23.53887763891898,406.18938053109883)">1</text><text y="0.32em" transform="translate(23.53887763891898,374.81713363772826)">2</text><text y="0.32em" transform="translate(23.53887763891898,343.4448867443578)">3</text><text y="0.32em" transform="translate(23.53887763891898,312.07263985098723)">4</text><text y="0.32em" transform="translate(23.53887763891898,280.7003929576167)">5</text><text y="0.32em" transform="translate(23.53887763891898,249.32814606424617)">6</text><text y="0.32em" transform="translate(23.53887763891898,217.95589917087568)">7</text><text y="0.32em" transform="translate(23.53887763891898,186.58365227750517)">8</text><text y="0.32em" transform="translate(23.53887763891898,155.21140538413462)">9</text><text y="0.32em" transform="translate(23.53887763891898,123.8391584907641)">10</text><text y="0.32em" transform="translate(23.53887763891898,92.46691159739358)">11</text><text y="0.32em" transform="translate(23.53887763891898,61.09466470402305)">12</text><text y="0.32em" transform="translate(23.53887763891898,29.722417810652527)">13</text></g><g aria-label="y-axis label" text-anchor="start" transform="translate(-20.53887763891898,-17)"><text y="0.71em" transform="translate(23.53887763891898,20)">↑ Sum of Consensus Income</text></g><g aria-label="x-axis tick" aria-hidden="true" fill="none" stroke="currentColor" transform="translate(4.861848187357969,0)"><path transform="translate(24.619288347220778,437.56162742446935)" d="M0,0L0,6"></path><path transform="translate(35.423395430238486,437.56162742446935)" d="M0,0L0,6"></path><path transform="translate(46.2275025132562,437.56162742446935)" d="M0,0L0,6"></path><path transform="translate(57.03160959627391,437.56162742446935)" d="M0,0L0,6"></path><path transform="translate(67.83571667929162,437.56162742446935)" d="M0,0L0,6"></path><path transform="translate(78.63982376230933,437.56162742446935)" d="M0,0L0,6"></path><path transform="translate(89.44393084532703,437.56162742446935)" d="M0,0L0,6"></path><path transform="translate(100.24803792834474,437.56162742446935)" d="M0,0L0,6"></path><path transform="translate(111.05214501136246,437.56162742446935)" d="M0,0L0,6"></path><path transform="translate(121.85625209438017,437.56162742446935)" d="M0,0L0,6"></path><path transform="translate(132.66035917739788,437.56162742446935)" d="M0,0L0,6"></path><path transform="translate(143.4644662604156,437.56162742446935)" d="M0,0L0,6"></path><path transform="translate(154.2685733434333,437.56162742446935)" d="M0,0L0,6"></path><path transform="translate(165.07268042645103,437.56162742446935)" d="M0,0L0,6"></path><path transform="translate(175.87678750946873,437.56162742446935)" d="M0,0L0,6"></path><path transform="translate(186.68089459248645,437.56162742446935)" d="M0,0L0,6"></path><path transform="translate(197.48500167550415,437.56162742446935)" d="M0,0L0,6"></path><path transform="translate(208.28910875852185,437.56162742446935)" d="M0,0L0,6"></path><path transform="translate(219.09321584153957,437.56162742446935)" d="M0,0L0,6"></path><path transform="translate(229.89732292455727,437.56162742446935)" d="M0,0L0,6"></path><path transform="translate(240.701430007575,437.56162742446935)" d="M0,0L0,6"></path><path transform="translate(251.5055370905927,437.56162742446935)" d="M0,0L0,6"></path><path transform="translate(262.3096441736104,437.56162742446935)" d="M0,0L0,6"></path><path transform="translate(273.1137512566281,437.56162742446935)" d="M0,0L0,6"></path><path transform="translate(283.9178583396458,437.56162742446935)" d="M0,0L0,6"></path><path transform="translate(294.7219654226635,437.56162742446935)" d="M0,0L0,6"></path><path transform="translate(305.52607250568127,437.56162742446935)" d="M0,0L0,6"></path><path transform="translate(316.33017958869897,437.56162742446935)" d="M0,0L0,6"></path><path transform="translate(327.13428667171667,437.56162742446935)" d="M0,0L0,6"></path><path transform="translate(337.93839375473436,437.56162742446935)" d="M0,0L0,6"></path><path transform="translate(348.7425008377521,437.56162742446935)" d="M0,0L0,6"></path><path transform="translate(359.5466079207698,437.56162742446935)" d="M0,0L0,6"></path><path transform="translate(370.3507150037875,437.56162742446935)" d="M0,0L0,6"></path><path transform="translate(381.1548220868052,437.56162742446935)" d="M0,0L0,6"></path><path transform="translate(391.9589291698229,437.56162742446935)" d="M0,0L0,6"></path><path transform="translate(402.76303625284066,437.56162742446935)" d="M0,0L0,6"></path><path transform="translate(413.56714333585836,437.56162742446935)" d="M0,0L0,6"></path><path transform="translate(424.37125041887606,437.56162742446935)" d="M0,0L0,6"></path><path transform="translate(435.17535750189376,437.56162742446935)" d="M0,0L0,6"></path><path transform="translate(445.9794645849115,437.56162742446935)" d="M0,0L0,6"></path><path transform="translate(456.7835716679292,437.56162742446935)" d="M0,0L0,6"></path><path transform="translate(467.5876787509469,437.56162742446935)" d="M0,0L0,6"></path><path transform="translate(478.3917858339646,437.56162742446935)" d="M0,0L0,6"></path><path transform="translate(489.1958929169823,437.56162742446935)" d="M0,0L0,6"></path></g><g aria-label="x-axis tick label" text-anchor="end" transform="translate(4.861848187357969,11.82842712474619)"><text transform="translate(24.619288347220778,437.56162742446935) rotate(-45)"><tspan x="0" y="-0.18em">Dec</tspan><tspan x="0" dy="1em">2020</tspan></text><text transform="translate(35.423395430238486,437.56162742446935) rotate(-45)" style="display: none;"><tspan x="0" y="-0.18em">Jan</tspan><tspan x="0" dy="1em">2021</tspan></text><text y="0.32em" transform="translate(46.2275025132562,437.56162742446935) rotate(-45)">Feb</text><text y="0.32em" transform="translate(57.03160959627391,437.56162742446935) rotate(-45)" style="display: none;">Mar</text><text y="0.32em" transform="translate(67.83571667929162,437.56162742446935) rotate(-45)">Apr</text><text y="0.32em" transform="translate(78.63982376230933,437.56162742446935) rotate(-45)" style="display: none;">May</text><text y="0.32em" transform="translate(89.44393084532703,437.56162742446935) rotate(-45)">Jun</text><text y="0.32em" transform="translate(100.24803792834474,437.56162742446935) rotate(-45)" style="display: none;">Jul</text><text y="0.32em" transform="translate(111.05214501136246,437.56162742446935) rotate(-45)">Aug</text><text y="0.32em" transform="translate(121.85625209438017,437.56162742446935) rotate(-45)" style="display: none;">Sep</text><text y="0.32em" transform="translate(132.66035917739788,437.56162742446935) rotate(-45)">Oct</text><text y="0.32em" transform="translate(143.4644662604156,437.56162742446935) rotate(-45)" style="display: none;">Nov</text><text y="0.32em" transform="translate(154.2685733434333,437.56162742446935) rotate(-45)">Dec</text><text transform="translate(165.07268042645103,437.56162742446935) rotate(-45)" style="display: none;"><tspan x="0" y="-0.18em">Jan</tspan><tspan x="0" dy="1em">2022</tspan></text><text y="0.32em" transform="translate(175.87678750946873,437.56162742446935) rotate(-45)">Feb</text><text y="0.32em" transform="translate(186.68089459248645,437.56162742446935) rotate(-45)" style="display: none;">Mar</text><text y="0.32em" transform="translate(197.48500167550415,437.56162742446935) rotate(-45)">Apr</text><text y="0.32em" transform="translate(208.28910875852185,437.56162742446935) rotate(-45)" style="display: none;">May</text><text y="0.32em" transform="translate(219.09321584153957,437.56162742446935) rotate(-45)">Jun</text><text y="0.32em" transform="translate(229.89732292455727,437.56162742446935) rotate(-45)" style="display: none;">Jul</text><text y="0.32em" transform="translate(240.701430007575,437.56162742446935) rotate(-45)">Aug</text><text y="0.32em" transform="translate(251.5055370905927,437.56162742446935) rotate(-45)" style="display: none;">Sep</text><text y="0.32em" transform="translate(262.3096441736104,437.56162742446935) rotate(-45)">Oct</text><text y="0.32em" transform="translate(273.1137512566281,437.56162742446935) rotate(-45)" style="display: none;">Nov</text><text y="0.32em" transform="translate(283.9178583396458,437.56162742446935) rotate(-45)">Dec</text><text transform="translate(294.7219654226635,437.56162742446935) rotate(-45)" style="display: none;"><tspan x="0" y="-0.18em">Jan</tspan><tspan x="0" dy="1em">2023</tspan></text><text y="0.32em" transform="translate(305.52607250568127,437.56162742446935) rotate(-45)">Feb</text><text y="0.32em" transform="translate(316.33017958869897,437.56162742446935) rotate(-45)" style="display: none;">Mar</text><text y="0.32em" transform="translate(327.13428667171667,437.56162742446935) rotate(-45)">Apr</text><text y="0.32em" transform="translate(337.93839375473436,437.56162742446935) rotate(-45)" style="display: none;">May</text><text y="0.32em" transform="translate(348.7425008377521,437.56162742446935) rotate(-45)">Jun</text><text y="0.32em" transform="translate(359.5466079207698,437.56162742446935) rotate(-45)" style="display: none;">Jul</text><text y="0.32em" transform="translate(370.3507150037875,437.56162742446935) rotate(-45)">Aug</text><text y="0.32em" transform="translate(381.1548220868052,437.56162742446935) rotate(-45)" style="display: none;">Sep</text><text y="0.32em" transform="translate(391.9589291698229,437.56162742446935) rotate(-45)">Oct</text><text y="0.32em" transform="translate(402.76303625284066,437.56162742446935) rotate(-45)" style="display: none;">Nov</text><text y="0.32em" transform="translate(413.56714333585836,437.56162742446935) rotate(-45)">Dec</text><text transform="translate(424.37125041887606,437.56162742446935) rotate(-45)" style="display: none;"><tspan x="0" y="-0.18em">Jan</tspan><tspan x="0" dy="1em">2024</tspan></text><text y="0.32em" transform="translate(435.17535750189376,437.56162742446935) rotate(-45)">Feb</text><text y="0.32em" transform="translate(445.9794645849115,437.56162742446935) rotate(-45)" style="display: none;">Mar</text><text y="0.32em" transform="translate(456.7835716679292,437.56162742446935) rotate(-45)">Apr</text><text y="0.32em" transform="translate(467.5876787509469,437.56162742446935) rotate(-45)" style="display: none;">May</text><text y="0.32em" transform="translate(478.3917858339646,437.56162742446935) rotate(-45)">Jun</text><text y="0.32em" transform="translate(489.1958929169823,437.56162742446935) rotate(-45)" style="display: none;">Jul</text></g><g aria-label="x-axis label" transform="translate(0,59.438372575530636)"><text transform="translate(261.7694388194595,437.56162742446935)">Month</text></g><rect aria-label="frame" fill="hsla( 0 0% 100%)" stroke="hsla(220 6% 90%)" x="23.53887763891898" y="20" width="476.46112236108104" height="417.56162742446935" rx="4" ry="4"></rect><g aria-label="y-grid" aria-hidden="true" stroke="hsla(220 6% 90%)" stroke-dasharray="1.5,1.5"><line x1="23.53887763891898" x2="500" y1="437.56162742446935" y2="437.56162742446935"></line><line x1="23.53887763891898" x2="500" y1="406.18938053109883" y2="406.18938053109883"></line><line x1="23.53887763891898" x2="500" y1="374.81713363772826" y2="374.81713363772826"></line><line x1="23.53887763891898" x2="500" y1="343.4448867443578" y2="343.4448867443578"></line><line x1="23.53887763891898" x2="500" y1="312.07263985098723" y2="312.07263985098723"></line><line x1="23.53887763891898" x2="500" y1="280.7003929576167" y2="280.7003929576167"></line><line x1="23.53887763891898" x2="500" y1="249.32814606424617" y2="249.32814606424617"></line><line x1="23.53887763891898" x2="500" y1="217.95589917087568" y2="217.95589917087568"></line><line x1="23.53887763891898" x2="500" y1="186.58365227750517" y2="186.58365227750517"></line><line x1="23.53887763891898" x2="500" y1="155.21140538413462" y2="155.21140538413462"></line><line x1="23.53887763891898" x2="500" y1="123.8391584907641" y2="123.8391584907641"></line><line x1="23.53887763891898" x2="500" y1="92.46691159739358" y2="92.46691159739358"></line><line x1="23.53887763891898" x2="500" y1="61.09466470402305" y2="61.09466470402305"></line><line x1="23.53887763891898" x2="500" y1="29.722417810652527" y2="29.722417810652527"></line></g><g aria-label="bar" fill="hsla(317 100% 50%)"><rect x="24.619288347220778" width="9.723696374715939" y="20" height="417.56162742446935"></rect><rect x="35.423395430238486" width="9.723696374715939" y="130.7360348083728" height="306.8255926160965"></rect><rect x="46.2275025132562" width="9.723696374715939" y="204.48120175041703" height="233.08042567405232"></rect><rect x="57.03160959627391" width="9.723696374715939" y="186.0877464087292" height="251.47388101574015"></rect><rect x="67.83571667929162" width="9.723696374715939" y="218.77482450947" height="218.78680291499936"></rect><rect x="78.63982376230933" width="9.723696374715939" y="204.8054927737451" height="232.75613465072425"></rect><rect x="89.44393084532703" width="9.723696374715939" y="250.5974706154229" height="186.96415680904644"></rect><rect x="100.24803792834474" width="9.723696374715939" y="260.6350990613991" height="176.92652836307025"></rect><rect x="111.05214501136246" width="9.723696374715939" y="255.49383423542864" height="182.0677931890407"></rect><rect x="121.85625209438017" width="9.723696374715939" y="285.0896161596021" height="152.47201126486726"></rect><rect x="132.66035917739788" width="9.723696374715939" y="284.0323867338403" height="153.52924069062902"></rect><rect x="143.4644662604156" width="9.723696374715939" y="268.0605676527091" height="169.50105977176025"></rect><rect x="154.2685733434333" width="9.723696374715939" y="287.2860528138675" height="150.27557461060184"></rect><rect x="165.07268042645103" width="9.723696374715939" y="299.15391050332073" height="138.40771692114862"></rect><rect x="175.87678750946873" width="9.723696374715939" y="285.9105311054528" height="151.65109631901657"></rect><rect x="186.68089459248645" width="9.723696374715939" y="290.24886224814475" height="147.3127651763246"></rect><rect x="197.48500167550415" width="9.723696374715939" y="307.86106015403095" height="129.7005672704384"></rect><rect x="208.28910875852185" width="9.723696374715939" y="308.24014765389984" height="129.3214797705695"></rect><rect x="219.09321584153957" width="9.723696374715939" y="324.58327531931116" height="112.9783521051582"></rect><rect x="229.89732292455727" width="9.723696374715939" y="315.0377455613085" height="122.52388186316085"></rect><rect x="240.701430007575" width="9.723696374715939" y="299.6910296652634" height="137.87059775920596"></rect><rect x="251.5055370905927" width="9.723696374715939" y="320.12753490931635" height="117.434092515153"></rect><rect x="262.3096441736104" width="9.723696374715939" y="319.6160338107305" height="117.94559361373882"></rect><rect x="273.1137512566281" width="9.723696374715939" y="325.23411624337865" height="112.3275111810907"></rect><rect x="283.9178583396458" width="9.723696374715939" y="336.40564879175037" height="101.15597863271898"></rect><rect x="294.7219654226635" width="9.723696374715939" y="330.5246464919327" height="107.03698093253666"></rect><rect x="305.52607250568127" width="9.723696374715939" y="333.48791966925467" height="104.07370775521468"></rect><rect x="316.33017958869897" width="9.723696374715939" y="337.811695264124" height="99.74993216034534"></rect><rect x="327.13428667171667" width="9.723696374715939" y="353.4828517780277" height="84.07877564644167"></rect><rect x="337.93839375473436" width="9.723696374715939" y="313.0430894895765" height="124.51853793489283"></rect><rect x="348.7425008377521" width="9.723696374715939" y="337.48411316112384" height="100.0775142633455"></rect><rect x="359.5466079207698" width="9.723696374715939" y="348.1819845474126" height="89.37964287705677"></rect><rect x="370.3507150037875" width="9.723696374715939" y="343.0533754187267" height="94.50825200574263"></rect><rect x="381.1548220868052" width="9.723696374715939" y="360.1152973237082" height="77.44633010076114"></rect><rect x="391.9589291698229" width="9.723696374715939" y="358.8957054742132" height="78.66592195025618"></rect><rect x="402.76303625284066" width="9.723696374715939" y="351.99606165778926" height="85.5655657666801"></rect><rect x="413.56714333585836" width="9.723696374715939" y="358.3101775221842" height="79.25144990228517"></rect><rect x="424.37125041887606" width="9.723696374715939" y="362.515115221984" height="75.04651220248536"></rect><rect x="435.17535750189376" width="9.723696374715939" y="391.77206927432314" height="45.789558150146206"></rect><rect x="445.9794645849115" width="9.723696374715939" y="365.5732238519487" height="71.98840357252067"></rect><rect x="456.7835716679292" width="9.723696374715939" y="366.29865260894877" height="71.26297481552058"></rect><rect x="467.5876787509469" width="9.723696374715939" y="357.545884106147" height="80.01574331832234"></rect><rect x="478.3917858339646" width="9.723696374715939" y="360.8761126669101" height="76.68551475755925"></rect><rect x="489.1958929169823" width="9.723696374715939" y="364.88897098948274" height="72.6726564349866"></rect></g><text x="500" y="20" dy="-1em" text-anchor="end" font-family="initial" style="display: none;">⚠️<title>1 warning. Please check the console.</title></text></svg>