<svg class="plot-chart" fill="currentColor" font-family="system-ui, sans-serif" font-size="10" text-anchor="middle" width="500" height="500" viewBox="0 0 500 500" style="overflow: visible;" xmlns="http://www.w3.org/2000/svg"><style>:where(.plot-chart) {
  --plot-background: white;
  display: block;
  height: auto;
  height: intrinsic;
  max-width: 100%;
}
:where(.plot-chart text),
:where(.plot-chart tspan) {
  white-space: pre;
}</style><g aria-label="y-axis tick" aria-hidden="true" fill="none" stroke="currentColor"><path transform="translate(20.6,440.60147947679036)" d="M0,0L-6,0"></path><path transform="translate(20.6,409.00084237023634)" d="M0,0L-6,0"></path><path transform="translate(20.6,377.40020526368227)" d="M0,0L-6,0"></path><path transform="translate(20.6,345.7995681571282)" d="M0,0L-6,0"></path><path transform="translate(20.6,314.1989310505741)" d="M0,0L-6,0"></path><path transform="translate(20.6,282.5982939440201)" d="M0,0L-6,0"></path><path transform="translate(20.6,250.99765683746605)" d="M0,0L-6,0"></path><path transform="translate(20.6,219.39701973091204)" d="M0,0L-6,0"></path><path transform="translate(20.6,187.796382624358)" d="M0,0L-6,0"></path><path transform="translate(20.6,156.1957455178039)" d="M0,0L-6,0"></path><path transform="translate(20.6,124.59510841124988)" d="M0,0L-6,0"></path><path transform="translate(20.6,92.99447130469582)" d="M0,0L-6,0"></path><path transform="translate(20.6,61.393834198141775)" d="M0,0L-6,0"></path><path transform="translate(20.6,29.79319709158772)" d="M0,0L-6,0"></path></g><g aria-label="y-axis tick label" text-anchor="end" font-variant="tabular-nums" transform="translate(-9,0)"><text y="0.32em" transform="translate(20.6,440.60147947679036)">0</text><text y="0.32em" transform="translate(20.6,409.00084237023634)">1</text><text y="0.32em" transform="translate(20.6,377.40020526368227)">2</text><text y="0.32em" transform="translate(20.6,345.7995681571282)">3</text><text y="0.32em" transform="translate(20.6,314.1989310505741)">4</text><text y="0.32em" transform="translate(20.6,282.5982939440201)">5</text><text y="0.32em" transform="translate(20.6,250.99765683746605)">6</text><text y="0.32em" transform="translate(20.6,219.39701973091204)">7</text><text y="0.32em" transform="translate(20.6,187.796382624358)">8</text><text y="0.32em" transform="translate(20.6,156.1957455178039)">9</text><text y="0.32em" transform="translate(20.6,124.59510841124988)">10</text><text y="0.32em" transform="translate(20.6,92.99447130469582)">11</text><text y="0.32em" transform="translate(20.6,61.393834198141775)">12</text><text y="0.32em" transform="translate(20.6,29.79319709158772)">13</text></g><g aria-label="y-axis label" text-anchor="start" transform="translate(-17.6,-17)"><text y="0.71em" transform="translate(20.6,20)">↑ Sum of Consensus Income</text></g><g aria-label="x-axis tick" aria-hidden="true" fill="none" stroke="currentColor" transform="translate(4.891836734693877,0)"><path transform="translate(21.687074829931994,440.60147947679036)" d="M0,0L0,6"></path><path transform="translate(32.55782312925172,440.60147947679036)" d="M0,0L0,6"></path><path transform="translate(43.428571428571445,440.60147947679036)" d="M0,0L0,6"></path><path transform="translate(54.299319727891174,440.60147947679036)" d="M0,0L0,6"></path><path transform="translate(65.1700680272109,440.60147947679036)" d="M0,0L0,6"></path><path transform="translate(76.04081632653063,440.60147947679036)" d="M0,0L0,6"></path><path transform="translate(86.91156462585036,440.60147947679036)" d="M0,0L0,6"></path><path transform="translate(97.78231292517009,440.60147947679036)" d="M0,0L0,6"></path><path transform="translate(108.65306122448982,440.60147947679036)" d="M0,0L0,6"></path><path transform="translate(119.52380952380955,440.60147947679036)" d="M0,0L0,6"></path><path transform="translate(130.39455782312928,440.60147947679036)" d="M0,0L0,6"></path><path transform="translate(141.265306122449,440.60147947679036)" d="M0,0L0,6"></path><path transform="translate(152.1360544217687,440.60147947679036)" d="M0,0L0,6"></path><path transform="translate(163.00680272108843,440.60147947679036)" d="M0,0L0,6"></path><path transform="translate(173.87755102040816,440.60147947679036)" d="M0,0L0,6"></path><path transform="translate(184.7482993197279,440.60147947679036)" d="M0,0L0,6"></path><path transform="translate(195.61904761904762,440.60147947679036)" d="M0,0L0,6"></path><path transform="translate(206.48979591836735,440.60147947679036)" d="M0,0L0,6"></path><path transform="translate(217.36054421768708,440.60147947679036)" d="M0,0L0,6"></path><path transform="translate(228.2312925170068,440.60147947679036)" d="M0,0L0,6"></path><path transform="translate(239.10204081632654,440.60147947679036)" d="M0,0L0,6"></path><path transform="translate(249.97278911564626,440.60147947679036)" d="M0,0L0,6"></path><path transform="translate(260.843537414966,440.60147947679036)" d="M0,0L0,6"></path><path transform="translate(271.7142857142857,440.60147947679036)" d="M0,0L0,6"></path><path transform="translate(282.5850340136054,440.60147947679036)" d="M0,0L0,6"></path><path transform="translate(293.4557823129252,440.60147947679036)" d="M0,0L0,6"></path><path transform="translate(304.3265306122449,440.60147947679036)" d="M0,0L0,6"></path><path transform="translate(315.19727891156464,440.60147947679036)" d="M0,0L0,6"></path><path transform="translate(326.06802721088434,440.60147947679036)" d="M0,0L0,6"></path><path transform="translate(336.9387755102041,440.60147947679036)" d="M0,0L0,6"></path><path transform="translate(347.8095238095238,440.60147947679036)" d="M0,0L0,6"></path><path transform="translate(358.68027210884355,440.60147947679036)" d="M0,0L0,6"></path><path transform="translate(369.55102040816325,440.60147947679036)" d="M0,0L0,6"></path><path transform="translate(380.42176870748295,440.60147947679036)" d="M0,0L0,6"></path><path transform="translate(391.2925170068027,440.60147947679036)" d="M0,0L0,6"></path><path transform="translate(402.1632653061224,440.60147947679036)" d="M0,0L0,6"></path><path transform="translate(413.03401360544217,440.60147947679036)" d="M0,0L0,6"></path><path transform="translate(423.90476190476187,440.60147947679036)" d="M0,0L0,6"></path><path transform="translate(434.7755102040816,440.60147947679036)" d="M0,0L0,6"></path><path transform="translate(445.6462585034013,440.60147947679036)" d="M0,0L0,6"></path><path transform="translate(456.5170068027211,440.60147947679036)" d="M0,0L0,6"></path><path transform="translate(467.3877551020408,440.60147947679036)" d="M0,0L0,6"></path><path transform="translate(478.25850340136054,440.60147947679036)" d="M0,0L0,6"></path><path transform="translate(489.12925170068024,440.60147947679036)" d="M0,0L0,6"></path></g><g aria-label="x-axis tick label" text-anchor="end" transform="translate(4.891836734693877,11.82842712474619)"><text transform="translate(21.687074829931994,440.60147947679036) rotate(-45)"><tspan x="0" y="-0.18em">Dec</tspan><tspan x="0" dy="1em">2020</tspan></text><text transform="translate(32.55782312925172,440.60147947679036) rotate(-45)" style="display: none;"><tspan x="0" y="-0.18em">Jan</tspan><tspan x="0" dy="1em">2021</tspan></text><text y="0.32em" transform="translate(43.428571428571445,440.60147947679036) rotate(-45)">Feb</text><text y="0.32em" transform="translate(54.299319727891174,440.60147947679036) rotate(-45)" style="display: none;">Mar</text><text y="0.32em" transform="translate(65.1700680272109,440.60147947679036) rotate(-45)">Apr</text><text y="0.32em" transform="translate(76.04081632653063,440.60147947679036) rotate(-45)" style="display: none;">May</text><text y="0.32em" transform="translate(86.91156462585036,440.60147947679036) rotate(-45)">Jun</text><text y="0.32em" transform="translate(97.78231292517009,440.60147947679036) rotate(-45)" style="display: none;">Jul</text><text y="0.32em" transform="translate(108.65306122448982,440.60147947679036) rotate(-45)">Aug</text><text y="0.32em" transform="translate(119.52380952380955,440.60147947679036) rotate(-45)" style="display: none;">Sep</text><text y="0.32em" transform="translate(130.39455782312928,440.60147947679036) rotate(-45)">Oct</text><text y="0.32em" transform="translate(141.265306122449,440.60147947679036) rotate(-45)" style="display: none;">Nov</text><text y="0.32em" transform="translate(152.1360544217687,440.60147947679036) rotate(-45)">Dec</text><text transform="translate(163.00680272108843,440.60147947679036) rotate(-45)" style="display: none;"><tspan x="0" y="-0.18em">Jan</tspan><tspan x="0" dy="1em">2022</tspan></text><text y="0.32em" transform="translate(173.87755102040816,440.60147947679036) rotate(-45)">Feb</text><text y="0.32em" transform="translate(184.7482993197279,440.60147947679036) rotate(-45)" style="display: none;">Mar</text><text y="0.32em" transform="translate(195.61904761904762,440.60147947679036) rotate(-45)">Apr</text><text y="0.32em" transform="translate(206.48979591836735,440.60147947679036) rotate(-45)" style="display: none;">May</text><text y="0.32em" transform="translate(217.36054421768708,440.60147947679036) rotate(-45)">Jun</text><text y="0.32em" transform="translate(228.2312925170068,440.60147947679036) rotate(-45)" style="display: none;">Jul</text><text y="0.32em" transform="translate(239.10204081632654,440.60147947679036) rotate(-45)">Aug</text><text y="0.32em" transform="translate(249.97278911564626,440.60147947679036) rotate(-45)" style="display: none;">Sep</text><text y="0.32em" transform="translate(260.843537414966,440.60147947679036) rotate(-45)">Oct</text><text y="0.32em" transform="translate(271.7142857142857,440.60147947679036) rotate(-45)" style="display: none;">Nov</text><text y="0.32em" transform="translate(282.5850340136054,440.60147947679036) rotate(-45)">Dec</text><text transform="translate(293.4557823129252,440.60147947679036) rotate(-45)" style="display: none;"><tspan x="0" y="-0.18em">Jan</tspan><tspan x="0" dy="1em">2023</tspan></text><text y="0.32em" transform="translate(304.3265306122449,440.60147947679036) rotate(-45)">Feb</text><text y="0.32em" transform="translate(315.19727891156464,440.60147947679036) rotate(-45)" style="display: none;">Mar</text><text y="0.32em" transform="translate(326.06802721088434,440.60147947679036) rotate(-45)">Apr</text><text y="0.32em" transform="translate(336.9387755102041,440.60147947679036) rotate(-45)" style="display: none;">May</text><text y="0.32em" transform="translate(347.8095238095238,440.60147947679036) rotate(-45)">Jun</text><text y="0.32em" transform="translate(358.68027210884355,440.60147947679036) rotate(-45)" style="display: none;">Jul</text><text y="0.32em" transform="translate(369.55102040816325,440.60147947679036) rotate(-45)">Aug</text><text y="0.32em" transform="translate(380.42176870748295,440.60147947679036) rotate(-45)" style="display: none;">Sep</text><text y="0.32em" transform="translate(391.2925170068027,440.60147947679036) rotate(-45)">Oct</text><text y="0.32em" transform="translate(402.1632653061224,440.60147947679036) rotate(-45)" style="display: none;">Nov</text><text y="0.32em" transform="translate(413.03401360544217,440.60147947679036) rotate(-45)">Dec</text><text transform="translate(423.90476190476187,440.60147947679036) rotate(-45)" style="display: none;"><tspan x="0" y="-0.18em">Jan</tspan><tspan x="0" dy="1em">2024</tspan></text><text y="0.32em" transform="translate(434.7755102040816,440.60147947679036) rotate(-45)">Feb</text><text y="0.32em" transform="translate(445.6462585034013,440.60147947679036) rotate(-45)" style="display: none;">Mar</text><text y="0.32em" transform="translate(456.5170068027211,440.60147947679036) rotate(-45)">Apr</text><text y="0.32em" transform="translate(467.3877551020408,440.60147947679036) rotate(-45)" style="display: none;">May</text><text y="0.32em" transform="translate(478.25850340136054,440.60147947679036) rotate(-45)">Jun</text><text y="0.32em" transform="translate(489.12925170068024,440.60147947679036) rotate(-45)" style="display: none;">Jul</text></g><g aria-label="x-axis label" transform="translate(0,56.39852052320967)"><text transform="translate(260.3,440.60147947679036)">Month</text></g><rect aria-label="frame" fill="hsla( 0 0% 100%)" stroke="hsla(220 6% 90%)" x="20.6" y="20" width="479.4" height="420.60147947679036" rx="4" ry="4"></rect><g aria-label="y-grid" aria-hidden="true" stroke="hsla(220 6% 90%)" stroke-dasharray="1.5,1.5"><line x1="20.6" x2="500" y1="440.60147947679036" y2="440.60147947679036"></line><line x1="20.6" x2="500" y1="409.00084237023634" y2="409.00084237023634"></line><line x1="20.6" x2="500" y1="377.40020526368227" y2="377.40020526368227"></line><line x1="20.6" x2="500" y1="345.7995681571282" y2="345.7995681571282"></line><line x1="20.6" x2="500" y1="314.1989310505741" y2="314.1989310505741"></line><line x1="20.6" x2="500" y1="282.5982939440201" y2="282.5982939440201"></line><line x1="20.6" x2="500" y1="250.99765683746605" y2="250.99765683746605"></line><line x1="20.6" x2="500" y1="219.39701973091204" y2="219.39701973091204"></line><line x1="20.6" x2="500" y1="187.796382624358" y2="187.796382624358"></line><line x1="20.6" x2="500" y1="156.1957455178039" y2="156.1957455178039"></line><line x1="20.6" x2="500" y1="124.59510841124988" y2="124.59510841124988"></line><line x1="20.6" x2="500" y1="92.99447130469582" y2="92.99447130469582"></line><line x1="20.6" x2="500" y1="61.393834198141775" y2="61.393834198141775"></line><line x1="20.6" x2="500" y1="29.79319709158772" y2="29.79319709158772"></line></g><g aria-label="bar" fill="hsla(317 100% 50%)"><rect x="21.687074829931994" width="9.783673469387754" y="20" height="420.60147947679036"></rect><rect x="32.55782312925172" width="9.783673469387754" y="131.5421940446858" height="309.05928543210456"></rect><rect x="43.428571428571445" width="9.783673469387754" y="205.82422640336384" height="234.77725307342652"></rect><rect x="54.299319727891174" width="9.783673469387754" y="187.29686655681388" height="253.30461291997648"></rect><rect x="65.1700680272109" width="9.783673469387754" y="220.22190685264857" height="220.3795726241418"></rect><rect x="76.04081632653063" width="9.783673469387754" y="206.1508782679859" height="234.45060120880447"></rect><rect x="86.91156462585036" width="9.783673469387754" y="252.27622208172502" height="188.32525739506534"></rect><rect x="97.78231292517009" width="9.783673469387754" y="262.3869245446317" height="178.21455493215865"></rect><rect x="108.65306122448982" width="9.783673469387754" y="257.2082312688079" height="183.39324820798248"></rect><rect x="119.52380952380955" width="9.783673469387754" y="287.01947072670436" height="153.582008750086"></rect><rect x="130.39455782312928" width="9.783673469387754" y="285.95454466210265" height="154.6469348146877"></rect><rect x="141.265306122449" width="9.783673469387754" y="269.86645060783144" height="170.73502886895892"></rect><rect x="152.1360544217687" width="9.783673469387754" y="289.23189745772186" height="151.3695820190685"></rect><rect x="163.00680272108843" width="9.783673469387754" y="301.18615324792125" height="139.4153262288691"></rect><rect x="173.87755102040816" width="9.783673469387754" y="287.8463619400543" height="152.75511753673607"></rect><rect x="184.7482993197279" width="9.783673469387754" y="292.21627616883853" height="148.38520330795183"></rect><rect x="195.61904761904762" width="9.783673469387754" y="309.9566910190841" height="130.64478845770628"></rect><rect x="206.48979591836735" width="9.783673469387754" y="310.33853827904295" height="130.2629411977474"></rect><rect x="217.36054421768708" width="9.783673469387754" y="326.8006440471154" height="113.80083542967498"></rect><rect x="228.2312925170068" width="9.783673469387754" y="317.18562275464313" height="123.41585672214723"></rect><rect x="239.10204081632654" width="9.783673469387754" y="301.72718264174233" height="138.87429683504803"></rect><rect x="249.97278911564626" width="9.783673469387754" y="322.3124658106051" height="118.28901366618527"></rect><rect x="260.843537414966" width="9.783673469387754" y="321.79724097985087" height="118.80423849693949"></rect><rect x="271.7142857142857" width="9.783673469387754" y="327.45622309841684" height="113.14525637837352"></rect><rect x="282.5850340136054" width="9.783673469387754" y="338.70908449483" height="101.89239498196036"></rect><rect x="293.4557823129252" width="9.783673469387754" y="332.78526845031774" height="107.81621102647262"></rect><rect x="304.3265306122449" width="9.783673469387754" y="335.77011428053225" height="104.8313651962581"></rect><rect x="315.19727891156464" width="9.783673469387754" y="340.125366996987" height="100.47611247980336"></rect><rect x="326.06802721088434" width="9.783673469387754" y="355.91060965808975" height="84.6908698187006"></rect><rect x="336.9387755102041" width="9.783673469387754" y="315.1764455704451" height="125.42503390634528"></rect><rect x="347.8095238095238" width="9.783673469387754" y="339.79540009360596" height="100.8060793831844"></rect><rect x="358.68027210884355" width="9.783673469387754" y="350.5711520708141" height="90.03032740597627"></rect><rect x="369.55102040816325" width="9.783673469387754" y="345.4052066258543" height="95.19627285093605"></rect><rect x="380.42176870748295" width="9.783673469387754" y="362.5913394614218" height="78.01014001536856"></rect><rect x="391.2925170068027" width="9.783673469387754" y="361.3628689733182" height="79.23861050347216"></rect><rect x="402.1632653061224" width="9.783673469387754" y="354.41299569365316" height="86.1884837831372"></rect><rect x="413.03401360544217" width="9.783673469387754" y="360.77307837302425" height="79.82840110376611"></rect><rect x="423.90476190476187" width="9.783673469387754" y="365.0086280535644" height="75.59285142322597"></rect><rect x="434.7755102040816" width="9.783673469387754" y="394.47857296995693" height="46.12290650683343"></rect><rect x="445.6462585034013" width="9.783673469387754" y="368.0889997392901" height="72.51247973750026"></rect><rect x="456.5170068027211" width="9.783673469387754" y="368.8197096235561" height="71.78176985323427"></rect><rect x="467.3877551020408" width="9.783673469387754" y="360.00322089468654" height="80.59825858210382"></rect><rect x="478.25850340136054" width="9.783673469387754" y="363.35769354652564" height="77.24378593026472"></rect><rect x="489.12925170068024" width="9.783673469387754" y="367.3997655104062" height="73.20171396638415"></rect></g><text x="500" y="20" dy="-1em" text-anchor="end" font-family="initial" style="display: none;">⚠️<title>1 warning. Please check the console.</title></text></svg>