<svg class="plot-d6a7b5" fill="currentColor" font-family="system-ui, sans-serif" font-size="10" text-anchor="middle" width="640" height="400" viewBox="0 0 640 400" xmlns="http://www.w3.org/2000/svg"><style>:where(.plot-d6a7b5) {
  --plot-background: white;
  display: block;
  height: auto;
  height: intrinsic;
  max-width: 100%;
}
:where(.plot-d6a7b5 text),
:where(.plot-d6a7b5 tspan) {
  white-space: pre;
}</style><g aria-label="y-axis tick" aria-hidden="true" fill="none" stroke="currentColor"><path transform="translate(40,365.58619099203787)" d="M0,0L-6,0"></path><path transform="translate(40,331.912117275415)" d="M0,0L-6,0"></path><path transform="translate(40,298.2380435587921)" d="M0,0L-6,0"></path><path transform="translate(40,264.56396984216923)" d="M0,0L-6,0"></path><path transform="translate(40,230.88989612554633)" d="M0,0L-6,0"></path><path transform="translate(40,197.21582240892343)" d="M0,0L-6,0"></path><path transform="translate(40,163.54174869230053)" d="M0,0L-6,0"></path><path transform="translate(40,129.86767497567766)" d="M0,0L-6,0"></path><path transform="translate(40,96.19360125905476)" d="M0,0L-6,0"></path><path transform="translate(40,62.51952754243183)" d="M0,0L-6,0"></path><path transform="translate(40,28.845453825809013)" d="M0,0L-6,0"></path></g><g aria-label="y-axis tick label" text-anchor="end" font-variant="tabular-nums" transform="translate(-9,0)"><text y="0.32em" transform="translate(40,365.58619099203787)">−0.05</text><text y="0.32em" transform="translate(40,331.912117275415)">0.00</text><text y="0.32em" transform="translate(40,298.2380435587921)">0.05</text><text y="0.32em" transform="translate(40,264.56396984216923)">0.10</text><text y="0.32em" transform="translate(40,230.88989612554633)">0.15</text><text y="0.32em" transform="translate(40,197.21582240892343)">0.20</text><text y="0.32em" transform="translate(40,163.54174869230053)">0.25</text><text y="0.32em" transform="translate(40,129.86767497567766)">0.30</text><text y="0.32em" transform="translate(40,96.19360125905476)">0.35</text><text y="0.32em" transform="translate(40,62.51952754243183)">0.40</text><text y="0.32em" transform="translate(40,28.845453825809013)">0.45</text></g><g aria-label="y-axis label" text-anchor="start" transform="translate(-37,-17)"><text y="0.71em" transform="translate(40,20)">↑ Consensus Income</text></g><g aria-label="x-axis tick" aria-hidden="true" fill="none" stroke="currentColor"><path transform="translate(40,370)" d="M0,0L0,6"></path><path transform="translate(120.4069500700871,370)" d="M0,0L0,6"></path><path transform="translate(200.8139001401742,370)" d="M0,0L0,6"></path><path transform="translate(281.22085021026123,370)" d="M0,0L0,6"></path><path transform="translate(361.6278002803484,370)" d="M0,0L0,6"></path><path transform="translate(442.0347503504355,370)" d="M0,0L0,6"></path><path transform="translate(522.4417004205225,370)" d="M0,0L0,6"></path><path transform="translate(602.8486504906097,370)" d="M0,0L0,6"></path></g><g aria-label="x-axis tick label" font-variant="tabular-nums" transform="translate(0,9)"><text y="0.71em" transform="translate(40,370)">0.00</text><text y="0.71em" transform="translate(120.4069500700871,370)">0.05</text><text y="0.71em" transform="translate(200.8139001401742,370)">0.10</text><text y="0.71em" transform="translate(281.22085021026123,370)">0.15</text><text y="0.71em" transform="translate(361.6278002803484,370)">0.20</text><text y="0.71em" transform="translate(442.0347503504355,370)">0.25</text><text y="0.71em" transform="translate(522.4417004205225,370)">0.30</text><text y="0.71em" transform="translate(602.8486504906097,370)">0.35</text></g><g aria-label="x-axis label" text-anchor="end" transform="translate(17,27)"><text transform="translate(620,370)">Execution Income →</text></g><g aria-label="dot" fill="none" stroke="currentColor" stroke-width="1.5"><circle cx="40" cy="48.050502058983916" r="3"></circle><circle cx="40" cy="48.313465594562956" r="3"></circle><circle cx="40" cy="50.67773847376241" r="3"></circle><circle cx="40" cy="54.951387905138276" r="3"></circle><circle cx="40" cy="50.90208727552912" r="3"></circle><circle cx="40" cy="50.2775355772698" r="3"></circle><circle cx="40" cy="47.59930651266231" r="3"></circle><circle cx="40" cy="44.29725917112103" r="3"></circle><circle cx="40" cy="52.537164925431966" r="3"></circle><circle cx="40" cy="53.15522965013047" r="3"></circle><circle cx="40" cy="49.15018079427378" r="3"></circle><circle cx="40" cy="50.742523350704374" r="3"></circle><circle cx="40" cy="49.170437096577274" r="3"></circle><circle cx="40" cy="49.19978943967311" r="3"></circle><circle cx="40" cy="42.68720068450812" r="3"></circle><circle cx="40" cy="51.681105990815354" r="3"></circle><circle cx="40" cy="56.657235661845476" r="3"></circle><circle cx="40" cy="47.618707493493375" r="3"></circle><circle cx="40" cy="44.910929429199435" r="3"></circle><circle cx="40" cy="47.97447677623539" r="3"></circle><circle cx="40" cy="45.149139826670854" r="3"></circle><circle cx="40" cy="50.0815107123877" r="3"></circle><circle cx="40" cy="45.41224681380387" r="3"></circle><circle cx="40" cy="47.97926590299936" r="3"></circle><circle cx="40" cy="49.07352176545786" r="3"></circle><circle cx="40" cy="50.8575815992608" r="3"></circle><circle cx="40" cy="108.24553877260463" r="3"></circle><circle cx="40" cy="56.164772538184074" r="3"></circle><circle cx="40" cy="48.863986188719124" r="3"></circle><circle cx="40" cy="48.51983715533529" r="3"></circle><circle cx="40" cy="61.51453424109994" r="3"></circle><circle cx="40" cy="54.79724348573747" r="3"></circle><circle cx="40" cy="121.70244619420366" r="3"></circle><circle cx="40" cy="116.74164630849229" r="3"></circle><circle cx="40" cy="122.00287213679235" r="3"></circle><circle cx="40" cy="120.44807011122256" r="3"></circle><circle cx="40" cy="119.80449592872083" r="3"></circle><circle cx="40" cy="121.8925181563342" r="3"></circle><circle cx="40" cy="118.02985271289202" r="3"></circle><circle cx="40" cy="119.96383423725169" r="3"></circle><circle cx="40" cy="122.48471445760353" r="3"></circle><circle cx="40" cy="127.10089117897311" r="3"></circle><circle cx="40" cy="120.83123459989599" r="3"></circle><circle cx="40" cy="120.26787138750575" r="3"></circle><circle cx="40" cy="116.26408665637643" r="3"></circle><circle cx="40" cy="128.31733813228274" r="3"></circle><circle cx="40" cy="113.71706121170944" r="3"></circle><circle cx="40" cy="123.42522594865706" r="3"></circle><circle cx="40" cy="124.04792422589892" r="3"></circle><circle cx="40" cy="120.46988148225027" r="3"></circle><circle cx="40" cy="127.49634535759012" r="3"></circle><circle cx="40" cy="124.4067565023862" r="3"></circle><circle cx="40" cy="116.64321160316683" r="3"></circle><circle cx="40" cy="126.14152490056418" r="3"></circle><circle cx="40" cy="123.66409097012146" r="3"></circle><circle cx="40" cy="119.07029201769959" r="3"></circle><circle cx="40" cy="119.65506385919596" r="3"></circle><circle cx="40" cy="125.41829941105607" r="3"></circle><circle cx="40" cy="208.55727064112628" r="3"></circle><circle cx="40" cy="117.48074306242455" r="3"></circle><circle cx="40" cy="118.34346474926673" r="3"></circle><circle cx="40" cy="121.69045822396048" r="3"></circle><circle cx="40" cy="186.72373062370468" r="3"></circle><circle cx="40" cy="121.62787697840255" r="3"></circle><circle cx="40" cy="176.43462548136822" r="3"></circle><circle cx="40" cy="178.7543199483002" r="3"></circle><circle cx="40" cy="170.73372535432787" r="3"></circle><circle cx="40" cy="172.0500792434659" r="3"></circle><circle cx="40" cy="172.0887027325374" r="3"></circle><circle cx="40" cy="176.70850749860915" r="3"></circle><circle cx="40" cy="171.68676023339657" r="3"></circle><circle cx="40" cy="173.98663009965006" r="3"></circle><circle cx="40" cy="167.14485370205352" r="3"></circle><circle cx="40" cy="174.20253883158043" r="3"></circle><circle cx="40" cy="172.12664331139388" r="3"></circle><circle cx="40" cy="167.25586567391215" r="3"></circle><circle cx="40" cy="173.7520235015478" r="3"></circle><circle cx="40" cy="176.9042710526792" r="3"></circle><circle cx="40" cy="176.20238078279652" r="3"></circle><circle cx="40" cy="168.32170263859828" r="3"></circle><circle cx="40" cy="170.77738917875328" r="3"></circle><circle cx="40" cy="174.37712745461604" r="3"></circle><circle cx="40" cy="173.9170129931298" r="3"></circle><circle cx="40" cy="178.9097015531693" r="3"></circle><circle cx="40" cy="169.54463387154271" r="3"></circle><circle cx="40" cy="180.81362155844064" r="3"></circle><circle cx="40" cy="176.47480201871957" r="3"></circle><circle cx="40" cy="171.94622974708673" r="3"></circle><circle cx="40" cy="167.91694229296886" r="3"></circle><circle cx="40" cy="174.75771250924277" r="3"></circle><circle cx="40" cy="248.26331922231213" r="3"></circle><circle cx="40" cy="170.0340636346437" r="3"></circle><circle cx="40" cy="164.52061764724317" r="3"></circle><circle cx="40" cy="174.29129022026794" r="3"></circle><circle cx="40" cy="159.47082459299503" r="3"></circle><circle cx="40" cy="193.1812656357504" r="3"></circle><circle cx="40" cy="159.0391566420216" r="3"></circle><circle cx="40" cy="159.32585231779316" r="3"></circle><circle cx="40" cy="156.4867588356339" r="3"></circle><circle cx="40" cy="159.17137452506256" r="3"></circle><circle cx="40" cy="168.83848854570516" r="3"></circle><circle cx="40" cy="170.93333448761643" r="3"></circle><circle cx="40" cy="166.11912794701567" r="3"></circle><circle cx="40" cy="168.802532043272" r="3"></circle><circle cx="40" cy="168.79513991060972" r="3"></circle><circle cx="40" cy="170.66201978175573" r="3"></circle><circle cx="40" cy="166.15282491910244" r="3"></circle><circle cx="40" cy="168.24245946136534" r="3"></circle><circle cx="40" cy="156.6968816882183" r="3"></circle><circle cx="40" cy="156.51795180359906" r="3"></circle><circle cx="40" cy="168.20018098833268" r="3"></circle><circle cx="40" cy="147.59098988235905" r="3"></circle><circle cx="40" cy="157.33913719399334" r="3"></circle><circle cx="40" cy="166.05473234236592" r="3"></circle><circle cx="40" cy="158.6515956662837" r="3"></circle><circle cx="40" cy="158.78716614010386" r="3"></circle><circle cx="40" cy="166.36265750117138" r="3"></circle><circle cx="40" cy="161.64261781379324" r="3"></circle><circle cx="40" cy="163.28558327872344" r="3"></circle><circle cx="40" cy="149.3541926683833" r="3"></circle><circle cx="40" cy="168.77340396950717" r="3"></circle><circle cx="40" cy="156.3671417909777" r="3"></circle><circle cx="40" cy="176.38964769458647" r="3"></circle><circle cx="40" cy="156.68445460805384" r="3"></circle><circle cx="40" cy="160.87349725573526" r="3"></circle><circle cx="40" cy="161.44580362862314" r="3"></circle><circle cx="40" cy="185.2370398000785" r="3"></circle><circle cx="40" cy="163.86639437566927" r="3"></circle><circle cx="40" cy="188.5700511258837" r="3"></circle><circle cx="40" cy="185.89586025619627" r="3"></circle><circle cx="40" cy="183.2199897237118" r="3"></circle><circle cx="40" cy="180.754654214474" r="3"></circle><circle cx="40" cy="185.72475353238292" r="3"></circle><circle cx="40" cy="188.3077273977053" r="3"></circle><circle cx="40" cy="188.31463192978018" r="3"></circle><circle cx="40" cy="183.33656263210403" r="3"></circle><circle cx="40" cy="180.42380711368966" r="3"></circle><circle cx="40" cy="188.4395297426766" r="3"></circle><circle cx="40" cy="188.34057174224557" r="3"></circle><circle cx="40" cy="180.70329519072286" r="3"></circle><circle cx="40" cy="188.65934668760255" r="3"></circle><circle cx="40" cy="186.0136467782052" r="3"></circle><circle cx="40" cy="175.25482534900297" r="3"></circle><circle cx="40" cy="178.43054979084815" r="3"></circle><circle cx="40" cy="175.8932265203004" r="3"></circle><circle cx="40" cy="178.18122223467992" r="3"></circle><circle cx="40" cy="188.31435714933866" r="3"></circle><circle cx="40" cy="183.4939916206551" r="3"></circle><circle cx="40" cy="188.48232477600013" r="3"></circle><circle cx="40" cy="185.95189593530512" r="3"></circle><circle cx="40" cy="183.3395515428871" r="3"></circle><circle cx="40" cy="188.61658802227862" r="3"></circle><circle cx="40" cy="177.94481744104124" r="3"></circle><circle cx="40" cy="180.99886802580758" r="3"></circle><circle cx="40" cy="214.49760757540275" r="3"></circle><circle cx="40" cy="185.9638131899935" r="3"></circle><circle cx="40" cy="185.80033297039546" r="3"></circle><circle cx="40" cy="189.91941436252316" r="3"></circle><circle cx="40" cy="186.06201823813612" r="3"></circle><circle cx="40" cy="180.54792301459437" r="3"></circle><circle cx="40" cy="178.86360376669572" r="3"></circle><circle cx="40" cy="161.3639843847509" r="3"></circle><circle cx="40" cy="175.62340626983124" r="3"></circle><circle cx="40" cy="175.79916742411365" r="3"></circle><circle cx="40" cy="172.70890037306506" r="3"></circle><circle cx="40" cy="178.16684946653618" r="3"></circle><circle cx="40" cy="180.94583742103717" r="3"></circle><circle cx="40" cy="172.98350368896496" r="3"></circle><circle cx="40" cy="175.7617663039181" r="3"></circle><circle cx="40" cy="175.81869973383223" r="3"></circle><circle cx="40" cy="178.36405359747994" r="3"></circle><circle cx="40" cy="181.24162577019368" r="3"></circle><circle cx="40" cy="173.14307232816003" r="3"></circle><circle cx="40" cy="179.61923314385982" r="3"></circle><circle cx="40" cy="175.65035495754518" r="3"></circle><circle cx="40" cy="174.17081381325053" r="3"></circle><circle cx="40" cy="178.87829307113233" r="3"></circle><circle cx="40" cy="172.8142678966873" r="3"></circle><circle cx="40" cy="170.0973540561941" r="3"></circle><circle cx="40" cy="176.8613063020242" r="3"></circle><circle cx="40" cy="175.64197550104151" r="3"></circle><circle cx="40" cy="181.51484171425642" r="3"></circle><circle cx="40" cy="175.6327158042509" r="3"></circle><circle cx="40" cy="178.6238066468708" r="3"></circle><circle cx="40" cy="166.8156303651038" r="3"></circle><circle cx="40" cy="179.6375094106288" r="3"></circle><circle cx="40" cy="186.7446139372608" r="3"></circle><circle cx="40" cy="167.10538027936138" r="3"></circle><circle cx="40" cy="175.59515102805705" r="3"></circle><circle cx="40" cy="174.39128268824356" r="3"></circle><circle cx="40" cy="175.49002663124705" r="3"></circle><circle cx="40" cy="178.44306913797448" r="3"></circle><circle cx="40" cy="207.24919383930785" r="3"></circle><circle cx="40" cy="204.22053283264233" r="3"></circle><circle cx="40" cy="204.1719007353808" r="3"></circle><circle cx="40" cy="210.22856745123727" r="3"></circle><circle cx="40" cy="210.22122380924114" r="3"></circle><circle cx="40" cy="210.3237034443015" r="3"></circle><circle cx="40" cy="207.3783143810483" r="3"></circle><circle cx="40" cy="207.17690503177886" r="3"></circle><circle cx="40" cy="207.13450129119198" r="3"></circle><circle cx="40" cy="210.3619248649328" r="3"></circle><circle cx="40" cy="207.09205983564246" r="3"></circle><circle cx="40" cy="210.27684933813214" r="3"></circle><circle cx="40" cy="207.11680489197238" r="3"></circle><circle cx="40" cy="207.5550648796166" r="3"></circle><circle cx="40" cy="204.2687857598338" r="3"></circle><circle cx="40" cy="207.07327441687895" r="3"></circle><circle cx="40" cy="207.83311035933176" r="3"></circle><circle cx="40" cy="204.1641119221301" r="3"></circle><circle cx="40" cy="206.9420095101241" r="3"></circle><circle cx="40" cy="204.2253037754065" r="3"></circle><circle cx="40" cy="207.2042982172659" r="3"></circle><circle cx="40" cy="201.71986244437224" r="3"></circle><circle cx="40" cy="201.24029649094427" r="3"></circle><circle cx="40" cy="210.28097845305126" r="3"></circle><circle cx="40" cy="207.22570280548308" r="3"></circle><circle cx="40" cy="201.14043737230062" r="3"></circle><circle cx="40" cy="209.4718706059363" r="3"></circle><circle cx="40" cy="204.0999244232559" r="3"></circle><circle cx="40" cy="204.26389830477459" r="3"></circle><circle cx="40" cy="204.0941594218356" r="3"></circle><circle cx="40" cy="207.18159380980316" r="3"></circle><circle cx="40" cy="204.6108113061291" r="3"></circle><circle cx="40" cy="215.365838340705" r="3"></circle><circle cx="40" cy="212.21047391731037" r="3"></circle><circle cx="40" cy="212.13878046740476" r="3"></circle><circle cx="40" cy="212.33844819358154" r="3"></circle><circle cx="40" cy="215.24932200475664" r="3"></circle><circle cx="40" cy="212.2179569699717" r="3"></circle><circle cx="40" cy="215.33126921010896" r="3"></circle><circle cx="40" cy="212.14498929311665" r="3"></circle><circle cx="40" cy="212.0036558383206" r="3"></circle><circle cx="40" cy="212.07770984079377" r="3"></circle><circle cx="40" cy="215.35962008625245" r="3"></circle><circle cx="40" cy="215.38760391499247" r="3"></circle><circle cx="40" cy="208.99669642520252" r="3"></circle><circle cx="40" cy="212.69082043576702" r="3"></circle><circle cx="40" cy="212.36475640041337" r="3"></circle><circle cx="40" cy="215.56674796672047" r="3"></circle><circle cx="40" cy="215.8415654497292" r="3"></circle><circle cx="40" cy="215.43938925251683" r="3"></circle><circle cx="40" cy="212.0532570754237" r="3"></circle><circle cx="40" cy="209.49607957101264" r="3"></circle><circle cx="40" cy="199.05626880568335" r="3"></circle><circle cx="40" cy="214.38699026368803" r="3"></circle><circle cx="40" cy="212.1163602691242" r="3"></circle><circle cx="40" cy="215.49176658025715" r="3"></circle><circle cx="40" cy="208.69793869622563" r="3"></circle><circle cx="40" cy="212.3794032755172" r="3"></circle><circle cx="40" cy="219.80357547196868" r="3"></circle><circle cx="40" cy="209.03164472586855" r="3"></circle><circle cx="40" cy="212.48833553658307" r="3"></circle><circle cx="40" cy="212.46350427462446" r="3"></circle><circle cx="40" cy="231.05720171991857" r="3"></circle><circle cx="40" cy="211.7821430670423" r="3"></circle><circle cx="40" cy="204.50215584594918" r="3"></circle><circle cx="40" cy="211.035293867859" r="3"></circle><circle cx="40" cy="201.00964659650373" r="3"></circle><circle cx="40" cy="208.6096674998293" r="3"></circle><circle cx="40" cy="208.6099079327156" r="3"></circle><circle cx="40" cy="212.05655107331464" r="3"></circle><circle cx="40" cy="208.44365296944346" r="3"></circle><circle cx="40" cy="205.00415007943533" r="3"></circle><circle cx="40" cy="204.88391343182272" r="3"></circle><circle cx="40" cy="194.75087549849633" r="3"></circle><circle cx="40" cy="210.82852764694275" r="3"></circle><circle cx="40" cy="204.7714373112389" r="3"></circle><circle cx="40" cy="207.35375857301267" r="3"></circle><circle cx="40" cy="208.88917443434383" r="3"></circle><circle cx="40" cy="205.19860640596377" r="3"></circle><circle cx="40" cy="202.23594860422727" r="3"></circle><circle cx="40" cy="208.54130306885133" r="3"></circle><circle cx="40" cy="211.7653578882575" r="3"></circle><circle cx="40" cy="201.62248510496144" r="3"></circle><circle cx="40" cy="202.01975633659623" r="3"></circle><circle cx="40" cy="211.80354092044482" r="3"></circle><circle cx="40" cy="211.18576916018765" r="3"></circle><circle cx="40" cy="208.00315028848973" r="3"></circle><circle cx="40" cy="211.13324770741184" r="3"></circle><circle cx="40" cy="208.67671796845093" r="3"></circle><circle cx="40" cy="201.8329837602084" r="3"></circle><circle cx="40" cy="279.1055299538843" r="3"></circle><circle cx="40" cy="207.66588356229207" r="3"></circle><circle cx="40" cy="211.92731873364937" r="3"></circle><circle cx="40" cy="211.92031991416815" r="3"></circle><circle cx="40" cy="211.72266657108102" r="3"></circle><circle cx="40" cy="215.55108548155337" r="3"></circle><circle cx="40" cy="231.62752401638303" r="3"></circle><circle cx="40" cy="231.52928462068513" r="3"></circle><circle cx="40" cy="232.33190010638756" r="3"></circle><circle cx="40" cy="225.2271170703976" r="3"></circle><circle cx="40" cy="228.66893336927006" r="3"></circle><circle cx="40" cy="228.83459768928927" r="3"></circle><circle cx="40" cy="229.04210137241998" r="3"></circle><circle cx="40" cy="228.74176971723767" r="3"></circle><circle cx="40" cy="228.3244401868528" r="3"></circle><circle cx="40" cy="232.42337572763878" r="3"></circle><circle cx="40" cy="221.67710395222923" r="3"></circle><circle cx="40" cy="231.95414838832332" r="3"></circle><circle cx="40" cy="224.21366282130364" r="3"></circle><circle cx="40" cy="231.98742982234043" r="3"></circle><circle cx="40" cy="228.6053223705379" r="3"></circle><circle cx="40" cy="220.84131276910117" r="3"></circle><circle cx="40" cy="228.31851085595275" r="3"></circle><circle cx="40" cy="228.81943762130211" r="3"></circle><circle cx="40" cy="225.11903676339676" r="3"></circle><circle cx="40" cy="228.25123611800024" r="3"></circle><circle cx="40" cy="232.26738394855388" r="3"></circle><circle cx="40" cy="227.0127238911471" r="3"></circle><circle cx="40" cy="225.00716206176946" r="3"></circle><circle cx="40" cy="228.03158552299845" r="3"></circle><circle cx="40" cy="232.4197220906405" r="3"></circle><circle cx="40" cy="228.83646121252875" r="3"></circle><circle cx="40" cy="256.4787014956983" r="3"></circle><circle cx="40" cy="224.2278086261905" r="3"></circle><circle cx="40" cy="232.53187022574636" r="3"></circle><circle cx="40" cy="228.2134235006238" r="3"></circle><circle cx="40" cy="231.17189561499737" r="3"></circle><circle cx="40" cy="235.26857836025167" r="3"></circle><circle cx="40" cy="232.4708453958756" r="3"></circle><circle cx="40" cy="232.24507756864253" r="3"></circle><circle cx="40" cy="233.46771583714565" r="3"></circle><circle cx="40" cy="229.87813770280468" r="3"></circle><circle cx="40" cy="229.62684627465737" r="3"></circle><circle cx="40" cy="218.34799949245667" r="3"></circle><circle cx="40" cy="229.67164424188553" r="3"></circle><circle cx="40" cy="196.11068780020997" r="3"></circle><circle cx="40" cy="233.31590301060902" r="3"></circle><circle cx="40" cy="229.84910593689062" r="3"></circle><circle cx="40" cy="229.9471661865164" r="3"></circle><circle cx="40" cy="229.60029763493915" r="3"></circle><circle cx="40" cy="232.44689504768542" r="3"></circle><circle cx="40" cy="229.65569418012888" r="3"></circle><circle cx="40" cy="229.52912074532432" r="3"></circle><circle cx="40" cy="222.35519473377204" r="3"></circle><circle cx="40" cy="229.4599299525773" r="3"></circle><circle cx="40" cy="230.7811881338114" r="3"></circle><circle cx="40" cy="229.88594335309222" r="3"></circle><circle cx="40" cy="225.9823107050479" r="3"></circle><circle cx="40" cy="233.40662365912752" r="3"></circle><circle cx="40" cy="213.6413896991582" r="3"></circle><circle cx="40" cy="229.4591527549559" r="3"></circle><circle cx="40" cy="228.6573818150223" r="3"></circle><circle cx="40" cy="233.57437307779128" r="3"></circle><circle cx="40" cy="233.25777145715205" r="3"></circle><circle cx="40" cy="232.39784539190975" r="3"></circle><circle cx="40" cy="232.33063194077138" r="3"></circle><circle cx="40" cy="229.72142058417197" r="3"></circle><circle cx="40" cy="228.9601736980304" r="3"></circle><circle cx="40" cy="228.80032219661612" r="3"></circle><circle cx="40" cy="246.47490196337034" r="3"></circle><circle cx="40" cy="239.9283124959737" r="3"></circle><circle cx="40" cy="209.79174871394815" r="3"></circle><circle cx="40" cy="224.84981389099528" r="3"></circle><circle cx="40" cy="224.56019328518073" r="3"></circle><circle cx="40" cy="209.54622632810992" r="3"></circle><circle cx="40" cy="194.01459457060827" r="3"></circle><circle cx="40" cy="178.3205763274229" r="3"></circle><circle cx="40" cy="224.58583407187152" r="3"></circle><circle cx="40" cy="239.8884188208416" r="3"></circle><circle cx="40" cy="225.1656484162353" r="3"></circle><circle cx="40" cy="239.94393659269673" r="3"></circle><circle cx="40" cy="239.92845527404623" r="3"></circle><circle cx="40" cy="239.73866280672752" r="3"></circle><circle cx="40" cy="224.98393166527532" r="3"></circle><circle cx="40" cy="182.8611002012992" r="3"></circle><circle cx="40" cy="240.16965054141187" r="3"></circle><circle cx="40" cy="206.36576731150026" r="3"></circle><circle cx="40" cy="209.45624852965764" r="3"></circle><circle cx="40" cy="239.9199801831732" r="3"></circle><circle cx="40" cy="225.12166199418368" r="3"></circle><circle cx="40" cy="239.88484532813882" r="3"></circle><circle cx="40" cy="239.62527277178305" r="3"></circle><circle cx="40" cy="224.79491100772628" r="3"></circle><circle cx="40" cy="224.60837078244714" r="3"></circle><circle cx="40" cy="239.94455148128276" r="3"></circle><circle cx="40" cy="225.23387545699254" r="3"></circle><circle cx="40" cy="225.45026303425115" r="3"></circle><circle cx="40" cy="20" r="3"></circle><circle cx="40" cy="239.83700726553545" r="3"></circle><circle cx="40" cy="240.0709282594968" r="3"></circle><circle cx="40" cy="215.59100205505564" r="3"></circle><circle cx="40" cy="228.25398594285994" r="3"></circle><circle cx="40" cy="231.5932552585246" r="3"></circle><circle cx="40" cy="247.03418589847058" r="3"></circle><circle cx="40" cy="246.87487654964312" r="3"></circle><circle cx="40" cy="247.18612601300586" r="3"></circle><circle cx="40" cy="215.63218948809987" r="3"></circle><circle cx="40" cy="231.52278013660606" r="3"></circle><circle cx="40" cy="215.7783827852147" r="3"></circle><circle cx="40" cy="215.53779432465745" r="3"></circle><circle cx="40" cy="215.57773244956684" r="3"></circle><circle cx="40" cy="231.3517919455322" r="3"></circle><circle cx="40" cy="247.08303216284094" r="3"></circle><circle cx="40" cy="247.02661664018055" r="3"></circle><circle cx="40" cy="231.81774953228972" r="3"></circle><circle cx="40" cy="185.71174725815064" r="3"></circle><circle cx="40" cy="231.19148045627094" r="3"></circle><circle cx="40" cy="247.6091228899972" r="3"></circle><circle cx="40" cy="247.48323977370384" r="3"></circle><circle cx="40" cy="246.96507861742637" r="3"></circle><circle cx="40" cy="246.8891583977878" r="3"></circle><circle cx="40" cy="247.42398754707355" r="3"></circle><circle cx="40" cy="231.29806159350994" r="3"></circle><circle cx="40" cy="231.03247013321806" r="3"></circle><circle cx="40" cy="200.43243525803825" r="3"></circle><circle cx="40" cy="247.15179664181468" r="3"></circle><circle cx="40" cy="231.43209114171682" r="3"></circle><circle cx="40" cy="216.56426225628" r="3"></circle><circle cx="40" cy="222.49422824933325" r="3"></circle><circle cx="40" cy="247.0857705385156" r="3"></circle><circle cx="40" cy="247.1636303848002" r="3"></circle><circle cx="40" cy="192.65763985079016" r="3"></circle><circle cx="40" cy="234.81037254526373" r="3"></circle><circle cx="40" cy="215.744461543797" r="3"></circle><circle cx="40" cy="248.55822329029283" r="3"></circle><circle cx="40" cy="186.8061923689034" r="3"></circle><circle cx="40" cy="217.05141767244214" r="3"></circle><circle cx="40" cy="232.85433113521233" r="3"></circle><circle cx="40" cy="232.59389248168057" r="3"></circle><circle cx="40" cy="248.58279324143945" r="3"></circle><circle cx="40" cy="248.62452552099643" r="3"></circle><circle cx="40" cy="217.04755188877948" r="3"></circle><circle cx="40" cy="248.689162232014" r="3"></circle><circle cx="40" cy="232.61252838755684" r="3"></circle><circle cx="40" cy="248.72383305831266" r="3"></circle><circle cx="40" cy="221.63024849909698" r="3"></circle><circle cx="40" cy="232.82170297822532" r="3"></circle><circle cx="40" cy="249.0238050743877" r="3"></circle><circle cx="40" cy="248.88887104056082" r="3"></circle><circle cx="40" cy="248.97574341593497" r="3"></circle><circle cx="40" cy="233.433059153958" r="3"></circle><circle cx="40" cy="248.6473107462361" r="3"></circle><circle cx="40" cy="248.53869502146313" r="3"></circle><circle cx="40" cy="233.04260490180638" r="3"></circle><circle cx="40" cy="248.8302545804423" r="3"></circle><circle cx="40" cy="248.37555827741704" r="3"></circle><circle cx="40" cy="248.6392707243955" r="3"></circle><circle cx="40" cy="248.52100737750274" r="3"></circle><circle cx="40" cy="232.89065872593784" r="3"></circle><circle cx="40" cy="233.41686865931504" r="3"></circle><circle cx="40" cy="234.1507748915246" r="3"></circle><circle cx="40" cy="232.67491701741312" r="3"></circle><circle cx="40" cy="248.59830688720072" r="3"></circle><circle cx="40" cy="248.70959700690827" r="3"></circle><circle cx="40" cy="264.97263233946086" r="3"></circle><circle cx="40" cy="233.00367093777524" r="3"></circle><circle cx="40" cy="188.01311562068446" r="3"></circle><circle cx="40" cy="236.74403753333038" r="3"></circle><circle cx="40" cy="218.94380161353965" r="3"></circle><circle cx="40" cy="235.07170221478597" r="3"></circle><circle cx="40" cy="235.0685166474124" r="3"></circle><circle cx="40" cy="189.6520563603241" r="3"></circle><circle cx="40" cy="251.43726432610214" r="3"></circle><circle cx="40" cy="251.31072119796391" r="3"></circle><circle cx="40" cy="234.88682481526698" r="3"></circle><circle cx="40" cy="251.5803387305093" r="3"></circle><circle cx="40" cy="251.4445466812841" r="3"></circle><circle cx="40" cy="235.269855281127" r="3"></circle><circle cx="40" cy="220.5965763361435" r="3"></circle><circle cx="40" cy="218.88548889356605" r="3"></circle><circle cx="40" cy="219.28705559004413" r="3"></circle><circle cx="40" cy="173.6535867757779" r="3"></circle><circle cx="40" cy="235.15388783258024" r="3"></circle><circle cx="40" cy="218.90539027113255" r="3"></circle><circle cx="40" cy="251.28301955796167" r="3"></circle><circle cx="40" cy="251.21115437028007" r="3"></circle><circle cx="40" cy="251.2668640843554" r="3"></circle><circle cx="40" cy="250.17574731904875" r="3"></circle><circle cx="40" cy="235.16480631424213" r="3"></circle><circle cx="40" cy="220.8692454132491" r="3"></circle><circle cx="40" cy="186.35132500158372" r="3"></circle><circle cx="40" cy="234.9793072913223" r="3"></circle><circle cx="40" cy="250.92692228974167" r="3"></circle><circle cx="40" cy="252.98541100774258" r="3"></circle><circle cx="40" cy="234.62860932408205" r="3"></circle><circle cx="40" cy="173.32877070159623" r="3"></circle><circle cx="40" cy="250.3993229640829" r="3"></circle><circle cx="40" cy="256.153363473374" r="3"></circle><circle cx="40" cy="236.96337900033544" r="3"></circle><circle cx="40" cy="220.34678946560982" r="3"></circle><circle cx="40" cy="254.3826971656511" r="3"></circle><circle cx="40" cy="237.81027454601227" r="3"></circle><circle cx="40" cy="237.9387121775378" r="3"></circle><circle cx="40" cy="254.36227047253456" r="3"></circle><circle cx="40" cy="254.26911922937526" r="3"></circle><circle cx="40" cy="189.45147808719403" r="3"></circle><circle cx="40" cy="172.13668357321322" r="3"></circle><circle cx="40" cy="173.54469559708198" r="3"></circle><circle cx="40" cy="237.7650543058997" r="3"></circle><circle cx="40" cy="236.66906490212622" r="3"></circle><circle cx="40" cy="236.80024225628932" r="3"></circle><circle cx="40" cy="220.63340701753032" r="3"></circle><circle cx="40" cy="237.2706091262594" r="3"></circle><circle cx="40" cy="220.31666194533705" r="3"></circle><circle cx="40" cy="253.8385012360203" r="3"></circle><circle cx="40" cy="254.32760234016186" r="3"></circle><circle cx="40" cy="237.7510054823451" r="3"></circle><circle cx="40" cy="254.0327070274403" r="3"></circle><circle cx="40" cy="254.39249497413968" r="3"></circle><circle cx="40" cy="252.91989675036393" r="3"></circle><circle cx="40" cy="254.3518139991641" r="3"></circle><circle cx="40" cy="236.51901861749676" r="3"></circle><circle cx="40" cy="237.70385639129006" r="3"></circle><circle cx="40" cy="237.13237301276374" r="3"></circle><circle cx="40" cy="236.93681217661742" r="3"></circle><circle cx="40" cy="220.23534242471877" r="3"></circle><circle cx="40" cy="237.59381153882856" r="3"></circle><circle cx="40" cy="219.40850248386607" r="3"></circle><circle cx="40" cy="254.33925020226044" r="3"></circle><circle cx="40" cy="196.61718829824093" r="3"></circle><circle cx="40" cy="241.53820395918092" r="3"></circle><circle cx="40" cy="224.13873598683972" r="3"></circle><circle cx="40" cy="258.5608866593736" r="3"></circle><circle cx="40" cy="241.38551291280172" r="3"></circle><circle cx="40" cy="258.60819401857515" r="3"></circle><circle cx="40" cy="258.50073937586393" r="3"></circle><circle cx="40" cy="246.66160382420333" r="3"></circle><circle cx="40" cy="240.59099536834668" r="3"></circle><circle cx="40" cy="258.52648589914617" r="3"></circle><circle cx="40" cy="240.76739902395562" r="3"></circle><circle cx="40" cy="241.31321265608776" r="3"></circle><circle cx="40" cy="258.64944610584087" r="3"></circle><circle cx="40" cy="138.65090921548043" r="3"></circle><circle cx="40" cy="259.9953240758507" r="3"></circle><circle cx="40" cy="241.13052609180477" r="3"></circle><circle cx="40" cy="259.83739805797154" r="3"></circle><circle cx="40" cy="242.10081623972727" r="3"></circle><circle cx="40" cy="258.6747440904613" r="3"></circle><circle cx="40" cy="240.70299601100962" r="3"></circle><circle cx="40" cy="224.74518046218006" r="3"></circle><circle cx="40" cy="258.62115988391895" r="3"></circle><circle cx="40" cy="188.0509046662093" r="3"></circle><circle cx="40" cy="258.5404518844794" r="3"></circle><circle cx="40" cy="258.92116557406774" r="3"></circle><circle cx="40" cy="241.35470046186953" r="3"></circle><circle cx="40" cy="259.63461278605007" r="3"></circle><circle cx="40" cy="259.9437407827686" r="3"></circle><circle cx="40" cy="258.9200543296351" r="3"></circle><circle cx="40" cy="258.677387505248" r="3"></circle><circle cx="40" cy="246.80496243779265" r="3"></circle><circle cx="40" cy="241.31269609579692" r="3"></circle><circle cx="40" cy="270.98878645071034" r="3"></circle><circle cx="40" cy="218.1048895172595" r="3"></circle><circle cx="40" cy="235.7392078879967" r="3"></circle><circle cx="40" cy="241.61762224159716" r="3"></circle><circle cx="40" cy="223.43292470781338" r="3"></circle><circle cx="40" cy="259.97781355751806" r="3"></circle><circle cx="40" cy="259.99772436382517" r="3"></circle><circle cx="40" cy="260.01500926586397" r="3"></circle><circle cx="40" cy="241.6643153856941" r="3"></circle><circle cx="40" cy="259.93911059763263" r="3"></circle><circle cx="40" cy="241.72569648726477" r="3"></circle><circle cx="40" cy="259.90296754083107" r="3"></circle><circle cx="40" cy="223.3253905942882" r="3"></circle><circle cx="40" cy="254.2140324856637" r="3"></circle><circle cx="40" cy="217.75049278976218" r="3"></circle><circle cx="40" cy="241.6210664258569" r="3"></circle><circle cx="40" cy="253.96578452029888" r="3"></circle><circle cx="40" cy="234.9586839416153" r="3"></circle><circle cx="40" cy="259.878357180796" r="3"></circle><circle cx="40" cy="259.89969644131025" r="3"></circle><circle cx="40" cy="254.0324376348506" r="3"></circle><circle cx="40" cy="241.51346092329538" r="3"></circle><circle cx="40" cy="253.0666759763614" r="3"></circle><circle cx="40" cy="259.9571471049967" r="3"></circle><circle cx="40" cy="254.0891973065444" r="3"></circle><circle cx="40" cy="260.03006225029674" r="3"></circle><circle cx="40" cy="254.10231133781255" r="3"></circle><circle cx="40" cy="235.15301702103392" r="3"></circle><circle cx="40" cy="217.59106827560268" r="3"></circle><circle cx="40" cy="241.97349860789362" r="3"></circle><circle cx="40" cy="234.33370727654577" r="3"></circle><circle cx="40" cy="253.33320963723588" r="3"></circle><circle cx="40" cy="238.08143906550418" r="3"></circle><circle cx="40" cy="207.2377992062436" r="3"></circle><circle cx="40" cy="245.27363258856633" r="3"></circle><circle cx="40" cy="244.91588327028973" r="3"></circle><circle cx="40" cy="245.01336163192167" r="3"></circle><circle cx="40" cy="264.00865944776757" r="3"></circle><circle cx="40" cy="264.090368240678" r="3"></circle><circle cx="40" cy="264.1446158264725" r="3"></circle><circle cx="40" cy="264.1301662814407" r="3"></circle><circle cx="40" cy="264.0500186185878" r="3"></circle><circle cx="40" cy="263.97956976244666" r="3"></circle><circle cx="40" cy="226.3304662797226" r="3"></circle><circle cx="40" cy="264.0454854147841" r="3"></circle><circle cx="40" cy="245.0669350627604" r="3"></circle><circle cx="40" cy="264.2209495637363" r="3"></circle><circle cx="40" cy="245.0184268860901" r="3"></circle><circle cx="40" cy="264.1589165320985" r="3"></circle><circle cx="40" cy="264.4962115445181" r="3"></circle><circle cx="40" cy="245.16500474112678" r="3"></circle><circle cx="40" cy="263.94795721552305" r="3"></circle><circle cx="40" cy="264.0830118025338" r="3"></circle><circle cx="40" cy="264.0024728469444" r="3"></circle><circle cx="40" cy="264.0727014746433" r="3"></circle><circle cx="40" cy="264.0298572771722" r="3"></circle><circle cx="40" cy="245.07833171626902" r="3"></circle><circle cx="40" cy="245.22152936778605" r="3"></circle><circle cx="40" cy="242.09748250642934" r="3"></circle><circle cx="40" cy="367.32186993716914" r="3"></circle><circle cx="40" cy="264.08683785078955" r="3"></circle><circle cx="40" cy="264.1079373518989" r="3"></circle><circle cx="40" cy="264.09233750050896" r="3"></circle><circle cx="40" cy="245.33448972154991" r="3"></circle><circle cx="40" cy="193.0097224959417" r="3"></circle><circle cx="40" cy="243.06449212609044" r="3"></circle><circle cx="40" cy="243.3075340796587" r="3"></circle><circle cx="40" cy="243.04190288395986" r="3"></circle><circle cx="40" cy="243.0757042456751" r="3"></circle><circle cx="40" cy="262.2098113077513" r="3"></circle><circle cx="40" cy="189.0539307281547" r="3"></circle><circle cx="40" cy="262.19739096240164" r="3"></circle><circle cx="40" cy="262.1418179650656" r="3"></circle><circle cx="40" cy="262.2346196713398" r="3"></circle><circle cx="40" cy="262.3195477056975" r="3"></circle><circle cx="40" cy="229.71040377421483" r="3"></circle><circle cx="40" cy="262.19416835354696" r="3"></circle><circle cx="40" cy="243.23246312015925" r="3"></circle><circle cx="40" cy="266.92697118834514" r="3"></circle><circle cx="40" cy="262.2136730505251" r="3"></circle><circle cx="40" cy="266.8140478760624" r="3"></circle><circle cx="40" cy="262.7287617843167" r="3"></circle><circle cx="40" cy="262.21701957997107" r="3"></circle><circle cx="40" cy="243.0981810163995" r="3"></circle><circle cx="40" cy="266.73765083154" r="3"></circle><circle cx="40" cy="262.09352395550417" r="3"></circle><circle cx="40" cy="262.1171671961421" r="3"></circle><circle cx="40" cy="262.16444492215874" r="3"></circle><circle cx="40" cy="243.08179184472164" r="3"></circle><circle cx="40" cy="188.32719101231353" r="3"></circle><circle cx="40" cy="193.8589590632233" r="3"></circle><circle cx="40" cy="223.95249748126105" r="3"></circle><circle cx="40" cy="262.29469893322056" r="3"></circle><circle cx="40" cy="262.1810496079084" r="3"></circle><circle cx="40" cy="262.4409050264834" r="3"></circle><circle cx="40" cy="262.3481114019869" r="3"></circle><circle cx="40" cy="267.534611766784" r="3"></circle><circle cx="40" cy="236.90898863646834" r="3"></circle><circle cx="40" cy="142.25922966577062" r="3"></circle><circle cx="40" cy="255.98666131840275" r="3"></circle><circle cx="40" cy="255.86705706989457" r="3"></circle><circle cx="40" cy="255.97675709984125" r="3"></circle><circle cx="40" cy="217.37759619964643" r="3"></circle><circle cx="40" cy="198.05454593039076" r="3"></circle><circle cx="40" cy="255.97739353983448" r="3"></circle><circle cx="40" cy="255.8648790308066" r="3"></circle><circle cx="40" cy="255.9174584029892" r="3"></circle><circle cx="40" cy="255.94576078846652" r="3"></circle><circle cx="40" cy="236.73946257367527" r="3"></circle><circle cx="40" cy="255.95648665442678" r="3"></circle><circle cx="40" cy="255.94156769280733" r="3"></circle><circle cx="40" cy="255.94416733129827" r="3"></circle><circle cx="40" cy="255.98026930572988" r="3"></circle><circle cx="40" cy="179.39427012698854" r="3"></circle><circle cx="40" cy="236.6784700709153" r="3"></circle><circle cx="40" cy="255.92762123843687" r="3"></circle><circle cx="40" cy="256.0803432649639" r="3"></circle><circle cx="40" cy="236.6156861074336" r="3"></circle><circle cx="40" cy="236.51662910522583" r="3"></circle><circle cx="40" cy="180.48340281587184" r="3"></circle><circle cx="40" cy="256.00006898759375" r="3"></circle><circle cx="40" cy="255.9335357527445" r="3"></circle><circle cx="40" cy="255.9834851797698" r="3"></circle><circle cx="40" cy="256.4062894410595" r="3"></circle><circle cx="40" cy="255.98415529383675" r="3"></circle><circle cx="40" cy="217.86742331681725" r="3"></circle><circle cx="40" cy="217.34876378424877" r="3"></circle><circle cx="40" cy="255.86298587438222" r="3"></circle><circle cx="40" cy="261.6791779480506" r="3"></circle><circle cx="40" cy="266.47502066929076" r="3"></circle><circle cx="40" cy="246.97673388782113" r="3"></circle><circle cx="40" cy="266.4704053007472" r="3"></circle><circle cx="40" cy="189.66411437264057" r="3"></circle><circle cx="40" cy="266.570182254651" r="3"></circle><circle cx="108.030426700146" cy="132.09186438169743" r="3"></circle><circle cx="40" cy="247.4257810282397" r="3"></circle><circle cx="56.68742396988533" cy="227.70043131466187" r="3"></circle><circle cx="40" cy="266.56560864195876" r="3"></circle><circle cx="40" cy="266.5996113746349" r="3"></circle><circle cx="40" cy="266.61209165983576" r="3"></circle><circle cx="83.17222453718219" cy="246.99661977531377" r="3"></circle><circle cx="40" cy="266.44652028025996" r="3"></circle><circle cx="90.03606268336215" cy="247.74520453625644" r="3"></circle><circle cx="40" cy="266.5045070352" r="3"></circle><circle cx="40" cy="267.49178777375704" r="3"></circle><circle cx="64.59300148420253" cy="249.1358784530499" r="3"></circle><circle cx="40" cy="266.5246899280228" r="3"></circle><circle cx="40" cy="266.65745198409496" r="3"></circle><circle cx="40" cy="267.38142705848406" r="3"></circle><circle cx="78.67270924918012" cy="247.12497052772912" r="3"></circle><circle cx="40" cy="266.7036117308643" r="3"></circle><circle cx="40" cy="266.5715965657471" r="3"></circle><circle cx="40" cy="266.3735465420716" r="3"></circle><circle cx="47.42008568615501" cy="227.6131124210702" r="3"></circle><circle cx="40" cy="267.6094604773968" r="3"></circle><circle cx="40" cy="267.46295670532226" r="3"></circle><circle cx="40" cy="227.74776965401122" r="3"></circle><circle cx="40" cy="266.55328797186735" r="3"></circle><circle cx="40" cy="267.0368402621419" r="3"></circle><circle cx="40" cy="267.0090025788818" r="3"></circle><circle cx="40" cy="274.33770002108747" r="3"></circle><circle cx="82.71636764413333" cy="245.917628370471" r="3"></circle><circle cx="40" cy="265.7495915483986" r="3"></circle><circle cx="79.21445965863828" cy="226.16260304268965" r="3"></circle><circle cx="40" cy="265.62853594731325" r="3"></circle><circle cx="40" cy="265.60278066877186" r="3"></circle><circle cx="244.68177025384506" cy="226.07487871325048" r="3"></circle><circle cx="110.86030510587298" cy="245.86854167321425" r="3"></circle><circle cx="40" cy="265.7822735839036" r="3"></circle><circle cx="40" cy="265.6508382863358" r="3"></circle><circle cx="102.76591038541355" cy="225.7545588013914" r="3"></circle><circle cx="169.27914389283018" cy="245.98910630630485" r="3"></circle><circle cx="40" cy="265.8386251258239" r="3"></circle><circle cx="40" cy="265.8363655954775" r="3"></circle><circle cx="68.94716777073339" cy="246.6616307634623" r="3"></circle><circle cx="40" cy="265.77864082483103" r="3"></circle><circle cx="111.62719046646438" cy="246.08264210738605" r="3"></circle><circle cx="40" cy="270.8354077797459" r="3"></circle><circle cx="40" cy="265.7767833629248" r="3"></circle><circle cx="75.8751893332575" cy="245.70393135170235" r="3"></circle><circle cx="40" cy="266.16324050252626" r="3"></circle><circle cx="40" cy="265.6216273743496" r="3"></circle><circle cx="40" cy="191.96787830877864" r="3"></circle><circle cx="40" cy="265.70708543862764" r="3"></circle><circle cx="291.4347120903565" cy="246.17087693578276" r="3"></circle><circle cx="40" cy="265.74398346816184" r="3"></circle><circle cx="216.96430358132974" cy="246.27722302798725" r="3"></circle><circle cx="43.48939641920007" cy="288.92548790120065" r="3"></circle><circle cx="148.9351633121132" cy="225.99201287916713" r="3"></circle><circle cx="40" cy="265.72328401504825" r="3"></circle><circle cx="40" cy="265.93642877900794" r="3"></circle><circle cx="77.54915958466609" cy="245.7270802569381" r="3"></circle><circle cx="135.91769854033726" cy="232.54755291535764" r="3"></circle><circle cx="40" cy="263.3527881670259" r="3"></circle><circle cx="40" cy="263.2211824786452" r="3"></circle><circle cx="40" cy="268.3071677538425" r="3"></circle><circle cx="47.949842392075624" cy="248.41049378193512" r="3"></circle><circle cx="41.11434286768545" cy="247.5938133091227" r="3"></circle><circle cx="41.15800084103734" cy="247.78958561845195" r="3"></circle><circle cx="40" cy="268.33068774737063" r="3"></circle><circle cx="44.666865323143185" cy="248.02616753771844" r="3"></circle><circle cx="41.74218983564886" cy="248.1390895030383" r="3"></circle><circle cx="40" cy="268.21351207305884" r="3"></circle><circle cx="65.59501915721839" cy="233.09381575963315" r="3"></circle><circle cx="40" cy="268.39171527116724" r="3"></circle><circle cx="40" cy="263.28802753541703" r="3"></circle><circle cx="40" cy="263.59975449714517" r="3"></circle><circle cx="40" cy="268.27185981406916" r="3"></circle><circle cx="131.76113928762777" cy="169.05320925631477" r="3"></circle><circle cx="40" cy="274.06234644682525" r="3"></circle><circle cx="43.42120312806403" cy="247.99449909183232" r="3"></circle><circle cx="106.14388007508839" cy="248.07222424182214" r="3"></circle><circle cx="192.6991099306364" cy="243.51076182890884" r="3"></circle><circle cx="45.31623424722095" cy="248.28861922737696" r="3"></circle><circle cx="40" cy="265.696658598442" r="3"></circle><circle cx="56.53528414865214" cy="247.9378417893227" r="3"></circle><circle cx="40" cy="263.3462836829468" r="3"></circle><circle cx="57.53639997402342" cy="248.0506512832363" r="3"></circle><circle cx="40" cy="263.6609908001988" r="3"></circle><circle cx="40" cy="296.7999026676876" r="3"></circle><circle cx="40" cy="263.1736319926314" r="3"></circle><circle cx="40" cy="268.340425616008" r="3"></circle><circle cx="40" cy="263.6199899215229" r="3"></circle><circle cx="40" cy="263.01098891050606" r="3"></circle><circle cx="40" cy="267.1561778119862" r="3"></circle><circle cx="129.8073107856281" cy="247.89040040730774" r="3"></circle><circle cx="40" cy="268.60662523007113" r="3"></circle><circle cx="40" cy="273.4210553665214" r="3"></circle><circle cx="40" cy="273.61324340744426" r="3"></circle><circle cx="40" cy="273.4195730337964" r="3"></circle><circle cx="52.59125306797547" cy="252.50424486233166" r="3"></circle><circle cx="40" cy="240.5935424752826" r="3"></circle><circle cx="40" cy="273.4257044091387" r="3"></circle><circle cx="40" cy="273.39186802638676" r="3"></circle><circle cx="40" cy="273.4916793278458" r="3"></circle><circle cx="42.93880464078763" cy="252.66541369350975" r="3"></circle><circle cx="40" cy="273.6064634694422" r="3"></circle><circle cx="40" cy="268.66363678383635" r="3"></circle><circle cx="40" cy="268.6936646288509" r="3"></circle><circle cx="68.30742868977015" cy="252.68581883521907" r="3"></circle><circle cx="107.17311908359682" cy="226.9245725744532" r="3"></circle><circle cx="40" cy="273.0179888268" r="3"></circle><circle cx="40" cy="273.56454867640565" r="3"></circle><circle cx="67.63527049085761" cy="252.78583824245362" r="3"></circle><circle cx="40" cy="268.8250574970858" r="3"></circle><circle cx="40" cy="273.47525715557566" r="3"></circle><circle cx="40" cy="269.9633819463358" r="3"></circle><circle cx="40" cy="273.4707852385861" r="3"></circle><circle cx="84.67091276197561" cy="247.74586724202715" r="3"></circle><circle cx="40" cy="273.52954380329567" r="3"></circle><circle cx="40" cy="268.91377386473664" r="3"></circle><circle cx="40" cy="287.9750816203263" r="3"></circle><circle cx="98.64869385431004" cy="247.6238330723596" r="3"></circle><circle cx="51.93083007656123" cy="252.82209781155024" r="3"></circle><circle cx="40" cy="269.03392430672056" r="3"></circle><circle cx="80.23482863002337" cy="247.48011953403326" r="3"></circle><circle cx="40" cy="275.80440932285165" r="3"></circle><circle cx="75.13931703784161" cy="248.25044090955996" r="3"></circle><circle cx="107.84304329377663" cy="227.205579352211" r="3"></circle><circle cx="40" cy="269.1408953897332" r="3"></circle><circle cx="40" cy="269.12070643557706" r="3"></circle><circle cx="40" cy="269.14986414252684" r="3"></circle><circle cx="52.471602304048986" cy="247.9370309176276" r="3"></circle><circle cx="43.56319445383856" cy="200.46883154387413" r="3"></circle><circle cx="40" cy="269.0398846177684" r="3"></circle><circle cx="40" cy="269.1805903878303" r="3"></circle><circle cx="51.478448215581935" cy="247.98661666465676" r="3"></circle><circle cx="40" cy="269.2722552573759" r="3"></circle><circle cx="40" cy="269.17197386584775" r="3"></circle><circle cx="40" cy="269.24058209711944" r="3"></circle><circle cx="40" cy="270.9203183035853" r="3"></circle><circle cx="47.84242648680774" cy="248.0554639818519" r="3"></circle><circle cx="40" cy="270.8247155878594" r="3"></circle><circle cx="40" cy="272.9059073663601" r="3"></circle><circle cx="40" cy="269.0997005483927" r="3"></circle><circle cx="66.28695135204511" cy="248.08443176702588" r="3"></circle><circle cx="40" cy="270.7898467580073" r="3"></circle><circle cx="51.93877804799743" cy="248.15339088214574" r="3"></circle><circle cx="40" cy="269.1234091167336" r="3"></circle><circle cx="40" cy="269.1771327339411" r="3"></circle><circle cx="40" cy="269.3147916738132" r="3"></circle><circle cx="40" cy="269.1620218301015" r="3"></circle><circle cx="40" cy="270.8842399010053" r="3"></circle><circle cx="73.91589796747309" cy="248.30434838720998" r="3"></circle><circle cx="67.87788764866193" cy="248.36190546096938" r="3"></circle><circle cx="47.866577602245115" cy="247.97807894000667" r="3"></circle><circle cx="90.15377014195789" cy="248.37877213101257" r="3"></circle><circle cx="40" cy="283.9708072681651" r="3"></circle><circle cx="40" cy="274.724510738463" r="3"></circle><circle cx="40" cy="270.3060877089202" r="3"></circle><circle cx="174.2530634496688" cy="168.40897236804227" r="3"></circle><circle cx="40" cy="270.2895281464293" r="3"></circle><circle cx="40" cy="270.31220494115155" r="3"></circle><circle cx="40" cy="270.34779843707" r="3"></circle><circle cx="40" cy="270.35206090132107" r="3"></circle><circle cx="48.545933775312136" cy="248.4394945677013" r="3"></circle><circle cx="40" cy="270.4891830764581" r="3"></circle><circle cx="40" cy="270.2292192273658" r="3"></circle><circle cx="40" cy="270.3366819518547" r="3"></circle><circle cx="42.956615621763255" cy="249.10527747530065" r="3"></circle><circle cx="46.98905174761757" cy="248.834604597285" r="3"></circle><circle cx="130.5191218100188" cy="227.12433660848083" r="3"></circle><circle cx="40" cy="270.44250878984246" r="3"></circle><circle cx="40" cy="270.34495365132244" r="3"></circle><circle cx="40" cy="270.3793766364385" r="3"></circle><circle cx="40" cy="275.5014975601411" r="3"></circle><circle cx="48.60163895775506" cy="227.40696512962887" r="3"></circle><circle cx="40" cy="270.15287269395395" r="3"></circle><circle cx="40" cy="270.3347564683196" r="3"></circle><circle cx="40" cy="270.3404655707775" r="3"></circle><circle cx="40" cy="270.1739701746189" r="3"></circle><circle cx="40" cy="270.2548997494635" r="3"></circle><circle cx="40" cy="270.3275778292847" r="3"></circle><circle cx="40" cy="270.3743309132328" r="3"></circle><circle cx="132.88585241836242" cy="248.83854176998392" r="3"></circle><circle cx="40" cy="293.0734831999844" r="3"></circle><circle cx="40" cy="270.3542631857422" r="3"></circle><circle cx="50.82676285576484" cy="248.78516162832838" r="3"></circle><circle cx="72.41238873695119" cy="248.940661765937" r="3"></circle><circle cx="40" cy="292.4644922911896" r="3"></circle><circle cx="40" cy="273.92657796945156" r="3"></circle><circle cx="40" cy="272.4252544138326" r="3"></circle><circle cx="40" cy="272.3406920799154" r="3"></circle><circle cx="40" cy="272.0731569520886" r="3"></circle><circle cx="50.95439609960356" cy="250.05542177188156" r="3"></circle><circle cx="40" cy="272.24265203473385" r="3"></circle><circle cx="40" cy="272.30362770045707" r="3"></circle><circle cx="40" cy="272.2119385855785" r="3"></circle><circle cx="40" cy="187.98210853360624" r="3"></circle><circle cx="42.93083316339171" cy="249.9628692537529" r="3"></circle><circle cx="44.09385243374402" cy="249.77109271001083" r="3"></circle><circle cx="43.64453929372658" cy="250.09702137558813" r="3"></circle><circle cx="44.87892973517291" cy="249.9704540021168" r="3"></circle><circle cx="40" cy="272.4373245488156" r="3"></circle><circle cx="89.11805071811963" cy="250.21952361488033" r="3"></circle><circle cx="40" cy="272.162359573364" r="3"></circle><circle cx="40" cy="272.3024726797285" r="3"></circle><circle cx="40" cy="283.13582830369506" r="3"></circle><circle cx="40" cy="272.10686335291604" r="3"></circle><circle cx="40" cy="272.27556978875486" r="3"></circle><circle cx="40" cy="272.43827415769437" r="3"></circle><circle cx="40" cy="272.09219223247914" r="3"></circle><circle cx="40" cy="272.54455559567725" r="3"></circle><circle cx="40" cy="272.21112569343893" r="3"></circle><circle cx="40" cy="272.32223397314834" r="3"></circle><circle cx="47.18851908547332" cy="250.11827173654768" r="3"></circle><circle cx="40" cy="272.3340279807269" r="3"></circle><circle cx="66.52143835102382" cy="272.2911036389603" r="3"></circle><circle cx="40" cy="272.36962551753425" r="3"></circle><circle cx="40" cy="272.05283262815624" r="3"></circle><circle cx="40" cy="284.1262299554042" r="3"></circle><circle cx="75.30936730697547" cy="250.342999034903" r="3"></circle><circle cx="40" cy="278.4934235197892" r="3"></circle><circle cx="40" cy="279.6207789762667" r="3"></circle><circle cx="40" cy="279.3114711599945" r="3"></circle><circle cx="79.21545880500292" cy="257.39141032452835" r="3"></circle><circle cx="40" cy="279.7759181278051" r="3"></circle><circle cx="40" cy="279.7446073005819" r="3"></circle><circle cx="56.94454874311232" cy="257.4086689607896" r="3"></circle><circle cx="80.44121214123388" cy="260.686573338439" r="3"></circle><circle cx="44.14265236212761" cy="257.60764232756634" r="3"></circle><circle cx="40" cy="279.93897405407427" r="3"></circle><circle cx="40" cy="279.87626013266583" r="3"></circle><circle cx="40" cy="279.8033382525511" r="3"></circle><circle cx="79.82137446520986" cy="257.1762343404421" r="3"></circle><circle cx="40" cy="279.319657327315" r="3"></circle><circle cx="40" cy="279.79760221083416" r="3"></circle><circle cx="40" cy="279.83992850105153" r="3"></circle><circle cx="142.29264330964597" cy="257.32234210540963" r="3"></circle><circle cx="40" cy="287.53796789815146" r="3"></circle><circle cx="40" cy="279.8957803197179" r="3"></circle><circle cx="40" cy="279.7767492039444" r="3"></circle><circle cx="40" cy="279.74391159421896" r="3"></circle><circle cx="40" cy="279.8075401034695" r="3"></circle><circle cx="40" cy="275.9450524591365" r="3"></circle><circle cx="40" cy="279.8676584272757" r="3"></circle><circle cx="40" cy="279.537725240852" r="3"></circle><circle cx="40" cy="279.8203813747405" r="3"></circle><circle cx="40" cy="279.45351648470887" r="3"></circle><circle cx="40" cy="279.1240857154651" r="3"></circle><circle cx="40" cy="279.2688478644469" r="3"></circle><circle cx="40" cy="280.0032322685032" r="3"></circle><circle cx="40" cy="275.6432337568588" r="3"></circle><circle cx="40" cy="275.12450350873553" r="3"></circle><circle cx="40" cy="281.0610345992006" r="3"></circle><circle cx="523.9622475664207" cy="224.05377764581561" r="3"></circle><circle cx="40" cy="268.85581404905565" r="3"></circle><circle cx="64.69013632812579" cy="245.00350657750772" r="3"></circle><circle cx="40" cy="267.8394604622146" r="3"></circle><circle cx="40" cy="267.8380528859333" r="3"></circle><circle cx="40" cy="267.99921094140774" r="3"></circle><circle cx="40" cy="267.7857610903402" r="3"></circle><circle cx="40" cy="267.80991213600976" r="3"></circle><circle cx="190.53455924466175" cy="245.10881281431585" r="3"></circle><circle cx="121.73277907825258" cy="228.84321959912367" r="3"></circle><circle cx="275.6729234610259" cy="245.47680511233554" r="3"></circle><circle cx="40" cy="267.7221460507191" r="3"></circle><circle cx="40" cy="268.8418372880188" r="3"></circle><circle cx="40" cy="270.520672376272" r="3"></circle><circle cx="40" cy="267.9457062056794" r="3"></circle><circle cx="40" cy="270.4876273342524" r="3"></circle><circle cx="164.19967365244418" cy="248.01974319793476" r="3"></circle><circle cx="40" cy="267.90947492280475" r="3"></circle><circle cx="40" cy="267.77986273958805" r="3"></circle><circle cx="40" cy="270.30016713327933" r="3"></circle><circle cx="76.85735676152761" cy="244.60877773843856" r="3"></circle><circle cx="163.01301312136226" cy="177.09649074723143" r="3"></circle><circle cx="40" cy="267.8125366933152" r="3"></circle><circle cx="474.9881449920241" cy="246.5262252926033" r="3"></circle><circle cx="89.08899597488438" cy="245.03841985713711" r="3"></circle><circle cx="374.5544614139375" cy="247.92805273609324" r="3"></circle><circle cx="101.5152255773028" cy="245.58535416244254" r="3"></circle><circle cx="40" cy="268.67286684744204" r="3"></circle><circle cx="126.3239782943458" cy="21.840043654838325" r="3"></circle><circle cx="40" cy="269.8122459686808" r="3"></circle><circle cx="40" cy="267.7842437365785" r="3"></circle><circle cx="85.04500952399007" cy="249.24801042460038" r="3"></circle><circle cx="105.61869784598319" cy="254.17499749941143" r="3"></circle><circle cx="40" cy="277.420962864803" r="3"></circle><circle cx="40" cy="187.71899615862137" r="3"></circle><circle cx="40" cy="277.348517809572" r="3"></circle><circle cx="40" cy="277.2523850639258" r="3"></circle><circle cx="104.30791584272077" cy="230.970431040247" r="3"></circle><circle cx="65.44686077932894" cy="253.75030277562325" r="3"></circle><circle cx="40" cy="277.3347141332741" r="3"></circle><circle cx="40" cy="277.30251767791214" r="3"></circle><circle cx="91.69732313379231" cy="230.75353835188267" r="3"></circle><circle cx="62.84666977293337" cy="166.33907352690315" r="3"></circle><circle cx="40" cy="277.29178642410017" r="3"></circle><circle cx="40" cy="277.397230051129" r="3"></circle><circle cx="40" cy="277.79859066227596" r="3"></circle><circle cx="40" cy="277.3412394952789" r="3"></circle><circle cx="40" cy="277.68937217158344" r="3"></circle><circle cx="61.35443783343897" cy="253.55588685798332" r="3"></circle><circle cx="40" cy="277.2981097416626" r="3"></circle><circle cx="40" cy="277.29243094587105" r="3"></circle><circle cx="40" cy="277.55665523877" r="3"></circle><circle cx="40" cy="277.27462274872676" r="3"></circle><circle cx="40" cy="277.845714161035" r="3"></circle><circle cx="40" cy="277.3071707614183" r="3"></circle><circle cx="56.01924752689484" cy="254.2466498669471" r="3"></circle><circle cx="40" cy="277.2923359849832" r="3"></circle><circle cx="40" cy="277.56213064315637" r="3"></circle><circle cx="40" cy="277.8008757849184" r="3"></circle><circle cx="59.37240334911401" cy="255.0055974873353" r="3"></circle><circle cx="40" cy="277.3494896433395" r="3"></circle><circle cx="40" cy="277.4842223062056" r="3"></circle><circle cx="40" cy="277.2259583243544" r="3"></circle><circle cx="40" cy="282.7984208198693" r="3"></circle><circle cx="40" cy="288.1671854760649" r="3"></circle><circle cx="217.2651875735626" cy="263.73594928829203" r="3"></circle><circle cx="40" cy="278.32205615864524" r="3"></circle><circle cx="40" cy="278.41780973422146" r="3"></circle><circle cx="40" cy="278.39552490571725" r="3"></circle><circle cx="40" cy="278.3757609183715" r="3"></circle><circle cx="62.84821022972956" cy="254.3144856149678" r="3"></circle><circle cx="40" cy="278.4142476907037" r="3"></circle><circle cx="40" cy="278.3995940807852" r="3"></circle><circle cx="40" cy="278.4384613701504" r="3"></circle><circle cx="40" cy="278.50757403904635" r="3"></circle><circle cx="58.10628166639306" cy="253.66621255221958" r="3"></circle><circle cx="40" cy="288.03904552335104" r="3"></circle><circle cx="40" cy="279.50940534485636" r="3"></circle><circle cx="40" cy="278.3616090521514" r="3"></circle><circle cx="40" cy="279.5022381550065" r="3"></circle><circle cx="40" cy="278.0875640523937" r="3"></circle><circle cx="40" cy="278.34808015629494" r="3"></circle><circle cx="40" cy="278.35084614471003" r="3"></circle><circle cx="40" cy="279.4546075246973" r="3"></circle><circle cx="40" cy="278.3706155199076" r="3"></circle><circle cx="40" cy="190.77536351965944" r="3"></circle><circle cx="74.00723404565213" cy="253.59223734707888" r="3"></circle><circle cx="40" cy="288.0278024236186" r="3"></circle><circle cx="93.62351774906878" cy="229.55344554921425" r="3"></circle><circle cx="40" cy="279.42285017925667" r="3"></circle><circle cx="40" cy="324.8719318885171" r="3"></circle><circle cx="50.1175981304074" cy="263.9528433236193" r="3"></circle><circle cx="40" cy="278.39079437184154" r="3"></circle><circle cx="58.48876944981835" cy="253.37148224245928" r="3"></circle><circle cx="40" cy="277.5115185103603" r="3"></circle><circle cx="55.39922764659542" cy="257.78750969839786" r="3"></circle><circle cx="152.92748965890598" cy="248.90164294324006" r="3"></circle><circle cx="40" cy="274.97215930531564" r="3"></circle><circle cx="40" cy="274.9574518168792" r="3"></circle><circle cx="40" cy="275.0078255372333" r="3"></circle><circle cx="40" cy="274.91196420462126" r="3"></circle><circle cx="56.587365033824426" cy="249.8471853409068" r="3"></circle><circle cx="40" cy="274.9413583035685" r="3"></circle><circle cx="98.31189660597931" cy="220.9557871092194" r="3"></circle><circle cx="40" cy="274.924513858414" r="3"></circle><circle cx="82.17572411268029" cy="249.53700469264385" r="3"></circle><circle cx="40" cy="274.9221229991801" r="3"></circle><circle cx="40" cy="274.9502960762144" r="3"></circle><circle cx="40" cy="274.92647368950435" r="3"></circle><circle cx="40" cy="275.7905982382576" r="3"></circle><circle cx="40" cy="274.9645887000627" r="3"></circle><circle cx="40" cy="276.0655719689683" r="3"></circle><circle cx="167.3498538391292" cy="249.03425952731376" r="3"></circle><circle cx="40" cy="274.94405020902144" r="3"></circle><circle cx="40" cy="275.05653037049416" r="3"></circle><circle cx="40" cy="276.1386716481923" r="3"></circle><circle cx="40" cy="274.9976822327484" r="3"></circle><circle cx="40" cy="275.23188137455867" r="3"></circle><circle cx="40" cy="274.99055814571295" r="3"></circle><circle cx="40" cy="275.0229923400353" r="3"></circle><circle cx="40" cy="274.96096200232336" r="3"></circle><circle cx="191.94438376529877" cy="250.27446017222312" r="3"></circle><circle cx="40" cy="295.6950468803046" r="3"></circle><circle cx="40" cy="275.07833635367007" r="3"></circle><circle cx="49.4966894541885" cy="249.2135584797809" r="3"></circle><circle cx="40" cy="274.7805019677945" r="3"></circle><circle cx="57.82617735667951" cy="249.4574604691919" r="3"></circle><circle cx="40" cy="276.8850999214541" r="3"></circle><circle cx="40" cy="284.41740697690597" r="3"></circle><circle cx="40" cy="284.3826829455708" r="3"></circle><circle cx="40" cy="283.89618147992024" r="3"></circle><circle cx="40" cy="284.0704468318482" r="3"></circle><circle cx="40" cy="283.8956864710366" r="3"></circle><circle cx="40" cy="283.96313429372805" r="3"></circle><circle cx="40" cy="283.95477840907597" r="3"></circle><circle cx="40" cy="283.9268592345576" r="3"></circle><circle cx="40" cy="283.99144610794605" r="3"></circle><circle cx="80.66266897465607" cy="257.67121628481743" r="3"></circle><circle cx="40" cy="284.0293186651736" r="3"></circle><circle cx="40" cy="284.08443571555154" r="3"></circle><circle cx="40" cy="284.2883012517579" r="3"></circle><circle cx="40" cy="285.2521226101195" r="3"></circle><circle cx="80.21523115907598" cy="257.2267097564989" r="3"></circle><circle cx="40" cy="275.80010644971213" r="3"></circle><circle cx="40" cy="283.6484190946984" r="3"></circle><circle cx="40" cy="283.92331941592846" r="3"></circle><circle cx="74.3303250852757" cy="257.28019900215327" r="3"></circle><circle cx="40" cy="285.2503028631758" r="3"></circle><circle cx="40" cy="283.9138024492147" r="3"></circle><circle cx="40" cy="284.22643591700717" r="3"></circle><circle cx="40" cy="284.0165817835311" r="3"></circle><circle cx="40" cy="284.421761708119" r="3"></circle><circle cx="40" cy="283.9758199907786" r="3"></circle><circle cx="71.99761392042757" cy="257.9157493263699" r="3"></circle><circle cx="40" cy="308.7592533155537" r="3"></circle><circle cx="40" cy="284.57112575601496" r="3"></circle><circle cx="53.161075445149294" cy="257.2560075475953" r="3"></circle><circle cx="40" cy="283.60093865075794" r="3"></circle><circle cx="40" cy="289.3413694464157" r="3"></circle><circle cx="86.6722521445506" cy="261.6623388907479" r="3"></circle><circle cx="40" cy="286.6106990733278" r="3"></circle><circle cx="40" cy="286.50798978108475" r="3"></circle><circle cx="40" cy="284.42853019693604" r="3"></circle><circle cx="40" cy="284.47599245687667" r="3"></circle><circle cx="40" cy="284.4164398575088" r="3"></circle><circle cx="45.263488774035935" cy="258.53946523411946" r="3"></circle><circle cx="40" cy="284.4209818165717" r="3"></circle><circle cx="56.1847152463576" cy="256.8059650015577" r="3"></circle><circle cx="40" cy="284.49965994284764" r="3"></circle><circle cx="40" cy="284.5065233925526" r="3"></circle><circle cx="85.70816516251242" cy="201.61895471507293" r="3"></circle><circle cx="74.75687972790348" cy="202.4980379608526" r="3"></circle><circle cx="40" cy="286.412918442242" r="3"></circle><circle cx="106.41365026076267" cy="256.3426999937345" r="3"></circle><circle cx="40" cy="284.4570386677445" r="3"></circle><circle cx="40" cy="285.19807774224876" r="3"></circle><circle cx="40" cy="283.91094015294874" r="3"></circle><circle cx="40" cy="284.5837420844736" r="3"></circle><circle cx="40" cy="284.4876504211974" r="3"></circle><circle cx="40" cy="285.22319725427843" r="3"></circle><circle cx="40" cy="284.45687299130185" r="3"></circle><circle cx="40" cy="285.2674928043267" r="3"></circle><circle cx="40" cy="284.37228102419976" r="3"></circle><circle cx="40" cy="286.5854886412991" r="3"></circle><circle cx="73.05513941530498" cy="256.7311418832408" r="3"></circle><circle cx="40" cy="285.15110442985844" r="3"></circle><circle cx="40" cy="322.61664447542" r="3"></circle><circle cx="40" cy="286.52604447244863" r="3"></circle><circle cx="40" cy="284.3608789828393" r="3"></circle><circle cx="40" cy="283.6087214026753" r="3"></circle><circle cx="40" cy="359.58303372628006" r="3"></circle><circle cx="56.687285117195884" cy="263.2273966922088" r="3"></circle><circle cx="56.73541017602643" cy="253.60330130073925" r="3"></circle><circle cx="40" cy="281.7621160178327" r="3"></circle><circle cx="40" cy="281.7058776208" r="3"></circle><circle cx="40" cy="281.7688407303539" r="3"></circle><circle cx="40" cy="281.77644770360644" r="3"></circle><circle cx="40" cy="281.80915129051857" r="3"></circle><circle cx="40" cy="281.79070261249217" r="3"></circle><circle cx="40" cy="281.74032081036034" r="3"></circle><circle cx="40" cy="177.2656996002501" r="3"></circle><circle cx="40" cy="281.8368293586692" r="3"></circle><circle cx="40" cy="281.80631930091903" r="3"></circle><circle cx="40" cy="281.75484578531723" r="3"></circle><circle cx="40" cy="281.904293344916" r="3"></circle><circle cx="40" cy="281.5672737864194" r="3"></circle><circle cx="40" cy="281.83010262570355" r="3"></circle><circle cx="40" cy="281.52469898153805" r="3"></circle><circle cx="40" cy="281.34234040273304" r="3"></circle><circle cx="40" cy="281.84422620570183" r="3"></circle><circle cx="40" cy="281.7727206571275" r="3"></circle><circle cx="40" cy="281.5301952638501" r="3"></circle><circle cx="66.27813604861171" cy="253.76344778703927" r="3"></circle><circle cx="40" cy="282.5102448318172" r="3"></circle><circle cx="78.05408835963408" cy="253.61122009591446" r="3"></circle><circle cx="40" cy="281.78394961374903" r="3"></circle><circle cx="40" cy="176.0634684939007" r="3"></circle><circle cx="40" cy="281.4702062484868" r="3"></circle><circle cx="40" cy="370" r="3"></circle><circle cx="40" cy="281.7387502515622" r="3"></circle><circle cx="40" cy="281.81209844545026" r="3"></circle><circle cx="40" cy="281.28435162734854" r="3"></circle><circle cx="40" cy="281.36108878001545" r="3"></circle><circle cx="100.74446519858688" cy="256.9799501851923" r="3"></circle><circle cx="40" cy="285.0527161947547" r="3"></circle><circle cx="40" cy="285.24391623835476" r="3"></circle><circle cx="110.33296609776114" cy="230.46043719380876" r="3"></circle><circle cx="40" cy="285.2526917019653" r="3"></circle><circle cx="73.05295563796892" cy="257.5038325665942" r="3"></circle><circle cx="40" cy="285.28633277508965" r="3"></circle><circle cx="58.10257750702982" cy="256.7816684838897" r="3"></circle><circle cx="40" cy="285.3719120660331" r="3"></circle><circle cx="40" cy="285.26262690067466" r="3"></circle><circle cx="40" cy="285.2446092507918" r="3"></circle><circle cx="40" cy="285.2676126840291" r="3"></circle><circle cx="40" cy="285.24901449311545" r="3"></circle><circle cx="40" cy="285.1112053668746" r="3"></circle><circle cx="40" cy="285.08666370194993" r="3"></circle><circle cx="40" cy="186.41025261014337" r="3"></circle><circle cx="40" cy="285.12477197769357" r="3"></circle><circle cx="40" cy="286.0957443623496" r="3"></circle><circle cx="40" cy="285.211859193658" r="3"></circle><circle cx="58.67407872346715" cy="256.85601275687833" r="3"></circle><circle cx="40" cy="285.23231551995934" r="3"></circle><circle cx="46.415626607452054" cy="256.9578876055746" r="3"></circle><circle cx="40" cy="285.89622816950447" r="3"></circle><circle cx="40" cy="285.33322594318446" r="3"></circle><circle cx="40" cy="285.2095801323488" r="3"></circle><circle cx="40" cy="285.42087753662446" r="3"></circle><circle cx="40" cy="285.13101111007177" r="3"></circle><circle cx="40" cy="309.76972000082753" r="3"></circle><circle cx="40" cy="285.1674767644995" r="3"></circle><circle cx="40" cy="285.26858249735216" r="3"></circle><circle cx="40" cy="284.73899438089967" r="3"></circle><circle cx="40" cy="310.18109393453483" r="3"></circle><circle cx="40" cy="293.68199122256215" r="3"></circle><circle cx="40" cy="285.4799836177748" r="3"></circle><circle cx="40" cy="285.4757164391534" r="3"></circle><circle cx="61.28351821266273" cy="257.3828167009159" r="3"></circle><circle cx="40" cy="285.56454729865493" r="3"></circle><circle cx="40" cy="285.57843516013713" r="3"></circle><circle cx="40" cy="285.71354564611033" r="3"></circle><circle cx="40" cy="285.7808776299882" r="3"></circle><circle cx="40" cy="285.62337186454903" r="3"></circle><circle cx="54.768561424367" cy="257.09004150787547" r="3"></circle><circle cx="57.61342784195881" cy="257.9480542122492" r="3"></circle><circle cx="40" cy="285.6195101217752" r="3"></circle><circle cx="620" cy="257.22070768959964" r="3"></circle><circle cx="40" cy="285.34708417148187" r="3"></circle><circle cx="40" cy="285.48923186538036" r="3"></circle><circle cx="40" cy="285.5807398137423" r="3"></circle><circle cx="40" cy="285.54026761802373" r="3"></circle><circle cx="40" cy="286.326464972345" r="3"></circle><circle cx="52.97933790169046" cy="256.9808600586641" r="3"></circle><circle cx="40" cy="285.60618394384255" r="3"></circle><circle cx="40" cy="285.48279203552283" r="3"></circle><circle cx="40" cy="285.5860912975374" r="3"></circle><circle cx="40" cy="286.5265542979247" r="3"></circle><circle cx="40" cy="285.54429166983294" r="3"></circle><circle cx="40" cy="285.4173680246617" r="3"></circle><circle cx="40" cy="285.61379226405813" r="3"></circle><circle cx="40" cy="285.5455429984122" r="3"></circle><circle cx="65.87839195978144" cy="311.5454273173857" r="3"></circle><circle cx="40" cy="285.4961384178996" r="3"></circle><circle cx="40" cy="285.5951314393673" r="3"></circle><circle cx="40" cy="285.2162826199814" r="3"></circle><circle cx="173.40943858584703" cy="267.0131545921711" r="3"></circle><circle cx="40" cy="290.20116755017784" r="3"></circle><circle cx="40" cy="285.29691923038473" r="3"></circle><circle cx="40" cy="285.2905420343042" r="3"></circle><circle cx="40" cy="325.94348873136477" r="3"></circle><circle cx="40" cy="325.9524770151212" r="3"></circle><circle cx="40" cy="325.9737799076358" r="3"></circle><circle cx="40" cy="325.9343576695357" r="3"></circle><circle cx="40" cy="326.0494846132026" r="3"></circle><circle cx="40" cy="326.04306296734484" r="3"></circle><circle cx="80.77898320077483" cy="297.4253979134924" r="3"></circle><circle cx="95.79316738285333" cy="268.51965924077206" r="3"></circle><circle cx="40" cy="325.99648431509854" r="3"></circle><circle cx="40" cy="326.0061265493665" r="3"></circle><circle cx="40" cy="285.2309840470846" r="3"></circle><circle cx="40" cy="285.01363743220656" r="3"></circle><circle cx="40" cy="325.94684940392165" r="3"></circle><circle cx="40" cy="285.0594442746833" r="3"></circle><circle cx="40" cy="286.0648234809001" r="3"></circle><circle cx="40" cy="325.95963949060075" r="3"></circle><circle cx="40" cy="325.95333435703805" r="3"></circle><circle cx="40" cy="285.04751961169876" r="3"></circle><circle cx="40" cy="325.9422380762669" r="3"></circle><circle cx="40" cy="286.25184524543334" r="3"></circle><circle cx="40" cy="325.98394072263903" r="3"></circle><circle cx="40" cy="285.292082286436" r="3"></circle><circle cx="40" cy="325.9773850539679" r="3"></circle><circle cx="570.371951726209" cy="197.7791155792404" r="3"></circle><circle cx="40" cy="321.84378676866095" r="3"></circle><circle cx="40" cy="285.3518732982459" r="3"></circle><circle cx="52.55596662736073" cy="296.23889462001307" r="3"></circle><circle cx="40" cy="284.628455193036" r="3"></circle><circle cx="53.336998358215126" cy="256.3579536756467" r="3"></circle><circle cx="40" cy="297.8480849890056" r="3"></circle><circle cx="40" cy="287.65788194813786" r="3"></circle><circle cx="40" cy="287.77718043605665" r="3"></circle><circle cx="40" cy="287.1243822512825" r="3"></circle><circle cx="40" cy="287.1026853721053" r="3"></circle><circle cx="64.57026344800684" cy="257.52664675153727" r="3"></circle><circle cx="40" cy="287.2195384487909" r="3"></circle><circle cx="40" cy="287.1670526905332" r="3"></circle><circle cx="40" cy="287.09948162073186" r="3"></circle><circle cx="40" cy="287.1639944111582" r="3"></circle><circle cx="40" cy="287.1872605021705" r="3"></circle><circle cx="40" cy="287.20377022703235" r="3"></circle><circle cx="40" cy="174.2375241737276" r="3"></circle><circle cx="40" cy="287.6278770014934" r="3"></circle><circle cx="40" cy="287.3207418364574" r="3"></circle><circle cx="40" cy="287.0930821997629" r="3"></circle><circle cx="40" cy="287.30854845436454" r="3"></circle><circle cx="40" cy="310.8169506928222" r="3"></circle><circle cx="40" cy="287.13771314358536" r="3"></circle><circle cx="40" cy="287.15368475674916" r="3"></circle><circle cx="40" cy="287.2599028874735" r="3"></circle><circle cx="40" cy="287.1194510199274" r="3"></circle><circle cx="40" cy="288.1052278743522" r="3"></circle><circle cx="40" cy="287.15394135319093" r="3"></circle><circle cx="40" cy="287.7033392537293" r="3"></circle><circle cx="40" cy="287.13944668490024" r="3"></circle><circle cx="40" cy="287.2667582554007" r="3"></circle><circle cx="40" cy="308.0149444884915" r="3"></circle><circle cx="40" cy="287.5420397671453" r="3"></circle><circle cx="40" cy="287.13537683635093" r="3"></circle><circle cx="40" cy="287.1987729944928" r="3"></circle><circle cx="57.94008188421439" cy="261.1483156046487" r="3"></circle><circle cx="40" cy="294.06837899357174" r="3"></circle><circle cx="40" cy="289.27608956059015" r="3"></circle><circle cx="40" cy="289.46845607410376" r="3"></circle><circle cx="40" cy="288.52647235254733" r="3"></circle><circle cx="40" cy="288.5669122211551" r="3"></circle><circle cx="47.47395601994075" cy="259.329208468403" r="3"></circle><circle cx="40" cy="288.5749643656622" r="3"></circle><circle cx="40" cy="288.5515480882812" r="3"></circle><circle cx="40" cy="288.5926082333268" r="3"></circle><circle cx="54.89557056328354" cy="258.91483552169046" r="3"></circle><circle cx="40" cy="288.5872284633098" r="3"></circle><circle cx="40" cy="288.56766247951754" r="3"></circle><circle cx="40" cy="288.539325746485" r="3"></circle><circle cx="51.63667024723382" cy="259.88053858729137" r="3"></circle><circle cx="40" cy="288.6608413354173" r="3"></circle><circle cx="40" cy="288.58668765768596" r="3"></circle><circle cx="40" cy="288.6113976929792" r="3"></circle><circle cx="130.5160159436762" cy="261.45965935541784" r="3"></circle><circle cx="40" cy="288.5454200803462" r="3"></circle><circle cx="40" cy="288.6142040902828" r="3"></circle><circle cx="40" cy="288.6585649680341" r="3"></circle><circle cx="40" cy="288.60112373308823" r="3"></circle><circle cx="263.30313330489923" cy="230.41784891929785" r="3"></circle><circle cx="53.23615873785342" cy="257.6764674198729" r="3"></circle><circle cx="40" cy="289.3051927155405" r="3"></circle><circle cx="40" cy="288.54857062668316" r="3"></circle><circle cx="40" cy="288.69565696023295" r="3"></circle><circle cx="40" cy="289.8679908769738" r="3"></circle><circle cx="40" cy="289.332375101326" r="3"></circle><circle cx="40" cy="288.5391789275236" r="3"></circle><circle cx="40" cy="288.57866784028965" r="3"></circle><circle cx="40" cy="319.1198269649833" r="3"></circle><circle cx="40" cy="314.15942847423065" r="3"></circle><circle cx="40" cy="283.5196541511763" r="3"></circle><circle cx="73.85742849409789" cy="253.48312189905198" r="3"></circle><circle cx="40" cy="286.549581976495" r="3"></circle><circle cx="40" cy="286.63828083362756" r="3"></circle><circle cx="40" cy="286.5281565103521" r="3"></circle><circle cx="40" cy="286.55884369373007" r="3"></circle><circle cx="48.5012387212524" cy="256.5143017264315" r="3"></circle><circle cx="40" cy="286.54768949355224" r="3"></circle><circle cx="40" cy="286.6236844696344" r="3"></circle><circle cx="50.24449050353739" cy="256.7854830829603" r="3"></circle><circle cx="40" cy="286.5500385969347" r="3"></circle><circle cx="40" cy="286.5221133610829" r="3"></circle><circle cx="249.21387228504653" cy="253.44013829091566" r="3"></circle><circle cx="40" cy="293.3761343253644" r="3"></circle><circle cx="66.31991935849852" cy="256.44099798232065" r="3"></circle><circle cx="40" cy="293.25339569407464" r="3"></circle><circle cx="40" cy="284.3342609745293" r="3"></circle><circle cx="82.14358609670276" cy="256.55074852337793" r="3"></circle><circle cx="40" cy="286.55192569202575" r="3"></circle><circle cx="40" cy="293.31023955095276" r="3"></circle><circle cx="88.82630059937071" cy="256.3786841089081" r="3"></circle><circle cx="52.47365447815981" cy="254.48858933134187" r="3"></circle><circle cx="40" cy="286.5126893348126" r="3"></circle><circle cx="40" cy="283.57232242291354" r="3"></circle><circle cx="40" cy="286.4948919133719" r="3"></circle><circle cx="40" cy="293.2426523175961" r="3"></circle><circle cx="40" cy="312.20117804494345" r="3"></circle><circle cx="79.70400514092589" cy="253.44439604079633" r="3"></circle><circle cx="40" cy="286.5145420823485" r="3"></circle><circle cx="160.0487432769063" cy="253.48135064277446" r="3"></circle><circle cx="40" cy="283.321155588839" r="3"></circle><circle cx="40" cy="293.7241760816699" r="3"></circle><circle cx="101.75731129521176" cy="259.36570375601565" r="3"></circle><circle cx="40" cy="289.46772871411144" r="3"></circle><circle cx="40" cy="289.2758915570367" r="3"></circle><circle cx="95.271535141197" cy="259.0032932724552" r="3"></circle><circle cx="60.58469008822158" cy="259.0317148641535" r="3"></circle><circle cx="40" cy="289.2591845021029" r="3"></circle><circle cx="46.47744291393366" cy="257.7279820178445" r="3"></circle><circle cx="61.626377507740855" cy="260.07291587650855" r="3"></circle><circle cx="55.86123475837839" cy="259.37149098232453" r="3"></circle><circle cx="40" cy="289.29193253879237" r="3"></circle><circle cx="40" cy="289.2722870841861" r="3"></circle><circle cx="55.9689903387621" cy="259.1869893854682" r="3"></circle><circle cx="40" cy="289.41677849361525" r="3"></circle><circle cx="261.187622623905" cy="259.4762469847681" r="3"></circle><circle cx="55.200461133660916" cy="258.9143566763622" r="3"></circle><circle cx="40" cy="289.5863160055934" r="3"></circle><circle cx="170.179068741343" cy="260.3002475277251" r="3"></circle><circle cx="40" cy="289.2971776125145" r="3"></circle><circle cx="40" cy="289.2770425368763" r="3"></circle><circle cx="40" cy="289.6697340944857" r="3"></circle><circle cx="40" cy="289.3346278968576" r="3"></circle><circle cx="40" cy="290.53766314008743" r="3"></circle><circle cx="40" cy="289.26399450679264" r="3"></circle><circle cx="138.2942579851718" cy="259.45552193935845" r="3"></circle><circle cx="40" cy="289.2811911827582" r="3"></circle><circle cx="40" cy="289.60170505728195" r="3"></circle><circle cx="40" cy="328.7276416152924" r="3"></circle><circle cx="40" cy="289.4336990421764" r="3"></circle><circle cx="55.382610014326275" cy="259.66574918157136" r="3"></circle><circle cx="40" cy="289.896386876376" r="3"></circle><circle cx="40" cy="293.7883905198031" r="3"></circle><circle cx="40" cy="319.695378845096" r="3"></circle><circle cx="40" cy="290.23077446927095" r="3"></circle><circle cx="40" cy="290.1050267227539" r="3"></circle><circle cx="40" cy="295.66389701515374" r="3"></circle><circle cx="56.66388046283292" cy="264.8899072630057" r="3"></circle><circle cx="40" cy="295.67598870154393" r="3"></circle><circle cx="50.71255638932435" cy="264.9756677204657" r="3"></circle><circle cx="40" cy="295.640026811259" r="3"></circle><circle cx="65.52335980822377" cy="265.21016454108764" r="3"></circle><circle cx="40" cy="295.63781711854176" r="3"></circle><circle cx="40" cy="295.6142647979028" r="3"></circle><circle cx="40" cy="295.66320265575376" r="3"></circle><circle cx="40" cy="295.68634415269327" r="3"></circle><circle cx="40" cy="290.14410952619096" r="3"></circle><circle cx="40" cy="289.7981171740118" r="3"></circle><circle cx="40" cy="295.5963461497967" r="3"></circle><circle cx="40" cy="289.7669989624903" r="3"></circle><circle cx="53.473219173403216" cy="260.4441961110859" r="3"></circle><circle cx="40" cy="295.6173385673517" r="3"></circle><circle cx="40" cy="295.5705686463667" r="3"></circle><circle cx="40" cy="289.7863480852478" r="3"></circle><circle cx="82.1975454031198" cy="265.17246574208036" r="3"></circle><circle cx="40" cy="291.10817670529065" r="3"></circle><circle cx="40" cy="295.6549376911007" r="3"></circle><circle cx="40" cy="290.1871321962527" r="3"></circle><circle cx="40" cy="178.97857513614193" r="3"></circle><circle cx="40" cy="289.7876398227156" r="3"></circle><circle cx="59.51294798571858" cy="288.4431445101726" r="3"></circle><circle cx="99.36993010414693" cy="259.6343548426454" r="3"></circle><circle cx="73.58894874368796" cy="267.64987475370856" r="3"></circle><circle cx="40" cy="289.640139298059" r="3"></circle><circle cx="40" cy="289.5763962969579" r="3"></circle><circle cx="40" cy="303.54275271848246" r="3"></circle></g></svg>