<svg class="plot-chart" fill="currentColor" font-family="system-ui, sans-serif" font-size="10" text-anchor="middle" width="500" height="500" viewBox="0 0 500 500" style="overflow: visible;" xmlns="http://www.w3.org/2000/svg"><style>:where(.plot-chart) {
  --plot-background: white;
  display: block;
  height: auto;
  height: intrinsic;
  max-width: 100%;
}
:where(.plot-chart text),
:where(.plot-chart tspan) {
  white-space: pre;
}</style><g aria-label="y-axis tick" aria-hidden="true" fill="none" stroke="currentColor"><path transform="translate(40,464.32510270404873)" d="M0,0L-6,0"></path><path transform="translate(40,421.02986506839073)" d="M0,0L-6,0"></path><path transform="translate(40,377.73462743273274)" d="M0,0L-6,0"></path><path transform="translate(40,334.43938979707474)" d="M0,0L-6,0"></path><path transform="translate(40,291.14415216141674)" d="M0,0L-6,0"></path><path transform="translate(40,247.8489145257587)" d="M0,0L-6,0"></path><path transform="translate(40,204.5536768901007)" d="M0,0L-6,0"></path><path transform="translate(40,161.25843925444272)" d="M0,0L-6,0"></path><path transform="translate(40,117.9632016187847)" d="M0,0L-6,0"></path><path transform="translate(40,74.66796398312664)" d="M0,0L-6,0"></path><path transform="translate(40,31.37272634746873)" d="M0,0L-6,0"></path></g><g aria-label="y-axis tick label" text-anchor="end" font-variant="tabular-nums" transform="translate(-9,0)"><text y="0.32em" transform="translate(40,464.32510270404873)">−0.05</text><text y="0.32em" transform="translate(40,421.02986506839073)">0.00</text><text y="0.32em" transform="translate(40,377.73462743273274)">0.05</text><text y="0.32em" transform="translate(40,334.43938979707474)">0.10</text><text y="0.32em" transform="translate(40,291.14415216141674)">0.15</text><text y="0.32em" transform="translate(40,247.8489145257587)">0.20</text><text y="0.32em" transform="translate(40,204.5536768901007)">0.25</text><text y="0.32em" transform="translate(40,161.25843925444272)">0.30</text><text y="0.32em" transform="translate(40,117.9632016187847)">0.35</text><text y="0.32em" transform="translate(40,74.66796398312664)">0.40</text><text y="0.32em" transform="translate(40,31.37272634746873)">0.45</text></g><g aria-label="y-axis label" text-anchor="start" transform="translate(-37,-17)"><text y="0.71em" transform="translate(40,20)">↑ Consensus Income</text></g><g aria-label="x-axis tick" aria-hidden="true" fill="none" stroke="currentColor"><path transform="translate(40,470)" d="M0,0L0,6"></path><path transform="translate(100.9983759152385,470)" d="M0,0L0,6"></path><path transform="translate(161.996751830477,470)" d="M0,0L0,6"></path><path transform="translate(222.99512774571545,470)" d="M0,0L0,6"></path><path transform="translate(283.993503660954,470)" d="M0,0L0,6"></path><path transform="translate(344.99187957619245,470)" d="M0,0L0,6"></path><path transform="translate(405.9902554914309,470)" d="M0,0L0,6"></path><path transform="translate(466.9886314066694,470)" d="M0,0L0,6"></path></g><g aria-label="x-axis tick label" font-variant="tabular-nums" transform="translate(0,9)"><text y="0.71em" transform="translate(40,470)">0.00</text><text y="0.71em" transform="translate(100.9983759152385,470)">0.05</text><text y="0.71em" transform="translate(161.996751830477,470)">0.10</text><text y="0.71em" transform="translate(222.99512774571545,470)">0.15</text><text y="0.71em" transform="translate(283.993503660954,470)">0.20</text><text y="0.71em" transform="translate(344.99187957619245,470)">0.25</text><text y="0.71em" transform="translate(405.9902554914309,470)">0.30</text><text y="0.71em" transform="translate(466.9886314066694,470)">0.35</text></g><g aria-label="x-axis label" text-anchor="end" transform="translate(17,27)"><text transform="translate(480,470)">Execution Income →</text></g><rect aria-label="frame" fill="hsla( 0 0% 100%)" stroke="hsla(220 6% 90%)" x="40" y="20" width="440" height="450" rx="4" ry="4"></rect><g aria-label="y-grid" aria-hidden="true" stroke="hsla(220 6% 90%)" stroke-dasharray="1.5,1.5"><line x1="40" x2="480" y1="464.32510270404873" y2="464.32510270404873"></line><line x1="40" x2="480" y1="421.02986506839073" y2="421.02986506839073"></line><line x1="40" x2="480" y1="377.73462743273274" y2="377.73462743273274"></line><line x1="40" x2="480" y1="334.43938979707474" y2="334.43938979707474"></line><line x1="40" x2="480" y1="291.14415216141674" y2="291.14415216141674"></line><line x1="40" x2="480" y1="247.8489145257587" y2="247.8489145257587"></line><line x1="40" x2="480" y1="204.5536768901007" y2="204.5536768901007"></line><line x1="40" x2="480" y1="161.25843925444272" y2="161.25843925444272"></line><line x1="40" x2="480" y1="117.9632016187847" y2="117.9632016187847"></line><line x1="40" x2="480" y1="74.66796398312664" y2="74.66796398312664"></line><line x1="40" x2="480" y1="31.37272634746873" y2="31.37272634746873"></line></g><g aria-label="dot" fill="hsla(317 100% 50%)"><circle cx="40" cy="56.06493121869361" r="3"></circle><circle cx="40" cy="56.40302719300952" r="3"></circle><circle cx="40" cy="59.442806609123096" r="3"></circle><circle cx="40" cy="64.93749873517778" r="3"></circle><circle cx="40" cy="59.731255068537436" r="3"></circle><circle cx="40" cy="58.92826002791833" r="3"></circle><circle cx="40" cy="55.48482265913726" r="3"></circle><circle cx="40" cy="51.23933322001275" r="3"></circle><circle cx="40" cy="61.83349776126968" r="3"></circle><circle cx="40" cy="62.62815240731061" r="3"></circle><circle cx="40" cy="57.478803878352004" r="3"></circle><circle cx="40" cy="59.52610145090563" r="3"></circle><circle cx="40" cy="57.50484769559935" r="3"></circle><circle cx="40" cy="57.542586422436855" r="3"></circle><circle cx="40" cy="49.16925802293901" r="3"></circle><circle cx="40" cy="60.73285055961974" r="3"></circle><circle cx="40" cy="67.1307315652299" r="3"></circle><circle cx="40" cy="55.50976677734863" r="3"></circle><circle cx="40" cy="52.02833783754213" r="3"></circle><circle cx="40" cy="55.96718442658836" r="3"></circle><circle cx="40" cy="52.33460834857681" r="3"></circle><circle cx="40" cy="58.67622805878418" r="3"></circle><circle cx="40" cy="52.67288876060498" r="3"></circle><circle cx="40" cy="55.97334187528489" r="3"></circle><circle cx="40" cy="57.380242269874394" r="3"></circle><circle cx="40" cy="59.67403348476388" r="3"></circle><circle cx="40" cy="133.45854985049166" r="3"></circle><circle cx="40" cy="66.49756469195096" r="3"></circle><circle cx="40" cy="57.11083938549602" r="3"></circle><circle cx="40" cy="56.66836205685966" r="3"></circle><circle cx="40" cy="73.37582973855706" r="3"></circle><circle cx="40" cy="64.73931305309102" r="3"></circle><circle cx="40" cy="150.76028796397614" r="3"></circle><circle cx="40" cy="144.38211668234723" r="3"></circle><circle cx="40" cy="151.1465498901616" r="3"></circle><circle cx="40" cy="149.147518714429" r="3"></circle><circle cx="40" cy="148.32006619406965" r="3"></circle><circle cx="40" cy="151.00466620100113" r="3"></circle><circle cx="40" cy="146.0383820594326" r="3"></circle><circle cx="40" cy="148.52492973360933" r="3"></circle><circle cx="40" cy="151.76606144549027" r="3"></circle><circle cx="40" cy="157.70114580153688" r="3"></circle><circle cx="40" cy="149.64015877129484" r="3"></circle><circle cx="40" cy="148.91583464107885" r="3"></circle><circle cx="40" cy="143.76811141534114" r="3"></circle><circle cx="40" cy="159.26514902722064" r="3"></circle><circle cx="40" cy="140.493364415055" r="3"></circle><circle cx="40" cy="152.9752905054162" r="3"></circle><circle cx="40" cy="153.77590257615574" r="3"></circle><circle cx="40" cy="149.17556190575038" r="3"></circle><circle cx="40" cy="158.20958688833014" r="3"></circle><circle cx="40" cy="154.23725836021086" r="3"></circle><circle cx="40" cy="144.2555577755002" r="3"></circle><circle cx="40" cy="156.46767487215396" r="3"></circle><circle cx="40" cy="153.28240267587046" r="3"></circle><circle cx="40" cy="147.37608973704235" r="3"></circle><circle cx="40" cy="148.12793924753765" r="3"></circle><circle cx="40" cy="155.53781352850064" r="3"></circle><circle cx="40" cy="262.4307765385909" r="3"></circle><circle cx="40" cy="145.332383937403" r="3"></circle><circle cx="40" cy="146.44159753477152" r="3"></circle><circle cx="40" cy="150.74487485937777" r="3"></circle><circle cx="40" cy="234.35908223047747" r="3"></circle><circle cx="40" cy="150.66441325794617" r="3"></circle><circle cx="40" cy="221.13023276175915" r="3"></circle><circle cx="40" cy="224.11269707638598" r="3"></circle><circle cx="40" cy="213.80050402699297" r="3"></circle><circle cx="40" cy="215.4929590273133" r="3"></circle><circle cx="40" cy="215.54261779897664" r="3"></circle><circle cx="40" cy="221.48236678392604" r="3"></circle><circle cx="40" cy="215.0258345857956" r="3"></circle><circle cx="40" cy="217.98281012812149" r="3"></circle><circle cx="40" cy="209.1862404740688" r="3"></circle><circle cx="40" cy="218.26040706917485" r="3"></circle><circle cx="40" cy="215.5913985432207" r="3"></circle><circle cx="40" cy="209.32897015217276" r="3"></circle><circle cx="40" cy="217.68117307341862" r="3"></circle><circle cx="40" cy="221.73406278201614" r="3"></circle><circle cx="40" cy="220.8316324350241" r="3"></circle><circle cx="40" cy="210.69933196391207" r="3"></circle><circle cx="40" cy="213.85664322982566" r="3"></circle><circle cx="40" cy="218.48487815593492" r="3"></circle><circle cx="40" cy="217.89330241973835" r="3"></circle><circle cx="40" cy="224.3124734255034" r="3"></circle><circle cx="40" cy="212.2716721205549" r="3"></circle><circle cx="40" cy="226.76037057513798" r="3"></circle><circle cx="40" cy="221.18188830978232" r="3"></circle><circle cx="40" cy="215.3594382462544" r="3"></circle><circle cx="40" cy="210.17892580524565" r="3"></circle><circle cx="40" cy="218.97420179759783" r="3"></circle><circle cx="40" cy="313.481410428687" r="3"></circle><circle cx="40" cy="212.90093895882762" r="3"></circle><circle cx="40" cy="205.81222268931265" r="3"></circle><circle cx="40" cy="218.37451599748735" r="3"></circle><circle cx="40" cy="199.31963161956503" r="3"></circle><circle cx="40" cy="242.66162724596478" r="3"></circle><circle cx="40" cy="198.76462996831347" r="3"></circle><circle cx="40" cy="199.1332386943055" r="3"></circle><circle cx="40" cy="195.482975645815" r="3"></circle><circle cx="40" cy="198.93462438936615" r="3"></circle><circle cx="40" cy="211.3637709873352" r="3"></circle><circle cx="40" cy="214.05714434122115" r="3"></circle><circle cx="40" cy="207.8674502175916" r="3"></circle><circle cx="40" cy="211.3175411984926" r="3"></circle><circle cx="40" cy="211.3080370279268" r="3"></circle><circle cx="40" cy="213.70831114797164" r="3"></circle><circle cx="40" cy="207.91077489598885" r="3"></circle><circle cx="40" cy="210.5974478788983" r="3"></circle><circle cx="40" cy="195.7531335991378" r="3"></circle><circle cx="40" cy="195.52308089034162" r="3"></circle><circle cx="40" cy="210.54308984214202" r="3"></circle><circle cx="40" cy="184.04555842017592" r="3"></circle><circle cx="40" cy="196.57889067799144" r="3"></circle><circle cx="40" cy="207.7846558687562" r="3"></circle><circle cx="40" cy="198.2663372852219" r="3"></circle><circle cx="40" cy="198.44064218013355" r="3"></circle><circle cx="40" cy="208.1805596443632" r="3"></circle><circle cx="40" cy="202.11193718916272" r="3"></circle><circle cx="40" cy="204.2243213583587" r="3"></circle><circle cx="40" cy="186.31253343077853" r="3"></circle><circle cx="40" cy="211.28009081793778" r="3"></circle><circle cx="40" cy="195.3291823026856" r="3"></circle><circle cx="40" cy="221.07240417875406" r="3"></circle><circle cx="40" cy="195.73715592464066" r="3"></circle><circle cx="40" cy="201.12306790023106" r="3"></circle><circle cx="40" cy="201.85889037965833" r="3"></circle><circle cx="40" cy="232.44762260010094" r="3"></circle><circle cx="40" cy="204.97107848300337" r="3"></circle><circle cx="40" cy="236.7329228761362" r="3"></circle><circle cx="40" cy="233.29467747225235" r="3"></circle><circle cx="40" cy="229.85427250191515" r="3"></circle><circle cx="40" cy="226.68455541860942" r="3"></circle><circle cx="40" cy="233.07468311306377" r="3"></circle><circle cx="40" cy="236.3956495113354" r="3"></circle><circle cx="40" cy="236.40452676686022" r="3"></circle><circle cx="40" cy="230.00415195556232" r="3"></circle><circle cx="40" cy="226.25918057474385" r="3"></circle><circle cx="40" cy="236.56510966915567" r="3"></circle><circle cx="40" cy="236.43787795431575" r="3"></circle><circle cx="40" cy="226.61852238807222" r="3"></circle><circle cx="40" cy="236.84773145548897" r="3"></circle><circle cx="40" cy="233.44611728626384" r="3"></circle><circle cx="40" cy="219.61334687728953" r="3"></circle><circle cx="40" cy="223.69642115966192" r="3"></circle><circle cx="40" cy="220.43414838324335" r="3"></circle><circle cx="40" cy="223.37585715887417" r="3"></circle><circle cx="40" cy="236.40417347772114" r="3"></circle><circle cx="40" cy="230.206560655128" r="3"></circle><circle cx="40" cy="236.6201318548573" r="3"></circle><circle cx="40" cy="233.3667233453923" r="3"></circle><circle cx="40" cy="230.00799484085485" r="3"></circle><circle cx="40" cy="236.79275602864394" r="3"></circle><circle cx="40" cy="223.0719081384816" r="3"></circle><circle cx="40" cy="226.99854460460975" r="3"></circle><circle cx="40" cy="270.0683525969464" r="3"></circle><circle cx="40" cy="233.38204552999161" r="3"></circle><circle cx="40" cy="233.17185667622272" r="3"></circle><circle cx="40" cy="238.4678184661012" r="3"></circle><circle cx="40" cy="233.50830916331788" r="3"></circle><circle cx="40" cy="226.41875816162135" r="3"></circle><circle cx="40" cy="224.2532048428945" r="3"></circle><circle cx="40" cy="201.75369420896544" r="3"></circle><circle cx="40" cy="220.08723663264013" r="3"></circle><circle cx="40" cy="220.3132152595747" r="3"></circle><circle cx="40" cy="216.34001476536935" r="3"></circle><circle cx="40" cy="223.3573778855465" r="3"></circle><circle cx="40" cy="226.93036239847635" r="3"></circle><circle cx="40" cy="216.69307617152637" r="3"></circle><circle cx="40" cy="220.26512810503755" r="3"></circle><circle cx="40" cy="220.33832822921286" r="3"></circle><circle cx="40" cy="223.61092605390277" r="3"></circle><circle cx="40" cy="227.3106617045347" r="3"></circle><circle cx="40" cy="216.8982358504915" r="3"></circle><circle cx="40" cy="225.22472832781978" r="3"></circle><circle cx="40" cy="220.12188494541522" r="3"></circle><circle cx="40" cy="218.21961775989354" r="3"></circle><circle cx="40" cy="224.27209109145588" r="3"></circle><circle cx="40" cy="216.47548729574083" r="3"></circle><circle cx="40" cy="212.98231235796382" r="3"></circle><circle cx="40" cy="221.67882238831683" r="3"></circle><circle cx="40" cy="220.11111135848196" r="3"></circle><circle cx="40" cy="227.66193934690114" r="3"></circle><circle cx="40" cy="220.09920603403685" r="3"></circle><circle cx="40" cy="223.94489426026246" r="3"></circle><circle cx="40" cy="208.762953326562" r="3"></circle><circle cx="40" cy="225.24822638509417" r="3"></circle><circle cx="40" cy="234.3859322050496" r="3"></circle><circle cx="40" cy="209.1354889306075" r="3"></circle><circle cx="40" cy="220.05090846464478" r="3"></circle><circle cx="40" cy="218.50307774202744" r="3"></circle><circle cx="40" cy="219.91574852588906" r="3"></circle><circle cx="40" cy="223.71251746311006" r="3"></circle><circle cx="40" cy="260.7489635076815" r="3"></circle><circle cx="40" cy="256.8549707848258" r="3"></circle><circle cx="40" cy="256.7924438026325" r="3"></circle><circle cx="40" cy="264.57958672301936" r="3"></circle><circle cx="40" cy="264.57014489759575" r="3"></circle><circle cx="40" cy="264.7019044283876" r="3"></circle><circle cx="40" cy="260.9149756327764" r="3"></circle><circle cx="40" cy="260.65602075514425" r="3"></circle><circle cx="40" cy="260.60150166010396" r="3"></circle><circle cx="40" cy="264.7510462549136" r="3"></circle><circle cx="40" cy="260.5469340743974" r="3"></circle><circle cx="40" cy="264.6416634347413" r="3"></circle><circle cx="40" cy="260.5787491468216" r="3"></circle><circle cx="40" cy="261.14222627379274" r="3"></circle><circle cx="40" cy="256.9170102626435" r="3"></circle><circle cx="40" cy="260.52278139313006" r="3"></circle><circle cx="40" cy="261.4997133191408" r="3"></circle><circle cx="40" cy="256.7824296141673" r="3"></circle><circle cx="40" cy="260.35401222730246" r="3"></circle><circle cx="40" cy="256.8611048540941" r="3"></circle><circle cx="40" cy="260.69124056505615" r="3"></circle><circle cx="40" cy="253.6398231427643" r="3"></circle><circle cx="40" cy="253.02323834549978" r="3"></circle><circle cx="40" cy="264.6469722967802" r="3"></circle><circle cx="40" cy="260.71876074990683" r="3"></circle><circle cx="40" cy="252.89484805010082" r="3"></circle><circle cx="40" cy="263.60669077906095" r="3"></circle><circle cx="40" cy="256.69990282990045" r="3"></circle><circle cx="40" cy="256.910726391853" r="3"></circle><circle cx="40" cy="256.6924906852172" r="3"></circle><circle cx="40" cy="260.66204918403264" r="3"></circle><circle cx="40" cy="257.3567573935946" r="3"></circle><circle cx="40" cy="271.1846492951921" r="3"></circle><circle cx="40" cy="267.12775217939907" r="3"></circle><circle cx="40" cy="267.03557488666326" r="3"></circle><circle cx="40" cy="267.29229053460483" r="3"></circle><circle cx="40" cy="271.0348425775442" r="3"></circle><circle cx="40" cy="267.13737324710644" r="3"></circle><circle cx="40" cy="271.1402032701401" r="3"></circle><circle cx="40" cy="267.04355766257856" r="3"></circle><circle cx="40" cy="266.8618432206979" r="3"></circle><circle cx="40" cy="266.95705550959195" r="3"></circle><circle cx="40" cy="271.17665439661033" r="3"></circle><circle cx="40" cy="271.21263360499034" r="3"></circle><circle cx="40" cy="262.99575254668895" r="3"></circle><circle cx="40" cy="267.7453405602719" r="3"></circle><circle cx="40" cy="267.3261153719601" r="3"></circle><circle cx="40" cy="271.44296167149776" r="3"></circle><circle cx="40" cy="271.7962984353661" r="3"></circle><circle cx="40" cy="271.2792147532359" r="3"></circle><circle cx="40" cy="266.92561623983045" r="3"></circle><circle cx="40" cy="263.637816591302" r="3"></circle><circle cx="40" cy="250.2152027501643" r="3"></circle><circle cx="40" cy="269.9261303390275" r="3"></circle><circle cx="40" cy="267.0067489174454" r="3"></circle><circle cx="40" cy="271.3465570317592" r="3"></circle><circle cx="40" cy="262.6116354665758" r="3"></circle><circle cx="40" cy="267.3449470685221" r="3"></circle><circle cx="40" cy="276.8903113211026" r="3"></circle><circle cx="40" cy="263.0406860761167" r="3"></circle><circle cx="40" cy="267.4850028327497" r="3"></circle><circle cx="40" cy="267.4530769245172" r="3"></circle><circle cx="40" cy="291.359259354181" r="3"></circle><circle cx="40" cy="266.57704108619726" r="3"></circle><circle cx="40" cy="257.2170575162204" r="3"></circle><circle cx="40" cy="265.61680640153304" r="3"></circle><circle cx="40" cy="252.7266884812191" r="3"></circle><circle cx="40" cy="262.49814392835196" r="3"></circle><circle cx="40" cy="262.49845305634864" r="3"></circle><circle cx="40" cy="266.92985137997596" r="3"></circle><circle cx="40" cy="262.2846966749987" r="3"></circle><circle cx="40" cy="257.86247867355974" r="3"></circle><circle cx="40" cy="257.7078886980578" r="3"></circle><circle cx="40" cy="244.67969706949526" r="3"></circle><circle cx="40" cy="265.3509641174978" r="3"></circle><circle cx="40" cy="257.56327654302146" r="3"></circle><circle cx="40" cy="260.8834038795877" r="3"></circle><circle cx="40" cy="262.8575099870135" r="3"></circle><circle cx="40" cy="258.1124939505248" r="3"></circle><circle cx="40" cy="254.30336249114933" r="3"></circle><circle cx="40" cy="262.41024680280884" r="3"></circle><circle cx="40" cy="266.55546014204543" r="3"></circle><circle cx="40" cy="253.51462370637898" r="3"></circle><circle cx="40" cy="254.02540100419515" r="3"></circle><circle cx="40" cy="266.6045526120004" r="3"></circle><circle cx="40" cy="265.81027463452693" r="3"></circle><circle cx="40" cy="261.7183360852011" r="3"></circle><circle cx="40" cy="265.7427470523867" r="3"></circle><circle cx="40" cy="262.5843516737226" r="3"></circle><circle cx="40" cy="253.7852648345537" r="3"></circle><circle cx="40" cy="353.1356813692798" r="3"></circle><circle cx="40" cy="261.28470743723267" r="3"></circle><circle cx="40" cy="266.7636955146921" r="3"></circle><circle cx="40" cy="266.7546970325019" r="3"></circle><circle cx="40" cy="266.50057130567563" r="3"></circle><circle cx="40" cy="271.42282419056863" r="3"></circle><circle cx="40" cy="292.09253087820673" r="3"></circle><circle cx="40" cy="291.966223083738" r="3"></circle><circle cx="40" cy="292.99815727964113" r="3"></circle><circle cx="40" cy="283.8634362333684" r="3"></circle><circle cx="40" cy="288.288628617633" r="3"></circle><circle cx="40" cy="288.50162560051484" r="3"></circle><circle cx="40" cy="288.76841605025425" r="3"></circle><circle cx="40" cy="288.3822753507342" r="3"></circle><circle cx="40" cy="287.84570881166786" r="3"></circle><circle cx="40" cy="293.11576879267847" r="3"></circle><circle cx="40" cy="279.29913365286615" r="3"></circle><circle cx="40" cy="292.51247649927285" r="3"></circle><circle cx="40" cy="282.5604236273904" r="3"></circle><circle cx="40" cy="292.5552669144377" r="3"></circle><circle cx="40" cy="288.2068430478344" r="3"></circle><circle cx="40" cy="278.22454498884434" r="3"></circle><circle cx="40" cy="287.8380853862249" r="3"></circle><circle cx="40" cy="288.48213408453125" r="3"></circle><circle cx="40" cy="283.72447583865295" r="3"></circle><circle cx="40" cy="287.7515892945717" r="3"></circle><circle cx="40" cy="292.915207933855" r="3"></circle><circle cx="40" cy="286.15921643147476" r="3"></circle><circle cx="40" cy="283.5806369365607" r="3"></circle><circle cx="40" cy="287.4691813867123" r="3"></circle><circle cx="40" cy="293.1110712593949" r="3"></circle><circle cx="40" cy="288.5040215589655" r="3"></circle><circle cx="40" cy="324.0440447801835" r="3"></circle><circle cx="40" cy="282.5786110908163" r="3"></circle><circle cx="40" cy="293.25526171881677" r="3"></circle><circle cx="40" cy="287.70297307223063" r="3"></circle><circle cx="40" cy="291.506722933568" r="3"></circle><circle cx="40" cy="296.7738864631807" r="3"></circle><circle cx="40" cy="293.1768012232686" r="3"></circle><circle cx="40" cy="292.88652830254034" r="3"></circle><circle cx="40" cy="294.4584917906159" r="3"></circle><circle cx="40" cy="289.843319903606" r="3"></circle><circle cx="40" cy="289.5202309245595" r="3"></circle><circle cx="40" cy="275.01885649030146" r="3"></circle><circle cx="40" cy="289.57782831099564" r="3"></circle><circle cx="40" cy="246.42802717169855" r="3"></circle><circle cx="40" cy="294.26330387078303" r="3"></circle><circle cx="40" cy="289.80599334743084" r="3"></circle><circle cx="40" cy="289.9320708112354" r="3"></circle><circle cx="40" cy="289.4860969592075" r="3"></circle><circle cx="40" cy="293.14600791845265" r="3"></circle><circle cx="40" cy="289.5573210887372" r="3"></circle><circle cx="40" cy="289.394583815417" r="3"></circle><circle cx="40" cy="280.17096465770686" r="3"></circle><circle cx="40" cy="289.3056242247423" r="3"></circle><circle cx="40" cy="291.0043847434718" r="3"></circle><circle cx="40" cy="289.85335573968996" r="3"></circle><circle cx="40" cy="284.83439947791874" r="3"></circle><circle cx="40" cy="294.3799447045925" r="3"></circle><circle cx="40" cy="268.9675010417748" r="3"></circle><circle cx="40" cy="289.3046249706576" r="3"></circle><circle cx="40" cy="288.2737766193144" r="3"></circle><circle cx="40" cy="294.5956225285888" r="3"></circle><circle cx="40" cy="294.1885633020526" r="3"></circle><circle cx="40" cy="293.0829440753126" r="3"></circle><circle cx="40" cy="292.9965267809918" r="3"></circle><circle cx="40" cy="289.6418264653639" r="3"></circle><circle cx="40" cy="288.6630804688962" r="3"></circle><circle cx="40" cy="288.457557109935" r="3"></circle><circle cx="40" cy="311.18201681004757" r="3"></circle><circle cx="40" cy="302.764973209109" r="3"></circle><circle cx="40" cy="264.01796263221905" r="3"></circle><circle cx="40" cy="283.37833214556537" r="3"></circle><circle cx="40" cy="283.00596279523234" r="3"></circle><circle cx="40" cy="263.7022909932842" r="3"></circle><circle cx="40" cy="243.73305016221065" r="3"></circle><circle cx="40" cy="223.55502670668662" r="3"></circle><circle cx="40" cy="283.0389295209777" r="3"></circle><circle cx="40" cy="302.71368134108207" r="3"></circle><circle cx="40" cy="283.7844051065882" r="3"></circle><circle cx="40" cy="302.7850613334672" r="3"></circle><circle cx="40" cy="302.7651567809166" r="3"></circle><circle cx="40" cy="302.52113789436396" r="3"></circle><circle cx="40" cy="283.5507692839254" r="3"></circle><circle cx="40" cy="229.3928431159561" r="3"></circle><circle cx="40" cy="303.0752649818152" r="3"></circle><circle cx="40" cy="259.6131294005003" r="3"></circle><circle cx="40" cy="263.586605252417" r="3"></circle><circle cx="40" cy="302.75426023550835" r="3"></circle><circle cx="40" cy="283.72785113537907" r="3"></circle><circle cx="40" cy="302.70908685046413" r="3"></circle><circle cx="40" cy="302.3753507065782" r="3"></circle><circle cx="40" cy="283.30774272421945" r="3"></circle><circle cx="40" cy="283.06790529171775" r="3"></circle><circle cx="40" cy="302.7858519045064" r="3"></circle><circle cx="40" cy="283.8721255875618" r="3"></circle><circle cx="40" cy="284.1503381868943" r="3"></circle><circle cx="40" cy="20" r="3"></circle><circle cx="40" cy="302.6475807699742" r="3"></circle><circle cx="40" cy="302.9483363336388" r="3"></circle><circle cx="40" cy="271.47414549935723" r="3"></circle><circle cx="40" cy="287.7551247836771" r="3"></circle><circle cx="40" cy="292.0484710466745" r="3"></circle><circle cx="40" cy="311.90109615517645" r="3"></circle><circle cx="40" cy="311.6962698495412" r="3"></circle><circle cx="40" cy="312.0964477310076" r="3"></circle><circle cx="40" cy="271.5271007704141" r="3"></circle><circle cx="40" cy="291.9578601756363" r="3"></circle><circle cx="40" cy="271.7150635809903" r="3"></circle><circle cx="40" cy="271.40573556027385" r="3"></circle><circle cx="40" cy="271.4570845780145" r="3"></circle><circle cx="40" cy="291.73801821568424" r="3"></circle><circle cx="40" cy="311.96389849508125" r="3"></circle><circle cx="40" cy="311.8913642516607" r="3"></circle><circle cx="40" cy="292.33710654151537" r="3"></circle><circle cx="40" cy="233.05796076047938" r="3"></circle><circle cx="40" cy="291.5319034437769" r="3"></circle><circle cx="40" cy="312.64030085856785" r="3"></circle><circle cx="40" cy="312.47845113761923" r="3"></circle><circle cx="40" cy="311.81224393669106" r="3"></circle><circle cx="40" cy="311.7146322257272" r="3"></circle><circle cx="40" cy="312.4022697033803" r="3"></circle><circle cx="40" cy="291.6689363345128" r="3"></circle><circle cx="40" cy="291.3274615998518" r="3"></circle><circle cx="40" cy="251.98455961747774" r="3"></circle><circle cx="40" cy="312.0523099680475" r="3"></circle><circle cx="40" cy="291.84126003935023" r="3"></circle><circle cx="40" cy="272.72548004378854" r="3"></circle><circle cx="40" cy="280.349722034857" r="3"></circle><circle cx="40" cy="311.96741926380577" r="3"></circle><circle cx="40" cy="312.0675247804574" r="3"></circle><circle cx="40" cy="241.98839409387304" r="3"></circle><circle cx="40" cy="296.1847647010534" r="3"></circle><circle cx="40" cy="271.67145055631045" r="3"></circle><circle cx="40" cy="313.86057280180506" r="3"></circle><circle cx="40" cy="234.46510447430438" r="3"></circle><circle cx="40" cy="273.35182272171136" r="3"></circle><circle cx="40" cy="293.66985431670156" r="3"></circle><circle cx="40" cy="293.33500461930356" r="3"></circle><circle cx="40" cy="313.8921627389936" r="3"></circle><circle cx="40" cy="313.9458185269954" r="3"></circle><circle cx="40" cy="273.34685242843074" r="3"></circle><circle cx="40" cy="314.0289228697323" r="3"></circle><circle cx="40" cy="293.35896506971596" r="3"></circle><circle cx="40" cy="314.073499646402" r="3"></circle><circle cx="40" cy="279.23889092741047" r="3"></circle><circle cx="40" cy="293.6279038291468" r="3"></circle><circle cx="40" cy="314.4591779527842" r="3"></circle><circle cx="40" cy="314.2856913378639" r="3"></circle><circle cx="40" cy="314.3973843919164" r="3"></circle><circle cx="40" cy="294.413933197946" r="3"></circle><circle cx="40" cy="313.97511381658927" r="3"></circle><circle cx="40" cy="313.8354650275955" r="3"></circle><circle cx="40" cy="293.91192058803676" r="3"></circle><circle cx="40" cy="314.2103273177115" r="3"></circle><circle cx="40" cy="313.62571778525046" r="3"></circle><circle cx="40" cy="313.9647766456514" r="3"></circle><circle cx="40" cy="313.8127237710749" r="3"></circle><circle cx="40" cy="293.7165612190629" r="3"></circle><circle cx="40" cy="294.39311684769075" r="3"></circle><circle cx="40" cy="295.33671057481735" r="3"></circle><circle cx="40" cy="293.4391790223883" r="3"></circle><circle cx="40" cy="313.91210885497236" r="3"></circle><circle cx="40" cy="314.0551961517392" r="3"></circle><circle cx="40" cy="334.96481300787826" r="3"></circle><circle cx="40" cy="293.86186263428243" r="3"></circle><circle cx="40" cy="236.01686294088003" r="3"></circle><circle cx="40" cy="298.67090539999623" r="3"></circle><circle cx="40" cy="275.78488778883667" r="3"></circle><circle cx="40" cy="296.5207599904391" r="3"></circle><circle cx="40" cy="296.5166642609588" r="3"></circle><circle cx="40" cy="238.12407246327385" r="3"></circle><circle cx="40" cy="317.5621969907027" r="3"></circle><circle cx="40" cy="317.39949868309645" r="3"></circle><circle cx="40" cy="296.2830604767718" r="3"></circle><circle cx="40" cy="317.7461497963691" r="3"></circle><circle cx="40" cy="317.57156001879383" r="3"></circle><circle cx="40" cy="296.7755282185919" r="3"></circle><circle cx="40" cy="277.90988386075594" r="3"></circle><circle cx="40" cy="275.7099142917277" r="3"></circle><circle cx="40" cy="276.22621433005673" r="3"></circle><circle cx="40" cy="217.5546115688573" r="3"></circle><circle cx="40" cy="296.6264272133174" r="3"></circle><circle cx="40" cy="275.73550177717044" r="3"></circle><circle cx="40" cy="317.3638822888079" r="3"></circle><circle cx="40" cy="317.27148419036007" r="3"></circle><circle cx="40" cy="317.3431109655998" r="3"></circle><circle cx="40" cy="315.9402465530627" r="3"></circle><circle cx="40" cy="296.64046526116846" r="3"></circle><circle cx="40" cy="278.2604583884632" r="3"></circle><circle cx="40" cy="233.8802750020362" r="3"></circle><circle cx="40" cy="296.40196651741445" r="3"></circle><circle cx="40" cy="316.90604294395354" r="3"></circle><circle cx="40" cy="319.5526712956691" r="3"></circle><circle cx="40" cy="295.9510691309626" r="3"></circle><circle cx="40" cy="217.13699090205228" r="3"></circle><circle cx="40" cy="316.2277009538209" r="3"></circle><circle cx="40" cy="323.62575303719507" r="3"></circle><circle cx="40" cy="298.9529158575741" r="3"></circle><circle cx="40" cy="277.58872931292694" r="3"></circle><circle cx="40" cy="321.3491820701228" r="3"></circle><circle cx="40" cy="300.0417815591586" r="3"></circle><circle cx="40" cy="300.2069156568343" r="3"></circle><circle cx="40" cy="321.322919178973" r="3"></circle><circle cx="40" cy="321.2031532949111" r="3"></circle><circle cx="40" cy="237.8661861121066" r="3"></circle><circle cx="40" cy="215.60430745127414" r="3"></circle><circle cx="40" cy="217.4146086248197" r="3"></circle><circle cx="40" cy="299.9836412504424" r="3"></circle><circle cx="40" cy="298.57451201701946" r="3"></circle><circle cx="40" cy="298.74316861522914" r="3"></circle><circle cx="40" cy="277.9572375939676" r="3"></circle><circle cx="40" cy="299.34792601947635" r="3"></circle><circle cx="40" cy="277.549993929719" r="3"></circle><circle cx="40" cy="320.649501589169" r="3"></circle><circle cx="40" cy="321.2783458659224" r="3"></circle><circle cx="40" cy="299.9655784773008" r="3"></circle><circle cx="40" cy="320.8991947495661" r="3"></circle><circle cx="40" cy="321.3617792524653" r="3"></circle><circle cx="40" cy="319.46843867903937" r="3"></circle><circle cx="40" cy="321.30947514178246" r="3"></circle><circle cx="40" cy="298.38159536535295" r="3"></circle><circle cx="40" cy="299.9049582173729" r="3"></circle><circle cx="40" cy="299.17019387355333" r="3"></circle><circle cx="40" cy="298.91875851279383" r="3"></circle><circle cx="40" cy="277.44544026035265" r="3"></circle><circle cx="40" cy="299.76347197849384" r="3"></circle><circle cx="40" cy="276.38236033639924" r="3"></circle><circle cx="40" cy="321.29332168862055" r="3"></circle><circle cx="40" cy="247.07924209773833" r="3"></circle><circle cx="40" cy="304.834833661804" r="3"></circle><circle cx="40" cy="282.46408912593677" r="3"></circle><circle cx="40" cy="326.72113999062316" r="3"></circle><circle cx="40" cy="304.63851660217364" r="3"></circle><circle cx="40" cy="326.78196373816803" r="3"></circle><circle cx="40" cy="326.64380776896786" r="3"></circle><circle cx="40" cy="311.42206205968995" r="3"></circle><circle cx="40" cy="303.6169940450171" r="3"></circle><circle cx="40" cy="326.67691044175933" r="3"></circle><circle cx="40" cy="303.84379874508585" r="3"></circle><circle cx="40" cy="304.5455591292557" r="3"></circle><circle cx="40" cy="326.83500213608113" r="3"></circle><circle cx="40" cy="172.55116899133196" r="3"></circle><circle cx="40" cy="328.56541666895095" r="3"></circle><circle cx="40" cy="304.31067640374897" r="3"></circle><circle cx="40" cy="328.3623689316777" r="3"></circle><circle cx="40" cy="305.5581923082208" r="3"></circle><circle cx="40" cy="326.8675281163073" r="3"></circle><circle cx="40" cy="303.7609948712981" r="3"></circle><circle cx="40" cy="283.2438034513744" r="3"></circle><circle cx="40" cy="326.79863413646723" r="3"></circle><circle cx="40" cy="236.06544885655484" r="3"></circle><circle cx="40" cy="326.69486670861636" r="3"></circle><circle cx="40" cy="327.1843557380871" r="3"></circle><circle cx="40" cy="304.5989005938323" r="3"></circle><circle cx="40" cy="328.1016450106357" r="3"></circle><circle cx="40" cy="328.4990952921311" r="3"></circle><circle cx="40" cy="327.1829269952451" r="3"></circle><circle cx="40" cy="326.8709267924618" r="3"></circle><circle cx="40" cy="311.6063802771619" r="3"></circle><circle cx="40" cy="304.5448949803103" r="3"></circle><circle cx="40" cy="342.69986829377046" r="3"></circle><circle cx="40" cy="274.7062865221908" r="3"></circle><circle cx="40" cy="297.3789815702815" r="3"></circle><circle cx="40" cy="304.9369428820535" r="3"></circle><circle cx="40" cy="281.5566174814744" r="3"></circle><circle cx="40" cy="328.54290314538036" r="3"></circle><circle cx="40" cy="328.56850275348955" r="3"></circle><circle cx="40" cy="328.59072619896796" r="3"></circle><circle cx="40" cy="304.99697692446387" r="3"></circle><circle cx="40" cy="328.4931421969562" r="3"></circle><circle cx="40" cy="305.07589548362614" r="3"></circle><circle cx="40" cy="328.4466725524971" r="3"></circle><circle cx="40" cy="281.41835933551346" r="3"></circle><circle cx="40" cy="321.1323274815676" r="3"></circle><circle cx="40" cy="274.25063358683707" r="3"></circle><circle cx="40" cy="304.9413711189589" r="3"></circle><circle cx="40" cy="320.8131515260985" r="3"></circle><circle cx="40" cy="296.37545078207677" r="3"></circle><circle cx="40" cy="328.4150306610234" r="3"></circle><circle cx="40" cy="328.44246685311316" r="3"></circle><circle cx="40" cy="320.89884838766505" r="3"></circle><circle cx="40" cy="304.8030211870941" r="3"></circle><circle cx="40" cy="319.6571548267504" r="3"></circle><circle cx="40" cy="328.5163319921386" r="3"></circle><circle cx="40" cy="320.97182510841424" r="3"></circle><circle cx="40" cy="328.61008003609584" r="3"></circle><circle cx="40" cy="320.98868600575906" r="3"></circle><circle cx="40" cy="296.62530759847215" r="3"></circle><circle cx="40" cy="274.0456592114891" r="3"></circle><circle cx="40" cy="305.39449821014887" r="3"></circle><circle cx="40" cy="295.57190935555883" r="3"></circle><circle cx="40" cy="319.9998409621604" r="3"></circle><circle cx="40" cy="300.39042165564825" r="3"></circle><circle cx="40" cy="260.73431326517033" r="3"></circle><circle cx="40" cy="309.637527613871" r="3"></circle><circle cx="40" cy="309.1775642046582" r="3"></circle><circle cx="40" cy="309.3028935267564" r="3"></circle><circle cx="40" cy="333.72541928998686" r="3"></circle><circle cx="40" cy="333.8304734523003" r="3"></circle><circle cx="40" cy="333.9002203483218" r="3"></circle><circle cx="40" cy="333.88164236185236" r="3"></circle><circle cx="40" cy="333.7785953667557" r="3"></circle><circle cx="40" cy="333.68801826600287" r="3"></circle><circle cx="40" cy="285.28202807392904" r="3"></circle><circle cx="40" cy="333.7727669618653" r="3"></circle><circle cx="40" cy="309.3717736521205" r="3"></circle><circle cx="40" cy="333.9983637248039" r="3"></circle><circle cx="40" cy="309.3094059964016" r="3"></circle><circle cx="40" cy="333.9186069698409" r="3"></circle><circle cx="40" cy="334.352271985809" r="3"></circle><circle cx="40" cy="309.49786323859155" r="3"></circle><circle cx="40" cy="333.64737356281535" r="3"></circle><circle cx="40" cy="333.82101517468635" r="3"></circle><circle cx="40" cy="333.71746508892846" r="3"></circle><circle cx="40" cy="333.8077590388271" r="3"></circle><circle cx="40" cy="333.7526736420785" r="3"></circle><circle cx="40" cy="309.3864264923459" r="3"></circle><circle cx="40" cy="309.5705377585821" r="3"></circle><circle cx="40" cy="305.5539060796949" r="3"></circle><circle cx="40" cy="466.5566899192175" r="3"></circle><circle cx="40" cy="333.82593437958656" r="3"></circle><circle cx="40" cy="333.8530623095843" r="3"></circle><circle cx="40" cy="333.8330053577972" r="3"></circle><circle cx="40" cy="309.7157724991356" r="3"></circle><circle cx="40" cy="242.44107178049646" r="3"></circle><circle cx="40" cy="306.7972041621163" r="3"></circle><circle cx="40" cy="307.10968667384685" r="3"></circle><circle cx="40" cy="306.76816085080554" r="3"></circle><circle cx="40" cy="306.81161974443944" r="3"></circle><circle cx="40" cy="331.41261453853735" r="3"></circle><circle cx="40" cy="237.35505379334177" r="3"></circle><circle cx="40" cy="331.39664552308784" r="3"></circle><circle cx="40" cy="331.3251945265129" r="3"></circle><circle cx="40" cy="331.44451100600827" r="3"></circle><circle cx="40" cy="331.55370419303966" r="3"></circle><circle cx="40" cy="289.6276619954191" r="3"></circle><circle cx="40" cy="331.3925021688461" r="3"></circle><circle cx="40" cy="307.0131668687762" r="3"></circle><circle cx="40" cy="337.4775343850152" r="3"></circle><circle cx="40" cy="331.4175796363894" r="3"></circle><circle cx="40" cy="337.3323472692231" r="3"></circle><circle cx="40" cy="332.0798365798357" r="3"></circle><circle cx="40" cy="331.42188231710566" r="3"></circle><circle cx="40" cy="306.8405184496565" r="3"></circle><circle cx="40" cy="337.2341224976943" r="3"></circle><circle cx="40" cy="331.2631022285054" r="3"></circle><circle cx="40" cy="331.2935006807541" r="3"></circle><circle cx="40" cy="331.35428632848976" r="3"></circle><circle cx="40" cy="306.81944665749927" r="3"></circle><circle cx="40" cy="236.42067415868883" r="3"></circle><circle cx="40" cy="243.53294736700138" r="3"></circle><circle cx="40" cy="282.2246396187642" r="3"></circle><circle cx="40" cy="331.5217557712836" r="3"></circle><circle cx="40" cy="331.37563521016796" r="3"></circle><circle cx="40" cy="331.7097350340501" r="3"></circle><circle cx="40" cy="331.5904289454117" r="3"></circle><circle cx="40" cy="338.25878655729366" r="3"></circle><circle cx="40" cy="298.882985389745" r="3"></circle><circle cx="40" cy="177.19043814170507" r="3"></circle><circle cx="40" cy="323.41142169508925" r="3"></circle><circle cx="40" cy="323.2576448041501" r="3"></circle><circle cx="40" cy="323.39868769979586" r="3"></circle><circle cx="40" cy="273.7711951138311" r="3"></circle><circle cx="40" cy="248.92727333907385" r="3"></circle><circle cx="40" cy="323.3995059797872" r="3"></circle><circle cx="40" cy="323.2548444681799" r="3"></circle><circle cx="40" cy="323.32244651812897" r="3"></circle><circle cx="40" cy="323.358835299457" r="3"></circle><circle cx="40" cy="298.6650233090111" r="3"></circle><circle cx="40" cy="323.37262569854875" r="3"></circle><circle cx="40" cy="323.35344417646655" r="3"></circle><circle cx="40" cy="323.3567865688121" r="3"></circle><circle cx="40" cy="323.40320339308124" r="3"></circle><circle cx="40" cy="224.935490163271" r="3"></circle><circle cx="40" cy="298.58660437689105" r="3"></circle><circle cx="40" cy="323.33551302084743" r="3"></circle><circle cx="40" cy="323.53186991209645" r="3"></circle><circle cx="40" cy="298.50588213812887" r="3"></circle><circle cx="40" cy="298.3785231352904" r="3"></circle><circle cx="40" cy="226.33580362040664" r="3"></circle><circle cx="40" cy="323.42866012690627" r="3"></circle><circle cx="40" cy="323.34311739638576" r="3"></circle><circle cx="40" cy="323.4073380882754" r="3"></circle><circle cx="40" cy="323.95094356707654" r="3"></circle><circle cx="40" cy="323.40819966350443" r="3"></circle><circle cx="40" cy="274.4009728359079" r="3"></circle><circle cx="40" cy="273.7341248654627" r="3"></circle><circle cx="40" cy="323.25241040992" r="3"></circle><circle cx="40" cy="330.73037164749366" r="3"></circle><circle cx="40" cy="336.896455146231" r="3"></circle><circle cx="40" cy="311.82722928434146" r="3"></circle><circle cx="40" cy="336.89052110096065" r="3"></circle><circle cx="40" cy="238.13957562196646" r="3"></circle><circle cx="40" cy="337.0188057559798" r="3"></circle><circle cx="40" cy="312.4045756077368" r="3"></circle><circle cx="40" cy="337.0129253968041" r="3"></circle><circle cx="40" cy="337.05664319595917" r="3"></circle><circle cx="40" cy="337.0726892769317" r="3"></circle><circle cx="40" cy="336.85981178890563" r="3"></circle><circle cx="40" cy="336.93436618811427" r="3"></circle><circle cx="40" cy="338.20372713768757" r="3"></circle><circle cx="40" cy="336.9603156217436" r="3"></circle><circle cx="40" cy="337.13100969383635" r="3"></circle><circle cx="40" cy="338.0618347894795" r="3"></circle><circle cx="40" cy="337.19035793968266" r="3"></circle><circle cx="40" cy="337.02062415596055" r="3"></circle><circle cx="40" cy="336.76598841123496" r="3"></circle><circle cx="40" cy="338.3550206137959" r="3"></circle><circle cx="40" cy="338.16665862112865" r="3"></circle><circle cx="40" cy="287.10427526944295" r="3"></circle><circle cx="40" cy="336.997084535258" r="3"></circle><circle cx="40" cy="337.61879462275385" r="3"></circle><circle cx="40" cy="337.5830033157052" r="3"></circle><circle cx="40" cy="347.0056143128267" r="3"></circle><circle cx="40" cy="335.9637605622268" r="3"></circle><circle cx="40" cy="335.8081176465456" r="3"></circle><circle cx="40" cy="335.7750037169924" r="3"></circle><circle cx="40" cy="336.00578032216174" r="3"></circle><circle cx="40" cy="335.8367920824317" r="3"></circle><circle cx="40" cy="336.0782323046308" r="3"></circle><circle cx="40" cy="336.0753271941854" r="3"></circle><circle cx="40" cy="336.0011096319256" r="3"></circle><circle cx="40" cy="342.5026671453876" r="3"></circle><circle cx="40" cy="335.99872146661755" r="3"></circle><circle cx="40" cy="336.4955949318195" r="3"></circle><circle cx="40" cy="335.7992351955923" r="3"></circle><circle cx="40" cy="241.1015578255725" r="3"></circle><circle cx="40" cy="335.90910984966405" r="3"></circle><circle cx="40" cy="335.95655017335093" r="3"></circle><circle cx="40" cy="335.9299365907763" r="3"></circle><circle cx="40" cy="336.2039798587245" r="3"></circle><circle cx="40" cy="332.8821562147476" r="3"></circle><circle cx="40" cy="332.7129489011152" r="3"></circle><circle cx="40" cy="339.25207282636893" r="3"></circle><circle cx="40" cy="339.28231281804796" r="3"></circle><circle cx="40" cy="339.13165837964704" r="3"></circle><circle cx="40" cy="339.360776777215" r="3"></circle><circle cx="40" cy="332.7988925455362" r="3"></circle><circle cx="40" cy="333.1996843534723" r="3"></circle><circle cx="40" cy="339.20667690380316" r="3"></circle><circle cx="40" cy="346.65158828877526" r="3"></circle><circle cx="40" cy="335.89570391228256" r="3"></circle><circle cx="40" cy="332.87379330664595" r="3"></circle><circle cx="40" cy="333.27841674311276" r="3"></circle><circle cx="40" cy="375.8855891441698" r="3"></circle><circle cx="40" cy="332.6518125619546" r="3"></circle><circle cx="40" cy="339.29483293486743" r="3"></circle><circle cx="40" cy="333.2257013276723" r="3"></circle><circle cx="40" cy="332.4427000277935" r="3"></circle><circle cx="40" cy="337.7722286154108" r="3"></circle><circle cx="40" cy="339.63708958152006" r="3"></circle><circle cx="40" cy="345.8270711855275" r="3"></circle><circle cx="40" cy="346.0741700952855" r="3"></circle><circle cx="40" cy="345.8251653291668" r="3"></circle><circle cx="40" cy="303.6202688967919" r="3"></circle><circle cx="40" cy="345.8330485260355" r="3"></circle><circle cx="40" cy="345.7895446053544" r="3"></circle><circle cx="40" cy="345.917873421516" r="3"></circle><circle cx="40" cy="346.06545303213994" r="3"></circle><circle cx="40" cy="339.71039015064673" r="3"></circle><circle cx="40" cy="339.7489973799512" r="3"></circle><circle cx="40" cy="345.3088427773142" r="3"></circle><circle cx="40" cy="346.0115625839501" r="3"></circle><circle cx="40" cy="339.91793106768176" r="3"></circle><circle cx="40" cy="345.8967592000259" r="3"></circle><circle cx="40" cy="341.3814910738603" r="3"></circle><circle cx="40" cy="345.89100959246787" r="3"></circle><circle cx="40" cy="345.96655631852303" r="3"></circle><circle cx="40" cy="340.0319949689471" r="3"></circle><circle cx="40" cy="364.53939065470524" r="3"></circle><circle cx="40" cy="340.1864741086407" r="3"></circle><circle cx="40" cy="348.891383415095" r="3"></circle><circle cx="40" cy="340.32400835822835" r="3"></circle><circle cx="40" cy="340.29805113145625" r="3"></circle><circle cx="40" cy="340.33553961182025" r="3"></circle><circle cx="40" cy="340.1941373657022" r="3"></circle><circle cx="40" cy="340.3750447843533" r="3"></circle><circle cx="40" cy="340.4928996166261" r="3"></circle><circle cx="40" cy="340.36396639894707" r="3"></circle><circle cx="40" cy="340.4521769820107" r="3"></circle><circle cx="40" cy="342.6118378188954" r="3"></circle><circle cx="40" cy="342.4889200415335" r="3"></circle><circle cx="40" cy="345.164738042463" r="3"></circle><circle cx="40" cy="340.2710435622192" r="3"></circle><circle cx="40" cy="342.44408868886654" r="3"></circle><circle cx="40" cy="340.3015260072289" r="3"></circle><circle cx="40" cy="340.3705992293528" r="3"></circle><circle cx="40" cy="340.54758929490265" r="3"></circle><circle cx="40" cy="340.3511709244162" r="3"></circle><circle cx="40" cy="342.5654513012925" r="3"></circle><circle cx="40" cy="359.39103791621227" r="3"></circle><circle cx="40" cy="347.5029423780238" r="3"></circle><circle cx="40" cy="341.82211276861165" r="3"></circle><circle cx="40" cy="341.80082190255195" r="3"></circle><circle cx="40" cy="341.8299777814805" r="3"></circle><circle cx="40" cy="341.87574084766146" r="3"></circle><circle cx="40" cy="341.88122115884136" r="3"></circle><circle cx="40" cy="342.05752109830325" r="3"></circle><circle cx="40" cy="341.72328186375603" r="3"></circle><circle cx="40" cy="341.86144822381317" r="3"></circle><circle cx="40" cy="341.997511301226" r="3"></circle><circle cx="40" cy="341.87208326598596" r="3"></circle><circle cx="40" cy="341.91634138970664" r="3"></circle><circle cx="40" cy="348.5019254344672" r="3"></circle><circle cx="40" cy="341.6251220350836" r="3"></circle><circle cx="40" cy="341.85897260212516" r="3"></circle><circle cx="40" cy="341.86631287671395" r="3"></circle><circle cx="40" cy="341.6522473673672" r="3"></circle><circle cx="40" cy="341.7562996778817" r="3"></circle><circle cx="40" cy="341.849742923366" r="3"></circle><circle cx="40" cy="341.90985403129935" r="3"></circle><circle cx="40" cy="371.09447839997995" r="3"></circle><circle cx="40" cy="341.8840526673828" r="3"></circle><circle cx="40" cy="370.3114900886723" r="3"></circle><circle cx="40" cy="346.47702881786626" r="3"></circle><circle cx="40" cy="344.5467556749276" r="3"></circle><circle cx="40" cy="344.4380326741769" r="3"></circle><circle cx="40" cy="344.09405893839966" r="3"></circle><circle cx="40" cy="344.31198118751496" r="3"></circle><circle cx="40" cy="344.3903784720162" r="3"></circle><circle cx="40" cy="344.2724924671723" r="3"></circle><circle cx="40" cy="235.97699668606515" r="3"></circle><circle cx="40" cy="344.56227441990575" r="3"></circle><circle cx="40" cy="344.20874802289654" r="3"></circle><circle cx="40" cy="344.3888934453652" r="3"></circle><circle cx="40" cy="358.31749353332225" r="3"></circle><circle cx="40" cy="344.1373957394635" r="3"></circle><circle cx="40" cy="344.3543040141134" r="3"></circle><circle cx="40" cy="344.56349534560707" r="3"></circle><circle cx="40" cy="344.1185328703303" r="3"></circle><circle cx="40" cy="344.7001429087279" r="3"></circle><circle cx="40" cy="344.27144732013574" r="3"></circle><circle cx="40" cy="344.4143008226193" r="3"></circle><circle cx="40" cy="344.4294645466489" r="3"></circle><circle cx="40" cy="344.4752328082583" r="3"></circle><circle cx="40" cy="344.0679276647723" r="3"></circle><circle cx="40" cy="359.5908670855197" r="3"></circle><circle cx="40" cy="352.3486873825861" r="3"></circle><circle cx="40" cy="353.79814439805716" r="3"></circle><circle cx="40" cy="353.4004629199929" r="3"></circle><circle cx="40" cy="353.9976090214637" r="3"></circle><circle cx="40" cy="353.9573522436053" r="3"></circle><circle cx="40" cy="354.2072523552383" r="3"></circle><circle cx="40" cy="354.1266201705704" r="3"></circle><circle cx="40" cy="354.0328634675657" r="3"></circle><circle cx="40" cy="353.4109879922621" r="3"></circle><circle cx="40" cy="354.0254885567868" r="3"></circle><circle cx="40" cy="354.07990807278054" r="3"></circle><circle cx="40" cy="363.97738729762335" r="3"></circle><circle cx="40" cy="354.15171755392305" r="3"></circle><circle cx="40" cy="353.99867754792854" r="3"></circle><circle cx="40" cy="353.9564577639958" r="3"></circle><circle cx="40" cy="354.03826584731786" r="3"></circle><circle cx="40" cy="349.0722103046041" r="3"></circle><circle cx="40" cy="354.1155608350688" r="3"></circle><circle cx="40" cy="353.6913610239526" r="3"></circle><circle cx="40" cy="354.05477605323784" r="3"></circle><circle cx="40" cy="353.58309262319716" r="3"></circle><circle cx="40" cy="353.15953877702657" r="3"></circle><circle cx="40" cy="353.34566154000316" r="3"></circle><circle cx="40" cy="354.28987005950415" r="3"></circle><circle cx="40" cy="348.6841576873899" r="3"></circle><circle cx="40" cy="348.01721879694566" r="3"></circle><circle cx="40" cy="355.6499016275436" r="3"></circle><circle cx="40" cy="339.95747520592863" r="3"></circle><circle cx="40" cy="338.6507348799902" r="3"></circle><circle cx="40" cy="338.64892513905704" r="3"></circle><circle cx="40" cy="338.8561283532385" r="3"></circle><circle cx="40" cy="338.58169283043736" r="3"></circle><circle cx="40" cy="338.6127441748697" r="3"></circle><circle cx="40" cy="338.49990206521034" r="3"></circle><circle cx="40" cy="339.93950508459557" r="3"></circle><circle cx="40" cy="342.09800734092113" r="3"></circle><circle cx="40" cy="338.78733655015924" r="3"></circle><circle cx="40" cy="342.05552085832454" r="3"></circle><circle cx="40" cy="338.7407534721775" r="3"></circle><circle cx="40" cy="338.5741092366132" r="3"></circle><circle cx="40" cy="341.81450059993057" r="3"></circle><circle cx="40" cy="338.616118605691" r="3"></circle><circle cx="40" cy="339.7222573752826" r="3"></circle><circle cx="40" cy="341.18717338830396" r="3"></circle><circle cx="40" cy="338.5797419470295" r="3"></circle><circle cx="40" cy="350.96980939760385" r="3"></circle><circle cx="40" cy="235.63870934679892" r="3"></circle><circle cx="40" cy="350.876665755164" r="3"></circle><circle cx="40" cy="350.75306651076176" r="3"></circle><circle cx="40" cy="350.8589181713524" r="3"></circle><circle cx="40" cy="350.81752272874417" r="3"></circle><circle cx="40" cy="350.8037254024145" r="3"></circle><circle cx="40" cy="350.939295780023" r="3"></circle><circle cx="40" cy="351.4553308514977" r="3"></circle><circle cx="40" cy="350.8673079225015" r="3"></circle><circle cx="40" cy="351.31490707775015" r="3"></circle><circle cx="40" cy="350.81185538213765" r="3"></circle><circle cx="40" cy="350.8045540732628" r="3"></circle><circle cx="40" cy="351.14427102127576" r="3"></circle><circle cx="40" cy="350.7816578197916" r="3"></circle><circle cx="40" cy="351.51591820704505" r="3"></circle><circle cx="40" cy="350.8235052646807" r="3"></circle><circle cx="40" cy="350.8044319806927" r="3"></circle><circle cx="40" cy="351.15131082691533" r="3"></circle><circle cx="40" cy="351.45826886632364" r="3"></circle><circle cx="40" cy="350.8779152557222" r="3"></circle><circle cx="40" cy="351.05114296512147" r="3"></circle><circle cx="40" cy="350.71908927416996" r="3"></circle><circle cx="40" cy="357.88368391126056" r="3"></circle><circle cx="40" cy="364.7863813263691" r="3"></circle><circle cx="40" cy="352.1283579182582" r="3"></circle><circle cx="40" cy="352.25146965828475" r="3"></circle><circle cx="40" cy="352.22281773592215" r="3"></circle><circle cx="40" cy="352.1974068950491" r="3"></circle><circle cx="40" cy="352.2468898880476" r="3"></circle><circle cx="40" cy="352.2280495324381" r="3"></circle><circle cx="40" cy="352.2780217616219" r="3"></circle><circle cx="40" cy="352.3668809073453" r="3"></circle><circle cx="40" cy="364.62162995859416" r="3"></circle><circle cx="40" cy="353.6549497291011" r="3"></circle><circle cx="40" cy="352.17921163848035" r="3"></circle><circle cx="40" cy="353.64573477072264" r="3"></circle><circle cx="40" cy="351.8268680673633" r="3"></circle><circle cx="40" cy="352.1618173438078" r="3"></circle><circle cx="40" cy="352.1653736146272" r="3"></circle><circle cx="40" cy="353.5844953888965" r="3"></circle><circle cx="40" cy="352.1907913827383" r="3"></circle><circle cx="40" cy="239.56832452527644" r="3"></circle><circle cx="40" cy="364.6071745446524" r="3"></circle><circle cx="40" cy="353.54366451618705" r="3"></circle><circle cx="40" cy="411.97819814237914" r="3"></circle><circle cx="40" cy="352.2167356209391" r="3"></circle><circle cx="40" cy="351.08623808474897" r="3"></circle><circle cx="40" cy="347.821347678263" r="3"></circle><circle cx="40" cy="347.8024380502732" r="3"></circle><circle cx="40" cy="347.86720426215714" r="3"></circle><circle cx="40" cy="347.7439539773702" r="3"></circle><circle cx="40" cy="347.7817463903024" r="3"></circle><circle cx="40" cy="347.7600892465323" r="3"></circle><circle cx="40" cy="347.75701528466016" r="3"></circle><circle cx="40" cy="347.7932378122756" r="3"></circle><circle cx="40" cy="347.7626090293627" r="3"></circle><circle cx="40" cy="348.8736263063312" r="3"></circle><circle cx="40" cy="347.8116140429377" r="3"></circle><circle cx="40" cy="349.22716396010213" r="3"></circle><circle cx="40" cy="347.785207411599" r="3"></circle><circle cx="40" cy="347.9298247620639" r="3"></circle><circle cx="40" cy="349.3211492619615" r="3"></circle><circle cx="40" cy="347.85416287067653" r="3"></circle><circle cx="40" cy="348.155276053004" r="3"></circle><circle cx="40" cy="347.84500333020236" r="3"></circle><circle cx="40" cy="347.88670443718826" r="3"></circle><circle cx="40" cy="347.8069511458443" r="3"></circle><circle cx="40" cy="374.46506027467734" r="3"></circle><circle cx="40" cy="347.9578610261472" r="3"></circle><circle cx="40" cy="347.5749311014501" r="3"></circle><circle cx="40" cy="350.2808427561553" r="3"></circle><circle cx="40" cy="359.9652375417362" r="3"></circle><circle cx="40" cy="359.920592358591" r="3"></circle><circle cx="40" cy="359.29509047418316" r="3"></circle><circle cx="40" cy="359.519145926662" r="3"></circle><circle cx="40" cy="359.2944540341899" r="3"></circle><circle cx="40" cy="359.3811726633647" r="3"></circle><circle cx="40" cy="359.3704293830977" r="3"></circle><circle cx="40" cy="359.334533301574" r="3"></circle><circle cx="40" cy="359.41757356735917" r="3"></circle><circle cx="40" cy="359.46626685522324" r="3"></circle><circle cx="40" cy="359.53713163428057" r="3"></circle><circle cx="40" cy="359.7992444665459" r="3"></circle><circle cx="40" cy="361.0384433558679" r="3"></circle><circle cx="40" cy="348.8858511496299" r="3"></circle><circle cx="40" cy="358.97653883604085" r="3"></circle><circle cx="40" cy="359.32998210619377" r="3"></circle><circle cx="40" cy="361.03610368122605" r="3"></circle><circle cx="40" cy="359.3177460061332" r="3"></circle><circle cx="40" cy="359.71970332186635" r="3"></circle><circle cx="40" cy="359.44989086453995" r="3"></circle><circle cx="40" cy="359.97083648186725" r="3"></circle><circle cx="40" cy="359.3974828452868" r="3"></circle><circle cx="40" cy="391.26189711999757" r="3"></circle><circle cx="40" cy="360.1628759720192" r="3"></circle><circle cx="40" cy="358.9154925509745" r="3"></circle><circle cx="40" cy="366.29604643110594" r="3"></circle><circle cx="40" cy="362.78518452285" r="3"></circle><circle cx="40" cy="362.6531297185375" r="3"></circle><circle cx="40" cy="359.979538824632" r="3"></circle><circle cx="40" cy="360.04056173027" r="3"></circle><circle cx="40" cy="359.9639941025113" r="3"></circle><circle cx="40" cy="359.96983376416364" r="3"></circle><circle cx="40" cy="360.0709913550898" r="3"></circle><circle cx="40" cy="360.07981579042473" r="3"></circle><circle cx="40" cy="362.53089514002545" r="3"></circle><circle cx="40" cy="360.01619257281436" r="3"></circle><circle cx="40" cy="360.96895709717694" r="3"></circle><circle cx="40" cy="359.3140659109341" r="3"></circle><circle cx="40" cy="360.1790969657518" r="3"></circle><circle cx="40" cy="360.05555054153945" r="3"></circle><circle cx="40" cy="361.00125361264367" r="3"></circle><circle cx="40" cy="360.0159795602452" r="3"></circle><circle cx="40" cy="361.05820503413435" r="3"></circle><circle cx="40" cy="359.90721845968545" r="3"></circle><circle cx="40" cy="362.75277111024167" r="3"></circle><circle cx="40" cy="360.90856283838946" r="3"></circle><circle cx="40" cy="409.0785428969686" r="3"></circle><circle cx="40" cy="362.6763428931482" r="3"></circle><circle cx="40" cy="359.892558692222" r="3"></circle><circle cx="40" cy="358.92549894629684" r="3"></circle><circle cx="40" cy="456.6067576480744" r="3"></circle><circle cx="40" cy="356.5512920229277" r="3"></circle><circle cx="40" cy="356.4789855124571" r="3"></circle><circle cx="40" cy="356.55993808188356" r="3"></circle><circle cx="40" cy="356.5697184760654" r="3"></circle><circle cx="40" cy="356.6117659449524" r="3"></circle><circle cx="40" cy="356.5880462160614" r="3"></circle><circle cx="40" cy="356.5232696133204" r="3"></circle><circle cx="40" cy="222.198756628893" r="3"></circle><circle cx="40" cy="356.6473520325747" r="3"></circle><circle cx="40" cy="356.6081248154673" r="3"></circle><circle cx="40" cy="356.5419445811222" r="3"></circle><circle cx="40" cy="356.73409144346346" r="3"></circle><circle cx="40" cy="356.30078058253923" r="3"></circle><circle cx="40" cy="356.6387033759046" r="3"></circle><circle cx="40" cy="356.2460415476918" r="3"></circle><circle cx="40" cy="356.01158051779964" r="3"></circle><circle cx="40" cy="356.65686226447383" r="3"></circle><circle cx="40" cy="356.56492655916395" r="3"></circle><circle cx="40" cy="356.2531081963787" r="3"></circle><circle cx="40" cy="357.513171926622" r="3"></circle><circle cx="40" cy="356.57936378910586" r="3"></circle><circle cx="40" cy="220.65303092072946" r="3"></circle><circle cx="40" cy="356.17597946234025" r="3"></circle><circle cx="40" cy="470" r="3"></circle><circle cx="40" cy="356.5212503234371" r="3"></circle><circle cx="40" cy="356.61555514415033" r="3"></circle><circle cx="40" cy="355.9370235208767" r="3"></circle><circle cx="40" cy="356.0356855743056" r="3"></circle><circle cx="40" cy="360.7820636789703" r="3"></circle><circle cx="40" cy="361.02789230645607" r="3"></circle><circle cx="40" cy="361.03917504538396" r="3"></circle><circle cx="40" cy="361.0824278536867" r="3"></circle><circle cx="40" cy="361.19245837061396" r="3"></circle><circle cx="40" cy="361.051948872296" r="3"></circle><circle cx="40" cy="361.0287833224466" r="3"></circle><circle cx="40" cy="361.05835916518026" r="3"></circle><circle cx="40" cy="361.03444720543416" r="3"></circle><circle cx="40" cy="360.8572640431245" r="3"></circle><circle cx="40" cy="360.8257104739356" r="3"></circle><circle cx="40" cy="233.95603907018435" r="3"></circle><circle cx="40" cy="360.8747068284631" r="3"></circle><circle cx="40" cy="362.12309989444947" r="3"></circle><circle cx="40" cy="360.9866761061317" r="3"></circle><circle cx="40" cy="361.01297709709064" r="3"></circle><circle cx="40" cy="361.8665790750772" r="3"></circle><circle cx="40" cy="361.1427190698086" r="3"></circle><circle cx="40" cy="360.98374588444847" r="3"></circle><circle cx="40" cy="361.25541397566" r="3"></circle><circle cx="40" cy="360.8827285700923" r="3"></circle><circle cx="40" cy="392.5610685724925" r="3"></circle><circle cx="40" cy="360.9296129829279" r="3"></circle><circle cx="40" cy="361.0596060680242" r="3"></circle><circle cx="40" cy="360.3787070611567" r="3"></circle><circle cx="40" cy="393.0899779158305" r="3"></circle><circle cx="40" cy="371.8768458575799" r="3"></circle><circle cx="40" cy="361.33140750856757" r="3"></circle><circle cx="40" cy="361.3259211360544" r="3"></circle><circle cx="40" cy="361.4401322411278" r="3"></circle><circle cx="40" cy="361.45798806303344" r="3"></circle><circle cx="40" cy="361.63170154499903" r="3"></circle><circle cx="40" cy="361.71827123855627" r="3"></circle><circle cx="40" cy="361.51576382584875" r="3"></circle><circle cx="40" cy="361.5107987279967" r="3"></circle><circle cx="40" cy="361.16053679190526" r="3"></circle><circle cx="40" cy="361.3432981126319" r="3"></circle><circle cx="40" cy="361.4609511890973" r="3"></circle><circle cx="40" cy="361.4089155088877" r="3"></circle><circle cx="40" cy="362.4197406787292" r="3"></circle><circle cx="40" cy="361.4936650706547" r="3"></circle><circle cx="40" cy="361.3350183313865" r="3"></circle><circle cx="40" cy="361.4678316682623" r="3"></circle><circle cx="40" cy="362.676998383046" r="3"></circle><circle cx="40" cy="361.4140892897852" r="3"></circle><circle cx="40" cy="361.25090174599364" r="3"></circle><circle cx="40" cy="361.50344719664616" r="3"></circle><circle cx="40" cy="361.4156981408157" r="3"></circle><circle cx="40" cy="361.35217796587096" r="3"></circle><circle cx="40" cy="361.47945470775795" r="3"></circle><circle cx="40" cy="360.99236336854756" r="3"></circle><circle cx="40" cy="367.4015011359429" r="3"></circle><circle cx="40" cy="361.0960390104946" r="3"></circle><circle cx="40" cy="361.08783975839117" r="3"></circle><circle cx="40" cy="413.3559140831833" r="3"></circle><circle cx="40" cy="413.3674704480129" r="3"></circle><circle cx="40" cy="413.394859881246" r="3"></circle><circle cx="40" cy="413.34417414654587" r="3"></circle><circle cx="40" cy="413.492194502689" r="3"></circle><circle cx="40" cy="413.4839381008719" r="3"></circle><circle cx="40" cy="413.42405126226953" r="3"></circle><circle cx="40" cy="413.4364484206141" r="3"></circle><circle cx="40" cy="361.0112652033945" r="3"></circle><circle cx="40" cy="360.7318195556942" r="3"></circle><circle cx="40" cy="413.36023494789924" r="3"></circle><circle cx="40" cy="360.7907140674499" r="3"></circle><circle cx="40" cy="362.0833444754429" r="3"></circle><circle cx="40" cy="413.37667934505805" r="3"></circle><circle cx="40" cy="413.3685727447632" r="3"></circle><circle cx="40" cy="360.7753823578984" r="3"></circle><circle cx="40" cy="413.35430609805746" r="3"></circle><circle cx="40" cy="362.32380102984285" r="3"></circle><circle cx="40" cy="413.4079237862502" r="3"></circle><circle cx="40" cy="361.0898200825606" r="3"></circle><circle cx="40" cy="413.3994950693873" r="3"></circle><circle cx="40" cy="408.0848687025641" r="3"></circle><circle cx="40" cy="361.1666942406018" r="3"></circle><circle cx="40" cy="360.23658524818916" r="3"></circle><circle cx="40" cy="377.2332521287215" r="3"></circle><circle cx="40" cy="364.1315625047487" r="3"></circle><circle cx="40" cy="364.28494627493" r="3"></circle><circle cx="40" cy="363.44563432307746" r="3"></circle><circle cx="40" cy="363.41773833556397" r="3"></circle><circle cx="40" cy="363.5679780055883" r="3"></circle><circle cx="40" cy="363.50049631639985" r="3"></circle><circle cx="40" cy="363.41361922665527" r="3"></circle><circle cx="40" cy="363.49656424291777" r="3"></circle><circle cx="40" cy="363.52647778850496" r="3"></circle><circle cx="40" cy="363.547704577613" r="3"></circle><circle cx="40" cy="218.30538822336405" r="3"></circle><circle cx="40" cy="364.0929847162058" r="3"></circle><circle cx="40" cy="363.69809664687375" r="3"></circle><circle cx="40" cy="363.4053913996951" r="3"></circle><circle cx="40" cy="363.68241944132586" r="3"></circle><circle cx="40" cy="393.9075080336286" r="3"></circle><circle cx="40" cy="363.4627740417526" r="3"></circle><circle cx="40" cy="363.48330897296324" r="3"></circle><circle cx="40" cy="363.61987514103737" r="3"></circle><circle cx="40" cy="363.43929416847806" r="3"></circle><circle cx="40" cy="364.70672155273854" r="3"></circle><circle cx="40" cy="363.48363888267403" r="3"></circle><circle cx="40" cy="364.19000761193774" r="3"></circle><circle cx="40" cy="363.46500288058604" r="3"></circle><circle cx="40" cy="363.6286891855152" r="3"></circle><circle cx="40" cy="390.3049286280605" r="3"></circle><circle cx="40" cy="363.98262255775825" r="3"></circle><circle cx="40" cy="363.4597702181655" r="3"></circle><circle cx="40" cy="363.5412795643479" r="3"></circle><circle cx="40" cy="372.37363013459225" r="3"></circle><circle cx="40" cy="366.2121151493302" r="3"></circle><circle cx="40" cy="366.45944352384765" r="3"></circle><circle cx="40" cy="365.2483215961323" r="3"></circle><circle cx="40" cy="365.30031571291374" r="3"></circle><circle cx="40" cy="365.31066847013716" r="3"></circle><circle cx="40" cy="365.2805618277901" r="3"></circle><circle cx="40" cy="365.33335344284876" r="3"></circle><circle cx="40" cy="365.3264365956841" r="3"></circle><circle cx="40" cy="365.3012803308083" r="3"></circle><circle cx="40" cy="365.2648473883379" r="3"></circle><circle cx="40" cy="365.4210817169651" r="3"></circle><circle cx="40" cy="365.3257412741677" r="3"></circle><circle cx="40" cy="365.3575113195447" r="3"></circle><circle cx="40" cy="365.27268296044514" r="3"></circle><circle cx="40" cy="365.3611195446493" r="3"></circle><circle cx="40" cy="365.418154958901" r="3"></circle><circle cx="40" cy="365.344301942542" r="3"></circle><circle cx="40" cy="366.24953349140924" r="3"></circle><circle cx="40" cy="365.2767336628783" r="3"></circle><circle cx="40" cy="365.46584466315664" r="3"></circle><circle cx="40" cy="366.9731311275377" r="3"></circle><circle cx="40" cy="366.2844822731334" r="3"></circle><circle cx="40" cy="365.2646586211018" r="3"></circle><circle cx="40" cy="365.3154300803724" r="3"></circle><circle cx="40" cy="404.5826346692642" r="3"></circle><circle cx="40" cy="398.20497946686794" r="3"></circle><circle cx="40" cy="358.81098390865526" r="3"></circle><circle cx="40" cy="362.70660539835075" r="3"></circle><circle cx="40" cy="362.8206467860926" r="3"></circle><circle cx="40" cy="362.6790583704527" r="3"></circle><circle cx="40" cy="362.71851332051006" r="3"></circle><circle cx="40" cy="362.7041722059957" r="3"></circle><circle cx="40" cy="362.8018800323871" r="3"></circle><circle cx="40" cy="362.7071924817732" r="3"></circle><circle cx="40" cy="362.67128860710665" r="3"></circle><circle cx="40" cy="371.4836012754685" r="3"></circle><circle cx="40" cy="371.32579446381027" r="3"></circle><circle cx="40" cy="359.8583355386805" r="3"></circle><circle cx="40" cy="362.7096187468902" r="3"></circle><circle cx="40" cy="371.3988794226535" r="3"></circle><circle cx="40" cy="362.65917200190194" r="3"></circle><circle cx="40" cy="358.8787002580317" r="3"></circle><circle cx="40" cy="362.6362896029067" r="3"></circle><circle cx="40" cy="371.311981551195" r="3"></circle><circle cx="40" cy="395.6872289149273" r="3"></circle><circle cx="40" cy="362.66155410587663" r="3"></circle><circle cx="40" cy="358.55577147136444" r="3"></circle><circle cx="40" cy="371.93108353357553" r="3"></circle><circle cx="40" cy="366.4585083467147" r="3"></circle><circle cx="40" cy="366.2118605733329" r="3"></circle><circle cx="40" cy="366.19038007413235" r="3"></circle><circle cx="40" cy="366.232484692733" r="3"></circle><circle cx="40" cy="366.20722625109636" r="3"></circle><circle cx="40" cy="366.3930009203625" r="3"></circle><circle cx="40" cy="366.6109777214772" r="3"></circle><circle cx="40" cy="366.2392283589472" r="3"></circle><circle cx="40" cy="366.21334040455525" r="3"></circle><circle cx="40" cy="366.718229550053" r="3"></circle><circle cx="40" cy="366.28737872453127" r="3"></circle><circle cx="40" cy="367.8341383229695" r="3"></circle><circle cx="40" cy="366.19656436587627" r="3"></circle><circle cx="40" cy="366.21867437783203" r="3"></circle><circle cx="40" cy="366.63076364507674" r="3"></circle><circle cx="40" cy="416.9355392196616" r="3"></circle><circle cx="40" cy="366.41475591136964" r="3"></circle><circle cx="40" cy="367.00964026962635" r="3"></circle><circle cx="40" cy="372.01364495403254" r="3"></circle><circle cx="40" cy="405.32262994369484" r="3"></circle><circle cx="40" cy="367.439567174777" r="3"></circle><circle cx="40" cy="367.2778915006836" r="3"></circle><circle cx="40" cy="374.4250104480548" r="3"></circle><circle cx="40" cy="374.4405569019851" r="3"></circle><circle cx="40" cy="374.39432018590446" r="3"></circle><circle cx="40" cy="374.3914791524108" r="3"></circle><circle cx="40" cy="374.36119759730366" r="3"></circle><circle cx="40" cy="374.42411770025484" r="3"></circle><circle cx="40" cy="374.4538710534628" r="3"></circle><circle cx="40" cy="367.32814081938835" r="3"></circle><circle cx="40" cy="366.8832935094437" r="3"></circle><circle cx="40" cy="374.338159335453" r="3"></circle><circle cx="40" cy="366.84328438034464" r="3"></circle><circle cx="40" cy="374.36514958659507" r="3"></circle><circle cx="40" cy="374.3050168310429" r="3"></circle><circle cx="40" cy="366.8681618238901" r="3"></circle><circle cx="40" cy="368.5676557639451" r="3"></circle><circle cx="40" cy="374.4134913171295" r="3"></circle><circle cx="40" cy="367.38345568089636" r="3"></circle><circle cx="40" cy="224.40102517503965" r="3"></circle><circle cx="40" cy="366.86982262920577" r="3"></circle><circle cx="40" cy="366.6801790975045" r="3"></circle><circle cx="40" cy="366.59822381037446" r="3"></circle><circle cx="40" cy="384.55496778090605" r="3"></circle><circle cx="40.84536355479586" cy="312.6206171117292" r="3"></circle><circle cx="40.87848339664902" cy="312.8723243665811" r="3"></circle><circle cx="41.32166125463017" cy="313.32168650390634" r="3"></circle><circle cx="42.22339067567647" cy="315.6665461833966" r="3"></circle><circle cx="42.22943800335613" cy="319.1412461773697" r="3"></circle><circle cx="42.242949782027296" cy="314.5639281825294" r="3"></circle><circle cx="42.595395476462365" cy="313.13578454664156" r="3"></circle><circle cx="42.64712831801384" cy="365.761341587258" r="3"></circle><circle cx="42.703113033946494" cy="252.03135484212387" r="3"></circle><circle cx="42.76482291248224" cy="315.83902748289904" r="3"></circle><circle cx="43.105681156633395" cy="315.4199763414425" r="3"></circle><circle cx="43.14270179195888" cy="325.49554013544247" r="3"></circle><circle cx="43.54038058997069" cy="313.17650111992367" r="3"></circle><circle cx="43.701257040476" cy="315.67629800272164" r="3"></circle><circle cx="43.9929914837514" cy="326.69359815815363" r="3"></circle><circle cx="44.033005290995206" cy="313.51393900662754" r="3"></circle><circle cx="44.86702708151535" cy="324.6601412071674" r="3"></circle><circle cx="44.91392221057036" cy="325.65026259437155" r="3"></circle><circle cx="45.30203925681333" cy="314.21592019650933" r="3"></circle><circle cx="45.45335930622114" cy="315.8663493755613" r="3"></circle><circle cx="45.62903052053139" cy="286.93114454137594" r="3"></circle><circle cx="45.66989767029988" cy="327.70898231651813" r="3"></circle><circle cx="45.94942698999208" cy="313.2141679766667" r="3"></circle><circle cx="45.967748525841124" cy="313.1146729228657" r="3"></circle><circle cx="46.030914918126335" cy="313.67063486248804" r="3"></circle><circle cx="46.44921558163975" cy="324.08981650541193" r="3"></circle><circle cx="46.48312217437472" cy="313.70792158704455" r="3"></circle><circle cx="46.52538127829694" cy="286.66609802380856" r="3"></circle><circle cx="47.204385103177486" cy="314.70314661686115" r="3"></circle><circle cx="47.67541927134354" cy="333.6536557017963" r="3"></circle><circle cx="47.7716824509594" cy="324.43847824952036" r="3"></circle><circle cx="48.12676691603916" cy="334.96871564059876" r="3"></circle><circle cx="48.21340630437333" cy="314.15235066499366" r="3"></circle><circle cx="48.310231523837174" cy="315.7855422781334" r="3"></circle><circle cx="48.70778830147596" cy="313.12564999741585" r="3"></circle><circle cx="48.82781880824635" cy="328.4178353265175" r="3"></circle><circle cx="49.050974540839555" cy="319.3426971862789" r="3"></circle><circle cx="49.05700403641184" cy="313.3400739913302" r="3"></circle><circle cx="49.46121554100268" cy="313.0618968940926" r="3"></circle><circle cx="49.46277236274192" cy="321.4853291402967" r="3"></circle><circle cx="49.525216062135726" cy="375.16429308287394" r="3"></circle><circle cx="49.55198508605036" cy="318.93402910871214" r="3"></circle><circle cx="49.84639427024793" cy="324.68967721828244" r="3"></circle><circle cx="49.98426413080291" cy="325.0434382754796" r="3"></circle><circle cx="50.0412238700957" cy="325.58402953983654" r="3"></circle><circle cx="50.11772289243906" cy="323.8887975829743" r="3"></circle><circle cx="50.22106282120244" cy="329.1425378571104" r="3"></circle><circle cx="51.20373625296807" cy="324.8300533672685" r="3"></circle><circle cx="51.30008801352544" cy="327.1762170993163" r="3"></circle><circle cx="51.531384308294484" cy="327.17560144103714" r="3"></circle><circle cx="51.66956621776476" cy="328.1416775191632" r="3"></circle><circle cx="51.682172697417215" cy="325.72679818365435" r="3"></circle><circle cx="52.03266085118361" cy="327.763345548703" r="3"></circle><circle cx="52.114406463888486" cy="327.52612920988776" r="3"></circle><circle cx="52.152532606609874" cy="321.1742641146463" r="3"></circle><circle cx="52.27805984206439" cy="324.4648121448599" r="3"></circle><circle cx="52.544008664494726" cy="313.0629394434149" r="3"></circle><circle cx="52.58351830152198" cy="315.51780972402304" r="3"></circle><circle cx="52.64156448904566" cy="334.858452195293" r="3"></circle><circle cx="52.65931974407963" cy="332.7209386042685" r="3"></circle><circle cx="52.659425080602674" cy="287.0434116902795" r="3"></circle><circle cx="52.69582840939936" cy="320.347101672379" r="3"></circle><circle cx="52.85448525339555" cy="325.23971723530093" r="3"></circle><circle cx="53.30347584236259" cy="313.2079802213038" r="3"></circle><circle cx="53.361910776658405" cy="325.9332125586061" r="3"></circle><circle cx="53.52330696023963" cy="315.016734888961" r="3"></circle><circle cx="53.60971729147299" cy="330.04783434883404" r="3"></circle><circle cx="53.73298983291917" cy="324.43357376500103" r="3"></circle><circle cx="53.73579988484991" cy="320.42798756713944" r="3"></circle><circle cx="54.02596303089668" cy="320.0490485974476" r="3"></circle><circle cx="54.16654247987163" cy="324.52915925884355" r="3"></circle><circle cx="54.696305988983035" cy="322.1500539122883" r="3"></circle><circle cx="54.80292605813134" cy="365.14118579879334" r="3"></circle><circle cx="55.61597179106465" cy="327.326490539626" r="3"></circle><circle cx="56.146117264778624" cy="325.20647861546325" r="3"></circle><circle cx="56.19991835640198" cy="320.2861402459785" r="3"></circle><circle cx="56.40621741966548" cy="328.66517755551104" r="3"></circle><circle cx="57.33195637946669" cy="208.15023739173262" r="3"></circle><circle cx="57.333125001863806" cy="321.26148150495857" r="3"></circle><circle cx="58.63951020193623" cy="325.39140296626215" r="3"></circle><circle cx="58.6567597466364" cy="314.6032722967785" r="3"></circle><circle cx="58.73044824892301" cy="309.29022274250997" r="3"></circle><circle cx="59.30451507397368" cy="320.53610356865846" r="3"></circle><circle cx="59.362548820031826" cy="335.27021155282694" r="3"></circle><circle cx="59.41691108478636" cy="293.97776311952833" r="3"></circle><circle cx="59.63188355569626" cy="394.8441208366388" r="3"></circle><circle cx="59.93513769205026" cy="320.55300429762195" r="3"></circle><circle cx="59.94182516362042" cy="313.25141227189044" r="3"></circle><circle cx="59.96683537541267" cy="323.99556883441227" r="3"></circle><circle cx="60.11971185250083" cy="344.37427610723466" r="3"></circle><circle cx="60.964687958581635" cy="319.2960777402975" r="3"></circle><circle cx="61.14874235415732" cy="313.6081641641035" r="3"></circle><circle cx="61.47460107499805" cy="319.1674813595674" r="3"></circle><circle cx="61.95992037779774" cy="311.4220966958801" r="3"></circle><circle cx="64.2740519396347" cy="325.8916777053327" r="3"></circle><circle cx="64.58870869699744" cy="314.35227941334756" r="3"></circle><circle cx="65.0746560012178" cy="325.36207044276404" r="3"></circle><circle cx="65.07631265988653" cy="324.3686109927381" r="3"></circle><circle cx="65.4812714607288" cy="338.4069818261967" r="3"></circle><circle cx="65.68494575414323" cy="320.1925852987811" r="3"></circle><circle cx="65.7293019063589" cy="313.5341622121271" r="3"></circle><circle cx="65.79859134497747" cy="320.33287658910143" r="3"></circle><circle cx="66.04369489227813" cy="325.0745415741971" r="3"></circle><circle cx="66.36728806944402" cy="254.64033452109618" r="3"></circle><circle cx="66.65741292525915" cy="313.4648525980057" r="3"></circle><circle cx="66.78641657770552" cy="316.15528447344667" r="3"></circle><circle cx="67.21566087350568" cy="310.1907688807602" r="3"></circle><circle cx="67.96075340529681" cy="308.78271423513536" r="3"></circle><circle cx="68.48556934009153" cy="310.2205317589204" r="3"></circle><circle cx="68.86861875558448" cy="320.35728298046143" r="3"></circle><circle cx="69.33791736144698" cy="312.0178192499375" r="3"></circle><circle cx="69.7489004306911" cy="285.06620391202955" r="3"></circle><circle cx="69.74965840379532" cy="325.2175275601079" r="3"></circle><circle cx="70.12027976208171" cy="320.14279490959535" r="3"></circle><circle cx="70.20931855981438" cy="324.9408727234255" r="3"></circle><circle cx="70.5081063965404" cy="325.0057696869271" r="3"></circle><circle cx="70.52297344346601" cy="312.47443940089994" r="3"></circle><circle cx="70.67954024507398" cy="329.4541657208502" r="3"></circle><circle cx="70.84754198077357" cy="325.5772780804796" r="3"></circle><circle cx="70.93578035920851" cy="376.68979731734737" r="3"></circle><circle cx="71.97099634922279" cy="324.13667667291446" r="3"></circle><circle cx="71.99537691306779" cy="315.1190060333992" r="3"></circle><circle cx="72.0119309954702" cy="335.22174166838903" r="3"></circle><circle cx="72.40552028175631" cy="310.4655221906056" r="3"></circle><circle cx="72.7513427523451" cy="311.85279685397484" r="3"></circle><circle cx="73.888278647016" cy="312.8161150254635" r="3"></circle><circle cx="74.17207619061315" cy="314.7474419744862" r="3"></circle><circle cx="74.6751597784577" cy="253.5100846336652" r="3"></circle><circle cx="75.40653610965907" cy="330.7087214309616" r="3"></circle><circle cx="77.04064183400537" cy="323.9154509971675" r="3"></circle><circle cx="77.23992798094677" cy="309.3351112448906" r="3"></circle><circle cx="77.26196951029766" cy="315.996530361989" r="3"></circle><circle cx="77.95839238048163" cy="312.81526297518684" r="3"></circle><circle cx="78.04768769389909" cy="313.62984988273047" r="3"></circle><circle cx="79.21865892908382" cy="290.9688350238491" r="3"></circle><circle cx="80.67991001653495" cy="289.4258585632755" r="3"></circle><circle cx="81.93013010711496" cy="327.2899484931567" r="3"></circle><circle cx="82.32585111802666" cy="339.52527616670693" r="3"></circle><circle cx="84.23661121832913" cy="278.37172628328204" r="3"></circle><circle cx="84.49211257913176" cy="312.65921395017665" r="3"></circle><circle cx="85.03925732038732" cy="328.10131336911553" r="3"></circle><circle cx="86.0820080816866" cy="324.6885073809615" r="3"></circle><circle cx="86.66672285174695" cy="310.03831249456897" r="3"></circle><circle cx="86.85037408602273" cy="327.755904829163" r="3"></circle><circle cx="87.61551822341717" cy="284.54157560178896" r="3"></circle><circle cx="88.78531546689162" cy="291.2476970517462" r="3"></circle><circle cx="89.77970181419414" cy="321.0821396421004" r="3"></circle><circle cx="90.17811591903256" cy="313.2357168823428" r="3"></circle><circle cx="90.3827691633372" cy="323.8691857062301" r="3"></circle><circle cx="90.95891792548724" cy="286.04587902429694" r="3"></circle><circle cx="91.46713629183054" cy="286.4071734528427" r="3"></circle><circle cx="91.6092892208004" cy="164.11811134789673" r="3"></circle><circle cx="93.35604324657741" cy="290.5919906777541" r="3"></circle><circle cx="93.75609352859328" cy="310.402410722704" r="3"></circle><circle cx="94.3378686297316" cy="310.67768270949637" r="3"></circle><circle cx="102.00417723177782" cy="288.512710913159" r="3"></circle><circle cx="105.48715594743476" cy="22.36577041336356" r="3"></circle><circle cx="108.1296840442696" cy="313.00194338082423" r="3"></circle><circle cx="108.66732244003023" cy="330.4481334569658" r="3"></circle><circle cx="108.669678614497" cy="286.3027184966182" r="3"></circle><circle cx="109.61189876992452" cy="211.6398404724047" r="3"></circle><circle cx="110.46512942082666" cy="314.22098227569364" r="3"></circle><circle cx="112.76515061680757" cy="293.2754251768884" r="3"></circle><circle cx="114.56805778185446" cy="327.87138535060376" r="3"></circle><circle cx="117.60131561421417" cy="325.1287255640981" r="3"></circle><circle cx="122.64046871953414" cy="284.84687370178636" r="3"></circle><circle cx="125.6691300860666" cy="314.3021123555944" r="3"></circle><circle cx="131.0714604169634" cy="320.19030796928143" r="3"></circle><circle cx="133.3202168506886" cy="221.98120238929755" r="3"></circle><circle cx="134.22044208116455" cy="313.16824125448755" r="3"></circle><circle cx="136.61023394692558" cy="314.4726193922606" r="3"></circle><circle cx="138.0738332980091" cy="310.55742239382056" r="3"></circle><circle cx="138.75653490722573" cy="328.95746110707506" r="3"></circle><circle cx="141.20716030650465" cy="337.58834161850564" r="3"></circle><circle cx="141.84715158250734" cy="210.81153590176862" r="3"></circle><circle cx="154.1986311511227" cy="309.42561647554896" r="3"></circle><circle cx="155.26815320126113" cy="316.0671630785726" r="3"></circle><circle cx="155.84070408531036" cy="307.3709794943114" r="3"></circle><circle cx="174.24878202721567" cy="310.9278581788407" r="3"></circle><circle cx="174.47703884890956" cy="333.37479194208976" r="3"></circle><circle cx="195.27582570981352" cy="284.9534154884649" r="3"></circle><circle cx="198.71397207831114" cy="320.1373206597487" r="3"></circle><circle cx="207.7975068181348" cy="327.898031837559" r="3"></circle><circle cx="209.40237698992357" cy="290.5372343248115" r="3"></circle><circle cx="218.7863557290541" cy="309.8987494301457" r="3"></circle><circle cx="230.74357468923597" cy="310.7911274888635" r="3"></circle><circle cx="293.799936245056" cy="313.05035351783414" r="3"></circle><circle cx="369.9910065456735" cy="311.24800394763287" r="3"></circle><circle cx="407.14377401590536" cy="282.35485697319154" r="3"></circle><circle cx="442.3511357922964" cy="248.57314860188052" r="3"></circle><circle cx="480" cy="324.998052743771" r="3"></circle></g></svg>