<svg class="plot-chart" fill="currentColor" font-family="system-ui, sans-serif" font-size="10" text-anchor="middle" width="500" height="500" viewBox="0 0 500 500" style="overflow: visible;" xmlns="http://www.w3.org/2000/svg"><style>:where(.plot-chart) {
  --plot-background: white;
  display: block;
  height: auto;
  height: intrinsic;
  max-width: 100%;
}
:where(.plot-chart text),
:where(.plot-chart tspan) {
  white-space: pre;
}</style><g aria-label="y-axis tick" aria-hidden="true" fill="none" stroke="currentColor"><path transform="translate(38.17,465.3124918211688)" d="M0,0L-6,0"></path><path transform="translate(38.17,421.92104254632045)" d="M0,0L-6,0"></path><path transform="translate(38.17,378.52959327147215)" d="M0,0L-6,0"></path><path transform="translate(38.17,335.1381439966238)" d="M0,0L-6,0"></path><path transform="translate(38.17,291.74669472177544)" d="M0,0L-6,0"></path><path transform="translate(38.17,248.35524544692703)" d="M0,0L-6,0"></path><path transform="translate(38.17,204.9637961720787)" d="M0,0L-6,0"></path><path transform="translate(38.17,161.57234689723037)" d="M0,0L-6,0"></path><path transform="translate(38.17,118.180897622382)" d="M0,0L-6,0"></path><path transform="translate(38.17,74.7894483475336)" d="M0,0L-6,0"></path><path transform="translate(38.17,31.39799907268533)" d="M0,0L-6,0"></path></g><g aria-label="y-axis tick label" text-anchor="end" font-variant="tabular-nums" transform="translate(-9,0)"><text y="0.32em" transform="translate(38.17,465.3124918211688)">−0.05</text><text y="0.32em" transform="translate(38.17,421.92104254632045)">0.00</text><text y="0.32em" transform="translate(38.17,378.52959327147215)">0.05</text><text y="0.32em" transform="translate(38.17,335.1381439966238)">0.10</text><text y="0.32em" transform="translate(38.17,291.74669472177544)">0.15</text><text y="0.32em" transform="translate(38.17,248.35524544692703)">0.20</text><text y="0.32em" transform="translate(38.17,204.9637961720787)">0.25</text><text y="0.32em" transform="translate(38.17,161.57234689723037)">0.30</text><text y="0.32em" transform="translate(38.17,118.180897622382)">0.35</text><text y="0.32em" transform="translate(38.17,74.7894483475336)">0.40</text><text y="0.32em" transform="translate(38.17,31.39799907268533)">0.45</text></g><g aria-label="y-axis label" text-anchor="start" transform="translate(-35.17,-17)"><text y="0.71em" transform="translate(38.17,20)">↑ Consensus Income</text></g><g aria-label="x-axis tick" aria-hidden="true" fill="none" stroke="currentColor"><path transform="translate(38.17,471)" d="M0,0L0,6"></path><path transform="translate(102.19472715666953,471)" d="M0,0L0,6"></path><path transform="translate(166.21945431333907,471)" d="M0,0L0,6"></path><path transform="translate(230.24418147000858,471)" d="M0,0L0,6"></path><path transform="translate(294.2689086266781,471)" d="M0,0L0,6"></path><path transform="translate(358.2936357833476,471)" d="M0,0L0,6"></path><path transform="translate(422.31836294001715,471)" d="M0,0L0,6"></path><path transform="translate(486.34309009668664,471)" d="M0,0L0,6"></path></g><g aria-label="x-axis tick label" font-variant="tabular-nums" transform="translate(0,9)"><text y="0.71em" transform="translate(38.17,471)">0.00</text><text y="0.71em" transform="translate(102.19472715666953,471)">0.05</text><text y="0.71em" transform="translate(166.21945431333907,471)">0.10</text><text y="0.71em" transform="translate(230.24418147000858,471)">0.15</text><text y="0.71em" transform="translate(294.2689086266781,471)">0.20</text><text y="0.71em" transform="translate(358.2936357833476,471)">0.25</text><text y="0.71em" transform="translate(422.31836294001715,471)">0.30</text><text y="0.71em" transform="translate(486.34309009668664,471)">0.35</text></g><g aria-label="x-axis label" text-anchor="end" transform="translate(-3,26)"><text transform="translate(500,471)">Execution Income →</text></g><rect aria-label="frame" fill="hsla( 0 0% 100%)" stroke="hsla(220 6% 90%)" x="38.17" y="20" width="461.83" height="451" rx="4" ry="4"></rect><g aria-label="y-grid" aria-hidden="true" stroke="hsla(220 6% 90%)" stroke-dasharray="1.5,1.5"><line x1="38.17" x2="500" y1="465.3124918211688" y2="465.3124918211688"></line><line x1="38.17" x2="500" y1="421.92104254632045" y2="421.92104254632045"></line><line x1="38.17" x2="500" y1="378.52959327147215" y2="378.52959327147215"></line><line x1="38.17" x2="500" y1="335.1381439966238" y2="335.1381439966238"></line><line x1="38.17" x2="500" y1="291.74669472177544" y2="291.74669472177544"></line><line x1="38.17" x2="500" y1="248.35524544692703" y2="248.35524544692703"></line><line x1="38.17" x2="500" y1="204.9637961720787" y2="204.9637961720787"></line><line x1="38.17" x2="500" y1="161.57234689723037" y2="161.57234689723037"></line><line x1="38.17" x2="500" y1="118.180897622382" y2="118.180897622382"></line><line x1="38.17" x2="500" y1="74.7894483475336" y2="74.7894483475336"></line><line x1="38.17" x2="500" y1="31.39799907268533" y2="31.39799907268533"></line></g><g aria-label="dot" fill="hsla(317 100% 50%)"><circle cx="38.17" cy="56.1450755102907" r="3"></circle><circle cx="38.17" cy="56.48392280899399" r="3"></circle><circle cx="38.17" cy="59.530457290476704" r="3"></circle><circle cx="38.17" cy="65.03735984347819" r="3"></circle><circle cx="38.17" cy="59.819546746467516" r="3"></circle><circle cx="38.17" cy="59.014767272424805" r="3"></circle><circle cx="38.17" cy="55.56367782060201" r="3"></circle><circle cx="38.17" cy="51.30875396050166" r="3"></circle><circle cx="38.17" cy="61.92646108962805" r="3"></circle><circle cx="38.17" cy="62.72288163488241" r="3"></circle><circle cx="38.17" cy="57.56209010919279" r="3"></circle><circle cx="38.17" cy="59.61393723190764" r="3"></circle><circle cx="38.17" cy="57.58819180158957" r="3"></circle><circle cx="38.17" cy="57.626014392264494" r="3"></circle><circle cx="38.17" cy="49.23407859632332" r="3"></circle><circle cx="38.17" cy="60.82336800530779" r="3"></circle><circle cx="38.17" cy="67.23546652426374" r="3"></circle><circle cx="38.17" cy="55.588677370187185" r="3"></circle><circle cx="38.17" cy="52.099511921625556" r="3"></circle><circle cx="38.17" cy="56.0471115030919" r="3"></circle><circle cx="38.17" cy="52.40646303379587" r="3"></circle><circle cx="38.17" cy="58.762175232248154" r="3"></circle><circle cx="38.17" cy="52.74549518007298" r="3"></circle><circle cx="38.17" cy="56.05328263500775" r="3"></circle><circle cx="38.17" cy="57.46330947491856" r="3"></circle><circle cx="38.17" cy="59.76219800361891" r="3"></circle><circle cx="38.17" cy="133.71067996127053" r="3"></circle><circle cx="38.17" cy="66.60089261348863" r="3"></circle><circle cx="38.17" cy="57.193307917463784" r="3"></circle><circle cx="38.17" cy="56.7498473058749" r="3"></circle><circle cx="38.17" cy="73.49444269353164" r="3"></circle><circle cx="38.17" cy="64.83873374876457" r="3"></circle><circle cx="38.17" cy="151.05086638167384" r="3"></circle><circle cx="38.17" cy="144.6585213860858" r="3"></circle><circle cx="38.17" cy="151.4379866676953" r="3"></circle><circle cx="38.17" cy="149.43451320046108" r="3"></circle><circle cx="38.17" cy="148.60522189672315" r="3"></circle><circle cx="38.17" cy="151.2957876814478" r="3"></circle><circle cx="38.17" cy="146.318467352898" r="3"></circle><circle cx="38.17" cy="148.8105406885729" r="3"></circle><circle cx="38.17" cy="152.05887491536913" r="3"></circle><circle cx="38.17" cy="158.0071483477625" r="3"></circle><circle cx="38.17" cy="149.9282480130088" r="3"></circle><circle cx="38.17" cy="149.20231427361458" r="3"></circle><circle cx="38.17" cy="144.0431516629308" r="3"></circle><circle cx="38.17" cy="159.57462713617002" r="3"></circle><circle cx="38.17" cy="140.76112744708846" r="3"></circle><circle cx="38.17" cy="153.27079115098383" r="3"></circle><circle cx="38.17" cy="154.07318235965832" r="3"></circle><circle cx="38.17" cy="149.46261870998535" r="3"></circle><circle cx="38.17" cy="158.51671930363756" r="3"></circle><circle cx="38.17" cy="154.5355633787891" r="3"></circle><circle cx="38.17" cy="144.53168123722352" r="3"></circle><circle cx="38.17" cy="156.77093637186985" r="3"></circle><circle cx="38.17" cy="153.57858579292795" r="3"></circle><circle cx="38.17" cy="147.65914771423576" r="3"></circle><circle cx="38.17" cy="148.41266800142108" r="3"></circle><circle cx="38.17" cy="155.83900866967508" r="3"></circle><circle cx="38.17" cy="262.96951159756554" r="3"></circle><circle cx="38.17" cy="145.6109003461528" r="3"></circle><circle cx="38.17" cy="146.72257886262656" r="3"></circle><circle cx="38.17" cy="151.03541902573195" r="3"></circle><circle cx="38.17" cy="234.8354357465452" r="3"></circle><circle cx="38.17" cy="150.9547786207416" r="3"></circle><circle cx="38.17" cy="221.57718883456306" r="3"></circle><circle cx="38.17" cy="224.56628084766683" r="3"></circle><circle cx="38.17" cy="214.2311718137196" r="3"></circle><circle cx="38.17" cy="215.92738782515175" r="3"></circle><circle cx="38.17" cy="215.97715694964103" r="3"></circle><circle cx="38.17" cy="221.9301053767792" r="3"></circle><circle cx="38.17" cy="215.45922532931957" r="3"></circle><circle cx="38.17" cy="218.4227719284062" r="3"></circle><circle cx="38.17" cy="209.60665434178895" r="3"></circle><circle cx="38.17" cy="218.7009857515508" r="3"></circle><circle cx="38.17" cy="216.02604609553896" r="3"></circle><circle cx="38.17" cy="209.74970119695539" r="3"></circle><circle cx="38.17" cy="218.1204645691373" r="3"></circle><circle cx="38.17" cy="222.1823606993095" r="3"></circle><circle cx="38.17" cy="221.27792495154637" r="3"></circle><circle cx="38.17" cy="211.1231082571652" r="3"></circle><circle cx="38.17" cy="214.28743577033637" r="3"></circle><circle cx="38.17" cy="218.9259556629481" r="3"></circle><circle cx="38.17" cy="218.3330653140044" r="3"></circle><circle cx="38.17" cy="224.76650114422674" r="3"></circle><circle cx="38.17" cy="212.69894250304503" r="3"></circle><circle cx="38.17" cy="227.21983806530497" r="3"></circle><circle cx="38.17" cy="221.62895917269296" r="3"></circle><circle cx="38.17" cy="215.79357033124606" r="3"></circle><circle cx="38.17" cy="210.60154564036844" r="3"></circle><circle cx="38.17" cy="219.4163666904814" r="3"></circle><circle cx="38.17" cy="314.13359134075074" r="3"></circle><circle cx="38.17" cy="213.32960771206945" r="3"></circle><circle cx="38.17" cy="206.22513873973335" r="3"></circle><circle cx="38.17" cy="218.81534825525955" r="3"></circle><circle cx="38.17" cy="199.71811968983076" r="3"></circle><circle cx="38.17" cy="243.15643086206694" r="3"></circle><circle cx="38.17" cy="199.16188470157638" r="3"></circle><circle cx="38.17" cy="199.53131255807062" r="3"></circle><circle cx="38.17" cy="195.87293781391682" r="3"></circle><circle cx="38.17" cy="199.33225688800917" r="3"></circle><circle cx="38.17" cy="211.7890238117515" r="3"></circle><circle cx="38.17" cy="214.48838243975717" r="3"></circle><circle cx="38.17" cy="208.28493344029735" r="3"></circle><circle cx="38.17" cy="211.74269129004477" r="3"></circle><circle cx="38.17" cy="211.73316599909995" r="3"></circle><circle cx="38.17" cy="214.1387740616338" r="3"></circle><circle cx="38.17" cy="208.3283543957577" r="3"></circle><circle cx="38.17" cy="211.02099776307364" r="3"></circle><circle cx="38.17" cy="196.143696118247" r="3"></circle><circle cx="38.17" cy="195.91313218120905" r="3"></circle><circle cx="38.17" cy="210.9665189306801" r="3"></circle><circle cx="38.17" cy="184.41010410555407" r="3"></circle><circle cx="38.17" cy="196.9712882128314" r="3"></circle><circle cx="38.17" cy="208.2019551040201" r="3"></circle><circle cx="38.17" cy="198.66248470141127" r="3"></circle><circle cx="38.17" cy="198.83717694053385" r="3"></circle><circle cx="38.17" cy="208.5987386657951" r="3"></circle><circle cx="38.17" cy="202.51663038291642" r="3"></circle><circle cx="38.17" cy="204.63370873915508" r="3"></circle><circle cx="38.17" cy="186.68211683840246" r="3"></circle><circle cx="38.17" cy="211.7051576864221" r="3"></circle><circle cx="38.17" cy="195.7188027078027" r="3"></circle><circle cx="38.17" cy="221.51923174359572" r="3"></circle><circle cx="38.17" cy="196.12768293780653" r="3"></circle><circle cx="38.17" cy="201.525563606676" r="3"></circle><circle cx="38.17" cy="202.2630212471687" r="3"></circle><circle cx="38.17" cy="232.91972842810117" r="3"></circle><circle cx="38.17" cy="205.3821253240767" r="3"></circle><circle cx="38.17" cy="237.21455159363873" r="3"></circle><circle cx="38.17" cy="233.7686656444129" r="3"></circle><circle cx="38.17" cy="230.32061532969718" r="3"></circle><circle cx="38.17" cy="227.14385443065078" r="3"></circle><circle cx="38.17" cy="233.54818240887056" r="3"></circle><circle cx="38.17" cy="236.87652873247168" r="3"></circle><circle cx="38.17" cy="236.88542571523104" r="3"></circle><circle cx="38.17" cy="230.4708278487969" r="3"></circle><circle cx="38.17" cy="226.7175343093544" r="3"></circle><circle cx="38.17" cy="237.04636546842045" r="3"></circle><circle cx="38.17" cy="236.91885101643646" r="3"></circle><circle cx="38.17" cy="227.07767466004572" r="3"></circle><circle cx="38.17" cy="237.32961530316786" r="3"></circle><circle cx="38.17" cy="233.92044199134443" r="3"></circle><circle cx="38.17" cy="220.0569320925724" r="3"></circle><circle cx="38.17" cy="224.14907987335005" r="3"></circle><circle cx="38.17" cy="220.8795576018728" r="3"></circle><circle cx="38.17" cy="223.82780350811612" r="3"></circle><circle cx="38.17" cy="236.88507164100497" r="3"></circle><circle cx="38.17" cy="230.6736863454727" r="3"></circle><circle cx="38.17" cy="237.10150992564587" r="3"></circle><circle cx="38.17" cy="233.84087161949316" r="3"></circle><circle cx="38.17" cy="230.4746792738345" r="3"></circle><circle cx="38.17" cy="237.27451770870758" r="3"></circle><circle cx="38.17" cy="223.523179045456" r="3"></circle><circle cx="38.17" cy="227.45854137039777" r="3"></circle><circle cx="38.17" cy="270.62406004716183" r="3"></circle><circle cx="38.17" cy="233.8562278533916" r="3"></circle><circle cx="38.17" cy="233.645571913281" r="3"></circle><circle cx="38.17" cy="238.95330250713698" r="3"></circle><circle cx="38.17" cy="233.9827720725697" r="3"></circle><circle cx="38.17" cy="226.8774665130916" r="3"></circle><circle cx="38.17" cy="224.70710085365647" r="3"></circle><circle cx="38.17" cy="202.1575913072076" r="3"></circle><circle cx="38.17" cy="220.53187493626822" r="3"></circle><circle cx="38.17" cy="220.7583557379293" r="3"></circle><circle cx="38.17" cy="216.7763259092924" r="3"></circle><circle cx="38.17" cy="223.8092831697366" r="3"></circle><circle cx="38.17" cy="227.39020764825074" r="3"></circle><circle cx="38.17" cy="217.130171896352" r="3"></circle><circle cx="38.17" cy="220.71016172304874" r="3"></circle><circle cx="38.17" cy="220.7835245141667" r="3"></circle><circle cx="38.17" cy="224.063394778467" r="3"></circle><circle cx="38.17" cy="227.77135206387814" r="3"></circle><circle cx="38.17" cy="217.3357874857148" r="3"></circle><circle cx="38.17" cy="225.68078327965938" r="3"></circle><circle cx="38.17" cy="220.56660024529393" r="3"></circle><circle cx="38.17" cy="218.66010579935997" r="3"></circle><circle cx="38.17" cy="224.7260290716591" r="3"></circle><circle cx="38.17" cy="216.91209948973136" r="3"></circle><circle cx="38.17" cy="213.41116194098151" r="3"></circle><circle cx="38.17" cy="222.12699754917975" r="3"></circle><circle cx="38.17" cy="220.55580271705637" r="3"></circle><circle cx="38.17" cy="228.12341032322757" r="3"></circle><circle cx="38.17" cy="220.5438709363347" r="3"></circle><circle cx="38.17" cy="224.39810513639637" r="3"></circle><circle cx="38.17" cy="209.1824265561766" r="3"></circle><circle cx="38.17" cy="225.70433355483883" r="3"></circle><circle cx="38.17" cy="234.8623453877275" r="3"></circle><circle cx="38.17" cy="209.55579001711996" r="3"></circle><circle cx="38.17" cy="220.49546603901064" r="3"></circle><circle cx="38.17" cy="218.94419569256527" r="3"></circle><circle cx="38.17" cy="220.36000574483546" r="3"></circle><circle cx="38.17" cy="224.1652119463614" r="3"></circle><circle cx="38.17" cy="261.2839612043652" r="3"></circle><circle cx="38.17" cy="257.38131516434765" r="3"></circle><circle cx="38.17" cy="257.318649233305" r="3"></circle><circle cx="38.17" cy="265.12309691573716" r="3"></circle><circle cx="38.17" cy="265.1136341084793" r="3"></circle><circle cx="38.17" cy="265.24568643822846" r="3"></circle><circle cx="38.17" cy="261.45034224529365" r="3"></circle><circle cx="38.17" cy="261.1908119123779" r="3"></circle><circle cx="38.17" cy="261.13617166379305" r="3"></circle><circle cx="38.17" cy="265.2949374688134" r="3"></circle><circle cx="38.17" cy="261.081482816785" r="3"></circle><circle cx="38.17" cy="265.1853115757074" r="3"></circle><circle cx="38.17" cy="261.1133685893701" r="3"></circle><circle cx="38.17" cy="261.6780978877345" r="3"></circle><circle cx="38.17" cy="257.4434925076716" r="3"></circle><circle cx="38.17" cy="261.05727646289256" r="3"></circle><circle cx="38.17" cy="262.03637934873893" r="3"></circle><circle cx="38.17" cy="257.3086127910877" r="3"></circle><circle cx="38.17" cy="260.8881322544742" r="3"></circle><circle cx="38.17" cy="257.38746286488094" r="3"></circle><circle cx="38.17" cy="261.22610998853406" r="3"></circle><circle cx="38.17" cy="254.1590227497482" r="3"></circle><circle cx="38.17" cy="253.54106776404532" r="3"></circle><circle cx="38.17" cy="265.1906322352175" r="3"></circle><circle cx="38.17" cy="261.25369132935106" r="3"></circle><circle cx="38.17" cy="253.4123921568788" r="3"></circle><circle cx="38.17" cy="264.1480389807922" r="3"></circle><circle cx="38.17" cy="257.22590261396687" r="3"></circle><circle cx="38.17" cy="257.4371946727239" r="3"></circle><circle cx="38.17" cy="257.21847399785105" r="3"></circle><circle cx="38.17" cy="261.1968537377749" r="3"></circle><circle cx="38.17" cy="257.88421685446923" r="3"></circle><circle cx="38.17" cy="271.742837404737" r="3"></circle><circle cx="38.17" cy="267.67692496201994" r="3"></circle><circle cx="38.17" cy="267.5845428308558" r="3"></circle><circle cx="38.17" cy="267.84182895801507" r="3"></circle><circle cx="38.17" cy="271.5926977832721" r="3"></circle><circle cx="38.17" cy="267.6865674098778" r="3"></circle><circle cx="38.17" cy="271.6982926107404" r="3"></circle><circle cx="38.17" cy="267.59254334627315" r="3"></circle><circle cx="38.17" cy="267.41042509452166" r="3"></circle><circle cx="38.17" cy="267.5058489662799" r="3"></circle><circle cx="38.17" cy="271.73482473971393" r="3"></circle><circle cx="38.17" cy="271.7708839018903" r="3"></circle><circle cx="38.17" cy="263.53574310790384" r="3"></circle><circle cx="38.17" cy="268.29588576151696" r="3"></circle><circle cx="38.17" cy="267.8757289616756" r="3"></circle><circle cx="38.17" cy="272.00172380854553" r="3"></circle><circle cx="38.17" cy="272.35584576522245" r="3"></circle><circle cx="38.17" cy="271.8376130082431" r="3"></circle><circle cx="38.17" cy="267.47433983147454" r="3"></circle><circle cx="38.17" cy="264.17923396150485" r="3"></circle><circle cx="38.17" cy="250.72679208960912" r="3"></circle><circle cx="38.17" cy="270.48152173978093" r="3"></circle><circle cx="38.17" cy="267.55565280392864" r="3"></circle><circle cx="38.17" cy="271.9051049362742" r="3"></circle><circle cx="38.17" cy="263.1507724342793" r="3"></circle><circle cx="38.17" cy="267.8946025064522" r="3"></circle><circle cx="38.17" cy="277.46117867959396" r="3"></circle><circle cx="38.17" cy="263.5807764896192" r="3"></circle><circle cx="38.17" cy="268.03496950571133" r="3"></circle><circle cx="38.17" cy="268.00297265101614" r="3"></circle><circle cx="38.17" cy="291.9622799305236" r="3"></circle><circle cx="38.17" cy="267.1249900663888" r="3"></circle><circle cx="38.17" cy="257.7442065329231" r="3"></circle><circle cx="38.17" cy="266.16262152686977" r="3"></circle><circle cx="38.17" cy="253.24385890006624" r="3"></circle><circle cx="38.17" cy="263.0370286926372" r="3"></circle><circle cx="38.17" cy="263.037338507585" r="3"></circle><circle cx="38.17" cy="267.4785843830426" r="3"></circle><circle cx="38.17" cy="262.8231071120543" r="3"></circle><circle cx="38.17" cy="258.391061959501" r="3"></circle><circle cx="38.17" cy="258.2361284507202" r="3"></circle><circle cx="38.17" cy="245.17898528520524" r="3"></circle><circle cx="38.17" cy="265.8961884822034" r="3"></circle><circle cx="38.17" cy="258.0911949353393" r="3"></circle><circle cx="38.17" cy="261.41870033265343" r="3"></circle><circle cx="38.17" cy="263.39719334254016" r="3"></circle><circle cx="38.17" cy="258.6416328259705" r="3"></circle><circle cx="38.17" cy="254.82403663001855" r="3"></circle><circle cx="38.17" cy="262.9489362401484" r="3"></circle><circle cx="38.17" cy="267.1033611645833" r="3"></circle><circle cx="38.17" cy="254.03354509239315" r="3"></circle><circle cx="38.17" cy="254.5454574508711" r="3"></circle><circle cx="38.17" cy="267.152562728916" r="3"></circle><circle cx="38.17" cy="266.3565196892703" r="3"></circle><circle cx="38.17" cy="262.2554879431682" r="3"></circle><circle cx="38.17" cy="266.2888420458364" r="3"></circle><circle cx="38.17" cy="263.12342801077534" r="3"></circle><circle cx="38.17" cy="254.30478764529713" r="3"></circle><circle cx="38.17" cy="353.8759828834337" r="3"></circle><circle cx="38.17" cy="261.82089567598206" r="3"></circle><circle cx="38.17" cy="267.3120592825025" r="3"></circle><circle cx="38.17" cy="267.30304080368524" r="3"></circle><circle cx="38.17" cy="267.0483503530216" r="3"></circle><circle cx="38.17" cy="271.9815415776588" r="3"></circle><circle cx="38.17" cy="292.697180946825" r="3"></circle><circle cx="38.17" cy="292.5705924683685" r="3"></circle><circle cx="38.17" cy="293.6048198513737" r="3"></circle><circle cx="38.17" cy="284.4497994249981" r="3"></circle><circle cx="38.17" cy="288.88482557011656" r="3"></circle><circle cx="38.17" cy="289.0982958796271" r="3"></circle><circle cx="38.17" cy="289.3656791970326" r="3"></circle><circle cx="38.17" cy="288.97868040706913" r="3"></circle><circle cx="38.17" cy="288.440921497916" r="3"></circle><circle cx="38.17" cy="293.72269272332886" r="3"></circle><circle cx="38.17" cy="279.87535394987253" r="3"></circle><circle cx="38.17" cy="293.11805978038234" r="3"></circle><circle cx="38.17" cy="283.14389123545124" r="3"></circle><circle cx="38.17" cy="293.16094528535865" r="3"></circle><circle cx="38.17" cy="288.8028582546074" r="3"></circle><circle cx="38.17" cy="278.7983773110418" r="3"></circle><circle cx="38.17" cy="288.4332811315277" r="3"></circle><circle cx="38.17" cy="289.0787610491635" r="3"></circle><circle cx="38.17" cy="284.3105302294055" r="3"></circle><circle cx="38.17" cy="288.3465928263374" r="3"></circle><circle cx="38.17" cy="293.521686173708" r="3"></circle><circle cx="38.17" cy="286.75068135687803" r="3"></circle><circle cx="38.17" cy="284.16637168530866" r="3"></circle><circle cx="38.17" cy="288.0635573453494" r="3"></circle><circle cx="38.17" cy="293.7179847510825" r="3"></circle><circle cx="38.17" cy="289.1006971624299" r="3"></circle><circle cx="38.17" cy="324.7196982130284" r="3"></circle><circle cx="38.17" cy="283.1621191154626" r="3"></circle><circle cx="38.17" cy="293.86249563374747" r="3"></circle><circle cx="38.17" cy="288.2978685679467" r="3"></circle><circle cx="38.17" cy="292.11007120675373" r="3"></circle><circle cx="38.17" cy="297.38893954421" r="3"></circle><circle cx="38.17" cy="293.78386078154256" r="3"></circle><circle cx="38.17" cy="293.4929428098793" r="3"></circle><circle cx="38.17" cy="295.06839955015056" r="3"></circle><circle cx="38.17" cy="290.44297172561403" r="3"></circle><circle cx="38.17" cy="290.11916477105854" r="3"></circle><circle cx="38.17" cy="275.58556506027986" r="3"></circle><circle cx="38.17" cy="290.1768901516868" r="3"></circle><circle cx="38.17" cy="246.93120056541343" r="3"></circle><circle cx="38.17" cy="294.8727778793848" r="3"></circle><circle cx="38.17" cy="290.40556222153623" r="3"></circle><circle cx="38.17" cy="290.5319198574826" r="3"></circle><circle cx="38.17" cy="290.0849549524502" r="3"></circle><circle cx="38.17" cy="293.7529990471603" r="3"></circle><circle cx="38.17" cy="290.15633735782325" r="3"></circle><circle cx="38.17" cy="289.9932384461179" r="3"></circle><circle cx="38.17" cy="280.74912235694626" r="3"></circle><circle cx="38.17" cy="289.90408116746397" r="3"></circle><circle cx="38.17" cy="291.6066167095684" r="3"></circle><circle cx="38.17" cy="290.45302986355597" r="3"></circle><circle cx="38.17" cy="285.4229203656474" r="3"></circle><circle cx="38.17" cy="294.98967791504714" r="3"></circle><circle cx="38.17" cy="269.520762155201" r="3"></circle><circle cx="38.17" cy="289.9030796928146" r="3"></circle><circle cx="38.17" cy="288.86994056735733" r="3"></circle><circle cx="38.17" cy="295.2058350230968" r="3"></circle><circle cx="38.17" cy="294.79787122050163" r="3"></circle><circle cx="38.17" cy="293.68979506214663" r="3"></circle><circle cx="38.17" cy="293.603185729394" r="3"></circle><circle cx="38.17" cy="290.2410305241758" r="3"></circle><circle cx="38.17" cy="289.2601095366049" r="3"></circle><circle cx="38.17" cy="289.0541294590682" r="3"></circle><circle cx="38.17" cy="311.8290879585143" r="3"></circle><circle cx="38.17" cy="303.39333981624037" r="3"></circle><circle cx="38.17" cy="264.5602247714018" r="3"></circle><circle cx="38.17" cy="283.96361732811107" r="3"></circle><circle cx="38.17" cy="283.59042049033286" r="3"></circle><circle cx="38.17" cy="264.24385163993594" r="3"></circle><circle cx="38.17" cy="244.23023471812667" r="3"></circle><circle cx="38.17" cy="224.00737121047925" r="3"></circle><circle cx="38.17" cy="283.6234604754688" r="3"></circle><circle cx="38.17" cy="303.34193396628444" r="3"></circle><circle cx="38.17" cy="284.3705926734918" r="3"></circle><circle cx="38.17" cy="303.4134725808749" r="3"></circle><circle cx="38.17" cy="303.3935237959853" r="3"></circle><circle cx="38.17" cy="303.1489626452403" r="3"></circle><circle cx="38.17" cy="284.1364376601119" r="3"></circle><circle cx="38.17" cy="229.8581605451027" r="3"></circle><circle cx="38.17" cy="303.70432112621927" r="3"></circle><circle cx="38.17" cy="260.1456030213903" r="3"></circle><circle cx="38.17" cy="264.1279088196446" r="3"></circle><circle cx="38.17" cy="303.38260303603175" r="3"></circle><circle cx="38.17" cy="284.313913026791" r="3"></circle><circle cx="38.17" cy="303.3373292656874" r="3"></circle><circle cx="38.17" cy="303.00285148592616" r="3"></circle><circle cx="38.17" cy="283.8928710413844" r="3"></circle><circle cx="38.17" cy="283.65250063681043" r="3"></circle><circle cx="38.17" cy="303.41426490873863" r="3"></circle><circle cx="38.17" cy="284.4585080888675" r="3"></circle><circle cx="38.17" cy="284.73733893842075" r="3"></circle><circle cx="38.17" cy="20" r="3"></circle><circle cx="38.17" cy="303.2756865050186" r="3"></circle><circle cx="38.17" cy="303.5771104143802" r="3"></circle><circle cx="38.17" cy="272.0329769338003" r="3"></circle><circle cx="38.17" cy="288.35013617208523" r="3"></circle><circle cx="38.17" cy="292.65302320455595" r="3"></circle><circle cx="38.17" cy="312.5497652577435" r="3"></circle><circle cx="38.17" cy="312.3444837825402" r="3"></circle><circle cx="38.17" cy="312.74555094818754" r="3"></circle><circle cx="38.17" cy="272.08604988323725" r="3"></circle><circle cx="38.17" cy="292.5622109760266" r="3"></circle><circle cx="38.17" cy="272.2744303889481" r="3"></circle><circle cx="38.17" cy="271.96441497263004" r="3"></circle><circle cx="38.17" cy="272.01587809929896" r="3"></circle><circle cx="38.17" cy="292.3418804783858" r="3"></circle><circle cx="38.17" cy="312.6127071584037" r="3"></circle><circle cx="38.17" cy="312.54001172777555" r="3"></circle><circle cx="38.17" cy="292.9423001116076" r="3"></circle><circle cx="38.17" cy="233.53142289550266" r="3"></circle><circle cx="38.17" cy="292.135307673652" r="3"></circle><circle cx="38.17" cy="313.29061263825355" r="3"></circle><circle cx="38.17" cy="313.12840325125836" r="3"></circle><circle cx="38.17" cy="312.4607155898837" r="3"></circle><circle cx="38.17" cy="312.3628869640066" r="3"></circle><circle cx="38.17" cy="313.05205252494335" r="3"></circle><circle cx="38.17" cy="292.27264508192286" r="3"></circle><circle cx="38.17" cy="291.93041151451814" r="3"></circle><circle cx="38.17" cy="252.50008086107215" r="3"></circle><circle cx="38.17" cy="312.7013151013098" r="3"></circle><circle cx="38.17" cy="292.44535172832656" r="3"></circle><circle cx="38.17" cy="273.28709222166367" r="3"></circle><circle cx="38.17" cy="280.92827697271224" r="3"></circle><circle cx="38.17" cy="312.61623575105864" r="3"></circle><circle cx="38.17" cy="312.716563724414" r="3"></circle><circle cx="38.17" cy="242.48170163630388" r="3"></circle><circle cx="38.17" cy="296.7985086226113" r="3"></circle><circle cx="38.17" cy="272.23072044643556" r="3"></circle><circle cx="38.17" cy="314.5135962969202" r="3"></circle><circle cx="38.17" cy="234.9416935953584" r="3"></circle><circle cx="38.17" cy="273.91482677220404" r="3"></circle><circle cx="38.17" cy="294.2780095485164" r="3"></circle><circle cx="38.17" cy="293.9424157406798" r="3"></circle><circle cx="38.17" cy="314.5452564339691" r="3"></circle><circle cx="38.17" cy="314.5990314570554" r="3"></circle><circle cx="38.17" cy="273.9098454338273" r="3"></circle><circle cx="38.17" cy="314.6823204761095" r="3"></circle><circle cx="38.17" cy="293.9664294365375" r="3"></circle><circle cx="38.17" cy="314.7269963122829" r="3"></circle><circle cx="38.17" cy="279.8149773516936" r="3"></circle><circle cx="38.17" cy="294.235965837656" r="3"></circle><circle cx="38.17" cy="315.1135316815682" r="3"></circle><circle cx="38.17" cy="314.93965954083694" r="3"></circle><circle cx="38.17" cy="315.0516008016762" r="3"></circle><circle cx="38.17" cy="295.02374193838585" r="3"></circle><circle cx="38.17" cy="314.6283918472928" r="3"></circle><circle cx="38.17" cy="314.4884327276568" r="3"></circle><circle cx="38.17" cy="294.5206137448991" r="3"></circle><circle cx="38.17" cy="314.8641280450842" r="3"></circle><circle cx="38.17" cy="314.27821938032884" r="3"></circle><circle cx="38.17" cy="314.61803170486394" r="3"></circle><circle cx="38.17" cy="314.46564093501064" r="3"></circle><circle cx="38.17" cy="294.32482024399417" r="3"></circle><circle cx="38.17" cy="295.0028793295745" r="3"></circle><circle cx="38.17" cy="295.94856993165024" r="3"></circle><circle cx="38.17" cy="294.0468216424381" r="3"></circle><circle cx="38.17" cy="314.5652468746501" r="3"></circle><circle cx="38.17" cy="314.7086521431875" r="3"></circle><circle cx="38.17" cy="335.66473481456245" r="3"></circle><circle cx="38.17" cy="294.4704445512475" r="3"></circle><circle cx="38.17" cy="236.496900414082" r="3"></circle><circle cx="38.17" cy="299.2901740786629" r="3"></circle><circle cx="38.17" cy="276.35329865058964" r="3"></circle><circle cx="38.17" cy="297.1352505681956" r="3"></circle><circle cx="38.17" cy="297.13114573709424" r="3"></circle><circle cx="38.17" cy="238.60879262430336" r="3"></circle><circle cx="38.17" cy="318.22344631734876" r="3"></circle><circle cx="38.17" cy="318.06038645794774" r="3"></circle><circle cx="38.17" cy="296.89702283338687" r="3"></circle><circle cx="38.17" cy="318.4078079070277" r="3"></circle><circle cx="38.17" cy="318.23283015216896" r="3"></circle><circle cx="38.17" cy="297.3905849479665" r="3"></circle><circle cx="38.17" cy="278.48301693600206" r="3"></circle><circle cx="38.17" cy="276.27815854570935" r="3"></circle><circle cx="38.17" cy="276.7956059174569" r="3"></circle><circle cx="38.17" cy="217.9936218167881" r="3"></circle><circle cx="38.17" cy="297.24115260712483" r="3"></circle><circle cx="38.17" cy="276.3038028922308" r="3"></circle><circle cx="38.17" cy="318.02469091611636" r="3"></circle><circle cx="38.17" cy="317.9320874885609" r="3"></circle><circle cx="38.17" cy="318.00387343441224" r="3"></circle><circle cx="38.17" cy="316.59789154540283" r="3"></circle><circle cx="38.17" cy="297.2552218506377" r="3"></circle><circle cx="38.17" cy="278.83437051821534" r="3"></circle><circle cx="38.17" cy="234.35556450204072" r="3"></circle><circle cx="38.17" cy="297.0161931096753" r="3"></circle><circle cx="38.17" cy="317.5658341504957" r="3"></circle><circle cx="38.17" cy="320.2183438985483" r="3"></circle><circle cx="38.17" cy="296.5642937290314" r="3"></circle><circle cx="38.17" cy="217.57507310405686" r="3"></circle><circle cx="38.17" cy="316.88598473371826" r="3"></circle><circle cx="38.17" cy="324.3004769328333" r="3"></circle><circle cx="38.17" cy="299.5728112261465" r="3"></circle><circle cx="38.17" cy="278.16114871140013" r="3"></circle><circle cx="38.17" cy="322.0188469191676" r="3"></circle><circle cx="38.17" cy="300.6640966292901" r="3"></circle><circle cx="38.17" cy="300.82959769162727" r="3"></circle><circle cx="38.17" cy="321.9925256660374" r="3"></circle><circle cx="38.17" cy="321.87249363556646" r="3"></circle><circle cx="38.17" cy="238.35033319235572" r="3"></circle><circle cx="38.17" cy="216.03898369005475" r="3"></circle><circle cx="38.17" cy="217.85330775509706" r="3"></circle><circle cx="38.17" cy="300.60582711988786" r="3"></circle><circle cx="38.17" cy="299.1935664881684" r="3"></circle><circle cx="38.17" cy="299.3625978788185" r="3"></circle><circle cx="38.17" cy="278.530475899732" r="3"></circle><circle cx="38.17" cy="299.9686991884085" r="3"></circle><circle cx="38.17" cy="278.12232724956283" r="3"></circle><circle cx="38.17" cy="321.3176115927005" r="3"></circle><circle cx="38.17" cy="321.94785330118003" r="3"></circle><circle cx="38.17" cy="300.5877242072504" r="3"></circle><circle cx="38.17" cy="321.56785962678737" r="3"></circle><circle cx="38.17" cy="322.03147209524855" r="3"></circle><circle cx="38.17" cy="320.13392409832613" r="3"></circle><circle cx="38.17" cy="321.97905175320864" r="3"></circle><circle cx="38.17" cy="299.00022113283154" r="3"></circle><circle cx="38.17" cy="300.5269692356337" r="3"></circle><circle cx="38.17" cy="299.79057208216125" r="3"></circle><circle cx="38.17" cy="299.5385779761556" r="3"></circle><circle cx="38.17" cy="278.01754123870904" r="3"></circle><circle cx="38.17" cy="300.3851685828905" r="3"></circle><circle cx="38.17" cy="276.95209891492453" r="3"></circle><circle cx="38.17" cy="321.96286240348417" r="3"></circle><circle cx="38.17" cy="247.5838626357333" r="3"></circle><circle cx="38.17" cy="305.46779995883026" r="3"></circle><circle cx="38.17" cy="283.0473426573277" r="3"></circle><circle cx="38.17" cy="327.4027425239357" r="3"></circle><circle cx="38.17" cy="305.2710466390673" r="3"></circle><circle cx="38.17" cy="327.463701435364" r="3"></circle><circle cx="38.17" cy="327.32523845289893" r="3"></circle><circle cx="38.17" cy="312.0696666420448" r="3"></circle><circle cx="38.17" cy="304.2472540317838" r="3"></circle><circle cx="38.17" cy="327.3584146871855" r="3"></circle><circle cx="38.17" cy="304.47456274229717" r="3"></circle><circle cx="38.17" cy="305.1778825939874" r="3"></circle><circle cx="38.17" cy="327.5168576963835" r="3"></circle><circle cx="38.17" cy="172.8901715890905" r="3"></circle><circle cx="38.17" cy="329.2511175948819" r="3"></circle><circle cx="38.17" cy="304.9424779068684" r="3"></circle><circle cx="38.17" cy="329.0476186404147" r="3"></circle><circle cx="38.17" cy="306.1927660689057" r="3"></circle><circle cx="38.17" cy="327.5494559565658" r="3"></circle><circle cx="38.17" cy="304.391574859901" r="3"></circle><circle cx="38.17" cy="283.82878968126636" r="3"></circle><circle cx="38.17" cy="327.48040887899276" r="3"></circle><circle cx="38.17" cy="236.5455942984583" r="3"></circle><circle cx="38.17" cy="327.3764108568577" r="3"></circle><circle cx="38.17" cy="327.8669876397273" r="3"></circle><circle cx="38.17" cy="305.2313425951519" r="3"></circle><circle cx="38.17" cy="328.7863153328816" r="3"></circle><circle cx="38.17" cy="329.1846488372247" r="3"></circle><circle cx="38.17" cy="327.8655557219012" r="3"></circle><circle cx="38.17" cy="327.5528621853339" r="3"></circle><circle cx="38.17" cy="312.25439445555565" r="3"></circle><circle cx="38.17" cy="305.17721696915544" r="3"></circle><circle cx="38.17" cy="343.41697911220103" r="3"></circle><circle cx="38.17" cy="275.2723004922401" r="3"></circle><circle cx="38.17" cy="297.9953793071043" r="3"></circle><circle cx="38.17" cy="305.570136088458" r="3"></circle><circle cx="38.17" cy="282.137854409211" r="3"></circle><circle cx="38.17" cy="329.228554041259" r="3"></circle><circle cx="38.17" cy="329.2542105373862" r="3"></circle><circle cx="38.17" cy="329.276483368299" r="3"></circle><circle cx="38.17" cy="305.6303035398516" r="3"></circle><circle cx="38.17" cy="329.1786825129495" r="3"></circle><circle cx="38.17" cy="305.7093974735897" r="3"></circle><circle cx="38.17" cy="329.13210960261375" r="3"></circle><circle cx="38.17" cy="281.99928902292567" r="3"></circle><circle cx="38.17" cy="321.80151043152665" r="3"></circle><circle cx="38.17" cy="274.81563499480785" r="3"></circle><circle cx="38.17" cy="305.5745741658899" r="3"></circle><circle cx="38.17" cy="321.48162519615653" r="3"></circle><circle cx="38.17" cy="296.9896184504814" r="3"></circle><circle cx="38.17" cy="329.10039739582567" r="3"></circle><circle cx="38.17" cy="329.1278945572312" r="3"></circle><circle cx="38.17" cy="321.56751249519317" r="3"></circle><circle cx="38.17" cy="305.43591678973206" r="3"></circle><circle cx="38.17" cy="320.3230596152543" r="3"></circle><circle cx="38.17" cy="329.20192384101" r="3"></circle><circle cx="38.17" cy="321.6406513864329" r="3"></circle><circle cx="38.17" cy="329.2958802139538" r="3"></circle><circle cx="38.17" cy="321.6575497524385" r="3"></circle><circle cx="38.17" cy="297.24003050424653" r="3"></circle><circle cx="38.17" cy="274.610205120848" r="3"></circle><circle cx="38.17" cy="306.0287082061714" r="3"></circle><circle cx="38.17" cy="296.18429137634894" r="3"></circle><circle cx="38.17" cy="320.6665072754097" r="3"></circle><circle cx="38.17" cy="301.0135114815497" r="3"></circle><circle cx="38.17" cy="261.2692784057596" r="3"></circle><circle cx="38.17" cy="310.281166564124" r="3"></circle><circle cx="38.17" cy="309.8201810140019" r="3"></circle><circle cx="38.17" cy="309.9457888457048" r="3"></circle><circle cx="38.17" cy="334.42258688840906" r="3"></circle><circle cx="38.17" cy="334.5278745044165" r="3"></circle><circle cx="38.17" cy="334.5977763935403" r="3"></circle><circle cx="38.17" cy="334.57915712265645" r="3"></circle><circle cx="38.17" cy="334.4758811342374" r="3"></circle><circle cx="38.17" cy="334.3851027510384" r="3"></circle><circle cx="38.17" cy="285.8715436918711" r="3"></circle><circle cx="38.17" cy="334.47003977733607" r="3"></circle><circle cx="38.17" cy="310.01482203801413" r="3"></circle><circle cx="38.17" cy="334.6961378664145" r="3"></circle><circle cx="38.17" cy="309.95231578750474" r="3"></circle><circle cx="38.17" cy="334.6162038742183" r="3"></circle><circle cx="38.17" cy="335.0508325902219" r="3"></circle><circle cx="38.17" cy="310.1411918235662" r="3"></circle><circle cx="38.17" cy="334.3443677262883" r="3"></circle><circle cx="38.17" cy="334.51839520840787" r="3"></circle><circle cx="38.17" cy="334.4146150113483" r="3"></circle><circle cx="38.17" cy="334.50510961446895" r="3"></circle><circle cx="38.17" cy="334.44990180572756" r="3"></circle><circle cx="38.17" cy="310.02950744010667" r="3"></circle><circle cx="38.17" cy="310.21402784249" r="3"></circle><circle cx="38.17" cy="306.1884703154276" r="3"></circle><circle cx="38.17" cy="467.54903811903796" r="3"></circle><circle cx="38.17" cy="334.52332534487454" r="3"></circle><circle cx="38.17" cy="334.5505135591611" r="3"></circle><circle cx="38.17" cy="334.5304120363701" r="3"></circle><circle cx="38.17" cy="310.35958532691143" r="3"></circle><circle cx="38.17" cy="242.935385273342" r="3"></circle><circle cx="38.17" cy="307.43453128247654" r="3"></circle><circle cx="38.17" cy="307.74770819978875" r="3"></circle><circle cx="38.17" cy="307.405423430474" r="3"></circle><circle cx="38.17" cy="307.44897889942706" r="3"></circle><circle cx="38.17" cy="332.1046425708452" r="3"></circle><circle cx="38.17" cy="237.83806502399364" r="3"></circle><circle cx="38.17" cy="332.0886380686947" r="3"></circle><circle cx="38.17" cy="332.0170282921274" r="3"></circle><circle cx="38.17" cy="332.13660991935495" r="3"></circle><circle cx="38.17" cy="332.24604575791307" r="3"></circle><circle cx="38.17" cy="290.2268345776311" r="3"></circle><circle cx="38.17" cy="332.0844855069991" r="3"></circle><circle cx="38.17" cy="307.6509739062624" r="3"></circle><circle cx="38.17" cy="338.18304001698186" r="3"></circle><circle cx="38.17" cy="332.10961870224804" r="3"></circle><circle cx="38.17" cy="338.0375302631547" r="3"></circle><circle cx="38.17" cy="332.77334732779093" r="3"></circle><circle cx="38.17" cy="332.113930944477" r="3"></circle><circle cx="38.17" cy="307.47794182398906" r="3"></circle><circle cx="38.17" cy="337.9390872143558" r="3"></circle><circle cx="38.17" cy="331.95479801123537" r="3"></circle><circle cx="38.17" cy="331.98526401560025" r="3"></circle><circle cx="38.17" cy="332.04618474255307" r="3"></circle><circle cx="38.17" cy="307.456823205627" r="3"></circle><circle cx="38.17" cy="236.90160899015257" r="3"></circle><circle cx="38.17" cy="244.02968725003916" r="3"></circle><circle cx="38.17" cy="282.8073610401392" r="3"></circle><circle cx="38.17" cy="332.2140263396642" r="3"></circle><circle cx="38.17" cy="332.06758106619054" r="3"></circle><circle cx="38.17" cy="332.40242333412573" r="3"></circle><circle cx="38.17" cy="332.282852120846" r="3"></circle><circle cx="38.17" cy="338.96602830519873" r="3"></circle><circle cx="38.17" cy="299.50272535727777" r="3"></circle><circle cx="38.17" cy="177.53975022646443" r="3"></circle><circle cx="38.17" cy="324.08566929885615" r="3"></circle><circle cx="38.17" cy="323.9315506814927" r="3"></circle><circle cx="38.17" cy="324.07290700579546" r="3"></circle><circle cx="38.17" cy="274.335131102973" r="3"></circle><circle cx="38.17" cy="249.43600061316067" r="3"></circle><circle cx="38.17" cy="324.07372710418673" r="3"></circle><circle cx="38.17" cy="323.92874412255367" r="3"></circle><circle cx="38.17" cy="323.9964963992804" r="3"></circle><circle cx="38.17" cy="324.0329660445669" r="3"></circle><circle cx="38.17" cy="299.2842789163644" r="3"></circle><circle cx="38.17" cy="324.04678708898996" r="3"></circle><circle cx="38.17" cy="324.0275629413032" r="3"></circle><circle cx="38.17" cy="324.0309127611872" r="3"></circle><circle cx="38.17" cy="324.07743273395477" r="3"></circle><circle cx="38.17" cy="225.39090236363384" r="3"></circle><circle cx="38.17" cy="299.2056857199508" r="3"></circle><circle cx="38.17" cy="324.0095919386715" r="3"></circle><circle cx="38.17" cy="324.20638517856776" r="3"></circle><circle cx="38.17" cy="299.12478409843584" r="3"></circle><circle cx="38.17" cy="298.997142075591" r="3"></circle><circle cx="38.17" cy="226.79432762845198" r="3"></circle><circle cx="38.17" cy="324.10294603829936" r="3"></circle><circle cx="38.17" cy="324.0172132128222" r="3"></circle><circle cx="38.17" cy="324.0815766173605" r="3"></circle><circle cx="38.17" cy="324.6263901083367" r="3"></circle><circle cx="38.17" cy="324.08244010720114" r="3"></circle><circle cx="38.17" cy="274.96630833109884" r="3"></circle><circle cx="38.17" cy="274.29797847627486" r="3"></circle><circle cx="38.17" cy="323.9263046552754" r="3"></circle><circle cx="38.17" cy="331.4208835844881" r="3"></circle><circle cx="38.17" cy="337.6006694910004" r="3"></circle><circle cx="38.17" cy="312.47573423830664" r="3"></circle><circle cx="38.17" cy="337.5947222589628" r="3"></circle><circle cx="38.17" cy="238.6243302344597" r="3"></circle><circle cx="38.17" cy="337.7232919909931" r="3"></circle><circle cx="38.17" cy="313.05436355353174" r="3"></circle><circle cx="38.17" cy="337.7173985643526" r="3"></circle><circle cx="38.17" cy="337.76121351417237" r="3"></circle><circle cx="38.17" cy="337.7772952531027" r="3"></circle><circle cx="38.17" cy="337.5639447039921" r="3"></circle><circle cx="38.17" cy="337.6386647796434" r="3"></circle><circle cx="38.17" cy="338.9108465313269" r="3"></circle><circle cx="38.17" cy="337.6646718786808" r="3"></circle><circle cx="38.17" cy="337.8357452709338" r="3"></circle><circle cx="38.17" cy="338.76863886678944" r="3"></circle><circle cx="38.17" cy="337.89522540177086" r="3"></circle><circle cx="38.17" cy="337.72511443186266" r="3"></circle><circle cx="38.17" cy="337.4699128299266" r="3"></circle><circle cx="38.17" cy="339.06247621515985" r="3"></circle><circle cx="38.17" cy="338.8736956402867" r="3"></circle><circle cx="38.17" cy="287.69784032559727" r="3"></circle><circle cx="38.17" cy="337.70152250089194" r="3"></circle><circle cx="38.17" cy="338.32461416635994" r="3"></circle><circle cx="38.17" cy="338.2887433230734" r="3"></circle><circle cx="38.17" cy="347.7322934557441" r="3"></circle><circle cx="38.17" cy="336.6659022523651" r="3"></circle><circle cx="38.17" cy="336.50991346353794" r="3"></circle><circle cx="38.17" cy="336.4767259474746" r="3"></circle><circle cx="38.17" cy="336.7080153895443" r="3"></circle><circle cx="38.17" cy="336.53865162039267" r="3"></circle><circle cx="38.17" cy="336.7806283764188" r="3"></circle><circle cx="38.17" cy="336.7777168101724" r="3"></circle><circle cx="38.17" cy="336.70333431999654" r="3"></circle><circle cx="38.17" cy="343.219339739044" r="3"></circle><circle cx="38.17" cy="336.70094084765446" r="3"></circle><circle cx="38.17" cy="337.1989184761124" r="3"></circle><circle cx="38.17" cy="336.50101127380475" r="3"></circle><circle cx="38.17" cy="241.59289462074045" r="3"></circle><circle cx="38.17" cy="336.6111300937744" r="3"></circle><circle cx="38.17" cy="336.6586758404028" r="3"></circle><circle cx="38.17" cy="336.6320031165336" r="3"></circle><circle cx="38.17" cy="336.9066553695217" r="3"></circle><circle cx="38.17" cy="333.57744989522485" r="3"></circle><circle cx="38.17" cy="333.4078665653399" r="3"></circle><circle cx="38.17" cy="339.9615218770942" r="3"></circle><circle cx="38.17" cy="339.9918290687547" r="3"></circle><circle cx="38.17" cy="339.8408398427129" r="3"></circle><circle cx="38.17" cy="340.0704673922755" r="3"></circle><circle cx="38.17" cy="333.4940011956374" r="3"></circle><circle cx="38.17" cy="333.8956836520356" r="3"></circle><circle cx="38.17" cy="339.91602507470054" r="3"></circle><circle cx="38.17" cy="347.37748070719476" r="3"></circle><circle cx="38.17" cy="336.5976943654209" r="3"></circle><circle cx="38.17" cy="333.5690684028829" r="3"></circle><circle cx="38.17" cy="333.9745910025419" r="3"></circle><circle cx="38.17" cy="376.6764460089346" r="3"></circle><circle cx="38.17" cy="333.34659436764787" r="3"></circle><circle cx="38.17" cy="340.00437700805605" r="3"></circle><circle cx="38.17" cy="333.9217584417338" r="3"></circle><circle cx="38.17" cy="333.1370171389663" r="3"></circle><circle cx="38.17" cy="338.4783891234451" r="3"></circle><circle cx="38.17" cy="340.3473942250346" r="3"></circle><circle cx="38.17" cy="346.55113134371754" r="3"></circle><circle cx="38.17" cy="346.79877936216394" r="3"></circle><circle cx="38.17" cy="346.5492212521205" r="3"></circle><circle cx="38.17" cy="304.250536161007" r="3"></circle><circle cx="38.17" cy="346.55712196720447" r="3"></circle><circle cx="38.17" cy="346.51352137114407" r="3"></circle><circle cx="38.17" cy="346.64213536245273" r="3"></circle><circle cx="38.17" cy="346.79004292776693" r="3"></circle><circle cx="38.17" cy="340.42085768431485" r="3"></circle><circle cx="38.17" cy="340.4595507074622" r="3"></circle><circle cx="38.17" cy="346.0317513168194" r="3"></circle><circle cx="38.17" cy="346.7360327230256" r="3"></circle><circle cx="38.17" cy="340.62885980338774" r="3"></circle><circle cx="38.17" cy="346.6209742204704" r="3"></circle><circle cx="38.17" cy="342.09567216513557" r="3"></circle><circle cx="38.17" cy="346.61521183600667" r="3"></circle><circle cx="38.17" cy="346.69092644367527" r="3"></circle><circle cx="38.17" cy="340.74317717998923" r="3"></circle><circle cx="38.17" cy="365.305033745049" r="3"></circle><circle cx="38.17" cy="340.89799960665994" r="3"></circle><circle cx="38.17" cy="349.62225315601745" r="3"></circle><circle cx="38.17" cy="341.03583948791334" r="3"></circle><circle cx="38.17" cy="341.0098245784151" r="3"></circle><circle cx="38.17" cy="341.04739636651317" r="3"></circle><circle cx="38.17" cy="340.9056798931815" r="3"></circle><circle cx="38.17" cy="341.0869893283185" r="3"></circle><circle cx="38.17" cy="341.2051060602186" r="3"></circle><circle cx="38.17" cy="341.0758863242781" r="3"></circle><circle cx="38.17" cy="341.16429293085963" r="3"></circle><circle cx="38.17" cy="343.3287530140485" r="3"></circle><circle cx="38.17" cy="343.20556208607024" r="3"></circle><circle cx="38.17" cy="345.887326349224" r="3"></circle><circle cx="38.17" cy="340.98275699235745" r="3"></circle><circle cx="38.17" cy="343.1606311081751" r="3"></circle><circle cx="38.17" cy="341.0133071761339" r="3"></circle><circle cx="38.17" cy="341.08253389430695" r="3"></circle><circle cx="38.17" cy="341.2599172711136" r="3"></circle><circle cx="38.17" cy="341.0630624153593" r="3"></circle><circle cx="38.17" cy="343.2822634152954" r="3"></circle><circle cx="38.17" cy="360.14524022269273" r="3"></circle><circle cx="38.17" cy="348.23072669441945" r="3"></circle><circle cx="38.17" cy="342.53727301920856" r="3"></circle><circle cx="38.17" cy="342.5159348401132" r="3"></circle><circle cx="38.17" cy="342.54515550988384" r="3"></circle><circle cx="38.17" cy="342.5910202717674" r="3"></circle><circle cx="38.17" cy="342.5965127614166" r="3"></circle><circle cx="38.17" cy="342.77320447852173" r="3"></circle><circle cx="38.17" cy="342.4382224901199" r="3"></circle><circle cx="38.17" cy="342.5766958865328" r="3"></circle><circle cx="38.17" cy="342.7130613263398" r="3"></circle><circle cx="38.17" cy="342.5873545621326" r="3"></circle><circle cx="38.17" cy="342.6317110372393" r="3"></circle><circle cx="38.17" cy="349.23192971321043" r="3"></circle><circle cx="38.17" cy="342.33984452849495" r="3"></circle><circle cx="38.17" cy="342.5742147634632" r="3"></circle><circle cx="38.17" cy="342.5815713497733" r="3"></circle><circle cx="38.17" cy="342.3670301392947" r="3"></circle><circle cx="38.17" cy="342.4713136771659" r="3"></circle><circle cx="38.17" cy="342.5649645743068" r="3"></circle><circle cx="38.17" cy="342.62520926248" r="3"></circle><circle cx="38.17" cy="371.8746883519799" r="3"></circle><circle cx="38.17" cy="342.5993505621992" r="3"></circle><circle cx="38.17" cy="371.08996006664717" r="3"></circle><circle cx="38.17" cy="347.2025333263504" r="3"></circle><circle cx="38.17" cy="345.2679706875386" r="3"></circle><circle cx="38.17" cy="345.1590060801195" r="3"></circle><circle cx="38.17" cy="344.81426795826275" r="3"></circle><circle cx="38.17" cy="345.0326744790428" r="3"></circle><circle cx="38.17" cy="345.1112459797318" r="3"></circle><circle cx="38.17" cy="344.9930980059882" r="3"></circle><circle cx="38.17" cy="236.45694556758974" r="3"></circle><circle cx="38.17" cy="345.28352391861665" r="3"></circle><circle cx="38.17" cy="344.92921190739185" r="3"></circle><circle cx="38.17" cy="345.1097576530216" r="3"></circle><circle cx="38.17" cy="359.0693101856185" r="3"></circle><circle cx="38.17" cy="344.85770106332893" r="3"></circle><circle cx="38.17" cy="345.07509135636695" r="3"></circle><circle cx="38.17" cy="345.2847475574862" r="3"></circle><circle cx="38.17" cy="344.8387962767088" r="3"></circle><circle cx="38.17" cy="345.4216987818584" r="3"></circle><circle cx="38.17" cy="344.9920505364027" r="3"></circle><circle cx="38.17" cy="345.135221491114" r="3"></circle><circle cx="38.17" cy="345.1504189123081" r="3"></circle><circle cx="38.17" cy="345.1962888811655" r="3"></circle><circle cx="38.17" cy="344.7880786151385" r="3"></circle><circle cx="38.17" cy="360.34551345682087" r="3"></circle><circle cx="38.17" cy="353.0872400212141" r="3"></circle><circle cx="38.17" cy="354.5399180522751" r="3"></circle><circle cx="38.17" cy="354.1413528375929" r="3"></circle><circle cx="38.17" cy="354.7398259304003" r="3"></circle><circle cx="38.17" cy="354.6994796930355" r="3"></circle><circle cx="38.17" cy="354.94993513825" r="3"></circle><circle cx="38.17" cy="354.86912377094944" r="3"></circle><circle cx="38.17" cy="354.7751587197158" r="3"></circle><circle cx="38.17" cy="354.1519012989116" r="3"></circle><circle cx="38.17" cy="354.7677674202463" r="3"></circle><circle cx="38.17" cy="354.82230786849783" r="3"></circle><circle cx="38.17" cy="364.74178149161804" r="3"></circle><circle cx="38.17" cy="354.8942769262651" r="3"></circle><circle cx="38.17" cy="354.7408968313684" r="3"></circle><circle cx="38.17" cy="354.69858322569354" r="3"></circle><circle cx="38.17" cy="354.78057310475634" r="3"></circle><circle cx="38.17" cy="349.80348188305874" r="3"></circle><circle cx="38.17" cy="354.8580398591467" r="3"></circle><circle cx="38.17" cy="354.4328973817836" r="3"></circle><circle cx="38.17" cy="354.7971200000228" r="3"></circle><circle cx="38.17" cy="354.32438838458205" r="3"></circle><circle cx="38.17" cy="353.8998933076422" r="3"></circle><circle cx="38.17" cy="354.08642967675877" r="3"></circle><circle cx="38.17" cy="355.0327364374142" r="3"></circle><circle cx="38.17" cy="349.4145669266953" r="3"></circle><circle cx="38.17" cy="348.7461459498278" r="3"></circle><circle cx="38.17" cy="356.39579029782703" r="3"></circle><circle cx="38.17" cy="340.6684918174974" r="3"></circle><circle cx="38.17" cy="339.35884762416794" r="3"></circle><circle cx="38.17" cy="339.35703386158826" r="3"></circle><circle cx="38.17" cy="339.5646975273568" r="3"></circle><circle cx="38.17" cy="339.28965214783835" r="3"></circle><circle cx="38.17" cy="339.3207724952583" r="3"></circle><circle cx="38.17" cy="339.20767962535524" r="3"></circle><circle cx="38.17" cy="340.65048176256136" r="3"></circle><circle cx="38.17" cy="342.8137806905676" r="3"></circle><circle cx="38.17" cy="339.4957528536041" r="3"></circle><circle cx="38.17" cy="342.77119979356524" r="3"></circle><circle cx="38.17" cy="339.44906625767123" r="3"></circle><circle cx="38.17" cy="339.28205170158344" r="3"></circle><circle cx="38.17" cy="342.52964393459706" r="3"></circle><circle cx="38.17" cy="339.32415442481476" r="3"></circle><circle cx="38.17" cy="340.43275128056104" r="3"></circle><circle cx="38.17" cy="341.9009226625002" r="3"></circle><circle cx="38.17" cy="339.28769692913403" r="3"></circle><circle cx="38.17" cy="351.70529786293184" r="3"></circle><circle cx="38.17" cy="236.11790647868068" r="3"></circle><circle cx="38.17" cy="351.61194723461995" r="3"></circle><circle cx="38.17" cy="351.4880733252301" r="3"></circle><circle cx="38.17" cy="351.5941602117332" r="3"></circle><circle cx="38.17" cy="351.5526727792525" r="3"></circle><circle cx="38.17" cy="351.53884479219766" r="3"></circle><circle cx="38.17" cy="351.67471643731193" r="3"></circle><circle cx="38.17" cy="352.1918982533899" r="3"></circle><circle cx="38.17" cy="351.6025686067737" r="3"></circle><circle cx="38.17" cy="352.0511624268118" r="3"></circle><circle cx="38.17" cy="351.5469928385424" r="3"></circle><circle cx="38.17" cy="351.53967530453673" r="3"></circle><circle cx="38.17" cy="351.8801471791008" r="3"></circle><circle cx="38.17" cy="351.51672817050223" r="3"></circle><circle cx="38.17" cy="352.25262024750515" r="3"></circle><circle cx="38.17" cy="351.5586686097134" r="3"></circle><circle cx="38.17" cy="351.5395529406498" r="3"></circle><circle cx="38.17" cy="351.8872026287529" r="3"></circle><circle cx="38.17" cy="352.1948427971377" r="3"></circle><circle cx="38.17" cy="351.613199511846" r="3"></circle><circle cx="38.17" cy="351.7868121717106" r="3"></circle><circle cx="38.17" cy="351.4540205836681" r="3"></circle><circle cx="38.17" cy="358.6345365421745" r="3"></circle><circle cx="38.17" cy="365.55257328487215" r="3"></circle><circle cx="38.17" cy="352.8664209358543" r="3"></circle><circle cx="38.17" cy="352.98980625752534" r="3"></circle><circle cx="38.17" cy="352.96109066422423" r="3"></circle><circle cx="38.17" cy="352.93562335481585" r="3"></circle><circle cx="38.17" cy="352.98521631002103" r="3"></circle><circle cx="38.17" cy="352.96633408695465" r="3"></circle><circle cx="38.17" cy="353.0164173655366" r="3"></circle><circle cx="38.17" cy="353.10547397602835" r="3"></circle><circle cx="38.17" cy="365.3874558029466" r="3"></circle><circle cx="38.17" cy="354.3964051729435" r="3"></circle><circle cx="38.17" cy="352.9173876643436" r="3"></circle><circle cx="38.17" cy="354.3871697368798" r="3"></circle><circle cx="38.17" cy="352.564261107513" r="3"></circle><circle cx="38.17" cy="352.89995471568295" r="3"></circle><circle cx="38.17" cy="352.90351888932634" r="3"></circle><circle cx="38.17" cy="354.3257942675385" r="3"></circle><circle cx="38.17" cy="352.9289931413666" r="3"></circle><circle cx="38.17" cy="240.0562541353326" r="3"></circle><circle cx="38.17" cy="365.37296826586277" r="3"></circle><circle cx="38.17" cy="354.2848726595564" r="3"></circle><circle cx="38.17" cy="412.8492608049178" r="3"></circle><circle cx="38.17" cy="352.9549950334301" r="3"></circle><circle cx="38.17" cy="351.82198528049287" r="3"></circle><circle cx="38.17" cy="348.5498395619925" r="3"></circle><circle cx="38.17" cy="348.53088791260717" r="3"></circle><circle cx="38.17" cy="348.59579804940637" r="3"></circle><circle cx="38.17" cy="348.4722738750977" r="3"></circle><circle cx="38.17" cy="348.5101502711697" r="3"></circle><circle cx="38.17" cy="348.4884450004135" r="3"></circle><circle cx="38.17" cy="348.485364207515" r="3"></circle><circle cx="38.17" cy="348.52166722963625" r="3"></circle><circle cx="38.17" cy="348.4909703827613" r="3"></circle><circle cx="38.17" cy="349.6044565870119" r="3"></circle><circle cx="38.17" cy="348.5400842963665" r="3"></circle><circle cx="38.17" cy="349.9587798800135" r="3"></circle><circle cx="38.17" cy="348.5136189836248" r="3"></circle><circle cx="38.17" cy="348.6585577059796" r="3"></circle><circle cx="38.17" cy="350.05297403809925" r="3"></circle><circle cx="38.17" cy="348.5827276770558" r="3"></circle><circle cx="38.17" cy="348.88450999978846" r="3"></circle><circle cx="38.17" cy="348.5735477820473" r="3"></circle><circle cx="38.17" cy="348.61534155815974" r="3"></circle><circle cx="38.17" cy="348.5354110372795" r="3"></circle><circle cx="38.17" cy="375.25276040862104" r="3"></circle><circle cx="38.17" cy="348.68665627287197" r="3"></circle><circle cx="38.17" cy="348.3028753927867" r="3"></circle><circle cx="38.17" cy="351.01480018450235" r="3"></circle><circle cx="38.17" cy="360.7207158473845" r="3"></circle><circle cx="38.17" cy="360.6759714527212" r="3"></circle><circle cx="38.17" cy="360.0490795641258" r="3"></circle><circle cx="38.17" cy="360.27363291761014" r="3"></circle><circle cx="38.17" cy="360.0484417098215" r="3"></circle><circle cx="38.17" cy="360.135353047061" r="3"></circle><circle cx="38.17" cy="360.12458589283796" r="3"></circle><circle cx="38.17" cy="360.0886100422442" r="3"></circle><circle cx="38.17" cy="360.17183484195334" r="3"></circle><circle cx="38.17" cy="360.2206363371237" r="3"></circle><circle cx="38.17" cy="360.29165859346784" r="3"></circle><circle cx="38.17" cy="360.5543538986937" r="3"></circle><circle cx="38.17" cy="361.7963065633254" r="3"></circle><circle cx="38.17" cy="349.61670859662905" r="3"></circle><circle cx="38.17" cy="359.72982003345425" r="3"></circle><circle cx="38.17" cy="360.0840487330964" r="3"></circle><circle cx="38.17" cy="361.79396168940656" r="3"></circle><circle cx="38.17" cy="360.07178544170233" r="3"></circle><circle cx="38.17" cy="360.4746359959149" r="3"></circle><circle cx="38.17" cy="360.20422395535" r="3"></circle><circle cx="38.17" cy="360.72632722960475" r="3"></circle><circle cx="38.17" cy="360.15169947383185" r="3"></circle><circle cx="38.17" cy="392.08692355804203" r="3"></circle><circle cx="38.17" cy="360.91879347417927" r="3"></circle><circle cx="38.17" cy="359.66863808997664" r="3"></circle><circle cx="38.17" cy="367.06559320095283" r="3"></circle><circle cx="38.17" cy="363.54692937734524" r="3"></circle><circle cx="38.17" cy="363.414581117912" r="3"></circle><circle cx="38.17" cy="360.735048910909" r="3"></circle><circle cx="38.17" cy="360.7962074230039" r="3"></circle><circle cx="38.17" cy="360.7194696449613" r="3"></circle><circle cx="38.17" cy="360.7253222836395" r="3"></circle><circle cx="38.17" cy="360.82670466921223" r="3"></circle><circle cx="38.17" cy="360.83554871440344" r="3"></circle><circle cx="38.17" cy="363.29207490700327" r="3"></circle><circle cx="38.17" cy="360.77178411186503" r="3"></circle><circle cx="38.17" cy="361.7266658907262" r="3"></circle><circle cx="38.17" cy="360.06809716851393" r="3"></circle><circle cx="38.17" cy="360.9350505145646" r="3"></circle><circle cx="38.17" cy="360.81122954274286" r="3"></circle><circle cx="38.17" cy="361.7590341762273" r="3"></circle><circle cx="38.17" cy="360.77157062593466" r="3"></circle><circle cx="38.17" cy="361.81611215643244" r="3"></circle><circle cx="38.17" cy="360.6625678340403" r="3"></circle><circle cx="38.17" cy="363.5144439349311" r="3"></circle><circle cx="38.17" cy="361.6661374224747" r="3"></circle><circle cx="38.17" cy="409.9431618811841" r="3"></circle><circle cx="38.17" cy="363.4378458773552" r="3"></circle><circle cx="38.17" cy="360.6478754893158" r="3"></circle><circle cx="38.17" cy="359.67866672173307" r="3"></circle><circle cx="38.17" cy="457.5769948872923" r="3"></circle><circle cx="38.17" cy="357.2991837829787" r="3"></circle><circle cx="38.17" cy="357.2267165913737" r="3"></circle><circle cx="38.17" cy="357.30784905539883" r="3"></circle><circle cx="38.17" cy="357.31765118379" r="3"></circle><circle cx="38.17" cy="357.3597920914968" r="3"></circle><circle cx="38.17" cy="357.3360196520971" r="3"></circle><circle cx="38.17" cy="357.27109910135005" r="3"></circle><circle cx="38.17" cy="222.6480871991794" r="3"></circle><circle cx="38.17" cy="357.3954572593138" r="3"></circle><circle cx="38.17" cy="357.3561428706128" r="3"></circle><circle cx="38.17" cy="357.28981556908025" r="3"></circle><circle cx="38.17" cy="357.4823894244489" r="3"></circle><circle cx="38.17" cy="357.0481156505004" r="3"></circle><circle cx="38.17" cy="357.38678938340655" r="3"></circle><circle cx="38.17" cy="356.9932549733533" r="3"></circle><circle cx="38.17" cy="356.7582729189503" r="3"></circle><circle cx="38.17" cy="357.40498862506155" r="3"></circle><circle cx="38.17" cy="357.3128486181843" r="3"></circle><circle cx="38.17" cy="357.000337325704" r="3"></circle><circle cx="38.17" cy="358.2632011975701" r="3"></circle><circle cx="38.17" cy="357.32731793085946" r="3"></circle><circle cx="38.17" cy="221.09892654499774" r="3"></circle><circle cx="38.17" cy="356.92303719447875" r="3"></circle><circle cx="38.17" cy="471" r="3"></circle><circle cx="38.17" cy="357.26907532415584" r="3"></circle><circle cx="38.17" cy="357.3635897111373" r="3"></circle><circle cx="38.17" cy="356.683550239812" r="3"></circle><circle cx="38.17" cy="356.7824315422485" r="3"></circle><circle cx="38.17" cy="361.53935715381243" r="3"></circle><circle cx="38.17" cy="361.7857320671371" r="3"></circle><circle cx="38.17" cy="361.7970398788181" r="3"></circle><circle cx="38.17" cy="361.84038880447264" r="3"></circle><circle cx="38.17" cy="361.9506638336598" r="3"></circle><circle cx="38.17" cy="361.8098420920122" r="3"></circle><circle cx="38.17" cy="361.78662506316317" r="3"></circle><circle cx="38.17" cy="361.8162666299918" r="3"></circle><circle cx="38.17" cy="361.79230153255736" r="3"></circle><circle cx="38.17" cy="361.61472462988695" r="3"></circle><circle cx="38.17" cy="361.58310094165546" r="3"></circle><circle cx="38.17" cy="234.43149693478475" r="3"></circle><circle cx="38.17" cy="361.63220617697084" r="3"></circle><circle cx="38.17" cy="362.8833734497705" r="3"></circle><circle cx="38.17" cy="361.74442427525645" r="3"></circle><circle cx="38.17" cy="361.77078371286194" r="3"></circle><circle cx="38.17" cy="362.6262825841329" r="3"></circle><circle cx="38.17" cy="361.9008140010748" r="3"></circle><circle cx="38.17" cy="361.74148754196943" r="3"></circle><circle cx="38.17" cy="362.01375934005034" r="3"></circle><circle cx="38.17" cy="361.6402457446925" r="3"></circle><circle cx="38.17" cy="393.3889820582092" r="3"></circle><circle cx="38.17" cy="361.6872343451122" r="3"></circle><circle cx="38.17" cy="361.81751630373094" r="3"></circle><circle cx="38.17" cy="361.1351041879593" r="3"></circle><circle cx="38.17" cy="393.9190667556434" r="3"></circle><circle cx="38.17" cy="372.6587944039301" r="3"></circle><circle cx="38.17" cy="362.0899217474755" r="3"></circle><circle cx="38.17" cy="362.0844231830234" r="3"></circle><circle cx="38.17" cy="362.19888809055254" r="3"></circle><circle cx="38.17" cy="362.2167835920624" r="3"></circle><circle cx="38.17" cy="362.3908831039879" r="3"></circle><circle cx="38.17" cy="362.47764517464196" r="3"></circle><circle cx="38.17" cy="362.27468774546173" r="3"></circle><circle cx="38.17" cy="362.2697116140589" r="3"></circle><circle cx="38.17" cy="361.9186713181095" r="3"></circle><circle cx="38.17" cy="362.1018387751044" r="3"></circle><circle cx="38.17" cy="362.2197533028508" r="3"></circle><circle cx="38.17" cy="362.16760198779633" r="3"></circle><circle cx="38.17" cy="363.1806734357931" r="3"></circle><circle cx="38.17" cy="362.2525398819228" r="3"></circle><circle cx="38.17" cy="362.0935405943451" r="3"></circle><circle cx="38.17" cy="362.2266490719696" r="3"></circle><circle cx="38.17" cy="363.43850282389724" r="3"></circle><circle cx="38.17" cy="362.1727872659847" r="3"></circle><circle cx="38.17" cy="362.0092370832069" r="3"></circle><circle cx="38.17" cy="362.26234374597203" r="3"></circle><circle cx="38.17" cy="362.1743996922397" r="3"></circle><circle cx="38.17" cy="362.1107383613506" r="3"></circle><circle cx="38.17" cy="362.2382979404419" r="3"></circle><circle cx="38.17" cy="361.7501241760332" r="3"></circle><circle cx="38.17" cy="368.1735044718006" r="3"></circle><circle cx="38.17" cy="361.85403020829574" r="3"></circle><circle cx="38.17" cy="361.845812735632" r="3"></circle><circle cx="38.17" cy="414.23003833670145" r="3"></circle><circle cx="38.17" cy="414.24162038234186" r="3"></circle><circle cx="38.17" cy="414.2690706809821" r="3"></circle><circle cx="38.17" cy="414.218272311316" r="3"></circle><circle cx="38.17" cy="414.36662160158386" r="3"></circle><circle cx="38.17" cy="414.3583468522072" r="3"></circle><circle cx="38.17" cy="414.2983269317412" r="3"></circle><circle cx="38.17" cy="414.31075163932655" r="3"></circle><circle cx="38.17" cy="361.76906801495755" r="3"></circle><circle cx="38.17" cy="361.4890013769291" r="3"></circle><circle cx="38.17" cy="414.234368803339" r="3"></circle><circle cx="38.17" cy="361.5480267653776" r="3"></circle><circle cx="38.17" cy="362.8435296853884" r="3"></circle><circle cx="38.17" cy="414.25084974360266" r="3"></circle><circle cx="38.17" cy="414.2427251286404" r="3"></circle><circle cx="38.17" cy="361.5326609853604" r="3"></circle><circle cx="38.17" cy="414.2284267782754" r="3"></circle><circle cx="38.17" cy="363.084520587687" r="3"></circle><circle cx="38.17" cy="414.2821636168863" r="3"></circle><circle cx="38.17" cy="361.84779746052186" r="3"></circle><circle cx="38.17" cy="414.2737161695415" r="3"></circle><circle cx="38.17" cy="408.94727952190317" r="3"></circle><circle cx="38.17" cy="361.9248424500254" r="3"></circle><circle cx="38.17" cy="360.99266654874066" r="3"></circle><circle cx="38.17" cy="378.02710380011865" r="3"></circle><circle cx="38.17" cy="364.89629931031476" r="3"></circle><circle cx="38.17" cy="365.0500239333187" r="3"></circle><circle cx="38.17" cy="364.2088468437954" r="3"></circle><circle cx="38.17" cy="364.1808888651986" r="3"></circle><circle cx="38.17" cy="364.3314624011563" r="3"></circle><circle cx="38.17" cy="364.2638307526585" r="3"></circle><circle cx="38.17" cy="364.1767606027145" r="3"></circle><circle cx="38.17" cy="364.2598899412353" r="3"></circle><circle cx="38.17" cy="364.2898699613683" r="3"></circle><circle cx="38.17" cy="364.3111439211188" r="3"></circle><circle cx="38.17" cy="218.74606686386042" r="3"></circle><circle cx="38.17" cy="364.8576357933529" r="3"></circle><circle cx="38.17" cy="364.4618701949779" r="3"></circle><circle cx="38.17" cy="364.1685144916944" r="3"></circle><circle cx="38.17" cy="364.44615815119545" r="3"></circle><circle cx="38.17" cy="394.73841360703665" r="3"></circle><circle cx="38.17" cy="364.22602465073425" r="3"></circle><circle cx="38.17" cy="364.2466052151254" r="3"></circle><circle cx="38.17" cy="364.383474863573" r="3"></circle><circle cx="38.17" cy="364.2024925999636" r="3"></circle><circle cx="38.17" cy="365.4727364895224" r="3"></circle><circle cx="38.17" cy="364.2469358579688" r="3"></circle><circle cx="38.17" cy="364.9548742955198" r="3"></circle><circle cx="38.17" cy="364.22825844254294" r="3"></circle><circle cx="38.17" cy="364.39230849481635" r="3"></circle><circle cx="38.17" cy="391.12782846945623" r="3"></circle><circle cx="38.17" cy="364.7470283856644" r="3"></circle><circle cx="38.17" cy="364.2230141519836" r="3"></circle><circle cx="38.17" cy="364.30470463004644" r="3"></circle><circle cx="38.17" cy="373.1566826460024" r="3"></circle><circle cx="38.17" cy="366.98147540521757" r="3"></circle><circle cx="38.17" cy="367.2293533983451" r="3"></circle><circle cx="38.17" cy="366.0155400885682" r="3"></circle><circle cx="38.17" cy="366.0676497478313" r="3"></circle><circle cx="38.17" cy="366.07802551118186" r="3"></circle><circle cx="38.17" cy="366.0478519651852" r="3"></circle><circle cx="38.17" cy="366.10076089494396" r="3"></circle><circle cx="38.17" cy="366.0938286770078" r="3"></circle><circle cx="38.17" cy="366.0686165093212" r="3"></circle><circle cx="38.17" cy="366.0321026047564" r="3"></circle><circle cx="38.17" cy="366.1886841207806" r="3"></circle><circle cx="38.17" cy="366.09313181033247" r="3"></circle><circle cx="38.17" cy="366.1249724558104" r="3"></circle><circle cx="38.17" cy="366.0399555892461" r="3"></circle><circle cx="38.17" cy="366.12858869919296" r="3"></circle><circle cx="38.17" cy="366.1857508588097" r="3"></circle><circle cx="38.17" cy="366.11173372463657" r="3"></circle><circle cx="38.17" cy="367.0189768991679" r="3"></circle><circle cx="38.17" cy="366.04401529324025" r="3"></circle><circle cx="38.17" cy="366.2335465401859" r="3"></circle><circle cx="38.17" cy="367.74418253004336" r="3"></circle><circle cx="38.17" cy="367.0540033448515" r="3"></circle><circle cx="38.17" cy="366.0319134180375" r="3"></circle><circle cx="38.17" cy="366.08279770277323" r="3"></circle><circle cx="38.17" cy="405.43726274630706" r="3"></circle><circle cx="38.17" cy="399.04543497679435" r="3"></circle><circle cx="38.17" cy="359.5638972062301" r="3"></circle><circle cx="38.17" cy="363.46817563256934" r="3"></circle><circle cx="38.17" cy="363.5824704456172" r="3"></circle><circle cx="38.17" cy="363.44056738905374" r="3"></circle><circle cx="38.17" cy="363.48011001677787" r="3"></circle><circle cx="38.17" cy="363.46573703312015" r="3"></circle><circle cx="38.17" cy="363.5636619880146" r="3"></circle><circle cx="38.17" cy="363.46876402062156" r="3"></circle><circle cx="38.17" cy="363.4327803595669" r="3"></circle><circle cx="38.17" cy="372.26467594496955" r="3"></circle><circle cx="38.17" cy="372.1065184515076" r="3"></circle><circle cx="38.17" cy="360.613576284322" r="3"></circle><circle cx="38.17" cy="363.47119567743886" r="3"></circle><circle cx="38.17" cy="372.17976582137055" r="3"></circle><circle cx="38.17" cy="363.4206368285728" r="3"></circle><circle cx="38.17" cy="359.6317640363829" r="3"></circle><circle cx="38.17" cy="363.39770357980206" r="3"></circle><circle cx="38.17" cy="372.092674843531" r="3"></circle><circle cx="38.17" cy="396.5220894236271" r="3"></circle><circle cx="38.17" cy="363.42302422611186" r="3"></circle><circle cx="38.17" cy="359.3081176301897" r="3"></circle><circle cx="38.17" cy="372.7131526080946" r="3"></circle><circle cx="38.17" cy="367.22841614304076" r="3"></circle><circle cx="38.17" cy="366.98122026349586" r="3"></circle><circle cx="38.17" cy="366.95969202985265" r="3"></circle><circle cx="38.17" cy="367.0018902142724" r="3"></circle><circle cx="38.17" cy="366.97657564276545" r="3"></circle><circle cx="38.17" cy="367.16276314462993" r="3"></circle><circle cx="38.17" cy="367.38122433863606" r="3"></circle><circle cx="38.17" cy="367.0086488664115" r="3"></circle><circle cx="38.17" cy="366.98270338323204" r="3"></circle><circle cx="38.17" cy="367.4887145046087" r="3"></circle><circle cx="38.17" cy="367.056906232808" r="3"></circle><circle cx="38.17" cy="368.6071030747984" r="3"></circle><circle cx="38.17" cy="366.9658900644671" r="3"></circle><circle cx="38.17" cy="366.98804920978273" r="3"></circle><circle cx="38.17" cy="367.4010542309547" r="3"></circle><circle cx="38.17" cy="417.8176181957053" r="3"></circle><circle cx="38.17" cy="367.18456648006156" r="3"></circle><circle cx="38.17" cy="367.7807728035588" r="3"></circle><circle cx="38.17" cy="372.79589749837487" r="3"></circle><circle cx="38.17" cy="406.17890245468084" r="3"></circle><circle cx="38.17" cy="368.21165510183204" r="3"></circle><circle cx="38.17" cy="368.0496201484629" r="3"></circle><circle cx="38.17" cy="375.2126215823838" r="3"></circle><circle cx="38.17" cy="375.22820258398946" r="3"></circle><circle cx="38.17" cy="375.1818631196509" r="3"></circle><circle cx="38.17" cy="375.1790157727495" r="3"></circle><circle cx="38.17" cy="375.1486669252977" r="3"></circle><circle cx="38.17" cy="375.21172685069985" r="3"></circle><circle cx="38.17" cy="375.24154632247047" r="3"></circle><circle cx="38.17" cy="368.0999811323203" r="3"></circle><circle cx="38.17" cy="367.6541452727981" r="3"></circle><circle cx="38.17" cy="375.12557746730954" r="3"></circle><circle cx="38.17" cy="367.6140472345232" r="3"></circle><circle cx="38.17" cy="375.1526276967875" r="3"></circle><circle cx="38.17" cy="375.09236131288964" r="3"></circle><circle cx="38.17" cy="367.6389799612765" r="3"></circle><circle cx="38.17" cy="369.34225055453163" r="3"></circle><circle cx="38.17" cy="375.2010768533898" r="3"></circle><circle cx="38.17" cy="368.1554189157428" r="3"></circle><circle cx="38.17" cy="224.8552496754286" r="3"></circle><circle cx="38.17" cy="367.6406444572707" r="3"></circle><circle cx="38.17" cy="367.4505794954989" r="3"></circle><circle cx="38.17" cy="367.3684420855086" r="3"></circle><circle cx="38.17" cy="385.3650899315303" r="3"></circle><circle cx="39.057305114798574" cy="313.27088514975526" r="3"></circle><circle cx="39.09206815244186" cy="313.5231517540624" r="3"></circle><circle cx="39.5572336755133" cy="313.97351247391504" r="3"></circle><circle cx="40.50370117215378" cy="316.323582952693" r="3"></circle><circle cx="40.51004852974991" cy="319.8060045022083" r="3"></circle><circle cx="40.5242306768947" cy="315.2185146896017" r="3"></circle><circle cx="40.894162483851396" cy="313.78719740118964" r="3"></circle><circle cx="40.94846197979167" cy="366.52970012411856" r="3"></circle><circle cx="41.00722430106253" cy="252.54698007510638" r="3"></circle><circle cx="41.07199583107197" cy="316.4964475439721" r="3"></circle><circle cx="41.4297652922" cy="316.07646517775686" r="3"></circle><circle cx="41.46862265586448" cy="326.1744191135212" r="3"></circle><circle cx="41.88603174515037" cy="313.8280044557457" r="3"></circle><circle cx="42.054889861370526" cy="316.3333564427277" r="3"></circle><circle cx="42.36109831122934" cy="327.375139487394" r="3"></circle><circle cx="42.403097348955264" cy="314.16619220442" r="3"></circle><circle cx="43.27849799330963" cy="325.3371637431833" r="3"></circle><circle cx="43.3277197602448" cy="326.32948540013683" r="3"></circle><circle cx="43.73509270448659" cy="314.86973335250156" r="3"></circle><circle cx="43.89392029180025" cy="316.5238301519515" r="3"></circle><circle cx="44.07830719385685" cy="287.524324862579" r="3"></circle><circle cx="44.12120191153318" cy="328.39278005499926" r="3"></circle><circle cx="44.41459969724555" cy="313.86575501661486" r="3"></circle><circle cx="44.433830231111834" cy="313.7660388626943" r="3"></circle><circle cx="44.500130537814286" cy="314.32323627329356" r="3"></circle><circle cx="44.939184618337926" cy="324.76557165320173" r="3"></circle><circle cx="44.97477344043518" cy="314.360605857238" r="3"></circle><circle cx="45.01912917217244" cy="287.25868935275037" r="3"></circle><circle cx="45.73182084591013" cy="315.35804249823195" r="3"></circle><circle cx="46.22622473201043" cy="334.35066382557807" r="3"></circle><circle cx="46.32726387801495" cy="325.11500820118596" r="3"></circle><circle cx="46.69996537462356" cy="335.6686461198001" r="3"></circle><circle cx="46.790903258065306" cy="314.8060225553603" r="3"></circle><circle cx="46.89253232875846" cy="316.44284348319593" r="3"></circle><circle cx="47.30981334379691" cy="313.77704033074343" r="3"></circle><circle cx="47.43579900048276" cy="329.10320829390974" r="3"></circle><circle cx="47.6700263004453" cy="320.0079031800262" r="3"></circle><circle cx="47.67635494121837" cy="313.99194082242207" r="3"></circle><circle cx="48.10062084841197" cy="313.7131455538573" r="3"></circle><circle cx="48.102254909738875" cy="322.1552965383862" r="3"></circle><circle cx="48.1677966681276" cy="375.9535470675026" r="3"></circle><circle cx="48.195893800660535" cy="319.5983269511759" r="3"></circle><circle cx="48.50490969506501" cy="325.36676538987865" r="3"></circle><circle cx="48.64961978074707" cy="325.72131258275846" r="3"></circle><circle cx="48.70940549983249" cy="326.2631051610362" r="3"></circle><circle cx="48.78969991685257" cy="324.56410602204755" r="3"></circle><circle cx="48.89816691526346" cy="329.82952127457065" r="3"></circle><circle cx="49.92959434933692" cy="325.5074534858624" r="3"></circle><circle cx="50.03072647110559" cy="327.85883091509254" r="3"></circle><circle cx="50.27349821613555" cy="327.8582138886839" r="3"></circle><circle cx="50.41853583261432" cy="328.8264368025391" r="3"></circle><circle cx="50.431767765564075" cy="326.4061910685069" r="3"></circle><circle cx="50.79964491114119" cy="328.4472640943668" r="3"></circle><circle cx="50.885446220949134" cy="328.2095206081319" r="3"></circle><circle cx="50.92546394025145" cy="321.84354025712327" r="3"></circle><circle cx="51.05721903831954" cy="325.1414006162929" r="3"></circle><circle cx="51.33636254891728" cy="313.7141904199558" r="3"></circle><circle cx="51.377832402708854" cy="316.17451596785423" r="3"></circle><circle cx="51.43875847267263" cy="335.5581376446159" r="3"></circle><circle cx="51.4573946304734" cy="333.41587402338905" r="3"></circle><circle cx="51.45750519312438" cy="287.6368414940357" r="3"></circle><circle cx="51.495714623438424" cy="321.0145396760954" r="3"></circle><circle cx="51.66224301039925" cy="325.91802771804606" r="3"></circle><circle cx="52.133509655177996" cy="313.85955351068446" r="3"></circle><circle cx="52.19484375905489" cy="326.6130641420697" r="3"></circle><circle cx="52.364247394198784" cy="315.6723276331587" r="3"></circle><circle cx="52.45494485618403" cy="330.7368295362759" r="3"></circle><circle cx="52.58433339667514" cy="325.11009281781213" r="3"></circle><circle cx="52.58728286550054" cy="321.09560531728863" r="3"></circle><circle cx="52.8918420603614" cy="320.71582426099746" r="3"></circle><circle cx="53.03939616699799" cy="325.2058907238632" r="3"></circle><circle cx="53.59544317020918" cy="322.8214984765378" r="3"></circle><circle cx="53.70735304869727" cy="365.90816621167954" r="3"></circle><circle cx="54.56073693697134" cy="328.0094382963807" r="3"></circle><circle cx="55.11718485543798" cy="325.88471523460873" r="3"></circle><circle cx="55.173655214857106" cy="320.95344277985845" r="3"></circle><circle cx="55.39018952482752" cy="329.351100172301" r="3"></circle><circle cx="56.36185776074796" cy="208.56834903038092" r="3"></circle><circle cx="56.363084362751735" cy="321.9309514638585" r="3"></circle><circle cx="57.73428408309139" cy="326.0700505284094" r="3"></circle><circle cx="57.75238944042975" cy="315.2579462352158" r="3"></circle><circle cx="57.82973389727299" cy="309.93308990415994" r="3"></circle><circle cx="58.43228226503015" cy="321.2039615765888" r="3"></circle><circle cx="58.493195276262036" cy="335.97081202294436" r="3"></circle><circle cx="58.55025465065201" cy="294.5866025931273" r="3"></circle><circle cx="58.775892687561836" cy="395.6771077718313" r="3"></circle><circle cx="59.09419236436267" cy="321.2208998627278" r="3"></circle><circle cx="59.1012116257155" cy="313.9030820769391" r="3"></circle><circle cx="59.12746268506099" cy="324.6711145429332" r="3"></circle><circle cx="59.287923920091956" cy="345.0951078319174" r="3"></circle><circle cx="60.17482236343582" cy="319.961180135276" r="3"></circle><circle cx="60.368008366864714" cy="314.26062675113485" r="3"></circle><circle cx="60.71003412378715" cy="319.83229798481085" r="3"></circle><circle cx="61.21943188199621" cy="312.06970135520424" r="3"></circle><circle cx="63.64837592563977" cy="326.57143698912233" r="3"></circle><circle cx="63.97864394894167" cy="315.0063955898217" r="3"></circle><circle cx="64.4887008660055" cy="326.0406528215257" r="3"></circle><circle cx="64.490439717535" cy="325.04498568383315" r="3"></circle><circle cx="64.9154899970645" cy="339.11455289692157" r="3"></circle><circle cx="65.12926931280901" cy="320.8596799327784" r="3"></circle><circle cx="65.1758261350312" cy="314.1864603503763" r="3"></circle><circle cx="65.24855327466123" cy="321.00028298152165" r="3"></circle><circle cx="65.5058173002291" cy="325.75248499991756" r="3"></circle><circle cx="65.84546511161666" cy="255.1617574866986" r="3"></circle><circle cx="66.14998411652826" cy="314.11699671489015" r="3"></circle><circle cx="66.28538810927668" cy="316.8134073278321" r="3"></circle><circle cx="66.73592877547985" cy="310.83563725605075" r="3"></circle><circle cx="67.51798805720051" cy="309.4244536001023" r="3"></circle><circle cx="68.06884201894198" cy="310.8654662739402" r="3"></circle><circle cx="68.4708959088445" cy="321.02474360930694" r="3"></circle><circle cx="68.96347812508424" cy="312.66674773715954" r="3"></circle><circle cx="69.39485155887743" cy="285.655239920723" r="3"></circle><circle cx="69.39564713778361" cy="325.8957887324637" r="3"></circle><circle cx="69.78465636936863" cy="320.8097788982833" r="3"></circle><circle cx="69.87811270563427" cy="325.61851910725534" r="3"></circle><circle cx="70.19172449344148" cy="325.68356028623145" r="3"></circle><circle cx="70.20732914862705" cy="313.1243825995686" r="3"></circle><circle cx="70.37166379859663" cy="330.1418416446743" r="3"></circle><circle cx="70.54800071131967" cy="326.2563386984362" r="3"></circle><circle cx="70.6406169165756" cy="377.4824413113859" r="3"></circle><circle cx="71.72719373627626" cy="324.8125359544098" r="3"></circle><circle cx="71.75278390855023" cy="315.77482604680677" r="3"></circle><circle cx="71.77015929917728" cy="335.9222344276521" r="3"></circle><circle cx="72.18327598118982" cy="311.11100112880695" r="3"></circle><circle cx="72.54625596208076" cy="312.50135862476145" r="3"></circle><circle cx="73.73959938079862" cy="313.4668175032978" r="3"></circle><circle cx="74.03747715252472" cy="315.4024362899851" r="3"></circle><circle cx="74.56552054655708" cy="254.02899593285113" r="3"></circle><circle cx="75.33318311709965" cy="331.3991852563637" r="3"></circle><circle cx="77.04836276863341" cy="324.5908186660501" r="3"></circle><circle cx="77.25753622600148" cy="309.97807815876814" r="3"></circle><circle cx="77.28067131577447" cy="316.65430042946014" r="3"></circle><circle cx="78.01164625699506" cy="313.46596355957615" r="3"></circle><circle cx="78.1053718356214" cy="314.2823606602476" r="3"></circle><circle cx="79.33443921186085" cy="291.57098799056877" r="3"></circle><circle cx="80.86818827940075" cy="290.0245826934161" r="3"></circle><circle cx="82.18043633492933" cy="327.97281504536375" r="3"></circle><circle cx="82.59579050417786" cy="340.2353323359663" r="3"></circle><circle cx="84.60135036127488" cy="278.9458856750227" r="3"></circle><circle cx="84.86952807368277" cy="313.3095677589548" r="3"></circle><circle cx="85.44381865516927" cy="328.78598295438024" r="3"></circle><circle cx="86.53830407355755" cy="325.3655929529192" r="3"></circle><circle cx="87.15202866959613" cy="310.68284207789026" r="3"></circle><circle cx="87.34479150942698" cy="328.43980683989446" r="3"></circle><circle cx="88.14789722981989" cy="285.12944576979294" r="3"></circle><circle cx="89.37573236835127" cy="291.85046971186114" r="3"></circle><circle cx="90.41945383829383" cy="321.7512110635273" r="3"></circle><circle cx="90.83763471565186" cy="313.887351808748" r="3"></circle><circle cx="91.05244155160004" cy="324.54445056335504" r="3"></circle><circle cx="91.65717514892677" cy="286.6370920887954" r="3"></circle><circle cx="92.19060807649115" cy="286.999189393849" r="3"></circle><circle cx="92.33981372918694" cy="164.4383738175587" r="3"></circle><circle cx="94.17323057401556" cy="291.19330621259354" r="3"></circle><circle cx="94.59312880525056" cy="311.0477494131989" r="3"></circle><circle cx="95.20376788470216" cy="311.32363311551745" r="3"></circle><circle cx="103.2504299339817" cy="289.1094058262994" r="3"></circle><circle cx="106.90621188909952" cy="22.371027680948814" r="3"></circle><circle cx="109.67984541401142" cy="313.6530588105594" r="3"></circle><circle cx="110.24415800563445" cy="331.1380181979813" r="3"></circle><circle cx="110.24663107848446" cy="286.8945023154996" r="3"></circle><circle cx="111.23559820207782" cy="212.0657067845656" r="3"></circle><circle cx="112.13116072822814" cy="314.87480668075074" r="3"></circle><circle cx="114.5452943394551" cy="293.8827038995037" r="3"></circle><circle cx="116.43765028498603" cy="328.5555439847162" r="3"></circle><circle cx="119.62139906843757" cy="325.806789398685" r="3"></circle><circle cx="124.91056288350558" cy="285.43542231001254" r="3"></circle><circle cx="128.08948715374578" cy="314.9561170497179" r="3"></circle><circle cx="133.75984673719591" cy="320.8573975425465" r="3"></circle><circle cx="136.12017215489436" cy="222.43004950571822" r="3"></circle><circle cx="137.06506083260052" cy="313.81972623505305" r="3"></circle><circle cx="139.5734189629742" cy="315.12700299091" r="3"></circle><circle cx="141.1096328000444" cy="311.2031055546957" r="3"></circle><circle cx="141.82620571864558" cy="329.6440332428686" r="3"></circle><circle cx="144.3984155553478" cy="338.294093488769" r="3"></circle><circle cx="145.07015912579402" cy="211.23556153710587" r="3"></circle><circle cx="158.03444051027955" cy="310.0687845121613" r="3"></circle><circle cx="159.15702543849642" cy="316.72509010763605" r="3"></circle><circle cx="159.7579826539066" cy="308.0095816709654" r="3"></circle><circle cx="179.07935228097503" cy="311.57436453034927" r="3"></circle><circle cx="179.31893375361796" cy="334.0711803686277" r="3"></circle><circle cx="201.14962406264357" cy="285.54220085621705" r="3"></circle><circle cx="204.75834937483285" cy="320.804292483437" r="3"></circle><circle cx="214.29255130413455" cy="328.5822496860869" r="3"></circle><circle cx="215.97704492103725" cy="291.13842817886666" r="3"></circle><circle cx="225.82659696897514" cy="310.5429688733238" r="3"></circle><circle cx="238.37705704256783" cy="311.4373299943943" r="3"></circle><circle cx="304.56187399103237" cy="313.70157652565155" r="3"></circle><circle cx="384.5330603477009" cy="311.8952217341831" r="3"></circle><circle cx="423.5291117131036" cy="282.93786776646533" r="3"></circle><circle cx="460.48323873399147" cy="249.08108893210692" r="3"></circle><circle cx="500" cy="325.67582619431266" r="3"></circle></g></svg>