<svg class="plot-chart" fill="currentColor" font-family="system-ui, sans-serif" font-size="10" text-anchor="middle" width="500" height="500" viewBox="0 0 500 500" style="overflow: visible;" xmlns="http://www.w3.org/2000/svg"><style>:where(.plot-chart) {
  --plot-background: white;
  display: block;
  height: auto;
  height: intrinsic;
  max-width: 100%;
}
:where(.plot-chart text),
:where(.plot-chart tspan) {
  white-space: pre;
}</style><g aria-label="fy-axis tick label" transform="translate(9,0)"><g text-anchor="start" transform="translate(0,13)"><text y="0.32em" transform="translate(500,26)">0</text></g><g text-anchor="start" transform="translate(0,26)"><text y="0.32em" transform="translate(500,26)">1</text></g><g text-anchor="start" transform="translate(0,39)"><text y="0.32em" transform="translate(500,26)">2</text></g><g text-anchor="start" transform="translate(0,52)"><text y="0.32em" transform="translate(500,26)">3</text></g><g text-anchor="start" transform="translate(0,65)"><text y="0.32em" transform="translate(500,26)">4</text></g><g text-anchor="start" transform="translate(0,78)"><text y="0.32em" transform="translate(500,26)">5</text></g><g text-anchor="start" transform="translate(0,91)"><text y="0.32em" transform="translate(500,26)">6</text></g><g text-anchor="start" transform="translate(0,104)"><text y="0.32em" transform="translate(500,26)">7</text></g><g text-anchor="start" transform="translate(0,117)"><text y="0.32em" transform="translate(500,26)">9</text></g><g text-anchor="start" transform="translate(0,130)"><text y="0.32em" transform="translate(500,26)">10</text></g><g text-anchor="start" transform="translate(0,143)"><text y="0.32em" transform="translate(500,26)">11</text></g><g text-anchor="start" transform="translate(0,156)"><text y="0.32em" transform="translate(500,26)">12</text></g><g text-anchor="start" transform="translate(0,169)"><text y="0.32em" transform="translate(500,26)">13</text></g><g text-anchor="start" transform="translate(0,182)"><text y="0.32em" transform="translate(500,26)">14</text></g><g text-anchor="start" transform="translate(0,195)"><text y="0.32em" transform="translate(500,26)">15</text></g><g text-anchor="start" transform="translate(0,208)"><text y="0.32em" transform="translate(500,26)">16</text></g><g text-anchor="start" transform="translate(0,221)"><text y="0.32em" transform="translate(500,26)">17</text></g><g text-anchor="start" transform="translate(0,234)"><text y="0.32em" transform="translate(500,26)">18</text></g><g text-anchor="start" transform="translate(0,247)"><text y="0.32em" transform="translate(500,26)">19</text></g><g text-anchor="start" transform="translate(0,260)"><text y="0.32em" transform="translate(500,26)">20</text></g><g text-anchor="start" transform="translate(0,273)"><text y="0.32em" transform="translate(500,26)">21</text></g><g text-anchor="start" transform="translate(0,286)"><text y="0.32em" transform="translate(500,26)">22</text></g><g text-anchor="start" transform="translate(0,299)"><text y="0.32em" transform="translate(500,26)">23</text></g><g text-anchor="start" transform="translate(0,312)"><text y="0.32em" transform="translate(500,26)">24</text></g><g text-anchor="start" transform="translate(0,325)"><text y="0.32em" transform="translate(500,26)">25</text></g><g text-anchor="start" transform="translate(0,338)"><text y="0.32em" transform="translate(500,26)">26</text></g><g text-anchor="start" transform="translate(0,351)"><text y="0.32em" transform="translate(500,26)">27</text></g><g text-anchor="start" transform="translate(0,364)"><text y="0.32em" transform="translate(500,26)">28</text></g><g text-anchor="start" transform="translate(0,377)"><text y="0.32em" transform="translate(500,26)">29</text></g><g text-anchor="start" transform="translate(0,390)"><text y="0.32em" transform="translate(500,26)">30</text></g><g text-anchor="start" transform="translate(0,403)"><text y="0.32em" transform="translate(500,26)">31</text></g><g text-anchor="start" transform="translate(0,416)"><text y="0.32em" transform="translate(500,26)">32</text></g></g><g aria-label="fy-axis label" transform="translate(-3,0)"><text transform="translate(500,240.5) rotate(-90)">facet</text></g><g aria-label="y-axis tick" aria-hidden="true"><g fill="none" stroke="currentColor" transform="translate(0,13)"><path transform="translate(18.016,30.694129735157084)" d="M0,0L-6,0"></path></g><g fill="none" stroke="currentColor" transform="translate(0,26)"><path transform="translate(18.016,30.694129735157084)" d="M0,0L-6,0"></path></g><g fill="none" stroke="currentColor" transform="translate(0,39)"><path transform="translate(18.016,30.694129735157084)" d="M0,0L-6,0"></path></g><g fill="none" stroke="currentColor" transform="translate(0,52)"><path transform="translate(18.016,30.694129735157084)" d="M0,0L-6,0"></path></g><g fill="none" stroke="currentColor" transform="translate(0,65)"><path transform="translate(18.016,30.694129735157084)" d="M0,0L-6,0"></path></g><g fill="none" stroke="currentColor" transform="translate(0,78)"><path transform="translate(18.016,30.694129735157084)" d="M0,0L-6,0"></path></g><g fill="none" stroke="currentColor" transform="translate(0,91)"><path transform="translate(18.016,30.694129735157084)" d="M0,0L-6,0"></path></g><g fill="none" stroke="currentColor" transform="translate(0,104)"><path transform="translate(18.016,30.694129735157084)" d="M0,0L-6,0"></path></g><g fill="none" stroke="currentColor" transform="translate(0,117)"><path transform="translate(18.016,30.694129735157084)" d="M0,0L-6,0"></path></g><g fill="none" stroke="currentColor" transform="translate(0,130)"><path transform="translate(18.016,30.694129735157084)" d="M0,0L-6,0"></path></g><g fill="none" stroke="currentColor" transform="translate(0,143)"><path transform="translate(18.016,30.694129735157084)" d="M0,0L-6,0"></path></g><g fill="none" stroke="currentColor" transform="translate(0,156)"><path transform="translate(18.016,30.694129735157084)" d="M0,0L-6,0"></path></g><g fill="none" stroke="currentColor" transform="translate(0,169)"><path transform="translate(18.016,30.694129735157084)" d="M0,0L-6,0"></path></g><g fill="none" stroke="currentColor" transform="translate(0,182)"><path transform="translate(18.016,30.694129735157084)" d="M0,0L-6,0"></path></g><g fill="none" stroke="currentColor" transform="translate(0,195)"><path transform="translate(18.016,30.694129735157084)" d="M0,0L-6,0"></path></g><g fill="none" stroke="currentColor" transform="translate(0,208)"><path transform="translate(18.016,30.694129735157084)" d="M0,0L-6,0"></path></g><g fill="none" stroke="currentColor" transform="translate(0,221)"><path transform="translate(18.016,30.694129735157084)" d="M0,0L-6,0"></path></g><g fill="none" stroke="currentColor" transform="translate(0,234)"><path transform="translate(18.016,30.694129735157084)" d="M0,0L-6,0"></path></g><g fill="none" stroke="currentColor" transform="translate(0,247)"><path transform="translate(18.016,30.694129735157084)" d="M0,0L-6,0"></path></g><g fill="none" stroke="currentColor" transform="translate(0,260)"><path transform="translate(18.016,30.694129735157084)" d="M0,0L-6,0"></path></g><g fill="none" stroke="currentColor" transform="translate(0,273)"><path transform="translate(18.016,30.694129735157084)" d="M0,0L-6,0"></path></g><g fill="none" stroke="currentColor" transform="translate(0,286)"><path transform="translate(18.016,30.694129735157084)" d="M0,0L-6,0"></path></g><g fill="none" stroke="currentColor" transform="translate(0,299)"><path transform="translate(18.016,30.694129735157084)" d="M0,0L-6,0"></path></g><g fill="none" stroke="currentColor" transform="translate(0,312)"><path transform="translate(18.016,30.694129735157084)" d="M0,0L-6,0"></path></g><g fill="none" stroke="currentColor" transform="translate(0,325)"><path transform="translate(18.016,30.694129735157084)" d="M0,0L-6,0"></path></g><g fill="none" stroke="currentColor" transform="translate(0,338)"><path transform="translate(18.016,30.694129735157084)" d="M0,0L-6,0"></path></g><g fill="none" stroke="currentColor" transform="translate(0,351)"><path transform="translate(18.016,30.694129735157084)" d="M0,0L-6,0"></path></g><g fill="none" stroke="currentColor" transform="translate(0,364)"><path transform="translate(18.016,30.694129735157084)" d="M0,0L-6,0"></path></g><g fill="none" stroke="currentColor" transform="translate(0,377)"><path transform="translate(18.016,30.694129735157084)" d="M0,0L-6,0"></path></g><g fill="none" stroke="currentColor" transform="translate(0,390)"><path transform="translate(18.016,30.694129735157084)" d="M0,0L-6,0"></path></g><g fill="none" stroke="currentColor" transform="translate(0,403)"><path transform="translate(18.016,30.694129735157084)" d="M0,0L-6,0"></path></g><g fill="none" stroke="currentColor" transform="translate(0,416)"><path transform="translate(18.016,30.694129735157084)" d="M0,0L-6,0"></path></g></g><g aria-label="y-axis tick label" transform="translate(-9,0)"><g text-anchor="end" font-variant="tabular-nums" transform="translate(0,13)"><text y="0.32em" transform="translate(18.016,30.694129735157084)">0</text></g><g text-anchor="end" font-variant="tabular-nums" transform="translate(0,26)"><text y="0.32em" transform="translate(18.016,30.694129735157084)" style="display: none;">0</text></g><g text-anchor="end" font-variant="tabular-nums" transform="translate(0,39)"><text y="0.32em" transform="translate(18.016,30.694129735157084)">0</text></g><g text-anchor="end" font-variant="tabular-nums" transform="translate(0,52)"><text y="0.32em" transform="translate(18.016,30.694129735157084)" style="display: none;">0</text></g><g text-anchor="end" font-variant="tabular-nums" transform="translate(0,65)"><text y="0.32em" transform="translate(18.016,30.694129735157084)">0</text></g><g text-anchor="end" font-variant="tabular-nums" transform="translate(0,78)"><text y="0.32em" transform="translate(18.016,30.694129735157084)" style="display: none;">0</text></g><g text-anchor="end" font-variant="tabular-nums" transform="translate(0,91)"><text y="0.32em" transform="translate(18.016,30.694129735157084)">0</text></g><g text-anchor="end" font-variant="tabular-nums" transform="translate(0,104)"><text y="0.32em" transform="translate(18.016,30.694129735157084)" style="display: none;">0</text></g><g text-anchor="end" font-variant="tabular-nums" transform="translate(0,117)"><text y="0.32em" transform="translate(18.016,30.694129735157084)">0</text></g><g text-anchor="end" font-variant="tabular-nums" transform="translate(0,130)"><text y="0.32em" transform="translate(18.016,30.694129735157084)" style="display: none;">0</text></g><g text-anchor="end" font-variant="tabular-nums" transform="translate(0,143)"><text y="0.32em" transform="translate(18.016,30.694129735157084)">0</text></g><g text-anchor="end" font-variant="tabular-nums" transform="translate(0,156)"><text y="0.32em" transform="translate(18.016,30.694129735157084)" style="display: none;">0</text></g><g text-anchor="end" font-variant="tabular-nums" transform="translate(0,169)"><text y="0.32em" transform="translate(18.016,30.694129735157084)">0</text></g><g text-anchor="end" font-variant="tabular-nums" transform="translate(0,182)"><text y="0.32em" transform="translate(18.016,30.694129735157084)" style="display: none;">0</text></g><g text-anchor="end" font-variant="tabular-nums" transform="translate(0,195)"><text y="0.32em" transform="translate(18.016,30.694129735157084)">0</text></g><g text-anchor="end" font-variant="tabular-nums" transform="translate(0,208)"><text y="0.32em" transform="translate(18.016,30.694129735157084)" style="display: none;">0</text></g><g text-anchor="end" font-variant="tabular-nums" transform="translate(0,221)"><text y="0.32em" transform="translate(18.016,30.694129735157084)">0</text></g><g text-anchor="end" font-variant="tabular-nums" transform="translate(0,234)"><text y="0.32em" transform="translate(18.016,30.694129735157084)" style="display: none;">0</text></g><g text-anchor="end" font-variant="tabular-nums" transform="translate(0,247)"><text y="0.32em" transform="translate(18.016,30.694129735157084)">0</text></g><g text-anchor="end" font-variant="tabular-nums" transform="translate(0,260)"><text y="0.32em" transform="translate(18.016,30.694129735157084)" style="display: none;">0</text></g><g text-anchor="end" font-variant="tabular-nums" transform="translate(0,273)"><text y="0.32em" transform="translate(18.016,30.694129735157084)">0</text></g><g text-anchor="end" font-variant="tabular-nums" transform="translate(0,286)"><text y="0.32em" transform="translate(18.016,30.694129735157084)" style="display: none;">0</text></g><g text-anchor="end" font-variant="tabular-nums" transform="translate(0,299)"><text y="0.32em" transform="translate(18.016,30.694129735157084)">0</text></g><g text-anchor="end" font-variant="tabular-nums" transform="translate(0,312)"><text y="0.32em" transform="translate(18.016,30.694129735157084)" style="display: none;">0</text></g><g text-anchor="end" font-variant="tabular-nums" transform="translate(0,325)"><text y="0.32em" transform="translate(18.016,30.694129735157084)">0</text></g><g text-anchor="end" font-variant="tabular-nums" transform="translate(0,338)"><text y="0.32em" transform="translate(18.016,30.694129735157084)" style="display: none;">0</text></g><g text-anchor="end" font-variant="tabular-nums" transform="translate(0,351)"><text y="0.32em" transform="translate(18.016,30.694129735157084)">0</text></g><g text-anchor="end" font-variant="tabular-nums" transform="translate(0,364)"><text y="0.32em" transform="translate(18.016,30.694129735157084)" style="display: none;">0</text></g><g text-anchor="end" font-variant="tabular-nums" transform="translate(0,377)"><text y="0.32em" transform="translate(18.016,30.694129735157084)">0</text></g><g text-anchor="end" font-variant="tabular-nums" transform="translate(0,390)"><text y="0.32em" transform="translate(18.016,30.694129735157084)" style="display: none;">0</text></g><g text-anchor="end" font-variant="tabular-nums" transform="translate(0,403)"><text y="0.32em" transform="translate(18.016,30.694129735157084)">0</text></g><g text-anchor="end" font-variant="tabular-nums" transform="translate(0,416)"><text y="0.32em" transform="translate(18.016,30.694129735157084)" style="display: none;">0</text></g></g><g aria-label="y-axis label" text-anchor="start" transform="translate(-15.015999999999998,-17)"><text y="0.71em" transform="translate(18.016,33)">↑ Consensus Income</text></g><g aria-label="x-axis tick" aria-hidden="true"><g fill="none" stroke="currentColor" transform="translate(0,416)"><path transform="translate(29.439168195718654,32)" d="M0,0L0,6"></path><path transform="translate(163.9377614678899,32)" d="M0,0L0,6"></path><path transform="translate(298.4363547400612,32)" d="M0,0L0,6"></path><path transform="translate(432.9349480122324,32)" d="M0,0L0,6"></path></g></g><g aria-label="x-axis tick label" transform="translate(0,9)"><g font-variant="tabular-nums" transform="translate(0,416)"><text y="0.71em" transform="translate(29.439168195718654,32)">2021</text><text y="0.71em" transform="translate(163.9377614678899,32)">2022</text><text y="0.71em" transform="translate(298.4363547400612,32)">2023</text><text y="0.71em" transform="translate(432.9349480122324,32)">2024</text></g></g><g aria-label="x-axis label" text-anchor="end" transform="translate(-3,36)"><text transform="translate(500,448)">Month →</text></g><g aria-label="frame"><rect fill="hsla( 0 0% 100%)" stroke="hsla(220 6% 90%)" x="18.016" y="20" width="481.984" height="12" rx="4" ry="4" transform="translate(0,13)"></rect><rect fill="hsla( 0 0% 100%)" stroke="hsla(220 6% 90%)" x="18.016" y="20" width="481.984" height="12" rx="4" ry="4" transform="translate(0,26)"></rect><rect fill="hsla( 0 0% 100%)" stroke="hsla(220 6% 90%)" x="18.016" y="20" width="481.984" height="12" rx="4" ry="4" transform="translate(0,39)"></rect><rect fill="hsla( 0 0% 100%)" stroke="hsla(220 6% 90%)" x="18.016" y="20" width="481.984" height="12" rx="4" ry="4" transform="translate(0,52)"></rect><rect fill="hsla( 0 0% 100%)" stroke="hsla(220 6% 90%)" x="18.016" y="20" width="481.984" height="12" rx="4" ry="4" transform="translate(0,65)"></rect><rect fill="hsla( 0 0% 100%)" stroke="hsla(220 6% 90%)" x="18.016" y="20" width="481.984" height="12" rx="4" ry="4" transform="translate(0,78)"></rect><rect fill="hsla( 0 0% 100%)" stroke="hsla(220 6% 90%)" x="18.016" y="20" width="481.984" height="12" rx="4" ry="4" transform="translate(0,91)"></rect><rect fill="hsla( 0 0% 100%)" stroke="hsla(220 6% 90%)" x="18.016" y="20" width="481.984" height="12" rx="4" ry="4" transform="translate(0,104)"></rect><rect fill="hsla( 0 0% 100%)" stroke="hsla(220 6% 90%)" x="18.016" y="20" width="481.984" height="12" rx="4" ry="4" transform="translate(0,117)"></rect><rect fill="hsla( 0 0% 100%)" stroke="hsla(220 6% 90%)" x="18.016" y="20" width="481.984" height="12" rx="4" ry="4" transform="translate(0,130)"></rect><rect fill="hsla( 0 0% 100%)" stroke="hsla(220 6% 90%)" x="18.016" y="20" width="481.984" height="12" rx="4" ry="4" transform="translate(0,143)"></rect><rect fill="hsla( 0 0% 100%)" stroke="hsla(220 6% 90%)" x="18.016" y="20" width="481.984" height="12" rx="4" ry="4" transform="translate(0,156)"></rect><rect fill="hsla( 0 0% 100%)" stroke="hsla(220 6% 90%)" x="18.016" y="20" width="481.984" height="12" rx="4" ry="4" transform="translate(0,169)"></rect><rect fill="hsla( 0 0% 100%)" stroke="hsla(220 6% 90%)" x="18.016" y="20" width="481.984" height="12" rx="4" ry="4" transform="translate(0,182)"></rect><rect fill="hsla( 0 0% 100%)" stroke="hsla(220 6% 90%)" x="18.016" y="20" width="481.984" height="12" rx="4" ry="4" transform="translate(0,195)"></rect><rect fill="hsla( 0 0% 100%)" stroke="hsla(220 6% 90%)" x="18.016" y="20" width="481.984" height="12" rx="4" ry="4" transform="translate(0,208)"></rect><rect fill="hsla( 0 0% 100%)" stroke="hsla(220 6% 90%)" x="18.016" y="20" width="481.984" height="12" rx="4" ry="4" transform="translate(0,221)"></rect><rect fill="hsla( 0 0% 100%)" stroke="hsla(220 6% 90%)" x="18.016" y="20" width="481.984" height="12" rx="4" ry="4" transform="translate(0,234)"></rect><rect fill="hsla( 0 0% 100%)" stroke="hsla(220 6% 90%)" x="18.016" y="20" width="481.984" height="12" rx="4" ry="4" transform="translate(0,247)"></rect><rect fill="hsla( 0 0% 100%)" stroke="hsla(220 6% 90%)" x="18.016" y="20" width="481.984" height="12" rx="4" ry="4" transform="translate(0,260)"></rect><rect fill="hsla( 0 0% 100%)" stroke="hsla(220 6% 90%)" x="18.016" y="20" width="481.984" height="12" rx="4" ry="4" transform="translate(0,273)"></rect><rect fill="hsla( 0 0% 100%)" stroke="hsla(220 6% 90%)" x="18.016" y="20" width="481.984" height="12" rx="4" ry="4" transform="translate(0,286)"></rect><rect fill="hsla( 0 0% 100%)" stroke="hsla(220 6% 90%)" x="18.016" y="20" width="481.984" height="12" rx="4" ry="4" transform="translate(0,299)"></rect><rect fill="hsla( 0 0% 100%)" stroke="hsla(220 6% 90%)" x="18.016" y="20" width="481.984" height="12" rx="4" ry="4" transform="translate(0,312)"></rect><rect fill="hsla( 0 0% 100%)" stroke="hsla(220 6% 90%)" x="18.016" y="20" width="481.984" height="12" rx="4" ry="4" transform="translate(0,325)"></rect><rect fill="hsla( 0 0% 100%)" stroke="hsla(220 6% 90%)" x="18.016" y="20" width="481.984" height="12" rx="4" ry="4" transform="translate(0,338)"></rect><rect fill="hsla( 0 0% 100%)" stroke="hsla(220 6% 90%)" x="18.016" y="20" width="481.984" height="12" rx="4" ry="4" transform="translate(0,351)"></rect><rect fill="hsla( 0 0% 100%)" stroke="hsla(220 6% 90%)" x="18.016" y="20" width="481.984" height="12" rx="4" ry="4" transform="translate(0,364)"></rect><rect fill="hsla( 0 0% 100%)" stroke="hsla(220 6% 90%)" x="18.016" y="20" width="481.984" height="12" rx="4" ry="4" transform="translate(0,377)"></rect><rect fill="hsla( 0 0% 100%)" stroke="hsla(220 6% 90%)" x="18.016" y="20" width="481.984" height="12" rx="4" ry="4" transform="translate(0,390)"></rect><rect fill="hsla( 0 0% 100%)" stroke="hsla(220 6% 90%)" x="18.016" y="20" width="481.984" height="12" rx="4" ry="4" transform="translate(0,403)"></rect><rect fill="hsla( 0 0% 100%)" stroke="hsla(220 6% 90%)" x="18.016" y="20" width="481.984" height="12" rx="4" ry="4" transform="translate(0,416)"></rect></g><g aria-label="y-grid" aria-hidden="true"><g stroke="hsla(220 6% 90%)" stroke-dasharray="1.5,1.5" transform="translate(0,13)"><line x1="18.016" x2="500" y1="30.694129735157084" y2="30.694129735157084"></line></g><g stroke="hsla(220 6% 90%)" stroke-dasharray="1.5,1.5" transform="translate(0,26)"><line x1="18.016" x2="500" y1="30.694129735157084" y2="30.694129735157084"></line></g><g stroke="hsla(220 6% 90%)" stroke-dasharray="1.5,1.5" transform="translate(0,39)"><line x1="18.016" x2="500" y1="30.694129735157084" y2="30.694129735157084"></line></g><g stroke="hsla(220 6% 90%)" stroke-dasharray="1.5,1.5" transform="translate(0,52)"><line x1="18.016" x2="500" y1="30.694129735157084" y2="30.694129735157084"></line></g><g stroke="hsla(220 6% 90%)" stroke-dasharray="1.5,1.5" transform="translate(0,65)"><line x1="18.016" x2="500" y1="30.694129735157084" y2="30.694129735157084"></line></g><g stroke="hsla(220 6% 90%)" stroke-dasharray="1.5,1.5" transform="translate(0,78)"><line x1="18.016" x2="500" y1="30.694129735157084" y2="30.694129735157084"></line></g><g stroke="hsla(220 6% 90%)" stroke-dasharray="1.5,1.5" transform="translate(0,91)"><line x1="18.016" x2="500" y1="30.694129735157084" y2="30.694129735157084"></line></g><g stroke="hsla(220 6% 90%)" stroke-dasharray="1.5,1.5" transform="translate(0,104)"><line x1="18.016" x2="500" y1="30.694129735157084" y2="30.694129735157084"></line></g><g stroke="hsla(220 6% 90%)" stroke-dasharray="1.5,1.5" transform="translate(0,117)"><line x1="18.016" x2="500" y1="30.694129735157084" y2="30.694129735157084"></line></g><g stroke="hsla(220 6% 90%)" stroke-dasharray="1.5,1.5" transform="translate(0,130)"><line x1="18.016" x2="500" y1="30.694129735157084" y2="30.694129735157084"></line></g><g stroke="hsla(220 6% 90%)" stroke-dasharray="1.5,1.5" transform="translate(0,143)"><line x1="18.016" x2="500" y1="30.694129735157084" y2="30.694129735157084"></line></g><g stroke="hsla(220 6% 90%)" stroke-dasharray="1.5,1.5" transform="translate(0,156)"><line x1="18.016" x2="500" y1="30.694129735157084" y2="30.694129735157084"></line></g><g stroke="hsla(220 6% 90%)" stroke-dasharray="1.5,1.5" transform="translate(0,169)"><line x1="18.016" x2="500" y1="30.694129735157084" y2="30.694129735157084"></line></g><g stroke="hsla(220 6% 90%)" stroke-dasharray="1.5,1.5" transform="translate(0,182)"><line x1="18.016" x2="500" y1="30.694129735157084" y2="30.694129735157084"></line></g><g stroke="hsla(220 6% 90%)" stroke-dasharray="1.5,1.5" transform="translate(0,195)"><line x1="18.016" x2="500" y1="30.694129735157084" y2="30.694129735157084"></line></g><g stroke="hsla(220 6% 90%)" stroke-dasharray="1.5,1.5" transform="translate(0,208)"><line x1="18.016" x2="500" y1="30.694129735157084" y2="30.694129735157084"></line></g><g stroke="hsla(220 6% 90%)" stroke-dasharray="1.5,1.5" transform="translate(0,221)"><line x1="18.016" x2="500" y1="30.694129735157084" y2="30.694129735157084"></line></g><g stroke="hsla(220 6% 90%)" stroke-dasharray="1.5,1.5" transform="translate(0,234)"><line x1="18.016" x2="500" y1="30.694129735157084" y2="30.694129735157084"></line></g><g stroke="hsla(220 6% 90%)" stroke-dasharray="1.5,1.5" transform="translate(0,247)"><line x1="18.016" x2="500" y1="30.694129735157084" y2="30.694129735157084"></line></g><g stroke="hsla(220 6% 90%)" stroke-dasharray="1.5,1.5" transform="translate(0,260)"><line x1="18.016" x2="500" y1="30.694129735157084" y2="30.694129735157084"></line></g><g stroke="hsla(220 6% 90%)" stroke-dasharray="1.5,1.5" transform="translate(0,273)"><line x1="18.016" x2="500" y1="30.694129735157084" y2="30.694129735157084"></line></g><g stroke="hsla(220 6% 90%)" stroke-dasharray="1.5,1.5" transform="translate(0,286)"><line x1="18.016" x2="500" y1="30.694129735157084" y2="30.694129735157084"></line></g><g stroke="hsla(220 6% 90%)" stroke-dasharray="1.5,1.5" transform="translate(0,299)"><line x1="18.016" x2="500" y1="30.694129735157084" y2="30.694129735157084"></line></g><g stroke="hsla(220 6% 90%)" stroke-dasharray="1.5,1.5" transform="translate(0,312)"><line x1="18.016" x2="500" y1="30.694129735157084" y2="30.694129735157084"></line></g><g stroke="hsla(220 6% 90%)" stroke-dasharray="1.5,1.5" transform="translate(0,325)"><line x1="18.016" x2="500" y1="30.694129735157084" y2="30.694129735157084"></line></g><g stroke="hsla(220 6% 90%)" stroke-dasharray="1.5,1.5" transform="translate(0,338)"><line x1="18.016" x2="500" y1="30.694129735157084" y2="30.694129735157084"></line></g><g stroke="hsla(220 6% 90%)" stroke-dasharray="1.5,1.5" transform="translate(0,351)"><line x1="18.016" x2="500" y1="30.694129735157084" y2="30.694129735157084"></line></g><g stroke="hsla(220 6% 90%)" stroke-dasharray="1.5,1.5" transform="translate(0,364)"><line x1="18.016" x2="500" y1="30.694129735157084" y2="30.694129735157084"></line></g><g stroke="hsla(220 6% 90%)" stroke-dasharray="1.5,1.5" transform="translate(0,377)"><line x1="18.016" x2="500" y1="30.694129735157084" y2="30.694129735157084"></line></g><g stroke="hsla(220 6% 90%)" stroke-dasharray="1.5,1.5" transform="translate(0,390)"><line x1="18.016" x2="500" y1="30.694129735157084" y2="30.694129735157084"></line></g><g stroke="hsla(220 6% 90%)" stroke-dasharray="1.5,1.5" transform="translate(0,403)"><line x1="18.016" x2="500" y1="30.694129735157084" y2="30.694129735157084"></line></g><g stroke="hsla(220 6% 90%)" stroke-dasharray="1.5,1.5" transform="translate(0,416)"><line x1="18.016" x2="500" y1="30.694129735157084" y2="30.694129735157084"></line></g></g><g aria-label="line"><g fill="none" stroke="hsla(317 100% 50%)" stroke-width="1.5" stroke-linejoin="round" stroke-linecap="round" transform="translate(0,13)"><path d="M18.016,20.962L29.439,23.487L40.862,25.363L51.18,24.767L62.603,25.78L73.658,25.447L85.081,26.42L96.136,26.698L107.559,26.326L118.982,27.256L130.037,27.285L141.46,27.54L152.515,27.255L163.938,27.836L175.361,25.76L185.679,27.439L197.102,27.596L208.156,26.792L219.58,26.42L230.634,27.648L242.057,27.437L253.481,28.451L264.535,27.746L275.959,28.344L287.013,27.813L298.436,27.826L309.86,28.582L320.177,28.655L331.6,28.901L342.655,26.996L354.078,28.029L365.133,29.194L376.556,27.848L387.979,29.066L399.034,29.141L410.457,28.009L421.512,29.088L432.935,29.102L444.358,29.096L455.044,29.177L466.467,29.232L477.522,29.035L488.945,28.207L500,29.265"></path></g><g fill="none" stroke="hsla(317 100% 50%)" stroke-width="1.5" stroke-linejoin="round" stroke-linecap="round" transform="translate(0,26)"><path d="M18.016,20.971L29.439,23.317L40.862,25.443L51.18,24.777L62.603,25.688L73.658,24.847L85.081,26.316L96.136,26.59L107.559,26.55L118.982,27.252L130.037,27.277L141.46,26.507L152.515,27.784L163.938,25.719L175.361,27.431L185.679,26.869L197.102,26.999L208.156,27.397L219.58,27.724L230.634,27.656L242.057,24.192L253.481,27.782L264.535,28.426L275.959,28.339L287.013,28.524L298.436,27.104L309.86,25.088L320.177,28.652L331.6,28.891L342.655,28.532L354.078,28.826L365.133,28.357L376.556,28.742L387.979,29.065L399.034,29.137L410.457,28.975L421.512,29.094L432.935,29.102L444.358,29.096L455.044,29.181L466.467,29.239L477.522,28.005L488.945,29.239L500,29.261"></path></g><g fill="none" stroke="hsla(317 100% 50%)" stroke-width="1.5" stroke-linejoin="round" stroke-linecap="round" transform="translate(0,39)"><path d="M18.016,21L29.439,23.3L40.862,25.271L51.18,24.687L62.603,25.783L73.658,25.251L85.081,26.415L96.136,26.48L107.559,26.424L118.982,27.002L130.037,27.284L141.46,27.534L152.515,27.262L163.938,27.297L175.361,26.878L185.679,27.433L197.102,24.068L208.156,28.03L219.58,27.717L230.634,27.654L242.057,28.09L253.481,28.45L264.535,28.429L275.959,28.341L287.013,28.526L298.436,28.545L309.86,27.101L320.177,28.655L331.6,28.891L342.655,28.532L354.078,28.825L365.133,29.19L376.556,28.74L387.979,29.061L399.034,29.134L410.457,28.98L421.512,29.09L432.935,29.098L444.358,29.094L455.044,29.176L466.467,28.224L477.522,28.004L488.945,29.237L500,29.262"></path></g><g fill="none" stroke="hsla(317 100% 50%)" stroke-width="1.5" stroke-linejoin="round" stroke-linecap="round" transform="translate(0,52)"><path d="M18.016,20.959L29.439,23.397L40.862,25.21L51.18,24.435L62.603,25.781L73.658,25.439L85.081,26.524L96.136,26.703L107.559,26.553L118.982,27.133L130.037,27.154L141.46,27.015L152.515,27.788L163.938,27.835L175.361,26.887L185.679,27.424L197.102,28.192L208.156,28.026L219.58,27.717L230.634,27.649L242.057,28.091L253.481,28.447L264.535,27.754L275.959,28.343L287.013,27.808L298.436,28.548L309.86,28.583L320.177,28.651L331.6,28.898L342.655,27.767L354.078,28.031L365.133,29.19L376.556,28.744L387.979,29.066L399.034,29.14L410.457,28.975L421.512,29.093L432.935,29.1L444.358,29.096L455.044,29.178L466.467,29.233L477.522,29.037L488.945,28.21L500,29.264"></path></g><g fill="none" stroke="hsla(317 100% 50%)" stroke-width="1.5" stroke-linejoin="round" stroke-linecap="round" transform="translate(0,65)"><path d="M18.016,21.24L29.439,23.342L40.862,25.144L51.18,24.686L62.603,25.69L73.658,25.044L85.081,26.312L96.136,26.481L107.559,26.434L118.982,27.002L130.037,27.28L141.46,20L152.515,27.786L163.938,27.292L175.361,27.988L185.679,26.865L197.102,28.192L208.156,26.775L219.58,28.369L230.634,28.307L242.057,28.091L253.481,27.123L264.535,27.063L275.959,28.337L287.013,27.804L298.436,27.83L309.86,28.584L320.177,28.653L331.6,28.889L342.655,28.526L354.078,28.057L365.133,28.364L376.556,28.746L387.979,29.071L399.034,29.138L410.457,28.974L421.512,29.091L432.935,29.103L444.358,29.098L455.044,29.173L466.467,29.234L477.522,28.004L488.945,29.238L500,28.216"></path></g><g fill="none" stroke="hsla(317 100% 50%)" stroke-width="1.5" stroke-linejoin="round" stroke-linecap="round" transform="translate(0,78)"><path d="M18.016,20.99L29.439,23.372L40.862,24.955L51.18,24.83L62.603,25.685L73.658,25.335L85.081,26.318L96.136,26.6L107.559,26.58L118.982,27.287L130.037,27.19L141.46,27.537L152.515,27.788L163.938,27.838L175.361,27.359L185.679,27.46L197.102,28.183L208.156,27.611L219.58,28.369L230.634,28.303L242.057,26.784L253.481,28.453L264.535,28.425L275.959,28.515L287.013,27.982L298.436,27.816L309.86,27.844L320.177,28.642L331.6,28.914L342.655,20.063L354.078,28.823L365.133,28.859L376.556,27.859L387.979,28.134L399.034,29.064L410.457,28.976L421.512,29.095L432.935,29.106L444.358,29.471L455.044,29.159L466.467,29.207L477.522,29.138L488.945,28.217L500,28.491"></path></g><g fill="none" stroke="hsla(317 100% 50%)" stroke-width="1.5" stroke-linejoin="round" stroke-linecap="round" transform="translate(0,91)"><path d="M18.016,20.978L29.439,23.487L40.862,25.29L51.18,24.85L62.603,25.826L73.658,25.293L85.081,26.312L96.136,26.599L107.559,26.58L118.982,27.139L130.037,27.164L141.46,27.545L152.515,25.92L163.938,27.841L175.361,25.257L185.679,26.837L197.102,27.776L208.156,27.349L219.58,28.369L230.634,28.312L242.057,26.766L253.481,28.47L264.535,28.432L275.959,28.353L287.013,28.538L298.436,27.83L309.86,27.849L320.177,29.056L331.6,28.765L342.655,28.565L354.078,28.828L365.133,28.001L376.556,28.735L387.979,29.038L399.034,29.038L410.457,28.958L421.512,29.077L432.935,29.093L444.358,29.073L455.044,29.161L466.467,29.208L477.522,28.005L488.945,29.254L500,29.245"></path></g><g fill="none" stroke="hsla(317 100% 50%)" stroke-width="1.5" stroke-linejoin="round" stroke-linecap="round" transform="translate(0,104)"><path d="M18.016,21.423L29.439,25.716L40.862,24.782L51.18,25.665L62.603,25.694L73.658,25.331L85.081,26.418L96.136,27.236L107.559,26.573L118.982,27.24L130.037,27.159L141.46,26.706L152.515,27.365L163.938,28.399L175.361,27.899L185.679,28.034L197.102,27.588L208.156,28L219.58,27.726L230.634,28.309L242.057,28.087L253.481,28.469L264.535,27.739L275.959,28.332L287.013,27.799L298.436,29.05L309.86,29.342L320.177,27.897L331.6,28.747L342.655,28.495L354.078,28.819L365.133,28.829L376.556,27.867L387.979,29.235L399.034,31.643L410.457,28.961L421.512,29.949L432.935,28.469L444.358,28.104L455.044,28.268L466.467,30.256L477.522,29.028L488.945,29.387L500,29.243"></path></g><g fill="none" stroke="hsla(317 100% 50%)" stroke-width="1.5" stroke-linejoin="round" stroke-linecap="round" transform="translate(0,117)"><path d="M18.016,21.193L29.439,23.484L40.862,25.938L51.18,24.933L62.603,25.505L73.658,25.432L85.081,26.33L96.136,26.575L107.559,26.705L118.982,27.381L130.037,27.765L141.46,27.14L152.515,26.711L163.938,27.303L175.361,28.097L185.679,26.055L197.102,28.605L208.156,27.477L219.58,25.932L230.634,28.487L242.057,28.286L253.481,28.72L264.535,27.287L275.959,28.474L287.013,28.77L298.436,28.733L309.86,28.706L320.177,28.863L331.6,28.951L342.655,27.86L354.078,29.01L365.133,28.153L376.556,28.807L387.979,28.286L399.034,28.339L410.457,28.125L421.512,29.383L432.935,29.264L444.358,29.526L455.044,29.397L466.467,30.085L477.522,29.385L488.945,30.275L500,29.721"></path></g><g fill="none" stroke="hsla(317 100% 50%)" stroke-width="1.5" stroke-linejoin="round" stroke-linecap="round" transform="translate(0,130)"><path d="M18.016,21.052L29.439,23.497L40.862,25.168L51.18,24.68L62.603,25.596L73.658,25.336L85.081,26.314L96.136,26.588L107.559,26.206L118.982,27.28L130.037,27.319L141.46,27.023L152.515,27.779L163.938,26.756L175.361,26.821L185.679,28.036L197.102,28.179L208.156,27.598L219.58,27.711L230.634,27.647L242.057,28.091L253.481,28.45L264.535,27.068L275.959,28.513L287.013,28.689L298.436,28.542L309.86,28.581L320.177,28.643L331.6,28.139L342.655,27.714L354.078,25.75L365.133,28.857L376.556,28.741L387.979,29.048L399.034,29.066L410.457,28.973L421.512,27.216L432.935,28.139L444.358,30.489L455.044,29.159L466.467,29.207L477.522,29.139L488.945,29.232L500,29.451"></path></g><g fill="none" stroke="hsla(317 100% 50%)" stroke-width="1.5" stroke-linejoin="round" stroke-linecap="round" transform="translate(0,143)"><path d="M18.016,21.198L29.439,23.444L40.862,25.213L51.18,24.772L62.603,25.512L73.658,25.342L85.081,26.522L96.136,26.594L107.559,26.467L118.982,27.036L130.037,27.196L141.46,27.013L152.515,27.789L163.938,27.298L175.361,27.374L185.679,27.468L197.102,27.59L208.156,26.975L219.58,27.715L230.634,27.648L242.057,28.087L253.481,25.817L264.535,28.422L275.959,27.831L287.013,28.695L298.436,28.541L309.86,28.582L320.177,27.888L331.6,28.907L342.655,28.497L354.078,28.823L365.133,28.86L376.556,28.743L387.979,29.054L399.034,29.068L410.457,28.975L421.512,29.094L432.935,29.105L444.358,30.49L455.044,29.158L466.467,29.208L477.522,29.142L488.945,28.194L500,28.396"></path></g><g fill="none" stroke="hsla(317 100% 50%)" stroke-width="1.5" stroke-linejoin="round" stroke-linecap="round" transform="translate(0,156)"><path d="M18.016,21.06L29.439,23.422L40.862,25.214L51.18,25.103L62.603,25.682L73.658,25.236L85.081,26.522L96.136,26.694L107.559,26.467L118.982,27.154L130.037,27.187L141.46,26.499L152.515,26.707L163.938,27.289L175.361,27.374L185.679,27.472L197.102,28.181L208.156,28.228L219.58,28.366L230.634,28.304L242.057,28.091L253.481,28.454L264.535,28.421L275.959,27.803L287.013,28.689L298.436,28.542L309.86,28.583L320.177,28.648L331.6,28.906L342.655,28.497L354.078,28.82L365.133,28.859L376.556,28.74L387.979,29.048L399.034,29.066L410.457,28.975L421.512,28.143L432.935,29.106L444.358,30.491L455.044,28.144L466.467,28.206L477.522,29.138L488.945,28.195L500,29.452"></path></g><g fill="none" stroke="hsla(317 100% 50%)" stroke-width="1.5" stroke-linejoin="round" stroke-linecap="round" transform="translate(0,169)"><path d="M18.016,21.038L29.439,23.493L40.862,25.373L51.18,25.175L62.603,25.771L73.658,25.423L85.081,26.525L96.136,26.59L107.559,26.585L118.982,27.16L130.037,26.801L141.46,25.966L152.515,27.252L163.938,27.837L175.361,25.817L185.679,28.035L197.102,28.177L208.156,28.228L219.58,28.369L230.634,25.796L242.057,26.767L253.481,23.843L264.535,27.065L275.959,27.81L287.013,27.972L298.436,27.815L309.86,28.583L320.177,28.65L331.6,28.14L342.655,28.503L354.078,27.233L365.133,28.859L376.556,27.88L387.979,29.05L399.034,28.178L410.457,28.976L421.512,29.096L432.935,29.11L444.358,30.489L455.044,29.162L466.467,29.208L477.522,29.139L488.945,29.232L500,28.399"></path></g><g fill="none" stroke="hsla(317 100% 50%)" stroke-width="1.5" stroke-linejoin="round" stroke-linecap="round" transform="translate(0,182)"><path d="M18.016,20.946L29.439,23.361L40.862,25.201L51.18,25.01L62.603,25.771L73.658,25.518L85.081,26.424L96.136,26.697L107.559,26.461L118.982,27.167L130.037,27.189L141.46,25.428L152.515,26.712L163.938,27.839L175.361,27.935L185.679,28.032L197.102,27.771L208.156,28.229L219.58,28.371L230.634,28.304L242.057,26.105L253.481,27.797L264.535,27.744L275.959,28.514L287.013,27.563L298.436,26.188L309.86,27.832L320.177,28.647L331.6,28.252L342.655,28.496L354.078,28.014L365.133,28.034L376.556,28.741L387.979,29.05L399.034,29.066L410.457,28.976L421.512,28.118L432.935,29.112L444.358,30.493L455.044,29.16L466.467,29.207L477.522,28.109L488.945,28.151L500,29.451"></path></g><g fill="none" stroke="hsla(317 100% 50%)" stroke-width="1.5" stroke-linejoin="round" stroke-linecap="round" transform="translate(0,195)"><path d="M18.016,20.833L29.439,23.427L40.862,25.28L51.18,25.102L62.603,25.6L73.658,25.245L85.081,26.417L96.136,26.588L107.559,26.343L118.982,27.157L130.037,26.038L141.46,27.014L152.515,26.704L163.938,26.756L175.361,27.931L185.679,25.81L197.102,27.563L208.156,27.6L219.58,28.37L230.634,28.302L242.057,28.091L253.481,27.121L264.535,28.427L275.959,27.818L287.013,28.689L298.436,28.539L309.86,28.588L320.177,25.759L331.6,28.147L342.655,28.496L354.078,28.823L365.133,28.86L376.556,26.89L387.979,29.049L399.034,28.119L410.457,28.974L421.512,29.098L432.935,29.107L444.358,30.493L455.044,29.158L466.467,29.209L477.522,29.139L488.945,28.231L500,28.407"></path></g><g fill="none" stroke="hsla(317 100% 50%)" stroke-width="1.5" stroke-linejoin="round" stroke-linecap="round" transform="translate(0,208)"><path d="M18.016,21.116L29.439,23.514L40.862,25.045L51.18,25.102L62.603,25.5L73.658,25.34L85.081,26.416L96.136,26.583L107.559,26.339L118.982,27.143L130.037,27.314L141.46,27.539L152.515,26.706L163.938,27.841L175.361,27.368L185.679,25.216L197.102,28.178L208.156,28.226L219.58,28.367L230.634,28.305L242.057,28.087L253.481,28.454L264.535,28.422L275.959,27.822L287.013,28.688L298.436,28.543L309.86,28.579L320.177,27.884L331.6,28.912L342.655,27.718L354.078,28.822L365.133,28.859L376.556,28.74L387.979,29.051L399.034,29.069L410.457,25.392L421.512,29.095L432.935,28.129L444.358,29.512L455.044,29.16L466.467,28.191L477.522,29.141L488.945,28.207L500,29.45"></path></g><g fill="none" stroke="hsla(317 100% 50%)" stroke-width="1.5" stroke-linejoin="round" stroke-linecap="round" transform="translate(0,221)"><path d="M18.016,21.137L29.439,23.672L40.862,25.287L51.18,25.166L62.603,25.775L73.658,25.342L85.081,26.527L96.136,26.586L107.559,25.991L118.982,27.283L130.037,27.195L141.46,27.034L152.515,27.246L163.938,27.29L175.361,27.94L185.679,25.264L197.102,27.569L208.156,27.602L219.58,28.365L230.634,28.308L242.057,28.089L253.481,28.455L264.535,27.054L275.959,28.51L287.013,28.691L298.436,27.817L309.86,28.583L320.177,27.878L331.6,28.91L342.655,27.16L354.078,27.226L365.133,28.861L376.556,27.87L387.979,28.149L399.034,29.069L410.457,28.977L421.512,29.094L432.935,28.158L444.358,28.521L455.044,29.161L466.467,29.209L477.522,28.118L488.945,29.233L500,29.45"></path></g><g fill="none" stroke="hsla(317 100% 50%)" stroke-width="1.5" stroke-linejoin="round" stroke-linecap="round" transform="translate(0,234)"><path d="M18.016,20.999L29.439,23.457L40.862,25.216L51.18,25.011L62.603,25.772L73.658,25.43L85.081,26.415L96.136,26.698L107.559,26.543L118.982,26.915L130.037,27.198L141.46,27.541L152.515,27.786L163.938,27.842L175.361,27.935L185.679,27.466L197.102,27.588L208.156,28.225L219.58,27.074L230.634,27.19L242.057,28.09L253.481,28.455L264.535,27.748L275.959,27.306L287.013,27.977L298.436,28.546L309.86,27.855L320.177,27.889L331.6,28.908L342.655,27.731L354.078,25.017L365.133,28.863L376.556,28.74L387.979,29.052L399.034,26.227L410.457,28.976L421.512,29.095L432.935,29.107L444.358,30.491L455.044,29.161L466.467,29.208L477.522,29.139L488.945,29.232L500,29.451"></path></g><g fill="none" stroke="hsla(317 100% 50%)" stroke-width="1.5" stroke-linejoin="round" stroke-linecap="round" transform="translate(0,247)"><path d="M18.016,21.054L29.439,23.438L40.862,25.049L51.18,25.083L62.603,25.51L73.658,25.528L85.081,26.524L96.136,26.699L107.559,26.335L118.982,27.267L130.037,27.186L141.46,27.54L152.515,27.784L163.938,26.913L175.361,27.381L185.679,27.429L197.102,28.182L208.156,26.971L219.58,28.367L230.634,28.304L242.057,27.431L253.481,27.783L264.535,28.429L275.959,28.516L287.013,28.695L298.436,28.543L309.86,27.846L320.177,27.885L331.6,28.132L342.655,28.493L354.078,28.821L365.133,28.011L376.556,28.741L387.979,29.054L399.034,26.257L410.457,28.974L421.512,29.094L432.935,28.133L444.358,30.492L455.044,25.288L466.467,29.207L477.522,29.138L488.945,28.201L500,29.452"></path></g><g fill="none" stroke="hsla(317 100% 50%)" stroke-width="1.5" stroke-linejoin="round" stroke-linecap="round" transform="translate(0,260)"><path d="M18.016,21.001L29.439,23.714L40.862,25.38L51.18,24.681L62.603,25.692L73.658,25.473L85.081,26.43L96.136,26.607L107.559,26.476L118.982,27.268L130.037,27.188L141.46,27.028L152.515,25.682L163.938,27.852L175.361,26.819L185.679,26.879L197.102,28.228L208.156,26.78L219.58,28.373L230.634,28.466L242.057,28.089L253.481,27.808L264.535,27.771L275.959,28.352L287.013,28.527L298.436,28.603L309.86,28.587L320.177,27.893L331.6,28.907L342.655,28.589L354.078,28.839L365.133,28.897L376.556,28.77L387.979,29.094L399.034,28.103L410.457,28.968L421.512,29.089L432.935,29.102L444.358,29.086L455.044,29.165L466.467,29.211L477.522,29.373L488.945,28.211L500,29.25"></path></g><g fill="none" stroke="hsla(317 100% 50%)" stroke-width="1.5" stroke-linejoin="round" stroke-linecap="round" transform="translate(0,273)"><path d="M18.016,20.778L29.439,23.213L40.862,25.356L51.18,25.081L62.603,25.323L73.658,25.337L85.081,26.318L96.136,26.595L107.559,26.35L118.982,27.152L130.037,27.184L141.46,25.584L152.515,27.241L163.938,27.848L175.361,26.833L185.679,27.449L197.102,27.582L208.156,27.598L219.58,27.715L230.634,28.304L242.057,28.09L253.481,28.452L264.535,28.427L275.959,28.512L287.013,27.978L298.436,27.819L309.86,28.583L320.177,28.646L331.6,28.909L342.655,28.501L354.078,28.823L365.133,28.858L376.556,28.742L387.979,28.133L399.034,29.067L410.457,28.977L421.512,25.705L432.935,29.106L444.358,30.49L455.044,29.157L466.467,29.209L477.522,28.107L488.945,28.191L500,29.449"></path></g><g fill="none" stroke="hsla(317 100% 50%)" stroke-width="1.5" stroke-linejoin="round" stroke-linecap="round" transform="translate(0,286)"><path d="M18.016,21.086L29.439,23.546L40.862,25.085L51.18,24.375L62.603,25.432L73.658,25.286L85.081,26.414L96.136,26.705L107.559,26.248L118.982,26.886L130.037,26.938L141.46,27.549L152.515,27.804L163.938,27.851L175.361,25.268L185.679,26.868L197.102,28.223L208.156,28.022L219.58,28.371L230.634,28.462L242.057,28.091L253.481,28.485L264.535,27.751L275.959,25.11L287.013,27.095L298.436,28.6L309.86,28.584L320.177,28.65L331.6,28.137L342.655,28.588L354.078,28.835L365.133,28.897L376.556,28.779L387.979,28.77L399.034,29.093L410.457,28.967L421.512,29.09L432.935,29.104L444.358,29.088L455.044,29.165L466.467,29.21L477.522,29.369L488.945,29.243L500,29.249"></path></g><g fill="none" stroke="hsla(317 100% 50%)" stroke-width="1.5" stroke-linejoin="round" stroke-linecap="round" transform="translate(0,299)"><path d="M18.016,21.257L29.439,23.567L40.862,25.17L51.18,24.709L62.603,25.345L73.658,25.447L85.081,26.44L96.136,26.715L107.559,26.464L118.982,27.142L130.037,27.181L141.46,26.39L152.515,27.799L163.938,27.318L175.361,27.377L185.679,28.017L197.102,27.615L208.156,27.37L219.58,28.383L230.634,28.322L242.057,25.465L253.481,27.856L264.535,28.6L275.959,28.711L287.013,28.675L298.436,28.671L309.86,28.76L320.177,29.022L331.6,29.173L342.655,27.818L354.078,28.008L365.133,28.849L376.556,27.853L387.979,29.039L399.034,29.048L410.457,28.96L421.512,29.123L432.935,29.131L444.358,29.122L455.044,29.971L466.467,28.279L477.522,29.063L488.945,28.239L500,28.244"></path></g><g fill="none" stroke="hsla(317 100% 50%)" stroke-width="1.5" stroke-linejoin="round" stroke-linecap="round" transform="translate(0,312)"><path d="M18.016,20.947L29.439,23.445L40.862,25.293L51.18,25.008L62.603,25.423L73.658,25.239L85.081,26.314L96.136,26.701L107.559,26.575L118.982,27.16L130.037,27.227L141.46,26.496L152.515,27.782L163.938,27.839L175.361,26.82L185.679,28.034L197.102,28.183L208.156,28.224L219.58,27.72L230.634,28.305L242.057,27.429L253.481,28.452L264.535,28.427L275.959,27.817L287.013,28.694L298.436,28.541L309.86,27.111L320.177,28.644L331.6,28.911L342.655,28.5L354.078,28.822L365.133,28.858L376.556,28.741L387.979,29.049L399.034,29.071L410.457,28.978L421.512,29.093L432.935,28.125L444.358,30.49L455.044,29.159L466.467,29.207L477.522,28.11L488.945,29.233L500,29.45"></path></g><g fill="none" stroke="hsla(317 100% 50%)" stroke-width="1.5" stroke-linejoin="round" stroke-linecap="round" transform="translate(0,325)"><path d="M18.016,20.854L29.439,23.686L40.862,25.277L51.18,24.754L62.603,25.771L73.658,25.146L85.081,26.409L96.136,26.585L107.559,26.227L118.982,27.033L130.037,27.196L141.46,27.54L152.515,27.779L163.938,27.836L175.361,27.93L185.679,27.466L197.102,27.567L208.156,28.225L219.58,28.364L230.634,27.649L242.057,28.089L253.481,28.457L264.535,27.738L275.959,27.82L287.013,27.981L298.436,27.82L309.86,28.577L320.177,28.649L331.6,28.907L342.655,28.495L354.078,28.821L365.133,28.858L376.556,28.745L387.979,28.135L399.034,29.068L410.457,28.975L421.512,28.121L432.935,29.106L444.358,30.49L455.044,29.16L466.467,29.21L477.522,29.139L488.945,29.232L500,29.448"></path></g><g fill="none" stroke="hsla(317 100% 50%)" stroke-width="1.5" stroke-linejoin="round" stroke-linecap="round" transform="translate(0,338)"><path d="M18.016,20.959L29.439,23.58L40.862,25.448L51.18,24.758L62.603,25.606L73.658,25.378L85.081,26.316L96.136,26.497L107.559,26.241L118.982,27.14L130.037,27.062L141.46,27.033L152.515,27.797L163.938,27.304L175.361,27.927L185.679,28.024L197.102,27.02L208.156,28.024L219.58,28.369L230.634,28.46L242.057,28.094L253.481,28.482L264.535,28.44L275.959,27.663L287.013,28.531L298.436,28.599L309.86,28.583L320.177,28.655L331.6,28.906L342.655,28.582L354.078,28.831L365.133,28.896L376.556,28.782L387.979,29.094L399.034,29.093L410.457,28.967L421.512,29.094L432.935,29.102L444.358,29.087L455.044,29.163L466.467,29.211L477.522,29.371L488.945,29.246L500,29.25"></path></g><g fill="none" stroke="hsla(317 100% 50%)" stroke-width="1.5" stroke-linejoin="round" stroke-linecap="round" transform="translate(0,351)"><path d="M18.016,20.862L29.439,23.313L40.862,25.127L51.18,25.018L62.603,25.777L73.658,25.336L85.081,26.418L96.136,26.139L107.559,26.576L118.982,27.278L130.037,27.317L141.46,27.539L152.515,27.245L163.938,27.846L175.361,27.929L185.679,28.036L197.102,28.181L208.156,27.595L219.58,28.366L230.634,28.3L242.057,27.427L253.481,27.787L264.535,28.421L275.959,27.827L287.013,28.691L298.436,27.822L309.86,28.583L320.177,28.643L331.6,28.908L342.655,27.701L354.078,28.821L365.133,28.858L376.556,28.743L387.979,29.048L399.034,29.067L410.457,28.015L421.512,28.124L432.935,29.106L444.358,30.489L455.044,29.158L466.467,29.209L477.522,28.104L488.945,29.234L500,28.406"></path></g><g fill="none" stroke="hsla(317 100% 50%)" stroke-width="1.5" stroke-linejoin="round" stroke-linecap="round" transform="translate(0,364)"><path d="M18.016,21.031L29.439,23.639L40.862,25.514L51.18,24.856L62.603,25.69L73.658,25.538L85.081,26.23L96.136,26.665L107.559,26.555L118.982,27.098L130.037,26.639L141.46,27.53L152.515,27.235L163.938,27.83L175.361,27.892L185.679,27.986L197.102,25.762L208.156,27.991L219.58,28.368L230.634,28.301L242.057,27.423L253.481,28.458L264.535,25.896L275.959,28.424L287.013,28.57L298.436,28.541L309.86,28.577L320.177,28.659L331.6,28.775L342.655,25.386L354.078,28.84L365.133,25.855L376.556,28.751L387.979,29.059L399.034,29.095L410.457,29L421.512,29.116L432.935,29.138L444.358,29.129L455.044,29.192L466.467,27.214L477.522,28.04L488.945,29.276L500,29.295"></path></g><g fill="none" stroke="hsla(317 100% 50%)" stroke-width="1.5" stroke-linejoin="round" stroke-linecap="round" transform="translate(0,377)"><path d="M18.016,20.871L29.439,23.554L40.862,25.365L51.18,24.913L62.603,25.6L73.658,25.336L85.081,26.214L96.136,26.587L107.559,26.446L118.982,27.029L130.037,27.181L141.46,27.022L152.515,26.186L163.938,27.839L175.361,27.377L185.679,28.035L197.102,28.179L208.156,28.227L219.58,28.367L230.634,28.303L242.057,25.502L253.481,28.454L264.535,28.424L275.959,27.815L287.013,28.69L298.436,28.543L309.86,28.58L320.177,28.647L331.6,28.91L342.655,28.496L354.078,28.822L365.133,28.009L376.556,28.743L387.979,29.052L399.034,29.064L410.457,28.01L421.512,29.097L432.935,29.104L444.358,30.491L455.044,29.16L466.467,28.149L477.522,29.138L488.945,29.232L500,29.451"></path></g><g fill="none" stroke="hsla(317 100% 50%)" stroke-width="1.5" stroke-linejoin="round" stroke-linecap="round" transform="translate(0,390)"><path d="M18.016,20.997L29.439,23.417L40.862,25.071L51.18,25.101L62.603,25.415L73.658,25.034L85.081,26.419L96.136,26.47L107.559,26.469L118.982,27.283L130.037,27.323L141.46,27.541L152.515,27.249L163.938,27.299L175.361,25.703L185.679,27.464L197.102,27.589L208.156,28.23L219.58,27.722L230.634,25.771L242.057,28.089L253.481,27.118L264.535,28.426L275.959,27.819L287.013,28.692L298.436,28.543L309.86,28.584L320.177,27.89L331.6,28.908L342.655,27.716L354.078,28.821L365.133,27.185L376.556,28.742L387.979,29.051L399.034,28.116L410.457,25.351L421.512,29.1L432.935,29.107L444.358,30.491L455.044,29.159L466.467,29.207L477.522,29.137L488.945,29.232L500,25.451"></path></g><g fill="none" stroke="hsla(317 100% 50%)" stroke-width="1.5" stroke-linejoin="round" stroke-linecap="round" transform="translate(0,403)"><path d="M18.016,21.058L29.439,23.614L40.862,25.306L51.18,24.675L62.603,25.52L73.658,25.473L85.081,26.211L96.136,26.596L107.559,26.234L118.982,27.16L130.037,27.312L141.46,27.037L152.515,26.739L163.938,27.317L175.361,27.371L185.679,27.445L197.102,28.216L208.156,28.026L219.58,27.615L230.634,25.961L242.057,28.091L253.481,28.489L264.535,27.758L275.959,28.354L287.013,28.534L298.436,28.602L309.86,27.846L320.177,28.651L331.6,28.896L342.655,27.815L354.078,28.831L365.133,28.894L376.556,27.895L387.979,28.157L399.034,29.091L410.457,28.965L421.512,29.09L432.935,29.104L444.358,26.095L455.044,29.163L466.467,29.212L477.522,29.368L488.945,29.243L500,29.25"></path></g><g fill="none" stroke="hsla(317 100% 50%)" stroke-width="1.5" stroke-linejoin="round" stroke-linecap="round" transform="translate(0,416)"><path d="M18.016,23.026L29.439,26.465L40.862,27.826L51.18,25.362L62.603,26.668L73.658,25.717L85.081,26.496L96.136,26.85L107.559,28.884L118.982,28.108L130.037,27.282L141.46,27.044L152.515,26.943L163.938,27.342L175.361,27.917L185.679,27.438L197.102,28.227L208.156,27.377L219.58,31.908L230.634,26.993L242.057,28.105L253.481,28.484L264.535,29.22L275.959,29.49L287.013,29.188L298.436,27.828L309.86,29.363L320.177,28.65L331.6,28.884L342.655,27.734L354.078,28.839L365.133,30.453L376.556,29.452L387.979,29.9L399.034,30.375L410.457,32L421.512,29.935L432.935,29.996L444.358,30.349L455.044,29.875L466.467,29.253L477.522,30.018L488.945,30.585L500,29.204"></path></g></g><g aria-label="text" transform="translate(3,3)"><g text-anchor="start" font-variant="tabular-nums" transform="translate(0,13)"><text y="0.71em" transform="translate(18.016,20)">0</text></g><g text-anchor="start" font-variant="tabular-nums" transform="translate(0,26)"><text y="0.71em" transform="translate(18.016,20)" style="display: none;">1</text></g><g text-anchor="start" font-variant="tabular-nums" transform="translate(0,39)"><text y="0.71em" transform="translate(18.016,20)">2</text></g><g text-anchor="start" font-variant="tabular-nums" transform="translate(0,52)"><text y="0.71em" transform="translate(18.016,20)" style="display: none;">3</text></g><g text-anchor="start" font-variant="tabular-nums" transform="translate(0,65)"><text y="0.71em" transform="translate(18.016,20)">4</text></g><g text-anchor="start" font-variant="tabular-nums" transform="translate(0,78)"><text y="0.71em" transform="translate(18.016,20)" style="display: none;">5</text></g><g text-anchor="start" font-variant="tabular-nums" transform="translate(0,91)"><text y="0.71em" transform="translate(18.016,20)">6</text></g><g text-anchor="start" font-variant="tabular-nums" transform="translate(0,104)"><text y="0.71em" transform="translate(18.016,20)" style="display: none;">7</text></g><g text-anchor="start" font-variant="tabular-nums" transform="translate(0,117)"><text y="0.71em" transform="translate(18.016,20)">9</text></g><g text-anchor="start" font-variant="tabular-nums" transform="translate(0,130)"><text y="0.71em" transform="translate(18.016,20)" style="display: none;">10</text></g><g text-anchor="start" font-variant="tabular-nums" transform="translate(0,143)"><text y="0.71em" transform="translate(18.016,20)">11</text></g><g text-anchor="start" font-variant="tabular-nums" transform="translate(0,156)"><text y="0.71em" transform="translate(18.016,20)" style="display: none;">12</text></g><g text-anchor="start" font-variant="tabular-nums" transform="translate(0,169)"><text y="0.71em" transform="translate(18.016,20)">13</text></g><g text-anchor="start" font-variant="tabular-nums" transform="translate(0,182)"><text y="0.71em" transform="translate(18.016,20)" style="display: none;">14</text></g><g text-anchor="start" font-variant="tabular-nums" transform="translate(0,195)"><text y="0.71em" transform="translate(18.016,20)">15</text></g><g text-anchor="start" font-variant="tabular-nums" transform="translate(0,208)"><text y="0.71em" transform="translate(18.016,20)" style="display: none;">16</text></g><g text-anchor="start" font-variant="tabular-nums" transform="translate(0,221)"><text y="0.71em" transform="translate(18.016,20)">17</text></g><g text-anchor="start" font-variant="tabular-nums" transform="translate(0,234)"><text y="0.71em" transform="translate(18.016,20)" style="display: none;">18</text></g><g text-anchor="start" font-variant="tabular-nums" transform="translate(0,247)"><text y="0.71em" transform="translate(18.016,20)">19</text></g><g text-anchor="start" font-variant="tabular-nums" transform="translate(0,260)"><text y="0.71em" transform="translate(18.016,20)" style="display: none;">20</text></g><g text-anchor="start" font-variant="tabular-nums" transform="translate(0,273)"><text y="0.71em" transform="translate(18.016,20)">21</text></g><g text-anchor="start" font-variant="tabular-nums" transform="translate(0,286)"><text y="0.71em" transform="translate(18.016,20)" style="display: none;">22</text></g><g text-anchor="start" font-variant="tabular-nums" transform="translate(0,299)"><text y="0.71em" transform="translate(18.016,20)">23</text></g><g text-anchor="start" font-variant="tabular-nums" transform="translate(0,312)"><text y="0.71em" transform="translate(18.016,20)" style="display: none;">24</text></g><g text-anchor="start" font-variant="tabular-nums" transform="translate(0,325)"><text y="0.71em" transform="translate(18.016,20)">25</text></g><g text-anchor="start" font-variant="tabular-nums" transform="translate(0,338)"><text y="0.71em" transform="translate(18.016,20)" style="display: none;">26</text></g><g text-anchor="start" font-variant="tabular-nums" transform="translate(0,351)"><text y="0.71em" transform="translate(18.016,20)">27</text></g><g text-anchor="start" font-variant="tabular-nums" transform="translate(0,364)"><text y="0.71em" transform="translate(18.016,20)" style="display: none;">28</text></g><g text-anchor="start" font-variant="tabular-nums" transform="translate(0,377)"><text y="0.71em" transform="translate(18.016,20)">29</text></g><g text-anchor="start" font-variant="tabular-nums" transform="translate(0,390)"><text y="0.71em" transform="translate(18.016,20)" style="display: none;">30</text></g><g text-anchor="start" font-variant="tabular-nums" transform="translate(0,403)"><text y="0.71em" transform="translate(18.016,20)">31</text></g><g text-anchor="start" font-variant="tabular-nums" transform="translate(0,416)"><text y="0.71em" transform="translate(18.016,20)" style="display: none;">32</text></g></g></svg>