<svg class="plot-chart" fill="currentColor" font-family="system-ui, sans-serif" font-size="10" text-anchor="middle" width="500" height="500" viewBox="0 0 500 500" style="overflow: visible;" xmlns="http://www.w3.org/2000/svg"><style>:where(.plot-chart) {
  --plot-background: white;
  display: block;
  height: auto;
  height: intrinsic;
  max-width: 100%;
}
:where(.plot-chart text),
:where(.plot-chart tspan) {
  white-space: pre;
}</style><g aria-label="fy-axis tick label" transform="translate(9,0)"><g text-anchor="start" transform="translate(0,2)"><text y="0.32em" transform="translate(460,26.5)">0</text></g><g text-anchor="start" transform="translate(0,16)"><text y="0.32em" transform="translate(460,26.5)">1</text></g><g text-anchor="start" transform="translate(0,30)"><text y="0.32em" transform="translate(460,26.5)">2</text></g><g text-anchor="start" transform="translate(0,44)"><text y="0.32em" transform="translate(460,26.5)">3</text></g><g text-anchor="start" transform="translate(0,58)"><text y="0.32em" transform="translate(460,26.5)">4</text></g><g text-anchor="start" transform="translate(0,72)"><text y="0.32em" transform="translate(460,26.5)">5</text></g><g text-anchor="start" transform="translate(0,86)"><text y="0.32em" transform="translate(460,26.5)">6</text></g><g text-anchor="start" transform="translate(0,100)"><text y="0.32em" transform="translate(460,26.5)">7</text></g><g text-anchor="start" transform="translate(0,114)"><text y="0.32em" transform="translate(460,26.5)">9</text></g><g text-anchor="start" transform="translate(0,128)"><text y="0.32em" transform="translate(460,26.5)">10</text></g><g text-anchor="start" transform="translate(0,142)"><text y="0.32em" transform="translate(460,26.5)">11</text></g><g text-anchor="start" transform="translate(0,156)"><text y="0.32em" transform="translate(460,26.5)">12</text></g><g text-anchor="start" transform="translate(0,170)"><text y="0.32em" transform="translate(460,26.5)">13</text></g><g text-anchor="start" transform="translate(0,184)"><text y="0.32em" transform="translate(460,26.5)">14</text></g><g text-anchor="start" transform="translate(0,198)"><text y="0.32em" transform="translate(460,26.5)">15</text></g><g text-anchor="start" transform="translate(0,212)"><text y="0.32em" transform="translate(460,26.5)">16</text></g><g text-anchor="start" transform="translate(0,226)"><text y="0.32em" transform="translate(460,26.5)">17</text></g><g text-anchor="start" transform="translate(0,240)"><text y="0.32em" transform="translate(460,26.5)">18</text></g><g text-anchor="start" transform="translate(0,254)"><text y="0.32em" transform="translate(460,26.5)">19</text></g><g text-anchor="start" transform="translate(0,268)"><text y="0.32em" transform="translate(460,26.5)">20</text></g><g text-anchor="start" transform="translate(0,282)"><text y="0.32em" transform="translate(460,26.5)">21</text></g><g text-anchor="start" transform="translate(0,296)"><text y="0.32em" transform="translate(460,26.5)">22</text></g><g text-anchor="start" transform="translate(0,310)"><text y="0.32em" transform="translate(460,26.5)">23</text></g><g text-anchor="start" transform="translate(0,324)"><text y="0.32em" transform="translate(460,26.5)">24</text></g><g text-anchor="start" transform="translate(0,338)"><text y="0.32em" transform="translate(460,26.5)">25</text></g><g text-anchor="start" transform="translate(0,352)"><text y="0.32em" transform="translate(460,26.5)">26</text></g><g text-anchor="start" transform="translate(0,366)"><text y="0.32em" transform="translate(460,26.5)">27</text></g><g text-anchor="start" transform="translate(0,380)"><text y="0.32em" transform="translate(460,26.5)">28</text></g><g text-anchor="start" transform="translate(0,394)"><text y="0.32em" transform="translate(460,26.5)">29</text></g><g text-anchor="start" transform="translate(0,408)"><text y="0.32em" transform="translate(460,26.5)">30</text></g><g text-anchor="start" transform="translate(0,422)"><text y="0.32em" transform="translate(460,26.5)">31</text></g><g text-anchor="start" transform="translate(0,436)"><text y="0.32em" transform="translate(460,26.5)">32</text></g></g><g aria-label="fy-axis label" transform="translate(37,0)"><text transform="translate(460,245.5) rotate(-90)">facet</text></g><g aria-label="y-axis tick" aria-hidden="true"><g fill="none" stroke="currentColor" transform="translate(0,2)"><path transform="translate(40,31.585307213086843)" d="M0,0L-6,0"></path></g><g fill="none" stroke="currentColor" transform="translate(0,16)"><path transform="translate(40,31.585307213086843)" d="M0,0L-6,0"></path></g><g fill="none" stroke="currentColor" transform="translate(0,30)"><path transform="translate(40,31.585307213086843)" d="M0,0L-6,0"></path></g><g fill="none" stroke="currentColor" transform="translate(0,44)"><path transform="translate(40,31.585307213086843)" d="M0,0L-6,0"></path></g><g fill="none" stroke="currentColor" transform="translate(0,58)"><path transform="translate(40,31.585307213086843)" d="M0,0L-6,0"></path></g><g fill="none" stroke="currentColor" transform="translate(0,72)"><path transform="translate(40,31.585307213086843)" d="M0,0L-6,0"></path></g><g fill="none" stroke="currentColor" transform="translate(0,86)"><path transform="translate(40,31.585307213086843)" d="M0,0L-6,0"></path></g><g fill="none" stroke="currentColor" transform="translate(0,100)"><path transform="translate(40,31.585307213086843)" d="M0,0L-6,0"></path></g><g fill="none" stroke="currentColor" transform="translate(0,114)"><path transform="translate(40,31.585307213086843)" d="M0,0L-6,0"></path></g><g fill="none" stroke="currentColor" transform="translate(0,128)"><path transform="translate(40,31.585307213086843)" d="M0,0L-6,0"></path></g><g fill="none" stroke="currentColor" transform="translate(0,142)"><path transform="translate(40,31.585307213086843)" d="M0,0L-6,0"></path></g><g fill="none" stroke="currentColor" transform="translate(0,156)"><path transform="translate(40,31.585307213086843)" d="M0,0L-6,0"></path></g><g fill="none" stroke="currentColor" transform="translate(0,170)"><path transform="translate(40,31.585307213086843)" d="M0,0L-6,0"></path></g><g fill="none" stroke="currentColor" transform="translate(0,184)"><path transform="translate(40,31.585307213086843)" d="M0,0L-6,0"></path></g><g fill="none" stroke="currentColor" transform="translate(0,198)"><path transform="translate(40,31.585307213086843)" d="M0,0L-6,0"></path></g><g fill="none" stroke="currentColor" transform="translate(0,212)"><path transform="translate(40,31.585307213086843)" d="M0,0L-6,0"></path></g><g fill="none" stroke="currentColor" transform="translate(0,226)"><path transform="translate(40,31.585307213086843)" d="M0,0L-6,0"></path></g><g fill="none" stroke="currentColor" transform="translate(0,240)"><path transform="translate(40,31.585307213086843)" d="M0,0L-6,0"></path></g><g fill="none" stroke="currentColor" transform="translate(0,254)"><path transform="translate(40,31.585307213086843)" d="M0,0L-6,0"></path></g><g fill="none" stroke="currentColor" transform="translate(0,268)"><path transform="translate(40,31.585307213086843)" d="M0,0L-6,0"></path></g><g fill="none" stroke="currentColor" transform="translate(0,282)"><path transform="translate(40,31.585307213086843)" d="M0,0L-6,0"></path></g><g fill="none" stroke="currentColor" transform="translate(0,296)"><path transform="translate(40,31.585307213086843)" d="M0,0L-6,0"></path></g><g fill="none" stroke="currentColor" transform="translate(0,310)"><path transform="translate(40,31.585307213086843)" d="M0,0L-6,0"></path></g><g fill="none" stroke="currentColor" transform="translate(0,324)"><path transform="translate(40,31.585307213086843)" d="M0,0L-6,0"></path></g><g fill="none" stroke="currentColor" transform="translate(0,338)"><path transform="translate(40,31.585307213086843)" d="M0,0L-6,0"></path></g><g fill="none" stroke="currentColor" transform="translate(0,352)"><path transform="translate(40,31.585307213086843)" d="M0,0L-6,0"></path></g><g fill="none" stroke="currentColor" transform="translate(0,366)"><path transform="translate(40,31.585307213086843)" d="M0,0L-6,0"></path></g><g fill="none" stroke="currentColor" transform="translate(0,380)"><path transform="translate(40,31.585307213086843)" d="M0,0L-6,0"></path></g><g fill="none" stroke="currentColor" transform="translate(0,394)"><path transform="translate(40,31.585307213086843)" d="M0,0L-6,0"></path></g><g fill="none" stroke="currentColor" transform="translate(0,408)"><path transform="translate(40,31.585307213086843)" d="M0,0L-6,0"></path></g><g fill="none" stroke="currentColor" transform="translate(0,422)"><path transform="translate(40,31.585307213086843)" d="M0,0L-6,0"></path></g><g fill="none" stroke="currentColor" transform="translate(0,436)"><path transform="translate(40,31.585307213086843)" d="M0,0L-6,0"></path></g></g><g aria-label="y-axis tick label" transform="translate(-9,0)"><g text-anchor="end" font-variant="tabular-nums" transform="translate(0,2)"><text y="0.32em" transform="translate(40,31.585307213086843)">0</text></g><g text-anchor="end" font-variant="tabular-nums" transform="translate(0,16)"><text y="0.32em" transform="translate(40,31.585307213086843)">0</text></g><g text-anchor="end" font-variant="tabular-nums" transform="translate(0,30)"><text y="0.32em" transform="translate(40,31.585307213086843)">0</text></g><g text-anchor="end" font-variant="tabular-nums" transform="translate(0,44)"><text y="0.32em" transform="translate(40,31.585307213086843)">0</text></g><g text-anchor="end" font-variant="tabular-nums" transform="translate(0,58)"><text y="0.32em" transform="translate(40,31.585307213086843)">0</text></g><g text-anchor="end" font-variant="tabular-nums" transform="translate(0,72)"><text y="0.32em" transform="translate(40,31.585307213086843)">0</text></g><g text-anchor="end" font-variant="tabular-nums" transform="translate(0,86)"><text y="0.32em" transform="translate(40,31.585307213086843)">0</text></g><g text-anchor="end" font-variant="tabular-nums" transform="translate(0,100)"><text y="0.32em" transform="translate(40,31.585307213086843)">0</text></g><g text-anchor="end" font-variant="tabular-nums" transform="translate(0,114)"><text y="0.32em" transform="translate(40,31.585307213086843)">0</text></g><g text-anchor="end" font-variant="tabular-nums" transform="translate(0,128)"><text y="0.32em" transform="translate(40,31.585307213086843)">0</text></g><g text-anchor="end" font-variant="tabular-nums" transform="translate(0,142)"><text y="0.32em" transform="translate(40,31.585307213086843)">0</text></g><g text-anchor="end" font-variant="tabular-nums" transform="translate(0,156)"><text y="0.32em" transform="translate(40,31.585307213086843)">0</text></g><g text-anchor="end" font-variant="tabular-nums" transform="translate(0,170)"><text y="0.32em" transform="translate(40,31.585307213086843)">0</text></g><g text-anchor="end" font-variant="tabular-nums" transform="translate(0,184)"><text y="0.32em" transform="translate(40,31.585307213086843)">0</text></g><g text-anchor="end" font-variant="tabular-nums" transform="translate(0,198)"><text y="0.32em" transform="translate(40,31.585307213086843)">0</text></g><g text-anchor="end" font-variant="tabular-nums" transform="translate(0,212)"><text y="0.32em" transform="translate(40,31.585307213086843)">0</text></g><g text-anchor="end" font-variant="tabular-nums" transform="translate(0,226)"><text y="0.32em" transform="translate(40,31.585307213086843)">0</text></g><g text-anchor="end" font-variant="tabular-nums" transform="translate(0,240)"><text y="0.32em" transform="translate(40,31.585307213086843)">0</text></g><g text-anchor="end" font-variant="tabular-nums" transform="translate(0,254)"><text y="0.32em" transform="translate(40,31.585307213086843)">0</text></g><g text-anchor="end" font-variant="tabular-nums" transform="translate(0,268)"><text y="0.32em" transform="translate(40,31.585307213086843)">0</text></g><g text-anchor="end" font-variant="tabular-nums" transform="translate(0,282)"><text y="0.32em" transform="translate(40,31.585307213086843)">0</text></g><g text-anchor="end" font-variant="tabular-nums" transform="translate(0,296)"><text y="0.32em" transform="translate(40,31.585307213086843)">0</text></g><g text-anchor="end" font-variant="tabular-nums" transform="translate(0,310)"><text y="0.32em" transform="translate(40,31.585307213086843)">0</text></g><g text-anchor="end" font-variant="tabular-nums" transform="translate(0,324)"><text y="0.32em" transform="translate(40,31.585307213086843)">0</text></g><g text-anchor="end" font-variant="tabular-nums" transform="translate(0,338)"><text y="0.32em" transform="translate(40,31.585307213086843)">0</text></g><g text-anchor="end" font-variant="tabular-nums" transform="translate(0,352)"><text y="0.32em" transform="translate(40,31.585307213086843)">0</text></g><g text-anchor="end" font-variant="tabular-nums" transform="translate(0,366)"><text y="0.32em" transform="translate(40,31.585307213086843)">0</text></g><g text-anchor="end" font-variant="tabular-nums" transform="translate(0,380)"><text y="0.32em" transform="translate(40,31.585307213086843)">0</text></g><g text-anchor="end" font-variant="tabular-nums" transform="translate(0,394)"><text y="0.32em" transform="translate(40,31.585307213086843)">0</text></g><g text-anchor="end" font-variant="tabular-nums" transform="translate(0,408)"><text y="0.32em" transform="translate(40,31.585307213086843)">0</text></g><g text-anchor="end" font-variant="tabular-nums" transform="translate(0,422)"><text y="0.32em" transform="translate(40,31.585307213086843)">0</text></g><g text-anchor="end" font-variant="tabular-nums" transform="translate(0,436)"><text y="0.32em" transform="translate(40,31.585307213086843)">0</text></g></g><g aria-label="y-axis label" text-anchor="start" transform="translate(-37,-17)"><text y="0.71em" transform="translate(40,22)">↑ Consensus Income</text></g><g aria-label="x-axis tick" aria-hidden="true"><g fill="none" stroke="currentColor" transform="translate(0,436)"><path transform="translate(49.95412844036697,33)" d="M0,0L0,6"></path><path transform="translate(167.1559633027523,33)" d="M0,0L0,6"></path><path transform="translate(284.3577981651376,33)" d="M0,0L0,6"></path><path transform="translate(401.5596330275229,33)" d="M0,0L0,6"></path></g></g><g aria-label="x-axis tick label" transform="translate(0,9)"><g font-variant="tabular-nums" transform="translate(0,436)"><text y="0.71em" transform="translate(49.95412844036697,33)">2021</text><text y="0.71em" transform="translate(167.1559633027523,33)">2022</text><text y="0.71em" transform="translate(284.3577981651376,33)">2023</text><text y="0.71em" transform="translate(401.5596330275229,33)">2024</text></g></g><g aria-label="x-axis label" text-anchor="end" transform="translate(37,27)"><text transform="translate(460,469)">Month →</text></g><g aria-label="frame"><rect fill="hsla( 0 0% 100%)" stroke="hsla(220 6% 90%)" x="40" y="20" width="420" height="13" rx="4" ry="4" transform="translate(0,2)"></rect><rect fill="hsla( 0 0% 100%)" stroke="hsla(220 6% 90%)" x="40" y="20" width="420" height="13" rx="4" ry="4" transform="translate(0,16)"></rect><rect fill="hsla( 0 0% 100%)" stroke="hsla(220 6% 90%)" x="40" y="20" width="420" height="13" rx="4" ry="4" transform="translate(0,30)"></rect><rect fill="hsla( 0 0% 100%)" stroke="hsla(220 6% 90%)" x="40" y="20" width="420" height="13" rx="4" ry="4" transform="translate(0,44)"></rect><rect fill="hsla( 0 0% 100%)" stroke="hsla(220 6% 90%)" x="40" y="20" width="420" height="13" rx="4" ry="4" transform="translate(0,58)"></rect><rect fill="hsla( 0 0% 100%)" stroke="hsla(220 6% 90%)" x="40" y="20" width="420" height="13" rx="4" ry="4" transform="translate(0,72)"></rect><rect fill="hsla( 0 0% 100%)" stroke="hsla(220 6% 90%)" x="40" y="20" width="420" height="13" rx="4" ry="4" transform="translate(0,86)"></rect><rect fill="hsla( 0 0% 100%)" stroke="hsla(220 6% 90%)" x="40" y="20" width="420" height="13" rx="4" ry="4" transform="translate(0,100)"></rect><rect fill="hsla( 0 0% 100%)" stroke="hsla(220 6% 90%)" x="40" y="20" width="420" height="13" rx="4" ry="4" transform="translate(0,114)"></rect><rect fill="hsla( 0 0% 100%)" stroke="hsla(220 6% 90%)" x="40" y="20" width="420" height="13" rx="4" ry="4" transform="translate(0,128)"></rect><rect fill="hsla( 0 0% 100%)" stroke="hsla(220 6% 90%)" x="40" y="20" width="420" height="13" rx="4" ry="4" transform="translate(0,142)"></rect><rect fill="hsla( 0 0% 100%)" stroke="hsla(220 6% 90%)" x="40" y="20" width="420" height="13" rx="4" ry="4" transform="translate(0,156)"></rect><rect fill="hsla( 0 0% 100%)" stroke="hsla(220 6% 90%)" x="40" y="20" width="420" height="13" rx="4" ry="4" transform="translate(0,170)"></rect><rect fill="hsla( 0 0% 100%)" stroke="hsla(220 6% 90%)" x="40" y="20" width="420" height="13" rx="4" ry="4" transform="translate(0,184)"></rect><rect fill="hsla( 0 0% 100%)" stroke="hsla(220 6% 90%)" x="40" y="20" width="420" height="13" rx="4" ry="4" transform="translate(0,198)"></rect><rect fill="hsla( 0 0% 100%)" stroke="hsla(220 6% 90%)" x="40" y="20" width="420" height="13" rx="4" ry="4" transform="translate(0,212)"></rect><rect fill="hsla( 0 0% 100%)" stroke="hsla(220 6% 90%)" x="40" y="20" width="420" height="13" rx="4" ry="4" transform="translate(0,226)"></rect><rect fill="hsla( 0 0% 100%)" stroke="hsla(220 6% 90%)" x="40" y="20" width="420" height="13" rx="4" ry="4" transform="translate(0,240)"></rect><rect fill="hsla( 0 0% 100%)" stroke="hsla(220 6% 90%)" x="40" y="20" width="420" height="13" rx="4" ry="4" transform="translate(0,254)"></rect><rect fill="hsla( 0 0% 100%)" stroke="hsla(220 6% 90%)" x="40" y="20" width="420" height="13" rx="4" ry="4" transform="translate(0,268)"></rect><rect fill="hsla( 0 0% 100%)" stroke="hsla(220 6% 90%)" x="40" y="20" width="420" height="13" rx="4" ry="4" transform="translate(0,282)"></rect><rect fill="hsla( 0 0% 100%)" stroke="hsla(220 6% 90%)" x="40" y="20" width="420" height="13" rx="4" ry="4" transform="translate(0,296)"></rect><rect fill="hsla( 0 0% 100%)" stroke="hsla(220 6% 90%)" x="40" y="20" width="420" height="13" rx="4" ry="4" transform="translate(0,310)"></rect><rect fill="hsla( 0 0% 100%)" stroke="hsla(220 6% 90%)" x="40" y="20" width="420" height="13" rx="4" ry="4" transform="translate(0,324)"></rect><rect fill="hsla( 0 0% 100%)" stroke="hsla(220 6% 90%)" x="40" y="20" width="420" height="13" rx="4" ry="4" transform="translate(0,338)"></rect><rect fill="hsla( 0 0% 100%)" stroke="hsla(220 6% 90%)" x="40" y="20" width="420" height="13" rx="4" ry="4" transform="translate(0,352)"></rect><rect fill="hsla( 0 0% 100%)" stroke="hsla(220 6% 90%)" x="40" y="20" width="420" height="13" rx="4" ry="4" transform="translate(0,366)"></rect><rect fill="hsla( 0 0% 100%)" stroke="hsla(220 6% 90%)" x="40" y="20" width="420" height="13" rx="4" ry="4" transform="translate(0,380)"></rect><rect fill="hsla( 0 0% 100%)" stroke="hsla(220 6% 90%)" x="40" y="20" width="420" height="13" rx="4" ry="4" transform="translate(0,394)"></rect><rect fill="hsla( 0 0% 100%)" stroke="hsla(220 6% 90%)" x="40" y="20" width="420" height="13" rx="4" ry="4" transform="translate(0,408)"></rect><rect fill="hsla( 0 0% 100%)" stroke="hsla(220 6% 90%)" x="40" y="20" width="420" height="13" rx="4" ry="4" transform="translate(0,422)"></rect><rect fill="hsla( 0 0% 100%)" stroke="hsla(220 6% 90%)" x="40" y="20" width="420" height="13" rx="4" ry="4" transform="translate(0,436)"></rect></g><g aria-label="y-grid" aria-hidden="true"><g stroke="hsla(220 6% 90%)" stroke-dasharray="1.5,1.5" transform="translate(0,2)"><line x1="40" x2="460" y1="31.585307213086843" y2="31.585307213086843"></line></g><g stroke="hsla(220 6% 90%)" stroke-dasharray="1.5,1.5" transform="translate(0,16)"><line x1="40" x2="460" y1="31.585307213086843" y2="31.585307213086843"></line></g><g stroke="hsla(220 6% 90%)" stroke-dasharray="1.5,1.5" transform="translate(0,30)"><line x1="40" x2="460" y1="31.585307213086843" y2="31.585307213086843"></line></g><g stroke="hsla(220 6% 90%)" stroke-dasharray="1.5,1.5" transform="translate(0,44)"><line x1="40" x2="460" y1="31.585307213086843" y2="31.585307213086843"></line></g><g stroke="hsla(220 6% 90%)" stroke-dasharray="1.5,1.5" transform="translate(0,58)"><line x1="40" x2="460" y1="31.585307213086843" y2="31.585307213086843"></line></g><g stroke="hsla(220 6% 90%)" stroke-dasharray="1.5,1.5" transform="translate(0,72)"><line x1="40" x2="460" y1="31.585307213086843" y2="31.585307213086843"></line></g><g stroke="hsla(220 6% 90%)" stroke-dasharray="1.5,1.5" transform="translate(0,86)"><line x1="40" x2="460" y1="31.585307213086843" y2="31.585307213086843"></line></g><g stroke="hsla(220 6% 90%)" stroke-dasharray="1.5,1.5" transform="translate(0,100)"><line x1="40" x2="460" y1="31.585307213086843" y2="31.585307213086843"></line></g><g stroke="hsla(220 6% 90%)" stroke-dasharray="1.5,1.5" transform="translate(0,114)"><line x1="40" x2="460" y1="31.585307213086843" y2="31.585307213086843"></line></g><g stroke="hsla(220 6% 90%)" stroke-dasharray="1.5,1.5" transform="translate(0,128)"><line x1="40" x2="460" y1="31.585307213086843" y2="31.585307213086843"></line></g><g stroke="hsla(220 6% 90%)" stroke-dasharray="1.5,1.5" transform="translate(0,142)"><line x1="40" x2="460" y1="31.585307213086843" y2="31.585307213086843"></line></g><g stroke="hsla(220 6% 90%)" stroke-dasharray="1.5,1.5" transform="translate(0,156)"><line x1="40" x2="460" y1="31.585307213086843" y2="31.585307213086843"></line></g><g stroke="hsla(220 6% 90%)" stroke-dasharray="1.5,1.5" transform="translate(0,170)"><line x1="40" x2="460" y1="31.585307213086843" y2="31.585307213086843"></line></g><g stroke="hsla(220 6% 90%)" stroke-dasharray="1.5,1.5" transform="translate(0,184)"><line x1="40" x2="460" y1="31.585307213086843" y2="31.585307213086843"></line></g><g stroke="hsla(220 6% 90%)" stroke-dasharray="1.5,1.5" transform="translate(0,198)"><line x1="40" x2="460" y1="31.585307213086843" y2="31.585307213086843"></line></g><g stroke="hsla(220 6% 90%)" stroke-dasharray="1.5,1.5" transform="translate(0,212)"><line x1="40" x2="460" y1="31.585307213086843" y2="31.585307213086843"></line></g><g stroke="hsla(220 6% 90%)" stroke-dasharray="1.5,1.5" transform="translate(0,226)"><line x1="40" x2="460" y1="31.585307213086843" y2="31.585307213086843"></line></g><g stroke="hsla(220 6% 90%)" stroke-dasharray="1.5,1.5" transform="translate(0,240)"><line x1="40" x2="460" y1="31.585307213086843" y2="31.585307213086843"></line></g><g stroke="hsla(220 6% 90%)" stroke-dasharray="1.5,1.5" transform="translate(0,254)"><line x1="40" x2="460" y1="31.585307213086843" y2="31.585307213086843"></line></g><g stroke="hsla(220 6% 90%)" stroke-dasharray="1.5,1.5" transform="translate(0,268)"><line x1="40" x2="460" y1="31.585307213086843" y2="31.585307213086843"></line></g><g stroke="hsla(220 6% 90%)" stroke-dasharray="1.5,1.5" transform="translate(0,282)"><line x1="40" x2="460" y1="31.585307213086843" y2="31.585307213086843"></line></g><g stroke="hsla(220 6% 90%)" stroke-dasharray="1.5,1.5" transform="translate(0,296)"><line x1="40" x2="460" y1="31.585307213086843" y2="31.585307213086843"></line></g><g stroke="hsla(220 6% 90%)" stroke-dasharray="1.5,1.5" transform="translate(0,310)"><line x1="40" x2="460" y1="31.585307213086843" y2="31.585307213086843"></line></g><g stroke="hsla(220 6% 90%)" stroke-dasharray="1.5,1.5" transform="translate(0,324)"><line x1="40" x2="460" y1="31.585307213086843" y2="31.585307213086843"></line></g><g stroke="hsla(220 6% 90%)" stroke-dasharray="1.5,1.5" transform="translate(0,338)"><line x1="40" x2="460" y1="31.585307213086843" y2="31.585307213086843"></line></g><g stroke="hsla(220 6% 90%)" stroke-dasharray="1.5,1.5" transform="translate(0,352)"><line x1="40" x2="460" y1="31.585307213086843" y2="31.585307213086843"></line></g><g stroke="hsla(220 6% 90%)" stroke-dasharray="1.5,1.5" transform="translate(0,366)"><line x1="40" x2="460" y1="31.585307213086843" y2="31.585307213086843"></line></g><g stroke="hsla(220 6% 90%)" stroke-dasharray="1.5,1.5" transform="translate(0,380)"><line x1="40" x2="460" y1="31.585307213086843" y2="31.585307213086843"></line></g><g stroke="hsla(220 6% 90%)" stroke-dasharray="1.5,1.5" transform="translate(0,394)"><line x1="40" x2="460" y1="31.585307213086843" y2="31.585307213086843"></line></g><g stroke="hsla(220 6% 90%)" stroke-dasharray="1.5,1.5" transform="translate(0,408)"><line x1="40" x2="460" y1="31.585307213086843" y2="31.585307213086843"></line></g><g stroke="hsla(220 6% 90%)" stroke-dasharray="1.5,1.5" transform="translate(0,422)"><line x1="40" x2="460" y1="31.585307213086843" y2="31.585307213086843"></line></g><g stroke="hsla(220 6% 90%)" stroke-dasharray="1.5,1.5" transform="translate(0,436)"><line x1="40" x2="460" y1="31.585307213086843" y2="31.585307213086843"></line></g></g><g aria-label="line"><g fill="none" stroke="hsla(317 100% 50%)" stroke-width="1.5" stroke-linejoin="round" stroke-linecap="round" transform="translate(0,2)"><path d="M40,21.042L49.954,23.778L59.908,25.81L68.899,25.164L78.853,26.261L88.486,25.901L98.44,26.955L108.073,27.256L118.028,26.853L127.982,27.86L137.615,27.892L147.569,28.169L157.202,27.859L167.156,28.489L177.11,26.24L186.101,28.059L196.055,28.229L205.688,27.358L215.642,26.955L225.275,28.285L235.229,28.057L245.183,29.155L254.817,28.391L264.771,29.039L274.404,28.465L284.358,28.478L294.312,29.297L303.303,29.376L313.257,29.643L322.89,27.579L332.844,28.698L342.477,29.96L352.431,28.502L362.385,29.821L372.018,29.903L381.972,28.677L391.606,29.845L401.56,29.861L411.514,29.854L420.826,29.942L430.78,30.002L440.413,29.788L450.367,28.891L460,30.037"></path></g><g fill="none" stroke="hsla(317 100% 50%)" stroke-width="1.5" stroke-linejoin="round" stroke-linecap="round" transform="translate(0,16)"><path d="M40,21.052L49.954,23.593L59.908,25.897L68.899,25.175L78.853,26.162L88.486,25.251L98.44,26.842L108.073,27.139L118.028,27.096L127.982,27.857L137.615,27.883L147.569,27.049L157.202,28.433L167.156,26.196L177.11,28.05L186.101,27.441L196.055,27.582L205.688,28.013L215.642,28.367L225.275,28.294L235.229,24.541L245.183,28.431L254.817,29.128L264.771,29.034L274.404,29.234L284.358,27.696L294.312,25.512L303.303,29.373L313.257,29.632L322.89,29.243L332.844,29.561L342.477,29.053L352.431,29.47L362.385,29.82L372.018,29.899L381.972,29.723L391.606,29.852L401.56,29.861L411.514,29.854L420.826,29.946L430.78,30.009L440.413,28.672L450.367,30.009L460,30.032"></path></g><g fill="none" stroke="hsla(317 100% 50%)" stroke-width="1.5" stroke-linejoin="round" stroke-linecap="round" transform="translate(0,30)"><path d="M40,21.083L49.954,23.576L59.908,25.711L68.899,25.077L78.853,26.264L88.486,25.688L98.44,26.95L108.073,27.02L118.028,26.959L127.982,27.585L137.615,27.891L147.569,28.162L157.202,27.868L167.156,27.905L177.11,27.451L186.101,28.053L196.055,24.407L205.688,28.699L215.642,28.36L225.275,28.291L235.229,28.764L245.183,29.154L254.817,29.131L264.771,29.036L274.404,29.236L284.358,29.258L294.312,27.693L303.303,29.376L313.257,29.632L322.89,29.243L332.844,29.56L342.477,29.956L352.431,29.469L362.385,29.816L372.018,29.895L381.972,29.728L391.606,29.847L401.56,29.856L411.514,29.851L420.826,29.94L430.78,28.91L440.413,28.671L450.367,30.007L460,30.034"></path></g><g fill="none" stroke="hsla(317 100% 50%)" stroke-width="1.5" stroke-linejoin="round" stroke-linecap="round" transform="translate(0,44)"><path d="M40,21.039L49.954,23.68L59.908,25.644L68.899,24.805L78.853,26.263L88.486,25.892L98.44,27.068L108.073,27.261L118.028,27.099L127.982,27.727L137.615,27.75L147.569,27.6L157.202,28.437L167.156,28.488L177.11,27.461L186.101,28.042L196.055,28.874L205.688,28.695L215.642,28.36L225.275,28.286L235.229,28.766L245.183,29.151L254.817,28.401L264.771,29.039L274.404,28.459L284.358,29.26L294.312,29.298L303.303,29.372L313.257,29.64L322.89,28.414L332.844,28.701L342.477,29.955L352.431,29.472L362.385,29.821L372.018,29.902L381.972,29.723L391.606,29.851L401.56,29.858L411.514,29.854L420.826,29.943L430.78,30.003L440.413,29.79L450.367,28.894L460,30.036"></path></g><g fill="none" stroke="hsla(317 100% 50%)" stroke-width="1.5" stroke-linejoin="round" stroke-linecap="round" transform="translate(0,58)"><path d="M40,21.343L49.954,23.621L59.908,25.573L68.899,25.077L78.853,26.164L88.486,25.464L98.44,26.838L108.073,27.021L118.028,26.97L127.982,27.586L137.615,27.887L147.569,20L157.202,28.435L167.156,27.899L177.11,28.654L186.101,27.437L196.055,28.874L205.688,27.339L215.642,29.066L225.275,29L235.229,28.765L245.183,27.716L254.817,27.651L264.771,29.032L274.404,28.455L284.358,28.482L294.312,29.299L303.303,29.374L313.257,29.63L322.89,29.236L332.844,28.729L342.477,29.061L352.431,29.474L362.385,29.827L372.018,29.9L381.972,29.722L391.606,29.849L401.56,29.861L411.514,29.856L420.826,29.937L430.78,30.004L440.413,28.671L450.367,30.008L460,28.901"></path></g><g fill="none" stroke="hsla(317 100% 50%)" stroke-width="1.5" stroke-linejoin="round" stroke-linecap="round" transform="translate(0,72)"><path d="M40,21.072L49.954,23.653L59.908,25.368L68.899,25.232L78.853,26.158L88.486,25.779L98.44,26.844L108.073,27.15L118.028,27.129L127.982,27.894L137.615,27.79L147.569,28.165L157.202,28.438L167.156,28.491L177.11,27.972L186.101,28.082L196.055,28.865L205.688,28.245L215.642,29.067L225.275,28.995L235.229,27.349L245.183,29.158L254.817,29.127L264.771,29.224L274.404,28.648L284.358,28.468L294.312,28.498L303.303,29.362L313.257,29.657L322.89,20.068L332.844,29.559L342.477,29.597L352.431,28.514L362.385,28.812L372.018,29.819L381.972,29.724L391.606,29.853L401.56,29.865L411.514,30.26L420.826,29.922L430.78,29.974L440.413,29.899L450.367,28.902L460,29.198"></path></g><g fill="none" stroke="hsla(317 100% 50%)" stroke-width="1.5" stroke-linejoin="round" stroke-linecap="round" transform="translate(0,86)"><path d="M40,21.059L49.954,23.777L59.908,25.731L68.899,25.254L78.853,26.311L88.486,25.735L98.44,26.838L108.073,27.149L118.028,27.128L127.982,27.734L137.615,27.761L147.569,28.174L157.202,26.413L167.156,28.495L177.11,25.695L186.101,27.407L196.055,28.424L205.688,27.961L215.642,29.066L225.275,29.005L235.229,27.33L245.183,29.176L254.817,29.135L264.771,29.049L274.404,29.25L284.358,28.483L294.312,28.504L303.303,29.81L313.257,29.495L322.89,29.279L332.844,29.564L342.477,28.668L352.431,29.463L362.385,29.791L372.018,29.791L381.972,29.705L391.606,29.833L401.56,29.851L411.514,29.829L420.826,29.925L430.78,29.976L440.413,28.672L450.367,30.025L460,30.015"></path></g><g fill="none" stroke="hsla(317 100% 50%)" stroke-width="1.5" stroke-linejoin="round" stroke-linecap="round" transform="translate(0,100)"><path d="M40,21.542L49.954,26.193L59.908,25.18L68.899,26.137L78.853,26.168L88.486,25.775L98.44,26.952L108.073,27.839L118.028,27.121L127.982,27.844L137.615,27.755L147.569,27.265L157.202,27.979L167.156,29.099L177.11,28.558L186.101,28.704L196.055,28.22L205.688,28.667L215.642,28.37L225.275,29.002L235.229,28.761L245.183,29.175L254.817,28.384L264.771,29.026L274.404,28.449L284.358,29.805L294.312,30.12L303.303,28.556L313.257,29.476L322.89,29.203L332.844,29.554L342.477,29.565L352.431,28.523L362.385,30.004L372.018,32.613L381.972,29.708L391.606,30.778L401.56,29.175L411.514,28.779L420.826,28.957L430.78,31.11L440.413,29.781L450.367,30.169L460,30.013"></path></g><g fill="none" stroke="hsla(317 100% 50%)" stroke-width="1.5" stroke-linejoin="round" stroke-linecap="round" transform="translate(0,114)"><path d="M40,21.292L49.954,23.775L59.908,26.432L68.899,25.344L78.853,25.963L88.486,25.885L98.44,26.857L108.073,27.123L118.028,27.263L127.982,27.996L137.615,28.412L147.569,27.735L157.202,27.271L167.156,27.912L177.11,28.771L186.101,26.56L196.055,29.322L205.688,28.1L215.642,26.426L225.275,29.194L235.229,28.977L245.183,29.447L254.817,27.895L264.771,29.18L274.404,29.501L284.358,29.461L294.312,29.432L303.303,29.601L313.257,29.697L322.89,28.515L332.844,29.761L342.477,28.832L352.431,29.541L362.385,28.976L372.018,29.034L381.972,28.802L391.606,30.165L401.56,30.036L411.514,30.32L420.826,30.18L430.78,30.926L440.413,30.167L450.367,31.132L460,30.532"></path></g><g fill="none" stroke="hsla(317 100% 50%)" stroke-width="1.5" stroke-linejoin="round" stroke-linecap="round" transform="translate(0,128)"><path d="M40,21.139L49.954,23.789L59.908,25.599L68.899,25.07L78.853,26.062L88.486,25.78L98.44,26.841L108.073,27.137L118.028,26.723L127.982,27.887L137.615,27.929L147.569,27.609L157.202,28.427L167.156,27.319L177.11,27.389L186.101,28.706L196.055,28.861L205.688,28.232L215.642,28.354L225.275,28.284L235.229,28.765L245.183,29.155L254.817,27.657L264.771,29.223L274.404,29.413L284.358,29.254L294.312,29.296L303.303,29.363L313.257,28.817L322.89,28.357L332.844,26.23L342.477,29.595L352.431,29.47L362.385,29.802L372.018,29.822L381.972,29.721L391.606,27.817L401.56,28.817L411.514,31.364L420.826,29.922L430.78,29.974L440.413,29.9L450.367,30.002L460,30.239"></path></g><g fill="none" stroke="hsla(317 100% 50%)" stroke-width="1.5" stroke-linejoin="round" stroke-linecap="round" transform="translate(0,142)"><path d="M40,21.298L49.954,23.731L59.908,25.648L68.899,25.169L78.853,25.971L88.486,25.787L98.44,27.066L108.073,27.144L118.028,27.006L127.982,27.623L137.615,27.795L147.569,27.598L157.202,28.438L167.156,27.906L177.11,27.988L186.101,28.09L196.055,28.223L205.688,27.556L215.642,28.358L225.275,28.286L235.229,28.761L245.183,26.302L254.817,29.123L264.771,28.484L274.404,29.42L284.358,29.253L294.312,29.297L303.303,28.545L313.257,29.649L322.89,29.205L332.844,29.559L342.477,29.598L352.431,29.472L362.385,29.808L372.018,29.823L381.972,29.723L391.606,29.852L401.56,29.864L411.514,31.364L420.826,29.921L430.78,29.975L440.413,29.904L450.367,28.877L460,29.096"></path></g><g fill="none" stroke="hsla(317 100% 50%)" stroke-width="1.5" stroke-linejoin="round" stroke-linecap="round" transform="translate(0,156)"><path d="M40,21.148L49.954,23.707L59.908,25.649L68.899,25.528L78.853,26.155L88.486,25.672L98.44,27.065L108.073,27.252L118.028,27.006L127.982,27.751L137.615,27.786L147.569,27.04L157.202,27.266L167.156,27.896L177.11,27.988L186.101,28.095L196.055,28.863L205.688,28.913L215.642,29.063L225.275,28.996L235.229,28.765L245.183,29.158L254.817,29.122L264.771,28.453L274.404,29.413L284.358,29.254L294.312,29.299L303.303,29.369L313.257,29.648L322.89,29.205L332.844,29.555L342.477,29.598L352.431,29.468L362.385,29.802L372.018,29.821L381.972,29.723L391.606,28.822L401.56,29.864L411.514,31.365L420.826,28.822L430.78,28.889L440.413,29.9L450.367,28.878L460,30.239"></path></g><g fill="none" stroke="hsla(317 100% 50%)" stroke-width="1.5" stroke-linejoin="round" stroke-linecap="round" transform="translate(0,170)"><path d="M40,21.125L49.954,23.785L59.908,25.821L68.899,25.606L78.853,26.251L88.486,25.875L98.44,27.069L108.073,27.14L118.028,27.134L127.982,27.757L137.615,27.367L147.569,26.463L157.202,27.857L167.156,28.49L177.11,26.301L186.101,28.705L196.055,28.859L205.688,28.914L215.642,29.066L225.275,26.279L235.229,27.331L245.183,24.163L254.817,27.654L264.771,28.461L274.404,28.636L284.358,28.466L294.312,29.299L303.303,29.371L313.257,28.818L322.89,29.211L332.844,27.836L342.477,29.597L352.431,28.537L362.385,29.804L372.018,28.86L381.972,29.724L391.606,29.853L401.56,29.869L411.514,31.363L420.826,29.925L430.78,29.976L440.413,29.901L450.367,30.001L460,29.099"></path></g><g fill="none" stroke="hsla(317 100% 50%)" stroke-width="1.5" stroke-linejoin="round" stroke-linecap="round" transform="translate(0,184)"><path d="M40,21.025L49.954,23.641L59.908,25.634L68.899,25.427L78.853,26.252L88.486,25.978L98.44,26.96L108.073,27.255L118.028,26.999L127.982,27.764L137.615,27.788L147.569,25.88L157.202,27.272L167.156,28.492L177.11,28.596L186.101,28.701L196.055,28.419L205.688,28.915L215.642,29.068L225.275,28.996L235.229,26.613L245.183,28.447L254.817,28.389L264.771,29.224L274.404,28.193L284.358,26.703L294.312,28.485L303.303,29.368L313.257,28.94L322.89,29.203L332.844,28.682L342.477,28.703L352.431,29.469L362.385,29.804L372.018,29.821L381.972,29.724L391.606,28.795L401.56,29.872L411.514,31.368L420.826,29.923L430.78,29.975L440.413,28.785L450.367,28.83L460,30.238"></path></g><g fill="none" stroke="hsla(317 100% 50%)" stroke-width="1.5" stroke-linejoin="round" stroke-linecap="round" transform="translate(0,198)"><path d="M40,20.902L49.954,23.713L59.908,25.72L68.899,25.527L78.853,26.067L88.486,25.682L98.44,26.952L108.073,27.137L118.028,26.872L127.982,27.753L137.615,26.541L147.569,27.599L157.202,27.263L167.156,27.319L177.11,28.592L186.101,26.294L196.055,28.193L205.688,28.233L215.642,29.068L225.275,28.994L235.229,28.765L245.183,27.715L254.817,29.129L264.771,28.47L274.404,29.413L284.358,29.25L294.312,29.304L303.303,26.239L313.257,28.825L322.89,29.204L332.844,29.558L342.477,29.598L352.431,27.464L362.385,29.803L372.018,28.796L381.972,29.722L391.606,29.857L401.56,29.866L411.514,31.367L420.826,29.921L430.78,29.976L440.413,29.9L450.367,28.917L460,29.108"></path></g><g fill="none" stroke="hsla(317 100% 50%)" stroke-width="1.5" stroke-linejoin="round" stroke-linecap="round" transform="translate(0,212)"><path d="M40,21.209L49.954,23.807L59.908,25.465L68.899,25.527L78.853,25.959L88.486,25.785L98.44,26.951L108.073,27.132L118.028,26.867L127.982,27.738L137.615,27.923L147.569,28.167L157.202,27.264L167.156,28.494L177.11,27.982L186.101,25.651L196.055,28.86L205.688,28.912L215.642,29.065L225.275,28.997L235.229,28.761L245.183,29.158L254.817,29.124L264.771,28.474L274.404,29.412L284.358,29.255L294.312,29.294L303.303,28.541L313.257,29.655L322.89,28.361L332.844,29.557L342.477,29.598L352.431,29.469L362.385,29.805L372.018,29.824L381.972,25.841L391.606,29.853L401.56,28.806L411.514,30.304L420.826,29.923L430.78,28.874L440.413,29.903L450.367,28.891L460,30.238"></path></g><g fill="none" stroke="hsla(317 100% 50%)" stroke-width="1.5" stroke-linejoin="round" stroke-linecap="round" transform="translate(0,226)"><path d="M40,21.231L49.954,23.978L59.908,25.728L68.899,25.596L78.853,26.256L88.486,25.788L98.44,27.071L108.073,27.134L118.028,26.491L127.982,27.89L137.615,27.794L147.569,27.62L157.202,27.85L167.156,27.897L177.11,28.602L186.101,25.703L196.055,28.2L205.688,28.236L215.642,29.062L225.275,29L235.229,28.763L245.183,29.159L254.817,27.642L264.771,29.219L274.404,29.415L284.358,28.468L294.312,29.298L303.303,28.534L313.257,29.653L322.89,27.757L332.844,27.828L342.477,29.599L352.431,28.526L362.385,28.828L372.018,29.825L381.972,29.725L391.606,29.852L401.56,28.838L411.514,29.231L420.826,29.924L430.78,29.976L440.413,28.795L450.367,30.002L460,30.237"></path></g><g fill="none" stroke="hsla(317 100% 50%)" stroke-width="1.5" stroke-linejoin="round" stroke-linecap="round" transform="translate(0,240)"><path d="M40,21.083L49.954,23.745L59.908,25.65L68.899,25.429L78.853,26.253L88.486,25.882L98.44,26.949L108.073,27.256L118.028,27.088L127.982,27.491L137.615,27.798L147.569,28.169L157.202,28.435L167.156,28.495L177.11,28.597L186.101,28.088L196.055,28.22L205.688,28.911L215.642,27.664L225.275,27.789L235.229,28.764L245.183,29.16L254.817,28.394L264.771,27.915L274.404,28.642L284.358,29.259L294.312,28.51L303.303,28.546L313.257,29.65L322.89,28.375L332.844,25.435L342.477,29.602L352.431,29.469L362.385,29.807L372.018,26.746L381.972,29.724L391.606,29.853L401.56,29.866L411.514,31.366L420.826,29.925L430.78,29.975L440.413,29.9L450.367,30.002L460,30.239"></path></g><g fill="none" stroke="hsla(317 100% 50%)" stroke-width="1.5" stroke-linejoin="round" stroke-linecap="round" transform="translate(0,254)"><path d="M40,21.142L49.954,23.724L59.908,25.47L68.899,25.506L78.853,25.969L88.486,25.989L98.44,27.067L108.073,27.257L118.028,26.863L127.982,27.873L137.615,27.785L147.569,28.169L157.202,28.432L167.156,27.489L177.11,27.996L186.101,28.048L196.055,28.864L205.688,27.552L215.642,29.065L225.275,28.996L235.229,28.05L245.183,28.431L254.817,29.131L264.771,29.226L274.404,29.42L284.358,29.255L294.312,28.5L303.303,28.542L313.257,28.809L322.89,29.201L332.844,29.557L342.477,28.679L352.431,29.47L362.385,29.809L372.018,26.778L381.972,29.722L391.606,29.852L401.56,28.811L411.514,31.366L420.826,25.729L430.78,29.974L440.413,29.899L450.367,28.884L460,30.24"></path></g><g fill="none" stroke="hsla(317 100% 50%)" stroke-width="1.5" stroke-linejoin="round" stroke-linecap="round" transform="translate(0,268)"><path d="M40,21.085L49.954,24.023L59.908,25.828L68.899,25.071L78.853,26.166L88.486,25.929L98.44,26.966L108.073,27.157L118.028,27.016L127.982,27.874L137.615,27.787L147.569,27.614L157.202,26.155L167.156,28.507L177.11,27.387L186.101,27.452L196.055,28.914L205.688,27.345L215.642,29.071L225.275,29.172L235.229,28.764L245.183,28.459L254.817,28.419L264.771,29.048L274.404,29.237L284.358,29.32L294.312,29.302L303.303,28.551L313.257,29.65L322.89,29.305L332.844,29.575L342.477,29.639L352.431,29.501L362.385,29.852L372.018,28.778L381.972,29.715L391.606,29.846L401.56,29.861L411.514,29.843L420.826,29.929L430.78,29.979L440.413,30.154L450.367,28.895L460,30.021"></path></g><g fill="none" stroke="hsla(317 100% 50%)" stroke-width="1.5" stroke-linejoin="round" stroke-linecap="round" transform="translate(0,282)"><path d="M40,20.843L49.954,23.481L59.908,25.802L68.899,25.505L78.853,25.767L88.486,25.781L98.44,26.844L108.073,27.145L118.028,26.879L127.982,27.748L137.615,27.783L147.569,26.049L157.202,27.844L167.156,28.502L177.11,27.402L186.101,28.07L196.055,28.213L205.688,28.232L215.642,28.358L225.275,28.997L235.229,28.764L245.183,29.156L254.817,29.129L264.771,29.222L274.404,28.643L284.358,28.471L294.312,29.299L303.303,29.366L313.257,29.651L322.89,29.209L332.844,29.558L342.477,29.596L352.431,29.47L362.385,28.811L372.018,29.823L381.972,29.725L391.606,26.181L401.56,29.864L411.514,31.364L420.826,29.921L430.78,29.976L440.413,28.782L450.367,28.874L460,30.236"></path></g><g fill="none" stroke="hsla(317 100% 50%)" stroke-width="1.5" stroke-linejoin="round" stroke-linecap="round" transform="translate(0,296)"><path d="M40,21.177L49.954,23.842L59.908,25.509L68.899,24.739L78.853,25.885L88.486,25.726L98.44,26.948L108.073,27.264L118.028,26.769L127.982,27.46L137.615,27.516L147.569,28.178L157.202,28.454L167.156,28.505L177.11,25.707L186.101,27.44L196.055,28.908L205.688,28.69L215.642,29.069L225.275,29.167L235.229,28.765L245.183,29.193L254.817,28.397L264.771,25.536L274.404,27.686L284.358,29.316L294.312,29.3L303.303,29.371L313.257,28.815L322.89,29.304L332.844,29.571L342.477,29.639L352.431,29.511L362.385,29.501L372.018,29.85L381.972,29.714L391.606,29.847L401.56,29.863L411.514,29.845L420.826,29.929L430.78,29.977L440.413,30.149L450.367,30.013L460,30.02"></path></g><g fill="none" stroke="hsla(317 100% 50%)" stroke-width="1.5" stroke-linejoin="round" stroke-linecap="round" transform="translate(0,310)"><path d="M40,21.362L49.954,23.865L59.908,25.6L68.899,25.101L78.853,25.79L88.486,25.901L98.44,26.977L108.073,27.274L118.028,27.003L127.982,27.738L137.615,27.78L147.569,26.922L157.202,28.449L167.156,27.928L177.11,27.991L186.101,28.685L196.055,28.249L205.688,27.984L215.642,29.081L225.275,29.016L235.229,25.92L245.183,28.511L254.817,29.317L264.771,29.437L274.404,29.398L284.358,29.394L294.312,29.49L303.303,29.774L313.257,29.937L322.89,28.469L332.844,28.675L342.477,29.586L352.431,28.507L362.385,29.793L372.018,29.802L381.972,29.707L391.606,29.884L401.56,29.892L411.514,29.882L420.826,30.802L430.78,28.969L440.413,29.818L450.367,28.925L460,28.931"></path></g><g fill="none" stroke="hsla(317 100% 50%)" stroke-width="1.5" stroke-linejoin="round" stroke-linecap="round" transform="translate(0,324)"><path d="M40,21.026L49.954,23.732L59.908,25.734L68.899,25.425L78.853,25.875L88.486,25.676L98.44,26.84L108.073,27.259L118.028,27.123L127.982,27.756L137.615,27.829L147.569,27.037L157.202,28.43L167.156,28.493L177.11,27.388L186.101,28.704L196.055,28.865L205.688,28.91L215.642,28.363L225.275,28.997L235.229,28.048L245.183,29.157L254.817,29.129L264.771,28.468L274.404,29.418L284.358,29.252L294.312,27.704L303.303,29.364L313.257,29.653L322.89,29.208L332.844,29.557L342.477,29.596L352.431,29.469L362.385,29.803L372.018,29.827L381.972,29.726L391.606,29.851L401.56,28.802L411.514,31.364L420.826,29.922L430.78,29.975L440.413,28.786L450.367,30.002L460,30.237"></path></g><g fill="none" stroke="hsla(317 100% 50%)" stroke-width="1.5" stroke-linejoin="round" stroke-linecap="round" transform="translate(0,338)"><path d="M40,20.925L49.954,23.993L59.908,25.717L68.899,25.15L78.853,26.252L88.486,25.575L98.44,26.944L108.073,27.133L118.028,26.746L127.982,27.619L137.615,27.796L147.569,28.168L157.202,28.427L167.156,28.489L177.11,28.591L186.101,28.088L196.055,28.198L205.688,28.911L215.642,29.061L225.275,28.287L235.229,28.763L245.183,29.162L254.817,28.383L264.771,28.471L274.404,28.646L284.358,28.472L294.312,29.291L303.303,29.37L313.257,29.649L322.89,29.203L332.844,29.557L342.477,29.596L352.431,29.474L362.385,28.813L372.018,29.824L381.972,29.723L391.606,28.798L401.56,29.865L411.514,31.364L420.826,29.923L430.78,29.977L440.413,29.901L450.367,30.002L460,30.235"></path></g><g fill="none" stroke="hsla(317 100% 50%)" stroke-width="1.5" stroke-linejoin="round" stroke-linecap="round" transform="translate(0,352)"><path d="M40,21.039L49.954,23.878L59.908,25.902L68.899,25.155L78.853,26.073L88.486,25.826L98.44,26.843L108.073,27.038L118.028,26.761L127.982,27.735L137.615,27.651L147.569,27.619L157.202,28.447L167.156,27.913L177.11,28.588L186.101,28.693L196.055,27.605L205.688,28.693L215.642,29.066L225.275,29.165L235.229,28.769L245.183,29.188L254.817,29.143L264.771,28.302L274.404,29.242L284.358,29.315L294.312,29.298L303.303,29.376L313.257,29.648L322.89,29.297L332.844,29.566L342.477,29.637L352.431,29.514L362.385,29.852L372.018,29.851L381.972,29.714L391.606,29.851L401.56,29.861L411.514,29.845L420.826,29.927L430.78,29.979L440.413,30.152L450.367,30.016L460,30.021"></path></g><g fill="none" stroke="hsla(317 100% 50%)" stroke-width="1.5" stroke-linejoin="round" stroke-linecap="round" transform="translate(0,366)"><path d="M40,20.934L49.954,23.59L59.908,25.555L68.899,25.436L78.853,26.258L88.486,25.781L98.44,26.953L108.073,26.651L118.028,27.124L127.982,27.884L137.615,27.927L147.569,28.167L157.202,27.848L167.156,28.499L177.11,28.59L186.101,28.706L196.055,28.863L205.688,28.228L215.642,29.063L225.275,28.992L235.229,28.046L245.183,28.436L254.817,29.123L264.771,28.479L274.404,29.415L284.358,28.474L294.312,29.298L303.303,29.363L313.257,29.65L322.89,28.343L332.844,29.556L342.477,29.597L352.431,29.471L362.385,29.803L372.018,29.823L381.972,28.683L391.606,28.801L401.56,29.865L411.514,31.364L420.826,29.922L430.78,29.977L440.413,28.78L450.367,30.004L460,29.106"></path></g><g fill="none" stroke="hsla(317 100% 50%)" stroke-width="1.5" stroke-linejoin="round" stroke-linecap="round" transform="translate(0,380)"><path d="M40,21.117L49.954,23.942L59.908,25.973L68.899,25.261L78.853,26.164L88.486,25.999L98.44,26.75L108.073,27.22L118.028,27.101L127.982,27.689L137.615,27.192L147.569,28.158L157.202,27.838L167.156,28.483L177.11,28.549L186.101,28.651L196.055,26.242L205.688,28.657L215.642,29.066L225.275,28.993L235.229,28.042L245.183,29.163L254.817,26.387L264.771,29.126L274.404,29.284L284.358,29.253L294.312,29.292L303.303,29.38L313.257,29.507L322.89,25.835L332.844,29.577L342.477,26.343L352.431,29.48L362.385,29.814L372.018,29.853L381.972,29.75L391.606,29.876L401.56,29.9L411.514,29.889L420.826,29.958L430.78,27.816L440.413,28.71L450.367,30.049L460,30.07"></path></g><g fill="none" stroke="hsla(317 100% 50%)" stroke-width="1.5" stroke-linejoin="round" stroke-linecap="round" transform="translate(0,394)"><path d="M40,20.944L49.954,23.85L59.908,25.812L68.899,25.322L78.853,26.067L88.486,25.781L98.44,26.732L108.073,27.136L118.028,26.983L127.982,27.615L137.615,27.78L147.569,27.607L157.202,26.702L167.156,28.492L177.11,27.992L186.101,28.704L196.055,28.86L205.688,28.913L215.642,29.064L225.275,28.995L235.229,25.961L245.183,29.158L254.817,29.126L264.771,28.466L274.404,29.415L284.358,29.255L294.312,29.295L303.303,29.368L313.257,29.652L322.89,29.204L332.844,29.557L342.477,28.676L352.431,29.471L362.385,29.806L372.018,29.82L381.972,28.677L391.606,29.855L401.56,29.863L411.514,31.365L420.826,29.923L430.78,28.828L440.413,29.899L450.367,30.001L460,30.239"></path></g><g fill="none" stroke="hsla(317 100% 50%)" stroke-width="1.5" stroke-linejoin="round" stroke-linecap="round" transform="translate(0,408)"><path d="M40,21.08L49.954,23.701L59.908,25.494L68.899,25.526L78.853,25.867L88.486,25.453L98.44,26.954L108.073,27.009L118.028,27.008L127.982,27.89L137.615,27.933L147.569,28.169L157.202,27.853L167.156,27.907L177.11,26.179L186.101,28.086L196.055,28.222L205.688,28.915L215.642,28.365L225.275,26.252L235.229,28.763L245.183,27.711L254.817,29.128L264.771,28.47L274.404,29.417L284.358,29.255L294.312,29.3L303.303,28.547L313.257,29.65L322.89,28.359L332.844,29.557L342.477,27.783L352.431,29.47L362.385,29.805L372.018,28.793L381.972,25.797L391.606,29.858L401.56,29.866L411.514,31.365L420.826,29.922L430.78,29.975L440.413,29.898L450.367,30.002L460,25.905"></path></g><g fill="none" stroke="hsla(317 100% 50%)" stroke-width="1.5" stroke-linejoin="round" stroke-linecap="round" transform="translate(0,422)"><path d="M40,21.146L49.954,23.916L59.908,25.748L68.899,25.065L78.853,25.98L88.486,25.929L98.44,26.728L108.073,27.146L118.028,26.754L127.982,27.757L137.615,27.921L147.569,27.623L157.202,27.301L167.156,27.927L177.11,27.985L186.101,28.065L196.055,28.901L205.688,28.695L215.642,28.249L225.275,26.458L235.229,28.765L245.183,29.197L254.817,28.405L264.771,29.05L274.404,29.245L284.358,29.319L294.312,28.5L303.303,29.372L313.257,29.637L322.89,28.466L332.844,29.567L342.477,29.636L352.431,28.553L362.385,28.837L372.018,29.848L381.972,29.712L391.606,29.848L401.56,29.863L411.514,26.603L420.826,29.927L430.78,29.98L440.413,30.149L450.367,30.014L460,30.021"></path></g><g fill="none" stroke="hsla(317 100% 50%)" stroke-width="1.5" stroke-linejoin="round" stroke-linecap="round" transform="translate(0,436)"><path d="M40,23.278L49.954,27.004L59.908,28.478L68.899,25.809L78.853,27.224L88.486,26.193L98.44,27.038L108.073,27.421L118.028,29.624L127.982,28.783L137.615,27.889L147.569,27.631L157.202,27.521L167.156,27.954L177.11,28.577L186.101,28.058L196.055,28.912L205.688,27.991L215.642,32.901L225.275,27.575L235.229,28.781L245.183,29.191L254.817,29.989L264.771,30.281L274.404,29.953L284.358,28.48L294.312,30.143L303.303,29.371L313.257,29.625L322.89,28.379L332.844,29.575L342.477,31.324L352.431,30.24L362.385,30.725L372.018,31.24L381.972,33L391.606,30.763L401.56,30.829L411.514,31.211L420.826,30.698L430.78,30.024L440.413,30.853L450.367,31.467L460,29.971"></path></g></g><g aria-label="text" transform="translate(3,3)"><g text-anchor="start" font-variant="tabular-nums" transform="translate(0,2)"><text y="0.71em" transform="translate(40,20)">0</text></g><g text-anchor="start" font-variant="tabular-nums" transform="translate(0,16)"><text y="0.71em" transform="translate(40,20)">1</text></g><g text-anchor="start" font-variant="tabular-nums" transform="translate(0,30)"><text y="0.71em" transform="translate(40,20)">2</text></g><g text-anchor="start" font-variant="tabular-nums" transform="translate(0,44)"><text y="0.71em" transform="translate(40,20)">3</text></g><g text-anchor="start" font-variant="tabular-nums" transform="translate(0,58)"><text y="0.71em" transform="translate(40,20)">4</text></g><g text-anchor="start" font-variant="tabular-nums" transform="translate(0,72)"><text y="0.71em" transform="translate(40,20)">5</text></g><g text-anchor="start" font-variant="tabular-nums" transform="translate(0,86)"><text y="0.71em" transform="translate(40,20)">6</text></g><g text-anchor="start" font-variant="tabular-nums" transform="translate(0,100)"><text y="0.71em" transform="translate(40,20)">7</text></g><g text-anchor="start" font-variant="tabular-nums" transform="translate(0,114)"><text y="0.71em" transform="translate(40,20)">9</text></g><g text-anchor="start" font-variant="tabular-nums" transform="translate(0,128)"><text y="0.71em" transform="translate(40,20)">10</text></g><g text-anchor="start" font-variant="tabular-nums" transform="translate(0,142)"><text y="0.71em" transform="translate(40,20)">11</text></g><g text-anchor="start" font-variant="tabular-nums" transform="translate(0,156)"><text y="0.71em" transform="translate(40,20)">12</text></g><g text-anchor="start" font-variant="tabular-nums" transform="translate(0,170)"><text y="0.71em" transform="translate(40,20)">13</text></g><g text-anchor="start" font-variant="tabular-nums" transform="translate(0,184)"><text y="0.71em" transform="translate(40,20)">14</text></g><g text-anchor="start" font-variant="tabular-nums" transform="translate(0,198)"><text y="0.71em" transform="translate(40,20)">15</text></g><g text-anchor="start" font-variant="tabular-nums" transform="translate(0,212)"><text y="0.71em" transform="translate(40,20)">16</text></g><g text-anchor="start" font-variant="tabular-nums" transform="translate(0,226)"><text y="0.71em" transform="translate(40,20)">17</text></g><g text-anchor="start" font-variant="tabular-nums" transform="translate(0,240)"><text y="0.71em" transform="translate(40,20)">18</text></g><g text-anchor="start" font-variant="tabular-nums" transform="translate(0,254)"><text y="0.71em" transform="translate(40,20)">19</text></g><g text-anchor="start" font-variant="tabular-nums" transform="translate(0,268)"><text y="0.71em" transform="translate(40,20)">20</text></g><g text-anchor="start" font-variant="tabular-nums" transform="translate(0,282)"><text y="0.71em" transform="translate(40,20)">21</text></g><g text-anchor="start" font-variant="tabular-nums" transform="translate(0,296)"><text y="0.71em" transform="translate(40,20)">22</text></g><g text-anchor="start" font-variant="tabular-nums" transform="translate(0,310)"><text y="0.71em" transform="translate(40,20)">23</text></g><g text-anchor="start" font-variant="tabular-nums" transform="translate(0,324)"><text y="0.71em" transform="translate(40,20)">24</text></g><g text-anchor="start" font-variant="tabular-nums" transform="translate(0,338)"><text y="0.71em" transform="translate(40,20)">25</text></g><g text-anchor="start" font-variant="tabular-nums" transform="translate(0,352)"><text y="0.71em" transform="translate(40,20)">26</text></g><g text-anchor="start" font-variant="tabular-nums" transform="translate(0,366)"><text y="0.71em" transform="translate(40,20)">27</text></g><g text-anchor="start" font-variant="tabular-nums" transform="translate(0,380)"><text y="0.71em" transform="translate(40,20)">28</text></g><g text-anchor="start" font-variant="tabular-nums" transform="translate(0,394)"><text y="0.71em" transform="translate(40,20)">29</text></g><g text-anchor="start" font-variant="tabular-nums" transform="translate(0,408)"><text y="0.71em" transform="translate(40,20)">30</text></g><g text-anchor="start" font-variant="tabular-nums" transform="translate(0,422)"><text y="0.71em" transform="translate(40,20)">31</text></g><g text-anchor="start" font-variant="tabular-nums" transform="translate(0,436)"><text y="0.71em" transform="translate(40,20)">32</text></g></g></svg>