<svg class="plot-chart" fill="currentColor" font-family="system-ui, sans-serif" font-size="10" text-anchor="middle" width="500" height="500" viewBox="0 0 500 500" style="overflow: visible;" xmlns="http://www.w3.org/2000/svg"><style>:where(.plot-chart) {
  --plot-background: white;
  display: block;
  height: auto;
  height: intrinsic;
  max-width: 100%;
}
:where(.plot-chart text),
:where(.plot-chart tspan) {
  white-space: pre;
}</style><g aria-label="fy-axis tick label" transform="translate(9,0)"><g text-anchor="start" transform="translate(0,2)"><text y="0.32em" transform="translate(500,26.5)">0</text></g><g text-anchor="start" transform="translate(0,16)"><text y="0.32em" transform="translate(500,26.5)">1</text></g><g text-anchor="start" transform="translate(0,30)"><text y="0.32em" transform="translate(500,26.5)">2</text></g><g text-anchor="start" transform="translate(0,44)"><text y="0.32em" transform="translate(500,26.5)">3</text></g><g text-anchor="start" transform="translate(0,58)"><text y="0.32em" transform="translate(500,26.5)">4</text></g><g text-anchor="start" transform="translate(0,72)"><text y="0.32em" transform="translate(500,26.5)">5</text></g><g text-anchor="start" transform="translate(0,86)"><text y="0.32em" transform="translate(500,26.5)">6</text></g><g text-anchor="start" transform="translate(0,100)"><text y="0.32em" transform="translate(500,26.5)">7</text></g><g text-anchor="start" transform="translate(0,114)"><text y="0.32em" transform="translate(500,26.5)">9</text></g><g text-anchor="start" transform="translate(0,128)"><text y="0.32em" transform="translate(500,26.5)">10</text></g><g text-anchor="start" transform="translate(0,142)"><text y="0.32em" transform="translate(500,26.5)">11</text></g><g text-anchor="start" transform="translate(0,156)"><text y="0.32em" transform="translate(500,26.5)">12</text></g><g text-anchor="start" transform="translate(0,170)"><text y="0.32em" transform="translate(500,26.5)">13</text></g><g text-anchor="start" transform="translate(0,184)"><text y="0.32em" transform="translate(500,26.5)">14</text></g><g text-anchor="start" transform="translate(0,198)"><text y="0.32em" transform="translate(500,26.5)">15</text></g><g text-anchor="start" transform="translate(0,212)"><text y="0.32em" transform="translate(500,26.5)">16</text></g><g text-anchor="start" transform="translate(0,226)"><text y="0.32em" transform="translate(500,26.5)">17</text></g><g text-anchor="start" transform="translate(0,240)"><text y="0.32em" transform="translate(500,26.5)">18</text></g><g text-anchor="start" transform="translate(0,254)"><text y="0.32em" transform="translate(500,26.5)">19</text></g><g text-anchor="start" transform="translate(0,268)"><text y="0.32em" transform="translate(500,26.5)">20</text></g><g text-anchor="start" transform="translate(0,282)"><text y="0.32em" transform="translate(500,26.5)">21</text></g><g text-anchor="start" transform="translate(0,296)"><text y="0.32em" transform="translate(500,26.5)">22</text></g><g text-anchor="start" transform="translate(0,310)"><text y="0.32em" transform="translate(500,26.5)">23</text></g><g text-anchor="start" transform="translate(0,324)"><text y="0.32em" transform="translate(500,26.5)">24</text></g><g text-anchor="start" transform="translate(0,338)"><text y="0.32em" transform="translate(500,26.5)">25</text></g><g text-anchor="start" transform="translate(0,352)"><text y="0.32em" transform="translate(500,26.5)">26</text></g><g text-anchor="start" transform="translate(0,366)"><text y="0.32em" transform="translate(500,26.5)">27</text></g><g text-anchor="start" transform="translate(0,380)"><text y="0.32em" transform="translate(500,26.5)">28</text></g><g text-anchor="start" transform="translate(0,394)"><text y="0.32em" transform="translate(500,26.5)">29</text></g><g text-anchor="start" transform="translate(0,408)"><text y="0.32em" transform="translate(500,26.5)">30</text></g><g text-anchor="start" transform="translate(0,422)"><text y="0.32em" transform="translate(500,26.5)">31</text></g><g text-anchor="start" transform="translate(0,436)"><text y="0.32em" transform="translate(500,26.5)">32</text></g></g><g aria-label="fy-axis label" transform="translate(-3,0)"><text transform="translate(500,245.5) rotate(-90)">facet</text></g><g aria-label="y-axis tick" aria-hidden="true"><g fill="none" stroke="currentColor" transform="translate(0,2)"><path transform="translate(16.68,31.585307213086843)" d="M0,0L-6,0"></path></g><g fill="none" stroke="currentColor" transform="translate(0,16)"><path transform="translate(16.68,31.585307213086843)" d="M0,0L-6,0"></path></g><g fill="none" stroke="currentColor" transform="translate(0,30)"><path transform="translate(16.68,31.585307213086843)" d="M0,0L-6,0"></path></g><g fill="none" stroke="currentColor" transform="translate(0,44)"><path transform="translate(16.68,31.585307213086843)" d="M0,0L-6,0"></path></g><g fill="none" stroke="currentColor" transform="translate(0,58)"><path transform="translate(16.68,31.585307213086843)" d="M0,0L-6,0"></path></g><g fill="none" stroke="currentColor" transform="translate(0,72)"><path transform="translate(16.68,31.585307213086843)" d="M0,0L-6,0"></path></g><g fill="none" stroke="currentColor" transform="translate(0,86)"><path transform="translate(16.68,31.585307213086843)" d="M0,0L-6,0"></path></g><g fill="none" stroke="currentColor" transform="translate(0,100)"><path transform="translate(16.68,31.585307213086843)" d="M0,0L-6,0"></path></g><g fill="none" stroke="currentColor" transform="translate(0,114)"><path transform="translate(16.68,31.585307213086843)" d="M0,0L-6,0"></path></g><g fill="none" stroke="currentColor" transform="translate(0,128)"><path transform="translate(16.68,31.585307213086843)" d="M0,0L-6,0"></path></g><g fill="none" stroke="currentColor" transform="translate(0,142)"><path transform="translate(16.68,31.585307213086843)" d="M0,0L-6,0"></path></g><g fill="none" stroke="currentColor" transform="translate(0,156)"><path transform="translate(16.68,31.585307213086843)" d="M0,0L-6,0"></path></g><g fill="none" stroke="currentColor" transform="translate(0,170)"><path transform="translate(16.68,31.585307213086843)" d="M0,0L-6,0"></path></g><g fill="none" stroke="currentColor" transform="translate(0,184)"><path transform="translate(16.68,31.585307213086843)" d="M0,0L-6,0"></path></g><g fill="none" stroke="currentColor" transform="translate(0,198)"><path transform="translate(16.68,31.585307213086843)" d="M0,0L-6,0"></path></g><g fill="none" stroke="currentColor" transform="translate(0,212)"><path transform="translate(16.68,31.585307213086843)" d="M0,0L-6,0"></path></g><g fill="none" stroke="currentColor" transform="translate(0,226)"><path transform="translate(16.68,31.585307213086843)" d="M0,0L-6,0"></path></g><g fill="none" stroke="currentColor" transform="translate(0,240)"><path transform="translate(16.68,31.585307213086843)" d="M0,0L-6,0"></path></g><g fill="none" stroke="currentColor" transform="translate(0,254)"><path transform="translate(16.68,31.585307213086843)" d="M0,0L-6,0"></path></g><g fill="none" stroke="currentColor" transform="translate(0,268)"><path transform="translate(16.68,31.585307213086843)" d="M0,0L-6,0"></path></g><g fill="none" stroke="currentColor" transform="translate(0,282)"><path transform="translate(16.68,31.585307213086843)" d="M0,0L-6,0"></path></g><g fill="none" stroke="currentColor" transform="translate(0,296)"><path transform="translate(16.68,31.585307213086843)" d="M0,0L-6,0"></path></g><g fill="none" stroke="currentColor" transform="translate(0,310)"><path transform="translate(16.68,31.585307213086843)" d="M0,0L-6,0"></path></g><g fill="none" stroke="currentColor" transform="translate(0,324)"><path transform="translate(16.68,31.585307213086843)" d="M0,0L-6,0"></path></g><g fill="none" stroke="currentColor" transform="translate(0,338)"><path transform="translate(16.68,31.585307213086843)" d="M0,0L-6,0"></path></g><g fill="none" stroke="currentColor" transform="translate(0,352)"><path transform="translate(16.68,31.585307213086843)" d="M0,0L-6,0"></path></g><g fill="none" stroke="currentColor" transform="translate(0,366)"><path transform="translate(16.68,31.585307213086843)" d="M0,0L-6,0"></path></g><g fill="none" stroke="currentColor" transform="translate(0,380)"><path transform="translate(16.68,31.585307213086843)" d="M0,0L-6,0"></path></g><g fill="none" stroke="currentColor" transform="translate(0,394)"><path transform="translate(16.68,31.585307213086843)" d="M0,0L-6,0"></path></g><g fill="none" stroke="currentColor" transform="translate(0,408)"><path transform="translate(16.68,31.585307213086843)" d="M0,0L-6,0"></path></g><g fill="none" stroke="currentColor" transform="translate(0,422)"><path transform="translate(16.68,31.585307213086843)" d="M0,0L-6,0"></path></g><g fill="none" stroke="currentColor" transform="translate(0,436)"><path transform="translate(16.68,31.585307213086843)" d="M0,0L-6,0"></path></g></g><g aria-label="y-axis tick label" transform="translate(-9,0)"><g text-anchor="end" font-variant="tabular-nums" transform="translate(0,2)"><text y="0.32em" transform="translate(16.68,31.585307213086843)">0</text></g><g text-anchor="end" font-variant="tabular-nums" transform="translate(0,16)"><text y="0.32em" transform="translate(16.68,31.585307213086843)" style="display: none;">0</text></g><g text-anchor="end" font-variant="tabular-nums" transform="translate(0,30)"><text y="0.32em" transform="translate(16.68,31.585307213086843)">0</text></g><g text-anchor="end" font-variant="tabular-nums" transform="translate(0,44)"><text y="0.32em" transform="translate(16.68,31.585307213086843)" style="display: none;">0</text></g><g text-anchor="end" font-variant="tabular-nums" transform="translate(0,58)"><text y="0.32em" transform="translate(16.68,31.585307213086843)">0</text></g><g text-anchor="end" font-variant="tabular-nums" transform="translate(0,72)"><text y="0.32em" transform="translate(16.68,31.585307213086843)" style="display: none;">0</text></g><g text-anchor="end" font-variant="tabular-nums" transform="translate(0,86)"><text y="0.32em" transform="translate(16.68,31.585307213086843)">0</text></g><g text-anchor="end" font-variant="tabular-nums" transform="translate(0,100)"><text y="0.32em" transform="translate(16.68,31.585307213086843)" style="display: none;">0</text></g><g text-anchor="end" font-variant="tabular-nums" transform="translate(0,114)"><text y="0.32em" transform="translate(16.68,31.585307213086843)">0</text></g><g text-anchor="end" font-variant="tabular-nums" transform="translate(0,128)"><text y="0.32em" transform="translate(16.68,31.585307213086843)" style="display: none;">0</text></g><g text-anchor="end" font-variant="tabular-nums" transform="translate(0,142)"><text y="0.32em" transform="translate(16.68,31.585307213086843)">0</text></g><g text-anchor="end" font-variant="tabular-nums" transform="translate(0,156)"><text y="0.32em" transform="translate(16.68,31.585307213086843)" style="display: none;">0</text></g><g text-anchor="end" font-variant="tabular-nums" transform="translate(0,170)"><text y="0.32em" transform="translate(16.68,31.585307213086843)">0</text></g><g text-anchor="end" font-variant="tabular-nums" transform="translate(0,184)"><text y="0.32em" transform="translate(16.68,31.585307213086843)" style="display: none;">0</text></g><g text-anchor="end" font-variant="tabular-nums" transform="translate(0,198)"><text y="0.32em" transform="translate(16.68,31.585307213086843)">0</text></g><g text-anchor="end" font-variant="tabular-nums" transform="translate(0,212)"><text y="0.32em" transform="translate(16.68,31.585307213086843)" style="display: none;">0</text></g><g text-anchor="end" font-variant="tabular-nums" transform="translate(0,226)"><text y="0.32em" transform="translate(16.68,31.585307213086843)">0</text></g><g text-anchor="end" font-variant="tabular-nums" transform="translate(0,240)"><text y="0.32em" transform="translate(16.68,31.585307213086843)" style="display: none;">0</text></g><g text-anchor="end" font-variant="tabular-nums" transform="translate(0,254)"><text y="0.32em" transform="translate(16.68,31.585307213086843)">0</text></g><g text-anchor="end" font-variant="tabular-nums" transform="translate(0,268)"><text y="0.32em" transform="translate(16.68,31.585307213086843)" style="display: none;">0</text></g><g text-anchor="end" font-variant="tabular-nums" transform="translate(0,282)"><text y="0.32em" transform="translate(16.68,31.585307213086843)">0</text></g><g text-anchor="end" font-variant="tabular-nums" transform="translate(0,296)"><text y="0.32em" transform="translate(16.68,31.585307213086843)" style="display: none;">0</text></g><g text-anchor="end" font-variant="tabular-nums" transform="translate(0,310)"><text y="0.32em" transform="translate(16.68,31.585307213086843)">0</text></g><g text-anchor="end" font-variant="tabular-nums" transform="translate(0,324)"><text y="0.32em" transform="translate(16.68,31.585307213086843)" style="display: none;">0</text></g><g text-anchor="end" font-variant="tabular-nums" transform="translate(0,338)"><text y="0.32em" transform="translate(16.68,31.585307213086843)">0</text></g><g text-anchor="end" font-variant="tabular-nums" transform="translate(0,352)"><text y="0.32em" transform="translate(16.68,31.585307213086843)" style="display: none;">0</text></g><g text-anchor="end" font-variant="tabular-nums" transform="translate(0,366)"><text y="0.32em" transform="translate(16.68,31.585307213086843)">0</text></g><g text-anchor="end" font-variant="tabular-nums" transform="translate(0,380)"><text y="0.32em" transform="translate(16.68,31.585307213086843)" style="display: none;">0</text></g><g text-anchor="end" font-variant="tabular-nums" transform="translate(0,394)"><text y="0.32em" transform="translate(16.68,31.585307213086843)">0</text></g><g text-anchor="end" font-variant="tabular-nums" transform="translate(0,408)"><text y="0.32em" transform="translate(16.68,31.585307213086843)" style="display: none;">0</text></g><g text-anchor="end" font-variant="tabular-nums" transform="translate(0,422)"><text y="0.32em" transform="translate(16.68,31.585307213086843)">0</text></g><g text-anchor="end" font-variant="tabular-nums" transform="translate(0,436)"><text y="0.32em" transform="translate(16.68,31.585307213086843)" style="display: none;">0</text></g></g><g aria-label="y-axis label" text-anchor="start" transform="translate(-13.68,-17)"><text y="0.71em" transform="translate(16.68,22)">↑ Consensus Income</text></g><g aria-label="x-axis tick" aria-hidden="true"><g fill="none" stroke="currentColor" transform="translate(0,436)"><path transform="translate(28.134831804281344,33)" d="M0,0L0,6"></path><path transform="translate(163.0062385321101,33)" d="M0,0L0,6"></path><path transform="translate(297.87764525993884,33)" d="M0,0L0,6"></path><path transform="translate(432.74905198776753,33)" d="M0,0L0,6"></path></g></g><g aria-label="x-axis tick label" transform="translate(0,9)"><g font-variant="tabular-nums" transform="translate(0,436)"><text y="0.71em" transform="translate(28.134831804281344,33)">2021</text><text y="0.71em" transform="translate(163.0062385321101,33)">2022</text><text y="0.71em" transform="translate(297.87764525993884,33)">2023</text><text y="0.71em" transform="translate(432.74905198776753,33)">2024</text></g></g><g aria-label="x-axis label" text-anchor="end" transform="translate(-3,26)"><text transform="translate(500,469)">Month →</text></g><g aria-label="frame"><rect fill="hsla( 0 0% 100%)" stroke="hsla(220 6% 90%)" x="16.68" y="20" width="483.32" height="13" rx="4" ry="4" transform="translate(0,2)"></rect><rect fill="hsla( 0 0% 100%)" stroke="hsla(220 6% 90%)" x="16.68" y="20" width="483.32" height="13" rx="4" ry="4" transform="translate(0,16)"></rect><rect fill="hsla( 0 0% 100%)" stroke="hsla(220 6% 90%)" x="16.68" y="20" width="483.32" height="13" rx="4" ry="4" transform="translate(0,30)"></rect><rect fill="hsla( 0 0% 100%)" stroke="hsla(220 6% 90%)" x="16.68" y="20" width="483.32" height="13" rx="4" ry="4" transform="translate(0,44)"></rect><rect fill="hsla( 0 0% 100%)" stroke="hsla(220 6% 90%)" x="16.68" y="20" width="483.32" height="13" rx="4" ry="4" transform="translate(0,58)"></rect><rect fill="hsla( 0 0% 100%)" stroke="hsla(220 6% 90%)" x="16.68" y="20" width="483.32" height="13" rx="4" ry="4" transform="translate(0,72)"></rect><rect fill="hsla( 0 0% 100%)" stroke="hsla(220 6% 90%)" x="16.68" y="20" width="483.32" height="13" rx="4" ry="4" transform="translate(0,86)"></rect><rect fill="hsla( 0 0% 100%)" stroke="hsla(220 6% 90%)" x="16.68" y="20" width="483.32" height="13" rx="4" ry="4" transform="translate(0,100)"></rect><rect fill="hsla( 0 0% 100%)" stroke="hsla(220 6% 90%)" x="16.68" y="20" width="483.32" height="13" rx="4" ry="4" transform="translate(0,114)"></rect><rect fill="hsla( 0 0% 100%)" stroke="hsla(220 6% 90%)" x="16.68" y="20" width="483.32" height="13" rx="4" ry="4" transform="translate(0,128)"></rect><rect fill="hsla( 0 0% 100%)" stroke="hsla(220 6% 90%)" x="16.68" y="20" width="483.32" height="13" rx="4" ry="4" transform="translate(0,142)"></rect><rect fill="hsla( 0 0% 100%)" stroke="hsla(220 6% 90%)" x="16.68" y="20" width="483.32" height="13" rx="4" ry="4" transform="translate(0,156)"></rect><rect fill="hsla( 0 0% 100%)" stroke="hsla(220 6% 90%)" x="16.68" y="20" width="483.32" height="13" rx="4" ry="4" transform="translate(0,170)"></rect><rect fill="hsla( 0 0% 100%)" stroke="hsla(220 6% 90%)" x="16.68" y="20" width="483.32" height="13" rx="4" ry="4" transform="translate(0,184)"></rect><rect fill="hsla( 0 0% 100%)" stroke="hsla(220 6% 90%)" x="16.68" y="20" width="483.32" height="13" rx="4" ry="4" transform="translate(0,198)"></rect><rect fill="hsla( 0 0% 100%)" stroke="hsla(220 6% 90%)" x="16.68" y="20" width="483.32" height="13" rx="4" ry="4" transform="translate(0,212)"></rect><rect fill="hsla( 0 0% 100%)" stroke="hsla(220 6% 90%)" x="16.68" y="20" width="483.32" height="13" rx="4" ry="4" transform="translate(0,226)"></rect><rect fill="hsla( 0 0% 100%)" stroke="hsla(220 6% 90%)" x="16.68" y="20" width="483.32" height="13" rx="4" ry="4" transform="translate(0,240)"></rect><rect fill="hsla( 0 0% 100%)" stroke="hsla(220 6% 90%)" x="16.68" y="20" width="483.32" height="13" rx="4" ry="4" transform="translate(0,254)"></rect><rect fill="hsla( 0 0% 100%)" stroke="hsla(220 6% 90%)" x="16.68" y="20" width="483.32" height="13" rx="4" ry="4" transform="translate(0,268)"></rect><rect fill="hsla( 0 0% 100%)" stroke="hsla(220 6% 90%)" x="16.68" y="20" width="483.32" height="13" rx="4" ry="4" transform="translate(0,282)"></rect><rect fill="hsla( 0 0% 100%)" stroke="hsla(220 6% 90%)" x="16.68" y="20" width="483.32" height="13" rx="4" ry="4" transform="translate(0,296)"></rect><rect fill="hsla( 0 0% 100%)" stroke="hsla(220 6% 90%)" x="16.68" y="20" width="483.32" height="13" rx="4" ry="4" transform="translate(0,310)"></rect><rect fill="hsla( 0 0% 100%)" stroke="hsla(220 6% 90%)" x="16.68" y="20" width="483.32" height="13" rx="4" ry="4" transform="translate(0,324)"></rect><rect fill="hsla( 0 0% 100%)" stroke="hsla(220 6% 90%)" x="16.68" y="20" width="483.32" height="13" rx="4" ry="4" transform="translate(0,338)"></rect><rect fill="hsla( 0 0% 100%)" stroke="hsla(220 6% 90%)" x="16.68" y="20" width="483.32" height="13" rx="4" ry="4" transform="translate(0,352)"></rect><rect fill="hsla( 0 0% 100%)" stroke="hsla(220 6% 90%)" x="16.68" y="20" width="483.32" height="13" rx="4" ry="4" transform="translate(0,366)"></rect><rect fill="hsla( 0 0% 100%)" stroke="hsla(220 6% 90%)" x="16.68" y="20" width="483.32" height="13" rx="4" ry="4" transform="translate(0,380)"></rect><rect fill="hsla( 0 0% 100%)" stroke="hsla(220 6% 90%)" x="16.68" y="20" width="483.32" height="13" rx="4" ry="4" transform="translate(0,394)"></rect><rect fill="hsla( 0 0% 100%)" stroke="hsla(220 6% 90%)" x="16.68" y="20" width="483.32" height="13" rx="4" ry="4" transform="translate(0,408)"></rect><rect fill="hsla( 0 0% 100%)" stroke="hsla(220 6% 90%)" x="16.68" y="20" width="483.32" height="13" rx="4" ry="4" transform="translate(0,422)"></rect><rect fill="hsla( 0 0% 100%)" stroke="hsla(220 6% 90%)" x="16.68" y="20" width="483.32" height="13" rx="4" ry="4" transform="translate(0,436)"></rect></g><g aria-label="y-grid" aria-hidden="true"><g stroke="hsla(220 6% 90%)" stroke-dasharray="1.5,1.5" transform="translate(0,2)"><line x1="16.68" x2="500" y1="31.585307213086843" y2="31.585307213086843"></line></g><g stroke="hsla(220 6% 90%)" stroke-dasharray="1.5,1.5" transform="translate(0,16)"><line x1="16.68" x2="500" y1="31.585307213086843" y2="31.585307213086843"></line></g><g stroke="hsla(220 6% 90%)" stroke-dasharray="1.5,1.5" transform="translate(0,30)"><line x1="16.68" x2="500" y1="31.585307213086843" y2="31.585307213086843"></line></g><g stroke="hsla(220 6% 90%)" stroke-dasharray="1.5,1.5" transform="translate(0,44)"><line x1="16.68" x2="500" y1="31.585307213086843" y2="31.585307213086843"></line></g><g stroke="hsla(220 6% 90%)" stroke-dasharray="1.5,1.5" transform="translate(0,58)"><line x1="16.68" x2="500" y1="31.585307213086843" y2="31.585307213086843"></line></g><g stroke="hsla(220 6% 90%)" stroke-dasharray="1.5,1.5" transform="translate(0,72)"><line x1="16.68" x2="500" y1="31.585307213086843" y2="31.585307213086843"></line></g><g stroke="hsla(220 6% 90%)" stroke-dasharray="1.5,1.5" transform="translate(0,86)"><line x1="16.68" x2="500" y1="31.585307213086843" y2="31.585307213086843"></line></g><g stroke="hsla(220 6% 90%)" stroke-dasharray="1.5,1.5" transform="translate(0,100)"><line x1="16.68" x2="500" y1="31.585307213086843" y2="31.585307213086843"></line></g><g stroke="hsla(220 6% 90%)" stroke-dasharray="1.5,1.5" transform="translate(0,114)"><line x1="16.68" x2="500" y1="31.585307213086843" y2="31.585307213086843"></line></g><g stroke="hsla(220 6% 90%)" stroke-dasharray="1.5,1.5" transform="translate(0,128)"><line x1="16.68" x2="500" y1="31.585307213086843" y2="31.585307213086843"></line></g><g stroke="hsla(220 6% 90%)" stroke-dasharray="1.5,1.5" transform="translate(0,142)"><line x1="16.68" x2="500" y1="31.585307213086843" y2="31.585307213086843"></line></g><g stroke="hsla(220 6% 90%)" stroke-dasharray="1.5,1.5" transform="translate(0,156)"><line x1="16.68" x2="500" y1="31.585307213086843" y2="31.585307213086843"></line></g><g stroke="hsla(220 6% 90%)" stroke-dasharray="1.5,1.5" transform="translate(0,170)"><line x1="16.68" x2="500" y1="31.585307213086843" y2="31.585307213086843"></line></g><g stroke="hsla(220 6% 90%)" stroke-dasharray="1.5,1.5" transform="translate(0,184)"><line x1="16.68" x2="500" y1="31.585307213086843" y2="31.585307213086843"></line></g><g stroke="hsla(220 6% 90%)" stroke-dasharray="1.5,1.5" transform="translate(0,198)"><line x1="16.68" x2="500" y1="31.585307213086843" y2="31.585307213086843"></line></g><g stroke="hsla(220 6% 90%)" stroke-dasharray="1.5,1.5" transform="translate(0,212)"><line x1="16.68" x2="500" y1="31.585307213086843" y2="31.585307213086843"></line></g><g stroke="hsla(220 6% 90%)" stroke-dasharray="1.5,1.5" transform="translate(0,226)"><line x1="16.68" x2="500" y1="31.585307213086843" y2="31.585307213086843"></line></g><g stroke="hsla(220 6% 90%)" stroke-dasharray="1.5,1.5" transform="translate(0,240)"><line x1="16.68" x2="500" y1="31.585307213086843" y2="31.585307213086843"></line></g><g stroke="hsla(220 6% 90%)" stroke-dasharray="1.5,1.5" transform="translate(0,254)"><line x1="16.68" x2="500" y1="31.585307213086843" y2="31.585307213086843"></line></g><g stroke="hsla(220 6% 90%)" stroke-dasharray="1.5,1.5" transform="translate(0,268)"><line x1="16.68" x2="500" y1="31.585307213086843" y2="31.585307213086843"></line></g><g stroke="hsla(220 6% 90%)" stroke-dasharray="1.5,1.5" transform="translate(0,282)"><line x1="16.68" x2="500" y1="31.585307213086843" y2="31.585307213086843"></line></g><g stroke="hsla(220 6% 90%)" stroke-dasharray="1.5,1.5" transform="translate(0,296)"><line x1="16.68" x2="500" y1="31.585307213086843" y2="31.585307213086843"></line></g><g stroke="hsla(220 6% 90%)" stroke-dasharray="1.5,1.5" transform="translate(0,310)"><line x1="16.68" x2="500" y1="31.585307213086843" y2="31.585307213086843"></line></g><g stroke="hsla(220 6% 90%)" stroke-dasharray="1.5,1.5" transform="translate(0,324)"><line x1="16.68" x2="500" y1="31.585307213086843" y2="31.585307213086843"></line></g><g stroke="hsla(220 6% 90%)" stroke-dasharray="1.5,1.5" transform="translate(0,338)"><line x1="16.68" x2="500" y1="31.585307213086843" y2="31.585307213086843"></line></g><g stroke="hsla(220 6% 90%)" stroke-dasharray="1.5,1.5" transform="translate(0,352)"><line x1="16.68" x2="500" y1="31.585307213086843" y2="31.585307213086843"></line></g><g stroke="hsla(220 6% 90%)" stroke-dasharray="1.5,1.5" transform="translate(0,366)"><line x1="16.68" x2="500" y1="31.585307213086843" y2="31.585307213086843"></line></g><g stroke="hsla(220 6% 90%)" stroke-dasharray="1.5,1.5" transform="translate(0,380)"><line x1="16.68" x2="500" y1="31.585307213086843" y2="31.585307213086843"></line></g><g stroke="hsla(220 6% 90%)" stroke-dasharray="1.5,1.5" transform="translate(0,394)"><line x1="16.68" x2="500" y1="31.585307213086843" y2="31.585307213086843"></line></g><g stroke="hsla(220 6% 90%)" stroke-dasharray="1.5,1.5" transform="translate(0,408)"><line x1="16.68" x2="500" y1="31.585307213086843" y2="31.585307213086843"></line></g><g stroke="hsla(220 6% 90%)" stroke-dasharray="1.5,1.5" transform="translate(0,422)"><line x1="16.68" x2="500" y1="31.585307213086843" y2="31.585307213086843"></line></g><g stroke="hsla(220 6% 90%)" stroke-dasharray="1.5,1.5" transform="translate(0,436)"><line x1="16.68" x2="500" y1="31.585307213086843" y2="31.585307213086843"></line></g></g><g aria-label="line"><g fill="none" stroke="hsla(317 100% 50%)" stroke-width="1.5" stroke-linejoin="round" stroke-linecap="round" transform="translate(0,2)"><path d="M16.68,21.042L28.135,23.778L39.59,25.81L49.936,25.164L61.391,26.261L72.476,25.901L83.931,26.955L95.016,27.256L106.471,26.853L117.926,27.86L129.011,27.892L140.466,28.169L151.551,27.859L163.006,28.489L174.461,26.24L184.807,28.059L196.262,28.229L207.348,27.358L218.802,26.955L229.888,28.285L241.343,28.057L252.797,29.155L263.883,28.391L275.337,29.039L286.423,28.465L297.878,28.478L309.332,29.297L319.679,29.376L331.134,29.643L342.219,27.579L353.674,28.698L364.759,29.96L376.214,28.502L387.669,29.821L398.754,29.903L410.209,28.677L421.294,29.845L432.749,29.861L444.204,29.854L454.92,29.942L466.375,30.002L477.46,29.788L488.915,28.891L500,30.037"></path></g><g fill="none" stroke="hsla(317 100% 50%)" stroke-width="1.5" stroke-linejoin="round" stroke-linecap="round" transform="translate(0,16)"><path d="M16.68,21.052L28.135,23.593L39.59,25.897L49.936,25.175L61.391,26.162L72.476,25.251L83.931,26.842L95.016,27.139L106.471,27.096L117.926,27.857L129.011,27.883L140.466,27.049L151.551,28.433L163.006,26.196L174.461,28.05L184.807,27.441L196.262,27.582L207.348,28.013L218.802,28.367L229.888,28.294L241.343,24.541L252.797,28.431L263.883,29.128L275.337,29.034L286.423,29.234L297.878,27.696L309.332,25.512L319.679,29.373L331.134,29.632L342.219,29.243L353.674,29.561L364.759,29.053L376.214,29.47L387.669,29.82L398.754,29.899L410.209,29.723L421.294,29.852L432.749,29.861L444.204,29.854L454.92,29.946L466.375,30.009L477.46,28.672L488.915,30.009L500,30.032"></path></g><g fill="none" stroke="hsla(317 100% 50%)" stroke-width="1.5" stroke-linejoin="round" stroke-linecap="round" transform="translate(0,30)"><path d="M16.68,21.083L28.135,23.576L39.59,25.711L49.936,25.077L61.391,26.264L72.476,25.688L83.931,26.95L95.016,27.02L106.471,26.959L117.926,27.585L129.011,27.891L140.466,28.162L151.551,27.868L163.006,27.905L174.461,27.451L184.807,28.053L196.262,24.407L207.348,28.699L218.802,28.36L229.888,28.291L241.343,28.764L252.797,29.154L263.883,29.131L275.337,29.036L286.423,29.236L297.878,29.258L309.332,27.693L319.679,29.376L331.134,29.632L342.219,29.243L353.674,29.56L364.759,29.956L376.214,29.469L387.669,29.816L398.754,29.895L410.209,29.728L421.294,29.847L432.749,29.856L444.204,29.851L454.92,29.94L466.375,28.91L477.46,28.671L488.915,30.007L500,30.034"></path></g><g fill="none" stroke="hsla(317 100% 50%)" stroke-width="1.5" stroke-linejoin="round" stroke-linecap="round" transform="translate(0,44)"><path d="M16.68,21.039L28.135,23.68L39.59,25.644L49.936,24.805L61.391,26.263L72.476,25.892L83.931,27.068L95.016,27.261L106.471,27.099L117.926,27.727L129.011,27.75L140.466,27.6L151.551,28.437L163.006,28.488L174.461,27.461L184.807,28.042L196.262,28.874L207.348,28.695L218.802,28.36L229.888,28.286L241.343,28.766L252.797,29.151L263.883,28.401L275.337,29.039L286.423,28.459L297.878,29.26L309.332,29.298L319.679,29.372L331.134,29.64L342.219,28.414L353.674,28.701L364.759,29.955L376.214,29.472L387.669,29.821L398.754,29.902L410.209,29.723L421.294,29.851L432.749,29.858L444.204,29.854L454.92,29.943L466.375,30.003L477.46,29.79L488.915,28.894L500,30.036"></path></g><g fill="none" stroke="hsla(317 100% 50%)" stroke-width="1.5" stroke-linejoin="round" stroke-linecap="round" transform="translate(0,58)"><path d="M16.68,21.343L28.135,23.621L39.59,25.573L49.936,25.077L61.391,26.164L72.476,25.464L83.931,26.838L95.016,27.021L106.471,26.97L117.926,27.586L129.011,27.887L140.466,20L151.551,28.435L163.006,27.899L174.461,28.654L184.807,27.437L196.262,28.874L207.348,27.339L218.802,29.066L229.888,29L241.343,28.765L252.797,27.716L263.883,27.651L275.337,29.032L286.423,28.455L297.878,28.482L309.332,29.299L319.679,29.374L331.134,29.63L342.219,29.236L353.674,28.729L364.759,29.061L376.214,29.474L387.669,29.827L398.754,29.9L410.209,29.722L421.294,29.849L432.749,29.861L444.204,29.856L454.92,29.937L466.375,30.004L477.46,28.671L488.915,30.008L500,28.901"></path></g><g fill="none" stroke="hsla(317 100% 50%)" stroke-width="1.5" stroke-linejoin="round" stroke-linecap="round" transform="translate(0,72)"><path d="M16.68,21.072L28.135,23.653L39.59,25.368L49.936,25.232L61.391,26.158L72.476,25.779L83.931,26.844L95.016,27.15L106.471,27.129L117.926,27.894L129.011,27.79L140.466,28.165L151.551,28.438L163.006,28.491L174.461,27.972L184.807,28.082L196.262,28.865L207.348,28.245L218.802,29.067L229.888,28.995L241.343,27.349L252.797,29.158L263.883,29.127L275.337,29.224L286.423,28.648L297.878,28.468L309.332,28.498L319.679,29.362L331.134,29.657L342.219,20.068L353.674,29.559L364.759,29.597L376.214,28.514L387.669,28.812L398.754,29.819L410.209,29.724L421.294,29.853L432.749,29.865L444.204,30.26L454.92,29.922L466.375,29.974L477.46,29.899L488.915,28.902L500,29.198"></path></g><g fill="none" stroke="hsla(317 100% 50%)" stroke-width="1.5" stroke-linejoin="round" stroke-linecap="round" transform="translate(0,86)"><path d="M16.68,21.059L28.135,23.777L39.59,25.731L49.936,25.254L61.391,26.311L72.476,25.735L83.931,26.838L95.016,27.149L106.471,27.128L117.926,27.734L129.011,27.761L140.466,28.174L151.551,26.413L163.006,28.495L174.461,25.695L184.807,27.407L196.262,28.424L207.348,27.961L218.802,29.066L229.888,29.005L241.343,27.33L252.797,29.176L263.883,29.135L275.337,29.049L286.423,29.25L297.878,28.483L309.332,28.504L319.679,29.81L331.134,29.495L342.219,29.279L353.674,29.564L364.759,28.668L376.214,29.463L387.669,29.791L398.754,29.791L410.209,29.705L421.294,29.833L432.749,29.851L444.204,29.829L454.92,29.925L466.375,29.976L477.46,28.672L488.915,30.025L500,30.015"></path></g><g fill="none" stroke="hsla(317 100% 50%)" stroke-width="1.5" stroke-linejoin="round" stroke-linecap="round" transform="translate(0,100)"><path d="M16.68,21.542L28.135,26.193L39.59,25.18L49.936,26.137L61.391,26.168L72.476,25.775L83.931,26.952L95.016,27.839L106.471,27.121L117.926,27.844L129.011,27.755L140.466,27.265L151.551,27.979L163.006,29.099L174.461,28.558L184.807,28.704L196.262,28.22L207.348,28.667L218.802,28.37L229.888,29.002L241.343,28.761L252.797,29.175L263.883,28.384L275.337,29.026L286.423,28.449L297.878,29.805L309.332,30.12L319.679,28.556L331.134,29.476L342.219,29.203L353.674,29.554L364.759,29.565L376.214,28.523L387.669,30.004L398.754,32.613L410.209,29.708L421.294,30.778L432.749,29.175L444.204,28.779L454.92,28.957L466.375,31.11L477.46,29.781L488.915,30.169L500,30.013"></path></g><g fill="none" stroke="hsla(317 100% 50%)" stroke-width="1.5" stroke-linejoin="round" stroke-linecap="round" transform="translate(0,114)"><path d="M16.68,21.292L28.135,23.775L39.59,26.432L49.936,25.344L61.391,25.963L72.476,25.885L83.931,26.857L95.016,27.123L106.471,27.263L117.926,27.996L129.011,28.412L140.466,27.735L151.551,27.271L163.006,27.912L174.461,28.771L184.807,26.56L196.262,29.322L207.348,28.1L218.802,26.426L229.888,29.194L241.343,28.977L252.797,29.447L263.883,27.895L275.337,29.18L286.423,29.501L297.878,29.461L309.332,29.432L319.679,29.601L331.134,29.697L342.219,28.515L353.674,29.761L364.759,28.832L376.214,29.541L387.669,28.976L398.754,29.034L410.209,28.802L421.294,30.165L432.749,30.036L444.204,30.32L454.92,30.18L466.375,30.926L477.46,30.167L488.915,31.132L500,30.532"></path></g><g fill="none" stroke="hsla(317 100% 50%)" stroke-width="1.5" stroke-linejoin="round" stroke-linecap="round" transform="translate(0,128)"><path d="M16.68,21.139L28.135,23.789L39.59,25.599L49.936,25.07L61.391,26.062L72.476,25.78L83.931,26.841L95.016,27.137L106.471,26.723L117.926,27.887L129.011,27.929L140.466,27.609L151.551,28.427L163.006,27.319L174.461,27.389L184.807,28.706L196.262,28.861L207.348,28.232L218.802,28.354L229.888,28.284L241.343,28.765L252.797,29.155L263.883,27.657L275.337,29.223L286.423,29.413L297.878,29.254L309.332,29.296L319.679,29.363L331.134,28.817L342.219,28.357L353.674,26.23L364.759,29.595L376.214,29.47L387.669,29.802L398.754,29.822L410.209,29.721L421.294,27.817L432.749,28.817L444.204,31.364L454.92,29.922L466.375,29.974L477.46,29.9L488.915,30.002L500,30.239"></path></g><g fill="none" stroke="hsla(317 100% 50%)" stroke-width="1.5" stroke-linejoin="round" stroke-linecap="round" transform="translate(0,142)"><path d="M16.68,21.298L28.135,23.731L39.59,25.648L49.936,25.169L61.391,25.971L72.476,25.787L83.931,27.066L95.016,27.144L106.471,27.006L117.926,27.623L129.011,27.795L140.466,27.598L151.551,28.438L163.006,27.906L174.461,27.988L184.807,28.09L196.262,28.223L207.348,27.556L218.802,28.358L229.888,28.286L241.343,28.761L252.797,26.302L263.883,29.123L275.337,28.484L286.423,29.42L297.878,29.253L309.332,29.297L319.679,28.545L331.134,29.649L342.219,29.205L353.674,29.559L364.759,29.598L376.214,29.472L387.669,29.808L398.754,29.823L410.209,29.723L421.294,29.852L432.749,29.864L444.204,31.364L454.92,29.921L466.375,29.975L477.46,29.904L488.915,28.877L500,29.096"></path></g><g fill="none" stroke="hsla(317 100% 50%)" stroke-width="1.5" stroke-linejoin="round" stroke-linecap="round" transform="translate(0,156)"><path d="M16.68,21.148L28.135,23.707L39.59,25.649L49.936,25.528L61.391,26.155L72.476,25.672L83.931,27.065L95.016,27.252L106.471,27.006L117.926,27.751L129.011,27.786L140.466,27.04L151.551,27.266L163.006,27.896L174.461,27.988L184.807,28.095L196.262,28.863L207.348,28.913L218.802,29.063L229.888,28.996L241.343,28.765L252.797,29.158L263.883,29.122L275.337,28.453L286.423,29.413L297.878,29.254L309.332,29.299L319.679,29.369L331.134,29.648L342.219,29.205L353.674,29.555L364.759,29.598L376.214,29.468L387.669,29.802L398.754,29.821L410.209,29.723L421.294,28.822L432.749,29.864L444.204,31.365L454.92,28.822L466.375,28.889L477.46,29.9L488.915,28.878L500,30.239"></path></g><g fill="none" stroke="hsla(317 100% 50%)" stroke-width="1.5" stroke-linejoin="round" stroke-linecap="round" transform="translate(0,170)"><path d="M16.68,21.125L28.135,23.785L39.59,25.821L49.936,25.606L61.391,26.251L72.476,25.875L83.931,27.069L95.016,27.14L106.471,27.134L117.926,27.757L129.011,27.367L140.466,26.463L151.551,27.857L163.006,28.49L174.461,26.301L184.807,28.705L196.262,28.859L207.348,28.914L218.802,29.066L229.888,26.279L241.343,27.331L252.797,24.163L263.883,27.654L275.337,28.461L286.423,28.636L297.878,28.466L309.332,29.299L319.679,29.371L331.134,28.818L342.219,29.211L353.674,27.836L364.759,29.597L376.214,28.537L387.669,29.804L398.754,28.86L410.209,29.724L421.294,29.853L432.749,29.869L444.204,31.363L454.92,29.925L466.375,29.976L477.46,29.901L488.915,30.001L500,29.099"></path></g><g fill="none" stroke="hsla(317 100% 50%)" stroke-width="1.5" stroke-linejoin="round" stroke-linecap="round" transform="translate(0,184)"><path d="M16.68,21.025L28.135,23.641L39.59,25.634L49.936,25.427L61.391,26.252L72.476,25.978L83.931,26.96L95.016,27.255L106.471,26.999L117.926,27.764L129.011,27.788L140.466,25.88L151.551,27.272L163.006,28.492L174.461,28.596L184.807,28.701L196.262,28.419L207.348,28.915L218.802,29.068L229.888,28.996L241.343,26.613L252.797,28.447L263.883,28.389L275.337,29.224L286.423,28.193L297.878,26.703L309.332,28.485L319.679,29.368L331.134,28.94L342.219,29.203L353.674,28.682L364.759,28.703L376.214,29.469L387.669,29.804L398.754,29.821L410.209,29.724L421.294,28.795L432.749,29.872L444.204,31.368L454.92,29.923L466.375,29.975L477.46,28.785L488.915,28.83L500,30.238"></path></g><g fill="none" stroke="hsla(317 100% 50%)" stroke-width="1.5" stroke-linejoin="round" stroke-linecap="round" transform="translate(0,198)"><path d="M16.68,20.902L28.135,23.713L39.59,25.72L49.936,25.527L61.391,26.067L72.476,25.682L83.931,26.952L95.016,27.137L106.471,26.872L117.926,27.753L129.011,26.541L140.466,27.599L151.551,27.263L163.006,27.319L174.461,28.592L184.807,26.294L196.262,28.193L207.348,28.233L218.802,29.068L229.888,28.994L241.343,28.765L252.797,27.715L263.883,29.129L275.337,28.47L286.423,29.413L297.878,29.25L309.332,29.304L319.679,26.239L331.134,28.825L342.219,29.204L353.674,29.558L364.759,29.598L376.214,27.464L387.669,29.803L398.754,28.796L410.209,29.722L421.294,29.857L432.749,29.866L444.204,31.367L454.92,29.921L466.375,29.976L477.46,29.9L488.915,28.917L500,29.108"></path></g><g fill="none" stroke="hsla(317 100% 50%)" stroke-width="1.5" stroke-linejoin="round" stroke-linecap="round" transform="translate(0,212)"><path d="M16.68,21.209L28.135,23.807L39.59,25.465L49.936,25.527L61.391,25.959L72.476,25.785L83.931,26.951L95.016,27.132L106.471,26.867L117.926,27.738L129.011,27.923L140.466,28.167L151.551,27.264L163.006,28.494L174.461,27.982L184.807,25.651L196.262,28.86L207.348,28.912L218.802,29.065L229.888,28.997L241.343,28.761L252.797,29.158L263.883,29.124L275.337,28.474L286.423,29.412L297.878,29.255L309.332,29.294L319.679,28.541L331.134,29.655L342.219,28.361L353.674,29.557L364.759,29.598L376.214,29.469L387.669,29.805L398.754,29.824L410.209,25.841L421.294,29.853L432.749,28.806L444.204,30.304L454.92,29.923L466.375,28.874L477.46,29.903L488.915,28.891L500,30.238"></path></g><g fill="none" stroke="hsla(317 100% 50%)" stroke-width="1.5" stroke-linejoin="round" stroke-linecap="round" transform="translate(0,226)"><path d="M16.68,21.231L28.135,23.978L39.59,25.728L49.936,25.596L61.391,26.256L72.476,25.788L83.931,27.071L95.016,27.134L106.471,26.491L117.926,27.89L129.011,27.794L140.466,27.62L151.551,27.85L163.006,27.897L174.461,28.602L184.807,25.703L196.262,28.2L207.348,28.236L218.802,29.062L229.888,29L241.343,28.763L252.797,29.159L263.883,27.642L275.337,29.219L286.423,29.415L297.878,28.468L309.332,29.298L319.679,28.534L331.134,29.653L342.219,27.757L353.674,27.828L364.759,29.599L376.214,28.526L387.669,28.828L398.754,29.825L410.209,29.725L421.294,29.852L432.749,28.838L444.204,29.231L454.92,29.924L466.375,29.976L477.46,28.795L488.915,30.002L500,30.237"></path></g><g fill="none" stroke="hsla(317 100% 50%)" stroke-width="1.5" stroke-linejoin="round" stroke-linecap="round" transform="translate(0,240)"><path d="M16.68,21.083L28.135,23.745L39.59,25.65L49.936,25.429L61.391,26.253L72.476,25.882L83.931,26.949L95.016,27.256L106.471,27.088L117.926,27.491L129.011,27.798L140.466,28.169L151.551,28.435L163.006,28.495L174.461,28.597L184.807,28.088L196.262,28.22L207.348,28.911L218.802,27.664L229.888,27.789L241.343,28.764L252.797,29.16L263.883,28.394L275.337,27.915L286.423,28.642L297.878,29.259L309.332,28.51L319.679,28.546L331.134,29.65L342.219,28.375L353.674,25.435L364.759,29.602L376.214,29.469L387.669,29.807L398.754,26.746L410.209,29.724L421.294,29.853L432.749,29.866L444.204,31.366L454.92,29.925L466.375,29.975L477.46,29.9L488.915,30.002L500,30.239"></path></g><g fill="none" stroke="hsla(317 100% 50%)" stroke-width="1.5" stroke-linejoin="round" stroke-linecap="round" transform="translate(0,254)"><path d="M16.68,21.142L28.135,23.724L39.59,25.47L49.936,25.506L61.391,25.969L72.476,25.989L83.931,27.067L95.016,27.257L106.471,26.863L117.926,27.873L129.011,27.785L140.466,28.169L151.551,28.432L163.006,27.489L174.461,27.996L184.807,28.048L196.262,28.864L207.348,27.552L218.802,29.065L229.888,28.996L241.343,28.05L252.797,28.431L263.883,29.131L275.337,29.226L286.423,29.42L297.878,29.255L309.332,28.5L319.679,28.542L331.134,28.809L342.219,29.201L353.674,29.557L364.759,28.679L376.214,29.47L387.669,29.809L398.754,26.778L410.209,29.722L421.294,29.852L432.749,28.811L444.204,31.366L454.92,25.729L466.375,29.974L477.46,29.899L488.915,28.884L500,30.24"></path></g><g fill="none" stroke="hsla(317 100% 50%)" stroke-width="1.5" stroke-linejoin="round" stroke-linecap="round" transform="translate(0,268)"><path d="M16.68,21.085L28.135,24.023L39.59,25.828L49.936,25.071L61.391,26.166L72.476,25.929L83.931,26.966L95.016,27.157L106.471,27.016L117.926,27.874L129.011,27.787L140.466,27.614L151.551,26.155L163.006,28.507L174.461,27.387L184.807,27.452L196.262,28.914L207.348,27.345L218.802,29.071L229.888,29.172L241.343,28.764L252.797,28.459L263.883,28.419L275.337,29.048L286.423,29.237L297.878,29.32L309.332,29.302L319.679,28.551L331.134,29.65L342.219,29.305L353.674,29.575L364.759,29.639L376.214,29.501L387.669,29.852L398.754,28.778L410.209,29.715L421.294,29.846L432.749,29.861L444.204,29.843L454.92,29.929L466.375,29.979L477.46,30.154L488.915,28.895L500,30.021"></path></g><g fill="none" stroke="hsla(317 100% 50%)" stroke-width="1.5" stroke-linejoin="round" stroke-linecap="round" transform="translate(0,282)"><path d="M16.68,20.843L28.135,23.481L39.59,25.802L49.936,25.505L61.391,25.767L72.476,25.781L83.931,26.844L95.016,27.145L106.471,26.879L117.926,27.748L129.011,27.783L140.466,26.049L151.551,27.844L163.006,28.502L174.461,27.402L184.807,28.07L196.262,28.213L207.348,28.232L218.802,28.358L229.888,28.997L241.343,28.764L252.797,29.156L263.883,29.129L275.337,29.222L286.423,28.643L297.878,28.471L309.332,29.299L319.679,29.366L331.134,29.651L342.219,29.209L353.674,29.558L364.759,29.596L376.214,29.47L387.669,28.811L398.754,29.823L410.209,29.725L421.294,26.181L432.749,29.864L444.204,31.364L454.92,29.921L466.375,29.976L477.46,28.782L488.915,28.874L500,30.236"></path></g><g fill="none" stroke="hsla(317 100% 50%)" stroke-width="1.5" stroke-linejoin="round" stroke-linecap="round" transform="translate(0,296)"><path d="M16.68,21.177L28.135,23.842L39.59,25.509L49.936,24.739L61.391,25.885L72.476,25.726L83.931,26.948L95.016,27.264L106.471,26.769L117.926,27.46L129.011,27.516L140.466,28.178L151.551,28.454L163.006,28.505L174.461,25.707L184.807,27.44L196.262,28.908L207.348,28.69L218.802,29.069L229.888,29.167L241.343,28.765L252.797,29.193L263.883,28.397L275.337,25.536L286.423,27.686L297.878,29.316L309.332,29.3L319.679,29.371L331.134,28.815L342.219,29.304L353.674,29.571L364.759,29.639L376.214,29.511L387.669,29.501L398.754,29.85L410.209,29.714L421.294,29.847L432.749,29.863L444.204,29.845L454.92,29.929L466.375,29.977L477.46,30.149L488.915,30.013L500,30.02"></path></g><g fill="none" stroke="hsla(317 100% 50%)" stroke-width="1.5" stroke-linejoin="round" stroke-linecap="round" transform="translate(0,310)"><path d="M16.68,21.362L28.135,23.865L39.59,25.6L49.936,25.101L61.391,25.79L72.476,25.901L83.931,26.977L95.016,27.274L106.471,27.003L117.926,27.738L129.011,27.78L140.466,26.922L151.551,28.449L163.006,27.928L174.461,27.991L184.807,28.685L196.262,28.249L207.348,27.984L218.802,29.081L229.888,29.016L241.343,25.92L252.797,28.511L263.883,29.317L275.337,29.437L286.423,29.398L297.878,29.394L309.332,29.49L319.679,29.774L331.134,29.937L342.219,28.469L353.674,28.675L364.759,29.586L376.214,28.507L387.669,29.793L398.754,29.802L410.209,29.707L421.294,29.884L432.749,29.892L444.204,29.882L454.92,30.802L466.375,28.969L477.46,29.818L488.915,28.925L500,28.931"></path></g><g fill="none" stroke="hsla(317 100% 50%)" stroke-width="1.5" stroke-linejoin="round" stroke-linecap="round" transform="translate(0,324)"><path d="M16.68,21.026L28.135,23.732L39.59,25.734L49.936,25.425L61.391,25.875L72.476,25.676L83.931,26.84L95.016,27.259L106.471,27.123L117.926,27.756L129.011,27.829L140.466,27.037L151.551,28.43L163.006,28.493L174.461,27.388L184.807,28.704L196.262,28.865L207.348,28.91L218.802,28.363L229.888,28.997L241.343,28.048L252.797,29.157L263.883,29.129L275.337,28.468L286.423,29.418L297.878,29.252L309.332,27.704L319.679,29.364L331.134,29.653L342.219,29.208L353.674,29.557L364.759,29.596L376.214,29.469L387.669,29.803L398.754,29.827L410.209,29.726L421.294,29.851L432.749,28.802L444.204,31.364L454.92,29.922L466.375,29.975L477.46,28.786L488.915,30.002L500,30.237"></path></g><g fill="none" stroke="hsla(317 100% 50%)" stroke-width="1.5" stroke-linejoin="round" stroke-linecap="round" transform="translate(0,338)"><path d="M16.68,20.925L28.135,23.993L39.59,25.717L49.936,25.15L61.391,26.252L72.476,25.575L83.931,26.944L95.016,27.133L106.471,26.746L117.926,27.619L129.011,27.796L140.466,28.168L151.551,28.427L163.006,28.489L174.461,28.591L184.807,28.088L196.262,28.198L207.348,28.911L218.802,29.061L229.888,28.287L241.343,28.763L252.797,29.162L263.883,28.383L275.337,28.471L286.423,28.646L297.878,28.472L309.332,29.291L319.679,29.37L331.134,29.649L342.219,29.203L353.674,29.557L364.759,29.596L376.214,29.474L387.669,28.813L398.754,29.824L410.209,29.723L421.294,28.798L432.749,29.865L444.204,31.364L454.92,29.923L466.375,29.977L477.46,29.901L488.915,30.002L500,30.235"></path></g><g fill="none" stroke="hsla(317 100% 50%)" stroke-width="1.5" stroke-linejoin="round" stroke-linecap="round" transform="translate(0,352)"><path d="M16.68,21.039L28.135,23.878L39.59,25.902L49.936,25.155L61.391,26.073L72.476,25.826L83.931,26.843L95.016,27.038L106.471,26.761L117.926,27.735L129.011,27.651L140.466,27.619L151.551,28.447L163.006,27.913L174.461,28.588L184.807,28.693L196.262,27.605L207.348,28.693L218.802,29.066L229.888,29.165L241.343,28.769L252.797,29.188L263.883,29.143L275.337,28.302L286.423,29.242L297.878,29.315L309.332,29.298L319.679,29.376L331.134,29.648L342.219,29.297L353.674,29.566L364.759,29.637L376.214,29.514L387.669,29.852L398.754,29.851L410.209,29.714L421.294,29.851L432.749,29.861L444.204,29.845L454.92,29.927L466.375,29.979L477.46,30.152L488.915,30.016L500,30.021"></path></g><g fill="none" stroke="hsla(317 100% 50%)" stroke-width="1.5" stroke-linejoin="round" stroke-linecap="round" transform="translate(0,366)"><path d="M16.68,20.934L28.135,23.59L39.59,25.555L49.936,25.436L61.391,26.258L72.476,25.781L83.931,26.953L95.016,26.651L106.471,27.124L117.926,27.884L129.011,27.927L140.466,28.167L151.551,27.848L163.006,28.499L174.461,28.59L184.807,28.706L196.262,28.863L207.348,28.228L218.802,29.063L229.888,28.992L241.343,28.046L252.797,28.436L263.883,29.123L275.337,28.479L286.423,29.415L297.878,28.474L309.332,29.298L319.679,29.363L331.134,29.65L342.219,28.343L353.674,29.556L364.759,29.597L376.214,29.471L387.669,29.803L398.754,29.823L410.209,28.683L421.294,28.801L432.749,29.865L444.204,31.364L454.92,29.922L466.375,29.977L477.46,28.78L488.915,30.004L500,29.106"></path></g><g fill="none" stroke="hsla(317 100% 50%)" stroke-width="1.5" stroke-linejoin="round" stroke-linecap="round" transform="translate(0,380)"><path d="M16.68,21.117L28.135,23.942L39.59,25.973L49.936,25.261L61.391,26.164L72.476,25.999L83.931,26.75L95.016,27.22L106.471,27.101L117.926,27.689L129.011,27.192L140.466,28.158L151.551,27.838L163.006,28.483L174.461,28.549L184.807,28.651L196.262,26.242L207.348,28.657L218.802,29.066L229.888,28.993L241.343,28.042L252.797,29.163L263.883,26.387L275.337,29.126L286.423,29.284L297.878,29.253L309.332,29.292L319.679,29.38L331.134,29.507L342.219,25.835L353.674,29.577L364.759,26.343L376.214,29.48L387.669,29.814L398.754,29.853L410.209,29.75L421.294,29.876L432.749,29.9L444.204,29.889L454.92,29.958L466.375,27.816L477.46,28.71L488.915,30.049L500,30.07"></path></g><g fill="none" stroke="hsla(317 100% 50%)" stroke-width="1.5" stroke-linejoin="round" stroke-linecap="round" transform="translate(0,394)"><path d="M16.68,20.944L28.135,23.85L39.59,25.812L49.936,25.322L61.391,26.067L72.476,25.781L83.931,26.732L95.016,27.136L106.471,26.983L117.926,27.615L129.011,27.78L140.466,27.607L151.551,26.702L163.006,28.492L174.461,27.992L184.807,28.704L196.262,28.86L207.348,28.913L218.802,29.064L229.888,28.995L241.343,25.961L252.797,29.158L263.883,29.126L275.337,28.466L286.423,29.415L297.878,29.255L309.332,29.295L319.679,29.368L331.134,29.652L342.219,29.204L353.674,29.557L364.759,28.676L376.214,29.471L387.669,29.806L398.754,29.82L410.209,28.677L421.294,29.855L432.749,29.863L444.204,31.365L454.92,29.923L466.375,28.828L477.46,29.899L488.915,30.001L500,30.239"></path></g><g fill="none" stroke="hsla(317 100% 50%)" stroke-width="1.5" stroke-linejoin="round" stroke-linecap="round" transform="translate(0,408)"><path d="M16.68,21.08L28.135,23.701L39.59,25.494L49.936,25.526L61.391,25.867L72.476,25.453L83.931,26.954L95.016,27.009L106.471,27.008L117.926,27.89L129.011,27.933L140.466,28.169L151.551,27.853L163.006,27.907L174.461,26.179L184.807,28.086L196.262,28.222L207.348,28.915L218.802,28.365L229.888,26.252L241.343,28.763L252.797,27.711L263.883,29.128L275.337,28.47L286.423,29.417L297.878,29.255L309.332,29.3L319.679,28.547L331.134,29.65L342.219,28.359L353.674,29.557L364.759,27.783L376.214,29.47L387.669,29.805L398.754,28.793L410.209,25.797L421.294,29.858L432.749,29.866L444.204,31.365L454.92,29.922L466.375,29.975L477.46,29.898L488.915,30.002L500,25.905"></path></g><g fill="none" stroke="hsla(317 100% 50%)" stroke-width="1.5" stroke-linejoin="round" stroke-linecap="round" transform="translate(0,422)"><path d="M16.68,21.146L28.135,23.916L39.59,25.748L49.936,25.065L61.391,25.98L72.476,25.929L83.931,26.728L95.016,27.146L106.471,26.754L117.926,27.757L129.011,27.921L140.466,27.623L151.551,27.301L163.006,27.927L174.461,27.985L184.807,28.065L196.262,28.901L207.348,28.695L218.802,28.249L229.888,26.458L241.343,28.765L252.797,29.197L263.883,28.405L275.337,29.05L286.423,29.245L297.878,29.319L309.332,28.5L319.679,29.372L331.134,29.637L342.219,28.466L353.674,29.567L364.759,29.636L376.214,28.553L387.669,28.837L398.754,29.848L410.209,29.712L421.294,29.848L432.749,29.863L444.204,26.603L454.92,29.927L466.375,29.98L477.46,30.149L488.915,30.014L500,30.021"></path></g><g fill="none" stroke="hsla(317 100% 50%)" stroke-width="1.5" stroke-linejoin="round" stroke-linecap="round" transform="translate(0,436)"><path d="M16.68,23.278L28.135,27.004L39.59,28.478L49.936,25.809L61.391,27.224L72.476,26.193L83.931,27.038L95.016,27.421L106.471,29.624L117.926,28.783L129.011,27.889L140.466,27.631L151.551,27.521L163.006,27.954L174.461,28.577L184.807,28.058L196.262,28.912L207.348,27.991L218.802,32.901L229.888,27.575L241.343,28.781L252.797,29.191L263.883,29.989L275.337,30.281L286.423,29.953L297.878,28.48L309.332,30.143L319.679,29.371L331.134,29.625L342.219,28.379L353.674,29.575L364.759,31.324L376.214,30.24L387.669,30.725L398.754,31.24L410.209,33L421.294,30.763L432.749,30.829L444.204,31.211L454.92,30.698L466.375,30.024L477.46,30.853L488.915,31.467L500,29.971"></path></g></g><g aria-label="text" transform="translate(3,3)"><g text-anchor="start" font-variant="tabular-nums" transform="translate(0,2)"><text y="0.71em" transform="translate(16.68,20)">0</text></g><g text-anchor="start" font-variant="tabular-nums" transform="translate(0,16)"><text y="0.71em" transform="translate(16.68,20)" style="display: none;">1</text></g><g text-anchor="start" font-variant="tabular-nums" transform="translate(0,30)"><text y="0.71em" transform="translate(16.68,20)">2</text></g><g text-anchor="start" font-variant="tabular-nums" transform="translate(0,44)"><text y="0.71em" transform="translate(16.68,20)" style="display: none;">3</text></g><g text-anchor="start" font-variant="tabular-nums" transform="translate(0,58)"><text y="0.71em" transform="translate(16.68,20)">4</text></g><g text-anchor="start" font-variant="tabular-nums" transform="translate(0,72)"><text y="0.71em" transform="translate(16.68,20)" style="display: none;">5</text></g><g text-anchor="start" font-variant="tabular-nums" transform="translate(0,86)"><text y="0.71em" transform="translate(16.68,20)">6</text></g><g text-anchor="start" font-variant="tabular-nums" transform="translate(0,100)"><text y="0.71em" transform="translate(16.68,20)" style="display: none;">7</text></g><g text-anchor="start" font-variant="tabular-nums" transform="translate(0,114)"><text y="0.71em" transform="translate(16.68,20)">9</text></g><g text-anchor="start" font-variant="tabular-nums" transform="translate(0,128)"><text y="0.71em" transform="translate(16.68,20)" style="display: none;">10</text></g><g text-anchor="start" font-variant="tabular-nums" transform="translate(0,142)"><text y="0.71em" transform="translate(16.68,20)">11</text></g><g text-anchor="start" font-variant="tabular-nums" transform="translate(0,156)"><text y="0.71em" transform="translate(16.68,20)" style="display: none;">12</text></g><g text-anchor="start" font-variant="tabular-nums" transform="translate(0,170)"><text y="0.71em" transform="translate(16.68,20)">13</text></g><g text-anchor="start" font-variant="tabular-nums" transform="translate(0,184)"><text y="0.71em" transform="translate(16.68,20)" style="display: none;">14</text></g><g text-anchor="start" font-variant="tabular-nums" transform="translate(0,198)"><text y="0.71em" transform="translate(16.68,20)">15</text></g><g text-anchor="start" font-variant="tabular-nums" transform="translate(0,212)"><text y="0.71em" transform="translate(16.68,20)" style="display: none;">16</text></g><g text-anchor="start" font-variant="tabular-nums" transform="translate(0,226)"><text y="0.71em" transform="translate(16.68,20)">17</text></g><g text-anchor="start" font-variant="tabular-nums" transform="translate(0,240)"><text y="0.71em" transform="translate(16.68,20)" style="display: none;">18</text></g><g text-anchor="start" font-variant="tabular-nums" transform="translate(0,254)"><text y="0.71em" transform="translate(16.68,20)">19</text></g><g text-anchor="start" font-variant="tabular-nums" transform="translate(0,268)"><text y="0.71em" transform="translate(16.68,20)" style="display: none;">20</text></g><g text-anchor="start" font-variant="tabular-nums" transform="translate(0,282)"><text y="0.71em" transform="translate(16.68,20)">21</text></g><g text-anchor="start" font-variant="tabular-nums" transform="translate(0,296)"><text y="0.71em" transform="translate(16.68,20)" style="display: none;">22</text></g><g text-anchor="start" font-variant="tabular-nums" transform="translate(0,310)"><text y="0.71em" transform="translate(16.68,20)">23</text></g><g text-anchor="start" font-variant="tabular-nums" transform="translate(0,324)"><text y="0.71em" transform="translate(16.68,20)" style="display: none;">24</text></g><g text-anchor="start" font-variant="tabular-nums" transform="translate(0,338)"><text y="0.71em" transform="translate(16.68,20)">25</text></g><g text-anchor="start" font-variant="tabular-nums" transform="translate(0,352)"><text y="0.71em" transform="translate(16.68,20)" style="display: none;">26</text></g><g text-anchor="start" font-variant="tabular-nums" transform="translate(0,366)"><text y="0.71em" transform="translate(16.68,20)">27</text></g><g text-anchor="start" font-variant="tabular-nums" transform="translate(0,380)"><text y="0.71em" transform="translate(16.68,20)" style="display: none;">28</text></g><g text-anchor="start" font-variant="tabular-nums" transform="translate(0,394)"><text y="0.71em" transform="translate(16.68,20)">29</text></g><g text-anchor="start" font-variant="tabular-nums" transform="translate(0,408)"><text y="0.71em" transform="translate(16.68,20)" style="display: none;">30</text></g><g text-anchor="start" font-variant="tabular-nums" transform="translate(0,422)"><text y="0.71em" transform="translate(16.68,20)">31</text></g><g text-anchor="start" font-variant="tabular-nums" transform="translate(0,436)"><text y="0.71em" transform="translate(16.68,20)" style="display: none;">32</text></g></g></svg>