<svg class="plot-d6a7b5" fill="currentColor" font-family="system-ui, sans-serif" font-size="10" text-anchor="middle" width="640" height="400" viewBox="0 0 640 400" xmlns="http://www.w3.org/2000/svg"><style>:where(.plot-d6a7b5) {
  --plot-background: white;
  display: block;
  height: auto;
  height: intrinsic;
  max-width: 100%;
}
:where(.plot-d6a7b5 text),
:where(.plot-d6a7b5 tspan) {
  white-space: pre;
}</style><g aria-label="y-axis tick" aria-hidden="true" fill="none" stroke="currentColor"><path transform="translate(40,354.0379954190979)" d="M0,0L-6,0"></path><path transform="translate(40,324.5029998662783)" d="M0,0L-6,0"></path><path transform="translate(40,294.96800431345866)" d="M0,0L-6,0"></path><path transform="translate(40,265.433008760639)" d="M0,0L-6,0"></path><path transform="translate(40,235.8980132078194)" d="M0,0L-6,0"></path><path transform="translate(40,206.36301765499982)" d="M0,0L-6,0"></path><path transform="translate(40,176.82802210218017)" d="M0,0L-6,0"></path><path transform="translate(40,147.29302654936055)" d="M0,0L-6,0"></path><path transform="translate(40,117.75803099654092)" d="M0,0L-6,0"></path><path transform="translate(40,88.22303544372127)" d="M0,0L-6,0"></path><path transform="translate(40,58.68803989090165)" d="M0,0L-6,0"></path><path transform="translate(40,29.153044338082054)" d="M0,0L-6,0"></path></g><g aria-label="y-axis tick label" text-anchor="end" font-variant="tabular-nums" transform="translate(-9,0)"><text y="0.32em" transform="translate(40,354.0379954190979)">2</text><text y="0.32em" transform="translate(40,324.5029998662783)">3</text><text y="0.32em" transform="translate(40,294.96800431345866)">4</text><text y="0.32em" transform="translate(40,265.433008760639)">5</text><text y="0.32em" transform="translate(40,235.8980132078194)">6</text><text y="0.32em" transform="translate(40,206.36301765499982)">7</text><text y="0.32em" transform="translate(40,176.82802210218017)">8</text><text y="0.32em" transform="translate(40,147.29302654936055)">9</text><text y="0.32em" transform="translate(40,117.75803099654092)">10</text><text y="0.32em" transform="translate(40,88.22303544372127)">11</text><text y="0.32em" transform="translate(40,58.68803989090165)">12</text><text y="0.32em" transform="translate(40,29.153044338082054)">13</text></g><g aria-label="y-axis label" text-anchor="start" transform="translate(-37,-17)"><text y="0.71em" transform="translate(40,20)">↑ Sum of Consensus Income</text></g><g aria-label="x-axis tick" aria-hidden="true" fill="none" stroke="currentColor"><path transform="translate(53.74617737003058,370)" d="M0,0L0,6"></path><path transform="translate(93.65443425076452,370)" d="M0,0L0,6"></path><path transform="translate(134.00611620795107,370)" d="M0,0L0,6"></path><path transform="translate(174.8012232415902,370)" d="M0,0L0,6"></path><path transform="translate(215.59633027522938,370)" d="M0,0L0,6"></path><path transform="translate(255.5045871559633,370)" d="M0,0L0,6"></path><path transform="translate(295.85626911314984,370)" d="M0,0L0,6"></path><path transform="translate(336.651376146789,370)" d="M0,0L0,6"></path><path transform="translate(377.4464831804281,370)" d="M0,0L0,6"></path><path transform="translate(417.3547400611621,370)" d="M0,0L0,6"></path><path transform="translate(457.70642201834863,370)" d="M0,0L0,6"></path><path transform="translate(498.50152905198775,370)" d="M0,0L0,6"></path><path transform="translate(539.2966360856268,370)" d="M0,0L0,6"></path><path transform="translate(579.6483180428135,370)" d="M0,0L0,6"></path><path transform="translate(620,370)" d="M0,0L0,6"></path></g><g aria-label="x-axis tick label" font-variant="tabular-nums" transform="translate(0,9)"><text transform="translate(53.74617737003058,370)"><tspan x="0" y="0.71em">Jan</tspan><tspan x="0" dy="1em">2021</tspan></text><text y="0.71em" transform="translate(93.65443425076452,370)">Apr</text><text y="0.71em" transform="translate(134.00611620795107,370)">Jul</text><text y="0.71em" transform="translate(174.8012232415902,370)">Oct</text><text transform="translate(215.59633027522938,370)"><tspan x="0" y="0.71em">Jan</tspan><tspan x="0" dy="1em">2022</tspan></text><text y="0.71em" transform="translate(255.5045871559633,370)">Apr</text><text y="0.71em" transform="translate(295.85626911314984,370)">Jul</text><text y="0.71em" transform="translate(336.651376146789,370)">Oct</text><text transform="translate(377.4464831804281,370)"><tspan x="0" y="0.71em">Jan</tspan><tspan x="0" dy="1em">2023</tspan></text><text y="0.71em" transform="translate(417.3547400611621,370)">Apr</text><text y="0.71em" transform="translate(457.70642201834863,370)">Jul</text><text y="0.71em" transform="translate(498.50152905198775,370)">Oct</text><text transform="translate(539.2966360856268,370)"><tspan x="0" y="0.71em">Jan</tspan><tspan x="0" dy="1em">2024</tspan></text><text y="0.71em" transform="translate(579.6483180428135,370)">Apr</text><text y="0.71em" transform="translate(620,370)">Jul</text></g><g aria-label="x-axis label" text-anchor="end" transform="translate(17,27)"><text transform="translate(620,370)">Month →</text></g><g aria-label="line" fill="none" stroke="currentColor" stroke-width="1.5" stroke-linejoin="round" stroke-linecap="round"><path d="M40,20L53.746,124.251L67.492,193.677L79.908,176.361L93.654,207.134L106.957,193.983L120.703,237.093L134.006,246.543L147.752,241.703L161.498,269.565L174.801,268.57L188.547,253.533L201.85,271.633L215.596,282.806L229.343,270.338L241.758,274.422L255.505,291.003L268.807,291.36L282.554,306.746L295.856,297.759L309.602,283.311L323.349,302.551L336.651,302.07L350.398,307.359L363.7,317.876L377.446,312.339L391.193,315.129L403.609,319.2L417.355,333.953L430.657,295.882L444.404,318.891L457.706,328.963L471.453,324.134L485.199,340.197L498.502,339.049L512.248,332.553L525.55,338.498L539.297,342.456L553.043,370L565.902,345.335L579.648,346.018L592.951,337.778L606.697,340.913L620,344.691"></path></g></svg>