<svg class="plot-chart" fill="currentColor" font-family="system-ui, sans-serif" font-size="10" text-anchor="middle" width="500" height="500" viewBox="0 0 500 500" style="overflow: visible;" xmlns="http://www.w3.org/2000/svg"><style>:where(.plot-chart) {
  --plot-background: white;
  display: block;
  height: auto;
  height: intrinsic;
  max-width: 100%;
}
:where(.plot-chart text),
:where(.plot-chart tspan) {
  white-space: pre;
}</style><g aria-label="y-axis tick" aria-hidden="true" fill="none" stroke="currentColor"><path transform="translate(40,470)" d="M0,0L-6,0"></path><path transform="translate(40,436.1905927776604)" d="M0,0L-6,0"></path><path transform="translate(40,402.38118555532077)" d="M0,0L-6,0"></path><path transform="translate(40,368.5717783329812)" d="M0,0L-6,0"></path><path transform="translate(40,334.76237111064154)" d="M0,0L-6,0"></path><path transform="translate(40,300.95296388830195)" d="M0,0L-6,0"></path><path transform="translate(40,267.14355666596225)" d="M0,0L-6,0"></path><path transform="translate(40,233.33414944362275)" d="M0,0L-6,0"></path><path transform="translate(40,199.5247422212831)" d="M0,0L-6,0"></path><path transform="translate(40,165.7153349989435)" d="M0,0L-6,0"></path><path transform="translate(40,131.9059277766039)" d="M0,0L-6,0"></path><path transform="translate(40,98.09652055426427)" d="M0,0L-6,0"></path><path transform="translate(40,64.28711333192466)" d="M0,0L-6,0"></path><path transform="translate(40,30.477706109585046)" d="M0,0L-6,0"></path></g><g aria-label="y-axis tick label" text-anchor="end" font-variant="tabular-nums" transform="translate(-9,0)"><text y="0.32em" transform="translate(40,470)">0</text><text y="0.32em" transform="translate(40,436.1905927776604)">1</text><text y="0.32em" transform="translate(40,402.38118555532077)">2</text><text y="0.32em" transform="translate(40,368.5717783329812)">3</text><text y="0.32em" transform="translate(40,334.76237111064154)">4</text><text y="0.32em" transform="translate(40,300.95296388830195)">5</text><text y="0.32em" transform="translate(40,267.14355666596225)">6</text><text y="0.32em" transform="translate(40,233.33414944362275)">7</text><text y="0.32em" transform="translate(40,199.5247422212831)">8</text><text y="0.32em" transform="translate(40,165.7153349989435)">9</text><text y="0.32em" transform="translate(40,131.9059277766039)">10</text><text y="0.32em" transform="translate(40,98.09652055426427)">11</text><text y="0.32em" transform="translate(40,64.28711333192466)">12</text><text y="0.32em" transform="translate(40,30.477706109585046)">13</text></g><g aria-label="y-axis label" text-anchor="start" transform="translate(-37,-17)"><text y="0.71em" transform="translate(40,20)">↑ Sum of Consensus Income,execution Income</text></g><g aria-label="x-axis tick" aria-hidden="true" fill="none" stroke="currentColor"><path transform="translate(50.428134556574925,470)" d="M0,0L0,6"></path><path transform="translate(173.21100917431195,470)" d="M0,0L0,6"></path><path transform="translate(295.9938837920489,470)" d="M0,0L0,6"></path><path transform="translate(418.77675840978594,470)" d="M0,0L0,6"></path></g><g aria-label="x-axis tick label" font-variant="tabular-nums" transform="translate(0,9)"><text y="0.71em" transform="translate(50.428134556574925,470)">2021</text><text y="0.71em" transform="translate(173.21100917431195,470)">2022</text><text y="0.71em" transform="translate(295.9938837920489,470)">2023</text><text y="0.71em" transform="translate(418.77675840978594,470)">2024</text></g><g aria-label="x-axis label" text-anchor="end" transform="translate(17,27)"><text transform="translate(480,470)">Month →</text></g><rect aria-label="frame" fill="hsla( 0 0% 100%)" stroke="hsla(220 6% 90%)" x="40" y="20" width="440" height="450" rx="4" ry="4"></rect><g aria-label="y-grid" aria-hidden="true" stroke="hsla(220 6% 90%)" stroke-dasharray="1.5,1.5"><line x1="40" x2="480" y1="470" y2="470"></line><line x1="40" x2="480" y1="436.1905927776604" y2="436.1905927776604"></line><line x1="40" x2="480" y1="402.38118555532077" y2="402.38118555532077"></line><line x1="40" x2="480" y1="368.5717783329812" y2="368.5717783329812"></line><line x1="40" x2="480" y1="334.76237111064154" y2="334.76237111064154"></line><line x1="40" x2="480" y1="300.95296388830195" y2="300.95296388830195"></line><line x1="40" x2="480" y1="267.14355666596225" y2="267.14355666596225"></line><line x1="40" x2="480" y1="233.33414944362275" y2="233.33414944362275"></line><line x1="40" x2="480" y1="199.5247422212831" y2="199.5247422212831"></line><line x1="40" x2="480" y1="165.7153349989435" y2="165.7153349989435"></line><line x1="40" x2="480" y1="131.9059277766039" y2="131.9059277766039"></line><line x1="40" x2="480" y1="98.09652055426427" y2="98.09652055426427"></line><line x1="40" x2="480" y1="64.28711333192466" y2="64.28711333192466"></line><line x1="40" x2="480" y1="30.477706109585046" y2="30.477706109585046"></line></g><g aria-label="line" fill="none" stroke-width="1.5" stroke-linejoin="round" stroke-linecap="round"><path stroke="hsla(317 100% 50%)" d="M40,20L50.428,139.339L60.856,218.813L70.275,198.99L80.703,234.217L90.795,219.162L101.223,268.511L111.315,279.329L121.743,273.788L132.171,305.683L142.263,304.544L152.691,287.331L162.783,308.05L173.211,320.84L183.639,306.568L193.058,311.243L203.486,330.224L213.578,330.632L224.006,348.245L234.098,337.958L244.526,321.419L254.954,343.443L265.046,342.892L275.474,348.946L285.566,360.986L295.994,354.648L306.422,357.841L315.841,362.501L326.269,379.39L336.361,335.808L346.789,362.148L356.881,373.677L367.309,368.15L377.737,386.537L387.829,385.223L398.257,377.787L408.349,384.592L418.777,389.123L429.205,420.653L438.96,392.419L449.388,393.201L459.48,383.768L469.908,387.357L480,391.682"></path><path stroke="hsla(194 100% 50%)" d="M40,470L50.428,470L60.856,470L70.275,470L80.703,470L90.795,470L101.223,470L111.315,470L121.743,470L132.171,470L142.263,470L152.691,470L162.783,470L173.211,470L183.639,470L193.058,470L203.486,470L213.578,470L224.006,470L234.098,470L244.526,470L254.954,464.773L265.046,441.402L275.474,461.682L285.566,461.928L295.994,463.769L306.422,461.843L315.841,466.959L326.269,464.894L336.361,422.23L346.789,463.973L356.881,462.645L367.309,458.718L377.737,465.647L387.829,465.415L398.257,467.019L408.349,466.918L418.777,453.056L429.205,456.275L438.96,469.106L449.388,462.409L459.48,458.409L469.908,455.75L480,465.353"></path></g></svg>