<svg class="plot-chart" fill="currentColor" font-family="system-ui, sans-serif" font-size="10" text-anchor="middle" width="500" height="500" viewBox="0 0 500 500" style="overflow: visible;" xmlns="http://www.w3.org/2000/svg"><style>:where(.plot-chart) {
  --plot-background: white;
  display: block;
  height: auto;
  height: intrinsic;
  max-width: 100%;
}
:where(.plot-chart text),
:where(.plot-chart tspan) {
  white-space: pre;
}</style><g aria-label="y-axis tick" aria-hidden="true" fill="none" stroke="currentColor"><path transform="translate(40,449.4774226816973)" d="M0,0L-6,0"></path><path transform="translate(40,411.5038569709292)" d="M0,0L-6,0"></path><path transform="translate(40,373.5302912601611)" d="M0,0L-6,0"></path><path transform="translate(40,335.55672554939304)" d="M0,0L-6,0"></path><path transform="translate(40,297.58315983862497)" d="M0,0L-6,0"></path><path transform="translate(40,259.6095941278569)" d="M0,0L-6,0"></path><path transform="translate(40,221.6360284170888)" d="M0,0L-6,0"></path><path transform="translate(40,183.6624627063207)" d="M0,0L-6,0"></path><path transform="translate(40,145.6888969955526)" d="M0,0L-6,0"></path><path transform="translate(40,107.7153312847845)" d="M0,0L-6,0"></path><path transform="translate(40,69.74176557401641)" d="M0,0L-6,0"></path><path transform="translate(40,31.768199863248356)" d="M0,0L-6,0"></path></g><g aria-label="y-axis tick label" text-anchor="end" font-variant="tabular-nums" transform="translate(-9,0)"><text y="0.32em" transform="translate(40,449.4774226816973)">2</text><text y="0.32em" transform="translate(40,411.5038569709292)">3</text><text y="0.32em" transform="translate(40,373.5302912601611)">4</text><text y="0.32em" transform="translate(40,335.55672554939304)">5</text><text y="0.32em" transform="translate(40,297.58315983862497)">6</text><text y="0.32em" transform="translate(40,259.6095941278569)">7</text><text y="0.32em" transform="translate(40,221.6360284170888)">8</text><text y="0.32em" transform="translate(40,183.6624627063207)">9</text><text y="0.32em" transform="translate(40,145.6888969955526)">10</text><text y="0.32em" transform="translate(40,107.7153312847845)">11</text><text y="0.32em" transform="translate(40,69.74176557401641)">12</text><text y="0.32em" transform="translate(40,31.768199863248356)">13</text></g><g aria-label="y-axis label" text-anchor="start" transform="translate(-37,-17)"><text y="0.71em" transform="translate(40,20)">↑ Sum of Consensus Income</text></g><g aria-label="x-axis tick" aria-hidden="true" fill="none" stroke="currentColor"><path transform="translate(50.428134556574925,470)" d="M0,0L0,6"></path><path transform="translate(173.21100917431195,470)" d="M0,0L0,6"></path><path transform="translate(295.9938837920489,470)" d="M0,0L0,6"></path><path transform="translate(418.77675840978594,470)" d="M0,0L0,6"></path></g><g aria-label="x-axis tick label" font-variant="tabular-nums" transform="translate(0,9)"><text y="0.71em" transform="translate(50.428134556574925,470)">2021</text><text y="0.71em" transform="translate(173.21100917431195,470)">2022</text><text y="0.71em" transform="translate(295.9938837920489,470)">2023</text><text y="0.71em" transform="translate(418.77675840978594,470)">2024</text></g><g aria-label="x-axis label" text-anchor="end" transform="translate(17,27)"><text transform="translate(480,470)">Month →</text></g><rect aria-label="frame" fill="hsla( 0 0% 100%)" stroke="hsla(220 6% 90%)" x="40" y="20" width="440" height="450" rx="4" ry="4"></rect><g aria-label="y-grid" aria-hidden="true" stroke="hsla(220 6% 90%)" stroke-dasharray="1.5,1.5"><line x1="40" x2="480" y1="449.4774226816973" y2="449.4774226816973"></line><line x1="40" x2="480" y1="411.5038569709292" y2="411.5038569709292"></line><line x1="40" x2="480" y1="373.5302912601611" y2="373.5302912601611"></line><line x1="40" x2="480" y1="335.55672554939304" y2="335.55672554939304"></line><line x1="40" x2="480" y1="297.58315983862497" y2="297.58315983862497"></line><line x1="40" x2="480" y1="259.6095941278569" y2="259.6095941278569"></line><line x1="40" x2="480" y1="221.6360284170888" y2="221.6360284170888"></line><line x1="40" x2="480" y1="183.6624627063207" y2="183.6624627063207"></line><line x1="40" x2="480" y1="145.6888969955526" y2="145.6888969955526"></line><line x1="40" x2="480" y1="107.7153312847845" y2="107.7153312847845"></line><line x1="40" x2="480" y1="69.74176557401641" y2="69.74176557401641"></line><line x1="40" x2="480" y1="31.768199863248356" y2="31.768199863248356"></line></g><g aria-label="line" fill="none" stroke="hsla(317 100% 50%)" stroke-width="1.5" stroke-linejoin="round" stroke-linecap="round"><path d="M40,20L50.428,154.037L60.856,243.3L70.275,221.036L80.703,260.601L90.795,243.692L101.223,299.12L111.315,311.269L121.743,305.046L132.171,340.87L142.263,339.59L152.691,320.257L162.783,343.528L173.211,357.893L183.639,341.863L193.058,347.114L203.486,368.433L213.578,368.891L224.006,388.673L234.098,377.119L244.526,358.543L254.954,383.28L265.046,382.661L275.474,389.461L285.566,402.983L295.994,395.865L306.422,399.452L315.841,404.685L326.269,423.654L336.361,374.705L346.789,404.289L356.881,417.238L367.309,411.03L377.737,431.682L387.829,430.206L398.257,421.854L408.349,429.497L418.777,434.587L429.205,470L438.96,438.288L449.388,439.166L459.48,428.572L469.908,432.603L480,437.46"></path></g></svg>