<svg class="plot-chart" fill="currentColor" font-family="system-ui, sans-serif" font-size="10" text-anchor="middle" width="500" height="500" viewBox="0 0 500 500" style="overflow: visible;" xmlns="http://www.w3.org/2000/svg"><style>:where(.plot-chart) {
  --plot-background: white;
  display: block;
  height: auto;
  height: intrinsic;
  max-width: 100%;
}
:where(.plot-chart text),
:where(.plot-chart tspan) {
  white-space: pre;
}</style><g aria-label="y-axis tick" aria-hidden="true" fill="none" stroke="currentColor"><path transform="translate(20.6,450.4318169543233)" d="M0,0L-6,0"></path><path transform="translate(20.6,412.3738655419757)" d="M0,0L-6,0"></path><path transform="translate(20.6,374.31591412962814)" d="M0,0L-6,0"></path><path transform="translate(20.6,336.2579627172806)" d="M0,0L-6,0"></path><path transform="translate(20.6,298.200011304933)" d="M0,0L-6,0"></path><path transform="translate(20.6,260.14205989258545)" d="M0,0L-6,0"></path><path transform="translate(20.6,222.0841084802379)" d="M0,0L-6,0"></path><path transform="translate(20.6,184.0261570678903)" d="M0,0L-6,0"></path><path transform="translate(20.6,145.9682056555427)" d="M0,0L-6,0"></path><path transform="translate(20.6,107.91025424319514)" d="M0,0L-6,0"></path><path transform="translate(20.6,69.85230283084755)" d="M0,0L-6,0"></path><path transform="translate(20.6,31.79435141850002)" d="M0,0L-6,0"></path></g><g aria-label="y-axis tick label" text-anchor="end" font-variant="tabular-nums" transform="translate(-9,0)"><text y="0.32em" transform="translate(20.6,450.4318169543233)">2</text><text y="0.32em" transform="translate(20.6,412.3738655419757)">3</text><text y="0.32em" transform="translate(20.6,374.31591412962814)">4</text><text y="0.32em" transform="translate(20.6,336.2579627172806)">5</text><text y="0.32em" transform="translate(20.6,298.200011304933)">6</text><text y="0.32em" transform="translate(20.6,260.14205989258545)">7</text><text y="0.32em" transform="translate(20.6,222.0841084802379)">8</text><text y="0.32em" transform="translate(20.6,184.0261570678903)">9</text><text y="0.32em" transform="translate(20.6,145.9682056555427)">10</text><text y="0.32em" transform="translate(20.6,107.91025424319514)">11</text><text y="0.32em" transform="translate(20.6,69.85230283084755)">12</text><text y="0.32em" transform="translate(20.6,31.79435141850002)">13</text></g><g aria-label="y-axis label" text-anchor="start" transform="translate(-17.6,-17)"><text y="0.71em" transform="translate(20.6,20)">↑ Sum of Consensus Income</text></g><g aria-label="x-axis tick" aria-hidden="true" fill="none" stroke="currentColor"><path transform="translate(31.96192660550459,471)" d="M0,0L0,6"></path><path transform="translate(165.73944954128442,471)" d="M0,0L0,6"></path><path transform="translate(299.5169724770642,471)" d="M0,0L0,6"></path><path transform="translate(433.294495412844,471)" d="M0,0L0,6"></path></g><g aria-label="x-axis tick label" font-variant="tabular-nums" transform="translate(0,9)"><text y="0.71em" transform="translate(31.96192660550459,471)">2021</text><text y="0.71em" transform="translate(165.73944954128442,471)">2022</text><text y="0.71em" transform="translate(299.5169724770642,471)">2023</text><text y="0.71em" transform="translate(433.294495412844,471)">2024</text></g><g aria-label="x-axis label" text-anchor="end" transform="translate(-3,26)"><text transform="translate(500,471)">Month →</text></g><rect aria-label="frame" fill="hsla( 0 0% 100%)" stroke="hsla(220 6% 90%)" x="20.6" y="20" width="479.4" height="451" rx="4" ry="4"></rect><g aria-label="y-grid" aria-hidden="true" stroke="hsla(220 6% 90%)" stroke-dasharray="1.5,1.5"><line x1="20.6" x2="500" y1="450.4318169543233" y2="450.4318169543233"></line><line x1="20.6" x2="500" y1="412.3738655419757" y2="412.3738655419757"></line><line x1="20.6" x2="500" y1="374.31591412962814" y2="374.31591412962814"></line><line x1="20.6" x2="500" y1="336.2579627172806" y2="336.2579627172806"></line><line x1="20.6" x2="500" y1="298.200011304933" y2="298.200011304933"></line><line x1="20.6" x2="500" y1="260.14205989258545" y2="260.14205989258545"></line><line x1="20.6" x2="500" y1="222.0841084802379" y2="222.0841084802379"></line><line x1="20.6" x2="500" y1="184.0261570678903" y2="184.0261570678903"></line><line x1="20.6" x2="500" y1="145.9682056555427" y2="145.9682056555427"></line><line x1="20.6" x2="500" y1="107.91025424319514" y2="107.91025424319514"></line><line x1="20.6" x2="500" y1="69.85230283084755" y2="69.85230283084755"></line><line x1="20.6" x2="500" y1="31.79435141850002" y2="31.79435141850002"></line></g><g aria-label="line" fill="none" stroke="hsla(317 100% 50%)" stroke-width="1.5" stroke-linejoin="round" stroke-linecap="round"><path d="M20.6,20L31.962,154.335L43.324,243.796L53.586,221.483L64.948,261.136L75.944,244.189L87.306,299.74L98.301,311.917L109.663,305.68L121.025,341.583L132.02,340.3L143.382,320.924L154.378,344.247L165.739,358.644L177.101,342.578L187.364,347.841L198.726,369.207L209.721,369.667L221.083,389.493L232.078,377.913L243.44,359.296L254.802,384.087L265.798,383.467L277.16,390.282L288.155,403.835L299.517,396.7L310.879,400.295L321.141,405.54L332.503,424.551L343.499,375.493L354.861,405.143L365.856,418.12L377.218,411.899L388.58,432.597L399.575,431.117L410.937,422.747L421.933,430.407L433.294,435.508L444.656,471L455.285,439.218L466.647,440.098L477.643,429.48L489.005,433.52L500,438.388"></path></g></svg>