<svg class="plot-chart" fill="currentColor" font-family="system-ui, sans-serif" font-size="10" text-anchor="middle" width="500" height="500" viewBox="0 0 500 500" style="overflow: visible;" xmlns="http://www.w3.org/2000/svg"><style>:where(.plot-chart) {
  --plot-background: white;
  display: block;
  height: auto;
  height: intrinsic;
  max-width: 100%;
}
:where(.plot-chart text),
:where(.plot-chart tspan) {
  white-space: pre;
}</style><g aria-label="y-axis tick" aria-hidden="true" fill="none" stroke="currentColor"><path transform="translate(22.72,461)" d="M0,0L-6,0"></path><path transform="translate(22.72,427.8667809221072)" d="M0,0L-6,0"></path><path transform="translate(22.72,394.73356184421436)" d="M0,0L-6,0"></path><path transform="translate(22.72,361.60034276632155)" d="M0,0L-6,0"></path><path transform="translate(22.72,328.46712368842867)" d="M0,0L-6,0"></path><path transform="translate(22.72,295.3339046105359)" d="M0,0L-6,0"></path><path transform="translate(22.72,262.20068553264304)" d="M0,0L-6,0"></path><path transform="translate(22.72,229.06746645475027)" d="M0,0L-6,0"></path><path transform="translate(22.72,195.93424737685746)" d="M0,0L-6,0"></path><path transform="translate(22.72,162.80102829896464)" d="M0,0L-6,0"></path><path transform="translate(22.72,129.66780922107182)" d="M0,0L-6,0"></path><path transform="translate(22.72,96.53459014317899)" d="M0,0L-6,0"></path><path transform="translate(22.72,63.40137106528616)" d="M0,0L-6,0"></path><path transform="translate(22.72,30.268151987393345)" d="M0,0L-6,0"></path></g><g aria-label="y-axis tick label" text-anchor="end" font-variant="tabular-nums" transform="translate(-9,0)"><text y="0.32em" transform="translate(22.72,461)">0</text><text y="0.32em" transform="translate(22.72,427.8667809221072)">1</text><text y="0.32em" transform="translate(22.72,394.73356184421436)">2</text><text y="0.32em" transform="translate(22.72,361.60034276632155)">3</text><text y="0.32em" transform="translate(22.72,328.46712368842867)">4</text><text y="0.32em" transform="translate(22.72,295.3339046105359)">5</text><text y="0.32em" transform="translate(22.72,262.20068553264304)">6</text><text y="0.32em" transform="translate(22.72,229.06746645475027)">7</text><text y="0.32em" transform="translate(22.72,195.93424737685746)">8</text><text y="0.32em" transform="translate(22.72,162.80102829896464)">9</text><text y="0.32em" transform="translate(22.72,129.66780922107182)">10</text><text y="0.32em" transform="translate(22.72,96.53459014317899)">11</text><text y="0.32em" transform="translate(22.72,63.40137106528616)">12</text><text y="0.32em" transform="translate(22.72,30.268151987393345)">13</text></g><g aria-label="y-axis label" text-anchor="start" transform="translate(-19.72,-17)"><text y="0.71em" transform="translate(22.72,20)">↑ Sum of Consensus Income,execution Income</text></g><g aria-label="x-axis tick" aria-hidden="true" fill="none" stroke="currentColor"><path transform="translate(34.03168195718654,461)" d="M0,0L0,6"></path><path transform="translate(167.21761467889908,461)" d="M0,0L0,6"></path><path transform="translate(300.4035474006116,461)" d="M0,0L0,6"></path><path transform="translate(433.5894801223241,461)" d="M0,0L0,6"></path></g><g aria-label="x-axis tick label" font-variant="tabular-nums" transform="translate(0,9)"><text y="0.71em" transform="translate(34.03168195718654,461)">2021</text><text y="0.71em" transform="translate(167.21761467889908,461)">2022</text><text y="0.71em" transform="translate(300.4035474006116,461)">2023</text><text y="0.71em" transform="translate(433.5894801223241,461)">2024</text></g><g aria-label="x-axis label" text-anchor="end" transform="translate(-3,36)"><text transform="translate(500,461)">Month →</text></g><rect aria-label="frame" fill="hsla( 0 0% 100%)" stroke="hsla(220 6% 90%)" x="22.72" y="20" width="477.28" height="441" rx="4" ry="4"></rect><g aria-label="y-grid" aria-hidden="true" stroke="hsla(220 6% 90%)" stroke-dasharray="1.5,1.5"><line x1="22.72" x2="500" y1="461" y2="461"></line><line x1="22.72" x2="500" y1="427.8667809221072" y2="427.8667809221072"></line><line x1="22.72" x2="500" y1="394.73356184421436" y2="394.73356184421436"></line><line x1="22.72" x2="500" y1="361.60034276632155" y2="361.60034276632155"></line><line x1="22.72" x2="500" y1="328.46712368842867" y2="328.46712368842867"></line><line x1="22.72" x2="500" y1="295.3339046105359" y2="295.3339046105359"></line><line x1="22.72" x2="500" y1="262.20068553264304" y2="262.20068553264304"></line><line x1="22.72" x2="500" y1="229.06746645475027" y2="229.06746645475027"></line><line x1="22.72" x2="500" y1="195.93424737685746" y2="195.93424737685746"></line><line x1="22.72" x2="500" y1="162.80102829896464" y2="162.80102829896464"></line><line x1="22.72" x2="500" y1="129.66780922107182" y2="129.66780922107182"></line><line x1="22.72" x2="500" y1="96.53459014317899" y2="96.53459014317899"></line><line x1="22.72" x2="500" y1="63.40137106528616" y2="63.40137106528616"></line><line x1="22.72" x2="500" y1="30.268151987393345" y2="30.268151987393345"></line></g><g aria-label="line" fill="none" stroke-width="1.5" stroke-linejoin="round" stroke-linecap="round"><path stroke="hsla(317 100% 50%)" d="M22.72,20L34.032,136.952L45.343,214.836L55.56,195.411L66.872,229.932L77.819,215.179L89.131,263.541L100.077,274.142L111.389,268.712L122.701,299.97L133.647,298.853L144.959,281.985L155.906,302.289L167.218,314.823L178.529,300.836L188.746,305.418L200.058,324.019L211.005,324.42L222.316,341.68L233.263,331.599L244.575,315.391L255.887,336.974L266.833,336.434L278.145,342.367L289.092,354.166L300.404,347.955L311.715,351.084L321.932,355.651L333.244,372.202L344.191,329.492L355.502,355.305L366.449,366.603L377.761,361.187L389.073,379.206L400.019,377.918L411.331,370.632L422.278,377.3L433.589,381.741L444.901,412.64L455.483,384.971L466.795,385.737L477.742,376.493L489.053,380.01L500,384.248"></path><path stroke="hsla(194 100% 50%)" d="M22.72,461L34.032,461L45.343,461L55.56,461L66.872,461L77.819,461L89.131,461L100.077,461L111.389,461L122.701,461L133.647,461L144.959,461L155.906,461L167.218,461L178.529,461L188.746,461L200.058,461L211.005,461L222.316,461L233.263,461L244.575,461L255.887,455.878L266.833,432.974L278.145,452.848L289.092,453.09L300.404,454.894L311.715,453.006L321.932,458.02L333.244,455.996L344.191,414.185L355.502,455.094L366.449,453.792L377.761,449.944L389.073,456.734L400.019,456.507L411.331,458.078L422.278,457.98L433.589,444.395L444.901,447.549L455.483,460.124L466.795,453.561L477.742,449.641L489.053,447.035L500,456.446"></path></g></svg>