<svg class="plot-chart" fill="currentColor" font-family="system-ui, sans-serif" font-size="10" text-anchor="middle" width="500" height="500" viewBox="0 0 500 500" style="overflow: visible;" xmlns="http://www.w3.org/2000/svg"><style>:where(.plot-chart) {
  --plot-background: white;
  display: block;
  height: auto;
  height: intrinsic;
  max-width: 100%;
}
:where(.plot-chart text),
:where(.plot-chart tspan) {
  white-space: pre;
}</style><g aria-label="y-axis tick" aria-hidden="true" fill="none" stroke="currentColor"><path transform="translate(20.6,471)" d="M0,0L-6,0"></path><path transform="translate(20.6,437.1154607616108)" d="M0,0L-6,0"></path><path transform="translate(20.6,403.23092152322147)" d="M0,0L-6,0"></path><path transform="translate(20.6,369.34638228483226)" d="M0,0L-6,0"></path><path transform="translate(20.6,335.46184304644294)" d="M0,0L-6,0"></path><path transform="translate(20.6,301.5773038080537)" d="M0,0L-6,0"></path><path transform="translate(20.6,267.6927645696644)" d="M0,0L-6,0"></path><path transform="translate(20.6,233.80822533127522)" d="M0,0L-6,0"></path><path transform="translate(20.6,199.92368609288596)" d="M0,0L-6,0"></path><path transform="translate(20.6,166.0391468544967)" d="M0,0L-6,0"></path><path transform="translate(20.6,132.15460761610746)" d="M0,0L-6,0"></path><path transform="translate(20.6,98.27006837771819)" d="M0,0L-6,0"></path><path transform="translate(20.6,64.38552913932894)" d="M0,0L-6,0"></path><path transform="translate(20.6,30.50098990093968)" d="M0,0L-6,0"></path></g><g aria-label="y-axis tick label" text-anchor="end" font-variant="tabular-nums" transform="translate(-9,0)"><text y="0.32em" transform="translate(20.6,471)">0</text><text y="0.32em" transform="translate(20.6,437.1154607616108)">1</text><text y="0.32em" transform="translate(20.6,403.23092152322147)">2</text><text y="0.32em" transform="translate(20.6,369.34638228483226)">3</text><text y="0.32em" transform="translate(20.6,335.46184304644294)">4</text><text y="0.32em" transform="translate(20.6,301.5773038080537)">5</text><text y="0.32em" transform="translate(20.6,267.6927645696644)">6</text><text y="0.32em" transform="translate(20.6,233.80822533127522)">7</text><text y="0.32em" transform="translate(20.6,199.92368609288596)">8</text><text y="0.32em" transform="translate(20.6,166.0391468544967)">9</text><text y="0.32em" transform="translate(20.6,132.15460761610746)">10</text><text y="0.32em" transform="translate(20.6,98.27006837771819)">11</text><text y="0.32em" transform="translate(20.6,64.38552913932894)">12</text><text y="0.32em" transform="translate(20.6,30.50098990093968)">13</text></g><g aria-label="y-axis label" text-anchor="start" transform="translate(-17.6,-17)"><text y="0.71em" transform="translate(20.6,20)">↑ Sum of Consensus Income,execution Income</text></g><g aria-label="x-axis tick" aria-hidden="true" fill="none" stroke="currentColor"><path transform="translate(31.96192660550459,471)" d="M0,0L0,6"></path><path transform="translate(165.73944954128442,471)" d="M0,0L0,6"></path><path transform="translate(299.5169724770642,471)" d="M0,0L0,6"></path><path transform="translate(433.294495412844,471)" d="M0,0L0,6"></path></g><g aria-label="x-axis tick label" font-variant="tabular-nums" transform="translate(0,9)"><text y="0.71em" transform="translate(31.96192660550459,471)">2021</text><text y="0.71em" transform="translate(165.73944954128442,471)">2022</text><text y="0.71em" transform="translate(299.5169724770642,471)">2023</text><text y="0.71em" transform="translate(433.294495412844,471)">2024</text></g><g aria-label="x-axis label" text-anchor="end" transform="translate(-3,26)"><text transform="translate(500,471)">Month →</text></g><rect aria-label="frame" fill="hsla( 0 0% 100%)" stroke="hsla(220 6% 90%)" x="20.6" y="20" width="479.4" height="451" rx="4" ry="4"></rect><g aria-label="y-grid" aria-hidden="true" stroke="hsla(220 6% 90%)" stroke-dasharray="1.5,1.5"><line x1="20.6" x2="500" y1="471" y2="471"></line><line x1="20.6" x2="500" y1="437.1154607616108" y2="437.1154607616108"></line><line x1="20.6" x2="500" y1="403.23092152322147" y2="403.23092152322147"></line><line x1="20.6" x2="500" y1="369.34638228483226" y2="369.34638228483226"></line><line x1="20.6" x2="500" y1="335.46184304644294" y2="335.46184304644294"></line><line x1="20.6" x2="500" y1="301.5773038080537" y2="301.5773038080537"></line><line x1="20.6" x2="500" y1="267.6927645696644" y2="267.6927645696644"></line><line x1="20.6" x2="500" y1="233.80822533127522" y2="233.80822533127522"></line><line x1="20.6" x2="500" y1="199.92368609288596" y2="199.92368609288596"></line><line x1="20.6" x2="500" y1="166.0391468544967" y2="166.0391468544967"></line><line x1="20.6" x2="500" y1="132.15460761610746" y2="132.15460761610746"></line><line x1="20.6" x2="500" y1="98.27006837771819" y2="98.27006837771819"></line><line x1="20.6" x2="500" y1="64.38552913932894" y2="64.38552913932894"></line><line x1="20.6" x2="500" y1="30.50098990093968" y2="30.50098990093968"></line></g><g aria-label="line" fill="none" stroke-width="1.5" stroke-linejoin="round" stroke-linecap="round"><path stroke="hsla(317 100% 50%)" d="M20.6,20L31.962,139.604L43.324,219.254L53.586,199.388L64.948,234.693L75.944,219.605L87.306,269.064L98.301,279.905L109.663,274.352L121.025,306.318L132.02,305.176L143.382,287.925L154.378,308.69L165.739,321.509L177.101,307.205L187.364,311.89L198.726,330.913L209.721,331.322L221.083,348.974L232.078,338.664L243.44,322.089L254.802,344.162L265.798,343.609L277.16,349.677L288.155,361.743L299.517,355.391L310.879,358.592L321.141,363.262L332.503,380.188L343.499,336.51L354.861,362.908L365.856,374.463L377.218,368.924L388.58,387.352L399.575,386.035L410.937,378.582L421.933,385.402L433.294,389.944L444.656,421.544L455.285,393.247L466.647,394.03L477.643,384.577L489.005,388.174L500,392.508"></path><path stroke="hsla(194 100% 50%)" d="M20.6,471L31.962,471L43.324,471L53.586,471L64.948,471L75.944,471L87.306,471L98.301,471L109.663,471L121.025,471L132.02,471L143.382,471L154.378,471L165.739,471L177.101,471L187.364,471L198.726,471L209.721,471L221.083,471L232.078,471L243.44,471L254.802,465.762L265.798,442.338L277.16,462.664L288.155,462.91L299.517,464.755L310.879,462.825L321.141,467.952L332.503,465.883L343.499,423.124L354.861,464.96L365.856,463.628L377.218,459.693L388.58,466.638L399.575,466.405L410.937,468.012L421.933,467.912L433.294,454.018L444.656,457.244L455.285,470.104L466.647,463.392L477.643,459.383L489.005,456.718L500,466.342"></path></g></svg>