<svg class="plot-chart" fill="currentColor" font-family="system-ui, sans-serif" font-size="10" text-anchor="middle" width="500" height="500" viewBox="0 0 500 500" style="overflow: visible;" xmlns="http://www.w3.org/2000/svg"><style>:where(.plot-chart) {
  --plot-background: white;
  display: block;
  height: auto;
  height: intrinsic;
  max-width: 100%;
}
:where(.plot-chart text),
:where(.plot-chart tspan) {
  white-space: pre;
}</style><g aria-label="y-axis tick" aria-hidden="true" fill="none" stroke="currentColor"><path transform="translate(22.72,440.88787422806337)" d="M0,0L-6,0"></path><path transform="translate(22.72,403.6737798315106)" d="M0,0L-6,0"></path><path transform="translate(22.72,366.4596854349579)" d="M0,0L-6,0"></path><path transform="translate(22.72,329.24559103840517)" d="M0,0L-6,0"></path><path transform="translate(22.72,292.03149664185247)" d="M0,0L-6,0"></path><path transform="translate(22.72,254.81740224529977)" d="M0,0L-6,0"></path><path transform="translate(22.72,217.60330784874702)" d="M0,0L-6,0"></path><path transform="translate(22.72,180.3892134521943)" d="M0,0L-6,0"></path><path transform="translate(22.72,143.17511905564155)" d="M0,0L-6,0"></path><path transform="translate(22.72,105.96102465908882)" d="M0,0L-6,0"></path><path transform="translate(22.72,68.74693026253608)" d="M0,0L-6,0"></path><path transform="translate(22.72,31.532835865983387)" d="M0,0L-6,0"></path></g><g aria-label="y-axis tick label" text-anchor="end" font-variant="tabular-nums" transform="translate(-9,0)"><text y="0.32em" transform="translate(22.72,440.88787422806337)">2</text><text y="0.32em" transform="translate(22.72,403.6737798315106)">3</text><text y="0.32em" transform="translate(22.72,366.4596854349579)">4</text><text y="0.32em" transform="translate(22.72,329.24559103840517)">5</text><text y="0.32em" transform="translate(22.72,292.03149664185247)">6</text><text y="0.32em" transform="translate(22.72,254.81740224529977)">7</text><text y="0.32em" transform="translate(22.72,217.60330784874702)">8</text><text y="0.32em" transform="translate(22.72,180.3892134521943)">9</text><text y="0.32em" transform="translate(22.72,143.17511905564155)">10</text><text y="0.32em" transform="translate(22.72,105.96102465908882)">11</text><text y="0.32em" transform="translate(22.72,68.74693026253608)">12</text><text y="0.32em" transform="translate(22.72,31.532835865983387)">13</text></g><g aria-label="y-axis label" text-anchor="start" transform="translate(-19.72,-17)"><text y="0.71em" transform="translate(22.72,20)">↑ Sum of Consensus Income</text></g><g aria-label="x-axis tick" aria-hidden="true" fill="none" stroke="currentColor"><path transform="translate(34.03168195718654,461)" d="M0,0L0,6"></path><path transform="translate(167.21761467889908,461)" d="M0,0L0,6"></path><path transform="translate(300.4035474006116,461)" d="M0,0L0,6"></path><path transform="translate(433.5894801223241,461)" d="M0,0L0,6"></path></g><g aria-label="x-axis tick label" font-variant="tabular-nums" transform="translate(0,9)"><text y="0.71em" transform="translate(34.03168195718654,461)">2021</text><text y="0.71em" transform="translate(167.21761467889908,461)">2022</text><text y="0.71em" transform="translate(300.4035474006116,461)">2023</text><text y="0.71em" transform="translate(433.5894801223241,461)">2024</text></g><g aria-label="x-axis label" text-anchor="end" transform="translate(-3,36)"><text transform="translate(500,461)">Month →</text></g><rect aria-label="frame" fill="hsla( 0 0% 100%)" stroke="hsla(220 6% 90%)" x="22.72" y="20" width="477.28" height="441" rx="4" ry="4"></rect><g aria-label="y-grid" aria-hidden="true" stroke="hsla(220 6% 90%)" stroke-dasharray="1.5,1.5"><line x1="22.72" x2="500" y1="440.88787422806337" y2="440.88787422806337"></line><line x1="22.72" x2="500" y1="403.6737798315106" y2="403.6737798315106"></line><line x1="22.72" x2="500" y1="366.4596854349579" y2="366.4596854349579"></line><line x1="22.72" x2="500" y1="329.24559103840517" y2="329.24559103840517"></line><line x1="22.72" x2="500" y1="292.03149664185247" y2="292.03149664185247"></line><line x1="22.72" x2="500" y1="254.81740224529977" y2="254.81740224529977"></line><line x1="22.72" x2="500" y1="217.60330784874702" y2="217.60330784874702"></line><line x1="22.72" x2="500" y1="180.3892134521943" y2="180.3892134521943"></line><line x1="22.72" x2="500" y1="143.17511905564155" y2="143.17511905564155"></line><line x1="22.72" x2="500" y1="105.96102465908882" y2="105.96102465908882"></line><line x1="22.72" x2="500" y1="68.74693026253608" y2="68.74693026253608"></line><line x1="22.72" x2="500" y1="31.532835865983387" y2="31.532835865983387"></line></g><g aria-label="line" fill="none" stroke="hsla(317 100% 50%)" stroke-width="1.5" stroke-linejoin="round" stroke-linecap="round"><path d="M22.72,20L34.032,151.356L45.343,238.834L55.56,217.015L66.872,255.789L77.819,239.218L89.131,293.537L100.077,305.444L111.389,299.345L122.701,334.452L133.647,333.198L144.959,314.252L155.906,337.058L167.218,351.135L178.529,335.426L188.746,340.572L200.058,361.464L211.005,361.914L222.316,381.3L233.263,369.977L244.575,351.772L255.887,376.014L266.833,375.408L278.145,382.072L289.092,395.324L300.404,388.348L311.715,391.863L321.932,396.992L333.244,415.581L344.191,367.611L355.502,396.603L366.449,409.293L377.761,403.209L389.073,423.448L400.019,422.002L411.331,413.817L422.278,421.307L433.589,426.295L444.901,461L455.483,429.923L466.795,430.783L477.742,420.401L489.053,424.351L500,429.111"></path></g></svg>