<svg class="plot-d6a7b5" fill="currentColor" font-family="system-ui, sans-serif" font-size="10" text-anchor="middle" width="640" height="400" viewBox="0 0 640 400" xmlns="http://www.w3.org/2000/svg"><style>:where(.plot-d6a7b5) {
  --plot-background: white;
  display: block;
  height: auto;
  height: intrinsic;
  max-width: 100%;
}
:where(.plot-d6a7b5 text),
:where(.plot-d6a7b5 tspan) {
  white-space: pre;
}</style><g aria-label="y-axis tick" aria-hidden="true" fill="none" stroke="currentColor"><path transform="translate(40,370)" d="M0,0L-6,0"></path><path transform="translate(40,343.7037943826248)" d="M0,0L-6,0"></path><path transform="translate(40,317.4075887652495)" d="M0,0L-6,0"></path><path transform="translate(40,291.1113831478742)" d="M0,0L-6,0"></path><path transform="translate(40,264.81517753049894)" d="M0,0L-6,0"></path><path transform="translate(40,238.51897191312372)" d="M0,0L-6,0"></path><path transform="translate(40,212.22276629574847)" d="M0,0L-6,0"></path><path transform="translate(40,185.92656067837325)" d="M0,0L-6,0"></path><path transform="translate(40,159.63035506099797)" d="M0,0L-6,0"></path><path transform="translate(40,133.33414944362272)" d="M0,0L-6,0"></path><path transform="translate(40,107.03794382624747)" d="M0,0L-6,0"></path><path transform="translate(40,80.7417382088722)" d="M0,0L-6,0"></path><path transform="translate(40,54.445532591496956)" d="M0,0L-6,0"></path><path transform="translate(40,28.149326974121703)" d="M0,0L-6,0"></path></g><g aria-label="y-axis tick label" text-anchor="end" font-variant="tabular-nums" transform="translate(-9,0)"><text y="0.32em" transform="translate(40,370)">0</text><text y="0.32em" transform="translate(40,343.7037943826248)">1</text><text y="0.32em" transform="translate(40,317.4075887652495)">2</text><text y="0.32em" transform="translate(40,291.1113831478742)">3</text><text y="0.32em" transform="translate(40,264.81517753049894)">4</text><text y="0.32em" transform="translate(40,238.51897191312372)">5</text><text y="0.32em" transform="translate(40,212.22276629574847)">6</text><text y="0.32em" transform="translate(40,185.92656067837325)">7</text><text y="0.32em" transform="translate(40,159.63035506099797)">8</text><text y="0.32em" transform="translate(40,133.33414944362272)">9</text><text y="0.32em" transform="translate(40,107.03794382624747)">10</text><text y="0.32em" transform="translate(40,80.7417382088722)">11</text><text y="0.32em" transform="translate(40,54.445532591496956)">12</text><text y="0.32em" transform="translate(40,28.149326974121703)">13</text></g><g aria-label="y-axis label" text-anchor="start" transform="translate(-37,-17)"><text y="0.71em" transform="translate(40,20)">↑ Sum of Consensus Income,execution Income</text></g><g aria-label="x-axis tick" aria-hidden="true" fill="none" stroke="currentColor"><path transform="translate(53.74617737003058,370)" d="M0,0L0,6"></path><path transform="translate(93.65443425076452,370)" d="M0,0L0,6"></path><path transform="translate(134.00611620795107,370)" d="M0,0L0,6"></path><path transform="translate(174.8012232415902,370)" d="M0,0L0,6"></path><path transform="translate(215.59633027522938,370)" d="M0,0L0,6"></path><path transform="translate(255.5045871559633,370)" d="M0,0L0,6"></path><path transform="translate(295.85626911314984,370)" d="M0,0L0,6"></path><path transform="translate(336.651376146789,370)" d="M0,0L0,6"></path><path transform="translate(377.4464831804281,370)" d="M0,0L0,6"></path><path transform="translate(417.3547400611621,370)" d="M0,0L0,6"></path><path transform="translate(457.70642201834863,370)" d="M0,0L0,6"></path><path transform="translate(498.50152905198775,370)" d="M0,0L0,6"></path><path transform="translate(539.2966360856268,370)" d="M0,0L0,6"></path><path transform="translate(579.6483180428135,370)" d="M0,0L0,6"></path><path transform="translate(620,370)" d="M0,0L0,6"></path></g><g aria-label="x-axis tick label" font-variant="tabular-nums" transform="translate(0,9)"><text transform="translate(53.74617737003058,370)"><tspan x="0" y="0.71em">Jan</tspan><tspan x="0" dy="1em">2021</tspan></text><text y="0.71em" transform="translate(93.65443425076452,370)">Apr</text><text y="0.71em" transform="translate(134.00611620795107,370)">Jul</text><text y="0.71em" transform="translate(174.8012232415902,370)">Oct</text><text transform="translate(215.59633027522938,370)"><tspan x="0" y="0.71em">Jan</tspan><tspan x="0" dy="1em">2022</tspan></text><text y="0.71em" transform="translate(255.5045871559633,370)">Apr</text><text y="0.71em" transform="translate(295.85626911314984,370)">Jul</text><text y="0.71em" transform="translate(336.651376146789,370)">Oct</text><text transform="translate(377.4464831804281,370)"><tspan x="0" y="0.71em">Jan</tspan><tspan x="0" dy="1em">2023</tspan></text><text y="0.71em" transform="translate(417.3547400611621,370)">Apr</text><text y="0.71em" transform="translate(457.70642201834863,370)">Jul</text><text y="0.71em" transform="translate(498.50152905198775,370)">Oct</text><text transform="translate(539.2966360856268,370)"><tspan x="0" y="0.71em">Jan</tspan><tspan x="0" dy="1em">2024</tspan></text><text y="0.71em" transform="translate(579.6483180428135,370)">Apr</text><text y="0.71em" transform="translate(620,370)">Jul</text></g><g aria-label="x-axis label" text-anchor="end" transform="translate(17,27)"><text transform="translate(620,370)">Month →</text></g><g aria-label="line" fill="none" stroke-width="1.5" stroke-linejoin="round" stroke-linecap="round"><path stroke="#4269d0" d="M40,20L53.746,112.819L67.492,174.632L79.908,159.215L93.654,186.613L106.957,174.904L120.703,213.287L134.006,221.7L147.752,217.391L161.498,242.198L174.801,241.312L188.547,227.924L201.85,244.039L215.596,253.987L229.343,242.886L241.758,246.522L255.505,261.285L268.807,261.603L282.554,275.302L295.856,267.301L309.602,254.437L323.349,271.567L336.651,271.138L350.398,275.847L363.7,285.211L377.446,280.282L391.193,282.765L403.609,286.39L417.355,299.525L430.657,265.629L444.404,286.115L457.706,295.082L471.453,290.783L485.199,305.085L498.502,304.062L512.248,298.279L525.55,303.571L539.297,307.096L553.043,331.619L565.902,309.659L579.648,310.267L592.951,302.931L606.697,305.722L620,309.086"></path><path stroke="#efb118" d="M40,370L53.746,370L67.492,370L79.908,370L93.654,370L106.957,370L120.703,370L134.006,370L147.752,370L161.498,370L174.801,370L188.547,370L201.85,370L215.596,370L229.343,370L241.758,370L255.505,370L268.807,370L282.554,370L295.856,370L309.602,370L323.349,365.935L336.651,347.757L350.398,363.531L363.7,363.722L377.446,365.154L391.193,363.656L403.609,367.635L417.355,366.029L430.657,332.845L444.404,365.312L457.706,364.279L471.453,361.225L485.199,366.615L498.502,366.434L512.248,367.681L525.55,367.603L539.297,356.821L553.043,359.325L565.902,369.305L579.648,364.096L592.951,360.985L606.697,358.917L620,366.386"></path></g></svg>