<svg class="plot-chart" fill="currentColor" font-family="system-ui, sans-serif" font-size="10" text-anchor="middle" width="300" height="100" viewBox="0 0 300 100" style="overflow: visible;" xmlns="http://www.w3.org/2000/svg"><style>:where(.plot-chart) {
  --plot-background: white;
  display: block;
  height: auto;
  height: intrinsic;
  max-width: 100%;
}
:where(.plot-chart text),
:where(.plot-chart tspan) {
  white-space: pre;
}</style><g aria-label="y-axis tick" aria-hidden="true" fill="none" stroke="currentColor"><path transform="translate(40,64.55887389648785)" d="M0,0L-6,0"></path></g><g aria-label="y-axis tick label" text-anchor="end" font-variant="tabular-nums" transform="translate(-9,0)"><text y="0.32em" transform="translate(40,64.55887389648785)">0.0</text></g><g aria-label="x-axis tick" aria-hidden="true" fill="none" stroke="currentColor"><path transform="translate(40,70)" d="M0,0L0,6"></path><path transform="translate(106.54368281662381,70)" d="M0,0L0,6"></path><path transform="translate(173.08736563324763,70)" d="M0,0L0,6"></path><path transform="translate(239.6310484498714,70)" d="M0,0L0,6"></path></g><g aria-label="x-axis tick label" font-variant="tabular-nums" transform="translate(0,9)"><text y="0.71em" transform="translate(40,70)">0.0</text><text y="0.71em" transform="translate(106.54368281662381,70)">0.1</text><text y="0.71em" transform="translate(173.08736563324763,70)">0.2</text><text y="0.71em" transform="translate(239.6310484498714,70)">0.3</text></g><g aria-label="x-axis label" text-anchor="end" transform="translate(17,27)"><text transform="translate(280,70)">Custom X Label →</text></g><rect aria-label="frame" fill="hsla( 0 0% 100%)" stroke="hsla(220 6% 90%)" x="40" y="20" width="240" height="50" rx="4" ry="4"></rect><g aria-label="y-grid" aria-hidden="true" stroke="hsla(220 6% 90%)" stroke-dasharray="1.5,1.5"><line x1="40" x2="280" y1="64.55887389648785" y2="64.55887389648785"></line></g><g aria-label="dot" fill="black"><circle cx="40" cy="24.007214579854843" r="1"></circle><circle cx="40" cy="24.044780799223282" r="1"></circle><circle cx="40" cy="24.382534067680346" r="1"></circle><circle cx="40" cy="24.993055415019754" r="1"></circle><circle cx="40" cy="24.414583896504162" r="1"></circle><circle cx="40" cy="24.325362225324255" r="1"></circle><circle cx="40" cy="23.94275807323747" r="1"></circle><circle cx="40" cy="23.471037024445863" r="1"></circle><circle cx="40" cy="24.64816641791885" r="1"></circle><circle cx="40" cy="24.736461378590068" r="1"></circle><circle cx="40" cy="24.164311542039112" r="1"></circle><circle cx="40" cy="24.391789050100627" r="1"></circle><circle cx="40" cy="24.16720529951104" r="1"></circle><circle cx="40" cy="24.171398491381872" r="1"></circle><circle cx="40" cy="23.241028669215446" r="1"></circle><circle cx="40" cy="24.525872284402194" r="1"></circle><circle cx="40" cy="25.236747951692212" r="1"></circle><circle cx="40" cy="23.945529641927628" r="1"></circle><circle cx="40" cy="23.558704204171345" r="1"></circle><circle cx="40" cy="23.996353825176485" r="1"></circle><circle cx="40" cy="23.59273426095298" r="1"></circle><circle cx="40" cy="24.297358673198243" r="1"></circle><circle cx="40" cy="23.63032097340055" r="1"></circle><circle cx="40" cy="23.997037986142765" r="1"></circle><circle cx="40" cy="24.153360252208266" r="1"></circle><circle cx="40" cy="24.408225942751542" r="1"></circle><circle cx="40" cy="32.60650553894352" r="1"></circle><circle cx="40" cy="25.16639607688344" r="1"></circle><circle cx="40" cy="24.12342659838845" r="1"></circle><circle cx="40" cy="24.074262450762184" r="1"></circle><circle cx="40" cy="25.93064774872856" r="1"></circle><circle cx="40" cy="24.97103478367678" r="1"></circle><circle cx="40" cy="34.52892088488623" r="1"></circle><circle cx="40" cy="33.82023518692747" r="1"></circle><circle cx="40" cy="34.57183887668462" r="1"></circle><circle cx="40" cy="34.349724301603224" r="1"></circle><circle cx="40" cy="34.25778513267441" r="1"></circle><circle cx="40" cy="34.55607402233346" r="1"></circle><circle cx="40" cy="34.004264673270285" r="1"></circle><circle cx="40" cy="34.28054774817881" r="1"></circle><circle cx="40" cy="34.64067349394336" r="1"></circle><circle cx="40" cy="35.30012731128187" r="1"></circle><circle cx="40" cy="34.40446208569943" r="1"></circle><circle cx="40" cy="34.323981626786534" r="1"></circle><circle cx="40" cy="33.75201237948235" r="1"></circle><circle cx="40" cy="35.47390544746896" r="1"></circle><circle cx="40" cy="33.388151601672774" r="1"></circle><circle cx="40" cy="34.775032278379584" r="1"></circle><circle cx="40" cy="34.86398917512842" r="1"></circle><circle cx="40" cy="34.352840211750035" r="1"></circle><circle cx="40" cy="35.35662076537002" r="1"></circle><circle cx="40" cy="34.915250928912315" r="1"></circle><circle cx="40" cy="33.806173086166694" r="1"></circle><circle cx="40" cy="35.16307498579488" r="1"></circle><circle cx="40" cy="34.8091558528745" r="1"></circle><circle cx="40" cy="34.15289885967137" r="1"></circle><circle cx="40" cy="34.236437694170846" r="1"></circle><circle cx="40" cy="35.0597570587223" r="1"></circle><circle cx="40" cy="46.93675294873233" r="1"></circle><circle cx="40" cy="33.92582043748922" r="1"></circle><circle cx="40" cy="34.049066392752394" r="1"></circle><circle cx="40" cy="34.52720831770864" r="1"></circle><circle cx="40" cy="43.81767580338638" r="1"></circle><circle cx="40" cy="34.51826813977179" r="1"></circle><circle cx="40" cy="42.347803640195465" r="1"></circle><circle cx="40" cy="42.67918856404289" r="1"></circle><circle cx="40" cy="41.533389336332554" r="1"></circle><circle cx="40" cy="41.721439891923694" r="1"></circle><circle cx="40" cy="41.726957533219625" r="1"></circle><circle cx="40" cy="42.38692964265845" r="1"></circle><circle cx="40" cy="41.66953717619951" r="1"></circle><circle cx="40" cy="41.99809001423572" r="1"></circle><circle cx="40" cy="41.02069338600764" r="1"></circle><circle cx="40" cy="42.0289341187972" r="1"></circle><circle cx="40" cy="41.73237761591341" r="1"></circle><circle cx="40" cy="41.03655223913031" r="1"></circle><circle cx="40" cy="41.964574785935405" r="1"></circle><circle cx="40" cy="42.41489586466846" r="1"></circle><circle cx="40" cy="42.31462582611379" r="1"></circle><circle cx="40" cy="41.188814662656895" r="1"></circle><circle cx="40" cy="41.539627025536184" r="1"></circle><circle cx="40" cy="42.05387535065944" r="1"></circle><circle cx="40" cy="41.98814471330426" r="1"></circle><circle cx="40" cy="42.70138593616704" r="1"></circle><circle cx="40" cy="41.3635191245061" r="1"></circle><circle cx="40" cy="42.97337450834866" r="1"></circle><circle cx="40" cy="42.35354314553137" r="1"></circle><circle cx="40" cy="41.70660424958382" r="1"></circle><circle cx="40" cy="41.13099175613841" r="1"></circle><circle cx="40" cy="42.10824464417754" r="1"></circle><circle cx="40" cy="52.60904560318745" r="1"></circle><circle cx="40" cy="41.43343766209196" r="1"></circle><circle cx="40" cy="40.64580252103474" r="1"></circle><circle cx="40" cy="42.041612888609706" r="1"></circle><circle cx="40" cy="39.924403513285" r="1"></circle><circle cx="40" cy="44.7401808051072" r="1"></circle><circle cx="40" cy="39.86273666314594" r="1"></circle><circle cx="40" cy="39.90369318825617" r="1"></circle><circle cx="40" cy="39.498108405090555" r="1"></circle><circle cx="40" cy="39.881624932151794" r="1"></circle><circle cx="40" cy="41.26264122081502" r="1"></circle><circle cx="40" cy="41.56190492680235" r="1"></circle><circle cx="40" cy="40.874161135287956" r="1"></circle><circle cx="40" cy="41.257504577610284" r="1"></circle><circle cx="40" cy="41.25644855865853" r="1"></circle><circle cx="40" cy="41.523145683107956" r="1"></circle><circle cx="40" cy="40.878974988443204" r="1"></circle><circle cx="40" cy="41.177494208766475" r="1"></circle><circle cx="40" cy="39.52812595545976" r="1"></circle><circle cx="40" cy="39.50256454337129" r="1"></circle><circle cx="40" cy="41.17145442690467" r="1"></circle><circle cx="40" cy="38.227284268908434" r="1"></circle><circle cx="40" cy="39.61987674199905" r="1"></circle><circle cx="40" cy="40.86496176319513" r="1"></circle><circle cx="40" cy="39.8073708094691" r="1"></circle><circle cx="40" cy="39.826738020014844" r="1"></circle><circle cx="40" cy="40.90895107159591" r="1"></circle><circle cx="40" cy="40.23465968768475" r="1"></circle><circle cx="40" cy="40.469369039817636" r="1"></circle><circle cx="40" cy="38.47917038119761" r="1"></circle><circle cx="40" cy="41.25334342421531" r="1"></circle><circle cx="40" cy="39.481020255853956" r="1"></circle><circle cx="40" cy="42.341378242083785" r="1"></circle><circle cx="40" cy="39.52635065829341" r="1"></circle><circle cx="40" cy="40.124785322247895" r="1"></circle><circle cx="40" cy="40.2065433755176" r="1"></circle><circle cx="40" cy="43.60529140001121" r="1"></circle><circle cx="40" cy="40.55234205366704" r="1"></circle><circle cx="40" cy="44.081435875126246" r="1"></circle><circle cx="40" cy="43.69940860802804" r="1"></circle><circle cx="40" cy="43.31714138910168" r="1"></circle><circle cx="40" cy="42.96495060206771" r="1"></circle><circle cx="40" cy="43.67496479034042" r="1"></circle><circle cx="40" cy="44.04396105681504" r="1"></circle><circle cx="40" cy="44.044947418540026" r="1"></circle><circle cx="40" cy="43.333794661729144" r="1"></circle><circle cx="40" cy="42.91768673052709" r="1"></circle><circle cx="40" cy="44.06278996323952" r="1"></circle><circle cx="40" cy="44.04865310603508" r="1"></circle><circle cx="40" cy="42.95761359867469" r="1"></circle><circle cx="40" cy="44.09419238394322" r="1"></circle><circle cx="40" cy="43.716235254029314" r="1"></circle><circle cx="40" cy="42.17926076414328" r="1"></circle><circle cx="40" cy="42.63293568440688" r="1"></circle><circle cx="40" cy="42.27046093147148" r="1"></circle><circle cx="40" cy="42.59731746209714" r="1"></circle><circle cx="40" cy="44.044908164191234" r="1"></circle><circle cx="40" cy="43.356284517236446" r="1"></circle><circle cx="40" cy="44.06890353942859" r="1"></circle><circle cx="40" cy="43.70741370504359" r="1"></circle><circle cx="40" cy="43.33422164898387" r="1"></circle><circle cx="40" cy="44.08808400318266" r="1"></circle><circle cx="40" cy="42.563545348720176" r="1"></circle><circle cx="40" cy="42.999838289401076" r="1"></circle><circle cx="40" cy="47.78537251077182" r="1"></circle><circle cx="40" cy="43.70911616999907" r="1"></circle><circle cx="40" cy="43.685761852913636" r="1"></circle><circle cx="40" cy="44.27420205178902" r="1"></circle><circle cx="40" cy="43.72314546259088" r="1"></circle><circle cx="40" cy="42.93541757351349" r="1"></circle><circle cx="40" cy="42.694800538099386" r="1"></circle><circle cx="40" cy="40.194854912107274" r="1"></circle><circle cx="40" cy="42.23191518140446" r="1"></circle><circle cx="40" cy="42.25702391773052" r="1"></circle><circle cx="40" cy="41.81555719615215" r="1"></circle><circle cx="40" cy="42.59526420950517" r="1"></circle><circle cx="40" cy="42.99226248871959" r="1"></circle><circle cx="40" cy="41.854786241280706" r="1"></circle><circle cx="40" cy="42.25168090055973" r="1"></circle><circle cx="40" cy="42.259814247690315" r="1"></circle><circle cx="40" cy="42.62343622821142" r="1"></circle><circle cx="40" cy="43.03451796717053" r="1"></circle><circle cx="40" cy="41.87758176116572" r="1"></circle><circle cx="40" cy="42.80274759197998" r="1"></circle><circle cx="40" cy="42.23576499393503" r="1"></circle><circle cx="40" cy="42.0244019733215" r="1"></circle><circle cx="40" cy="42.696899010161765" r="1"></circle><circle cx="40" cy="41.83060969952676" r="1"></circle><circle cx="40" cy="41.442479150884864" r="1"></circle><circle cx="40" cy="42.408758043146314" r="1"></circle><circle cx="40" cy="42.23456792872022" r="1"></circle><circle cx="40" cy="43.073548816322344" r="1"></circle><circle cx="40" cy="42.23324511489298" r="1"></circle><circle cx="40" cy="42.66054380669583" r="1"></circle><circle cx="40" cy="40.973661480729106" r="1"></circle><circle cx="40" cy="42.80535848723269" r="1"></circle><circle cx="40" cy="43.8206591338944" r="1"></circle><circle cx="40" cy="41.015054325623055" r="1"></circle><circle cx="40" cy="42.227878718293866" r="1"></circle><circle cx="40" cy="42.05589752689194" r="1"></circle><circle cx="40" cy="42.212860947321005" r="1"></circle><circle cx="40" cy="42.634724162567785" r="1"></circle><circle cx="40" cy="46.74988483418683" r="1"></circle><circle cx="40" cy="46.317218976091766" r="1"></circle><circle cx="40" cy="46.31027153362583" r="1"></circle><circle cx="40" cy="47.17550963589103" r="1"></circle><circle cx="40" cy="47.17446054417731" r="1"></circle><circle cx="40" cy="47.18910049204307" r="1"></circle><circle cx="40" cy="46.76833062586404" r="1"></circle><circle cx="40" cy="46.73955786168269" r="1"></circle><circle cx="40" cy="46.73350018445599" r="1"></circle><circle cx="40" cy="47.1945606949904" r="1"></circle><circle cx="40" cy="46.72743711937749" r="1"></circle><circle cx="40" cy="47.18240704830459" r="1"></circle><circle cx="40" cy="46.73097212742462" r="1"></circle><circle cx="40" cy="46.79358069708808" r="1"></circle><circle cx="40" cy="46.32411225140483" r="1"></circle><circle cx="40" cy="46.724753488125565" r="1"></circle><circle cx="40" cy="46.833301479904534" r="1"></circle><circle cx="40" cy="46.30915884601859" r="1"></circle><circle cx="40" cy="46.70600135858916" r="1"></circle><circle cx="40" cy="46.31790053934378" r="1"></circle><circle cx="40" cy="46.74347117389513" r="1"></circle><circle cx="40" cy="45.95998034919603" r="1"></circle><circle cx="40" cy="45.89147092727775" r="1"></circle><circle cx="40" cy="47.182996921864465" r="1"></circle><circle cx="40" cy="46.74652897221186" r="1"></circle><circle cx="40" cy="45.87720533890009" r="1"></circle><circle cx="40" cy="47.067410086562326" r="1"></circle><circle cx="40" cy="46.29998920332227" r="1"></circle><circle cx="40" cy="46.32341404353923" r="1"></circle><circle cx="40" cy="46.2991656316908" r="1"></circle><circle cx="40" cy="46.74022768711474" r="1"></circle><circle cx="40" cy="46.372973043732735" r="1"></circle><circle cx="40" cy="47.90940547724357" r="1"></circle><circle cx="40" cy="47.458639131044336" r="1"></circle><circle cx="40" cy="47.44839720962925" r="1"></circle><circle cx="40" cy="47.476921170511645" r="1"></circle><circle cx="40" cy="47.8927602863938" r="1"></circle><circle cx="40" cy="47.459708138567386" r="1"></circle><circle cx="40" cy="47.90446703001557" r="1"></circle><circle cx="40" cy="47.44928418473095" r="1"></circle><circle cx="40" cy="47.429093691188655" r="1"></circle><circle cx="40" cy="47.43967283439911" r="1"></circle><circle cx="40" cy="47.90851715517893" r="1"></circle><circle cx="40" cy="47.91251484499893" r="1"></circle><circle cx="40" cy="46.999528060743216" r="1"></circle><circle cx="40" cy="47.52726006225243" r="1"></circle><circle cx="40" cy="47.48067948577334" r="1"></circle><circle cx="40" cy="47.93810685238864" r="1"></circle><circle cx="40" cy="47.97736649281846" r="1"></circle><circle cx="40" cy="47.91991275035955" r="1"></circle><circle cx="40" cy="47.43617958220338" r="1"></circle><circle cx="40" cy="47.07086851014466" r="1"></circle><circle cx="40" cy="45.57946697224048" r="1"></circle><circle cx="40" cy="47.76957003766972" r="1"></circle><circle cx="40" cy="47.445194324160596" r="1"></circle><circle cx="40" cy="47.92739522575102" r="1"></circle><circle cx="40" cy="46.95684838517509" r="1"></circle><circle cx="40" cy="47.482771896502456" r="1"></circle><circle cx="40" cy="48.54336792456695" r="1"></circle><circle cx="40" cy="47.004520675124084" r="1"></circle><circle cx="40" cy="47.498333648083296" r="1"></circle><circle cx="40" cy="47.494786324946354" r="1"></circle><circle cx="40" cy="50.15102881713122" r="1"></circle><circle cx="40" cy="47.39744900957747" r="1"></circle><circle cx="40" cy="46.357450835135595" r="1"></circle><circle cx="40" cy="47.290756266837" r="1"></circle><circle cx="40" cy="45.85852094235767" r="1"></circle><circle cx="40" cy="46.944238214261325" r="1"></circle><circle cx="40" cy="46.94427256181652" r="1"></circle><circle cx="40" cy="47.43665015333066" r="1"></circle><circle cx="40" cy="46.92052185277763" r="1"></circle><circle cx="40" cy="46.429164297062194" r="1"></circle><circle cx="40" cy="46.41198763311753" r="1"></circle><circle cx="40" cy="44.964410785499474" r="1"></circle><circle cx="40" cy="47.26121823527753" r="1"></circle><circle cx="40" cy="46.39591961589127" r="1"></circle><circle cx="40" cy="46.764822653287524" r="1"></circle><circle cx="40" cy="46.984167776334836" r="1"></circle><circle cx="40" cy="46.45694377228054" r="1"></circle><circle cx="40" cy="46.033706943461034" r="1"></circle><circle cx="40" cy="46.93447186697876" r="1"></circle><circle cx="40" cy="47.39505112689393" r="1"></circle><circle cx="40" cy="45.94606930070877" r="1"></circle><circle cx="40" cy="46.00282233379946" r="1"></circle><circle cx="40" cy="47.40050584577783" r="1"></circle><circle cx="40" cy="47.31225273716966" r="1"></circle><circle cx="40" cy="46.857592898355676" r="1"></circle><circle cx="40" cy="47.304749672487404" r="1"></circle><circle cx="40" cy="46.95381685263585" r="1"></circle><circle cx="40" cy="45.97614053717263" r="1"></circle><circle cx="40" cy="57.015075707697754" r="1"></circle><circle cx="40" cy="46.809411937470294" r="1"></circle><circle cx="40" cy="47.41818839052134" r="1"></circle><circle cx="40" cy="47.41718855916688" r="1"></circle><circle cx="40" cy="47.38895236729729" r="1"></circle><circle cx="40" cy="47.93586935450762" r="1"></circle><circle cx="40" cy="50.23250343091186" r="1"></circle><circle cx="40" cy="50.21846923152645" r="1"></circle><circle cx="40" cy="50.3331285866268" r="1"></circle><circle cx="40" cy="49.318159581485375" r="1"></circle><circle cx="40" cy="49.80984762418144" r="1"></circle><circle cx="40" cy="49.83351395561276" r="1"></circle><circle cx="40" cy="49.863157338917134" r="1"></circle><circle cx="40" cy="49.82025281674824" r="1"></circle><circle cx="40" cy="49.76063431240755" r="1"></circle><circle cx="40" cy="50.346196532519826" r="1"></circle><circle cx="40" cy="48.81101485031846" r="1"></circle><circle cx="40" cy="50.27916405547476" r="1"></circle><circle cx="40" cy="49.17338040304338" r="1"></circle><circle cx="40" cy="50.28391854604864" r="1"></circle><circle cx="40" cy="49.800760338648274" r="1"></circle><circle cx="40" cy="48.691616109871596" r="1"></circle><circle cx="40" cy="49.759787265136104" r="1"></circle><circle cx="40" cy="49.831348231614584" r="1"></circle><circle cx="40" cy="49.30271953762811" r="1"></circle><circle cx="40" cy="49.75017658828575" r="1"></circle><circle cx="40" cy="50.32391199265056" r="1"></circle><circle cx="40" cy="49.573246270163864" r="1"></circle><circle cx="40" cy="49.28673743739564" r="1"></circle><circle cx="40" cy="49.71879793185692" r="1"></circle><circle cx="40" cy="50.34567458437721" r="1"></circle><circle cx="40" cy="49.83378017321839" r="1"></circle><circle cx="40" cy="53.78267164224262" r="1"></circle><circle cx="40" cy="49.17540123231293" r="1"></circle><circle cx="40" cy="50.36169574653519" r="1"></circle><circle cx="40" cy="49.7447747858034" r="1"></circle><circle cx="40" cy="50.16741365928534" r="1"></circle><circle cx="40" cy="50.75265405146452" r="1"></circle><circle cx="40" cy="50.35297791369652" r="1"></circle><circle cx="40" cy="50.320725366948935" r="1"></circle><circle cx="40" cy="50.495387976735095" r="1"></circle><circle cx="40" cy="49.98259110040067" r="1"></circle><circle cx="40" cy="49.94669232495106" r="1"></circle><circle cx="40" cy="48.33542849892238" r="1"></circle><circle cx="40" cy="49.95309203455508" r="1"></circle><circle cx="40" cy="45.158669685744286" r="1"></circle><circle cx="40" cy="50.47370043008701" r="1"></circle><circle cx="40" cy="49.978443705270095" r="1"></circle><circle cx="40" cy="49.99245231235949" r="1"></circle><circle cx="40" cy="49.94289966213416" r="1"></circle><circle cx="40" cy="50.34955643538363" r="1"></circle><circle cx="40" cy="49.950813454304125" r="1"></circle><circle cx="40" cy="49.93273153504633" r="1"></circle><circle cx="40" cy="48.90788496196743" r="1"></circle><circle cx="40" cy="49.922847136082474" r="1"></circle><circle cx="40" cy="50.1115983048302" r="1"></circle><circle cx="40" cy="49.983706193298886" r="1"></circle><circle cx="40" cy="49.426044386435414" r="1"></circle><circle cx="40" cy="50.4866605227325" r="1"></circle><circle cx="40" cy="47.663055671308314" r="1"></circle><circle cx="40" cy="49.92273610785084" r="1"></circle><circle cx="40" cy="49.80819740214604" r="1"></circle><circle cx="40" cy="50.510624725398756" r="1"></circle><circle cx="40" cy="50.46539592245029" r="1"></circle><circle cx="40" cy="50.3425493417014" r="1"></circle><circle cx="40" cy="50.3329474201102" r="1"></circle><circle cx="40" cy="49.96020294059599" r="1"></circle><circle cx="40" cy="49.85145338543292" r="1"></circle><circle cx="40" cy="49.828617456659444" r="1"></circle><circle cx="40" cy="52.35355742333862" r="1"></circle><circle cx="40" cy="51.41833035656767" r="1"></circle><circle cx="40" cy="47.11310695913546" r="1"></circle><circle cx="40" cy="49.264259127285044" r="1"></circle><circle cx="40" cy="49.222884755025824" r="1"></circle><circle cx="40" cy="47.07803233258713" r="1"></circle><circle cx="40" cy="44.85922779580118" r="1"></circle><circle cx="40" cy="42.617225189631846" r="1"></circle><circle cx="40" cy="49.22654772455307" r="1"></circle><circle cx="40" cy="51.41263126012023" r="1"></circle><circle cx="40" cy="49.30937834517647" r="1"></circle><circle cx="40" cy="51.42056237038525" r="1"></circle><circle cx="40" cy="51.41835075343518" r="1"></circle><circle cx="40" cy="51.391237543818214" r="1"></circle><circle cx="40" cy="49.28341880932504" r="1"></circle><circle cx="40" cy="43.26587145732846" r="1"></circle><circle cx="40" cy="51.4528072202017" r="1"></circle><circle cx="40" cy="46.62368104450004" r="1"></circle><circle cx="40" cy="47.065178361379665" r="1"></circle><circle cx="40" cy="51.4171400261676" r="1"></circle><circle cx="40" cy="49.30309457059767" r="1"></circle><circle cx="40" cy="51.41212076116269" r="1"></circle><circle cx="40" cy="51.37503896739757" r="1"></circle><circle cx="40" cy="49.25641585824661" r="1"></circle><circle cx="40" cy="49.229767254635306" r="1"></circle><circle cx="40" cy="51.42065021161182" r="1"></circle><circle cx="40" cy="49.31912506528464" r="1"></circle><circle cx="40" cy="49.35003757632159" r="1"></circle><circle cx="40" cy="20" r="1"></circle><circle cx="40" cy="51.405286752219354" r="1"></circle><circle cx="40" cy="51.43870403707098" r="1"></circle><circle cx="40" cy="47.941571722150805" r="1"></circle><circle cx="40" cy="49.75056942040856" r="1"></circle><circle cx="40" cy="50.22760789407494" r="1"></circle><circle cx="40" cy="52.43345512835294" r="1"></circle><circle cx="40" cy="52.41069664994902" r="1"></circle><circle cx="40" cy="52.455160859000834" r="1"></circle><circle cx="40" cy="47.94745564115713" r="1"></circle><circle cx="40" cy="50.217540019515155" r="1"></circle><circle cx="40" cy="47.968340397887815" r="1"></circle><circle cx="40" cy="47.93397061780821" r="1"></circle><circle cx="40" cy="47.93967606422384" r="1"></circle><circle cx="40" cy="50.19311313507603" r="1"></circle><circle cx="40" cy="52.44043316612013" r="1"></circle><circle cx="40" cy="52.432373805740085" r="1"></circle><circle cx="40" cy="50.25967850461282" r="1"></circle><circle cx="40" cy="43.673106751164376" r="1"></circle><circle cx="40" cy="50.17021149375299" r="1"></circle><circle cx="40" cy="52.515588984285316" r="1"></circle><circle cx="40" cy="52.49760568195769" r="1"></circle><circle cx="40" cy="52.423582659632345" r="1"></circle><circle cx="40" cy="52.41273691396968" r="1"></circle><circle cx="40" cy="52.48914107815337" r="1"></circle><circle cx="40" cy="50.18543737050142" r="1"></circle><circle cx="40" cy="50.147495733316866" r="1"></circle><circle cx="40" cy="45.776062179719744" r="1"></circle><circle cx="40" cy="52.450256663116384" r="1"></circle><circle cx="40" cy="50.20458444881669" r="1"></circle><circle cx="40" cy="48.08060889375429" r="1"></circle><circle cx="40" cy="48.92774689276189" r="1"></circle><circle cx="40" cy="52.44082436264508" r="1"></circle><circle cx="40" cy="52.4519471978286" r="1"></circle><circle cx="40" cy="44.665377121541454" r="1"></circle><circle cx="40" cy="50.687196077894825" r="1"></circle><circle cx="40" cy="47.963494506256716" r="1"></circle><circle cx="40" cy="52.65117475575612" r="1"></circle><circle cx="40" cy="43.829456052700486" r="1"></circle><circle cx="40" cy="48.150202524634594" r="1"></circle><circle cx="40" cy="50.40776159074462" r="1"></circle><circle cx="40" cy="50.37055606881151" r="1"></circle><circle cx="40" cy="52.65468474877706" r="1"></circle><circle cx="40" cy="52.66064650299949" r="1"></circle><circle cx="40" cy="48.14965026982564" r="1"></circle><circle cx="40" cy="52.66988031885914" r="1"></circle><circle cx="40" cy="50.37321834107955" r="1"></circle><circle cx="40" cy="52.67483329404467" r="1"></circle><circle cx="40" cy="48.804321214156715" r="1"></circle><circle cx="40" cy="50.40310042546076" r="1"></circle><circle cx="40" cy="52.717686439198246" r="1"></circle><circle cx="40" cy="52.69841014865155" r="1"></circle><circle cx="40" cy="52.71082048799071" r="1"></circle><circle cx="40" cy="50.490437021994" r="1"></circle><circle cx="40" cy="52.663901535176585" r="1"></circle><circle cx="40" cy="52.64838500306617" r="1"></circle><circle cx="40" cy="50.4346578431152" r="1"></circle><circle cx="40" cy="52.690036368634615" r="1"></circle><circle cx="40" cy="52.625079753916715" r="1"></circle><circle cx="40" cy="52.66275296062793" r="1"></circle><circle cx="40" cy="52.64585819678611" r="1"></circle><circle cx="40" cy="50.41295124656255" r="1"></circle><circle cx="40" cy="50.48812409418786" r="1"></circle><circle cx="40" cy="50.59296784164638" r="1"></circle><circle cx="40" cy="50.38213100248759" r="1"></circle><circle cx="40" cy="52.65690098388582" r="1"></circle><circle cx="40" cy="52.672799572415464" r="1"></circle><circle cx="40" cy="54.996090334208695" r="1"></circle><circle cx="40" cy="50.42909584825361" r="1"></circle><circle cx="40" cy="44.001873660097786" r="1"></circle><circle cx="40" cy="50.96343393333291" r="1"></circle><circle cx="40" cy="48.420543087648525" r="1"></circle><circle cx="40" cy="50.72452888782657" r="1"></circle><circle cx="40" cy="50.724073806773205" r="1"></circle><circle cx="40" cy="44.236008051474876" r="1"></circle><circle cx="40" cy="53.06246633230031" r="1"></circle><circle cx="40" cy="53.04438874256627" r="1"></circle><circle cx="40" cy="50.69811783075242" r="1"></circle><circle cx="40" cy="53.08290553292991" r="1"></circle><circle cx="40" cy="53.063506668754876" r="1"></circle><circle cx="40" cy="50.752836468732426" r="1"></circle><circle cx="40" cy="48.65665376230621" r="1"></circle><circle cx="40" cy="48.41221269908086" r="1"></circle><circle cx="40" cy="48.4695793700063" r="1"></circle><circle cx="40" cy="41.9505123965397" r="1"></circle><circle cx="40" cy="50.73626969036861" r="1"></circle><circle cx="40" cy="48.41505575301893" r="1"></circle><circle cx="40" cy="53.040431365423096" r="1"></circle><circle cx="40" cy="53.03016491004001" r="1"></circle><circle cx="40" cy="53.03812344062221" r="1"></circle><circle cx="40" cy="52.88224961700697" r="1"></circle><circle cx="40" cy="50.737829473463165" r="1"></circle><circle cx="40" cy="48.695606487607016" r="1"></circle><circle cx="40" cy="43.76447500022624" r="1"></circle><circle cx="40" cy="50.71132961304605" r="1"></circle><circle cx="40" cy="52.98956032710595" r="1"></circle><circle cx="40" cy="53.28363014396322" r="1"></circle><circle cx="40" cy="50.661229903440294" r="1"></circle><circle cx="40" cy="41.90411010022803" r="1"></circle><circle cx="40" cy="52.914188994868994" r="1"></circle><circle cx="40" cy="53.73619478191057" r="1"></circle><circle cx="40" cy="50.994768428619345" r="1"></circle><circle cx="40" cy="48.62096992365854" r="1"></circle><circle cx="40" cy="53.48324245223587" r="1"></circle><circle cx="40" cy="51.11575350657318" r="1"></circle><circle cx="40" cy="51.13410173964826" r="1"></circle><circle cx="40" cy="53.480324353219224" r="1"></circle><circle cx="40" cy="53.4670170327679" r="1"></circle><circle cx="40" cy="44.207354012456285" r="1"></circle><circle cx="40" cy="41.73381193903046" r="1"></circle><circle cx="40" cy="41.934956513868855" r="1"></circle><circle cx="40" cy="51.10929347227138" r="1"></circle><circle cx="40" cy="50.9527235574466" r="1"></circle><circle cx="40" cy="50.97146317946991" r="1"></circle><circle cx="40" cy="48.66191528821862" r="1"></circle><circle cx="40" cy="51.03865844660848" r="1"></circle><circle cx="40" cy="48.616665992191" r="1"></circle><circle cx="40" cy="53.40550017657433" r="1"></circle><circle cx="40" cy="53.475371762880265" r="1"></circle><circle cx="40" cy="51.107286497477865" r="1"></circle><circle cx="40" cy="53.4332438610629" r="1"></circle><circle cx="40" cy="53.48464213916281" r="1"></circle><circle cx="40" cy="53.2742709643377" r="1"></circle><circle cx="40" cy="53.47883057130916" r="1"></circle><circle cx="40" cy="50.931288373928105" r="1"></circle><circle cx="40" cy="51.10055091304144" r="1"></circle><circle cx="40" cy="51.01891043039482" r="1"></circle><circle cx="40" cy="50.9909731680882" r="1"></circle><circle cx="40" cy="48.60504891781696" r="1"></circle><circle cx="40" cy="51.08483021983265" r="1"></circle><circle cx="40" cy="48.48692892626658" r="1"></circle><circle cx="40" cy="53.47703574318006" r="1"></circle><circle cx="40" cy="45.231026899748706" r="1"></circle><circle cx="40" cy="51.64831485131156" r="1"></circle><circle cx="40" cy="49.16267656954853" r="1"></circle><circle cx="40" cy="54.0801266656248" r="1"></circle><circle cx="40" cy="51.62650184468596" r="1"></circle><circle cx="40" cy="54.08688485979644" r="1"></circle><circle cx="40" cy="54.07153419655199" r="1"></circle><circle cx="40" cy="52.38022911774333" r="1"></circle><circle cx="40" cy="51.51299933833524" r="1"></circle><circle cx="40" cy="54.0752122713066" r="1"></circle><circle cx="40" cy="51.538199860565086" r="1"></circle><circle cx="40" cy="51.61617323658397" r="1"></circle><circle cx="40" cy="54.092778015120125" r="1"></circle><circle cx="40" cy="36.950129887925776" r="1"></circle><circle cx="40" cy="54.28504629655011" r="1"></circle><circle cx="40" cy="51.59007515597211" r="1"></circle><circle cx="40" cy="54.262485436853076" r="1"></circle><circle cx="40" cy="51.72868803424675" r="1"></circle><circle cx="40" cy="54.09639201292304" r="1"></circle><circle cx="40" cy="51.52899943014423" r="1"></circle><circle cx="40" cy="49.24931149459715" r="1"></circle><circle cx="40" cy="54.08873712627414" r="1"></circle><circle cx="40" cy="44.00727209517276" r="1"></circle><circle cx="40" cy="54.07720741206848" r="1"></circle><circle cx="40" cy="54.131595082009675" r="1"></circle><circle cx="40" cy="51.62210006598136" r="1"></circle><circle cx="40" cy="54.23351611229286" r="1"></circle><circle cx="40" cy="54.27767725468124" r="1"></circle><circle cx="40" cy="54.13143633280501" r="1"></circle><circle cx="40" cy="54.09676964360686" r="1"></circle><circle cx="40" cy="52.40070891968466" r="1"></circle><circle cx="40" cy="51.6160994422567" r="1"></circle><circle cx="40" cy="55.85554092153005" r="1"></circle><circle cx="40" cy="48.30069850246564" r="1"></circle><circle cx="40" cy="50.819886841142385" r="1"></circle><circle cx="40" cy="51.65966032022817" r="1"></circle><circle cx="40" cy="49.06184638683048" r="1"></circle><circle cx="40" cy="54.28254479393115" r="1"></circle><circle cx="40" cy="54.28538919483218" r="1"></circle><circle cx="40" cy="54.287858466551995" r="1"></circle><circle cx="40" cy="51.66633076938487" r="1"></circle><circle cx="40" cy="54.277015799661804" r="1"></circle><circle cx="40" cy="51.67509949818068" r="1"></circle><circle cx="40" cy="54.27185250583301" r="1"></circle><circle cx="40" cy="49.0464843706126" r="1"></circle><circle cx="40" cy="53.45914749795196" r="1"></circle><circle cx="40" cy="48.250070398537446" r="1"></circle><circle cx="40" cy="51.66015234655099" r="1"></circle><circle cx="40" cy="53.423683502899834" r="1"></circle><circle cx="40" cy="50.70838342023076" r="1"></circle><circle cx="40" cy="54.26833674011372" r="1"></circle><circle cx="40" cy="54.27138520590146" r="1"></circle><circle cx="40" cy="53.43320537640722" r="1"></circle><circle cx="40" cy="51.64478013189934" r="1"></circle><circle cx="40" cy="53.29523942519449" r="1"></circle><circle cx="40" cy="54.279592443570955" r="1"></circle><circle cx="40" cy="53.441313900934915" r="1"></circle><circle cx="40" cy="54.290008892899536" r="1"></circle><circle cx="40" cy="53.44318733397322" r="1"></circle><circle cx="40" cy="50.73614528871913" r="1"></circle><circle cx="40" cy="48.227295467943236" r="1"></circle><circle cx="40" cy="51.71049980112765" r="1"></circle><circle cx="40" cy="50.61910103950654" r="1"></circle><circle cx="40" cy="53.333315662462276" r="1"></circle><circle cx="40" cy="51.15449129507203" r="1"></circle><circle cx="40" cy="46.748257029463375" r="1"></circle><circle cx="40" cy="52.18194751265233" r="1"></circle><circle cx="40" cy="52.13084046718424" r="1"></circle><circle cx="40" cy="52.14476594741738" r="1"></circle><circle cx="40" cy="54.858379921109645" r="1"></circle><circle cx="40" cy="54.87005260581114" r="1"></circle><circle cx="40" cy="54.877802260924646" r="1"></circle><circle cx="40" cy="54.87573804020582" r="1"></circle><circle cx="40" cy="54.86428837408397" r="1"></circle><circle cx="40" cy="54.85422425177809" r="1"></circle><circle cx="40" cy="49.47578089710323" r="1"></circle><circle cx="40" cy="54.86364077354059" r="1"></circle><circle cx="40" cy="52.15241929468006" r="1"></circle><circle cx="40" cy="54.888707080533756" r="1"></circle><circle cx="40" cy="52.145489555155734" r="1"></circle><circle cx="40" cy="54.87984521887121" r="1"></circle><circle cx="40" cy="54.92803022064545" r="1"></circle><circle cx="40" cy="52.1664292487324" r="1"></circle><circle cx="40" cy="54.84970817364615" r="1"></circle><circle cx="40" cy="54.86900168607626" r="1"></circle><circle cx="40" cy="54.857496120992046" r="1"></circle><circle cx="40" cy="54.8675287820919" r="1"></circle><circle cx="40" cy="54.861408182453175" r="1"></circle><circle cx="40" cy="52.154047388038435" r="1"></circle><circle cx="40" cy="52.174504195398" r="1"></circle><circle cx="40" cy="51.72821178663276" r="1"></circle><circle cx="40" cy="69.61740999102416" r="1"></circle><circle cx="40" cy="54.86954826439851" r="1"></circle><circle cx="40" cy="54.8725624788427" r="1"></circle><circle cx="40" cy="54.870333928644136" r="1"></circle><circle cx="40" cy="52.19064138879285" r="1"></circle><circle cx="40" cy="44.71567464227739" r="1"></circle><circle cx="40" cy="51.86635601801292" r="1"></circle><circle cx="40" cy="51.9010762970941" r="1"></circle><circle cx="40" cy="51.86312898342284" r="1"></circle><circle cx="40" cy="51.86795774938216" r="1"></circle><circle cx="40" cy="54.601401615393044" r="1"></circle><circle cx="40" cy="44.15056153259353" r="1"></circle><circle cx="40" cy="54.59962728034309" r="1"></circle><circle cx="40" cy="54.59168828072366" r="1"></circle><circle cx="40" cy="54.604945667334256" r="1"></circle><circle cx="40" cy="54.617078243671074" r="1"></circle><circle cx="40" cy="49.95862911060212" r="1"></circle><circle cx="40" cy="54.59916690764957" r="1"></circle><circle cx="40" cy="51.890351874308465" r="1"></circle><circle cx="40" cy="55.27528159833503" r="1"></circle><circle cx="40" cy="54.60195329293215" r="1"></circle><circle cx="40" cy="55.25914969658034" r="1"></circle><circle cx="40" cy="54.67553739775953" r="1"></circle><circle cx="40" cy="54.602431368567295" r="1"></circle><circle cx="40" cy="51.8711687166285" r="1"></circle><circle cx="40" cy="55.24823583307714" r="1"></circle><circle cx="40" cy="54.58478913650059" r="1"></circle><circle cx="40" cy="54.588166742306015" r="1"></circle><circle cx="40" cy="54.594920703165535" r="1"></circle><circle cx="40" cy="51.8688274063888" r="1"></circle><circle cx="40" cy="44.046741573187646" r="1"></circle><circle cx="40" cy="44.836994151889044" r="1"></circle><circle cx="40" cy="49.136071068751576" r="1"></circle><circle cx="40" cy="54.6135284190315" r="1"></circle><circle cx="40" cy="54.597292801129775" r="1"></circle><circle cx="40" cy="54.634415003783346" r="1"></circle><circle cx="40" cy="54.62115877171241" r="1"></circle><circle cx="40" cy="55.36208739525485" r="1"></circle><circle cx="40" cy="50.98699837663833" r="1"></circle><circle cx="40" cy="37.46560423796723" r="1"></circle><circle cx="40" cy="53.71238018834325" r="1"></circle><circle cx="40" cy="53.695293867127795" r="1"></circle><circle cx="40" cy="53.71096529997732" r="1"></circle><circle cx="40" cy="48.19679945709235" r="1"></circle><circle cx="40" cy="45.43636370434154" r="1"></circle><circle cx="40" cy="53.711056219976356" r="1"></circle><circle cx="40" cy="53.69498271868666" r="1"></circle><circle cx="40" cy="53.702494057569886" r="1"></circle><circle cx="40" cy="53.70653725549521" r="1"></circle><circle cx="40" cy="50.962780367667904" r="1"></circle><circle cx="40" cy="53.70806952206097" r="1"></circle><circle cx="40" cy="53.70593824182962" r="1"></circle><circle cx="40" cy="53.70630961875689" r="1"></circle><circle cx="40" cy="53.7114670436757" r="1"></circle><circle cx="40" cy="42.77061001814123" r="1"></circle><circle cx="40" cy="50.954067152987896" r="1"></circle><circle cx="40" cy="53.703945891205265" r="1"></circle><circle cx="40" cy="53.72576332356627" r="1"></circle><circle cx="40" cy="50.945098015347654" r="1"></circle><circle cx="40" cy="50.93094701503226" r="1"></circle><circle cx="40" cy="42.926200402267405" r="1"></circle><circle cx="40" cy="53.71429556965625" r="1"></circle><circle cx="40" cy="53.704790821820644" r="1"></circle><circle cx="40" cy="53.711926454252826" r="1"></circle><circle cx="40" cy="53.7723270630085" r="1"></circle><circle cx="40" cy="53.71202218483382" r="1"></circle><circle cx="40" cy="48.26677475954532" r="1"></circle><circle cx="40" cy="48.19268054060697" r="1"></circle><circle cx="40" cy="53.694712267768885" r="1"></circle><circle cx="40" cy="54.52559684972152" r="1"></circle><circle cx="40" cy="55.21071723847011" r="1"></circle><circle cx="40" cy="52.425247698260165" r="1"></circle><circle cx="40" cy="55.21005790010674" r="1"></circle><circle cx="40" cy="44.23773062466294" r="1"></circle><circle cx="40" cy="55.22431175066443" r="1"></circle><circle cx="40" cy="52.489397289748524" r="1"></circle><circle cx="40" cy="55.22365837742268" r="1"></circle><circle cx="40" cy="55.22851591066213" r="1"></circle><circle cx="40" cy="55.230298808547964" r="1"></circle><circle cx="40" cy="55.20664575432285" r="1"></circle><circle cx="40" cy="55.214929576457145" r="1"></circle><circle cx="40" cy="55.355969681965284" r="1"></circle><circle cx="40" cy="55.2178128468604" r="1"></circle><circle cx="40" cy="55.23677885487071" r="1"></circle><circle cx="40" cy="55.34020386549772" r="1"></circle><circle cx="40" cy="55.24337310440918" r="1"></circle><circle cx="40" cy="55.22451379510673" r="1"></circle><circle cx="40" cy="55.19622093458167" r="1"></circle><circle cx="40" cy="55.37278006819954" r="1"></circle><circle cx="40" cy="55.35185095790319" r="1"></circle><circle cx="40" cy="49.678252807715886" r="1"></circle><circle cx="40" cy="55.22189828169533" r="1"></circle><circle cx="40" cy="55.29097718030598" r="1"></circle><circle cx="40" cy="55.28700036841168" r="1"></circle><circle cx="40" cy="56.33395714586964" r="1"></circle><circle cx="40" cy="55.107084506914084" r="1"></circle><circle cx="40" cy="55.08979084961618" r="1"></circle><circle cx="40" cy="55.086111524110265" r="1"></circle><circle cx="40" cy="55.11175336912908" r="1"></circle><circle cx="40" cy="55.092976898047965" r="1"></circle><circle cx="40" cy="55.11980358940341" r="1"></circle><circle cx="40" cy="55.11948079935393" r="1"></circle><circle cx="40" cy="55.111234403547286" r="1"></circle><circle cx="40" cy="55.83362968282084" r="1"></circle><circle cx="40" cy="55.110969051846396" r="1"></circle><circle cx="40" cy="55.1661772146466" r="1"></circle><circle cx="40" cy="55.08880391062137" r="1"></circle><circle cx="40" cy="44.566839758396945" r="1"></circle><circle cx="40" cy="55.10101220551823" r="1"></circle><circle cx="40" cy="55.106283352594545" r="1"></circle><circle cx="40" cy="55.10332628786403" r="1"></circle><circle cx="40" cy="55.133775539858284" r="1"></circle><circle cx="40" cy="54.76468402386085" r="1"></circle><circle cx="40" cy="54.745883211235025" r="1"></circle><circle cx="40" cy="55.472452536263205" r="1"></circle><circle cx="40" cy="55.47581253533866" r="1"></circle><circle cx="40" cy="55.45907315329412" r="1"></circle><circle cx="40" cy="55.48453075302389" r="1"></circle><circle cx="40" cy="54.755432505059574" r="1"></circle><circle cx="40" cy="54.79996492816359" r="1"></circle><circle cx="40" cy="55.46740854486702" r="1"></circle><circle cx="40" cy="56.29462092097503" r="1"></circle><circle cx="40" cy="55.099522656920286" r="1"></circle><circle cx="40" cy="54.76375481184955" r="1"></circle><circle cx="40" cy="54.80871297145698" r="1"></circle><circle cx="40" cy="59.54284323824109" r="1"></circle><circle cx="40" cy="54.73909028466163" r="1"></circle><circle cx="40" cy="55.47720365942972" r="1"></circle><circle cx="40" cy="54.8028557030747" r="1"></circle><circle cx="40" cy="54.71585555864371" r="1"></circle><circle cx="40" cy="55.30802540171232" r="1"></circle><circle cx="40" cy="55.51523217572445" r="1"></circle><circle cx="40" cy="56.20300790950306" r="1"></circle><circle cx="40" cy="56.23046334392061" r="1"></circle><circle cx="40" cy="56.2027961476852" r="1"></circle><circle cx="40" cy="51.51336321075466" r="1"></circle><circle cx="40" cy="56.20367205844839" r="1"></circle><circle cx="40" cy="56.19883828948383" r="1"></circle><circle cx="40" cy="56.21309704683511" r="1"></circle><circle cx="40" cy="56.22949478134888" r="1"></circle><circle cx="40" cy="55.52337668340519" r="1"></circle><circle cx="40" cy="55.52766637555013" r="1"></circle><circle cx="40" cy="56.14542697525714" r="1"></circle><circle cx="40" cy="56.22350695377224" r="1"></circle><circle cx="40" cy="55.54643678529797" r="1"></circle><circle cx="40" cy="56.2107510222251" r="1"></circle><circle cx="40" cy="55.70905456376226" r="1"></circle><circle cx="40" cy="56.21011217694087" r="1"></circle><circle cx="40" cy="56.21850625761367" r="1"></circle><circle cx="40" cy="55.55911055210524" r="1"></circle><circle cx="40" cy="58.28215451718947" r="1"></circle><circle cx="40" cy="55.57627490096008" r="1"></circle><circle cx="40" cy="56.54348704612166" r="1"></circle><circle cx="40" cy="55.5915564842476" r="1"></circle><circle cx="40" cy="55.588672347939585" r="1"></circle><circle cx="40" cy="55.59283773464669" r="1"></circle><circle cx="40" cy="55.57712637396691" r="1"></circle><circle cx="40" cy="55.59722719826147" r="1"></circle><circle cx="40" cy="55.610322179625115" r="1"></circle><circle cx="40" cy="55.595996266549676" r="1"></circle><circle cx="40" cy="55.605797442445635" r="1"></circle><circle cx="40" cy="55.84575975765504" r="1"></circle><circle cx="40" cy="55.83210222683705" r="1"></circle><circle cx="40" cy="56.129415338051444" r="1"></circle><circle cx="40" cy="55.58567150691324" r="1"></circle><circle cx="40" cy="55.827120965429614" r="1"></circle><circle cx="40" cy="55.58905844524766" r="1"></circle><circle cx="40" cy="55.59673324770587" r="1"></circle><circle cx="40" cy="55.61639881054474" r="1"></circle><circle cx="40" cy="55.59457454715736" r="1"></circle><circle cx="40" cy="55.84060570014361" r="1"></circle><circle cx="40" cy="57.71011532402358" r="1"></circle><circle cx="40" cy="56.389215819780425" r="1"></circle><circle cx="40" cy="55.758012529845736" r="1"></circle><circle cx="40" cy="55.75564687806133" r="1"></circle><circle cx="40" cy="55.75888642016451" r="1"></circle><circle cx="40" cy="55.76397120529572" r="1"></circle><circle cx="40" cy="55.76458012876015" r="1"></circle><circle cx="40" cy="55.78416901092258" r="1"></circle><circle cx="40" cy="55.74703131819511" r="1"></circle><circle cx="40" cy="55.76238313597924" r="1"></circle><circle cx="40" cy="55.77750125569178" r="1"></circle><circle cx="40" cy="55.763564807331775" r="1"></circle><circle cx="40" cy="55.768482376634076" r="1"></circle><circle cx="40" cy="56.50021393716301" r="1"></circle><circle cx="40" cy="55.73612467056485" r="1"></circle><circle cx="40" cy="55.7621080669028" r="1"></circle><circle cx="40" cy="55.76292365296822" r="1"></circle><circle cx="40" cy="55.73913859637413" r="1"></circle><circle cx="40" cy="55.750699964209076" r="1"></circle><circle cx="40" cy="55.761082547040665" r="1"></circle><circle cx="40" cy="55.76776155903326" r="1"></circle><circle cx="40" cy="59.01049759999777" r="1"></circle><circle cx="40" cy="55.76489474082031" r="1"></circle><circle cx="40" cy="58.92349889874137" r="1"></circle><circle cx="40" cy="56.27522542420736" r="1"></circle><circle cx="40" cy="56.06075063054751" r="1"></circle><circle cx="40" cy="56.04867029713077" r="1"></circle><circle cx="40" cy="56.010450993155516" r="1"></circle><circle cx="40" cy="56.034664576390554" r="1"></circle><circle cx="40" cy="56.04337538577958" r="1"></circle><circle cx="40" cy="56.03027694079692" r="1"></circle><circle cx="40" cy="43.997444076229456" r="1"></circle><circle cx="40" cy="56.06247493554508" r="1"></circle><circle cx="40" cy="56.023194224766286" r="1"></circle><circle cx="40" cy="56.04321038281836" r="1"></circle><circle cx="40" cy="57.59083261481358" r="1"></circle><circle cx="40" cy="56.015266193273725" r="1"></circle><circle cx="40" cy="56.039367112679265" r="1"></circle><circle cx="40" cy="56.062610593956336" r="1"></circle><circle cx="40" cy="56.01317031892559" r="1"></circle><circle cx="40" cy="56.07779365652532" r="1"></circle><circle cx="40" cy="56.03016081334842" r="1"></circle><circle cx="40" cy="56.046033424735484" r="1"></circle><circle cx="40" cy="56.047718282960986" r="1"></circle><circle cx="40" cy="56.05280364536203" r="1"></circle><circle cx="40" cy="56.00754751830804" r="1"></circle><circle cx="40" cy="57.732318565057746" r="1"></circle><circle cx="40" cy="56.92763193139845" r="1"></circle><circle cx="40" cy="57.08868271089524" r="1"></circle><circle cx="40" cy="57.044495879999204" r="1"></circle><circle cx="40" cy="57.1108454468293" r="1"></circle><circle cx="40" cy="57.106372471511705" r="1"></circle><circle cx="40" cy="57.13413915058203" r="1"></circle><circle cx="40" cy="57.12518001895227" r="1"></circle><circle cx="40" cy="57.1147626075073" r="1"></circle><circle cx="40" cy="57.04566533247357" r="1"></circle><circle cx="40" cy="57.113943172976306" r="1"></circle><circle cx="40" cy="57.119989785864504" r="1"></circle><circle cx="40" cy="58.21970969973593" r="1"></circle><circle cx="40" cy="57.12796861710257" r="1"></circle><circle cx="40" cy="57.11096417199205" r="1"></circle><circle cx="40" cy="57.10627308488842" r="1"></circle><circle cx="40" cy="57.11536287192421" r="1"></circle><circle cx="40" cy="56.56357892273379" r="1"></circle><circle cx="40" cy="57.12395120389653" r="1"></circle><circle cx="40" cy="57.07681789155029" r="1"></circle><circle cx="40" cy="57.11719733924865" r="1"></circle><circle cx="40" cy="57.06478806924412" r="1"></circle><circle cx="40" cy="57.01772653078073" r="1"></circle><circle cx="40" cy="57.03840683777813" r="1"></circle><circle cx="40" cy="57.14331889550047" r="1"></circle><circle cx="40" cy="56.52046196526555" r="1"></circle><circle cx="40" cy="56.44635764410508" r="1"></circle><circle cx="40" cy="57.29443351417151" r="1"></circle><circle cx="40" cy="55.55083057843652" r="1"></circle><circle cx="40" cy="55.4056372088878" r="1"></circle><circle cx="40" cy="55.405436126561895" r="1"></circle><circle cx="40" cy="55.42845870591539" r="1"></circle><circle cx="40" cy="55.3979658700486" r="1"></circle><circle cx="40" cy="55.401416019429966" r="1"></circle><circle cx="40" cy="55.388878007245594" r="1"></circle><circle cx="40" cy="55.5488338982884" r="1"></circle><circle cx="40" cy="55.78866748232457" r="1"></circle><circle cx="40" cy="55.42081517223992" r="1"></circle><circle cx="40" cy="55.78394676203605" r="1"></circle><circle cx="40" cy="55.4156392746864" r="1"></circle><circle cx="40" cy="55.39712324851258" r="1"></circle><circle cx="40" cy="55.75716673332562" r="1"></circle><circle cx="40" cy="55.40179095618788" r="1"></circle><circle cx="40" cy="55.52469526392029" r="1"></circle><circle cx="40" cy="55.68746370981155" r="1"></circle><circle cx="40" cy="55.3977491052255" r="1"></circle><circle cx="40" cy="56.77442326640043" r="1"></circle><circle cx="40" cy="43.95985659408877" r="1"></circle><circle cx="40" cy="56.764073972796" r="1"></circle><circle cx="40" cy="56.75034072341798" r="1"></circle><circle cx="40" cy="56.762102019039155" r="1"></circle><circle cx="40" cy="56.757502525416015" r="1"></circle><circle cx="40" cy="56.75596948915717" r="1"></circle><circle cx="40" cy="56.771032864447" r="1"></circle><circle cx="40" cy="56.828370094610854" r="1"></circle><circle cx="40" cy="56.76303421361128" r="1"></circle><circle cx="40" cy="56.81276745308335" r="1"></circle><circle cx="40" cy="56.75687282023752" r="1"></circle><circle cx="40" cy="56.756061563695866" r="1"></circle><circle cx="40" cy="56.79380789125286" r="1"></circle><circle cx="40" cy="56.753517535532396" r="1"></circle><circle cx="40" cy="56.835102023005" r="1"></circle><circle cx="40" cy="56.75816725163119" r="1"></circle><circle cx="40" cy="56.75604799785474" r="1"></circle><circle cx="40" cy="56.794590091879485" r="1"></circle><circle cx="40" cy="56.82869654070262" r="1"></circle><circle cx="40" cy="56.76421280619135" r="1"></circle><circle cx="40" cy="56.78346032945794" r="1"></circle><circle cx="40" cy="56.746565474907776" r="1"></circle><circle cx="40" cy="57.54263154569562" r="1"></circle><circle cx="40" cy="58.309597925152126" r="1"></circle><circle cx="40" cy="56.90315087980647" r="1"></circle><circle cx="40" cy="56.91682996203164" r="1"></circle><circle cx="40" cy="56.91364641510246" r="1"></circle><circle cx="40" cy="56.910822988338786" r="1"></circle><circle cx="40" cy="56.91632109867195" r="1"></circle><circle cx="40" cy="56.91422772582645" r="1"></circle><circle cx="40" cy="56.91978019573577" r="1"></circle><circle cx="40" cy="56.92965343414948" r="1"></circle><circle cx="40" cy="58.291292217621574" r="1"></circle><circle cx="40" cy="57.072772192122336" r="1"></circle><circle cx="40" cy="56.90880129316449" r="1"></circle><circle cx="40" cy="57.07174830785807" r="1"></circle><circle cx="40" cy="56.86965200748481" r="1"></circle><circle cx="40" cy="56.90686859375643" r="1"></circle><circle cx="40" cy="56.907263734958576" r="1"></circle><circle cx="40" cy="57.06494393209962" r="1"></circle><circle cx="40" cy="56.91008793141537" r="1"></circle><circle cx="40" cy="44.396480502808494" r="1"></circle><circle cx="40" cy="58.289686060516935" r="1"></circle><circle cx="40" cy="57.06040716846523" r="1"></circle><circle cx="40" cy="63.55313312693101" r="1"></circle><circle cx="40" cy="56.91297062454879" r="1"></circle><circle cx="40" cy="56.78735978719433" r="1"></circle><circle cx="40" cy="56.42459418647366" r="1"></circle><circle cx="40" cy="56.42249311669702" r="1"></circle><circle cx="40" cy="56.42968936246191" r="1"></circle><circle cx="40" cy="56.41599488637447" r="1"></circle><circle cx="40" cy="56.420194043366934" r="1"></circle><circle cx="40" cy="56.41778769405915" r="1"></circle><circle cx="40" cy="56.41744614274002" r="1"></circle><circle cx="40" cy="56.421470868030625" r="1"></circle><circle cx="40" cy="56.418067669929194" r="1"></circle><circle cx="40" cy="56.541514034036794" r="1"></circle><circle cx="40" cy="56.42351267143753" r="1"></circle><circle cx="40" cy="56.5807959955669" r="1"></circle><circle cx="40" cy="56.420578601288774" r="1"></circle><circle cx="40" cy="56.43664719578488" r="1"></circle><circle cx="40" cy="56.59123880688462" r="1"></circle><circle cx="40" cy="56.42824031896406" r="1"></circle><circle cx="40" cy="56.46169733922266" r="1"></circle><circle cx="40" cy="56.42722259224471" r="1"></circle><circle cx="40" cy="56.43185604857647" r="1"></circle><circle cx="40" cy="56.42299457176048" r="1"></circle><circle cx="40" cy="59.38500669718637" r="1"></circle><circle cx="40" cy="56.43976233623858" r="1"></circle><circle cx="40" cy="56.39721456682779" r="1"></circle><circle cx="40" cy="56.69787141735059" r="1"></circle><circle cx="40" cy="57.77391528241513" r="1"></circle><circle cx="40" cy="57.768954706510115" r="1"></circle><circle cx="40" cy="57.69945449713146" r="1"></circle><circle cx="40" cy="57.72434954740689" r="1"></circle><circle cx="40" cy="57.69938378157666" r="1"></circle><circle cx="40" cy="57.709019184818295" r="1"></circle><circle cx="40" cy="57.707825487010865" r="1"></circle><circle cx="40" cy="57.70383703350823" r="1"></circle><circle cx="40" cy="57.713063729706576" r="1"></circle><circle cx="40" cy="57.7184740950248" r="1"></circle><circle cx="40" cy="57.72634795936451" r="1"></circle><circle cx="40" cy="57.75547160739398" r="1"></circle><circle cx="40" cy="57.89316037287421" r="1"></circle><circle cx="40" cy="56.54287234995888" r="1"></circle><circle cx="40" cy="57.6640598706712" r="1"></circle><circle cx="40" cy="57.70333134513264" r="1"></circle><circle cx="40" cy="57.89290040902512" r="1"></circle><circle cx="40" cy="57.701971778459246" r="1"></circle><circle cx="40" cy="57.74663370242959" r="1"></circle><circle cx="40" cy="57.71665454050444" r="1"></circle><circle cx="40" cy="57.774537386874144" r="1"></circle><circle cx="40" cy="57.71083142725408" r="1"></circle><circle cx="40" cy="61.25132190222195" r="1"></circle><circle cx="40" cy="57.795875108002136" r="1"></circle><circle cx="40" cy="57.657276950108276" r="1"></circle><circle cx="40" cy="58.477338492345105" r="1"></circle><circle cx="40" cy="58.08724272476111" r="1"></circle><circle cx="40" cy="58.07256996872639" r="1"></circle><circle cx="40" cy="57.775504313848" r="1"></circle><circle cx="40" cy="57.78228463669666" r="1"></circle><circle cx="40" cy="57.77377712250126" r="1"></circle><circle cx="40" cy="57.77442597379596" r="1"></circle><circle cx="40" cy="57.785665706121094" r="1"></circle><circle cx="40" cy="57.78664619893608" r="1"></circle><circle cx="40" cy="58.058988348891724" r="1"></circle><circle cx="40" cy="57.779576952534924" r="1"></circle><circle cx="40" cy="57.885439677464106" r="1"></circle><circle cx="40" cy="57.701562878992675" r="1"></circle><circle cx="40" cy="57.797677440639085" r="1"></circle><circle cx="40" cy="57.78395006017105" r="1"></circle><circle cx="40" cy="57.889028179182624" r="1"></circle><circle cx="40" cy="57.77955328447169" r="1"></circle><circle cx="40" cy="57.89535611490382" r="1"></circle><circle cx="40" cy="57.76746871774282" r="1"></circle><circle cx="40" cy="58.0836412344713" r="1"></circle><circle cx="40" cy="57.87872920426549" r="1"></circle><circle cx="40" cy="63.23094921077429" r="1"></circle><circle cx="40" cy="58.0751492103498" r="1"></circle><circle cx="40" cy="57.76583985469133" r="1"></circle><circle cx="40" cy="57.65838877181076" r="1"></circle><circle cx="40" cy="68.51186196089716" r="1"></circle><circle cx="40" cy="57.39458800254752" r="1"></circle><circle cx="40" cy="57.386553945828574" r="1"></circle><circle cx="40" cy="57.39554867576484" r="1"></circle><circle cx="40" cy="57.39663538622949" r="1"></circle><circle cx="40" cy="57.401307327216934" r="1"></circle><circle cx="40" cy="57.3986718017846" r="1"></circle><circle cx="40" cy="57.391474401480046" r="1"></circle><circle cx="40" cy="42.46652851432144" r="1"></circle><circle cx="40" cy="57.40526133695274" r="1"></circle><circle cx="40" cy="57.400902757274146" r="1"></circle><circle cx="40" cy="57.39354939790247" r="1"></circle><circle cx="40" cy="57.41489904927372" r="1"></circle><circle cx="40" cy="57.36675339805991" r="1"></circle><circle cx="40" cy="57.404300375100505" r="1"></circle><circle cx="40" cy="57.36067128307686" r="1"></circle><circle cx="40" cy="57.334620057533286" r="1"></circle><circle cx="40" cy="57.40631802938598" r="1"></circle><circle cx="40" cy="57.39610295101822" r="1"></circle><circle cx="40" cy="57.3614564662643" r="1"></circle><circle cx="40" cy="57.50146354740245" r="1"></circle><circle cx="40" cy="57.397707087678434" r="1"></circle><circle cx="40" cy="42.29478121341438" r="1"></circle><circle cx="40" cy="57.352886606926695" r="1"></circle><circle cx="40" cy="70" r="1"></circle><circle cx="40" cy="57.39125003593745" r="1"></circle><circle cx="40" cy="57.40172834935004" r="1"></circle><circle cx="40" cy="57.32633594676409" r="1"></circle><circle cx="40" cy="57.33729839714506" r="1"></circle><circle cx="40" cy="57.86467374210781" r="1"></circle><circle cx="40" cy="57.89198803405068" r="1"></circle><circle cx="40" cy="57.89324167170933" r="1"></circle><circle cx="40" cy="57.898047539298524" r="1"></circle><circle cx="40" cy="57.91027315229044" r="1"></circle><circle cx="40" cy="57.894660985810674" r="1"></circle><circle cx="40" cy="57.8920870358274" r="1"></circle><circle cx="40" cy="57.89537324057559" r="1"></circle><circle cx="40" cy="57.892716356159355" r="1"></circle><circle cx="40" cy="57.873029338124944" r="1"></circle><circle cx="40" cy="57.86952338599284" r="1"></circle><circle cx="40" cy="43.772893230020486" r="1"></circle><circle cx="40" cy="57.87496742538479" r="1"></circle><circle cx="40" cy="58.01367776604994" r="1"></circle><circle cx="40" cy="57.88740845623686" r="1"></circle><circle cx="40" cy="57.89033078856563" r="1"></circle><circle cx="40" cy="57.98517545278635" r="1"></circle><circle cx="40" cy="57.904746563312074" r="1"></circle><circle cx="40" cy="57.88708287604983" r="1"></circle><circle cx="40" cy="57.91726821951778" r="1"></circle><circle cx="40" cy="57.87585873001025" r="1"></circle><circle cx="40" cy="61.3956742858325" r="1"></circle><circle cx="40" cy="57.88106810921421" r="1"></circle><circle cx="40" cy="57.895511785336026" r="1"></circle><circle cx="40" cy="57.819856340128524" r="1"></circle><circle cx="40" cy="61.45444199064783" r="1"></circle><circle cx="40" cy="59.09742731750888" r="1"></circle><circle cx="40" cy="57.9257119453964" r="1"></circle><circle cx="40" cy="57.925102348450494" r="1"></circle><circle cx="40" cy="57.93779247123642" r="1"></circle><circle cx="40" cy="57.93977645144817" r="1"></circle><circle cx="40" cy="57.959077949444335" r="1"></circle><circle cx="40" cy="57.96869680428403" r="1"></circle><circle cx="40" cy="57.94619598064986" r="1"></circle><circle cx="40" cy="57.94564430311074" r="1"></circle><circle cx="40" cy="57.906726310211695" r="1"></circle><circle cx="40" cy="57.92703312362576" r="1"></circle><circle cx="40" cy="57.94010568767747" r="1"></circle><circle cx="40" cy="57.93432394543197" r="1"></circle><circle cx="40" cy="58.04663785319213" r="1"></circle><circle cx="40" cy="57.94374056340608" r="1"></circle><circle cx="40" cy="57.92611314793183" r="1"></circle><circle cx="40" cy="57.940870185362485" r="1"></circle><circle cx="40" cy="58.07522204256067" r="1"></circle><circle cx="40" cy="57.934898809976126" r="1"></circle><circle cx="40" cy="57.91676686066595" r="1"></circle><circle cx="40" cy="57.944827466294015" r="1"></circle><circle cx="40" cy="57.935077571201745" r="1"></circle><circle cx="40" cy="57.92801977398566" r="1"></circle><circle cx="40" cy="57.94216163419534" r="1"></circle><circle cx="40" cy="57.88804037428306" r="1"></circle><circle cx="40" cy="58.60016679288255" r="1"></circle><circle cx="40" cy="57.89955989005496" r="1"></circle><circle cx="40" cy="57.89864886204346" r="1"></circle><circle cx="40" cy="63.70621267590925" r="1"></circle><circle cx="40" cy="63.70749671644588" r="1"></circle><circle cx="40" cy="63.71053998680512" r="1"></circle><circle cx="40" cy="63.704908238505105" r="1"></circle><circle cx="40" cy="63.72135494474322" r="1"></circle><circle cx="40" cy="63.720437566763536" r="1"></circle><circle cx="40" cy="63.7137834735855" r="1"></circle><circle cx="40" cy="63.715160935623786" r="1"></circle><circle cx="40" cy="57.89014057815494" r="1"></circle><circle cx="40" cy="57.8590910617438" r="1"></circle><circle cx="40" cy="63.70669277198881" r="1"></circle><circle cx="40" cy="57.86563489638333" r="1"></circle><circle cx="40" cy="58.009260497271434" r="1"></circle><circle cx="40" cy="63.70851992722867" r="1"></circle><circle cx="40" cy="63.70761919386257" r="1"></circle><circle cx="40" cy="57.863931373099824" r="1"></circle><circle cx="40" cy="63.70603401089527" r="1"></circle><circle cx="40" cy="58.03597789220477" r="1"></circle><circle cx="40" cy="63.71199153180558" r="1"></circle><circle cx="40" cy="57.89886889806228" r="1"></circle><circle cx="40" cy="63.711055007709696" r="1"></circle><circle cx="40" cy="63.120540966951566" r="1"></circle><circle cx="40" cy="57.907410471177975" r="1"></circle><circle cx="40" cy="57.80406502757657" r="1"></circle><circle cx="40" cy="59.692583569857945" r="1"></circle><circle cx="40" cy="58.23684027830541" r="1"></circle><circle cx="40" cy="58.25388291943666" r="1"></circle><circle cx="40" cy="58.160626035897494" r="1"></circle><circle cx="40" cy="58.15752648172933" r="1"></circle><circle cx="40" cy="58.1742197783987" r="1"></circle><circle cx="40" cy="58.16672181293331" r="1"></circle><circle cx="40" cy="58.1570688029617" r="1"></circle><circle cx="40" cy="58.16628491587975" r="1"></circle><circle cx="40" cy="58.16960864316722" r="1"></circle><circle cx="40" cy="58.171967175290334" r="1"></circle><circle cx="40" cy="42.03393202481823" r="1"></circle><circle cx="40" cy="58.2325538573562" r="1"></circle><circle cx="40" cy="58.188677405208196" r="1"></circle><circle cx="40" cy="58.156154599966115" r="1"></circle><circle cx="40" cy="58.18693549348065" r="1"></circle><circle cx="40" cy="61.54527867040318" r="1"></circle><circle cx="40" cy="58.16253044908362" r="1"></circle><circle cx="40" cy="58.16481210810703" r="1"></circle><circle cx="40" cy="58.17998612678193" r="1"></circle><circle cx="40" cy="58.159921574275344" r="1"></circle><circle cx="40" cy="58.300746839193174" r="1"></circle><circle cx="40" cy="58.16484876474155" r="1"></circle><circle cx="40" cy="58.24333417910419" r="1"></circle><circle cx="40" cy="58.162778097842896" r="1"></circle><circle cx="40" cy="58.18096546505725" r="1"></circle><circle cx="40" cy="61.1449920697845" r="1"></circle><circle cx="40" cy="58.22029139530647" r="1"></circle><circle cx="40" cy="58.16219669090727" r="1"></circle><circle cx="40" cy="58.171253284927545" r="1"></circle><circle cx="40" cy="59.152625570510246" r="1"></circle><circle cx="40" cy="58.46801279437002" r="1"></circle><circle cx="40" cy="58.495493724871956" r="1"></circle><circle cx="40" cy="58.36092462179248" r="1"></circle><circle cx="40" cy="58.36670174587931" r="1"></circle><circle cx="40" cy="58.36785205223746" r="1"></circle><circle cx="40" cy="58.36450686975446" r="1"></circle><circle cx="40" cy="58.370372604760966" r="1"></circle><circle cx="40" cy="58.36960406618712" r="1"></circle><circle cx="40" cy="58.36680892564536" r="1"></circle><circle cx="40" cy="58.362760820926425" r="1"></circle><circle cx="40" cy="58.38012019077391" r="1"></circle><circle cx="40" cy="58.36952680824085" r="1"></circle><circle cx="40" cy="58.373056813282744" r="1"></circle><circle cx="40" cy="58.36363144004946" r="1"></circle><circle cx="40" cy="58.37345772718325" r="1"></circle><circle cx="40" cy="58.37979499543344" r="1"></circle><circle cx="40" cy="58.371589104726894" r="1"></circle><circle cx="40" cy="58.47217038793436" r="1"></circle><circle cx="40" cy="58.36408151809759" r="1"></circle><circle cx="40" cy="58.385093851461846" r="1"></circle><circle cx="40" cy="58.55257012528197" r="1"></circle><circle cx="40" cy="58.47605358590371" r="1"></circle><circle cx="40" cy="58.36273984678908" r="1"></circle><circle cx="40" cy="58.36838112004137" r="1"></circle><circle cx="40" cy="62.73140385214047" r="1"></circle><circle cx="40" cy="62.022775496318665" r="1"></circle><circle cx="40" cy="57.645664878739474" r="1"></circle><circle cx="40" cy="58.07851171092786" r="1"></circle><circle cx="40" cy="58.09118297623251" r="1"></circle><circle cx="40" cy="58.0754509300503" r="1"></circle><circle cx="40" cy="58.079834813390015" r="1"></circle><circle cx="40" cy="58.07824135622174" r="1"></circle><circle cx="40" cy="58.08909778137634" r="1"></circle><circle cx="40" cy="58.07857694241925" r="1"></circle><circle cx="40" cy="58.074587623011844" r="1"></circle><circle cx="40" cy="59.053733475052056" r="1"></circle><circle cx="40" cy="59.03619938486781" r="1"></circle><circle cx="40" cy="57.76203728207561" r="1"></circle><circle cx="40" cy="58.07884652743225" r="1"></circle><circle cx="40" cy="59.04431993585039" r="1"></circle><circle cx="40" cy="58.07324133354466" r="1"></circle><circle cx="40" cy="57.65318891755908" r="1"></circle><circle cx="40" cy="58.07069884476741" r="1"></circle><circle cx="40" cy="59.03466461679944" r="1"></circle><circle cx="40" cy="61.74302543499192" r="1"></circle><circle cx="40" cy="58.07350601176407" r="1"></circle><circle cx="40" cy="57.617307941262716" r="1"></circle><circle cx="40" cy="59.10345372595284" r="1"></circle><circle cx="40" cy="58.49538981630164" r="1"></circle><circle cx="40" cy="58.467984508148106" r="1"></circle><circle cx="40" cy="58.465597786014705" r="1"></circle><circle cx="40" cy="58.470276076970336" r="1"></circle><circle cx="40" cy="58.467469583455156" r="1"></circle><circle cx="40" cy="58.48811121337361" r="1"></circle><circle cx="40" cy="58.51233085794191" r="1"></circle><circle cx="40" cy="58.47102537321635" r="1"></circle><circle cx="40" cy="58.46814893383947" r="1"></circle><circle cx="40" cy="58.52424772778367" r="1"></circle><circle cx="40" cy="58.476375413836806" r="1"></circle><circle cx="40" cy="58.64823759144106" r="1"></circle><circle cx="40" cy="58.46628492954181" r="1"></circle><circle cx="40" cy="58.468741597536884" r="1"></circle><circle cx="40" cy="58.51452929389741" r="1"></circle><circle cx="40" cy="64.10394880218462" r="1"></circle><circle cx="40" cy="58.49052843459663" r="1"></circle><circle cx="40" cy="58.55662669662515" r="1"></circle><circle cx="40" cy="59.11262721711473" r="1"></circle><circle cx="40" cy="62.813625549299424" r="1"></circle><circle cx="40" cy="58.604396352753" r="1"></circle><circle cx="40" cy="58.58643238896485" r="1"></circle><circle cx="40" cy="59.380556716450535" r="1"></circle><circle cx="40" cy="59.382284100220566" r="1"></circle><circle cx="40" cy="59.37714668732272" r="1"></circle><circle cx="40" cy="59.37683101693453" r="1"></circle><circle cx="40" cy="59.373466399700405" r="1"></circle><circle cx="40" cy="59.38045752225054" r="1"></circle><circle cx="40" cy="59.383763450384755" r="1"></circle><circle cx="40" cy="58.59201564659871" r="1"></circle><circle cx="40" cy="58.54258816771596" r="1"></circle><circle cx="40" cy="59.370906592828106" r="1"></circle><circle cx="40" cy="58.53814270892718" r="1"></circle><circle cx="40" cy="59.37390550962167" r="1"></circle><circle cx="40" cy="59.367224092338105" r="1"></circle><circle cx="40" cy="58.54090686932111" r="1"></circle><circle cx="40" cy="58.72973952932723" r="1"></circle><circle cx="40" cy="59.37927681301439" r="1"></circle><circle cx="40" cy="58.59816174232182" r="1"></circle><circle cx="40" cy="42.71122501944885" r="1"></circle><circle cx="40" cy="58.54109140324508" r="1"></circle><circle cx="40" cy="58.520019899722726" r="1"></circle><circle cx="40" cy="58.51091375670828" r="1"></circle><circle cx="40" cy="60.50610753121178" r="1"></circle><circle cx="40.46110739352501" cy="52.51340190130324" r="1"></circle><circle cx="40.479172761808556" cy="52.541369374064566" r="1"></circle><circle cx="40.720906138889184" cy="52.59129850043404" r="1"></circle><circle cx="41.21275855036899" cy="52.851838464821846" r="1"></circle><circle cx="41.21605709273971" cy="53.237916241929966" r="1"></circle><circle cx="41.22342715383307" cy="52.72932535361438" r="1"></circle><circle cx="41.415670259888564" cy="52.57064272740462" r="1"></circle><circle cx="41.4438881734621" cy="58.417926843028674" r="1"></circle><circle cx="41.47442529124354" cy="45.78126164912487" r="1"></circle><circle cx="41.50808522499031" cy="52.87100305365544" r="1"></circle><circle cx="41.694007903618214" cy="52.824441815715836" r="1"></circle><circle cx="41.714200977432114" cy="53.94394890393806" r="1"></circle><circle cx="41.93111668543856" cy="52.57516679110263" r="1"></circle><circle cx="42.01886747662328" cy="52.8529220003024" r="1"></circle><circle cx="42.17799535477349" cy="54.07706646201707" r="1"></circle><circle cx="42.19982106781556" cy="52.61265988962528" r="1"></circle><circle cx="42.654742044462914" cy="53.85112680079637" r="1"></circle><circle cx="42.68032120576565" cy="53.9611402882635" r="1"></circle><circle cx="42.89202141280727" cy="52.69065779961214" r="1"></circle><circle cx="42.97455962157517" cy="52.874038819506815" r="1"></circle><circle cx="43.07038028392621" cy="49.65901606015289" r="1"></circle><circle cx="43.092671456527206" cy="54.189886924057575" r="1"></circle><circle cx="43.245141994541136" cy="52.579351997407414" r="1"></circle><circle cx="43.25513555954971" cy="52.56829699142952" r="1"></circle><circle cx="43.28958995534164" cy="52.63007054027644" r="1"></circle><circle cx="43.517753953621686" cy="53.78775738949021" r="1"></circle><circle cx="43.536248458749846" cy="52.63421350967162" r="1"></circle><circle cx="43.55929887907106" cy="49.62956644708984" r="1"></circle><circle cx="43.92966460173317" cy="52.74479406854013" r="1"></circle><circle cx="44.18659232982375" cy="54.850406189088474" r="1"></circle><circle cx="44.23909951870513" cy="53.826497583280045" r="1"></circle><circle cx="44.43278195420318" cy="54.996523960066526" r="1"></circle><circle cx="44.48003980238545" cy="52.683594518332626" r="1"></circle><circle cx="44.532853558456644" cy="52.86506025312593" r="1"></circle><circle cx="44.74970270989597" cy="52.569516666379535" r="1"></circle><circle cx="44.8151738954071" cy="54.268648369613054" r="1"></circle><circle cx="44.9368952040943" cy="53.26029968736432" r="1"></circle><circle cx="44.94018401986101" cy="52.59334155459225" r="1"></circle><circle cx="45.1606630223651" cy="52.562432988232516" r="1"></circle><circle cx="45.16151219785923" cy="53.49836990447741" r="1"></circle><circle cx="45.19557239752858" cy="59.46269923143044" r="1"></circle><circle cx="45.2101736833002" cy="53.21489212319023" r="1"></circle><circle cx="45.370760511044324" cy="53.85440857980916" r="1"></circle><circle cx="45.44596225316523" cy="53.893715363942185" r="1"></circle><circle cx="45.47703120187038" cy="53.953781059981836" r="1"></circle><circle cx="45.51875794133039" cy="53.76542195366381" r="1"></circle><circle cx="45.575125175201336" cy="54.34917087301227" r="1"></circle><circle cx="46.11112886525531" cy="53.8700059296965" r="1"></circle><circle cx="46.16368437101387" cy="54.13069078881292" r="1"></circle><circle cx="46.28984598634245" cy="54.130622382337464" r="1"></circle><circle cx="46.365217936962594" cy="54.237964168795905" r="1"></circle><circle cx="46.372094198591206" cy="53.96964424262826" r="1"></circle><circle cx="46.563269555191056" cy="54.19592728318922" r="1"></circle><circle cx="46.6078580712119" cy="54.169569912209745" r="1"></circle><circle cx="46.62865414905993" cy="53.46380712384959" r="1"></circle><circle cx="46.69712355021694" cy="53.8294235716511" r="1"></circle><circle cx="46.84218654426985" cy="52.5625488270461" r="1"></circle><circle cx="46.863737255375625" cy="52.83531219155811" r="1"></circle><circle cx="46.89539881220672" cy="54.984272466143665" r="1"></circle><circle cx="46.90508349677071" cy="54.746770956029835" r="1"></circle><circle cx="46.905140953056005" cy="49.671490187808836" r="1"></circle><circle cx="46.92499731421783" cy="53.37190018581989" r="1"></circle><circle cx="47.01153741094303" cy="53.91552413725566" r="1"></circle><circle cx="47.25644136856141" cy="52.578664469033754" r="1"></circle><circle cx="47.2883149690864" cy="53.992579173178456" r="1"></circle><circle cx="47.3763492510398" cy="52.779637209884555" r="1"></circle><circle cx="47.423482158985266" cy="54.449759372092664" r="1"></circle><circle cx="47.490721727046825" cy="53.82595264055567" r="1"></circle><circle cx="47.49225448264541" cy="53.38088750745994" r="1"></circle><circle cx="47.65052528958001" cy="53.33878317749418" r="1"></circle><circle cx="47.72720498902089" cy="53.83657325098262" r="1"></circle><circle cx="48.016166903081654" cy="53.572228212476475" r="1"></circle><circle cx="48.074323304435275" cy="58.34902064431037" r="1"></circle><circle cx="48.51780279512617" cy="54.14738783773622" r="1"></circle><circle cx="48.80697305351561" cy="53.91183095727369" r="1"></circle><circle cx="48.83631910349199" cy="53.36512669399762" r="1"></circle><circle cx="48.94884586527208" cy="54.29613083950122" r="1"></circle><circle cx="49.45379438880001" cy="40.905581932414734" r="1"></circle><circle cx="49.45443181919843" cy="53.473497944995394" r="1"></circle><circle cx="50.16700556469249" cy="53.93237810736246" r="1"></circle><circle cx="50.17641440725622" cy="52.73369692186427" r="1"></circle><circle cx="50.216608135776184" cy="52.1433580825011" r="1"></circle><circle cx="50.52973549489474" cy="53.392900396517604" r="1"></circle><circle cx="50.56139026547191" cy="55.030023505869664" r="1"></circle><circle cx="50.59104240988347" cy="50.441973679947594" r="1"></circle><circle cx="50.70830012128887" cy="61.64934675962653" r="1"></circle><circle cx="50.87371146839105" cy="53.39477825529133" r="1"></circle><circle cx="50.877359180156596" cy="52.58349025243227" r="1"></circle><circle cx="50.891001113861456" cy="53.777285426045815" r="1"></circle><circle cx="50.974388283182265" cy="56.041586234137185" r="1"></circle><circle cx="51.43528434104453" cy="53.25511974892195" r="1"></circle><circle cx="51.535677647722174" cy="52.62312935156705" r="1"></circle><circle cx="51.71341876818076" cy="53.240831262174154" r="1"></circle><circle cx="51.97813838788967" cy="52.3802329662089" r="1"></circle><circle cx="53.24039196707348" cy="53.98796418948141" r="1"></circle><circle cx="53.41202292563497" cy="52.70580882370529" r="1"></circle><circle cx="53.677085091573346" cy="53.92911893808488" r="1"></circle><circle cx="53.67798872357447" cy="53.81873455474869" r="1"></circle><circle cx="53.89887534221571" cy="55.37855353624408" r="1"></circle><circle cx="54.00997041135085" cy="53.35473169986457" r="1"></circle><circle cx="54.03416467619576" cy="52.614906912458565" r="1"></circle><circle cx="54.07195891544225" cy="53.37031962101127" r="1"></circle><circle cx="54.20565175942443" cy="53.8971712860219" r="1"></circle><circle cx="54.382157128787654" cy="46.071148280121804" r="1"></circle><circle cx="54.540407050141354" cy="52.607205844222854" r="1"></circle><circle cx="54.61077267874847" cy="52.906142719271855" r="1"></circle><circle cx="54.8449059310031" cy="52.243418764528904" r="1"></circle><circle cx="55.2513200392528" cy="52.08696824834837" r="1"></circle><circle cx="55.53758327641356" cy="52.24672575099116" r="1"></circle><circle cx="55.74651932122789" cy="53.37303144227349" r="1"></circle><circle cx="56.00250037897108" cy="52.44642436110416" r="1"></circle><circle cx="56.226672962195146" cy="49.451800434669956" r="1"></circle><circle cx="56.22708640207017" cy="53.913058617789765" r="1"></circle><circle cx="56.42924350659002" cy="53.34919943439948" r="1"></circle><circle cx="56.47781012353512" cy="53.88231919149173" r="1"></circle><circle cx="56.640785307203856" cy="53.88952996521413" r="1"></circle><circle cx="56.64889460552691" cy="52.49715993343332" r="1"></circle><circle cx="56.73429467913126" cy="54.383796191205576" r="1"></circle><circle cx="56.82593198951285" cy="53.95303089783107" r="1"></circle><circle cx="56.874062014113726" cy="59.63219970192748" r="1"></circle><circle cx="57.43872528139424" cy="53.79296407476827" r="1"></circle><circle cx="57.45202377076425" cy="52.79100067037769" r="1"></circle><circle cx="57.46105327025647" cy="55.02463796315434" r="1"></circle><circle cx="57.675738335503446" cy="52.27394691006729" r="1"></circle><circle cx="57.86436877400642" cy="52.42808853933054" r="1"></circle><circle cx="58.48451562564509" cy="52.535123891718165" r="1"></circle><circle cx="58.639314285789" cy="52.74971577494291" r="1"></circle><circle cx="58.91372351552238" cy="45.945564959296135" r="1"></circle><circle cx="59.312656059814046" cy="54.52319127010684" r="1"></circle><circle cx="60.20398645491202" cy="53.768383444129725" r="1"></circle><circle cx="60.312687989607326" cy="52.148345693876735" r="1"></circle><circle cx="60.324710641980545" cy="52.888503373554336" r="1"></circle><circle cx="60.704577662080894" cy="52.53502921946521" r="1"></circle><circle cx="60.753284196672226" cy="52.62553887585894" r="1"></circle><circle cx="61.39199577950026" cy="50.10764833598324" r="1"></circle><circle cx="62.18904182720088" cy="49.93620650703061" r="1"></circle><circle cx="62.87098005842635" cy="54.14332761035074" r="1"></circle><circle cx="63.08682788256" cy="55.50280846296744" r="1"></circle><circle cx="64.12906066454318" cy="48.70796958703134" r="1"></circle><circle cx="64.26842504316278" cy="52.51769043890852" r="1"></circle><circle cx="64.56686762930218" cy="54.23347926323506" r="1"></circle><circle cx="65.13564077182906" cy="53.854278597884615" r="1"></circle><circle cx="65.45457610095288" cy="52.22647916606322" r="1"></circle><circle cx="65.55474950146694" cy="54.19510053657367" r="1"></circle><circle cx="65.97210084913664" cy="49.39350840019877" r="1"></circle><circle cx="66.61017207284996" cy="50.13863300574957" r="1"></circle><circle cx="67.15256462592407" cy="53.45357107134449" r="1"></circle><circle cx="67.3698814103814" cy="52.58174632026031" r="1"></circle><circle cx="67.48151045272938" cy="53.763242856247786" r="1"></circle><circle cx="67.79577341390214" cy="49.560653224921886" r="1"></circle><circle cx="68.07298343190757" cy="49.60079705031586" r="1"></circle><circle cx="68.15052139316386" cy="36.01312348309963" r="1"></circle><circle cx="69.10329631631495" cy="50.065776741972684" r="1"></circle><circle cx="69.32150556105088" cy="52.2669345247449" r="1"></circle><circle cx="69.63883743439905" cy="52.297520301055144" r="1"></circle><circle cx="73.82046030824245" cy="49.83474565701767" r="1"></circle><circle cx="75.72026688041896" cy="20.26286337926262" r="1"></circle><circle cx="77.16164584232887" cy="52.555771486758246" r="1"></circle><circle cx="77.4549031491074" cy="54.494237050773975" r="1"></circle><circle cx="77.45618833518019" cy="49.58919094406869" r="1"></circle><circle cx="77.97012660177701" cy="41.29331560804496" r="1"></circle><circle cx="78.43552513863273" cy="52.69122025285485" r="1"></circle><circle cx="79.6900821546223" cy="50.36393613076538" r="1"></circle><circle cx="80.67348606282971" cy="54.20793170562264" r="1"></circle><circle cx="82.32799033502592" cy="53.90319172934423" r="1"></circle><circle cx="85.07661930156408" cy="49.42743041130959" r="1"></circle><circle cx="86.72861641058178" cy="52.70023470617715" r="1"></circle><circle cx="89.67534204561639" cy="53.354478663253495" r="1"></circle><circle cx="90.90193646401197" cy="42.44235582103306" r="1"></circle><circle cx="91.39296840790794" cy="52.57424902827639" r="1"></circle><circle cx="92.69649124377759" cy="52.719179932473395" r="1"></circle><circle cx="93.49481816255042" cy="52.284158043757834" r="1"></circle><circle cx="93.86720085848675" cy="54.32860678967501" r="1"></circle><circle cx="95.2039056217298" cy="55.287593513167295" r="1"></circle><circle cx="95.55299177227673" cy="41.201281766863175" r="1"></circle><circle cx="102.29016244606694" cy="52.158401830616555" r="1"></circle><circle cx="102.87353810977879" cy="52.89635145317474" r="1"></circle><circle cx="103.18583859198748" cy="51.930108832701265" r="1"></circle><circle cx="113.22660837848127" cy="52.32531757542675" r="1"></circle><circle cx="113.35111209940521" cy="54.819421326898855" r="1"></circle><circle cx="124.69590493262555" cy="49.43926838760721" r="1"></circle><circle cx="126.57125749726063" cy="53.34859118441652" r="1"></circle><circle cx="131.5259128098917" cy="54.210892426395446" r="1"></circle><circle cx="132.4012965399583" cy="50.059692702756834" r="1"></circle><circle cx="137.51983039766588" cy="52.21097215890508" r="1"></circle><circle cx="144.04194983049234" cy="52.31012527654039" r="1"></circle><circle cx="178.43632886093962" cy="52.561150390870466" r="1"></circle><circle cx="219.99509447945826" cy="52.360889327514755" r="1"></circle><circle cx="240.260240372312" cy="49.150539663687944" r="1"></circle><circle cx="259.4642558867071" cy="45.39701651132006" r="1"></circle><circle cx="280" cy="53.88867252708566" r="1"></circle></g></svg>