<svg class="plot-chart" fill="currentColor" font-family="system-ui, sans-serif" font-size="10" text-anchor="middle" width="300" height="100" viewBox="0 0 300 100" style="overflow: visible;" xmlns="http://www.w3.org/2000/svg"><style>:where(.plot-chart) {
  --plot-background: white;
  display: block;
  height: auto;
  height: intrinsic;
  max-width: 100%;
}
:where(.plot-chart text),
:where(.plot-chart tspan) {
  white-space: pre;
}</style><g aria-label="y-axis tick" aria-hidden="true" fill="none" stroke="currentColor"><path transform="translate(25.98,65.45005137441761)" d="M0,0L-6,0"></path></g><g aria-label="y-axis tick label" text-anchor="end" font-variant="tabular-nums" transform="translate(-9,0)"><text y="0.32em" transform="translate(25.98,65.45005137441761)">0.0</text></g><g aria-label="x-axis tick" aria-hidden="true" fill="none" stroke="currentColor"><path transform="translate(25.98,71)" d="M0,0L0,6"></path><path transform="translate(101.95624985588023,71)" d="M0,0L0,6"></path><path transform="translate(177.93249971176047,71)" d="M0,0L0,6"></path><path transform="translate(253.90874956764068,71)" d="M0,0L0,6"></path></g><g aria-label="x-axis tick label" font-variant="tabular-nums" transform="translate(0,9)"><text y="0.71em" transform="translate(25.98,71)">0.0</text><text y="0.71em" transform="translate(101.95624985588023,71)">0.1</text><text y="0.71em" transform="translate(177.93249971176047,71)">0.2</text><text y="0.71em" transform="translate(253.90874956764068,71)">0.3</text></g><g aria-label="x-axis label" text-anchor="end" transform="translate(-3,26)"><text transform="translate(300,71)">Custom X Label →</text></g><rect aria-label="frame" fill="hsla( 0 0% 100%)" stroke="hsla(220 6% 90%)" x="25.98" y="20" width="274.02" height="51" rx="4" ry="4"></rect><g aria-label="y-grid" aria-hidden="true" stroke="hsla(220 6% 90%)" stroke-dasharray="1.5,1.5"><line x1="25.98" x2="300" y1="65.45005137441761" y2="65.45005137441761"></line></g><g aria-label="dot" fill="black"><circle cx="25.98" cy="24.08735887145194" r="1"></circle><circle cx="25.98" cy="24.12567641520775" r="1"></circle><circle cx="25.98" cy="24.470184749033955" r="1"></circle><circle cx="25.98" cy="25.09291652332015" r="1"></circle><circle cx="25.98" cy="24.502875574434242" r="1"></circle><circle cx="25.98" cy="24.41186946983074" r="1"></circle><circle cx="25.98" cy="24.021613234702222" r="1"></circle><circle cx="25.98" cy="23.54045776493478" r="1"></circle><circle cx="25.98" cy="24.74112974627723" r="1"></circle><circle cx="25.98" cy="24.83119060616187" r="1"></circle><circle cx="25.98" cy="24.247597772879892" r="1"></circle><circle cx="25.98" cy="24.479624831102637" r="1"></circle><circle cx="25.98" cy="24.25054940550126" r="1"></circle><circle cx="25.98" cy="24.25482646120951" r="1"></circle><circle cx="25.98" cy="23.305849242599756" r="1"></circle><circle cx="25.98" cy="24.61638973009024" r="1"></circle><circle cx="25.98" cy="25.341482910726057" r="1"></circle><circle cx="25.98" cy="24.024440234766182" r="1"></circle><circle cx="25.98" cy="23.629878288254773" r="1"></circle><circle cx="25.98" cy="24.076280901680015" r="1"></circle><circle cx="25.98" cy="23.66458894617204" r="1"></circle><circle cx="25.98" cy="24.38330584666221" r="1"></circle><circle cx="25.98" cy="23.702927392868563" r="1"></circle><circle cx="25.98" cy="24.07697874586562" r="1"></circle><circle cx="25.98" cy="24.236427457252432" r="1"></circle><circle cx="25.98" cy="24.496390461606573" r="1"></circle><circle cx="25.98" cy="32.85863564972239" r="1"></circle><circle cx="25.98" cy="25.26972399842111" r="1"></circle><circle cx="25.98" cy="24.205895130356215" r="1"></circle><circle cx="25.98" cy="24.15574769977743" r="1"></circle><circle cx="25.98" cy="26.049260703703133" r="1"></circle><circle cx="25.98" cy="25.070455479350315" r="1"></circle><circle cx="25.98" cy="34.819499302583964" r="1"></circle><circle cx="25.98" cy="34.09663989066602" r="1"></circle><circle cx="25.98" cy="34.86327565421831" r="1"></circle><circle cx="25.98" cy="34.63671878763529" r="1"></circle><circle cx="25.98" cy="34.5429408353279" r="1"></circle><circle cx="25.98" cy="34.847195502780124" r="1"></circle><circle cx="25.98" cy="34.28434996673569" r="1"></circle><circle cx="25.98" cy="34.56615870314239" r="1"></circle><circle cx="25.98" cy="34.93348696382223" r="1"></circle><circle cx="25.98" cy="35.60612985750751" r="1"></circle><circle cx="25.98" cy="34.69255132741341" r="1"></circle><circle cx="25.98" cy="34.610461259322264" r="1"></circle><circle cx="25.98" cy="34.027052627071996" r="1"></circle><circle cx="25.98" cy="35.78338355641834" r="1"></circle><circle cx="25.98" cy="33.65591463370623" r="1"></circle><circle cx="25.98" cy="35.07053292394717" r="1"></circle><circle cx="25.98" cy="35.161268958630984" r="1"></circle><circle cx="25.98" cy="34.63989701598504" r="1"></circle><circle cx="25.98" cy="35.66375318067742" r="1"></circle><circle cx="25.98" cy="35.21355594749056" r="1"></circle><circle cx="25.98" cy="34.082296547890024" r="1"></circle><circle cx="25.98" cy="35.46633648551078" r="1"></circle><circle cx="25.98" cy="35.105338969931985" r="1"></circle><circle cx="25.98" cy="34.4359568368648" r="1"></circle><circle cx="25.98" cy="34.52116644805427" r="1"></circle><circle cx="25.98" cy="35.360952199896744" r="1"></circle><circle cx="25.98" cy="47.47548800770697" r="1"></circle><circle cx="25.98" cy="34.20433684623901" r="1"></circle><circle cx="25.98" cy="34.33004772060744" r="1"></circle><circle cx="25.98" cy="34.81775248406281" r="1"></circle><circle cx="25.98" cy="44.29402931945411" r="1"></circle><circle cx="25.98" cy="34.80863350256723" r="1"></circle><circle cx="25.98" cy="42.79475971299937" r="1"></circle><circle cx="25.98" cy="43.132772335323736" r="1"></circle><circle cx="25.98" cy="41.964057123059206" r="1"></circle><circle cx="25.98" cy="42.15586868976217" r="1"></circle><circle cx="25.98" cy="42.16149668388402" r="1"></circle><circle cx="25.98" cy="42.834668235511614" r="1"></circle><circle cx="25.98" cy="42.1029279197235" r="1"></circle><circle cx="25.98" cy="42.438051814520435" r="1"></circle><circle cx="25.98" cy="41.44110725372779" r="1"></circle><circle cx="25.98" cy="42.46951280117315" r="1"></circle><circle cx="25.98" cy="42.167025168231675" r="1"></circle><circle cx="25.98" cy="41.457283283912915" r="1"></circle><circle cx="25.98" cy="42.40386628165411" r="1"></circle><circle cx="25.98" cy="42.863193781961826" r="1"></circle><circle cx="25.98" cy="42.76091834263606" r="1"></circle><circle cx="25.98" cy="41.612590955910036" r="1"></circle><circle cx="25.98" cy="41.97041956604691" r="1"></circle><circle cx="25.98" cy="42.49495285767262" r="1"></circle><circle cx="25.98" cy="42.42790760757035" r="1"></circle><circle cx="25.98" cy="43.15541365489038" r="1"></circle><circle cx="25.98" cy="41.79078950699622" r="1"></circle><circle cx="25.98" cy="43.432841998515634" r="1"></circle><circle cx="25.98" cy="42.800614008442" r="1"></circle><circle cx="25.98" cy="42.1407363345755" r="1"></circle><circle cx="25.98" cy="41.55361159126117" r="1"></circle><circle cx="25.98" cy="42.550409537061086" r="1"></circle><circle cx="25.98" cy="53.261226515251195" r="1"></circle><circle cx="25.98" cy="41.8621064153338" r="1"></circle><circle cx="25.98" cy="41.05871857145544" r="1"></circle><circle cx="25.98" cy="42.482445146381906" r="1"></circle><circle cx="25.98" cy="40.3228915835507" r="1"></circle><circle cx="25.98" cy="45.23498442120935" r="1"></circle><circle cx="25.98" cy="40.259991396408864" r="1"></circle><circle cx="25.98" cy="40.30176705202129" r="1"></circle><circle cx="25.98" cy="39.88807057319237" r="1"></circle><circle cx="25.98" cy="40.27925743079483" r="1"></circle><circle cx="25.98" cy="41.68789404523132" r="1"></circle><circle cx="25.98" cy="41.9931430253384" r="1"></circle><circle cx="25.98" cy="41.29164435799372" r="1"></circle><circle cx="25.98" cy="41.682654669162496" r="1"></circle><circle cx="25.98" cy="41.6815775298317" r="1"></circle><circle cx="25.98" cy="41.95360859677012" r="1"></circle><circle cx="25.98" cy="41.29655448821207" r="1"></circle><circle cx="25.98" cy="41.601044092941805" r="1"></circle><circle cx="25.98" cy="39.91868847456895" r="1"></circle><circle cx="25.98" cy="39.89261583423872" r="1"></circle><circle cx="25.98" cy="41.59488351544276" r="1"></circle><circle cx="25.98" cy="38.5918299542866" r="1"></circle><circle cx="25.98" cy="40.01227427683903" r="1"></circle><circle cx="25.98" cy="41.28226099845904" r="1"></circle><circle cx="25.98" cy="40.203518225658485" r="1"></circle><circle cx="25.98" cy="40.22327278041514" r="1"></circle><circle cx="25.98" cy="41.32713009302783" r="1"></circle><circle cx="25.98" cy="40.63935288143844" r="1"></circle><circle cx="25.98" cy="40.87875642061399" r="1"></circle><circle cx="25.98" cy="38.84875378882157" r="1"></circle><circle cx="25.98" cy="41.67841029269962" r="1"></circle><circle cx="25.98" cy="39.87064066097104" r="1"></circle><circle cx="25.98" cy="42.788205806925454" r="1"></circle><circle cx="25.98" cy="39.916877671459275" r="1"></circle><circle cx="25.98" cy="40.527281028692855" r="1"></circle><circle cx="25.98" cy="40.610674243027944" r="1"></circle><circle cx="25.98" cy="44.077397228011435" r="1"></circle><circle cx="25.98" cy="40.963388894740376" r="1"></circle><circle cx="25.98" cy="44.56306459262877" r="1"></circle><circle cx="25.98" cy="44.1733967801886" r="1"></circle><circle cx="25.98" cy="43.783484216883714" r="1"></circle><circle cx="25.98" cy="43.424249614109065" r="1"></circle><circle cx="25.98" cy="44.14846408614723" r="1"></circle><circle cx="25.98" cy="44.52484027795134" r="1"></circle><circle cx="25.98" cy="44.52584636691083" r="1"></circle><circle cx="25.98" cy="43.80047055496373" r="1"></circle><circle cx="25.98" cy="43.376040465137635" r="1"></circle><circle cx="25.98" cy="44.54404576250431" r="1"></circle><circle cx="25.98" cy="44.52962616815579" r="1"></circle><circle cx="25.98" cy="43.416765870648184" r="1"></circle><circle cx="25.98" cy="44.57607623162208" r="1"></circle><circle cx="25.98" cy="44.190559959109905" r="1"></circle><circle cx="25.98" cy="42.622845979426145" r="1"></circle><circle cx="25.98" cy="43.08559439809502" r="1"></circle><circle cx="25.98" cy="42.71587015010092" r="1"></circle><circle cx="25.98" cy="43.049263811339074" r="1"></circle><circle cx="25.98" cy="44.52580632747506" r="1"></circle><circle cx="25.98" cy="43.823410207581176" r="1"></circle><circle cx="25.98" cy="44.550281610217155" r="1"></circle><circle cx="25.98" cy="44.18156197914446" r="1"></circle><circle cx="25.98" cy="43.80090608196355" r="1"></circle><circle cx="25.98" cy="44.56984568324631" r="1"></circle><circle cx="25.98" cy="43.01481625569458" r="1"></circle><circle cx="25.98" cy="43.4598350551891" r="1"></circle><circle cx="25.98" cy="48.34107996098726" r="1"></circle><circle cx="25.98" cy="44.18329849339905" r="1"></circle><circle cx="25.98" cy="44.15947708997191" r="1"></circle><circle cx="25.98" cy="44.7596860928248" r="1"></circle><circle cx="25.98" cy="44.19760837184269" r="1"></circle><circle cx="25.98" cy="43.394125924983754" r="1"></circle><circle cx="25.98" cy="43.14869654886138" r="1"></circle><circle cx="25.98" cy="40.598752010349415" r="1"></circle><circle cx="25.98" cy="42.67655348503255" r="1"></circle><circle cx="25.98" cy="42.70216439608514" r="1"></circle><circle cx="25.98" cy="42.2518683400752" r="1"></circle><circle cx="25.98" cy="43.04716949369527" r="1"></circle><circle cx="25.98" cy="43.45210773849399" r="1"></circle><circle cx="25.98" cy="42.291881966106324" r="1"></circle><circle cx="25.98" cy="42.69671451857092" r="1"></circle><circle cx="25.98" cy="42.705010532644124" r="1"></circle><circle cx="25.98" cy="43.075904952775645" r="1"></circle><circle cx="25.98" cy="43.49520832651394" r="1"></circle><circle cx="25.98" cy="42.31513339638904" r="1"></circle><circle cx="25.98" cy="43.25880254381958" r="1"></circle><circle cx="25.98" cy="42.68048029381372" r="1"></circle><circle cx="25.98" cy="42.46489001278793" r="1"></circle><circle cx="25.98" cy="43.150836990365" r="1"></circle><circle cx="25.98" cy="42.267221893517295" r="1"></circle><circle cx="25.98" cy="41.871328733902565" r="1"></circle><circle cx="25.98" cy="42.85693320400924" r="1"></circle><circle cx="25.98" cy="42.67925928729462" r="1"></circle><circle cx="25.98" cy="43.5350197926488" r="1"></circle><circle cx="25.98" cy="42.67791001719084" r="1"></circle><circle cx="25.98" cy="43.11375468282975" r="1"></circle><circle cx="25.98" cy="41.39313471034369" r="1"></circle><circle cx="25.98" cy="43.26146565697734" r="1"></circle><circle cx="25.98" cy="44.29707231657229" r="1"></circle><circle cx="25.98" cy="41.43535541213552" r="1"></circle><circle cx="25.98" cy="42.67243629265974" r="1"></circle><circle cx="25.98" cy="42.49701547742978" r="1"></circle><circle cx="25.98" cy="42.65711816626742" r="1"></circle><circle cx="25.98" cy="43.087418645819135" r="1"></circle><circle cx="25.98" cy="47.28488253087057" r="1"></circle><circle cx="25.98" cy="46.8435633556136" r="1"></circle><circle cx="25.98" cy="46.83647696429835" r="1"></circle><circle cx="25.98" cy="47.719019828608864" r="1"></circle><circle cx="25.98" cy="47.71794975506084" r="1"></circle><circle cx="25.98" cy="47.732882501883935" r="1"></circle><circle cx="25.98" cy="47.30369723838133" r="1"></circle><circle cx="25.98" cy="47.27434901891635" r="1"></circle><circle cx="25.98" cy="47.26817018814511" r="1"></circle><circle cx="25.98" cy="47.73845190889021" r="1"></circle><circle cx="25.98" cy="47.26198586176504" r="1"></circle><circle cx="25.98" cy="47.72605518927068" r="1"></circle><circle cx="25.98" cy="47.26559156997312" r="1"></circle><circle cx="25.98" cy="47.32945231102984" r="1"></circle><circle cx="25.98" cy="46.850594496432926" r="1"></circle><circle cx="25.98" cy="47.25924855788808" r="1"></circle><circle cx="25.98" cy="47.36996750950263" r="1"></circle><circle cx="25.98" cy="46.83534202293896" r="1"></circle><circle cx="25.98" cy="47.24012138576094" r="1"></circle><circle cx="25.98" cy="46.84425855013066" r="1"></circle><circle cx="25.98" cy="47.27834059737303" r="1"></circle><circle cx="25.98" cy="46.479179956179955" r="1"></circle><circle cx="25.98" cy="46.40930034582331" r="1"></circle><circle cx="25.98" cy="47.72665686030175" r="1"></circle><circle cx="25.98" cy="47.28145955165611" r="1"></circle><circle cx="25.98" cy="46.394749445678094" r="1"></circle><circle cx="25.98" cy="47.60875828829357" r="1"></circle><circle cx="25.98" cy="46.82598898738872" r="1"></circle><circle cx="25.98" cy="46.84988232441001" r="1"></circle><circle cx="25.98" cy="46.82514894432462" r="1"></circle><circle cx="25.98" cy="47.27503224085703" r="1"></circle><circle cx="25.98" cy="46.90043250460739" r="1"></circle><circle cx="25.98" cy="48.46759358678844" r="1"></circle><circle cx="25.98" cy="48.00781191366522" r="1"></circle><circle cx="25.98" cy="47.99736515382183" r="1"></circle><circle cx="25.98" cy="48.026459593921885" r="1"></circle><circle cx="25.98" cy="48.45061549212168" r="1"></circle><circle cx="25.98" cy="48.008902301338736" r="1"></circle><circle cx="25.98" cy="48.46255637061588" r="1"></circle><circle cx="25.98" cy="47.998269868425574" r="1"></circle><circle cx="25.98" cy="47.97767556501243" r="1"></circle><circle cx="25.98" cy="47.98846629108709" r="1"></circle><circle cx="25.98" cy="48.466687498282504" r="1"></circle><circle cx="25.98" cy="48.47076514189891" r="1"></circle><circle cx="25.98" cy="47.53951862195808" r="1"></circle><circle cx="25.98" cy="48.07780526349748" r="1"></circle><circle cx="25.98" cy="48.03029307548881" r="1"></circle><circle cx="25.98" cy="48.496868989436415" r="1"></circle><circle cx="25.98" cy="48.53691382267482" r="1"></circle><circle cx="25.98" cy="48.47831100536674" r="1"></circle><circle cx="25.98" cy="47.98490317384745" r="1"></circle><circle cx="25.98" cy="47.61228588034756" r="1"></circle><circle cx="25.98" cy="46.09105631168529" r="1"></circle><circle cx="25.98" cy="48.32496143842312" r="1"></circle><circle cx="25.98" cy="47.99409821064381" r="1"></circle><circle cx="25.98" cy="48.485943130266044" r="1"></circle><circle cx="25.98" cy="47.49598535287859" r="1"></circle><circle cx="25.98" cy="48.032427334432505" r="1"></circle><circle cx="25.98" cy="49.11423528305829" r="1"></circle><circle cx="25.98" cy="47.54461108862655" r="1"></circle><circle cx="25.98" cy="48.04830032104496" r="1"></circle><circle cx="25.98" cy="48.044682051445285" r="1"></circle><circle cx="25.98" cy="50.75404939347385" r="1"></circle><circle cx="25.98" cy="47.94539798976902" r="1"></circle><circle cx="25.98" cy="46.88459985183832" r="1"></circle><circle cx="25.98" cy="47.83657139217374" r="1"></circle><circle cx="25.98" cy="46.37569136120483" r="1"></circle><circle cx="25.98" cy="47.483122978546554" r="1"></circle><circle cx="25.98" cy="47.483158013052844" r="1"></circle><circle cx="25.98" cy="47.98538315639727" r="1"></circle><circle cx="25.98" cy="47.458932289833186" r="1"></circle><circle cx="25.98" cy="46.95774758300344" r="1"></circle><circle cx="25.98" cy="46.94022738577988" r="1"></circle><circle cx="25.98" cy="45.46369900120946" r="1"></circle><circle cx="25.98" cy="47.806442599983086" r="1"></circle><circle cx="25.98" cy="46.923838008209096" r="1"></circle><circle cx="25.98" cy="47.30011910635327" r="1"></circle><circle cx="25.98" cy="47.523851131861534" r="1"></circle><circle cx="25.98" cy="46.98608264772615" r="1"></circle><circle cx="25.98" cy="46.55438108233026" r="1"></circle><circle cx="25.98" cy="47.47316130431834" r="1"></circle><circle cx="25.98" cy="47.94295214943181" r="1"></circle><circle cx="25.98" cy="46.46499068672295" r="1"></circle><circle cx="25.98" cy="46.522878780475445" r="1"></circle><circle cx="25.98" cy="47.94851596269339" r="1"></circle><circle cx="25.98" cy="47.85849779191305" r="1"></circle><circle cx="25.98" cy="47.39474475632279" r="1"></circle><circle cx="25.98" cy="47.85084466593715" r="1"></circle><circle cx="25.98" cy="47.492893189688566" r="1"></circle><circle cx="25.98" cy="46.495663347916086" r="1"></circle><circle cx="25.98" cy="57.75537722185171" r="1"></circle><circle cx="25.98" cy="47.3456001762197" r="1"></circle><circle cx="25.98" cy="47.966552158331766" r="1"></circle><circle cx="25.98" cy="47.965532330350214" r="1"></circle><circle cx="25.98" cy="47.93673141464323" r="1"></circle><circle cx="25.98" cy="48.49458674159777" r="1"></circle><circle cx="25.98" cy="50.837153499530096" r="1"></circle><circle cx="25.98" cy="50.82283861615698" r="1"></circle><circle cx="25.98" cy="50.939791158359334" r="1"></circle><circle cx="25.98" cy="49.904522773115076" r="1"></circle><circle cx="25.98" cy="50.40604457666507" r="1"></circle><circle cx="25.98" cy="50.43018423472501" r="1"></circle><circle cx="25.98" cy="50.46042048569548" r="1"></circle><circle cx="25.98" cy="50.4166578730832" r="1"></circle><circle cx="25.98" cy="50.35584699865569" r="1"></circle><circle cx="25.98" cy="50.95312046317022" r="1"></circle><circle cx="25.98" cy="49.38723514732483" r="1"></circle><circle cx="25.98" cy="50.884747336584255" r="1"></circle><circle cx="25.98" cy="49.75684801110424" r="1"></circle><circle cx="25.98" cy="50.88959691696961" r="1"></circle><circle cx="25.98" cy="50.396775545421235" r="1"></circle><circle cx="25.98" cy="49.26544843206903" r="1"></circle><circle cx="25.98" cy="50.35498301043882" r="1"></circle><circle cx="25.98" cy="50.42797519624688" r="1"></circle><circle cx="25.98" cy="49.88877392838067" r="1"></circle><circle cx="25.98" cy="50.34518012005146" r="1"></circle><circle cx="25.98" cy="50.93039023250357" r="1"></circle><circle cx="25.98" cy="50.16471119556714" r="1"></circle><circle cx="25.98" cy="49.87247218614355" r="1"></circle><circle cx="25.98" cy="50.313173890494056" r="1"></circle><circle cx="25.98" cy="50.95258807606476" r="1"></circle><circle cx="25.98" cy="50.430455776682756" r="1"></circle><circle cx="25.98" cy="54.45832507508746" r="1"></circle><circle cx="25.98" cy="49.758909256959186" r="1"></circle><circle cx="25.98" cy="50.96892966146589" r="1"></circle><circle cx="25.98" cy="50.33967028151947" r="1"></circle><circle cx="25.98" cy="50.770761932471046" r="1"></circle><circle cx="25.98" cy="51.36770713249381" r="1"></circle><circle cx="25.98" cy="50.96003747197045" r="1"></circle><circle cx="25.98" cy="50.92713987428791" r="1"></circle><circle cx="25.98" cy="51.105295736269795" r="1"></circle><circle cx="25.98" cy="50.58224292240868" r="1"></circle><circle cx="25.98" cy="50.54562617145007" r="1"></circle><circle cx="25.98" cy="48.902137068900835" r="1"></circle><circle cx="25.98" cy="50.55215387524618" r="1"></circle><circle cx="25.98" cy="45.66184307945917" r="1"></circle><circle cx="25.98" cy="51.083174438688744" r="1"></circle><circle cx="25.98" cy="50.578012579375496" r="1"></circle><circle cx="25.98" cy="50.592301358606676" r="1"></circle><circle cx="25.98" cy="50.54175765537685" r="1"></circle><circle cx="25.98" cy="50.9565475640913" r="1"></circle><circle cx="25.98" cy="50.549829723390204" r="1"></circle><circle cx="25.98" cy="50.53138616574726" r="1"></circle><circle cx="25.98" cy="49.48604266120678" r="1"></circle><circle cx="25.98" cy="50.52130407880412" r="1"></circle><circle cx="25.98" cy="50.713830270926806" r="1"></circle><circle cx="25.98" cy="50.58338031716487" r="1"></circle><circle cx="25.98" cy="50.01456527416413" r="1"></circle><circle cx="25.98" cy="51.09639373318715" r="1"></circle><circle cx="25.98" cy="48.216316784734474" r="1"></circle><circle cx="25.98" cy="50.52119083000787" r="1"></circle><circle cx="25.98" cy="50.404361350188964" r="1"></circle><circle cx="25.98" cy="51.12083721990673" r="1"></circle><circle cx="25.98" cy="51.074703840899296" r="1"></circle><circle cx="25.98" cy="50.949400328535425" r="1"></circle><circle cx="25.98" cy="50.93960636851241" r="1"></circle><circle cx="25.98" cy="50.55940699940791" r="1"></circle><circle cx="25.98" cy="50.44848245314157" r="1"></circle><circle cx="25.98" cy="50.425189805792634" r="1"></circle><circle cx="25.98" cy="53.00062857180539" r="1"></circle><circle cx="25.98" cy="52.04669696369903" r="1"></circle><circle cx="25.98" cy="47.65536909831816" r="1"></circle><circle cx="25.98" cy="49.84954430983074" r="1"></circle><circle cx="25.98" cy="49.807342450126335" r="1"></circle><circle cx="25.98" cy="47.619592979238874" r="1"></circle><circle cx="25.98" cy="45.3564123517172" r="1"></circle><circle cx="25.98" cy="43.069569693424484" r="1"></circle><circle cx="25.98" cy="49.811078679044144" r="1"></circle><circle cx="25.98" cy="52.040883885322636" r="1"></circle><circle cx="25.98" cy="49.89556591208" r="1"></circle><circle cx="25.98" cy="52.04897361779295" r="1"></circle><circle cx="25.98" cy="52.04671776850388" r="1"></circle><circle cx="25.98" cy="52.01906229469458" r="1"></circle><circle cx="25.98" cy="49.869087185511546" r="1"></circle><circle cx="25.98" cy="43.731188886475024" r="1"></circle><circle cx="25.98" cy="52.08186336460573" r="1"></circle><circle cx="25.98" cy="47.15615466539004" r="1"></circle><circle cx="25.98" cy="47.60648192860725" r="1"></circle><circle cx="25.98" cy="52.04548282669095" r="1"></circle><circle cx="25.98" cy="49.88915646200962" r="1"></circle><circle cx="25.98" cy="52.040363176385945" r="1"></circle><circle cx="25.98" cy="52.002539746745526" r="1"></circle><circle cx="25.98" cy="49.84154417541154" r="1"></circle><circle cx="25.98" cy="49.814362599728014" r="1"></circle><circle cx="25.98" cy="52.04906321584406" r="1"></circle><circle cx="25.98" cy="49.90550756659033" r="1"></circle><circle cx="25.98" cy="49.93703832784802" r="1"></circle><circle cx="25.98" cy="20" r="1"></circle><circle cx="25.98" cy="52.03339248726374" r="1"></circle><circle cx="25.98" cy="52.06747811781239" r="1"></circle><circle cx="25.98" cy="48.500403156593826" r="1"></circle><circle cx="25.98" cy="50.345580808816734" r="1"></circle><circle cx="25.98" cy="50.83216005195644" r="1"></circle><circle cx="25.98" cy="53.08212423092" r="1"></circle><circle cx="25.98" cy="53.058910582948" r="1"></circle><circle cx="25.98" cy="53.104264076180854" r="1"></circle><circle cx="25.98" cy="48.50640475398027" r="1"></circle><circle cx="25.98" cy="50.82189081990545" r="1"></circle><circle cx="25.98" cy="48.52770720584557" r="1"></circle><circle cx="25.98" cy="48.49265003016437" r="1"></circle><circle cx="25.98" cy="48.49846958550831" r="1"></circle><circle cx="25.98" cy="50.79697539777755" r="1"></circle><circle cx="25.98" cy="53.08924182944254" r="1"></circle><circle cx="25.98" cy="53.08102128185487" r="1"></circle><circle cx="25.98" cy="50.864872074705076" r="1"></circle><circle cx="25.98" cy="44.146568886187666" r="1"></circle><circle cx="25.98" cy="50.77361572362805" r="1"></circle><circle cx="25.98" cy="53.165900763971024" r="1"></circle><circle cx="25.98" cy="53.147557795596846" r="1"></circle><circle cx="25.98" cy="53.07205431282499" r="1"></circle><circle cx="25.98" cy="53.060991652249086" r="1"></circle><circle cx="25.98" cy="53.13892389971644" r="1"></circle><circle cx="25.98" cy="50.78914611791146" r="1"></circle><circle cx="25.98" cy="50.750445647983206" r="1"></circle><circle cx="25.98" cy="46.291583423314144" r="1"></circle><circle cx="25.98" cy="53.09926179637871" r="1"></circle><circle cx="25.98" cy="50.80867613779302" r="1"></circle><circle cx="25.98" cy="48.64222107162937" r="1"></circle><circle cx="25.98" cy="49.506301830617126" r="1"></circle><circle cx="25.98" cy="53.08964084989798" r="1"></circle><circle cx="25.98" cy="53.10098614178517" r="1"></circle><circle cx="25.98" cy="45.15868466397228" r="1"></circle><circle cx="25.98" cy="51.30093999945271" r="1"></circle><circle cx="25.98" cy="48.52276439638185" r="1"></circle><circle cx="25.98" cy="53.30419825087124" r="1"></circle><circle cx="25.98" cy="44.3060451737545" r="1"></circle><circle cx="25.98" cy="48.71320657512729" r="1"></circle><circle cx="25.98" cy="51.01591682255952" r="1"></circle><circle cx="25.98" cy="50.97796719018774" r="1"></circle><circle cx="25.98" cy="53.3077784437526" r="1"></circle><circle cx="25.98" cy="53.31385943305948" r="1"></circle><circle cx="25.98" cy="48.71264327522215" r="1"></circle><circle cx="25.98" cy="53.323277925236326" r="1"></circle><circle cx="25.98" cy="50.980682707901146" r="1"></circle><circle cx="25.98" cy="53.32832995992556" r="1"></circle><circle cx="25.98" cy="49.38040763843985" r="1"></circle><circle cx="25.98" cy="51.01116243396997" r="1"></circle><circle cx="25.98" cy="53.37204016798221" r="1"></circle><circle cx="25.98" cy="53.35237835162458" r="1"></circle><circle cx="25.98" cy="53.36503689775052" r="1"></circle><circle cx="25.98" cy="51.10024576243388" r="1"></circle><circle cx="25.98" cy="53.31717956588012" r="1"></circle><circle cx="25.98" cy="53.30135270312748" r="1"></circle><circle cx="25.98" cy="51.0433509999775" r="1"></circle><circle cx="25.98" cy="53.343837096007306" r="1"></circle><circle cx="25.98" cy="53.27758134899505" r="1"></circle><circle cx="25.98" cy="53.31600801984049" r="1"></circle><circle cx="25.98" cy="53.29877536072183" r="1"></circle><circle cx="25.98" cy="51.0212102714938" r="1"></circle><circle cx="25.98" cy="51.097886576071616" r="1"></circle><circle cx="25.98" cy="51.2048271984793" r="1"></circle><circle cx="25.98" cy="50.98977362253734" r="1"></circle><circle cx="25.98" cy="53.31003900356353" r="1"></circle><circle cx="25.98" cy="53.326255563863775" r="1"></circle><circle cx="25.98" cy="55.69601214089287" r="1"></circle><circle cx="25.98" cy="51.037677765218675" r="1"></circle><circle cx="25.98" cy="44.48191113329974" r="1"></circle><circle cx="25.98" cy="51.582702611999565" r="1"></circle><circle cx="25.98" cy="48.98895394940149" r="1"></circle><circle cx="25.98" cy="51.3390194655831" r="1"></circle><circle cx="25.98" cy="51.338555282908665" r="1"></circle><circle cx="25.98" cy="44.72072821250437" r="1"></circle><circle cx="25.98" cy="53.72371565894631" r="1"></circle><circle cx="25.98" cy="53.705276517417595" r="1"></circle><circle cx="25.98" cy="51.31208018736747" r="1"></circle><circle cx="25.98" cy="53.7445636435885" r="1"></circle><circle cx="25.98" cy="53.72477680212997" r="1"></circle><circle cx="25.98" cy="51.367893198107076" r="1"></circle><circle cx="25.98" cy="49.22978683755234" r="1"></circle><circle cx="25.98" cy="48.98045695306248" r="1"></circle><circle cx="25.98" cy="49.038970957406434" r="1"></circle><circle cx="25.98" cy="42.389522644470496" r="1"></circle><circle cx="25.98" cy="51.35099508417598" r="1"></circle><circle cx="25.98" cy="48.98335686807931" r="1"></circle><circle cx="25.98" cy="53.70123999273156" r="1"></circle><circle cx="25.98" cy="53.69076820824081" r="1"></circle><circle cx="25.98" cy="53.69888590943465" r="1"></circle><circle cx="25.98" cy="53.53989460934711" r="1"></circle><circle cx="25.98" cy="51.352586062932424" r="1"></circle><circle cx="25.98" cy="49.269518617359154" r="1"></circle><circle cx="25.98" cy="44.23976450023076" r="1"></circle><circle cx="25.98" cy="51.32555620530697" r="1"></circle><circle cx="25.98" cy="53.649351533648066" r="1"></circle><circle cx="25.98" cy="53.94930274684249" r="1"></circle><circle cx="25.98" cy="51.2744545015091" r="1"></circle><circle cx="25.98" cy="42.34219230223259" r="1"></circle><circle cx="25.98" cy="53.57247277476637" r="1"></circle><circle cx="25.98" cy="54.41091867754878" r="1"></circle><circle cx="25.98" cy="51.61466379719173" r="1"></circle><circle cx="25.98" cy="49.193389322131715" r="1"></circle><circle cx="25.98" cy="54.15290730128059" r="1"></circle><circle cx="25.98" cy="51.73806857670464" r="1"></circle><circle cx="25.98" cy="51.756783774441224" r="1"></circle><circle cx="25.98" cy="54.14993084028361" r="1"></circle><circle cx="25.98" cy="54.13635737342326" r="1"></circle><circle cx="25.98" cy="44.691501092705415" r="1"></circle><circle cx="25.98" cy="42.16848817781107" r="1"></circle><circle cx="25.98" cy="42.373655644146226" r="1"></circle><circle cx="25.98" cy="51.731479341716806" r="1"></circle><circle cx="25.98" cy="51.57177802859554" r="1"></circle><circle cx="25.98" cy="51.5908924430593" r="1"></circle><circle cx="25.98" cy="49.23515359398299" r="1"></circle><circle cx="25.98" cy="51.659431615540655" r="1"></circle><circle cx="25.98" cy="49.188999312034824" r="1"></circle><circle cx="25.98" cy="54.07361018010582" r="1"></circle><circle cx="25.98" cy="54.14487919813787" r="1"></circle><circle cx="25.98" cy="51.729432227427424" r="1"></circle><circle cx="25.98" cy="54.10190873828415" r="1"></circle><circle cx="25.98" cy="54.154334981946064" r="1"></circle><circle cx="25.98" cy="53.939756383624456" r="1"></circle><circle cx="25.98" cy="54.14840718273534" r="1"></circle><circle cx="25.98" cy="51.54991414140667" r="1"></circle><circle cx="25.98" cy="51.722561931302266" r="1"></circle><circle cx="25.98" cy="51.639288639002714" r="1"></circle><circle cx="25.98" cy="51.61079263144997" r="1"></circle><circle cx="25.98" cy="49.177149896173304" r="1"></circle><circle cx="25.98" cy="51.7065268242293" r="1"></circle><circle cx="25.98" cy="49.05666750479191" r="1"></circle><circle cx="25.98" cy="54.14657645804366" r="1"></circle><circle cx="25.98" cy="45.73564743774368" r="1"></circle><circle cx="25.98" cy="52.28128114833779" r="1"></circle><circle cx="25.98" cy="49.7459301009395" r="1"></circle><circle cx="25.98" cy="54.761729198937296" r="1"></circle><circle cx="25.98" cy="52.25903188157968" r="1"></circle><circle cx="25.98" cy="54.76862255699237" r="1"></circle><circle cx="25.98" cy="54.75296488048303" r="1"></circle><circle cx="25.98" cy="53.0278337000982" r="1"></circle><circle cx="25.98" cy="52.143259325101944" r="1"></circle><circle cx="25.98" cy="54.75671651673272" r="1"></circle><circle cx="25.98" cy="52.16896385777639" r="1"></circle><circle cx="25.98" cy="52.24849670131565" r="1"></circle><circle cx="25.98" cy="54.77463357542253" r="1"></circle><circle cx="25.98" cy="37.28913248568429" r="1"></circle><circle cx="25.98" cy="54.97074722248111" r="1"></circle><circle cx="25.98" cy="52.221876659091556" r="1"></circle><circle cx="25.98" cy="54.94773514559014" r="1"></circle><circle cx="25.98" cy="52.36326179493169" r="1"></circle><circle cx="25.98" cy="54.7783198531815" r="1"></circle><circle cx="25.98" cy="52.159579418747114" r="1"></circle><circle cx="25.98" cy="49.8342977244891" r="1"></circle><circle cx="25.98" cy="54.770511868799616" r="1"></circle><circle cx="25.98" cy="44.48741753707621" r="1"></circle><circle cx="25.98" cy="54.758751560309854" r="1"></circle><circle cx="25.98" cy="54.81422698364987" r="1"></circle><circle cx="25.98" cy="52.25454206730099" r="1"></circle><circle cx="25.98" cy="54.91818643453872" r="1"></circle><circle cx="25.98" cy="54.96323079977486" r="1"></circle><circle cx="25.98" cy="54.81406505946111" r="1"></circle><circle cx="25.98" cy="54.778705036478996" r="1"></circle><circle cx="25.98" cy="53.048723098078355" r="1"></circle><circle cx="25.98" cy="52.24842143110183" r="1"></circle><circle cx="25.98" cy="56.57265173996065" r="1"></circle><circle cx="25.98" cy="48.866712472514955" r="1"></circle><circle cx="25.98" cy="51.43628457796523" r="1"></circle><circle cx="25.98" cy="52.292853526632726" r="1"></circle><circle cx="25.98" cy="49.64308331456709" r="1"></circle><circle cx="25.98" cy="54.968195689809775" r="1"></circle><circle cx="25.98" cy="54.97109697872881" r="1"></circle><circle cx="25.98" cy="54.973615635883036" r="1"></circle><circle cx="25.98" cy="52.29965738477257" r="1"></circle><circle cx="25.98" cy="54.96255611565504" r="1"></circle><circle cx="25.98" cy="52.30860148814429" r="1"></circle><circle cx="25.98" cy="54.95728955594967" r="1"></circle><circle cx="25.98" cy="49.627414058024854" r="1"></circle><circle cx="25.98" cy="54.128330447911" r="1"></circle><circle cx="25.98" cy="48.8150718065082" r="1"></circle><circle cx="25.98" cy="52.293355393482" r="1"></circle><circle cx="25.98" cy="54.09215717295783" r="1"></circle><circle cx="25.98" cy="51.32255108863537" r="1"></circle><circle cx="25.98" cy="54.95370347491599" r="1"></circle><circle cx="25.98" cy="54.95681291001949" r="1"></circle><circle cx="25.98" cy="54.10186948393537" r="1"></circle><circle cx="25.98" cy="52.277675734537326" r="1"></circle><circle cx="25.98" cy="53.961144213698375" r="1"></circle><circle cx="25.98" cy="54.96518429244237" r="1"></circle><circle cx="25.98" cy="54.110140178953614" r="1"></circle><circle cx="25.98" cy="54.97580907075753" r="1"></circle><circle cx="25.98" cy="54.112051080652684" r="1"></circle><circle cx="25.98" cy="51.350868194493515" r="1"></circle><circle cx="25.98" cy="48.791841377302106" r="1"></circle><circle cx="25.98" cy="52.34470979715021" r="1"></circle><circle cx="25.98" cy="51.23148306029667" r="1"></circle><circle cx="25.98" cy="53.99998197571152" r="1"></circle><circle cx="25.98" cy="51.777581120973466" r="1"></circle><circle cx="25.98" cy="47.28322217005264" r="1"></circle><circle cx="25.98" cy="52.82558646290538" r="1"></circle><circle cx="25.98" cy="52.77345727652793" r="1"></circle><circle cx="25.98" cy="52.78766126636573" r="1"></circle><circle cx="25.98" cy="55.55554751953184" r="1"></circle><circle cx="25.98" cy="55.567453657927366" r="1"></circle><circle cx="25.98" cy="55.57535830614314" r="1"></circle><circle cx="25.98" cy="55.573252801009936" r="1"></circle><circle cx="25.98" cy="55.56157414156565" r="1"></circle><circle cx="25.98" cy="55.55130873681367" r="1"></circle><circle cx="25.98" cy="50.06529651504529" r="1"></circle><circle cx="25.98" cy="55.5609135890114" r="1"></circle><circle cx="25.98" cy="52.79546768057366" r="1"></circle><circle cx="25.98" cy="55.586481222144435" r="1"></circle><circle cx="25.98" cy="52.78839934625885" r="1"></circle><circle cx="25.98" cy="55.57744212324863" r="1"></circle><circle cx="25.98" cy="55.62659082505836" r="1"></circle><circle cx="25.98" cy="52.809757833707046" r="1"></circle><circle cx="25.98" cy="55.54670233711907" r="1"></circle><circle cx="25.98" cy="55.56638171979779" r="1"></circle><circle cx="25.98" cy="55.554646043411886" r="1"></circle><circle cx="25.98" cy="55.56487935773374" r="1"></circle><circle cx="25.98" cy="55.55863634610223" r="1"></circle><circle cx="25.98" cy="52.7971283357992" r="1"></circle><circle cx="25.98" cy="52.817994279305964" r="1"></circle><circle cx="25.98" cy="52.362776022365416" r="1"></circle><circle cx="25.98" cy="70.60975819084464" r="1"></circle><circle cx="25.98" cy="55.56693922968648" r="1"></circle><circle cx="25.98" cy="55.57001372841955" r="1"></circle><circle cx="25.98" cy="55.56774060721702" r="1"></circle><circle cx="25.98" cy="52.8344542165687" r="1"></circle><circle cx="25.98" cy="45.20998813512293" r="1"></circle><circle cx="25.98" cy="52.50368313837318" r="1"></circle><circle cx="25.98" cy="52.53909782303599" r="1"></circle><circle cx="25.98" cy="52.5003915630913" r="1"></circle><circle cx="25.98" cy="52.5053169043698" r="1"></circle><circle cx="25.98" cy="55.293429647700904" r="1"></circle><circle cx="25.98" cy="44.6335727632454" r="1"></circle><circle cx="25.98" cy="55.29161982594995" r="1"></circle><circle cx="25.98" cy="55.28352204633813" r="1"></circle><circle cx="25.98" cy="55.29704458068094" r="1"></circle><circle cx="25.98" cy="55.3094198085445" r="1"></circle><circle cx="25.98" cy="50.55780169281417" r="1"></circle><circle cx="25.98" cy="55.291150245802555" r="1"></circle><circle cx="25.98" cy="52.528158911794634" r="1"></circle><circle cx="25.98" cy="55.98078723030173" r="1"></circle><circle cx="25.98" cy="55.293992358790796" r="1"></circle><circle cx="25.98" cy="55.964332690511945" r="1"></circle><circle cx="25.98" cy="55.369048145714714" r="1"></circle><circle cx="25.98" cy="55.294479995938644" r="1"></circle><circle cx="25.98" cy="52.50859209096107" r="1"></circle><circle cx="25.98" cy="55.95320054973868" r="1"></circle><circle cx="25.98" cy="55.276484919230604" r="1"></circle><circle cx="25.98" cy="55.27993007715214" r="1"></circle><circle cx="25.98" cy="55.286819117228845" r="1"></circle><circle cx="25.98" cy="52.50620395451658" r="1"></circle><circle cx="25.98" cy="44.5276764046514" r="1"></circle><circle cx="25.98" cy="45.33373403492682" r="1"></circle><circle cx="25.98" cy="49.71879249012661" r="1"></circle><circle cx="25.98" cy="55.30579898741214" r="1"></circle><circle cx="25.98" cy="55.28923865715237" r="1"></circle><circle cx="25.98" cy="55.32710330385901" r="1"></circle><circle cx="25.98" cy="55.31358194714666" r="1"></circle><circle cx="25.98" cy="56.06932914315995" r="1"></circle><circle cx="25.98" cy="51.6067383441711" r="1"></circle><circle cx="25.98" cy="37.814916322726575" r="1"></circle><circle cx="25.98" cy="54.38662779211012" r="1"></circle><circle cx="25.98" cy="54.36919974447035" r="1"></circle><circle cx="25.98" cy="54.38518460597686" r="1"></circle><circle cx="25.98" cy="48.76073544623419" r="1"></circle><circle cx="25.98" cy="45.94509097842837" r="1"></circle><circle cx="25.98" cy="54.38527734437588" r="1"></circle><circle cx="25.98" cy="54.36888237306039" r="1"></circle><circle cx="25.98" cy="54.376543938721284" r="1"></circle><circle cx="25.98" cy="54.38066800060512" r="1"></circle><circle cx="25.98" cy="51.582035975021256" r="1"></circle><circle cx="25.98" cy="54.38223091250219" r="1"></circle><circle cx="25.98" cy="54.38005700666621" r="1"></circle><circle cx="25.98" cy="54.38043581113203" r="1"></circle><circle cx="25.98" cy="54.385696384549206" r="1"></circle><circle cx="25.98" cy="43.22602221850405" r="1"></circle><circle cx="25.98" cy="51.57314849604765" r="1"></circle><circle cx="25.98" cy="54.37802480902937" r="1"></circle><circle cx="25.98" cy="54.4002785900376" r="1"></circle><circle cx="25.98" cy="51.5639999756546" r="1"></circle><circle cx="25.98" cy="51.54956595533291" r="1"></circle><circle cx="25.98" cy="43.38472441031276" r="1"></circle><circle cx="25.98" cy="54.38858148104938" r="1"></circle><circle cx="25.98" cy="54.37888663825706" r="1"></circle><circle cx="25.98" cy="54.38616498333788" r="1"></circle><circle cx="25.98" cy="54.44777360426867" r="1"></circle><circle cx="25.98" cy="54.386262628530496" r="1"></circle><circle cx="25.98" cy="48.83211025473622" r="1"></circle><circle cx="25.98" cy="48.75653415141911" r="1"></circle><circle cx="25.98" cy="54.36860651312426" r="1"></circle><circle cx="25.98" cy="55.21610878671595" r="1"></circle><circle cx="25.98" cy="55.914931583239515" r="1"></circle><circle cx="25.98" cy="53.073752652225366" r="1"></circle><circle cx="25.98" cy="55.914259058108875" r="1"></circle><circle cx="25.98" cy="44.7224852371562" r="1"></circle><circle cx="25.98" cy="55.92879798567772" r="1"></circle><circle cx="25.98" cy="53.13918523554349" r="1"></circle><circle cx="25.98" cy="55.92813154497114" r="1"></circle><circle cx="25.98" cy="55.933086228875375" r="1"></circle><circle cx="25.98" cy="55.934904784718924" r="1"></circle><circle cx="25.98" cy="55.91077866940931" r="1"></circle><circle cx="25.98" cy="55.91922816798629" r="1"></circle><circle cx="25.98" cy="56.063089075604594" r="1"></circle><circle cx="25.98" cy="55.92216910379761" r="1"></circle><circle cx="25.98" cy="55.94151443196812" r="1"></circle><circle cx="25.98" cy="56.047007942807674" r="1"></circle><circle cx="25.98" cy="55.94824056649736" r="1"></circle><circle cx="25.98" cy="55.92900407100886" r="1"></circle><circle cx="25.98" cy="55.900145353273295" r="1"></circle><circle cx="25.98" cy="56.080235669563535" r="1"></circle><circle cx="25.98" cy="56.058887977061254" r="1"></circle><circle cx="25.98" cy="50.271817863870204" r="1"></circle><circle cx="25.98" cy="55.92633624732924" r="1"></circle><circle cx="25.98" cy="55.9967967239121" r="1"></circle><circle cx="25.98" cy="55.99274037577992" r="1"></circle><circle cx="25.98" cy="57.06063628878703" r="1"></circle><circle cx="25.98" cy="55.80922619705237" r="1"></circle><circle cx="25.98" cy="55.7915866666085" r="1"></circle><circle cx="25.98" cy="55.78783375459247" r="1"></circle><circle cx="25.98" cy="55.813988436511664" r="1"></circle><circle cx="25.98" cy="55.79483643600893" r="1"></circle><circle cx="25.98" cy="55.82219966119148" r="1"></circle><circle cx="25.98" cy="55.821870415341" r="1"></circle><circle cx="25.98" cy="55.813459091618235" r="1"></circle><circle cx="25.98" cy="56.55030227647726" r="1"></circle><circle cx="25.98" cy="55.81318843288332" r="1"></circle><circle cx="25.98" cy="55.86950075893954" r="1"></circle><circle cx="25.98" cy="55.7905799888338" r="1"></circle><circle cx="25.98" cy="45.058176553564884" r="1"></circle><circle cx="25.98" cy="55.803032449628596" r="1"></circle><circle cx="25.98" cy="55.80840901964644" r="1"></circle><circle cx="25.98" cy="55.80539281362131" r="1"></circle><circle cx="25.98" cy="55.83645105065545" r="1"></circle><circle cx="25.98" cy="55.459977704338066" r="1"></circle><circle cx="25.98" cy="55.44080087545973" r="1"></circle><circle cx="25.98" cy="56.181901586988474" r="1"></circle><circle cx="25.98" cy="56.18532878604543" r="1"></circle><circle cx="25.98" cy="56.16825461636" r="1"></circle><circle cx="25.98" cy="56.19422136808437" r="1"></circle><circle cx="25.98" cy="55.45054115516078" r="1"></circle><circle cx="25.98" cy="55.495964226726855" r="1"></circle><circle cx="25.98" cy="56.17675671576436" r="1"></circle><circle cx="25.98" cy="57.020513339394526" r="1"></circle><circle cx="25.98" cy="55.80151311005869" r="1"></circle><circle cx="25.98" cy="55.45902990808655" r="1"></circle><circle cx="25.98" cy="55.50488723088611" r="1"></circle><circle cx="25.98" cy="60.33370010300591" r="1"></circle><circle cx="25.98" cy="55.43387209035487" r="1"></circle><circle cx="25.98" cy="56.1867477326183" r="1"></circle><circle cx="25.98" cy="55.498912817136194" r="1"></circle><circle cx="25.98" cy="55.41017266981659" r="1"></circle><circle cx="25.98" cy="56.014185909746566" r="1"></circle><circle cx="25.98" cy="56.22553681923894" r="1"></circle><circle cx="25.98" cy="56.927068067693114" r="1"></circle><circle cx="25.98" cy="56.95507261079902" r="1"></circle><circle cx="25.98" cy="56.9268520706389" r="1"></circle><circle cx="25.98" cy="52.143630474969754" r="1"></circle><circle cx="25.98" cy="56.92774549961736" r="1"></circle><circle cx="25.98" cy="56.9228150552735" r="1"></circle><circle cx="25.98" cy="56.937358987771816" r="1"></circle><circle cx="25.98" cy="56.95408467697586" r="1"></circle><circle cx="25.98" cy="56.2338442170733" r="1"></circle><circle cx="25.98" cy="56.238219703061134" r="1"></circle><circle cx="25.98" cy="56.86833551476228" r="1"></circle><circle cx="25.98" cy="56.94797709284768" r="1"></circle><circle cx="25.98" cy="56.25736552100393" r="1"></circle><circle cx="25.98" cy="56.9349660426696" r="1"></circle><circle cx="25.98" cy="56.4232356550375" r="1"></circle><circle cx="25.98" cy="56.93431442047969" r="1"></circle><circle cx="25.98" cy="56.942876382765945" r="1"></circle><circle cx="25.98" cy="56.27029276314734" r="1"></circle><circle cx="25.98" cy="59.04779760753326" r="1"></circle><circle cx="25.98" cy="56.28780039897928" r="1"></circle><circle cx="25.98" cy="57.2743567870441" r="1"></circle><circle cx="25.98" cy="56.30338761393255" r="1"></circle><circle cx="25.98" cy="56.30044579489837" r="1"></circle><circle cx="25.98" cy="56.30469448933963" r="1"></circle><circle cx="25.98" cy="56.28866890144625" r="1"></circle><circle cx="25.98" cy="56.309171742226695" r="1"></circle><circle cx="25.98" cy="56.32252862321762" r="1"></circle><circle cx="25.98" cy="56.30791619188067" r="1"></circle><circle cx="25.98" cy="56.317913391294546" r="1"></circle><circle cx="25.98" cy="56.562674952808145" r="1"></circle><circle cx="25.98" cy="56.54874427137379" r="1"></circle><circle cx="25.98" cy="56.85200364481247" r="1"></circle><circle cx="25.98" cy="56.297384937051504" r="1"></circle><circle cx="25.98" cy="56.54366338473821" r="1"></circle><circle cx="25.98" cy="56.30083961415261" r="1"></circle><circle cx="25.98" cy="56.308667912659985" r="1"></circle><circle cx="25.98" cy="56.32872678675564" r="1"></circle><circle cx="25.98" cy="56.3064660381005" r="1"></circle><circle cx="25.98" cy="56.55741781414648" r="1"></circle><circle cx="25.98" cy="58.464317630504056" r="1"></circle><circle cx="25.98" cy="57.11700013617603" r="1"></circle><circle cx="25.98" cy="56.47317278044265" r="1"></circle><circle cx="25.98" cy="56.47075981562256" r="1"></circle><circle cx="25.98" cy="56.4740641485678" r="1"></circle><circle cx="25.98" cy="56.47925062940163" r="1"></circle><circle cx="25.98" cy="56.47987173133536" r="1"></circle><circle cx="25.98" cy="56.49985239114103" r="1"></circle><circle cx="25.98" cy="56.46197194455901" r="1"></circle><circle cx="25.98" cy="56.477630798698826" r="1"></circle><circle cx="25.98" cy="56.493051280805616" r="1"></circle><circle cx="25.98" cy="56.47883610347841" r="1"></circle><circle cx="25.98" cy="56.48385202416676" r="1"></circle><circle cx="25.98" cy="57.23021821590628" r="1"></circle><circle cx="25.98" cy="56.45084716397615" r="1"></circle><circle cx="25.98" cy="56.47735022824085" r="1"></circle><circle cx="25.98" cy="56.47818212602758" r="1"></circle><circle cx="25.98" cy="56.453921368301614" r="1"></circle><circle cx="25.98" cy="56.46571396349326" r="1"></circle><circle cx="25.98" cy="56.47630419798148" r="1"></circle><circle cx="25.98" cy="56.48311679021393" r="1"></circle><circle cx="25.98" cy="59.79070755199773" r="1"></circle><circle cx="25.98" cy="56.48019263563671" r="1"></circle><circle cx="25.98" cy="59.701968876716194" r="1"></circle><circle cx="25.98" cy="57.000729932691506" r="1"></circle><circle cx="25.98" cy="56.78196564315846" r="1"></circle><circle cx="25.98" cy="56.769643703073385" r="1"></circle><circle cx="25.98" cy="56.73066001301863" r="1"></circle><circle cx="25.98" cy="56.75535786791836" r="1"></circle><circle cx="25.98" cy="56.76424289349517" r="1"></circle><circle cx="25.98" cy="56.750882479612855" r="1"></circle><circle cx="25.98" cy="44.47739295775405" r="1"></circle><circle cx="25.98" cy="56.78372443425599" r="1"></circle><circle cx="25.98" cy="56.74365810926161" r="1"></circle><circle cx="25.98" cy="56.76407459047473" r="1"></circle><circle cx="25.98" cy="58.34264926710986" r="1"></circle><circle cx="25.98" cy="56.7355715171392" r="1"></circle><circle cx="25.98" cy="56.760154454932845" r="1"></circle><circle cx="25.98" cy="56.78386280583547" r="1"></circle><circle cx="25.98" cy="56.7334337253041" r="1"></circle><circle cx="25.98" cy="56.79934952965583" r="1"></circle><circle cx="25.98" cy="56.75076402961539" r="1"></circle><circle cx="25.98" cy="56.76695409323019" r="1"></circle><circle cx="25.98" cy="56.7686726486202" r="1"></circle><circle cx="25.98" cy="56.77385971826927" r="1"></circle><circle cx="25.98" cy="56.7276984686742" r="1"></circle><circle cx="25.98" cy="58.4869649363589" r="1"></circle><circle cx="25.98" cy="57.666184570026424" r="1"></circle><circle cx="25.98" cy="57.83045636511314" r="1"></circle><circle cx="25.98" cy="57.78538579759919" r="1"></circle><circle cx="25.98" cy="57.853062355765886" r="1"></circle><circle cx="25.98" cy="57.84849992094193" r="1"></circle><circle cx="25.98" cy="57.876821933593675" r="1"></circle><circle cx="25.98" cy="57.867683619331316" r="1"></circle><circle cx="25.98" cy="57.857057859657445" r="1"></circle><circle cx="25.98" cy="57.78657863912304" r="1"></circle><circle cx="25.98" cy="57.85622203643584" r="1"></circle><circle cx="25.98" cy="57.862389581581795" r="1"></circle><circle cx="25.98" cy="58.98410389373065" r="1"></circle><circle cx="25.98" cy="57.87052798944462" r="1"></circle><circle cx="25.98" cy="57.853183455431896" r="1"></circle><circle cx="25.98" cy="57.84839854658619" r="1"></circle><circle cx="25.98" cy="57.857670129362695" r="1"></circle><circle cx="25.98" cy="57.29485050118846" r="1"></circle><circle cx="25.98" cy="57.86643022797446" r="1"></circle><circle cx="25.98" cy="57.8183542493813" r="1"></circle><circle cx="25.98" cy="57.859541286033625" r="1"></circle><circle cx="25.98" cy="57.80608383062901" r="1"></circle><circle cx="25.98" cy="57.75808106139635" r="1"></circle><circle cx="25.98" cy="57.779174974533696" r="1"></circle><circle cx="25.98" cy="57.886185273410476" r="1"></circle><circle cx="25.98" cy="57.250871204570856" r="1"></circle><circle cx="25.98" cy="57.17528479698718" r="1"></circle><circle cx="25.98" cy="58.040322184454936" r="1"></circle><circle cx="25.98" cy="56.26184719000525" r="1"></circle><circle cx="25.98" cy="56.11374995306556" r="1"></circle><circle cx="25.98" cy="56.11354484909313" r="1"></circle><circle cx="25.98" cy="56.1370278800337" r="1"></circle><circle cx="25.98" cy="56.10592518744957" r="1"></circle><circle cx="25.98" cy="56.109444339818566" r="1"></circle><circle cx="25.98" cy="56.096655567390506" r="1"></circle><circle cx="25.98" cy="56.25981057625417" r="1"></circle><circle cx="25.98" cy="56.50444083197106" r="1"></circle><circle cx="25.98" cy="56.12923147568472" r="1"></circle><circle cx="25.98" cy="56.49962569727678" r="1"></circle><circle cx="25.98" cy="56.12395206018012" r="1"></circle><circle cx="25.98" cy="56.10506571348283" r="1"></circle><circle cx="25.98" cy="56.47231006799213" r="1"></circle><circle cx="25.98" cy="56.109826775311646" r="1"></circle><circle cx="25.98" cy="56.2351891691987" r="1"></circle><circle cx="25.98" cy="56.401212984007785" r="1"></circle><circle cx="25.98" cy="56.10570408733001" r="1"></circle><circle cx="25.98" cy="57.50991173172844" r="1"></circle><circle cx="25.98" cy="44.439053725970545" r="1"></circle><circle cx="25.98" cy="57.49935545225192" r="1"></circle><circle cx="25.98" cy="57.485347537886334" r="1"></circle><circle cx="25.98" cy="57.49734405941994" r="1"></circle><circle cx="25.98" cy="57.49265257592434" r="1"></circle><circle cx="25.98" cy="57.49108887894031" r="1"></circle><circle cx="25.98" cy="57.50645352173594" r="1"></circle><circle cx="25.98" cy="57.56493749650307" r="1"></circle><circle cx="25.98" cy="57.4982948978835" r="1"></circle><circle cx="25.98" cy="57.54902280214502" r="1"></circle><circle cx="25.98" cy="57.49201027664227" r="1"></circle><circle cx="25.98" cy="57.49118279496978" r="1"></circle><circle cx="25.98" cy="57.529684049077915" r="1"></circle><circle cx="25.98" cy="57.488587886243046" r="1"></circle><circle cx="25.98" cy="57.5718040634651" r="1"></circle><circle cx="25.98" cy="57.49333059666381" r="1"></circle><circle cx="25.98" cy="57.49116895781184" r="1"></circle><circle cx="25.98" cy="57.530481893717074" r="1"></circle><circle cx="25.98" cy="57.565270471516676" r="1"></circle><circle cx="25.98" cy="57.499497062315186" r="1"></circle><circle cx="25.98" cy="57.5191295360471" r="1"></circle><circle cx="25.98" cy="57.48149678440593" r="1"></circle><circle cx="25.98" cy="58.29348417660953" r="1"></circle><circle cx="25.98" cy="59.07578988365517" r="1"></circle><circle cx="25.98" cy="57.641213897402594" r="1"></circle><circle cx="25.98" cy="57.65516656127227" r="1"></circle><circle cx="25.98" cy="57.651919343404515" r="1"></circle><circle cx="25.98" cy="57.64903944810556" r="1"></circle><circle cx="25.98" cy="57.65464752064539" r="1"></circle><circle cx="25.98" cy="57.65251228034298" r="1"></circle><circle cx="25.98" cy="57.65817579965048" r="1"></circle><circle cx="25.98" cy="57.668246502832474" r="1"></circle><circle cx="25.98" cy="59.05711806197401" r="1"></circle><circle cx="25.98" cy="57.814227635964784" r="1"></circle><circle cx="25.98" cy="57.64697731902777" r="1"></circle><circle cx="25.98" cy="57.81318327401524" r="1"></circle><circle cx="25.98" cy="57.6070450476345" r="1"></circle><circle cx="25.98" cy="57.645005965631555" r="1"></circle><circle cx="25.98" cy="57.64540900965775" r="1"></circle><circle cx="25.98" cy="57.80624281074161" r="1"></circle><circle cx="25.98" cy="57.648289690043676" r="1"></circle><circle cx="25.98" cy="44.884410112864664" r="1"></circle><circle cx="25.98" cy="59.05547978172727" r="1"></circle><circle cx="25.98" cy="57.80161531183454" r="1"></circle><circle cx="25.98" cy="64.42419578946964" r="1"></circle><circle cx="25.98" cy="57.65123003703977" r="1"></circle><circle cx="25.98" cy="57.523106982938216" r="1"></circle><circle cx="25.98" cy="57.15308607020314" r="1"></circle><circle cx="25.98" cy="57.150942979030965" r="1"></circle><circle cx="25.98" cy="57.158283149711146" r="1"></circle><circle cx="25.98" cy="57.144314784101965" r="1"></circle><circle cx="25.98" cy="57.148597924234274" r="1"></circle><circle cx="25.98" cy="57.14614344794033" r="1"></circle><circle cx="25.98" cy="57.14579506559482" r="1"></circle><circle cx="25.98" cy="57.14990028539124" r="1"></circle><circle cx="25.98" cy="57.14642902332778" r="1"></circle><circle cx="25.98" cy="57.27234431471753" r="1"></circle><circle cx="25.98" cy="57.151982924866275" r="1"></circle><circle cx="25.98" cy="57.31241191547824" r="1"></circle><circle cx="25.98" cy="57.14899017331455" r="1"></circle><circle cx="25.98" cy="57.16538013970058" r="1"></circle><circle cx="25.98" cy="57.32306358302231" r="1"></circle><circle cx="25.98" cy="57.15680512534334" r="1"></circle><circle cx="25.98" cy="57.190931286007114" r="1"></circle><circle cx="25.98" cy="57.1557670440896" r="1"></circle><circle cx="25.98" cy="57.160493169548" r="1"></circle><circle cx="25.98" cy="57.15145446319569" r="1"></circle><circle cx="25.98" cy="60.17270683113009" r="1"></circle><circle cx="25.98" cy="57.16855758296335" r="1"></circle><circle cx="25.98" cy="57.12515885816435" r="1"></circle><circle cx="25.98" cy="57.4318288456976" r="1"></circle><circle cx="25.98" cy="58.52939358806343" r="1"></circle><circle cx="25.98" cy="58.52433380064032" r="1"></circle><circle cx="25.98" cy="58.45344358707409" r="1"></circle><circle cx="25.98" cy="58.478836538355026" r="1"></circle><circle cx="25.98" cy="58.45337145720819" r="1"></circle><circle cx="25.98" cy="58.46319956851466" r="1"></circle><circle cx="25.98" cy="58.46198199675108" r="1"></circle><circle cx="25.98" cy="58.457913774178394" r="1"></circle><circle cx="25.98" cy="58.467325004300704" r="1"></circle><circle cx="25.98" cy="58.4728435769253" r="1"></circle><circle cx="25.98" cy="58.4808749185518" r="1"></circle><circle cx="25.98" cy="58.51058103954186" r="1"></circle><circle cx="25.98" cy="58.6510235803317" r="1"></circle><circle cx="25.98" cy="57.27372979695805" r="1"></circle><circle cx="25.98" cy="58.417341068084625" r="1"></circle><circle cx="25.98" cy="58.457397972035295" r="1"></circle><circle cx="25.98" cy="58.65075841720562" r="1"></circle><circle cx="25.98" cy="58.45601121402843" r="1"></circle><circle cx="25.98" cy="58.50156637647818" r="1"></circle><circle cx="25.98" cy="58.47098763131453" r="1"></circle><circle cx="25.98" cy="58.53002813461163" r="1"></circle><circle cx="25.98" cy="58.46504805579916" r="1"></circle><circle cx="25.98" cy="62.07634834026639" r="1"></circle><circle cx="25.98" cy="58.551792610162174" r="1"></circle><circle cx="25.98" cy="58.410422489110445" r="1"></circle><circle cx="25.98" cy="59.24688526219201" r="1"></circle><circle cx="25.98" cy="58.84898757925634" r="1"></circle><circle cx="25.98" cy="58.83402136810092" r="1"></circle><circle cx="25.98" cy="58.53101440012497" r="1"></circle><circle cx="25.98" cy="58.537930329430594" r="1"></circle><circle cx="25.98" cy="58.52925266495129" r="1"></circle><circle cx="25.98" cy="58.529914493271875" r="1"></circle><circle cx="25.98" cy="58.54137902024351" r="1"></circle><circle cx="25.98" cy="58.5423791229148" r="1"></circle><circle cx="25.98" cy="58.820168115869556" r="1"></circle><circle cx="25.98" cy="58.53516849158562" r="1"></circle><circle cx="25.98" cy="58.64314847101339" r="1"></circle><circle cx="25.98" cy="58.45559413657253" r="1"></circle><circle cx="25.98" cy="58.55363098945187" r="1"></circle><circle cx="25.98" cy="58.53962906137448" r="1"></circle><circle cx="25.98" cy="58.646808742766275" r="1"></circle><circle cx="25.98" cy="58.535144350161126" r="1"></circle><circle cx="25.98" cy="58.6532632372019" r="1"></circle><circle cx="25.98" cy="58.52281809209768" r="1"></circle><circle cx="25.98" cy="58.84531405916073" r="1"></circle><circle cx="25.98" cy="58.6363037883508" r="1"></circle><circle cx="25.98" cy="64.09556819498977" r="1"></circle><circle cx="25.98" cy="58.83665219455679" r="1"></circle><circle cx="25.98" cy="58.521156651785155" r="1"></circle><circle cx="25.98" cy="58.411556547246974" r="1"></circle><circle cx="25.98" cy="69.4820992001151" r="1"></circle><circle cx="25.98" cy="58.14247976259848" r="1"></circle><circle cx="25.98" cy="58.13428502474515" r="1"></circle><circle cx="25.98" cy="58.14345964928014" r="1"></circle><circle cx="25.98" cy="58.144568093954085" r="1"></circle><circle cx="25.98" cy="58.149333473761274" r="1"></circle><circle cx="25.98" cy="58.146645237820294" r="1"></circle><circle cx="25.98" cy="58.13930388950965" r="1"></circle><circle cx="25.98" cy="42.915859084607874" r="1"></circle><circle cx="25.98" cy="58.1533665636918" r="1"></circle><circle cx="25.98" cy="58.14892081241963" r="1"></circle><circle cx="25.98" cy="58.14142038586051" r="1"></circle><circle cx="25.98" cy="58.1631970302592" r="1"></circle><circle cx="25.98" cy="58.114088466021116" r="1"></circle><circle cx="25.98" cy="58.152386382602515" r="1"></circle><circle cx="25.98" cy="58.107884708738396" r="1"></circle><circle cx="25.98" cy="58.08131245868395" r="1"></circle><circle cx="25.98" cy="58.1544443899737" r="1"></circle><circle cx="25.98" cy="58.14402501003858" r="1"></circle><circle cx="25.98" cy="58.108685595589584" r="1"></circle><circle cx="25.98" cy="58.2514928183505" r="1"></circle><circle cx="25.98" cy="58.14566122943201" r="1"></circle><circle cx="25.98" cy="42.74067683768267" r="1"></circle><circle cx="25.98" cy="58.09994433906523" r="1"></circle><circle cx="25.98" cy="71" r="1"></circle><circle cx="25.98" cy="58.1390750366562" r="1"></circle><circle cx="25.98" cy="58.14976291633704" r="1"></circle><circle cx="25.98" cy="58.07286266569936" r="1"></circle><circle cx="25.98" cy="58.084044365087976" r="1"></circle><circle cx="25.98" cy="58.62196721694997" r="1"></circle><circle cx="25.98" cy="58.64982779473169" r="1"></circle><circle cx="25.98" cy="58.65110650514352" r="1"></circle><circle cx="25.98" cy="58.656008490084496" r="1"></circle><circle cx="25.98" cy="58.66847861533625" r="1"></circle><circle cx="25.98" cy="58.65255420552688" r="1"></circle><circle cx="25.98" cy="58.64992877654395" r="1"></circle><circle cx="25.98" cy="58.6532807053871" r="1"></circle><circle cx="25.98" cy="58.65057068328254" r="1"></circle><circle cx="25.98" cy="58.63048992488744" r="1"></circle><circle cx="25.98" cy="58.62691385371269" r="1"></circle><circle cx="25.98" cy="44.248351094620894" r="1"></circle><circle cx="25.98" cy="58.63246677389249" r="1"></circle><circle cx="25.98" cy="58.77395132137094" r="1"></circle><circle cx="25.98" cy="58.6451566253616" r="1"></circle><circle cx="25.98" cy="58.648137404336936" r="1"></circle><circle cx="25.98" cy="58.74487896184209" r="1"></circle><circle cx="25.98" cy="58.662841494578316" r="1"></circle><circle cx="25.98" cy="58.64482453357083" r="1"></circle><circle cx="25.98" cy="58.67561358390813" r="1"></circle><circle cx="25.98" cy="58.63337590461046" r="1"></circle><circle cx="25.98" cy="62.22358777154915" r="1"></circle><circle cx="25.98" cy="58.63868947139849" r="1"></circle><circle cx="25.98" cy="58.65342202104274" r="1"></circle><circle cx="25.98" cy="58.57625346693109" r="1"></circle><circle cx="25.98" cy="62.28353083046079" r="1"></circle><circle cx="25.98" cy="59.87937586385905" r="1"></circle><circle cx="25.98" cy="58.68422618430433" r="1"></circle><circle cx="25.98" cy="58.68360439541949" r="1"></circle><circle cx="25.98" cy="58.69654832066115" r="1"></circle><circle cx="25.98" cy="58.69857198047713" r="1"></circle><circle cx="25.98" cy="58.71825950843322" r="1"></circle><circle cx="25.98" cy="58.72807074036971" r="1"></circle><circle cx="25.98" cy="58.70511990026286" r="1"></circle><circle cx="25.98" cy="58.70455718917296" r="1"></circle><circle cx="25.98" cy="58.664860836415926" r="1"></circle><circle cx="25.98" cy="58.68557378609828" r="1"></circle><circle cx="25.98" cy="58.69890780143102" r="1"></circle><circle cx="25.98" cy="58.693010424340606" r="1"></circle><circle cx="25.98" cy="58.80757061025597" r="1"></circle><circle cx="25.98" cy="58.7026153746742" r="1"></circle><circle cx="25.98" cy="58.684635410890465" r="1"></circle><circle cx="25.98" cy="58.69968758906973" r="1"></circle><circle cx="25.98" cy="58.83672648341188" r="1"></circle><circle cx="25.98" cy="58.693596786175654" r="1"></circle><circle cx="25.98" cy="58.675102197879276" r="1"></circle><circle cx="25.98" cy="58.7037240156199" r="1"></circle><circle cx="25.98" cy="58.693779122625784" r="1"></circle><circle cx="25.98" cy="58.68658016946537" r="1"></circle><circle cx="25.98" cy="58.70100486687924" r="1"></circle><circle cx="25.98" cy="58.64580118176872" r="1"></circle><circle cx="25.98" cy="59.3721701287402" r="1"></circle><circle cx="25.98" cy="58.657551087856056" r="1"></circle><circle cx="25.98" cy="58.65662183928433" r="1"></circle><circle cx="25.98" cy="64.58033692942743" r="1"></circle><circle cx="25.98" cy="64.5816466507748" r="1"></circle><circle cx="25.98" cy="64.58475078654122" r="1"></circle><circle cx="25.98" cy="64.5790064032752" r="1"></circle><circle cx="25.98" cy="64.5957820436381" r="1"></circle><circle cx="25.98" cy="64.59484631809882" r="1"></circle><circle cx="25.98" cy="64.58805914305721" r="1"></circle><circle cx="25.98" cy="64.58946415433627" r="1"></circle><circle cx="25.98" cy="58.64794338971804" r="1"></circle><circle cx="25.98" cy="58.61627288297868" r="1"></circle><circle cx="25.98" cy="64.58082662742858" r="1"></circle><circle cx="25.98" cy="58.62294759431099" r="1"></circle><circle cx="25.98" cy="58.76944570721686" r="1"></circle><circle cx="25.98" cy="64.58269032577324" r="1"></circle><circle cx="25.98" cy="64.58177157773983" r="1"></circle><circle cx="25.98" cy="58.62121000056182" r="1"></circle><circle cx="25.98" cy="64.58015469111318" r="1"></circle><circle cx="25.98" cy="58.79669745004886" r="1"></circle><circle cx="25.98" cy="64.5862313624417" r="1"></circle><circle cx="25.98" cy="58.65684627602353" r="1"></circle><circle cx="25.98" cy="64.58527610786389" r="1"></circle><circle cx="25.98" cy="63.9829517862906" r="1"></circle><circle cx="25.98" cy="58.665558680601535" r="1"></circle><circle cx="25.98" cy="58.560146328128106" r="1"></circle><circle cx="25.98" cy="60.4864352412551" r="1"></circle><circle cx="25.98" cy="59.00157708387152" r="1"></circle><circle cx="25.98" cy="59.018960577825396" r="1"></circle><circle cx="25.98" cy="58.92383855661544" r="1"></circle><circle cx="25.98" cy="58.920677011363914" r="1"></circle><circle cx="25.98" cy="58.93770417396668" r="1"></circle><circle cx="25.98" cy="58.93005624919198" r="1"></circle><circle cx="25.98" cy="58.920210179020934" r="1"></circle><circle cx="25.98" cy="58.929610614197344" r="1"></circle><circle cx="25.98" cy="58.93300081603056" r="1"></circle><circle cx="25.98" cy="58.93540651879614" r="1"></circle><circle cx="25.98" cy="42.474610665314586" r="1"></circle><circle cx="25.98" cy="58.99720493450333" r="1"></circle><circle cx="25.98" cy="58.95245095331236" r="1"></circle><circle cx="25.98" cy="58.91927769196544" r="1"></circle><circle cx="25.98" cy="58.95067420335026" r="1"></circle><circle cx="25.98" cy="62.37618424381124" r="1"></circle><circle cx="25.98" cy="58.92578105806529" r="1"></circle><circle cx="25.98" cy="58.92810835026917" r="1"></circle><circle cx="25.98" cy="58.943585849317564" r="1"></circle><circle cx="25.98" cy="58.92312000576085" r="1"></circle><circle cx="25.98" cy="59.066761775977035" r="1"></circle><circle cx="25.98" cy="58.928145740036385" r="1"></circle><circle cx="25.98" cy="59.00820086268627" r="1"></circle><circle cx="25.98" cy="58.92603365979975" r="1"></circle><circle cx="25.98" cy="58.94458477435839" r="1"></circle><circle cx="25.98" cy="61.96789191118019" r="1"></circle><circle cx="25.98" cy="58.9846972232126" r="1"></circle><circle cx="25.98" cy="58.92544062472542" r="1"></circle><circle cx="25.98" cy="58.93467835062609" r="1"></circle><circle cx="25.98" cy="59.93567808192045" r="1"></circle><circle cx="25.98" cy="59.23737305025742" r="1"></circle><circle cx="25.98" cy="59.2654035993694" r="1"></circle><circle cx="25.98" cy="59.12814311422833" r="1"></circle><circle cx="25.98" cy="59.13403578079689" r="1"></circle><circle cx="25.98" cy="59.13520909328221" r="1"></circle><circle cx="25.98" cy="59.13179700714955" r="1"></circle><circle cx="25.98" cy="59.13778005685619" r="1"></circle><circle cx="25.98" cy="59.136996147510864" r="1"></circle><circle cx="25.98" cy="59.134145104158264" r="1"></circle><circle cx="25.98" cy="59.13001603734496" r="1"></circle><circle cx="25.98" cy="59.14772259458938" r="1"></circle><circle cx="25.98" cy="59.13691734440567" r="1"></circle><circle cx="25.98" cy="59.1405179495484" r="1"></circle><circle cx="25.98" cy="59.130904068850455" r="1"></circle><circle cx="25.98" cy="59.14092688172691" r="1"></circle><circle cx="25.98" cy="59.14739089534211" r="1"></circle><circle cx="25.98" cy="59.13902088682143" r="1"></circle><circle cx="25.98" cy="59.24161379569305" r="1"></circle><circle cx="25.98" cy="59.13136314845954" r="1"></circle><circle cx="25.98" cy="59.152795728491085" r="1"></circle><circle cx="25.98" cy="59.32362152778761" r="1"></circle><circle cx="25.98" cy="59.24557465762179" r="1"></circle><circle cx="25.98" cy="59.12999464372487" r="1"></circle><circle cx="25.98" cy="59.135748742442196" r="1"></circle><circle cx="25.98" cy="63.58603192918328" r="1"></circle><circle cx="25.98" cy="62.863231006245044" r="1"></circle><circle cx="25.98" cy="58.39857817631427" r="1"></circle><circle cx="25.98" cy="58.840081945146416" r="1"></circle><circle cx="25.98" cy="58.85300663575716" r="1"></circle><circle cx="25.98" cy="58.836959948651305" r="1"></circle><circle cx="25.98" cy="58.841431509657816" r="1"></circle><circle cx="25.98" cy="58.83980618334618" r="1"></circle><circle cx="25.98" cy="58.850879737003865" r="1"></circle><circle cx="25.98" cy="58.84014848126762" r="1"></circle><circle cx="25.98" cy="58.83607937547208" r="1"></circle><circle cx="25.98" cy="59.834808144553094" r="1"></circle><circle cx="25.98" cy="59.816923372565164" r="1"></circle><circle cx="25.98" cy="58.517278027717126" r="1"></circle><circle cx="25.98" cy="58.8404234579809" r="1"></circle><circle cx="25.98" cy="59.8252063345674" r="1"></circle><circle cx="25.98" cy="58.83470616021555" r="1"></circle><circle cx="25.98" cy="58.406252695910254" r="1"></circle><circle cx="25.98" cy="58.83211282166276" r="1"></circle><circle cx="25.98" cy="59.81535790913543" r="1"></circle><circle cx="25.98" cy="62.57788594369176" r="1"></circle><circle cx="25.98" cy="58.83497613199935" r="1"></circle><circle cx="25.98" cy="58.36965410008797" r="1"></circle><circle cx="25.98" cy="59.8855228004719" r="1"></circle><circle cx="25.98" cy="59.26529761262767" r="1"></circle><circle cx="25.98" cy="59.237344198311064" r="1"></circle><circle cx="25.98" cy="59.234909741734995" r="1"></circle><circle cx="25.98" cy="59.23968159850974" r="1"></circle><circle cx="25.98" cy="59.236818975124265" r="1"></circle><circle cx="25.98" cy="59.25787343764108" r="1"></circle><circle cx="25.98" cy="59.282577475100744" r="1"></circle><circle cx="25.98" cy="59.240445880680674" r="1"></circle><circle cx="25.98" cy="59.23751191251626" r="1"></circle><circle cx="25.98" cy="59.294732682339344" r="1"></circle><circle cx="25.98" cy="59.245902922113544" r="1"></circle><circle cx="25.98" cy="59.42120234326988" r="1"></circle><circle cx="25.98" cy="59.23561062813265" r="1"></circle><circle cx="25.98" cy="59.238116429487626" r="1"></circle><circle cx="25.98" cy="59.28481987977537" r="1"></circle><circle cx="25.98" cy="64.98602777822832" r="1"></circle><circle cx="25.98" cy="59.26033900328856" r="1"></circle><circle cx="25.98" cy="59.32775923055766" r="1"></circle><circle cx="25.98" cy="59.89487976145703" r="1"></circle><circle cx="25.98" cy="63.66989806028541" r="1"></circle><circle cx="25.98" cy="59.376484279808054" r="1"></circle><circle cx="25.98" cy="59.35816103674415" r="1"></circle><circle cx="25.98" cy="60.16816785077955" r="1"></circle><circle cx="25.98" cy="60.16992978222498" r="1"></circle><circle cx="25.98" cy="60.16468962106917" r="1"></circle><circle cx="25.98" cy="60.16436763727322" r="1"></circle><circle cx="25.98" cy="60.160935727694415" r="1"></circle><circle cx="25.98" cy="60.168066672695545" r="1"></circle><circle cx="25.98" cy="60.17143871939245" r="1"></circle><circle cx="25.98" cy="59.36385595953068" r="1"></circle><circle cx="25.98" cy="59.31343993107029" r="1"></circle><circle cx="25.98" cy="60.15832472468467" r="1"></circle><circle cx="25.98" cy="59.308905563105725" r="1"></circle><circle cx="25.98" cy="60.1613836198141" r="1"></circle><circle cx="25.98" cy="60.154568574184864" r="1"></circle><circle cx="25.98" cy="59.31172500670754" r="1"></circle><circle cx="25.98" cy="59.50433431991378" r="1"></circle><circle cx="25.98" cy="60.16686234927468" r="1"></circle><circle cx="25.98" cy="59.37012497716826" r="1"></circle><circle cx="25.98" cy="43.16544951983782" r="1"></circle><circle cx="25.98" cy="59.31191323130999" r="1"></circle><circle cx="25.98" cy="59.290420297717176" r="1"></circle><circle cx="25.98" cy="59.28113203184244" r="1"></circle><circle cx="25.98" cy="61.31622968183601" r="1"></circle><circle cx="26.506469366557187" cy="53.1636699393293" r="1"></circle><circle cx="26.527095500794918" cy="53.19219676154585" r="1"></circle><circle cx="26.803094584076725" cy="53.24312447044272" r="1"></circle><circle cx="27.364667074883787" cy="53.50887523411828" r="1"></circle><circle cx="27.368433185635563" cy="53.90267456676857" r="1"></circle><circle cx="27.37684795288891" cy="53.383911860686666" r="1"></circle><circle cx="27.59634151922777" cy="53.22205558195271" r="1"></circle><circle cx="27.628559322050346" cy="59.18628537988925" r="1"></circle><circle cx="27.663425076277317" cy="46.29688688210737" r="1"></circle><circle cx="27.70185630563269" cy="53.528423114728554" r="1"></circle><circle cx="27.9141335239561" cy="53.48093065203015" r="1"></circle><circle cx="27.93718896598312" cy="54.622827882016814" r="1"></circle><circle cx="28.184852475599474" cy="53.22667012692468" r="1"></circle><circle cx="28.28504194143462" cy="53.50998044030845" r="1"></circle><circle cx="28.466726196312635" cy="54.75860779125741" r="1"></circle><circle cx="28.491645704178424" cy="53.26491308741778" r="1"></circle><circle cx="29.01105172926554" cy="54.528149336812305" r="1"></circle><circle cx="29.040256736682935" cy="54.64036309402877" r="1"></circle><circle cx="29.2819654480727" cy="53.34447095560439" r="1"></circle><circle cx="29.37620344793345" cy="53.53151959589695" r="1"></circle><circle cx="29.485606689172755" cy="50.252196381355944" r="1"></circle><circle cx="29.51105763548994" cy="54.87368466253872" r="1"></circle><circle cx="29.68514087226734" cy="53.23093903735556" r="1"></circle><circle cx="29.696551025115873" cy="53.219662931258114" r="1"></circle><circle cx="29.73588933151131" cy="53.28267195108197" r="1"></circle><circle cx="29.99639557654756" cy="54.463512537280025" r="1"></circle><circle cx="30.01751167777764" cy="53.28689777986505" r="1"></circle><circle cx="30.043829495179377" cy="50.222157776031636" r="1"></circle><circle cx="30.46669455902885" cy="53.39968994991093" r="1"></circle><circle cx="30.760041792576267" cy="55.547414312870245" r="1"></circle><circle cx="30.819991875481577" cy="54.503027534945645" r="1"></circle><circle cx="31.041128796211478" cy="55.69645443926786" r="1"></circle><circle cx="31.095085444373588" cy="53.33726640869928" r="1"></circle><circle cx="31.15538555036787" cy="53.52236145818845" r="1"></circle><circle cx="31.402973069023734" cy="53.220906999707125" r="1"></circle><circle cx="31.47772479508106" cy="54.954021337005315" r="1"></circle><circle cx="31.616700099274667" cy="53.92550568111161" r="1"></circle><circle cx="31.6204551046763" cy="53.245208385684094" r="1"></circle><circle cx="31.87218700578535" cy="53.21368164799716" r="1"></circle><circle cx="31.87315655190578" cy="54.168337302566954" r="1"></circle><circle cx="31.912044784878255" cy="60.25195321605905" r="1"></circle><circle cx="31.928715802908" cy="53.87918996565404" r="1"></circle><circle cx="32.11206581348486" cy="54.53149675140534" r="1"></circle><circle cx="32.19792740255139" cy="54.57158967122103" r="1"></circle><circle cx="32.23340037473551" cy="54.63285668118147" r="1"></circle><circle cx="32.281041879513985" cy="54.44073039273709" r="1"></circle><circle cx="32.345399168786116" cy="55.03615429047251" r="1"></circle><circle cx="32.95738138190525" cy="54.547406048290426" r="1"></circle><circle cx="33.017386630605095" cy="54.81330460458918" r="1"></circle><circle cx="33.16143165490649" cy="54.81323482998421" r="1"></circle><circle cx="33.247487579527046" cy="54.92272345217182" r="1"></circle><circle cx="33.255338551241515" cy="54.649037127480824" r="1"></circle><circle cx="33.47361301463939" cy="54.87984582885301" r="1"></circle><circle cx="33.52452195280619" cy="54.85296131045394" r="1"></circle><circle cx="33.54826587468918" cy="54.13308326632658" r="1"></circle><circle cx="33.62644081346019" cy="54.50601204308412" r="1"></circle><circle cx="33.792066486920106" cy="53.21379980358702" r="1"></circle><circle cx="33.81667201132512" cy="53.49201843538928" r="1"></circle><circle cx="33.85282159383703" cy="55.683957915466536" r="1"></circle><circle cx="33.863879082437954" cy="55.44170637515043" r="1"></circle><circle cx="33.863944683151686" cy="50.26491999156501" r="1"></circle><circle cx="33.88661568350821" cy="54.03933818953629" r="1"></circle><circle cx="33.9854228389442" cy="54.59383462000078" r="1"></circle><circle cx="34.26504193255499" cy="53.23023775841443" r="1"></circle><circle cx="34.3014336159544" cy="54.67243075664203" r="1"></circle><circle cx="34.40194675737469" cy="53.435229954082246" r="1"></circle><circle cx="34.45576075502143" cy="55.13875455953452" r="1"></circle><circle cx="34.53253153185571" cy="54.50247169336678" r="1"></circle><circle cx="34.5342815555604" cy="54.048505257609136" r="1"></circle><circle cx="34.71498724937797" cy="54.00555884104406" r="1"></circle><circle cx="34.8025362962146" cy="54.513304716002274" r="1"></circle><circle cx="35.13245856159348" cy="54.243672776726" r="1"></circle><circle cx="35.19885863283898" cy="59.11600105719658" r="1"></circle><circle cx="35.705201341335304" cy="54.83033559449095" r="1"></circle><circle cx="36.03536148385145" cy="54.59006757641917" r="1"></circle><circle cx="36.06886733641198" cy="54.03242922787757" r="1"></circle><circle cx="36.1973447666744" cy="54.98205345629124" r="1"></circle><circle cx="36.77386974341242" cy="41.32369357106303" r="1"></circle><circle cx="36.77459752956982" cy="54.142967903895304" r="1"></circle><circle cx="37.58817860348765" cy="54.611025669509715" r="1"></circle><circle cx="37.598921149484795" cy="53.388370860301556" r="1"></circle><circle cx="37.64481233902246" cy="52.786225244151126" r="1"></circle><circle cx="38.00232550129607" cy="54.06075840444795" r="1"></circle><circle cx="38.03846733560255" cy="55.73062397598706" r="1"></circle><circle cx="38.07232267148445" cy="51.05081315354655" r="1"></circle><circle cx="38.20620166348157" cy="62.48233369481906" r="1"></circle><circle cx="38.39506006903548" cy="54.06267382039715" r="1"></circle><circle cx="38.39922484394379" cy="53.23516005748091" r="1"></circle><circle cx="38.41480052175132" cy="54.45283113456673" r="1"></circle><circle cx="38.51000782232336" cy="56.762417958819924" r="1"></circle><circle cx="39.036235896387595" cy="53.92022214390039" r="1"></circle><circle cx="39.15085995428679" cy="53.275591938598396" r="1"></circle><circle cx="39.353795878570374" cy="53.905647887417636" r="1"></circle><circle cx="39.65603950437304" cy="53.02783762553308" r="1"></circle><circle cx="41.09721752840614" cy="54.66772347327104" r="1"></circle><circle cx="41.29317717534373" cy="53.359925000179395" r="1"></circle><circle cx="41.59581190330387" cy="54.60770131684659" r="1"></circle><circle cx="41.59684362514115" cy="54.49510924584366" r="1"></circle><circle cx="41.84904092197479" cy="56.08612460696896" r="1"></circle><circle cx="41.97588371715983" cy="54.02182633386186" r="1"></circle><circle cx="42.00350751904651" cy="53.26720505070774" r="1"></circle><circle cx="42.04665909170619" cy="54.037726013431495" r="1"></circle><circle cx="42.19930289632284" cy="54.57511471174234" r="1"></circle><circle cx="42.40082790179329" cy="46.59257124572423" r="1"></circle><circle cx="42.58150974949889" cy="53.25934996110731" r="1"></circle><circle cx="42.66184970596106" cy="53.564265573657295" r="1"></circle><circle cx="42.92917134672279" cy="52.88828713981948" r="1"></circle><circle cx="43.39319465481689" cy="52.728707613315336" r="1"></circle><circle cx="43.72003570584518" cy="52.89166026601097" r="1"></circle><circle cx="43.95858843501195" cy="54.04049207111897" r="1"></circle><circle cx="44.25085480769023" cy="53.09535284832624" r="1"></circle><circle cx="44.50680385458631" cy="50.040836443363354" r="1"></circle><circle cx="44.50727589956362" cy="54.59131979014556" r="1"></circle><circle cx="44.73808877364915" cy="54.01618342308747" r="1"></circle><circle cx="44.79353970854622" cy="54.55996557532156" r="1"></circle><circle cx="44.97961662450001" cy="54.56732056451841" r="1"></circle><circle cx="44.98887541586035" cy="53.14710313210199" r="1"></circle><circle cx="45.086380949898114" cy="55.071472115029685" r="1"></circle><circle cx="45.1910078490263" cy="54.63209151578769" r="1"></circle><circle cx="45.24596030461434" cy="60.42484369596604" r="1"></circle><circle cx="45.890664590031875" cy="54.468823356263634" r="1"></circle><circle cx="45.90584814027009" cy="53.44682068378525" r="1"></circle><circle cx="45.916157571315324" cy="55.725130722417425" r="1"></circle><circle cx="46.16127424456106" cy="52.91942584826864" r="1"></circle><circle cx="46.37664304772183" cy="53.07665031011715" r="1"></circle><circle cx="47.08469571558028" cy="53.18582636955252" r="1"></circle><circle cx="47.261437085799585" cy="53.40471009044177" r="1"></circle><circle cx="47.57474382384768" cy="46.46447625848205" r="1"></circle><circle cx="48.03022505629268" cy="55.213655095508976" r="1"></circle><circle cx="49.0479015348958" cy="54.44375111301232" r="1"></circle><circle cx="49.17201151213417" cy="52.791312607754264" r="1"></circle><circle cx="49.185738375481286" cy="53.54627344102543" r="1"></circle><circle cx="49.61945154568085" cy="53.185729803854514" r="1"></circle><circle cx="49.67506223155052" cy="53.27804965337612" r="1"></circle><circle cx="50.404311181244424" cy="50.7098013027029" r="1"></circle><circle cx="51.31433850620661" cy="50.53493063717122" r="1"></circle><circle cx="52.09294148170828" cy="54.826194162557755" r="1"></circle><circle cx="52.33938573491288" cy="56.21286463222679" r="1"></circle><circle cx="53.52935501374216" cy="49.282128978771965" r="1"></circle><circle cx="53.688474293031106" cy="53.16804424768669" r="1"></circle><circle cx="54.02922111575576" cy="54.91814884849976" r="1"></circle><circle cx="54.67861785123582" cy="54.531364169842306" r="1"></circle><circle cx="55.04276226326296" cy="52.87100874938449" r="1"></circle><circle cx="55.15713524329988" cy="54.87900254730514" r="1"></circle><circle cx="55.63364614450175" cy="49.98137856820274" r="1"></circle><circle cx="56.36216396417646" cy="50.74140566586456" r="1"></circle><circle cx="56.98144066164882" cy="54.122642492771384" r="1"></circle><circle cx="57.22956210030297" cy="53.233381246665516" r="1"></circle><circle cx="57.357014559403765" cy="54.43850771337274" r="1"></circle><circle cx="57.71582429532276" cy="50.151866289420326" r="1"></circle><circle cx="58.032328833380475" cy="50.19281299132218" r="1"></circle><circle cx="58.120857800644835" cy="36.33338595276163" r="1"></circle><circle cx="59.2086885691526" cy="50.66709227681213" r="1"></circle><circle cx="59.45782897432986" cy="52.91227321523979" r="1"></circle><circle cx="59.82014264072512" cy="52.94347070707626" r="1"></circle><circle cx="64.59451055693582" cy="50.431440570158024" r="1"></circle><circle cx="66.76361471071834" cy="20.26812064684787" r="1"></circle><circle cx="68.409309140479" cy="53.20688691649342" r="1"></circle><circle cx="68.74413567049336" cy="55.184121791789465" r="1"></circle><circle cx="68.74560303169199" cy="50.18097476295006" r="1"></circle><circle cx="69.3323920475789" cy="41.71918192020587" r="1"></circle><circle cx="69.86376082703391" cy="53.34504465791194" r="1"></circle><circle cx="71.29615130004002" cy="50.97121485338069" r="1"></circle><circle cx="72.41895271223582" cy="54.89209033973509" r="1"></circle><circle cx="74.30798296501584" cy="54.581255563931116" r="1"></circle><circle cx="77.44623008756078" cy="50.01597901953578" r="1"></circle><circle cx="79.33239778678175" cy="53.35423940030069" r="1"></circle><circle cx="82.69682178058251" cy="54.02156823651856" r="1"></circle><circle cx="84.09728595778566" cy="42.89120293745372" r="1"></circle><circle cx="84.65792167972889" cy="53.22573400884192" r="1"></circle><circle cx="86.14621887758307" cy="53.37356353112286" r="1"></circle><circle cx="87.05770863709193" cy="52.92984120463299" r="1"></circle><circle cx="87.48287658017726" cy="55.01517892546851" r="1"></circle><circle cx="89.00905924361" cy="55.993345383430636" r="1"></circle><circle cx="89.40762835599696" cy="41.62530740220044" r="1"></circle><circle cx="97.09979297279692" cy="52.801569867228885" r="1"></circle><circle cx="97.76586213683996" cy="53.55427848223823" r="1"></circle><circle cx="98.1224312124017" cy="52.56871100935529" r="1"></circle><circle cx="109.586480116131" cy="52.971823926935286" r="1"></circle><circle cx="109.72863223949591" cy="55.515809753436834" r="1"></circle><circle cx="122.68154945682522" cy="50.02805375535935" r="1"></circle><circle cx="124.82273324749733" cy="54.01556300810485" r="1"></circle><circle cx="130.47971095069386" cy="54.895110274923354" r="1"></circle><circle cx="131.4791803244974" cy="50.660886556811974" r="1"></circle><circle cx="137.32326635653502" cy="52.85519160208318" r="1"></circle><circle cx="144.76989621896465" cy="52.9563277820712" r="1"></circle><circle cx="184.03967847697785" cy="53.21237339868787" r="1"></circle><circle cx="231.48939912192145" cy="53.008107114065055" r="1"></circle><circle cx="254.62712944508723" cy="49.7335504569617" r="1"></circle><circle cx="276.5533141586479" cy="45.90495684154646" r="1"></circle><circle cx="300" cy="54.566445977627374" r="1"></circle></g></svg>