<svg class="plot-d6a7b5" fill="currentColor" font-family="system-ui, sans-serif" font-size="10" text-anchor="middle" width="640" height="400" viewBox="0 0 640 400" xmlns="http://www.w3.org/2000/svg"><style>:where(.plot-d6a7b5) {
  --plot-background: white;
  display: block;
  height: auto;
  height: intrinsic;
  max-width: 100%;
}
:where(.plot-d6a7b5 text),
:where(.plot-d6a7b5 tspan) {
  white-space: pre;
}</style><g aria-label="y-axis tick" aria-hidden="true" fill="none" stroke="currentColor"><path transform="translate(40,365.58619099203787)" d="M0,0L-6,0"></path><path transform="translate(40,331.912117275415)" d="M0,0L-6,0"></path><path transform="translate(40,298.2380435587921)" d="M0,0L-6,0"></path><path transform="translate(40,264.56396984216923)" d="M0,0L-6,0"></path><path transform="translate(40,230.88989612554633)" d="M0,0L-6,0"></path><path transform="translate(40,197.21582240892343)" d="M0,0L-6,0"></path><path transform="translate(40,163.54174869230053)" d="M0,0L-6,0"></path><path transform="translate(40,129.86767497567766)" d="M0,0L-6,0"></path><path transform="translate(40,96.19360125905476)" d="M0,0L-6,0"></path><path transform="translate(40,62.51952754243183)" d="M0,0L-6,0"></path><path transform="translate(40,28.845453825809013)" d="M0,0L-6,0"></path></g><g aria-label="y-axis tick label" text-anchor="end" font-variant="tabular-nums" transform="translate(-9,0)"><text y="0.32em" transform="translate(40,365.58619099203787)">−0.05</text><text y="0.32em" transform="translate(40,331.912117275415)">0.00</text><text y="0.32em" transform="translate(40,298.2380435587921)">0.05</text><text y="0.32em" transform="translate(40,264.56396984216923)">0.10</text><text y="0.32em" transform="translate(40,230.88989612554633)">0.15</text><text y="0.32em" transform="translate(40,197.21582240892343)">0.20</text><text y="0.32em" transform="translate(40,163.54174869230053)">0.25</text><text y="0.32em" transform="translate(40,129.86767497567766)">0.30</text><text y="0.32em" transform="translate(40,96.19360125905476)">0.35</text><text y="0.32em" transform="translate(40,62.51952754243183)">0.40</text><text y="0.32em" transform="translate(40,28.845453825809013)">0.45</text></g><g aria-label="y-axis label" text-anchor="start" transform="translate(-37,-17)"><text y="0.71em" transform="translate(40,20)">↑ consensus_income</text></g><g aria-label="x-axis tick" aria-hidden="true" fill="none" stroke="currentColor"><path transform="translate(53.74617737003058,370)" d="M0,0L0,6"></path><path transform="translate(93.65443425076452,370)" d="M0,0L0,6"></path><path transform="translate(134.00611620795107,370)" d="M0,0L0,6"></path><path transform="translate(174.8012232415902,370)" d="M0,0L0,6"></path><path transform="translate(215.59633027522938,370)" d="M0,0L0,6"></path><path transform="translate(255.5045871559633,370)" d="M0,0L0,6"></path><path transform="translate(295.85626911314984,370)" d="M0,0L0,6"></path><path transform="translate(336.651376146789,370)" d="M0,0L0,6"></path><path transform="translate(377.4464831804281,370)" d="M0,0L0,6"></path><path transform="translate(417.3547400611621,370)" d="M0,0L0,6"></path><path transform="translate(457.70642201834863,370)" d="M0,0L0,6"></path><path transform="translate(498.50152905198775,370)" d="M0,0L0,6"></path><path transform="translate(539.2966360856268,370)" d="M0,0L0,6"></path><path transform="translate(579.6483180428135,370)" d="M0,0L0,6"></path><path transform="translate(620,370)" d="M0,0L0,6"></path></g><g aria-label="x-axis tick label" font-variant="tabular-nums" transform="translate(0,9)"><text transform="translate(53.74617737003058,370)"><tspan x="0" y="0.71em">Jan</tspan><tspan x="0" dy="1em">2021</tspan></text><text y="0.71em" transform="translate(93.65443425076452,370)">Apr</text><text y="0.71em" transform="translate(134.00611620795107,370)">Jul</text><text y="0.71em" transform="translate(174.8012232415902,370)">Oct</text><text transform="translate(215.59633027522938,370)"><tspan x="0" y="0.71em">Jan</tspan><tspan x="0" dy="1em">2022</tspan></text><text y="0.71em" transform="translate(255.5045871559633,370)">Apr</text><text y="0.71em" transform="translate(295.85626911314984,370)">Jul</text><text y="0.71em" transform="translate(336.651376146789,370)">Oct</text><text transform="translate(377.4464831804281,370)"><tspan x="0" y="0.71em">Jan</tspan><tspan x="0" dy="1em">2023</tspan></text><text y="0.71em" transform="translate(417.3547400611621,370)">Apr</text><text y="0.71em" transform="translate(457.70642201834863,370)">Jul</text><text y="0.71em" transform="translate(498.50152905198775,370)">Oct</text><text transform="translate(539.2966360856268,370)"><tspan x="0" y="0.71em">Jan</tspan><tspan x="0" dy="1em">2024</tspan></text><text y="0.71em" transform="translate(579.6483180428135,370)">Apr</text><text y="0.71em" transform="translate(620,370)">Jul</text></g><g aria-label="x-axis label" text-anchor="end" transform="translate(17,27)"><text transform="translate(620,370)">month →</text></g><g aria-label="line" fill="none" stroke-width="1.5" stroke-linejoin="round" stroke-linecap="round"><path stroke="rgb(35, 23, 27)" d="M40,48.051L53.746,121.702L67.492,176.435L79.908,159.039L93.654,188.57L106.957,178.864L120.703,207.249L134.006,215.366L147.752,204.502L161.498,231.628L174.801,232.471L188.547,239.928L201.85,231.593L215.596,248.558L229.343,188.013L241.758,236.963L255.505,241.538L268.807,218.105L282.554,207.238L295.856,243.064L309.602,236.909L323.349,266.475L336.651,245.918L350.398,263.353L363.7,247.89L377.446,248.25L391.193,270.306L403.609,272.425L417.355,279.621L430.657,224.054L444.404,254.175L457.706,288.167L471.453,248.902L485.199,284.417L498.502,286.611L512.248,253.603L525.55,285.053L539.297,285.48L553.043,285.297L565.902,287.658L579.648,289.276L592.951,283.52L606.697,259.366L620,290.231"></path><path stroke="rgb(62, 42, 113)" d="M40,48.313L53.746,116.742L67.492,178.754L79.908,159.326L93.654,185.896L106.957,161.364L120.703,204.221L134.006,212.21L147.752,211.035L161.498,231.529L174.801,232.245L188.547,209.792L201.85,247.034L215.596,186.806L229.343,236.744L241.758,220.347L255.505,224.139L268.807,235.739L282.554,245.274L295.856,243.308L309.602,142.259L323.349,246.977L336.651,265.75L350.398,263.221L363.7,268.607L377.446,227.206L391.193,168.409L403.609,272.341L417.355,279.311L430.657,268.856L444.404,277.421L457.706,263.736L471.453,274.972L485.199,284.383L498.502,286.508L512.248,281.762L525.55,285.244L539.297,285.476L553.043,285.291L565.902,287.777L579.648,289.468L592.951,253.483L606.697,289.468L620,290.105"></path><path stroke="rgb(41, 220, 188)" d="M40,50.678L53.746,122.003L67.492,170.734L79.908,156.487L93.654,183.22L106.957,175.623L120.703,204.172L134.006,212.139L147.752,201.01L161.498,232.332L174.801,233.468L188.547,224.85L201.85,246.875L215.596,217.051L229.343,218.944L241.758,254.383L255.505,258.561L268.807,241.618L282.554,244.916L295.856,243.042L309.602,255.987L323.349,266.47L336.651,226.163L350.398,268.307L363.7,273.421L377.446,269.141L391.193,270.29L403.609,272.073L417.355,257.391L430.657,245.004L444.404,187.719L457.706,278.322L471.453,274.957L485.199,283.896L498.502,284.429L512.248,281.706L525.55,230.46L539.297,257.383L553.043,325.943L565.902,287.124L579.648,288.526L592.951,286.55L606.697,289.276L620,295.664"></path><path stroke="rgb(50, 233, 167)" d="M40,54.951L53.746,120.448L67.492,172.05L79.908,159.171L93.654,180.755L106.957,175.799L120.703,210.229L134.006,212.338L147.752,208.61L161.498,225.227L174.801,229.878L188.547,224.56L201.85,247.186L215.596,232.854L229.343,235.072L241.758,237.81L255.505,241.386L268.807,223.433L282.554,245.013L295.856,243.076L309.602,255.867L323.349,189.664L336.651,265.629L350.398,248.41L363.7,273.613L377.446,269.121L391.193,270.312L403.609,250.055L417.355,279.776L430.657,267.839L444.404,277.349L457.706,278.418L471.453,275.008L485.199,284.07L498.502,284.476L512.248,281.769L525.55,285.253L539.297,285.565L553.043,325.952L565.902,287.103L579.648,288.567L592.951,286.638L606.697,259.003L620,264.89"></path><path stroke="rgb(63, 243, 147)" d="M40,50.902L53.746,119.804L67.492,172.089L79.908,168.838L93.654,185.725L106.957,172.709L120.703,210.221L134.006,215.249L147.752,208.61L161.498,228.669L174.801,229.627L188.547,209.546L201.85,215.632L215.596,232.594L229.343,235.069L241.758,237.939L255.505,258.608L268.807,259.978L282.554,264.009L295.856,262.21L309.602,255.977L323.349,266.57L336.651,265.603L350.398,247.594L363.7,273.42L377.446,269.15L391.193,270.348L403.609,272.243L417.355,279.745L430.657,267.838L444.404,277.252L457.706,278.396L471.453,274.912L485.199,283.896L498.502,284.416L512.248,281.776L525.55,257.504L539.297,285.578L553.043,325.974L565.902,257.527L579.648,259.329L592.951,286.528L606.697,259.032L620,295.676"></path><path stroke="rgb(80, 249, 128)" d="M40,50.278L53.746,121.893L67.492,176.709L79.908,170.933L93.654,188.308L106.957,178.167L120.703,210.324L134.006,212.218L147.752,212.057L161.498,228.835L174.801,218.348L188.547,194.015L201.85,231.523L215.596,248.583L229.343,189.652L241.758,254.362L255.505,258.501L268.807,259.998L282.554,264.09L295.856,189.054L309.602,217.378L323.349,132.092L336.651,226.075L350.398,247.79L363.7,252.504L377.446,247.937L391.193,270.352L403.609,272.304L417.355,257.409L430.657,267.999L444.404,230.97L457.706,278.376L471.453,249.847L485.199,283.963L498.502,258.539L512.248,281.809L525.55,285.286L539.297,285.714L553.043,325.934L565.902,287.22L579.648,288.575L592.951,286.559L606.697,289.259L620,264.976"></path><path stroke="rgb(101, 253, 110)" d="M40,47.599L53.746,118.03L67.492,171.687L79.908,166.119L93.654,188.315L106.957,180.946L120.703,207.378L134.006,215.331L147.752,208.444L161.498,229.042L174.801,229.672L188.547,178.321L201.85,215.778L215.596,248.625L229.343,251.437L241.758,254.269L255.505,246.662L268.807,260.015L282.554,264.145L295.856,262.197L309.602,198.055L323.349,247.426L336.651,245.869L350.398,268.331L363.7,240.594L377.446,200.469L391.193,248.439L403.609,272.212L417.355,260.687L430.657,267.786L444.404,253.75L457.706,254.314L471.453,274.941L485.199,283.955L498.502,284.421L512.248,281.791L525.55,256.782L539.297,285.781L553.043,326.049L565.902,287.167L579.648,288.552L592.951,256.514L606.697,257.728L620,295.64"></path><path stroke="rgb(124, 253, 94)" d="M40,44.297L53.746,119.964L67.492,173.987L79.908,168.803L93.654,183.337L106.957,172.984L120.703,207.177L134.006,212.145L147.752,205.004L161.498,228.742L174.801,196.111L188.547,224.586L201.85,215.538L215.596,217.048L229.343,251.311L241.758,189.451L255.505,240.591L268.807,241.664L282.554,264.13L295.856,262.142L309.602,255.977L323.349,227.7L336.651,265.782L350.398,248.026L363.7,273.426L377.446,269.04L391.193,270.489L403.609,187.982L417.355,257.608L430.657,267.81L444.404,277.335L457.706,278.414L471.453,220.956L485.199,283.927L498.502,256.806L512.248,281.74L525.55,285.372L539.297,285.623L553.043,326.043L565.902,287.099L579.648,288.593L592.951,286.548L606.697,260.073L620,265.21"></path><path stroke="rgb(149, 251, 81)" d="M40,52.537L53.746,122.485L67.492,167.145L79.908,168.795L93.654,180.424L106.957,175.762L120.703,207.135L134.006,212.004L147.752,204.884L161.498,228.324L174.801,233.316L188.547,239.888L201.85,215.578L215.596,248.689L229.343,234.887L241.758,172.137L255.505,258.526L268.807,259.939L282.554,264.05L295.856,262.235L309.602,255.865L323.349,266.566L336.651,265.651L350.398,248.139L363.7,273.392L377.446,269.181L391.193,270.229L403.609,249.963L417.355,279.939L430.657,245.109L444.404,277.303L457.706,278.4L471.453,274.925L485.199,283.991L498.502,284.5L512.248,177.266L525.55,285.263L539.297,257.09L553.043,297.425L565.902,287.164L579.648,258.915L592.951,286.624L606.697,259.371L620,295.638"></path><path stroke="rgb(173, 245, 69)" d="M40,53.155L53.746,127.101L67.492,174.203L79.908,170.662L93.654,188.44L106.957,175.819L120.703,210.362L134.006,212.078L147.752,194.751L161.498,232.423L174.801,229.849L188.547,225.166L201.85,231.352L215.596,232.613L229.343,251.58L241.758,173.545L255.505,240.767L268.807,241.726L282.554,263.98L295.856,262.32L309.602,255.917L323.349,266.6L336.651,225.755L350.398,268.214L363.7,273.492L377.446,247.987L391.193,270.337L403.609,249.771L417.355,279.876L430.657,228.843L444.404,230.754L457.706,278.438L471.453,249.537L485.199,257.671L498.502,284.507L512.248,281.837L525.55,285.245L539.297,257.948L553.043,268.52L565.902,287.187L579.648,288.587L592.951,256.785L606.697,289.292L620,295.614"></path><path stroke="rgb(197, 236, 60)" d="M40,49.15L53.746,120.831L67.492,172.127L79.908,166.153L93.654,188.341L106.957,178.364L120.703,207.092L134.006,215.36L147.752,210.829L161.498,221.677L174.801,229.947L188.547,239.944L201.85,247.083L215.596,248.724L229.343,251.445L241.758,237.765L255.505,241.313L268.807,259.903L282.554,226.33L295.856,229.71L309.602,255.946L323.349,266.612L336.651,245.989L350.398,233.094L363.7,252.665L377.446,269.272L391.193,249.105L403.609,250.097L417.355,279.803L430.657,245.477L444.404,166.339L457.706,278.508L471.453,274.922L485.199,284.029L498.502,201.619L512.248,281.806L525.55,285.268L539.297,285.62L553.043,325.996L565.902,287.204L579.648,288.568L592.951,286.55L606.697,289.272L620,295.663"></path><path stroke="rgb(218, 224, 52)" d="M40,50.743L53.746,120.268L67.492,167.256L79.908,168.242L93.654,180.703L106.957,181.242L120.703,210.277L134.006,215.388L147.752,204.771L161.498,231.954L174.801,229.6L188.547,239.928L201.85,247.027L215.596,221.63L229.343,235.27L241.758,236.669L255.505,258.649L268.807,223.325L282.554,264.045L295.856,262.194L309.602,236.739L323.349,246.997L336.651,265.839L350.398,268.392L363.7,273.606L377.446,269.172L391.193,248.835L403.609,249.97L417.355,257.176L430.657,267.722L444.404,277.292L457.706,253.666L471.453,274.95L485.199,284.084L498.502,202.498L512.248,281.755L525.55,285.249L539.297,257.221L553.043,326.006L565.902,174.238L579.648,288.539L592.951,286.522L606.697,259.187L620,295.686"></path><path stroke="rgb(73, 62, 174)" d="M40,49.17L53.746,116.264L67.492,173.752L79.908,156.697L93.654,188.659L106.957,173.143L120.703,207.117L134.006,208.997L147.752,207.354L161.498,224.214L174.801,232.447L188.547,239.739L201.85,231.818L215.596,232.822L229.343,220.597L241.758,236.8L255.505,138.651L268.807,254.214L282.554,245.067L295.856,243.232L309.602,255.956L323.349,266.447L336.651,265.836L350.398,263.288L363.7,268.664L377.446,269.241L391.193,227.124L403.609,272.437L417.355,279.32L430.657,268.842L444.404,277.397L457.706,288.039L471.453,274.926L485.199,284.288L498.502,286.413L512.248,281.904L525.55,285.111L539.297,285.347L553.043,285.231L565.902,287.628L579.648,259.881L592.951,253.44L606.697,289.417L620,290.144"></path><path stroke="rgb(236, 209, 46)" d="M40,49.2L53.746,128.317L67.492,176.904L79.908,156.518L93.654,186.014L106.957,179.619L120.703,207.555L134.006,212.691L147.752,208.889L161.498,231.987L174.801,229.656L188.547,224.984L201.85,185.712L215.596,249.024L229.343,218.885L241.758,220.633L255.505,259.995L268.807,217.75L282.554,264.221L295.856,266.927L309.602,255.942L323.349,247.745L336.651,246.662L350.398,263.6L363.7,268.694L377.446,270.92L391.193,270.443L403.609,250.22L417.355,279.798L430.657,270.521L444.404,277.799L457.706,279.509L471.453,275.791L485.199,285.252L498.502,256.343L512.248,281.567L525.55,285.087L539.297,285.489L553.043,285.014L565.902,287.321L579.648,288.661L592.951,293.376L606.697,259.476L620,289.798"></path><path stroke="rgb(250, 192, 41)" d="M40,42.687L53.746,113.717L67.492,176.202L79.908,168.2L93.654,175.255L106.957,175.65L120.703,204.269L134.006,212.365L147.752,205.199L161.498,228.605L174.801,229.529L188.547,182.861L201.85,231.191L215.596,248.889L229.343,219.287L241.758,237.271L255.505,241.131L268.807,241.621L282.554,245.018L295.856,262.214L309.602,255.944L323.349,266.505L336.651,265.779L350.398,268.272L363.7,252.686L377.446,248.055L391.193,270.345L403.609,272.162L417.355,279.84L430.657,267.946L444.404,277.341L457.706,278.362L471.453,274.965L485.199,257.227L498.502,284.457L512.248,281.83L525.55,186.41L539.297,285.581L553.043,325.947L565.902,287.093L579.648,288.587L592.951,256.441L606.697,258.914L620,295.596"></path><path stroke="rgb(255, 173, 36)" d="M40,51.681L53.746,123.425L67.492,168.322L79.908,147.591L93.654,178.431L106.957,174.171L120.703,207.073L134.006,215.567L147.752,202.236L161.498,220.841L174.801,222.355L188.547,240.17L201.85,247.609L215.596,248.976L229.343,173.654L241.758,220.317L255.505,259.837L268.807,253.966L282.554,264.159L295.856,266.814L309.602,255.98L323.349,267.492L336.651,246.083L350.398,169.053L363.7,226.925L377.446,270.825L391.193,270.379L403.609,272.302L417.355,257.322L430.657,270.488L444.404,277.689L457.706,279.502L471.453,276.066L485.199,275.8L498.502,285.198L512.248,281.525L525.55,285.125L539.297,285.54L553.043,285.059L565.902,287.309L579.648,288.611L592.951,293.253L606.697,289.586L620,289.767"></path><path stroke="rgb(255, 152, 33)" d="M40,56.657L53.746,124.048L67.492,170.777L79.908,157.339L93.654,175.893L106.957,178.878L120.703,207.833L134.006,215.842L147.752,208.541L161.498,228.319L174.801,229.46L188.547,206.366L201.85,247.483L215.596,233.433L229.343,235.154L241.758,253.839L255.505,242.101L268.807,234.959L282.554,264.496L295.856,262.729L309.602,179.394L323.349,249.136L336.651,270.835L350.398,274.062L363.7,273.018L377.446,272.906L391.193,275.501L403.609,283.136L417.355,287.538L430.657,248.02L444.404,253.556L457.706,278.088L471.453,249.034L485.199,283.648L498.502,283.911L512.248,281.342L525.55,286.096L539.297,286.326L553.043,286.065L565.902,310.817L579.648,261.46L592.951,284.334L606.697,260.3L620,260.444"></path><path stroke="rgb(255, 130, 29)" d="M40,47.619L53.746,120.47L67.492,174.377L79.908,166.055L93.654,178.181L106.957,172.814L120.703,204.164L134.006,215.439L147.752,211.765L161.498,228.819L174.801,230.781L188.547,209.456L201.85,246.965L215.596,248.647L229.343,218.905L241.758,254.328L255.505,258.675L268.807,259.878L282.554,245.165L295.856,262.217L309.602,236.678L323.349,266.525L336.651,265.777L350.398,247.994L363.7,273.565L377.446,269.1L391.193,227.407L403.609,272.107L417.355,279.896L430.657,267.909L444.404,277.298L457.706,278.348L471.453,274.944L485.199,283.923L498.502,284.584L512.248,281.844L525.55,285.212L539.297,256.981L553.043,325.96L565.902,287.138L579.648,288.545L592.951,256.551L606.697,289.297L620,295.617"></path><path stroke="rgb(253, 108, 26)" d="M40,44.911L53.746,127.496L67.492,173.917L79.908,158.652L93.654,188.314L106.957,170.097L120.703,206.942L134.006,212.053L147.752,201.622L161.498,225.119L174.801,229.886L188.547,239.92L201.85,246.889L215.596,248.539L229.343,251.283L241.758,237.751L255.505,240.703L268.807,259.9L282.554,263.948L295.856,243.098L309.602,255.928L323.349,266.657L336.651,245.704L350.398,248.072L363.7,252.786L377.446,248.084L391.193,270.153L403.609,272.276L417.355,279.777L430.657,267.78L444.404,277.292L457.706,278.351L471.453,275.057L485.199,257.28L498.502,284.488L512.248,281.773L525.55,256.856L539.297,285.606L553.043,325.953L565.902,287.154L579.648,288.614L592.951,286.552L606.697,289.277L620,295.571"></path><path stroke="rgb(240, 86, 22)" d="M40,47.974L53.746,124.407L67.492,178.91L79.908,158.787L93.654,183.494L106.957,176.861L120.703,204.225L134.006,209.496L147.752,202.02L161.498,228.251L174.801,225.982L188.547,225.122L201.85,247.424L215.596,233.043L229.343,251.211L241.758,254.033L255.505,224.745L268.807,254.032L282.554,264.083L295.856,266.738L309.602,256.08L323.349,267.381L336.651,266.163L350.398,243.511L363.7,268.825L377.446,270.79L391.193,270.335L403.609,272.438L417.355,279.744L430.657,270.3L444.404,277.557L457.706,279.455L471.453,276.139L485.199,285.25L498.502,285.223L512.248,281.53L525.55,285.232L539.297,285.483L553.043,285.048L565.902,287.26L579.648,288.659L592.951,293.31L606.697,289.67L620,289.786"></path><path stroke="rgb(223, 65, 17)" d="M40,45.149L53.746,116.643L67.492,169.545L79.908,166.363L93.654,188.482L106.957,175.642L120.703,207.204L134.006,199.056L147.752,211.804L161.498,232.267L174.801,233.407L188.547,239.885L201.85,231.298L215.596,248.83L229.343,251.267L241.758,254.392L255.505,258.621L268.807,241.513L282.554,264.002L295.856,262.094L309.602,236.616L323.349,247.125L336.651,265.622L350.398,248.289L363.7,273.475L377.446,248.153L391.193,270.34L403.609,272.092L417.355,279.808L430.657,244.609L444.404,277.275L457.706,278.371L471.453,274.998L485.199,283.914L498.502,284.457L512.248,253.763L525.55,256.958L539.297,285.586L553.043,325.942L565.902,287.119L579.648,288.601L592.951,256.379L606.697,289.335L620,265.172"></path><path stroke="rgb(203, 47, 13)" d="M40,50.082L53.746,126.142L67.492,180.814L79.908,161.643L93.654,185.952L106.957,181.515L120.703,201.72L134.006,214.387L147.752,211.186L161.498,227.013L174.801,213.641L188.547,239.625L201.85,231.032L215.596,248.376L229.343,250.176L241.758,252.92L255.505,188.051L268.807,253.067L282.554,264.073L295.856,262.117L309.602,236.517L323.349,266.704L336.651,191.968L350.398,265.697L363.7,269.963L377.446,269.123L391.193,270.174L403.609,272.545L417.355,275.945L430.657,177.096L444.404,277.846L457.706,190.775L471.453,275.232L485.199,284.226L498.502,285.267L512.248,282.51L525.55,285.896L539.297,286.527L553.043,286.252L565.902,288.105L579.648,230.418L592.951,254.489L606.697,290.538L620,291.108"></path><path stroke="rgb(182, 31, 7)" d="M40,45.412L53.746,123.664L67.492,176.475L79.908,163.286L93.654,183.34L106.957,175.633L120.703,201.24L134.006,212.116L147.752,208.003L161.498,225.007L174.801,229.459L188.547,224.795L201.85,200.432L215.596,248.639L229.343,235.165L241.758,254.352L255.505,258.54L268.807,259.957L282.554,264.03L295.856,262.164L309.602,180.483L323.349,266.572L336.651,265.707L350.398,247.938L363.7,273.471L377.446,269.177L391.193,270.255L403.609,272.211L417.355,279.868L430.657,267.813L444.404,277.307L457.706,253.592L471.453,274.991L485.199,284.017L498.502,284.372L512.248,253.611L525.55,285.333L539.297,285.544L553.043,325.984L565.902,287.154L579.648,257.676L592.951,286.513L606.697,289.264L620,295.655"></path><path stroke="rgb(74, 83, 215)" d="M40,47.979L53.746,119.07L67.492,171.946L79.908,149.354L93.654,188.617L106.957,178.624L120.703,210.281L134.006,215.492L147.752,211.133L161.498,228.032L174.801,228.657L188.547,224.608L201.85,247.152L215.596,248.521L229.343,220.869L241.758,236.519L255.505,258.921L268.807,254.089L282.554,245.078L295.856,243.082L309.602,256L323.349,266.374L336.651,246.171L350.398,263.346L363.7,247.746L377.446,269.315L391.193,270.328L403.609,272.322L417.355,279.538L430.657,246.526L444.404,254.247L457.706,288.028L471.453,275.023L485.199,284.422L498.502,286.585L512.248,281.784L525.55,285.21L539.297,285.417L553.043,285.292L565.902,287.703L579.648,289.305L592.951,283.572L606.697,259.456L620,290.187"></path><path stroke="rgb(163, 19, 2)" d="M40,49.074L53.746,119.655L67.492,167.917L79.908,168.773L93.654,177.945L106.957,166.816L120.703,207.226L134.006,208.698L147.752,208.677L161.498,232.42L174.801,233.574L188.547,239.945L201.85,231.432L215.596,232.891L229.343,186.351L241.758,237.704L255.505,241.355L268.807,260.03L282.554,245.222L295.856,188.327L309.602,255.934L323.349,227.613L336.651,265.744L350.398,248.051L363.7,273.53L377.446,269.162L391.193,270.374L403.609,250.118L417.355,279.82L430.657,245.038L444.404,277.292L457.706,229.553L471.453,274.961L485.199,283.976L498.502,256.731L512.248,176.063L525.55,285.421L539.297,285.614L553.043,325.977L565.902,287.139L579.648,288.549L592.951,286.495L606.697,289.281L620,178.979"></path><path stroke="rgb(149, 12, 0)" d="M40,50.858L53.746,125.418L67.492,174.758L79.908,156.367L93.654,180.999L106.957,179.638L120.703,201.14L134.006,212.379L147.752,201.833L161.498,228.836L174.801,233.258L188.547,225.234L201.85,216.564L215.596,233.417L229.343,234.979L241.758,237.132L255.505,259.635L268.807,254.102L282.554,242.097L295.856,193.859L309.602,255.983L323.349,267.609L336.651,246.277L350.398,263.661L363.7,268.914L377.446,270.884L391.193,248.839L403.609,272.334L417.355,279.454L430.657,247.928L444.404,277.562L457.706,279.423L471.453,250.274L485.199,257.916L498.502,285.151L512.248,281.47L525.55,285.131L539.297,285.546L553.043,197.779L565.902,287.267L579.648,288.696L592.951,293.243L606.697,289.602L620,289.788"></path><path stroke="rgb(144, 12, 0)" d="M40,108.246L53.746,208.557L67.492,248.263L79.908,176.39L93.654,214.498L106.957,186.745L120.703,209.472L134.006,219.804L147.752,279.106L161.498,256.479L174.801,232.398L188.547,225.45L201.85,222.494L215.596,234.151L229.343,250.927L241.758,236.937L255.505,259.944L268.807,235.153L282.554,367.322L295.856,223.952L309.602,256.406L323.349,267.463L336.651,288.925L350.398,296.8L363.7,287.975L377.446,248.304L391.193,293.073L403.609,272.291L417.355,279.124L430.657,245.585L444.404,277.801L457.706,324.872L471.453,295.695L485.199,308.759L498.502,322.617L512.248,370L525.55,309.77L539.297,311.545L553.043,321.844L565.902,308.015L579.648,289.868L592.951,312.201L606.697,328.728L620,288.443"></path><path stroke="rgb(69, 105, 238)" d="M40,56.165L53.746,117.481L67.492,170.034L79.908,156.684L93.654,185.964L106.957,167.105L120.703,204.1L134.006,209.032L147.752,207.666L161.498,224.228L174.801,232.331L188.547,20L201.85,247.086L215.596,232.675L229.343,252.985L241.758,220.235L255.505,258.92L268.807,217.591L282.554,264.087L295.856,262.295L309.602,255.984L323.349,227.748L336.651,225.992L350.398,263.174L363.7,247.624L377.446,248.362L391.193,270.354L403.609,272.37L417.355,279.269L430.657,268.673L444.404,255.006L457.706,263.953L471.453,275.078L485.199,284.571L498.502,286.526L512.248,281.739L525.55,285.167L539.297,285.496L553.043,285.352L565.902,287.542L579.648,289.332L592.951,253.444L606.697,289.434L620,259.634"></path><path stroke="rgb(60, 127, 248)" d="M40,48.864L53.746,118.343L67.492,164.521L79.908,160.873L93.654,185.8L106.957,175.595L120.703,204.264L134.006,212.488L147.752,211.927L161.498,232.532L174.801,229.721L188.547,239.837L201.85,247.164L215.596,248.598L229.343,234.629L241.758,237.594L255.505,258.677L268.807,241.973L282.554,264.108L295.856,262.181L309.602,217.867L323.349,266.553L336.651,265.723L350.398,268.34L363.7,252.822L377.446,247.978L391.193,248.785L403.609,272.053L417.355,280.003L430.657,21.84L444.404,277.349L457.706,278.391L471.453,249.214L485.199,257.256L498.502,284.361L512.248,281.812L525.55,285.269L539.297,285.595L553.043,296.239L565.902,287.135L579.648,288.539L592.951,286.515L606.697,259.666L620,267.65"></path><path stroke="rgb(50, 149, 247)" d="M40,48.52L53.746,121.69L67.492,174.291L79.908,161.446L93.654,189.919L106.957,174.391L120.703,204.094L134.006,212.464L147.752,211.92L161.498,228.213L174.801,228.96L188.547,240.071L201.85,192.658L215.596,248.71L229.343,173.329L241.758,219.409L255.505,246.805L268.807,234.334L282.554,264.092L295.856,262.441L309.602,217.349L323.349,267.037L336.651,265.936L350.398,263.62L363.7,269.034L377.446,248.379L391.193,248.941L403.609,284.126L417.355,275.643L430.657,269.812L444.404,277.484L457.706,253.371L471.453,274.781L485.199,283.601L498.502,283.609L512.248,281.284L525.55,284.739L539.297,285.216L553.043,284.628L565.902,287.199L579.648,288.579L592.951,253.481L606.697,289.896L620,289.64"></path><path stroke="rgb(43, 169, 239)" d="M40,61.515L53.746,186.724L67.492,159.471L79.908,185.237L93.654,186.062L106.957,175.49L120.703,207.182L134.006,231.057L147.752,211.723L161.498,231.172L174.801,228.8L188.547,215.591L201.85,234.81L215.596,264.973L229.343,250.399L241.758,254.339L255.505,241.313L268.807,253.333L282.554,245.334L295.856,262.348L309.602,255.863L323.349,267.009L336.651,245.727L350.398,263.011L363.7,247.48L377.446,283.971L391.193,292.464L403.609,250.343L417.355,275.125L430.657,267.784L444.404,277.226L457.706,277.512L471.453,249.457L485.199,289.341L498.502,359.583L512.248,281.361L525.55,310.181L539.297,267.013L553.043,256.358L565.902,261.148L579.648,319.12L592.951,283.321L606.697,293.788L620,289.576"></path><path stroke="rgb(37, 205, 207)" d="M40,54.797L53.746,121.628L67.492,193.181L79.908,163.866L93.654,180.548L106.957,178.443L120.703,204.611L134.006,211.782L147.752,215.551L161.498,235.269L174.801,246.475L188.547,228.254L201.85,215.744L215.596,233.004L229.343,256.153L241.758,196.617L255.505,270.989L268.807,238.081L282.554,193.01L295.856,267.535L309.602,261.679L323.349,274.338L336.651,232.548L350.398,267.156L363.7,275.804L377.446,274.725L391.193,273.927L403.609,278.493L417.355,281.061L430.657,249.248L444.404,282.798L457.706,257.788L471.453,276.885L485.199,261.662L498.502,263.227L512.248,256.98L525.55,293.682L539.297,290.201L553.043,297.848L565.902,294.068L579.648,314.159L592.951,293.724L606.697,319.695L620,303.543"></path></g></svg>